<svg width="177" height="27" viewBox="0 0 177 27" fill="none" xmlns="http://www.w3.org/2000/svg">
<path d="M45.024 20.6227C44.9399 20.3753 44.8346 20.1356 44.7093 19.9062C44.5847 19.6719 44.4414 19.448 44.2807 19.2367C38.9979 13.0164 33.5878 6.41451 28.3719 0.0067749L23.3368 6.03286L23.1426 6.2739C27.0261 10.8537 30.856 15.3934 34.6122 20.0201L34.7528 20.2209L34.9336 20.5089C35.3898 21.3528 35.6065 22.3054 35.5605 23.2637C35.5145 24.2219 35.2074 25.1494 34.6725 25.9457L34.1301 26.7291H43.504C44.3155 25.9636 44.8901 24.9813 45.1595 23.8988C45.4289 22.8163 45.3819 21.6792 45.024 20.6227Z" fill="#009FE0"/>
<path d="M19.7888 15.862C20.2843 17.7234 21.8846 19.2098 22.6613 20.8503C23.4379 19.1897 25.0382 17.7234 25.5337 15.862C26.5113 12.9896 24.0874 10.7197 22.6746 8.4566C21.2418 10.7197 18.8246 12.9896 19.7888 15.862Z" fill="#00529F"/>
<path d="M22.6683 22.1023C22.4875 21.6805 22.0857 20.9305 22.0857 20.9305C22.0857 20.9305 20.6194 17.4823 16.0596 17.5827C14.7205 17.6162 14.3322 17.643 14.0911 17.6497C13.8501 17.6564 13.6693 17.6497 13.4216 17.6497C13.353 17.942 13.3126 18.2402 13.301 18.5402C13.2357 19.2777 13.3461 20.0203 13.6231 20.7069C13.9001 21.3936 14.3358 22.0048 14.8946 22.4906C16.1199 23.736 17.372 23.8298 19.2468 23.9235C21.1216 24.0172 21.5635 24.5127 21.925 24.9278C22.2374 25.3762 22.477 25.8711 22.6348 26.3942C22.7926 25.8711 23.0321 25.3762 23.3445 24.9278C23.7195 24.506 24.1614 24.0306 26.0228 23.9235C27.8842 23.8164 29.1563 23.736 30.3749 22.4906C30.9337 22.0048 31.3695 21.3936 31.6464 20.7069C31.9234 20.0203 32.0338 19.2777 31.9685 18.5402C31.957 18.2402 31.9166 17.942 31.848 17.6497C31.6203 17.6497 31.4396 17.6497 31.1784 17.6497C30.9173 17.6497 30.549 17.6497 29.2099 17.5827C24.6502 17.4622 23.1838 20.9305 23.1838 20.9305C23.1838 20.9305 22.849 21.6738 22.6683 22.1023Z" fill="#00529F"/>
<path d="M27.3886 0.00669565H17.392C17.3813 0.00227565 17.37 0 17.3585 0C17.347 0 17.3356 0.00227565 17.325 0.00669565C11.8614 6.25374 6.38431 12.9427 1.04118 19.2567C0.8751 19.4641 0.731458 19.6886 0.612659 19.9263C0.486297 20.1551 0.380966 20.3948 0.297963 20.6427C-0.0527882 21.6968 -0.0948055 22.8292 0.176866 23.9064C0.448538 24.9836 1.02257 25.9607 1.83127 26.7223H11.2052L10.6561 25.9189C10.1212 25.1225 9.81412 24.1951 9.7681 23.2368C9.72207 22.2786 9.93885 21.326 10.395 20.482L10.5691 20.2008L10.7097 20.0066C16.0662 13.3846 21.6236 6.9233 27.248 0.294609L27.4354 0.00669565H27.3618H27.3886Z" fill="#00529F"/>
<path d="M172.871 12.3736C172.868 11.9896 172.98 11.6134 173.191 11.2926C173.402 10.9718 173.704 10.7209 174.057 10.5715C174.411 10.4221 174.801 10.3809 175.178 10.4533C175.556 10.5256 175.903 10.7081 176.176 10.9778C176.45 11.2475 176.637 11.5922 176.715 11.9683C176.792 12.3444 176.756 12.7351 176.612 13.0909C176.467 13.4467 176.221 13.7517 175.903 13.9673C175.585 14.1828 175.21 14.2993 174.826 14.3019C174.571 14.3037 174.318 14.2552 174.082 14.1593C173.846 14.0633 173.631 13.9218 173.449 13.7427C173.268 13.5636 173.123 13.3506 173.024 13.1157C172.925 12.8807 172.873 12.6286 172.871 12.3736ZM176.514 12.3736C176.515 12.0364 176.416 11.7064 176.229 11.4255C176.043 11.1447 175.777 10.9257 175.465 10.7963C175.154 10.667 174.811 10.6332 174.48 10.6991C174.149 10.7651 173.846 10.9278 173.608 11.1668C173.37 11.4057 173.208 11.71 173.144 12.0409C173.079 12.3719 173.114 12.7146 173.245 13.0255C173.375 13.3364 173.595 13.6015 173.877 13.787C174.159 13.9726 174.489 14.0703 174.826 14.0676C175.05 14.0659 175.271 14.0199 175.478 13.9324C175.684 13.8449 175.871 13.7175 176.027 13.5577C176.184 13.3978 176.308 13.2085 176.391 13.0007C176.475 12.7929 176.516 12.5707 176.514 12.3468V12.3736ZM175.784 13.4382H175.469L174.84 12.4473H174.351V13.4449H174.07V11.2822H175.014C175.196 11.2662 175.379 11.301 175.543 11.3826C175.62 11.432 175.684 11.5004 175.727 11.5813C175.77 11.6622 175.792 11.7529 175.79 11.8446C175.79 12.2732 175.496 12.4339 175.121 12.4473L175.784 13.4382ZM174.739 12.2397C175.047 12.2397 175.516 12.2866 175.516 11.8446C175.516 11.5099 175.215 11.4697 174.947 11.4764H174.324V12.2397H174.739Z" fill="#009FE0"/>
<path d="M117.86 25.4502C117.907 25.0685 117.545 24.7806 117.277 24.5463C116.954 24.3096 116.649 24.0477 116.367 23.7629C116.144 23.4795 116.03 23.1255 116.045 22.7652C116.045 22.33 116.005 21.8948 115.992 21.4596C115.961 20.54 115.961 19.6227 115.992 18.7077C115.992 17.8104 116.059 16.8931 116.112 15.9959C116.166 15.0987 116.963 15.1924 117.626 15.1188C117.811 15.1218 117.994 15.083 118.162 15.0053C118.33 14.9277 118.479 14.8131 118.596 14.6702C118.736 14.3779 118.802 14.0563 118.791 13.7328C118.86 13.3604 118.808 12.9756 118.643 12.6347C118.539 12.5248 118.412 12.44 118.27 12.3866C118.129 12.3333 117.977 12.3128 117.826 12.3267C117.23 12.3267 116.487 12.4807 116.38 11.6906C116.273 10.9005 116.621 10.2377 116.46 9.51454C116.387 9.18645 116.152 8.84497 115.791 8.84497C115.43 8.91165 115.099 9.08685 114.84 9.34714C114.137 9.89619 113.468 10.4787 112.785 11.0545C112.187 11.6619 111.438 12.0988 110.615 12.32C109.765 12.4807 108.894 12.3803 108.037 12.5008C107.278 12.6031 106.586 12.991 106.102 13.5855C105.948 13.773 105.68 14.1747 105.433 14.1814C105.185 14.1881 105.232 13.9203 105.232 13.773C105.32 13.2923 105.214 12.7964 104.937 12.3937C104.643 12.1746 104.278 12.072 103.913 12.1058C103.484 12.1058 103.049 12.1058 102.627 12.1058C102.205 12.1058 101.697 12.1794 101.235 12.233C100.843 12.2536 100.459 12.3491 100.103 12.5142C99.939 12.5807 99.8016 12.6994 99.712 12.8519C99.6224 13.0044 99.5857 13.1823 99.6075 13.3578C99.6946 13.7328 100.07 13.9604 100.311 14.2283C100.547 14.5108 100.669 14.8715 100.652 15.2393C100.652 15.6611 100.652 16.083 100.699 16.4981C100.783 18.379 100.77 20.263 100.659 22.1425C100.659 22.5978 100.592 23.0531 100.558 23.4817C100.537 23.8786 100.381 24.2565 100.116 24.553C99.8686 24.7881 99.7201 25.1091 99.7012 25.4502C99.713 25.6174 99.7687 25.7786 99.8627 25.9173C99.9568 26.0561 100.086 26.1675 100.237 26.2403C100.585 26.392 100.962 26.4651 101.342 26.4545L102.56 26.4947C103.355 26.5251 104.151 26.5094 104.944 26.4478C105.46 26.401 106.109 26.2871 106.33 25.7381C106.551 25.1891 106.136 24.7003 105.848 24.2115C105.69 23.935 105.616 23.6187 105.634 23.3009C105.634 22.8523 105.634 22.4037 105.634 21.9617V19.1697C105.634 18.701 105.634 18.239 105.634 17.7703C105.613 17.3878 105.694 17.0067 105.868 16.6655C106.497 15.5607 107.877 15.4268 109.028 15.4469C109.31 15.4469 109.591 15.4469 109.872 15.4871C110.152 15.4829 110.43 15.5259 110.696 15.6143C110.836 15.6757 110.953 15.7817 111.028 15.9159C111.103 16.0501 111.132 16.2053 111.111 16.3575C111.111 16.786 111.111 17.2212 111.111 17.6498C111.084 18.605 111.059 19.5602 111.037 20.5155C111.037 21.4127 110.95 22.3099 110.957 23.1937C110.909 23.9822 111.096 24.767 111.492 25.4502C111.492 25.4502 112.108 26.5483 114.304 26.5617C116.501 26.5751 117.739 26.4679 117.86 25.4502Z" fill="#009FE0"/>
<path d="M49.726 26.7558C47.436 26.6889 47.9382 24.7806 47.9382 24.7806L49.4447 20.8837C50.5964 18.085 51.5405 15.1924 52.6586 12.3401L53.3282 10.5323C53.5081 10.1084 53.6036 9.65354 53.6094 9.19313C53.6094 9.19313 53.4956 8.56374 53.2947 8.40974C53.0939 8.25574 52.6252 6.88313 55.357 6.97018C56.7497 6.96607 58.141 7.05554 59.5217 7.238C59.5217 7.238 60.4859 7.37192 60.9144 9.17974L64.7778 23.7093C64.7778 23.7093 65.0456 24.707 65.7553 24.6936C66.7262 24.6936 66.6793 22.8456 66.6793 22.8456C66.6793 22.8456 66.7396 22.0622 66.7463 21.7943C66.8333 18.9688 66.9137 15.6879 66.7463 12.7284L66.6726 11.5768C66.599 10.318 64.443 9.394 66.3245 8.55705C67.5446 7.97412 68.7964 7.45998 70.074 7.01705C70.074 7.01705 71.8484 6.34748 71.7747 7.90087C71.5605 12.5878 71.3931 17.469 71.5002 21.9617C71.5002 22.1425 71.5471 23.562 71.5471 23.562C71.5471 24.2316 72.2166 24.6534 72.4912 25.1823C72.4912 25.1823 72.9666 25.939 71.4734 26.5215C70.3218 26.95 63.8873 26.7692 61.296 26.7491C58.9191 26.7491 59.1133 25.41 59.1133 25.41C59.2405 24.6869 59.3208 24.8409 59.669 24.2182C59.7688 24.0162 59.8207 23.794 59.8207 23.5687C59.8207 23.3434 59.7688 23.1212 59.669 22.9192C59.4882 22.4438 59.0463 20.6561 59.0463 20.6561C58.9987 20.4901 58.8972 20.3447 58.7578 20.2428C58.6183 20.1409 58.4489 20.0885 58.2763 20.0936C57.2653 20.0267 56.1404 20.2075 55.2432 19.8928C54.6752 19.707 54.1975 19.3152 53.904 18.7947C53.904 18.7947 53.75 18.567 53.5693 18.5804C53.3885 18.5938 53.3416 18.8081 53.3416 18.8081C52.7859 20.4217 52.3373 21.9417 51.8485 23.495C51.42 24.8877 52.6787 24.9882 52.4042 26.0461C52.4176 26.0461 52.4377 26.8295 49.726 26.7558ZM56.2944 11.6036C55.9127 11.6036 55.6248 11.8781 55.4306 12.32L54.0313 16.5249C54.0313 16.5249 53.9442 16.8864 54.2455 16.9534C54.7837 17.0711 55.3297 17.1494 55.8793 17.1877C56.0777 17.2011 56.2768 17.2011 56.4752 17.1877H56.897C57.1087 17.2094 57.3225 17.186 57.5245 17.1191C57.7264 17.0521 57.9119 16.9432 58.0687 16.7994C58.0687 16.7994 58.1893 16.6789 58.1089 16.324C58.0553 16.0763 57.6402 14.168 57.3858 13.023C57.3858 13.0297 57.0711 11.5902 56.2877 11.6036H56.2944Z" fill="#009FE0"/>
<path d="M129.061 25.41C129.722 24.6427 130.116 23.6819 130.186 22.6715C130.368 21.6219 130.191 20.5415 129.684 19.6049C128.505 17.8841 125.867 17.8641 124.153 16.6321C123.93 16.5036 123.738 16.3269 123.592 16.1149C123.446 15.9029 123.35 15.6609 123.309 15.4067C123.319 15.075 123.456 14.7597 123.692 14.5256C123.927 14.2915 124.243 14.1564 124.575 14.148C125.203 14.0206 125.855 14.1278 126.409 14.4493C126.495 14.5089 126.572 14.5812 126.637 14.6635C127.166 15.3331 126.383 15.9357 126.229 16.6254C126.175 16.8731 126.289 16.9735 126.289 16.9735C126.496 17.2081 126.787 17.3523 127.099 17.3753C127.293 17.4203 127.495 17.4214 127.689 17.3785C127.884 17.3357 128.067 17.2499 128.224 17.1275C128.744 16.7205 129.156 16.1916 129.422 15.5875C129.758 14.9741 129.905 14.2753 129.844 13.5788C129.799 13.3861 129.713 13.2058 129.59 13.0506C129.467 12.8955 129.312 12.7695 129.134 12.6816C126.664 11.3425 123.356 11.5032 120.751 12.6816C120.274 12.9462 119.876 13.3345 119.601 13.8058C119.325 14.2771 119.181 14.8139 119.185 15.3599C119.113 16.0429 119.107 16.7311 119.165 17.4154C119.406 19.1697 120.912 20.1473 122.399 20.6695C122.399 20.6695 125.887 21.714 126.068 22.8054C126.249 23.8968 125.325 24.4927 124.24 24.3588C123.455 24.3256 122.69 24.0953 122.017 23.6893C121.429 23.1746 120.919 22.5768 120.504 21.9149C120.417 21.7975 120.298 21.707 120.162 21.6538C120.001 21.57 119.819 21.5367 119.638 21.5582C119.458 21.5796 119.288 21.655 119.151 21.7743C119.089 21.836 119.047 21.9155 119.031 22.002C118.924 22.618 118.508 25.4502 119.961 26.1064C121.274 26.709 127.106 27.4589 129.061 25.41Z" fill="#009FE0"/>
<path d="M171.485 25.41C172.146 24.6427 172.541 23.6819 172.61 22.6715C172.792 21.6219 172.615 20.5415 172.108 19.6049C170.929 17.8841 168.291 17.8641 166.577 16.6321C166.354 16.5036 166.163 16.3269 166.017 16.1149C165.871 15.9029 165.774 15.6609 165.733 15.4067C165.744 15.075 165.88 14.7597 166.116 14.5256C166.351 14.2915 166.667 14.1564 166.999 14.148C167.627 14.0206 168.279 14.1278 168.834 14.4493C168.92 14.5089 168.996 14.5812 169.061 14.6635C169.59 15.3331 168.807 15.9357 168.653 16.6254C168.599 16.8731 168.713 16.9735 168.713 16.9735C168.92 17.2081 169.211 17.3523 169.523 17.3753C169.717 17.4203 169.919 17.4214 170.114 17.3785C170.308 17.3357 170.491 17.2499 170.648 17.1275C171.168 16.7205 171.58 16.1916 171.847 15.5875C172.182 14.9741 172.329 14.2753 172.268 13.5788C172.224 13.3861 172.137 13.2058 172.014 13.0506C171.891 12.8955 171.736 12.7695 171.559 12.6816C169.088 11.3425 165.78 11.5032 163.176 12.6816C162.698 12.9462 162.301 13.3345 162.025 13.8058C161.749 14.2771 161.605 14.8139 161.609 15.3599C161.539 16.0701 161.539 16.7855 161.609 17.4958C161.85 19.2501 163.356 20.2276 164.843 20.7499C164.843 20.7499 168.331 21.7944 168.512 22.8858C168.693 23.9772 167.769 24.5731 166.684 24.4392C165.899 24.4059 165.134 24.1757 164.461 23.7696C163.855 23.2415 163.331 22.6253 162.908 21.9417C162.821 21.8243 162.703 21.7338 162.566 21.6806C162.405 21.5968 162.223 21.5634 162.042 21.5849C161.862 21.6064 161.692 21.6818 161.555 21.8011C161.493 21.8628 161.451 21.9423 161.435 22.0287C161.328 22.6447 160.913 25.477 162.366 26.1332C163.698 26.709 169.53 27.4589 171.485 25.41Z" fill="#009FE0"/>
<path d="M156.186 12.2731C155.429 11.4629 154.317 11.6906 153.152 12.0589C152.095 12.3936 151.499 12.9829 150.621 13.3243C150.247 13.4649 150.18 13.2239 150.18 13.2239C150.093 13.0163 150.18 12.7351 150.019 12.3936C149.738 11.8513 149.142 11.8379 148.599 11.8781C148.057 11.9182 145.921 12.2932 145.921 12.2932C145.47 12.3816 145.054 12.5977 144.723 12.9159C144.18 13.8064 145.446 14.3421 145.486 15.1924C145.755 18.0122 145.802 20.8487 145.627 23.6758C145.459 24.3454 144.783 24.7739 144.857 25.4569C144.857 25.4569 144.857 26.5817 147.287 26.6085C149.718 26.6353 150.929 26.488 151.164 25.6443C151.182 25.4004 151.148 25.1554 151.067 24.9249C150.985 24.6944 150.856 24.4834 150.688 24.3052C149.952 23.4749 150.153 17.2212 150.153 17.2212C150.153 17.2212 149.932 15.8151 151.057 15.6879C151.377 15.661 151.696 15.7438 151.963 15.9227C152.229 16.1016 152.427 16.3659 152.523 16.6722C153.4 19.4575 153.963 22.4907 154.739 25.3765C154.905 25.7796 155.195 26.1194 155.567 26.3469C155.939 26.5744 156.374 26.6777 156.808 26.642C158.489 26.642 160.029 26.6955 160.571 26.0996C160.672 25.9458 160.739 25.773 160.77 25.5919C160.801 25.4108 160.794 25.2253 160.75 25.047C160.706 24.8686 160.626 24.7012 160.515 24.5552C160.403 24.4091 160.263 24.2876 160.103 24.1981C159.919 24.0051 159.776 23.7775 159.681 23.5285C158.67 20.6628 158.121 17.5895 157.21 14.6501C156.855 13.5051 156.775 13.0431 156.165 12.3401" fill="#009FE0"/>
<path d="M140.23 26.6019C138.14 26.9236 136.008 26.8394 133.95 26.3542C132.222 25.8319 131.466 24.2651 131.191 22.6448C130.777 20.3893 130.777 18.0773 131.191 15.8219C131.452 14.4828 131.861 13.0231 133.247 12.4741C135.449 11.593 137.872 11.4221 140.177 11.9853C140.659 12.0911 141.114 12.2939 141.516 12.5812C142.471 13.228 143.19 14.168 143.565 15.2595C144.203 17.4805 144.412 19.803 144.181 22.1024C144.181 22.1024 143.692 26.0729 140.23 26.6019ZM137.713 14.2082C137.432 14.1582 137.143 14.1716 136.868 14.2473C136.593 14.323 136.339 14.4593 136.123 14.646C135.907 14.8327 135.736 15.0653 135.622 15.3266C135.508 15.588 135.453 15.8716 135.463 16.1567C135.39 17.9675 135.464 19.7812 135.684 21.5802C135.756 22.4525 136.158 23.2643 136.809 23.85C137.231 24.1171 137.733 24.2284 138.228 24.1647C138.228 24.1647 139.326 23.9906 139.607 23.4349C140.023 22.6113 140.049 21.9283 140.023 20.6026C140.023 20.6026 139.895 16.0496 139.032 14.9782C138.697 14.5777 138.233 14.3075 137.719 14.2149L137.713 14.2082Z" fill="#009FE0"/>
<path d="M81.9717 26.555C79.5814 26.9969 75.3564 26.555 75.3564 26.555C74.5128 26.555 73.6423 26.3742 73.3477 25.8854C73.0531 25.3967 73.6825 24.3923 73.6825 24.3923C73.7763 24.2674 73.8342 24.1192 73.8499 23.9638C74.1298 20.3998 74.1835 16.8216 74.0106 13.2508L73.957 11.838C73.9102 10.9541 72.2697 10.5792 73.3477 9.6418C74.6675 8.74982 76.0767 7.99807 77.5526 7.39876C78.1284 7.15771 78.3226 7.39876 78.3226 7.39876C78.5369 7.55945 78.5302 8.00136 78.5302 8.00136V12.9628C78.5302 12.9628 78.4766 13.465 78.798 13.3244C79.5412 12.9963 80.3715 12.5745 81.1616 12.2531C81.6418 12.0602 82.1716 12.0284 82.6715 12.1624C83.1714 12.2964 83.6142 12.5891 83.9336 12.9963C85.1656 14.3354 85.9423 17.9176 85.9423 17.9176C86.4779 20.4352 86.6654 23.5955 84.6902 25.5841C84.0273 26.2805 81.9717 26.555 81.9717 26.555ZM81.3022 23.8768C81.538 23.6195 81.6979 23.302 81.7642 22.9594C82.0923 21.6672 81.6704 20.2812 81.416 18.9421L81.2553 18.085C81.0009 17.161 80.8067 16.1165 79.9162 15.6947C79.7899 15.6396 79.6513 15.6188 79.5144 15.6344C79.3522 15.6351 79.1922 15.6721 79.0462 15.7428C78.9002 15.8135 78.7719 15.916 78.6708 16.0428C78.6708 16.0428 78.4565 16.2169 78.403 16.8664C78.403 16.8664 78.3025 21.5534 78.3561 22.4573C78.3622 22.8806 78.4414 23.2997 78.5904 23.696C78.7034 23.9636 78.9107 24.1804 79.173 24.3053C79.4302 24.425 79.7134 24.478 79.9965 24.4593C80.502 24.4364 80.9803 24.2236 81.3356 23.8634L81.3022 23.8768Z" fill="#009FE0"/>
<path d="M97.1769 20.4352C97.3722 20.4193 97.5678 20.4612 97.7394 20.5557C98.4089 20.8838 99.0785 21.2722 99.0785 22.069C99.0902 22.8713 98.8832 23.6616 98.4798 24.3552C98.0764 25.0488 97.4917 25.6195 96.7886 26.006C94.8726 26.7726 92.7633 26.9132 90.7625 26.4077C90.1346 26.2731 89.546 25.996 89.0421 25.5978C88.5383 25.1996 88.1327 24.691 87.8566 24.1111C87.0576 21.0828 87.0923 17.8947 87.957 14.8845C88.0739 14.4072 88.2733 13.954 88.5462 13.5454C88.9583 13.0757 89.4591 12.6919 90.0198 12.4162C90.5805 12.1404 91.1901 11.9781 91.8137 11.9384C93.1502 11.7247 94.5159 11.7793 95.8311 12.0991C96.259 12.1953 96.6668 12.3652 97.0363 12.6013C97.4039 12.8601 97.7272 13.1767 97.9938 13.5387C98.0973 13.6772 98.1913 13.8226 98.275 13.9739C99.0854 15.3763 99.3947 17.0126 99.1522 18.614C99.1264 18.7453 99.086 18.8733 99.0316 18.9956C98.94 19.1993 98.7881 19.3699 98.5964 19.4844C97.7617 19.9486 96.8572 20.2743 95.9182 20.4486C95.9182 20.4486 93.6885 20.9307 92.6909 21.1182C92.6909 21.1182 91.7535 21.2387 91.8137 21.7877C91.9945 23.4683 92.5435 23.9169 92.5435 23.9169C92.7626 24.19 93.059 24.3907 93.3939 24.4928C93.7688 24.5848 94.1599 24.5897 94.537 24.5073C94.9142 24.4249 95.2675 24.2573 95.57 24.0174C95.57 24.0174 96.1592 23.7027 96.4471 22.0087C96.4471 22.0087 96.7082 21.1249 96.9158 20.6026C96.9406 20.5541 96.9779 20.513 97.0238 20.4836C97.0696 20.4542 97.1225 20.4375 97.1769 20.4352ZM92.4297 19.143C93.3537 19.2099 94.5857 19.0693 94.9473 18.2123C95.15 17.6346 95.2268 17.0203 95.1725 16.4106C95.1182 15.8008 94.9341 15.2097 94.6326 14.677C94.5217 14.4829 94.3595 14.3231 94.1639 14.215C93.9827 14.1236 93.7848 14.0699 93.5822 14.0573C93.3797 14.0446 93.1766 14.0732 92.9855 14.1413C92.8968 14.164 92.8113 14.1977 92.731 14.2417C92.5055 14.4 92.3168 14.6052 92.1781 14.8433C92.0394 15.0814 91.9539 15.3468 91.9275 15.621C91.7912 16.5563 91.7464 17.5026 91.7936 18.4466C91.79 18.5346 91.8038 18.6223 91.8342 18.705C91.8646 18.7876 91.9109 18.8634 91.9706 18.9281C92.0303 18.9927 92.1022 19.045 92.1821 19.0819C92.2621 19.1187 92.3485 19.1395 92.4364 19.143H92.4297Z" fill="#009FE0"/>
</svg>
