<svg width="162" height="30" viewBox="0 0 162 30" fill="none" xmlns="http://www.w3.org/2000/svg"><path fill-rule="evenodd" clip-rule="evenodd" d="M162 13.475c0 .977-.112 2.162-.28 2.784a18.804 18.804 0 0 0-2.326-.119c-.756 0-1.513.06-2.269.178v12.675h-3.082V14.186c1.317-.474 3.53-.83 5.267-.83.953 0 2.018.03 2.69.119Zm-20.678 6.456h6.949c0-2.428-1.233-3.85-3.363-3.85-2.185 0-3.334 1.333-3.586 3.85Zm9.89 2.724h-9.834c.392 2.636 1.849 3.91 4.595 3.91 1.681 0 3.39-.385 4.931-1.126-.112.86-.28 1.984-.476 2.962-1.401.68-2.886.947-4.539.947-5.156 0-7.649-3.02-7.649-8.084 0-4.413 1.933-7.907 6.836-7.907 4.399 0 6.304 3.05 6.304 6.781 0 .918-.056 1.659-.168 2.517Zm-18.548 2.902v-9.12c-.813-.178-1.653-.297-2.466-.297-3.054 0-4.511 2.014-4.511 5.39 0 3.02 1.149 5.153 3.895 5.153 1.232 0 2.241-.444 3.082-1.125Zm3.053-17.294v20.73h-2.829l-.168-1.895c-.785 1.392-1.99 2.25-4.007 2.25-3.698 0-6.164-2.843-6.164-7.818 0-5.212 2.634-8.173 7.817-8.173.813 0 1.569.088 2.298.236V8.707c.952-.355 2.045-.444 3.053-.444Zm-15.635 10.78v9.95h-3.081v-9.388c0-2.34-.729-3.465-3.811-3.465-.728 0-1.597.09-2.437.237v12.616h-3.082V14.186c1.961-.504 4.118-.83 5.603-.83 5.156 0 6.808 2.103 6.808 5.687Zm-18.856 6.574v-9.3c-.645-.117-1.345-.177-2.214-.177-3.194 0-4.679 2.073-4.679 5.39 0 3.02 1.15 5.153 3.895 5.153 1.204 0 2.185-.414 2.998-1.066Zm3.082-11.431v14.807h-2.83l-.168-1.777c-.785 1.303-1.99 2.132-3.95 2.132-3.7 0-6.165-2.843-6.165-7.818 0-5.212 2.634-8.173 7.817-8.173 2.018 0 3.671.236 5.296.829ZM87.776 26.565c.897 0 1.737-.178 2.41-.444-.084.888-.196 1.895-.364 2.753-.841.356-1.737.474-2.606.474-2.998 0-4.903-1.45-4.903-5.064V8.736c.952-.325 2.13-.473 3.082-.473v5.597h4.875a26.41 26.41 0 0 1-.28 2.784h-4.595V23.9c0 1.924.896 2.665 2.381 2.665Zm-8.546-7.522v9.95h-3.082v-9.388c0-2.34-.729-3.465-3.81-3.465-.73 0-1.598.09-2.438.237v12.616h-3.082V14.186c1.961-.504 4.118-.83 5.603-.83 5.156 0 6.809 2.103 6.809 5.687Zm-18.857 6.574v-9.3c-.644-.117-1.345-.177-2.213-.177-3.195 0-4.68 2.073-4.68 5.39 0 3.02 1.15 5.153 3.895 5.153 1.205 0 2.185-.414 2.998-1.066Zm3.082-11.431v14.807h-2.83l-.168-1.777c-.784 1.303-1.99 2.132-3.95 2.132-3.699 0-6.164-2.843-6.164-7.818 0-5.212 2.633-8.173 7.816-8.173 2.018 0 3.671.236 5.296.829Zm-27.99 14.156c.055-1.215.223-2.044.531-2.991 1.57.77 3.587 1.154 5.128 1.154 2.605 0 4.063-.888 4.063-2.635 0-1.718-1.065-2.518-3.699-3.732l-1.429-.651c-2.634-1.214-4.427-2.784-4.427-5.923 0-3.376 2.214-5.538 6.753-5.538 1.82 0 3.53.266 5.127.859-.084 1.184-.28 2.102-.56 2.961-1.513-.592-3.306-.859-4.596-.859-2.437 0-3.558 1.007-3.558 2.577 0 1.54 1.093 2.428 3.054 3.317l1.513.68c3.559 1.6 5.043 3.288 5.043 6.16 0 3.406-2.437 5.746-7.2 5.746-2.298 0-4.175-.355-5.744-1.125ZM20.52 10.618l-4.67-8.55A7.075 7.075 0 0 1 15.11 0l-.195.357a7.18 7.18 0 0 0 0 6.84l3.737 6.842a7.18 7.18 0 0 1 0 6.84l-.195.358a7.078 7.078 0 0 0-.74-2.068L12.115 8.908a7.087 7.087 0 0 1-.74-2.067l-.194.357a7.18 7.18 0 0 0-.012 6.82l3.748 6.861a7.18 7.18 0 0 1 0 6.84l-.195.358a7.071 7.071 0 0 0-.739-2.067l-4.67-8.551a7.148 7.148 0 0 1-.86-3.717C3.451 15.122 0 18.055 0 21.45 0 26.172 6.678 30 14.916 30s14.916-3.828 14.916-8.55c0-3.395-3.45-6.328-8.45-7.709a7.123 7.123 0 0 0-.86-3.123Z" fill="#EC0000"/></svg>