<svg width="109" height="24" viewBox="0 0 109 24" fill="none" xmlns="http://www.w3.org/2000/svg">
  <path d="m106.6 0-5.946 12.625-2.235-4.784H96l3.676 7.825h1.954L109.001 0H106.6Z" fill="#D52B1E"/>
  <path d="M81.096 23.441h4.786v-8.696c0-1.989 1.16-3.386 2.882-3.386 1.656 0 2.517 1.15 2.517 2.81v9.272h4.786V13.266c0-3.452-2.087-5.885-5.465-5.885-2.153 0-3.66.92-4.786 2.597h-.1V7.841H81.08l.016 15.6ZM71.69 7.414c-5.001 0-8.346 3.567-8.346 8.268 0 4.669 3.345 8.269 8.346 8.269 5.001 0 8.346-3.6 8.346-8.269.017-4.701-3.345-8.268-8.346-8.268Zm-.033 13.019c-2.269 0-3.478-1.89-3.478-4.75 0-2.894 1.193-4.752 3.478-4.752 2.269 0 3.527 1.858 3.527 4.751.017 2.86-1.242 4.75-3.527 4.75Zm-21.96 3.008h13.448v-3.748h-7.618v-.099l7.287-8.104V7.825H49.698v3.764h7.37v.099l-7.37 8.17v3.583Zm-6.143 0h4.82v-15.6h-4.82v15.6Zm-11.178 0h4.802v-7.167c0-3.255 1.971-4.701 4.968-4.29h.1v-4.11c-.249-.099-.53-.115-.977-.115-1.872 0-3.13.855-4.207 2.68h-.099V7.84h-4.587v15.6Zm-8.81-2.992c-2.12 0-3.412-1.364-3.66-3.468h11.327c.033-3.354-.861-6.033-2.732-7.71-1.325-1.216-3.064-1.89-5.283-1.89-4.736 0-8.015 3.567-8.015 8.235 0 4.702 3.13 8.285 8.33 8.285 1.97 0 3.527-.526 4.819-1.397 1.374-.937 2.368-2.318 2.633-3.682H26.38c-.447 1.02-1.408 1.627-2.815 1.627Zm-.249-9.666c1.69 0 2.849 1.25 3.047 3.075H19.94c.38-1.842 1.391-3.075 3.378-3.075ZM5.631 23.441h5.034l5.465-15.6h-4.819L8.247 17.868h-.066L5.118 7.842H.166l5.465 15.6ZM43.554 2.285h4.82v4.241h-4.82V2.285Z" fill="#000"/>
</svg>