<svg width="143" height="40" viewBox="0 0 143 40" fill="none" xmlns="http://www.w3.org/2000/svg">
<path fill-rule="evenodd" clip-rule="evenodd" d="M0.00439453 0.00390625H39.884V39.7086H0.00439453V0.00390625Z" fill="white"/>
<path fill-rule="evenodd" clip-rule="evenodd" d="M0.00187959 0.00166435H25.0235C27.0378 0.00166435 29.0523 -0.00254617 31.0623 0.00569944C30.5053 0.568506 29.9356 1.12728 29.3747 1.69026C29.5964 1.92359 29.8309 2.14044 30.053 2.36973C30.564 2.01956 31.1418 1.74026 31.77 1.6943C32.3353 1.63588 32.905 1.78184 33.4241 2.0071C33.6209 2.09044 33.8052 2.22377 34.0271 2.24465C34.2449 2.23219 34.4082 2.04044 34.4836 1.84851C34.5464 1.71535 34.4877 1.55675 34.3832 1.46079C33.8974 0.973068 33.4073 0.493594 32.9258 0.00569944C35.2458 -0.0067567 37.5658 0.00569944 39.8817 0.00166435C39.8817 2.25307 39.8857 4.50868 39.8817 6.7643C39.4043 6.29745 38.9393 5.82202 38.466 5.35517C38.3404 5.2257 38.1354 5.15903 37.9636 5.23833C37.8505 5.29254 37.7416 5.38009 37.6914 5.50096C37.6285 5.74289 37.7376 5.98044 37.8338 6.1971C38.127 6.8143 38.2569 7.51061 38.1689 8.19026C38.1102 8.65307 37.9427 9.10745 37.6914 9.5036C37.6244 9.59938 37.5617 9.69938 37.503 9.79974C37.7458 10.008 37.9511 10.2582 38.1982 10.4625C38.7509 9.89552 39.3205 9.34096 39.8817 8.77798C39.8817 12.5429 39.8857 16.308 39.8817 20.0729C39.7726 20.1104 39.6512 20.1855 39.5381 20.1311C39.3874 20.0353 39.2743 19.8936 39.1487 19.7727C37.7918 18.4301 36.4475 17.075 35.0866 15.7368C34.5464 16.2746 34.0147 16.8166 33.4658 17.342C33.755 17.6671 34.0775 17.9548 34.379 18.2675C35.4678 19.3517 36.5564 20.4357 37.6496 21.5196C37.7416 21.6155 37.8505 21.699 37.9007 21.8241C37.9175 21.9617 37.8213 22.0783 37.7835 22.2034C37.7291 22.3494 37.8465 22.5245 38.0013 22.5285C38.1395 22.5538 38.2569 22.4618 38.3448 22.3703C38.8556 21.8573 39.3707 21.3487 39.8817 20.8399V39.7064H20.9279C21.4137 39.2229 21.8995 38.7432 22.3853 38.2596C20.7312 36.6169 19.0812 34.9741 17.4311 33.3273C16.891 33.8443 16.3717 34.3822 15.8357 34.9032C15.7226 35.0201 15.5969 35.1325 15.5427 35.291C15.5175 35.4452 15.6599 35.5911 15.8105 35.5996C15.9446 35.5829 16.0576 35.4952 16.1917 35.4661C16.3088 35.458 16.4012 35.5496 16.4847 35.6246C17.4648 36.6085 18.4489 37.5843 19.4331 38.5641C19.6799 38.8224 19.9481 39.0559 20.1783 39.3229C20.2831 39.4396 20.2119 39.5896 20.1532 39.7064H8.81721C9.70901 38.8183 10.6012 37.9303 11.493 37.0422C11.6604 36.8838 11.8322 36.7004 11.8572 36.4585C11.8949 36.1792 11.6103 35.8997 11.3296 35.9582C11.0951 36.0039 10.9027 36.1875 10.6597 36.1875C10.5048 36.175 10.3874 36.0624 10.2828 35.9624C8.15113 33.8443 6.0239 31.7222 3.8965 29.6039C3.75413 29.4624 3.5825 29.3248 3.5321 29.1203C3.52382 28.8787 3.69545 28.6825 3.75835 28.4617C3.83783 28.1824 3.57404 27.8778 3.2891 27.8989C3.09245 27.9113 2.91659 28.0238 2.78267 28.1615C1.86126 29.0913 0.923289 30.0085 0.00187959 30.9383C-0.00234949 20.6273 0.00187959 10.3125 0.00187959 0.00166435Z" fill="#F96302"/>
<path fill-rule="evenodd" clip-rule="evenodd" d="M28.7666 2.29061C28.8043 2.24903 28.8713 2.21131 28.909 2.27395C31.8277 5.1757 34.7467 8.08184 37.6614 10.9878C36.6395 12.0052 35.6136 13.0266 34.5918 14.0482C34.4577 14.1732 34.2943 14.2775 34.1102 14.2899C33.8547 14.311 33.5992 14.0815 33.6201 13.8229C33.6286 13.5687 33.8462 13.3727 33.8505 13.1141C33.8589 12.9515 33.7333 12.8308 33.6286 12.718C31.4635 10.5668 29.3026 8.41131 27.1375 6.25552C27.0161 6.13886 26.8822 5.99289 26.6979 6.00552C26.4256 6.00956 26.2205 6.25974 25.9442 6.23061C25.7849 6.23465 25.655 6.10956 25.5756 5.98044C25.4667 5.75535 25.5671 5.4843 25.7306 5.31763C26.744 4.30851 27.7574 3.29956 28.7666 2.29061ZM32.9712 3.13693C33.0549 2.98272 33.214 2.84096 33.4024 2.86588C33.6117 2.88272 33.7625 3.05342 33.9007 3.19114C34.7384 4.02921 35.5759 4.86307 36.4135 5.69693C36.5726 5.85131 36.7609 6.00131 36.7987 6.23061C36.8196 6.46816 36.6018 6.68079 36.3715 6.70588C36.1789 6.71009 36.0031 6.60588 35.8357 6.51412C35.4795 6.3057 35.0776 6.13886 34.6545 6.15974C34.4367 6.15552 34.2275 6.24307 34.0305 6.33061C33.8002 6.08465 33.5364 5.86377 33.3186 5.60938C33.3856 5.42184 33.4735 5.24254 33.4862 5.04219C33.5157 4.58798 33.3313 4.1543 33.1009 3.77482C32.9837 3.58728 32.8915 3.3536 32.9712 3.13693ZM14.5157 5.34675C14.9682 4.87149 15.4455 4.42535 15.8977 3.95412C16.329 4.37096 16.7477 4.79219 17.1708 5.21324C17.309 5.34675 17.1833 5.57184 17.0284 5.62605C16.8986 5.64272 16.7854 5.55517 16.6683 5.51342C16.2161 5.29254 15.6549 5.26763 15.2027 5.50938C15.0853 5.55938 14.989 5.65938 14.8633 5.68026C14.7377 5.58026 14.633 5.45517 14.5157 5.34675ZM14.2311 5.61342C14.8466 6.20552 15.4413 6.81851 16.0485 7.41465C16.9992 8.35693 17.9454 9.30763 18.9003 10.2499C18.3558 10.8003 17.8073 11.3424 17.2587 11.8843C17.1456 12.0092 16.9195 12.0636 16.8106 11.9092C16.6767 11.7675 16.8231 11.5924 16.8651 11.4464C16.9153 11.338 16.8275 11.2422 16.7562 11.1673C15.6591 10.0789 14.5659 8.99061 13.473 7.89833C13.3726 7.80658 13.2887 7.69412 13.1673 7.63149C12.9999 7.59395 12.87 7.74412 12.7067 7.75254C12.581 7.73991 12.4638 7.615 12.4806 7.48552C12.4889 7.38552 12.5475 7.29798 12.6187 7.2271C13.1548 6.68921 13.6993 6.15974 14.2311 5.61342ZM16.417 6.28061C16.3627 6.14307 16.4589 5.9764 16.6055 5.95552C16.7144 5.93886 16.8023 6.02202 16.8778 6.09307C17.3299 6.54324 17.7821 6.99781 18.2386 7.44395C18.3181 7.53149 18.4312 7.61061 18.4397 7.73991C18.4564 7.86921 18.3308 7.9943 18.1969 7.98166C18.0209 7.98166 17.8869 7.84412 17.7278 7.7857C17.4933 7.67745 17.2085 7.66903 16.9782 7.79412C16.8568 7.67324 16.7352 7.54816 16.6096 7.43552C16.6642 7.25202 16.7144 7.05623 16.6683 6.8643C16.6348 6.64763 16.4839 6.48079 16.417 6.28061ZM24.4365 6.60588C24.5497 6.49324 24.6919 6.40991 24.8512 6.38903C25.1315 6.34745 25.4247 6.61833 25.3705 6.90184C25.3327 7.15202 25.1234 7.35202 25.14 7.615C25.1819 7.79816 25.3327 7.92324 25.454 8.05272C27.5941 10.179 29.734 12.3011 31.8654 14.4317C31.9828 14.536 32.1 14.6736 32.2675 14.6736C32.5188 14.6736 32.7114 14.486 32.9502 14.4441C33.2265 14.3985 33.4987 14.6694 33.4651 14.9446C33.4485 15.1322 33.3354 15.2948 33.2057 15.4239C32.1292 16.4913 31.0572 17.5671 29.981 18.6345C29.8429 18.772 29.667 18.8971 29.4619 18.8971C29.2355 18.9096 29.0179 18.718 28.9886 18.4969C28.9592 18.205 29.2314 17.9882 29.223 17.6962C29.2105 17.5587 29.1142 17.4462 29.0221 17.346C27.1417 15.4783 25.2656 13.6062 23.3854 11.7383C24.9391 14.611 26.5053 17.4755 28.0589 20.3482C28.0839 20.3897 28.1049 20.4357 28.1259 20.4857C28.0129 20.5897 27.904 20.7024 27.7951 20.815C24.6836 19.2892 21.5763 17.7462 18.469 16.2162C17.9791 15.9745 17.4933 15.691 16.9405 15.6243C16.7562 15.599 16.6305 15.7494 16.4966 15.8452C16.3583 15.9536 16.174 16.0203 16.0025 15.966C15.7972 15.8745 15.6549 15.6325 15.7178 15.4115C15.7595 15.2615 15.8642 15.1364 15.9731 15.0278C16.9782 14.0315 17.9791 13.031 18.9842 12.0385C20.5502 12.8015 22.1206 13.5478 23.6912 14.311C23.7414 14.3483 23.7957 14.3859 23.8418 14.4359C23.867 14.4066 23.888 14.3775 23.913 14.3483L23.8543 14.3566C23.0295 12.7931 22.1627 11.2504 21.3375 9.68693C22.3761 8.66131 23.4022 7.63149 24.4365 6.60588ZM18.938 7.31044C19.0135 7.17289 19.227 7.15623 19.3275 7.27289C19.7504 7.69816 20.1819 8.12342 20.6089 8.54886C20.1315 9.02816 19.654 9.50359 19.1685 9.97886C19.0596 9.85377 18.9128 9.75377 18.8291 9.6078C18.9673 9.3743 19.1139 9.13658 19.1516 8.86149C19.2228 8.48202 19.1601 8.08184 18.9967 7.73167C18.9505 7.59816 18.8501 7.44395 18.938 7.31044ZM11.9068 7.93587C11.9905 7.84833 12.0827 7.75658 12.2041 7.72745C12.3257 7.70254 12.4764 7.77745 12.4931 7.91079C12.5225 8.05675 12.4136 8.1778 12.3844 8.31938C12.3675 8.43201 12.4596 8.51131 12.5266 8.5864C13.6448 9.69938 14.7586 10.8127 15.8769 11.9217C15.9523 11.9927 16.0318 12.0803 16.1407 12.1052C16.2746 12.0927 16.3875 12.0052 16.5176 11.976C16.6767 11.9592 16.8231 12.1303 16.7729 12.2803C16.7521 12.3929 16.6642 12.4764 16.5888 12.5555C16.0443 13.0976 15.4998 13.6396 14.9555 14.1775C14.8593 14.2734 14.7336 14.3734 14.5911 14.3401C14.5116 14.3066 14.4446 14.2441 14.4152 14.165C14.3735 13.9815 14.5703 13.8313 14.5241 13.6478C14.4823 13.5771 14.4237 13.5227 14.3692 13.4645C13.8584 12.9599 13.3516 12.4471 12.8365 11.9427C12.6564 12.126 12.4764 12.3053 12.292 12.4846C12.1664 12.3638 12.0408 12.2427 11.9236 12.1136C12.1077 11.9343 12.288 11.751 12.4723 11.5715C12.0198 11.1297 11.5717 10.6792 11.1238 10.2331C11.0274 10.1415 10.9437 10.0415 10.8305 9.97482C10.6254 9.90798 10.4286 10.1957 10.2318 10.0373C10.0725 9.92482 10.1229 9.69938 10.2527 9.58272C10.8013 9.02816 11.3581 8.48623 11.9068 7.93587Z" fill="white"/>
<path fill-rule="evenodd" clip-rule="evenodd" d="M9.76367 10.0997C9.88949 10.0203 10.0779 10.0704 10.1364 10.2122C10.195 10.3831 10.0401 10.529 10.0359 10.6959C10.0317 10.7834 10.1029 10.8459 10.1573 10.9043C11.3173 12.0594 12.4733 13.2141 13.6333 14.3648C13.8424 14.5899 14.1106 14.2022 14.3367 14.369C14.4833 14.4859 14.4331 14.715 14.3075 14.8234C13.763 15.3697 13.2144 15.9074 12.6742 16.4536C12.5862 16.5371 12.4983 16.6371 12.3769 16.6746C12.2428 16.7122 12.0794 16.6287 12.0629 16.4871C12.0377 16.3204 12.1885 16.191 12.1801 16.0283C12.1589 15.9574 12.1131 15.8992 12.0629 15.845C10.9656 14.7569 9.86834 13.6645 8.7753 12.572C8.67081 12.4762 8.58288 12.3552 8.44455 12.3052C8.29389 12.2969 8.16825 12.4096 8.02165 12.426C7.89601 12.4303 7.78711 12.3176 7.78288 12.1969C7.77037 12.0674 7.86253 11.9634 7.95046 11.8759C8.49477 11.3338 9.03909 10.7917 9.57953 10.2497C9.63803 10.1955 9.69248 10.1413 9.76367 10.0997ZM6.73601 13.0808C6.98729 12.8388 7.23011 12.5887 7.48138 12.3427C7.92121 12.7681 8.3524 13.2099 8.79222 13.6394C8.86764 13.7227 8.95962 13.7978 9.00138 13.9062C9.05178 14.1106 8.81742 14.3357 8.61213 14.2439C8.40685 14.1522 8.24367 13.9896 8.04667 13.8811C7.71592 13.6769 7.33055 13.5476 6.93707 13.5936C6.82394 13.4769 6.6983 13.3683 6.59786 13.2434C6.63116 13.1766 6.68579 13.1308 6.73601 13.0808ZM4.9101 14.8985C5.37918 14.4399 5.8398 13.9771 6.30464 13.5143C7.18411 14.3941 8.06764 15.2738 8.95116 16.1494C9.43698 16.6287 9.91028 17.1167 10.4001 17.5878C10.5385 17.742 10.7226 17.6129 10.8735 17.5585C11.0241 17.4918 11.2001 17.6253 11.1959 17.7836C11.1959 17.892 11.133 17.9838 11.062 18.059C10.4925 18.6218 9.93125 19.1846 9.36596 19.7476C9.28632 19.8267 9.1857 19.9059 9.06852 19.8976C8.93865 19.9103 8.81301 19.7852 8.82552 19.6599C8.83398 19.5266 8.93865 19.4181 8.93865 19.2846C8.94711 19.172 8.85072 19.1011 8.78376 19.026C7.4479 17.7045 6.12455 16.3704 4.78447 15.0527C4.8264 14.9985 4.86411 14.9485 4.9101 14.8985ZM36.339 14.4899C36.8581 14.9985 37.3734 15.5113 37.8844 16.0283C38.0476 16.1827 37.9304 16.4911 37.7126 16.5246C37.5115 16.5538 37.3566 16.3953 37.2017 16.2911C36.7871 16.0074 36.2971 15.7408 35.778 15.8283C35.6396 15.7032 35.5057 15.5739 35.3926 15.4281C35.715 15.1196 36.025 14.8025 36.339 14.4899ZM4.48297 15.3362C4.63803 15.3946 4.73425 15.5697 4.85988 15.6781C4.79292 16.1618 5.02306 16.6162 5.2953 16.9957C5.37495 17.1167 5.47116 17.2292 5.52138 17.3667C5.57601 17.5503 5.39592 17.742 5.2116 17.7211C5.10693 17.7211 5.03574 17.6336 4.96878 17.5711C4.51222 17.1124 4.05178 16.6622 3.59521 16.2036C3.89671 15.9199 4.17742 15.6157 4.48297 15.3362ZM13.8007 17.688C14.634 17.421 15.5385 17.3918 16.397 17.5669C17.8544 17.8755 19.1441 18.726 20.1744 19.7808C21.1836 20.7981 21.9876 22.0741 22.2599 23.4957C22.4105 24.2753 22.3771 25.0925 22.1512 25.8555C21.9291 26.6103 21.5268 27.3066 21.0202 27.9069C20.8024 27.6776 20.5639 27.465 20.3543 27.2315C20.3543 27.1189 20.4255 27.0229 20.4467 26.9146C20.5596 26.5478 20.4467 26.135 20.166 25.868C18.0974 23.8043 16.0202 21.7404 13.9513 19.6766C13.763 19.4848 13.5244 19.3306 13.2521 19.3097C13.0301 19.2806 12.8123 19.3597 12.603 19.4346C12.5191 19.4806 12.4648 19.3766 12.4104 19.3346C12.2428 19.1555 12.0585 18.9929 11.8911 18.8094C11.8911 18.7969 11.8868 18.7718 11.8868 18.7594C12.4438 18.2841 13.0972 17.9131 13.8007 17.688ZM19.4458 17.4585C19.6384 17.521 19.8142 17.6169 19.9943 17.7087C20.6687 18.0339 21.3385 18.3717 22.0171 18.701C22.0756 18.7303 22.13 18.776 22.1804 18.8218C22.7498 19.3973 23.3237 19.9643 23.8972 20.5355C24.2072 20.865 24.5964 21.1192 25.0195 21.2776C25.3168 21.3903 25.652 21.3903 25.9492 21.2859C26.1001 21.2359 26.2634 21.1776 26.4225 21.2276C26.5816 21.2903 26.6988 21.4487 26.7113 21.6196C26.6988 21.8489 26.5522 22.0406 26.3973 22.199C25.8865 22.716 25.367 23.229 24.8479 23.7376C24.7098 23.8627 24.5506 23.9918 24.3579 24.0127C24.0816 24.0543 23.8093 23.7627 23.893 23.4957C23.9727 23.2246 24.0816 22.9496 24.0356 22.666C23.9684 22.1906 23.6962 21.7696 23.3947 21.4069C22.2599 20.2729 21.1209 19.1429 19.9818 18.0046C19.8058 17.8211 19.6132 17.6545 19.4458 17.4585ZM32.2181 18.5925C32.5325 18.2799 32.8505 17.9671 33.1647 17.6504C33.3029 17.7629 33.4243 17.8964 33.5542 18.0215C33.4997 18.4383 33.6423 18.851 33.8599 19.2013C33.9728 19.4015 34.1362 19.5724 34.2368 19.7808C34.2913 19.881 34.2535 19.9934 34.2158 20.0934C34.7436 20.448 35.2083 20.8981 35.5769 21.411C35.9998 22.0073 36.2971 22.716 36.2803 23.4581C36.2846 24.1629 35.9788 24.8382 35.5307 25.3718C35.4093 25.2467 35.2669 25.1343 35.1621 24.9925C35.1832 24.8382 35.2585 24.6882 35.2208 24.5339C35.179 24.3338 35.0239 24.192 34.8858 24.0543C33.7804 22.9578 32.6789 21.8615 31.5776 20.7648C31.4687 20.6564 31.3388 20.5564 31.1838 20.5439C31.0373 20.5271 30.8907 20.5689 30.7568 20.6146C30.6269 20.4939 30.4972 20.3645 30.3716 20.2394C30.9284 19.7641 31.6528 19.4597 32.3942 19.4973C32.6789 19.489 32.9554 19.5557 33.2317 19.6181C32.8967 19.2722 32.5406 18.9469 32.2181 18.5925ZM10.3039 21.0399C10.5342 20.402 10.8985 19.8183 11.3298 19.2971C11.5434 19.5141 11.7697 19.7224 11.979 19.9434C12.0208 20.0769 11.912 20.202 11.8911 20.3353C11.7822 20.6939 11.9246 21.0859 12.1885 21.3443C14.2236 23.3748 16.2631 25.4011 18.3025 27.4315C18.4994 27.6443 18.7379 27.8443 19.0394 27.8903C19.3075 27.932 19.5714 27.8403 19.8185 27.7485C20.0446 27.9736 20.2708 28.1946 20.4969 28.4197C20.0026 28.8492 19.4289 29.1869 18.8176 29.4246C17.8962 29.7789 16.8661 29.8373 15.8987 29.6248C14.4287 29.3036 13.1348 28.4239 12.1004 27.3524C11.1457 26.356 10.375 25.1343 10.1029 23.7708C9.91874 22.8662 9.97742 21.9073 10.3039 21.0399ZM29.3371 22.245C29.3875 21.6113 29.668 21.0067 30.0868 20.5313C30.2081 20.6564 30.3381 20.7815 30.4636 20.9066C30.4176 21.0567 30.3462 21.2152 30.3883 21.3734C30.4134 21.5153 30.5096 21.628 30.6102 21.728C31.7157 22.8245 32.8128 23.9252 33.9186 25.0217C34.0483 25.1467 34.1739 25.2969 34.3582 25.3469C34.5258 25.3929 34.6974 25.3343 34.8606 25.2843C34.9864 25.4096 35.1163 25.5346 35.2377 25.668C34.7099 26.1015 34.0525 26.406 33.3573 26.406C32.6831 26.4352 32.0215 26.1974 31.4604 25.8473C31.0541 25.5889 30.6814 25.276 30.3716 24.9132C30.518 25.4011 30.4847 25.9474 30.2542 26.406C30.0282 26.8562 29.6765 27.2232 29.3288 27.5776C29.2031 27.4525 29.0733 27.3231 28.9434 27.1981C29.0525 27.0229 29.1237 26.8145 29.0565 26.6103C28.9771 26.4017 28.8053 26.2517 28.6546 26.0932C28.3446 25.7804 28.0306 25.4678 27.7165 25.1552C27.5323 24.9841 27.3353 24.7881 27.0715 24.7715C26.9166 24.755 26.7785 24.8341 26.6486 24.9092C26.5189 24.7841 26.3933 24.6548 26.2634 24.5299C26.7658 24.0253 27.3395 23.5041 28.0766 23.4124C28.6796 23.3122 29.2868 23.5708 29.714 23.9836C29.446 23.4499 29.2786 22.8494 29.3371 22.245ZM7.26359 23.7001C7.38922 23.5792 7.55257 23.4874 7.72843 23.475C8.01742 23.4581 8.28138 23.7583 8.20156 24.0378C8.13883 24.2504 7.98394 24.438 7.97548 24.6674C7.99222 24.8674 8.1598 25.0092 8.29389 25.1427C10.4421 27.2815 12.5945 29.4246 14.7429 31.5634C14.8435 31.6594 14.9565 31.7552 15.0988 31.7676C15.3416 31.7676 15.5302 31.5885 15.7605 31.5343C16.0368 31.4801 16.3133 31.7303 16.3008 32.0053C16.2923 32.1931 16.1876 32.3639 16.0578 32.4973C14.9774 33.5731 13.8927 34.6531 12.8123 35.7287C12.6699 35.8662 12.4941 35.9871 12.289 35.9871C12.0377 35.9955 11.8031 35.758 11.8239 35.5034C11.8493 35.2534 12.0585 35.0532 12.0629 34.7946C12.0544 34.6404 11.9328 34.5236 11.8366 34.4153C10.8735 33.4522 9.90605 32.4973 8.94711 31.5385C8.9094 31.5094 8.85918 31.4259 8.80473 31.4841C8.46975 31.8052 8.14729 32.1431 7.81213 32.4639C7.58605 32.2389 7.35997 32.0138 7.13372 31.7845C7.45618 31.4467 7.79116 31.1173 8.13037 30.7922C8.13037 30.7753 8.13478 30.738 8.13478 30.7211C7.22588 29.8332 6.33389 28.9325 5.4294 28.0362C5.29125 27.9069 5.16121 27.7445 4.96878 27.6985C4.70499 27.6817 4.49971 27.886 4.25266 27.932C3.93442 27.9862 3.64544 27.6276 3.75433 27.3315C3.80878 27.1231 3.97618 26.9729 4.12279 26.8313C5.16966 25.7848 6.22077 24.7466 7.26359 23.7001ZM25.9617 24.8259C26.4643 25.2927 26.9376 25.7931 27.4317 26.2725C28.3698 27.2106 29.312 28.1487 30.2542 29.0867C30.3212 29.1411 30.3839 29.216 30.4719 29.2327C30.6521 29.2496 30.7943 29.0743 30.9746 29.1076C31.0835 29.1452 31.1838 29.2496 31.1714 29.3703C31.1714 29.5329 31.0331 29.6455 30.9325 29.7539C30.3422 30.3336 29.76 30.9213 29.1697 31.501C29.0398 31.6427 28.7968 31.5718 28.7173 31.4134C28.6002 31.2174 28.9184 31.0089 28.751 30.8297C27.5364 29.6248 26.3219 28.4155 25.1117 27.2064C25.0238 27.1273 24.9485 27.0273 24.8437 26.9729C24.6636 26.9229 24.5212 27.0731 24.3538 27.0939C24.2239 27.0815 24.0983 26.9689 24.1066 26.8353C24.0941 26.6894 24.203 26.5771 24.295 26.4811C24.8521 25.9306 25.4091 25.3762 25.9617 24.8259ZM22.2264 28.5408C22.7246 28.0529 23.2104 27.5485 23.7172 27.0689C24.1653 27.5192 24.6176 27.9653 25.0657 28.4155C25.2164 28.5615 25.0572 28.7825 24.9024 28.8492C24.7935 28.8617 24.6928 28.795 24.5964 28.7534C24.2114 28.5655 23.7674 28.4739 23.3445 28.5824C23.0765 28.6366 22.8419 28.7866 22.6074 28.9241C22.4817 28.795 22.3563 28.6659 22.2264 28.5408ZM20.191 30.5711C20.7691 29.9874 21.3554 29.4162 21.9332 28.8366C22.8712 29.7582 23.7966 30.6962 24.739 31.6176C25.4594 32.3306 26.1713 33.052 26.8957 33.7608C26.3346 34.336 25.7568 34.8948 25.1954 35.4659C25.1159 35.5536 25.0028 35.6036 24.8981 35.6494C24.7935 35.612 24.6636 35.5745 24.6301 35.4578C24.5674 35.2617 24.7725 35.1074 24.7475 34.9157C24.6636 34.7531 24.517 34.6362 24.3913 34.5071C23.3737 33.4938 22.3563 32.4808 21.3385 31.4674C21.1586 31.3008 21.0077 31.1008 20.7942 30.9757C20.5806 30.9338 20.388 31.2048 20.1829 31.0588C20.007 30.9464 20.0572 30.6962 20.191 30.5711ZM24.2532 29.5373C24.1862 29.3662 24.3453 29.166 24.5254 29.1952C24.6091 29.216 24.6719 29.2703 24.7305 29.3287C25.1702 29.7708 25.6142 30.2043 26.0498 30.6462C26.192 30.7922 26.3764 30.9173 26.435 31.1257C26.3806 31.2174 26.3219 31.3425 26.1964 31.355C25.991 31.3759 25.8403 31.2132 25.656 31.1464C25.4047 31.0213 25.0992 31.0213 24.8479 31.1508C24.714 31.0173 24.5841 30.8838 24.45 30.7546C24.5422 30.5587 24.5841 30.3336 24.517 30.125C24.4668 29.9124 24.3244 29.7373 24.2532 29.5373ZM26.9459 30.6253C27.0338 30.492 27.2474 30.4711 27.352 30.5962C27.8044 31.0508 28.2652 31.501 28.7131 31.9596C28.198 32.4599 27.7039 32.9852 27.1762 33.4731C27.055 33.3438 26.9249 33.2187 26.7993 33.0894C27.2474 32.5392 27.3103 31.7427 27.0088 31.109C26.9542 30.9589 26.837 30.7753 26.9459 30.6253Z" fill="white"/>
<path fill-rule="evenodd" clip-rule="evenodd" d="M0.00187959 32.2849C0.16928 32.2182 0.328575 32.1138 0.512893 32.118C0.734743 32.1598 0.873069 32.3558 1.02778 32.5016C3.13439 34.5905 5.23236 36.6835 7.33457 38.7723C7.45175 38.9017 7.60258 39.0309 7.62355 39.2144C7.61509 39.3935 7.51871 39.5521 7.44364 39.7105C4.96012 39.7063 2.48117 39.7063 0.00187959 39.7063C0.00187959 37.2338 -0.00234949 34.7572 0.00187959 32.2849Z" fill="#F96302"/>
<path fill-rule="evenodd" clip-rule="evenodd" d="M19.4954 32.1724C20.2408 32.1099 20.9821 32.3766 21.5976 32.7812C22.0792 33.1022 22.5273 33.4733 22.8706 33.9361C23.2812 34.4822 23.5323 35.1494 23.5367 35.8373C23.549 36.6212 23.2392 37.4133 22.6782 37.9677C22.5481 37.8426 22.4225 37.7177 22.297 37.5884C22.3723 37.4468 22.4602 37.2966 22.4352 37.1298C22.3934 36.8796 22.2216 36.6752 22.0498 36.5043C21.1078 35.5663 20.1654 34.6282 19.2232 33.6899C19.0306 33.5024 18.8128 33.298 18.528 33.2773C18.3731 33.2606 18.2348 33.3398 18.1051 33.4148C17.9835 33.2813 17.8161 33.1813 17.7407 33.0147C18.2013 32.5434 18.8295 32.214 19.4954 32.1724ZM36.4211 37.3513C36.4211 36.6033 37.0306 36.0515 37.7509 36.0515C38.4644 36.0515 39.0737 36.6033 39.0737 37.3513C39.0737 38.1064 38.4644 38.6582 37.7509 38.6582C37.0306 38.6582 36.4211 38.1064 36.4211 37.3513ZM37.7509 38.4408C38.343 38.4408 38.8105 37.9789 38.8105 37.3513C38.8105 36.7341 38.343 36.2687 37.7509 36.2687C37.1516 36.2687 36.6841 36.7341 36.6841 37.3513C36.6841 37.9789 37.1516 38.4408 37.7509 38.4408ZM37.4738 38.1064H37.2452V36.6033H37.82C38.1768 36.6033 38.3534 36.7341 38.3534 37.0306C38.3534 37.2998 38.1837 37.417 37.962 37.4445L38.3916 38.1064H38.1351L37.737 37.4547H37.4738V38.1064ZM37.7474 37.2617C37.9412 37.2617 38.1145 37.248 38.1145 37.017C38.1145 36.8308 37.9448 36.7964 37.7855 36.7964H37.4738V37.2617H37.7474Z" fill="white"/>
<path d="M54.619 0H46.5506V14.495H54.8212V12.0995H49.4625V8.20166H54.3157V5.80612H49.4625V2.39553H54.619V0Z" fill="#F96302"/>
<path d="M61.3618 3.573L59.8856 11.3889H59.8452L58.2881 3.573H55.3762L58.187 14.495H61.4225L64.1524 3.573H61.3618Z" fill="#F96302"/>
<path d="M70.4278 7.79564H67.5766V7.36931C67.5766 7.11216 67.5968 6.85502 67.6373 6.59787C67.6912 6.34072 67.7721 6.11064 67.8799 5.90763C67.9878 5.69108 68.1293 5.52191 68.3046 5.4001C68.4933 5.26476 68.7292 5.19709 69.0123 5.19709C69.2954 5.19709 69.5246 5.25799 69.6999 5.3798C69.8886 5.48807 70.0302 5.65725 70.1245 5.88733C70.2324 6.10387 70.3065 6.37456 70.347 6.69937C70.3874 7.01066 70.4144 7.37608 70.4278 7.79564ZM67.5766 9.46033H73.0971V8.83099C73.0971 7.99188 73.0432 7.23397 72.9353 6.55727C72.8275 5.86703 72.6253 5.28506 72.3287 4.81137C72.0321 4.32414 71.6209 3.95195 71.0952 3.69481C70.5829 3.42412 69.9223 3.28878 69.1134 3.28878C68.1698 3.28878 67.4148 3.44443 66.8486 3.75571C66.2824 4.06699 65.8443 4.48655 65.5342 5.01438C65.2376 5.54221 65.0354 6.14448 64.9276 6.82118C64.8332 7.49789 64.786 8.20166 64.786 8.9325C64.786 9.62274 64.813 10.313 64.8669 11.0032C64.9343 11.6935 65.1028 12.316 65.3725 12.8709C65.6421 13.4258 66.06 13.8724 66.6262 14.2108C67.1924 14.5491 67.981 14.7183 68.9921 14.7183C70.3267 14.7183 71.3041 14.3867 71.9242 13.7236C72.5444 13.0604 72.8814 12.0927 72.9353 10.8205H70.4278C70.347 11.5107 70.1987 12.025 69.983 12.3634C69.7673 12.7017 69.4235 12.8709 68.9517 12.8709C68.6955 12.8709 68.4798 12.8032 68.3046 12.6679C68.1293 12.519 67.9878 12.3296 67.8799 12.0995C67.7721 11.8559 67.6912 11.5852 67.6373 11.2874C67.5968 10.9761 67.5766 10.6581 67.5766 10.3333V9.46033Z" fill="#F96302"/>
<path d="M74.5508 3.573V14.495H77.3414V7.2475C77.3414 6.04297 77.8335 5.4407 78.8176 5.4407C79.2355 5.4407 79.5388 5.55574 79.7276 5.78582C79.9163 6.00237 80.0107 6.39486 80.0107 6.96329V14.495H82.8012V6.39486C82.8012 5.2986 82.5586 4.50685 82.0733 4.01962C81.6014 3.5324 80.9206 3.28878 80.0309 3.28878C79.4242 3.28878 78.885 3.41736 78.4132 3.6745C77.9413 3.91812 77.5571 4.31061 77.2605 4.85197H77.2201V3.573H74.5508Z" fill="#F96302"/>
<path d="M85.2683 0.446625V3.573H83.8528V5.48131H85.2683V11.7341C85.2683 12.289 85.302 12.7491 85.3694 13.1145C85.4368 13.48 85.5581 13.7777 85.7334 14.0078C85.9221 14.2243 86.185 14.3732 86.522 14.4544C86.8725 14.5221 87.3174 14.5559 87.8566 14.5559C88.1802 14.5559 88.4835 14.5424 88.7666 14.5153C89.0632 14.5018 89.3665 14.495 89.6766 14.495V12.5461C89.5822 12.5596 89.4811 12.5732 89.3732 12.5867C89.2654 12.5867 89.1575 12.5867 89.0497 12.5867C88.6453 12.5867 88.3756 12.4987 88.2408 12.3228C88.1195 12.1333 88.0588 11.822 88.0588 11.3889V5.48131H89.6766V3.573H88.0588V0.446625H85.2683Z" fill="#F96302"/>
<path d="M92.6875 10.922H90.1801V11.3077C90.1801 11.8356 90.2407 12.316 90.362 12.7491C90.4834 13.1687 90.6923 13.5273 90.9889 13.8251C91.299 14.1228 91.7102 14.3461 92.2224 14.495C92.7482 14.6439 93.402 14.7183 94.1839 14.7183C94.7771 14.7183 95.3163 14.6574 95.8016 14.5356C96.3004 14.4138 96.7251 14.2108 97.0756 13.9266C97.4396 13.6424 97.7227 13.2905 97.9249 12.8709C98.1271 12.4378 98.2282 11.9303 98.2282 11.3483C98.2282 10.5228 98.0462 9.87312 97.6823 9.39943C97.3183 8.9122 96.6981 8.51971 95.8219 8.22196L94.1435 7.65353C93.6716 7.50465 93.3481 7.32194 93.1728 7.1054C93.0111 6.88885 92.9302 6.64524 92.9302 6.37456C92.9302 5.98207 93.0583 5.69108 93.3144 5.50161C93.584 5.2986 93.8941 5.19709 94.2446 5.19709C94.7029 5.19709 95.0197 5.33243 95.195 5.60311C95.3837 5.86026 95.4781 6.27305 95.4781 6.84148H97.9856V6.39486C97.9856 5.40687 97.6823 4.64219 97.0756 4.10083C96.469 3.55947 95.532 3.28878 94.2648 3.28878C93.5503 3.28878 92.9369 3.37675 92.4246 3.5527C91.9258 3.72864 91.5147 3.96549 91.1911 4.26324C90.8676 4.56099 90.6317 4.91287 90.4834 5.3189C90.3351 5.71139 90.2609 6.13094 90.2609 6.57757C90.2609 7.34901 90.4564 7.98511 90.8474 8.48587C91.2383 8.9731 91.818 9.35206 92.5864 9.62274L94.5479 10.3333C94.8175 10.4416 95.0534 10.5904 95.2557 10.7799C95.4579 10.9558 95.559 11.2198 95.559 11.5716C95.559 12.0047 95.4309 12.3296 95.1748 12.5461C94.9186 12.7626 94.5749 12.8709 94.1435 12.8709C93.6716 12.8709 93.3077 12.7288 93.0515 12.4446C92.8089 12.1468 92.6875 11.7611 92.6875 11.2874V10.922Z" fill="#F96302"/>
<path d="M54.619 21.9929H46.5506V36.4879H54.8212V34.0924H49.4625V30.1946H54.3157V27.799H49.4625V24.3884H54.619V21.9929Z" fill="#F96302"/>
<path d="M61.4427 25.5659L59.9463 28.8547L58.4499 25.5659H55.538L58.369 30.8645L55.4166 36.4879H58.3286L59.9463 32.9149L61.564 36.4879H64.4759L61.5236 30.8645L64.3546 25.5659H61.4427Z" fill="#F96302"/>
<path d="M65.5459 25.5659V40H68.3365V35.4728H68.3769C68.6735 35.9059 69.0038 36.224 69.3678 36.427C69.7453 36.6165 70.1969 36.7112 70.7226 36.7112C71.8685 36.7112 72.7111 36.2714 73.2503 35.3916C73.7896 34.5119 74.0592 33.057 74.0592 31.0269C74.0592 28.9968 73.7896 27.5351 73.2503 26.6419C72.7111 25.7351 71.8685 25.2817 70.7226 25.2817C70.1564 25.2817 69.6779 25.3967 69.2869 25.6268C68.9094 25.8433 68.5657 26.2088 68.2556 26.7231H68.2152V25.5659H65.5459ZM68.3365 31.0269C68.3365 29.8359 68.4241 28.9426 68.5994 28.3471C68.7881 27.7381 69.1925 27.4336 69.8127 27.4336C70.4193 27.4336 70.8103 27.7381 70.9855 28.3471C71.1743 28.9426 71.2686 29.8359 71.2686 31.0269C71.2686 32.2179 71.1743 33.1179 70.9855 33.7269C70.8103 34.3224 70.4193 34.6202 69.8127 34.6202C69.1925 34.6202 68.7881 34.3224 68.5994 33.7269C68.4241 33.1179 68.3365 32.2179 68.3365 31.0269Z" fill="#F96302"/>
<path d="M80.8941 29.7885H78.0428V29.3622C78.0428 29.1051 78.0631 28.8479 78.1035 28.5908C78.1574 28.3336 78.2383 28.1035 78.3462 27.9005C78.454 27.684 78.5956 27.5148 78.7708 27.393C78.9596 27.2577 79.1955 27.19 79.4786 27.19C79.7617 27.19 79.9909 27.2509 80.1661 27.3727C80.3548 27.481 80.4964 27.6501 80.5908 27.8802C80.6986 28.0968 80.7728 28.3675 80.8132 28.6923C80.8536 29.0036 80.8806 29.369 80.8941 29.7885ZM78.0428 31.4532H83.5633V30.8239C83.5633 29.9848 83.5094 29.2269 83.4016 28.5502C83.2937 27.8599 83.0915 27.278 82.7949 26.8043C82.4983 26.317 82.0872 25.9448 81.5614 25.6877C81.0491 25.417 80.3885 25.2817 79.5797 25.2817C78.636 25.2817 77.8811 25.4373 77.3149 25.7486C76.7487 26.0599 76.3105 26.4794 76.0005 27.0073C75.7039 27.5351 75.5017 28.1374 75.3938 28.8141C75.2995 29.4908 75.2523 30.1946 75.2523 30.9254C75.2523 31.6156 75.2792 32.3059 75.3332 32.9961C75.4006 33.6863 75.5691 34.3089 75.8387 34.8638C76.1083 35.4187 76.5262 35.8653 77.0924 36.2037C77.6586 36.542 78.4473 36.7112 79.4584 36.7112C80.793 36.7112 81.7704 36.3796 82.3905 35.7165C83.0106 35.0533 83.3476 34.0856 83.4016 32.8134H80.8941C80.8132 33.5036 80.6649 34.0179 80.4492 34.3563C80.2335 34.6946 79.8897 34.8638 79.4179 34.8638C79.1618 34.8638 78.9461 34.7961 78.7708 34.6608C78.5956 34.5119 78.454 34.3224 78.3462 34.0924C78.2383 33.8488 78.1574 33.5781 78.1035 33.2803C78.0631 32.969 78.0428 32.651 78.0428 32.3262V31.4532Z" fill="#F96302"/>
<path d="M85.0171 25.5659V36.4879H87.8077V29.9306C87.8077 29.5652 87.8683 29.2607 87.9896 29.0171C88.111 28.7599 88.2727 28.5569 88.475 28.4081C88.6772 28.2456 88.8996 28.1306 89.1423 28.0629C89.3849 27.9953 89.6276 27.9614 89.8702 27.9614C90.0185 27.9614 90.1601 27.9682 90.2949 27.9817C90.4432 27.9817 90.5915 27.9885 90.7398 28.002V25.3223C90.6589 25.3087 90.5713 25.302 90.4769 25.302C90.396 25.2884 90.3151 25.2817 90.2342 25.2817C89.6546 25.2817 89.1625 25.4441 88.7581 25.7689C88.3536 26.0802 88.0099 26.4997 87.7268 27.0276H87.6863V25.5659H85.0171Z" fill="#F96302"/>
<path d="M91.8521 21.8305V24.226H94.6427V21.8305H91.8521ZM91.8521 25.5659V36.4879H94.6427V25.5659H91.8521Z" fill="#F96302"/>
<path d="M101.846 29.7885H98.9951V29.3622C98.9951 29.1051 99.0153 28.8479 99.0557 28.5908C99.1097 28.3336 99.1906 28.1035 99.2984 27.9005C99.4062 27.684 99.5478 27.5148 99.7231 27.393C99.9118 27.2577 100.148 27.19 100.431 27.19C100.714 27.19 100.943 27.2509 101.118 27.3727C101.307 27.481 101.449 27.6501 101.543 27.8802C101.651 28.0968 101.725 28.3675 101.765 28.6923C101.806 29.0036 101.833 29.369 101.846 29.7885ZM98.9951 31.4532H104.516V30.8239C104.516 29.9848 104.462 29.2269 104.354 28.5502C104.246 27.8599 104.044 27.278 103.747 26.8043C103.451 26.317 103.039 25.9448 102.514 25.6877C102.001 25.417 101.341 25.2817 100.532 25.2817C99.5882 25.2817 98.8333 25.4373 98.2671 25.7486C97.7009 26.0599 97.2628 26.4794 96.9527 27.0073C96.6561 27.5351 96.4539 28.1374 96.3461 28.8141C96.2517 29.4908 96.2045 30.1946 96.2045 30.9254C96.2045 31.6156 96.2315 32.3059 96.2854 32.9961C96.3528 33.6863 96.5213 34.3089 96.7909 34.8638C97.0605 35.4187 97.4785 35.8653 98.0447 36.2037C98.6109 36.542 99.3995 36.7112 100.411 36.7112C101.745 36.7112 102.723 36.3796 103.343 35.7165C103.963 35.0533 104.3 34.0856 104.354 32.8134H101.846C101.765 33.5036 101.617 34.0179 101.401 34.3563C101.186 34.6946 100.842 34.8638 100.37 34.8638C100.114 34.8638 99.8983 34.7961 99.7231 34.6608C99.5478 34.5119 99.4062 34.3224 99.2984 34.0924C99.1906 33.8488 99.1097 33.5781 99.0557 33.2803C99.0153 32.969 98.9951 32.651 98.9951 32.3262V31.4532Z" fill="#F96302"/>
<path d="M105.969 25.5659V36.4879H108.76V29.2404C108.76 28.0359 109.252 27.4336 110.236 27.4336C110.654 27.4336 110.957 27.5486 111.146 27.7787C111.335 27.9953 111.429 28.3878 111.429 28.9562V36.4879H114.22V28.3878C114.22 27.2915 113.977 26.4997 113.492 26.0125C113.02 25.5253 112.339 25.2817 111.449 25.2817C110.843 25.2817 110.303 25.4103 109.832 25.6674C109.36 25.911 108.976 26.3035 108.679 26.8449H108.639V25.5659H105.969Z" fill="#F96302"/>
<path d="M121.317 29.5043H123.987C123.987 28.205 123.656 27.1765 122.996 26.4185C122.349 25.6606 121.378 25.2817 120.084 25.2817C119.437 25.2817 118.844 25.3696 118.304 25.5456C117.765 25.7215 117.3 26.0328 116.909 26.4794C116.518 26.9125 116.215 27.5013 115.999 28.2456C115.784 28.9765 115.676 29.9036 115.676 31.0269C115.676 32.1232 115.763 33.0435 115.939 33.7878C116.114 34.5187 116.37 35.1074 116.707 35.5541C117.057 35.9871 117.489 36.2917 118.001 36.4676C118.527 36.63 119.14 36.7112 119.841 36.7112C121.324 36.7112 122.382 36.339 123.016 35.5947C123.663 34.8367 123.987 33.7405 123.987 32.3059H121.317C121.317 33.1991 121.21 33.8488 120.994 34.2548C120.778 34.6608 120.434 34.8638 119.963 34.8638C119.653 34.8638 119.396 34.7961 119.194 34.6608C119.005 34.5119 118.857 34.2818 118.749 33.9706C118.641 33.6593 118.567 33.2668 118.527 32.7931C118.486 32.3059 118.466 31.7239 118.466 31.0472C118.466 30.4111 118.486 29.863 118.527 29.4028C118.567 28.9291 118.641 28.5434 118.749 28.2456C118.857 27.9344 119.019 27.7043 119.235 27.5554C119.45 27.393 119.727 27.3118 120.064 27.3118C120.333 27.3118 120.549 27.3795 120.711 27.5148C120.873 27.6366 120.994 27.8058 121.075 28.0223C121.169 28.2253 121.23 28.4554 121.257 28.7126C121.297 28.9697 121.317 29.2336 121.317 29.5043Z" fill="#F96302"/>
<path d="M130.678 29.7885H127.827V29.3622C127.827 29.1051 127.847 28.8479 127.887 28.5908C127.941 28.3336 128.022 28.1035 128.13 27.9005C128.238 27.684 128.379 27.5148 128.555 27.393C128.743 27.2577 128.979 27.19 129.262 27.19C129.545 27.19 129.775 27.2509 129.95 27.3727C130.139 27.481 130.28 27.6501 130.375 27.8802C130.482 28.0968 130.557 28.3675 130.597 28.6923C130.637 29.0036 130.664 29.369 130.678 29.7885ZM127.827 31.4532H133.347V30.8239C133.347 29.9848 133.293 29.2269 133.185 28.5502C133.077 27.8599 132.875 27.278 132.579 26.8043C132.282 26.317 131.871 25.9448 131.345 25.6877C130.833 25.417 130.172 25.2817 129.363 25.2817C128.42 25.2817 127.665 25.4373 127.099 25.7486C126.532 26.0599 126.094 26.4794 125.784 27.0073C125.488 27.5351 125.285 28.1374 125.178 28.8141C125.083 29.4908 125.036 30.1946 125.036 30.9254C125.036 31.6156 125.063 32.3059 125.117 32.9961C125.184 33.6863 125.353 34.3089 125.622 34.8638C125.892 35.4187 126.31 35.8653 126.876 36.2037C127.442 36.542 128.231 36.7112 129.242 36.7112C130.577 36.7112 131.554 36.3796 132.174 35.7165C132.794 35.0533 133.131 34.0856 133.185 32.8134H130.678C130.597 33.5036 130.449 34.0179 130.233 34.3563C130.017 34.6946 129.674 34.8638 129.202 34.8638C128.946 34.8638 128.73 34.7961 128.555 34.6608C128.379 34.5119 128.238 34.3224 128.13 34.0924C128.022 33.8488 127.941 33.5781 127.887 33.2803C127.847 32.969 127.827 32.651 127.827 32.3262V31.4532Z" fill="#F96302"/>
<path d="M136.843 32.9149H134.336V33.3006C134.336 33.8285 134.396 34.3089 134.518 34.742C134.639 35.1616 134.848 35.5202 135.145 35.818C135.455 36.1157 135.866 36.339 136.378 36.4879C136.904 36.6368 137.558 36.7112 138.34 36.7112C138.933 36.7112 139.472 36.6503 139.957 36.5285C140.456 36.4067 140.881 36.2037 141.231 35.9195C141.595 35.6353 141.878 35.2834 142.081 34.8638C142.283 34.4307 142.384 33.9232 142.384 33.3412C142.384 32.5156 142.202 31.866 141.838 31.3923C141.474 30.9051 140.854 30.5126 139.978 30.2149L138.299 29.6464C137.827 29.4975 137.504 29.3148 137.329 29.0983C137.167 28.8817 137.086 28.6381 137.086 28.3675C137.086 27.975 137.214 27.684 137.47 27.4945C137.74 27.2915 138.05 27.19 138.4 27.19C138.859 27.19 139.175 27.3253 139.351 27.596C139.539 27.8532 139.634 28.2659 139.634 28.8344H142.141V28.3878C142.141 27.3998 141.838 26.6351 141.231 26.0937C140.625 25.5524 139.688 25.2817 138.421 25.2817C137.706 25.2817 137.093 25.3696 136.58 25.5456C136.082 25.7215 135.67 25.9584 135.347 26.2561C135.023 26.5539 134.787 26.9058 134.639 27.3118C134.491 27.7043 134.417 28.1238 134.417 28.5705C134.417 29.3419 134.612 29.978 135.003 30.4788C135.394 30.966 135.974 31.3449 136.742 31.6156L138.704 32.3262C138.973 32.4344 139.209 32.5833 139.411 32.7728C139.614 32.9487 139.715 33.2127 139.715 33.5645C139.715 33.9976 139.587 34.3224 139.33 34.539C139.074 34.7555 138.731 34.8638 138.299 34.8638C137.827 34.8638 137.463 34.7217 137.207 34.4375C136.965 34.1397 136.843 33.754 136.843 33.2803V32.9149Z" fill="#F96302"/>
<path d="M108.327 7.96552C108.118 7.67586 107.908 7.38621 107.699 7.09655C107.49 6.8069 107.298 6.51724 107.124 6.22759C106.95 5.91862 106.802 5.60965 106.68 5.30069C106.575 4.99172 106.523 4.68276 106.523 4.37379C106.523 3.62069 106.749 3.07034 107.203 2.72276C107.656 2.35586 108.144 2.17241 108.667 2.17241C109.329 2.17241 109.852 2.39448 110.235 2.83862C110.619 3.26345 110.81 3.77517 110.81 4.37379C110.81 4.81793 110.732 5.22345 110.575 5.59034C110.418 5.93793 110.218 6.25655 109.974 6.54621C109.73 6.83586 109.46 7.09655 109.163 7.32828C108.867 7.56 108.588 7.77241 108.327 7.96552ZM113.111 18.1034L115.098 20.6814H118L114.366 16.0179C114.558 15.5545 114.723 15.149 114.863 14.8014C115.002 14.4345 115.115 14.0676 115.203 13.7007C115.307 13.3338 115.386 12.9379 115.438 12.5131C115.508 12.069 115.569 11.5379 115.621 10.92H113.503C113.451 11.9821 113.251 13.0538 112.902 14.1352L109.529 9.58759C109.983 9.29793 110.418 8.97931 110.837 8.63172C111.255 8.26483 111.63 7.85931 111.961 7.41517C112.292 6.97103 112.553 6.48828 112.745 5.9669C112.937 5.42621 113.033 4.8469 113.033 4.22897C113.033 3.53379 112.902 2.92552 112.641 2.40414C112.397 1.86345 112.065 1.41931 111.647 1.07172C111.229 0.704828 110.741 0.434483 110.183 0.26069C109.643 0.0868966 109.085 0 108.51 0C107.83 0 107.229 0.115862 106.706 0.347587C106.183 0.57931 105.739 0.897931 105.373 1.30345C105.024 1.68966 104.754 2.14345 104.562 2.66483C104.388 3.1669 104.301 3.69793 104.301 4.25793C104.301 4.77931 104.353 5.25241 104.458 5.67724C104.58 6.08276 104.736 6.47862 104.928 6.86483C105.137 7.23172 105.364 7.59862 105.608 7.96552C105.852 8.33241 106.105 8.71862 106.366 9.12414C105.773 9.47172 105.207 9.84828 104.667 10.2538C104.144 10.64 103.682 11.0841 103.281 11.5862C102.898 12.069 102.584 12.6193 102.34 13.2372C102.113 13.8552 102 14.5697 102 15.3807C102 15.8055 102.061 16.3366 102.183 16.9738C102.322 17.611 102.601 18.229 103.02 18.8276C103.438 19.4262 104.031 19.9379 104.797 20.3628C105.564 20.7876 106.575 21 107.83 21C108.858 21 109.852 20.7586 110.81 20.2759C111.786 19.7931 112.553 19.069 113.111 18.1034ZM107.595 10.6883L111.882 16.3945C111.429 17.1476 110.863 17.7462 110.183 18.1903C109.521 18.6345 108.763 18.8566 107.908 18.8566C107.455 18.8566 107.011 18.7697 106.575 18.5959C106.157 18.4221 105.782 18.1903 105.451 17.9007C105.12 17.5917 104.85 17.2248 104.641 16.8C104.449 16.3559 104.353 15.8731 104.353 15.3517C104.353 14.7338 104.44 14.2028 104.614 13.7586C104.789 13.2952 105.024 12.88 105.32 12.5131C105.617 12.1462 105.956 11.8179 106.34 11.5283C106.741 11.2386 107.159 10.9586 107.595 10.6883Z" fill="#53565A"/>
</svg>