<svg width="150" height="41" viewBox="0 0 150 41" fill="none" xmlns="http://www.w3.org/2000/svg">
<path d="M77.18 37.1119C77.18 37.0999 77.18 37.0999 77.18 37.0879C77.18 37.0399 77.144 37.0039 77.06 37.0039H73.304C73.22 37.0039 73.184 36.9919 73.184 36.9199V29.9599C73.184 29.8759 73.16 29.8399 73.064 29.8399H72.032C71.96 29.8399 71.924 29.8879 71.924 29.9599V37.8679C71.924 37.9639 71.96 37.9999 72.032 37.9999H76.94C77 37.9999 77.06 37.9639 77.072 37.8919L77.18 37.1119Z" fill="#00A1DE"/>
<path d="M79.227 28.9039C79.227 28.8199 79.203 28.7839 79.119 28.7839H78.075C78.003 28.7839 77.967 28.8199 77.967 28.9039V29.8879C77.967 29.9839 78.015 30.0199 78.075 30.0199H79.119C79.203 30.0199 79.227 29.9839 79.227 29.8999V28.9039ZM79.227 37.8799V31.2559C79.227 31.1839 79.203 31.1479 79.107 31.1479H78.087C78.003 31.1479 77.967 31.1959 77.967 31.2679V37.8799C77.967 37.9639 78.003 37.9999 78.075 37.9999H79.119C79.203 37.9999 79.227 37.9639 79.227 37.8799Z" fill="#00A1DE"/>
<path d="M83.9784 28.9159C83.9904 28.9039 84.0024 28.8799 84.0024 28.8679C84.0024 28.8199 83.9424 28.7839 83.8464 28.7839H82.8864C82.7904 28.7839 82.7664 28.8199 82.6944 28.8679C82.2864 29.2639 81.4944 30.1039 81.2904 31.0159C81.2784 31.1119 81.2304 31.1479 81.1584 31.1479H80.3544C80.2704 31.1479 80.2464 31.1839 80.2464 31.2679V31.8199C80.2464 31.9159 80.2824 31.9519 80.3664 31.9519H81.1344C81.2184 31.9519 81.2544 31.9999 81.2544 32.0839V37.8799C81.2544 37.9759 81.2904 37.9999 81.3744 37.9999H82.3944C82.4904 37.9999 82.5264 37.9639 82.5264 37.8679V32.0959C82.5264 31.9999 82.5504 31.9639 82.6344 31.9639L83.8344 31.9519C83.9304 31.9519 83.9664 31.9279 83.9664 31.8319L83.9544 31.2679C83.9544 31.1959 83.9184 31.1479 83.8344 31.1479H82.6464C82.5624 31.1479 82.5504 31.1119 82.5504 31.0159C82.7064 30.2719 83.4864 29.4079 83.9784 28.9159Z" fill="#00A1DE"/>
<path d="M90.7706 34.9879C90.7706 32.3239 89.7266 31.0999 87.5306 31.0999C85.7306 31.0999 84.2426 31.9759 84.2426 34.5559C84.2426 37.2319 85.6226 38.0839 87.6746 38.0839C88.4426 38.0839 89.1626 38.0119 89.7506 37.9279C89.8346 37.9039 89.8706 37.9039 89.8946 37.8199L90.0026 37.0879C90.0026 37.0759 90.0026 37.0759 90.0026 37.0639C90.0026 36.9919 89.9426 36.9799 89.8946 36.9799C89.2466 37.0279 88.6346 37.0759 88.0826 37.0759C86.6066 37.0759 85.5866 36.7399 85.5386 35.2279C85.5386 35.1199 85.5746 35.1079 85.6466 35.1079H90.6626C90.7346 35.1079 90.7706 35.0719 90.7706 34.9879ZM89.4866 34.0519C89.4866 34.1479 89.4386 34.1599 89.3546 34.1599H85.6346C85.5506 34.1599 85.5266 34.1359 85.5266 34.0399C85.5266 32.7079 86.2826 32.0599 87.4586 32.0599C88.6586 32.0599 89.4506 32.7079 89.4866 34.0519Z" fill="#00A1DE"/>
<path d="M96.7924 35.9359C96.7924 33.5599 93.0004 34.1359 93.0004 32.8519C93.0004 32.1079 93.8044 32.0719 94.5124 32.0719C95.2324 32.0719 95.8444 32.1439 96.2284 32.1799C96.2404 32.1799 96.2524 32.1799 96.2524 32.1799C96.3244 32.1799 96.3604 32.1439 96.3604 32.0959L96.4804 31.3999C96.4804 31.3399 96.4324 31.2919 96.3484 31.2679C95.8084 31.1839 95.0884 31.0879 94.5124 31.0879C93.2164 31.0879 91.7284 31.4239 91.7284 32.8399C91.7284 35.1559 95.5324 34.4239 95.5324 36.0439C95.5324 36.9799 94.5124 37.0159 93.6604 37.0159C93.0244 37.0159 92.2564 36.9559 91.9324 36.9439C91.9204 36.9439 91.9084 36.9439 91.8964 36.9439C91.8364 36.9439 91.8004 36.9799 91.8004 37.0399V37.7719C91.8004 37.8559 91.8244 37.8799 91.9204 37.9039C92.6284 38.0239 93.3004 38.0839 93.8764 38.0839C95.6284 38.0839 96.7924 37.4599 96.7924 35.9359Z" fill="#00A1DE"/>
<path d="M101.589 37.1239C101.589 37.0519 101.577 37.0039 101.469 37.0039C101.169 37.0039 100.965 37.0039 100.737 37.0039C99.8373 37.0039 99.7293 36.7159 99.7293 36.0199V32.0839C99.7293 31.9999 99.7653 31.9519 99.8493 31.9519H101.145C101.241 31.9519 101.265 31.9159 101.265 31.8439V31.2679C101.265 31.1839 101.241 31.1479 101.145 31.1479H99.8493C99.7533 31.1479 99.7293 31.1119 99.7293 31.0279V29.3239C99.7293 29.2399 99.6813 29.2039 99.5973 29.2039L98.5773 29.3119C98.4813 29.3359 98.4573 29.3719 98.4573 29.4559V31.0279C98.4573 31.1119 98.4213 31.1479 98.3493 31.1479H97.5213C97.4373 31.1479 97.4013 31.1839 97.4013 31.2559V31.8319C97.4013 31.9159 97.4373 31.9639 97.5213 31.9639H98.3373C98.4213 31.9639 98.4573 31.9999 98.4573 32.0839V36.3439C98.4573 37.5559 98.9613 38.0599 100.101 38.0599C100.521 38.0599 100.821 38.0119 101.337 37.9519C101.421 37.9399 101.457 37.9159 101.481 37.8439L101.589 37.1239Z" fill="#00A1DE"/>
<path d="M108.425 31.2439V31.2319C108.425 31.1839 108.389 31.1479 108.341 31.1479H107.273C107.213 31.1479 107.165 31.1839 107.153 31.2319L105.569 36.9199C105.545 36.9919 105.509 37.0039 105.461 37.0039H105.209C105.161 37.0039 105.101 36.9919 105.077 36.9079L103.277 31.2319C103.253 31.1599 103.217 31.1479 103.145 31.1479H102.029C101.969 31.1479 101.909 31.1719 101.909 31.2199C101.909 31.2199 101.921 31.2319 101.921 31.2439L104.117 37.9039C104.141 37.9639 104.177 37.9999 104.249 37.9999C104.525 37.9999 104.585 37.9999 104.909 37.9999C104.957 37.9999 105.005 38.0359 105.005 38.1079V38.1199C104.897 38.7559 103.925 39.8359 103.577 40.1599C103.565 40.1839 103.553 40.2079 103.553 40.2199C103.553 40.2679 103.601 40.3039 103.649 40.3039C103.781 40.3039 104.777 40.3039 104.777 40.3039C104.849 40.3039 104.909 40.2679 104.945 40.2199C105.917 39.2599 106.565 37.6879 106.913 36.4999L108.425 31.2439Z" fill="#00A1DE"/>
<path d="M110.645 37.8799V28.7839C110.645 28.6999 110.621 28.6639 110.525 28.6639L109.493 28.7839C109.421 28.7959 109.385 28.8199 109.385 28.9039V37.8799C109.385 37.9759 109.421 37.9999 109.493 37.9999H110.537C110.621 37.9999 110.645 37.9639 110.645 37.8799Z" fill="#00A1DE"/>
<path d="M118.36 34.9879C118.36 32.3239 117.316 31.0999 115.12 31.0999C113.32 31.0999 111.832 31.9759 111.832 34.5559C111.832 37.2319 113.212 38.0839 115.264 38.0839C116.032 38.0839 116.752 38.0119 117.34 37.9279C117.424 37.9039 117.46 37.9039 117.484 37.8199L117.592 37.0879C117.592 37.0759 117.592 37.0759 117.592 37.0639C117.592 36.9919 117.532 36.9799 117.484 36.9799C116.836 37.0279 116.224 37.0759 115.672 37.0759C114.196 37.0759 113.176 36.7399 113.128 35.2279C113.128 35.1199 113.164 35.1079 113.236 35.1079H118.252C118.324 35.1079 118.36 35.0719 118.36 34.9879ZM117.076 34.0519C117.076 34.1479 117.028 34.1599 116.944 34.1599H113.224C113.14 34.1599 113.116 34.1359 113.116 34.0399C113.116 32.7079 113.872 32.0599 115.048 32.0599C116.248 32.0599 117.04 32.7079 117.076 34.0519Z" fill="#00A1DE"/>
<path d="M31.4817 6.14545H33.5183V4.09697H35.555V2.04849H33.5183V0H31.4817V2.04849H29.4558V4.09697H31.4817V6.14545ZM44.6875 5.63333C42.7267 5.63333 41.1342 7.23507 41.1342 9.21818C41.1342 11.2013 42.7267 12.803 44.6875 12.803C46.6483 12.803 48.2408 11.2013 48.2408 9.21818C48.2408 7.23507 46.6483 5.63333 44.6875 5.63333ZM20.3125 17.9242H44.6875V13.8273H20.3125V17.9242ZM23.8658 9.21818C23.8658 7.23507 22.2733 5.63333 20.3125 5.63333C18.3517 5.63333 16.7592 7.23507 16.7592 9.21818C16.7592 11.2013 18.3517 12.803 20.3125 12.803C22.2733 12.803 23.8658 11.2013 23.8658 9.21818ZM33.0092 9.21818C33.0092 11.2013 34.6017 12.803 36.5625 12.803C38.5233 12.803 40.1158 11.2013 40.1158 9.21818C40.1158 7.23507 38.5233 5.63333 36.5625 5.63333C34.6017 5.63333 33.0092 7.23507 33.0092 9.21818ZM28.4375 12.803C30.3983 12.803 31.9908 11.2013 31.9908 9.21818C31.9908 7.23507 30.3983 5.63333 28.4375 5.63333C26.4767 5.63333 24.8842 7.23507 24.8842 9.21818C24.8842 11.2013 26.4767 12.803 28.4375 12.803ZM54.8383 22.0212L51.7942 31.2394L48.75 22.0212H38.5883V38.3982H44.6767V26.1073L48.7392 38.3982H54.8275L58.9117 26.1182V38.4091H65V22.0212H54.8383ZM26.4117 22.0212H20.3125V38.3982H36.5625V34.2685H26.4117V22.0212ZM18.2758 22.0212H12.1875L6.09917 28.1667V22.0212H0V38.3982H6.08833V32.2527L12.1767 38.3982H20.3017L11.1583 29.18L18.2758 22.0212Z" fill="#00A1DE"/>
<path d="M144.968 16.0791C145.093 16.1297 145.237 16.0694 145.287 15.9441L145.289 15.9393C145.34 15.8116 145.28 15.667 145.153 15.614C145.025 15.5633 144.881 15.6236 144.829 15.7513C144.776 15.879 144.838 16.0236 144.968 16.0791C144.965 16.0767 144.965 16.0767 144.968 16.0791ZM144.985 16.0381C144.879 15.9971 144.829 15.879 144.869 15.773C144.908 15.6694 145.023 15.6188 145.126 15.6573L145.131 15.6597C145.234 15.7007 145.287 15.8188 145.244 15.9248C145.205 16.026 145.09 16.0791 144.985 16.0381ZM145.105 15.8911C145.138 15.908 145.179 15.8935 145.196 15.8598L145.198 15.8525C145.21 15.826 145.21 15.7947 145.193 15.7706C145.177 15.7537 145.155 15.7393 145.131 15.732L145.009 15.6838L144.913 15.9345L144.961 15.9537L144.999 15.8501L145.049 15.8694L145.064 15.9947L145.121 16.0164L145.105 15.8911ZM145.021 15.8092L145.045 15.7393L145.107 15.7634C145.129 15.773 145.165 15.7875 145.153 15.8212C145.141 15.8549 145.119 15.8549 145.09 15.8405L145.021 15.8092Z" fill="#003D79"/>
<path d="M146.281 19.3397L146.271 19.3494C150.411 23.533 150.39 30.2928 146.226 34.4499C142.407 38.26 136.354 38.6046 132.133 35.25L132.121 35.2596C136.417 39.2794 143.144 39.0408 147.147 34.727C151.141 30.4229 150.915 23.6848 146.638 19.6602C146.523 19.5518 146.403 19.4433 146.281 19.3397Z" fill="#003D79"/>
<path d="M127.432 31.4763C127.096 31.6667 127.015 31.951 127.192 32.3921C127.351 32.7897 127.608 32.968 127.877 32.8596C128.093 32.7704 128.129 32.5849 128.037 32.1053L127.999 31.9197C127.917 31.6329 127.901 31.3317 127.951 31.0377C127.994 30.828 128.141 30.6569 128.34 30.5798C128.82 30.387 129.273 30.681 129.545 31.3606C129.84 32.0908 129.681 32.6523 129.11 32.8885L128.966 32.5294C129.36 32.3559 129.461 31.9824 129.254 31.4522C129.079 31.0136 128.803 30.8232 128.515 30.9389C128.28 31.0329 128.222 31.2522 128.311 31.7438L128.345 31.951L128.373 32.1318C128.429 32.3463 128.441 32.568 128.407 32.7873C128.364 32.9825 128.222 33.1391 128.035 33.2066C127.586 33.3825 127.147 33.1199 126.902 32.5102C126.638 31.8426 126.777 31.3534 127.286 31.1269L127.432 31.4763Z" fill="#003D79"/>
<path d="M127.128 27.625L128.743 26.2585L128.755 26.7646L127.382 27.8997L127.831 28.3889L128.791 28.3672L128.801 28.7649L126.055 28.8227L126.043 28.4299L127.123 28.4058H127.414L127.318 28.3094L127.229 28.2106L126.014 26.8924L126 26.3694L127.128 27.625Z" fill="#003D79"/>
<path d="M128.35 23.3618L129.403 23.7257L129.274 24.1041L128.22 23.7257L126.322 24.3041L126.478 23.8462L127.658 23.5233L127.805 23.4799C127.87 23.4606 127.937 23.4462 128.004 23.4341C127.93 23.3473 127.86 23.2582 127.795 23.1642L127.063 22.1713L127.214 21.7448L128.35 23.3618Z" fill="#003D79"/>
<path d="M130.202 18.3037L129.623 19.0146L131.356 20.434L130.943 20.9498L129.213 19.5279L128.634 20.2292L128.243 19.9135L129.818 17.9832L130.202 18.3037Z" fill="#003D79"/>
<path d="M133.899 15.6933L132.514 16.5031L132.812 17.0116L134.081 16.2669L134.324 16.6718L133.049 17.4188L133.392 18.0044L134.806 17.1778L135.063 17.6189L133.083 18.778L131.7 16.3994L133.647 15.2523L133.899 15.6933Z" fill="#003D79"/>
<path d="M139.207 16.7612L138.499 16.807L138.143 16.2166L137.032 16.3925L136.879 17.0697L136.192 17.2456L136.912 14.2381L137.591 14.1272L139.207 16.7612ZM137.649 15.3418C137.531 15.1635 137.431 14.9755 137.349 14.7803C137.323 14.9924 137.284 15.2044 137.231 15.4117L137.116 15.9346L137.923 15.8045L137.649 15.3418Z" fill="#003D79"/>
<path d="M143.618 17.6479L143.042 17.4214L143.261 16.6044C143.282 16.508 143.318 16.3803 143.364 16.214C143.407 16.0477 143.45 15.908 143.484 15.8043C143.518 15.6959 143.554 15.5802 143.587 15.4597L143.657 15.2645C143.494 15.5417 143.431 15.6429 143.28 15.8694C143.218 15.9682 143.16 16.0526 143.112 16.12L142.334 17.2093L141.833 17.0792L141.677 15.761C141.665 15.6911 141.658 15.5995 141.648 15.467C141.641 15.2959 141.631 15.1633 141.629 15.0766C141.624 14.997 141.624 14.891 141.624 14.7416L141.554 15.0717C141.478 15.4356 141.439 15.5947 141.331 16.0309L141.101 16.9153L140.486 16.8213L141.182 14.1246L142.109 14.3054L142.238 15.5754C142.27 15.8766 142.277 16.1779 142.262 16.4791C142.339 16.3225 142.426 16.1731 142.522 16.0261C142.601 15.9007 142.668 15.7923 142.735 15.6959L143.455 14.6548L144.334 14.9536L143.618 17.6479Z" fill="#003D79"/>
<path d="M138.382 22.9498C138.048 23.2414 137.386 23.8728 136.747 24.4897L136.027 25.1838C135.444 25.0777 134.851 25.0247 134.259 25.0247C132.917 25.0247 131.7 25.3934 131.146 25.9646C130.946 26.1453 130.834 26.4032 130.836 26.6731C130.848 27.3165 131.587 27.6467 131.813 27.7334C132.883 28.1913 134.117 28.0299 135.036 27.3141C135.675 26.8297 136.282 26.302 136.848 25.7332C137.271 25.8272 137.751 25.9573 138.269 26.1092L138.747 26.2465C138.13 26.8538 137.491 27.49 136.903 28.013L136.86 28.0516C136.044 28.7745 135.459 29.2951 134.609 29.483C134.223 29.5939 133.81 29.565 133.443 29.4059C133.426 29.4083 133.409 29.4324 133.409 29.4324C133.887 29.871 134.532 30.0783 135.175 29.9988C135.941 29.9337 136.824 29.4541 137.734 28.6082L138.946 27.4033L139.791 26.5526C139.791 26.555 141.519 27.0611 141.519 27.0611C141.531 27.0635 141.543 27.0659 141.552 27.0707C141.531 27.0707 140.475 28.1142 140.475 28.1142L139.56 29.03C138.946 29.6758 138.279 30.2711 137.568 30.8109C136.651 31.4592 135.881 31.799 135.195 31.8399C134.746 31.8833 134.297 31.7942 133.896 31.5869C133.877 31.5845 133.855 31.6086 133.855 31.6086C134.383 32.1532 135.111 32.4593 135.869 32.4545C136.978 32.4256 137.959 31.8906 139.474 30.4832C140.17 29.8349 140.866 29.1264 141.478 28.4902L142.611 27.3358C143.319 27.4997 144.044 27.572 144.768 27.5551C145.844 27.5358 146.748 27.0177 146.76 26.4273C146.734 26.0778 146.523 25.767 146.208 25.6175C145.812 25.3693 145.356 25.2368 144.888 25.2392C143.957 25.2874 143.074 25.6633 142.39 26.2995L141.819 26.8032C141.826 26.7984 141.61 26.7454 141.61 26.7454L140.031 26.3044C140.496 25.8658 140.892 25.4874 141.252 25.1741C141.907 24.5596 142.738 24.1644 143.628 24.0487C144.034 24.0222 144.752 24.0583 145.042 24.268C145.054 24.2632 145.073 24.2342 145.073 24.2342C144.528 23.7282 143.806 23.4583 143.064 23.4824C142.517 23.4824 141.643 23.6559 140.566 24.4897C140.004 24.962 139.474 25.4657 138.975 26.0031C138.975 25.9959 138.178 25.7549 138.178 25.7549L137.983 25.6947L137.141 25.4392C137.16 25.4392 137.626 24.9861 137.626 24.9861C138.187 24.4319 138.725 23.9017 139.135 23.5522C140.64 22.275 141.603 22.1063 142.263 22.0991C142.865 22.0653 143.465 22.222 143.974 22.5473C143.986 22.5473 144.008 22.5208 144.008 22.5208C143.355 21.8291 142.438 21.4556 141.49 21.4942C140.559 21.4773 139.455 21.9954 138.382 22.9498ZM132.42 27.5045C131.94 27.4708 131.7 27.2707 131.7 26.8924C131.7 26.8418 131.734 25.6344 134.477 25.497C134.878 25.4729 135.279 25.485 135.677 25.5308C135.653 25.5356 135.365 25.8007 135.365 25.8007L135.197 25.9597C134.53 26.5646 133.414 27.5672 132.42 27.5045ZM143.554 26.5261C144.351 25.9911 145.006 25.7043 145.414 25.7188C145.656 25.7284 145.947 25.8031 145.947 26.1043C145.947 26.4056 145.654 26.6707 145.083 26.8755C144.392 27.0683 143.669 27.1117 142.961 27.0032C143.151 26.8346 143.347 26.6731 143.554 26.5261Z" fill="#003D79"/>
</svg>
