<svg width="105" height="44" viewBox="0 0 105 44" fill="none" xmlns="http://www.w3.org/2000/svg">
<path fill-rule="evenodd" clip-rule="evenodd" d="M46.7374 5.63855L40.0964 13.6578L47.8024 22.7422H42.4145L36.6506 15.7253V22.7422H32.7036V0H36.6506V11.5904L41.3494 5.63855H46.7374ZM70.6072 19.1084C71.1084 19.1084 71.547 18.9205 71.9229 18.6699L74.4289 22.053C73.2386 22.7422 71.7349 23.1181 70.6699 23.1181C67.788 23.1181 64.906 20.8626 64.906 17.041V9.71084H62.8386V5.63855H64.906V1.37831H68.7904V5.63855H72.1108V9.71084H68.7904V17.041C68.7904 18.6072 69.9807 19.1084 70.6072 19.1084ZM80.8819 5.2C76.3711 5.2 73.1759 9.14699 73.1759 14.159C73.1759 19.4217 77.1855 23.1181 81.2578 23.1181C83.3253 23.1181 85.894 22.4289 88.0868 19.2964L84.641 17.2916C82.0096 21.1759 77.5614 19.2337 77.0602 15.2867H88.2121C89.2145 9.27229 85.2675 5.2 80.8819 5.2ZM84.2651 11.9663H77.3108C78.1253 8.01928 83.5133 7.76868 84.2651 11.9663ZM93.7253 12.7181V22.6795H89.841V5.63855H93.7253V6.32771C93.7253 6.32771 95.1663 5.26265 97.0458 5.26265C101.181 5.26265 104 8.58313 104 12.7181V22.7422H100.116V12.7181C100.116 10.8386 98.8 9.27229 96.9205 9.27229C95.041 9.27229 93.7253 10.8386 93.7253 12.7181ZM20.8 25.9374H83.6386L25.812 30.9494L20.8 25.9374ZM57.6386 5.63855V15.6627C57.6386 17.5422 56.3229 19.1084 54.4434 19.1084C52.5639 19.1084 51.2482 17.5422 51.2482 15.6627V5.63855H47.3639V15.6627C47.3639 19.7976 50.1831 23.1181 54.3181 23.1181C56.1976 23.1181 57.6386 22.053 57.6386 22.053V22.6795H61.5229V5.63855H57.6386ZM26.6265 5.63855V6.39036C25.4361 5.63855 24.4337 5.2 22.9928 5.2C18.6072 5.2 15.2241 9.20964 15.2241 14.159C15.2241 19.1084 18.5446 23.1181 22.9928 23.1181C24.4337 23.1181 25.4988 22.6795 26.6265 21.9277V22.6795H30.5108V5.63855H26.6265ZM22.9301 19.0458C20.7373 19.0458 19.1711 16.9157 19.1711 14.2217C19.1711 11.5277 20.7373 9.39759 22.9301 9.39759C25.1229 9.39759 26.6265 11.5277 26.6265 14.2217C26.6892 16.9157 25.1229 19.0458 22.9301 19.0458ZM4.07229 16.1012V22.6795H0V1.37831H6.64096C10.6506 1.37831 13.9711 4.63614 13.9711 8.70843C13.9711 11.2145 12.7807 13.4072 10.9012 14.7229L16.9157 22.6795H11.841L6.89157 16.1012H4.07229ZM6.70361 5.4506H4.07229V12.0916H6.70361C8.52048 12.0916 10.0241 10.588 10.0241 8.77108C10.0241 6.95422 8.52048 5.4506 6.70361 5.4506Z" fill="#C4C4C4"/>
<path fill-rule="evenodd" clip-rule="evenodd" d="M46.7374 5.63855L40.0964 13.6578L47.8024 22.7422H42.4145L36.6506 15.7253V22.7422H32.7036V0H36.6506V11.5904L41.3494 5.63855H46.7374ZM70.6072 19.1084C71.1084 19.1084 71.547 18.9205 71.9229 18.6699L74.4289 22.053C73.2386 22.7422 71.7349 23.1181 70.6699 23.1181C67.788 23.1181 64.906 20.8626 64.906 17.041V9.71084H62.8386V5.63855H64.906V1.37831H68.7904V5.63855H72.1108V9.71084H68.7904V17.041C68.7904 18.6072 69.9807 19.1084 70.6072 19.1084ZM80.8819 5.2C76.3711 5.2 73.1759 9.14699 73.1759 14.159C73.1759 19.4217 77.1855 23.1181 81.2578 23.1181C83.3253 23.1181 85.894 22.4289 88.0868 19.2964L84.641 17.2916C82.0096 21.1759 77.5614 19.2337 77.0602 15.2867H88.2121C89.2145 9.27229 85.2675 5.2 80.8819 5.2ZM84.2651 11.9663H77.3108C78.1253 8.01928 83.5133 7.76868 84.2651 11.9663ZM93.7253 12.7181V22.6795H89.841V5.63855H93.7253V6.32771C93.7253 6.32771 95.1663 5.26265 97.0458 5.26265C101.181 5.26265 104 8.58313 104 12.7181V22.7422H100.116V12.7181C100.116 10.8386 98.8 9.27229 96.9205 9.27229C95.041 9.27229 93.7253 10.8386 93.7253 12.7181ZM20.8 25.9374H83.6386L25.812 30.9494L20.8 25.9374ZM57.6386 5.63855V15.6627C57.6386 17.5422 56.3229 19.1084 54.4434 19.1084C52.5639 19.1084 51.2482 17.5422 51.2482 15.6627V5.63855H47.3639V15.6627C47.3639 19.7976 50.1831 23.1181 54.3181 23.1181C56.1976 23.1181 57.6386 22.053 57.6386 22.053V22.6795H61.5229V5.63855H57.6386ZM26.6265 5.63855V6.39036C25.4361 5.63855 24.4337 5.2 22.9928 5.2C18.6072 5.2 15.2241 9.20964 15.2241 14.159C15.2241 19.1084 18.5446 23.1181 22.9928 23.1181C24.4337 23.1181 25.4988 22.6795 26.6265 21.9277V22.6795H30.5108V5.63855H26.6265ZM22.9301 19.0458C20.7373 19.0458 19.1711 16.9157 19.1711 14.2217C19.1711 11.5277 20.7373 9.39759 22.9301 9.39759C25.1229 9.39759 26.6265 11.5277 26.6265 14.2217C26.6892 16.9157 25.1229 19.0458 22.9301 19.0458ZM4.07229 16.1012V22.6795H0V1.37831H6.64096C10.6506 1.37831 13.9711 4.63614 13.9711 8.70843C13.9711 11.2145 12.7807 13.4072 10.9012 14.7229L16.9157 22.6795H11.841L6.89157 16.1012H4.07229ZM6.70361 5.4506H4.07229V12.0916H6.70361C8.52048 12.0916 10.0241 10.588 10.0241 8.77108C10.0241 6.95422 8.52048 5.4506 6.70361 5.4506Z" fill="url(#paint0_linear)"/>
<path d="M19.8476 41.3015H15.901V34.3245H19.8476V35.2885H17.0416V37.1878H19.6711V38.1423H17.0416V40.3327H19.8476V41.3015Z" fill="#8529CD"/>
<path d="M21.9067 41.3015L19.9024 36.0234H21.0859L22.1596 39.092C22.3442 39.6074 22.4555 40.0241 22.4937 40.3423H22.5319C22.5605 40.1132 22.6718 39.6964 22.8659 39.092L23.9397 36.0234H25.1327L23.1188 41.3015H21.9067Z" fill="#8529CD"/>
<path d="M27.7024 41.3969C26.8816 41.3969 26.2389 41.1583 25.7744 40.6811C25.3131 40.2007 25.0825 39.5405 25.0825 38.7006C25.0825 37.8385 25.2972 37.1608 25.7267 36.6677C26.1562 36.1745 26.7464 35.928 27.4972 35.928C28.194 35.928 28.7444 36.1395 29.1484 36.5627C29.5525 36.9858 29.7545 37.568 29.7545 38.3093V38.9154H26.2374C26.2533 39.4276 26.3917 39.8221 26.6525 40.0989C26.9134 40.3725 27.2809 40.5093 27.7549 40.5093C28.0667 40.5093 28.3562 40.4807 28.6235 40.4234C28.8939 40.363 29.1834 40.2643 29.492 40.1275V41.039C29.2184 41.1695 28.9416 41.2617 28.6616 41.3158C28.3817 41.3699 28.0619 41.3969 27.7024 41.3969ZM27.4972 36.7774C27.1409 36.7774 26.8546 36.8904 26.6382 37.1163C26.4251 37.3421 26.2978 37.6714 26.2564 38.1041H28.6521C28.6457 37.6682 28.5407 37.339 28.3371 37.1163C28.1335 36.8904 27.8535 36.7774 27.4972 36.7774Z" fill="#8529CD"/>
<path d="M35.135 41.3015H34.0088V38.0564C34.0088 37.6492 33.9261 37.3453 33.7606 37.1449C33.5984 36.9445 33.3391 36.8442 32.9827 36.8442C32.5087 36.8442 32.1619 36.9842 31.9424 37.2642C31.7229 37.5442 31.6131 38.0134 31.6131 38.672V41.3015H30.4917V36.0234H31.3697L31.5272 36.7154H31.5845C31.7436 36.4641 31.9694 36.27 32.2621 36.1332C32.5548 35.9964 32.8793 35.928 33.2357 35.928C34.5019 35.928 35.135 36.5722 35.135 37.8607V41.3015Z" fill="#8529CD"/>
<path d="M38.1247 40.4902C38.3983 40.4902 38.6719 40.4473 38.9455 40.3614V41.206C38.8214 41.2601 38.6608 41.3047 38.4635 41.3397C38.2694 41.3778 38.0674 41.3969 37.8574 41.3969C36.7948 41.3969 36.2635 40.837 36.2635 39.7171V36.8729H35.5429V36.3766L36.316 35.9662L36.6978 34.8495H37.3898V36.0234H38.893V36.8729H37.3898V39.698C37.3898 39.9684 37.4566 40.1689 37.5902 40.2993C37.727 40.4266 37.9052 40.4902 38.1247 40.4902Z" fill="#8529CD"/>
<path d="M43.0137 39.7982C43.0137 40.3136 42.826 40.7097 42.4506 40.9865C42.0751 41.2601 41.5375 41.3969 40.8376 41.3969C40.1344 41.3969 39.5697 41.2904 39.1434 41.0772V40.1084C39.7638 40.3948 40.3412 40.5379 40.8757 40.5379C41.5661 40.5379 41.9113 40.3295 41.9113 39.9128C41.9113 39.7792 41.8731 39.6678 41.7968 39.5787C41.7204 39.4896 41.5947 39.3974 41.4198 39.3019C41.2448 39.2065 41.0014 39.0983 40.6896 38.9774C40.082 38.742 39.67 38.5066 39.4536 38.2711C39.2404 38.0357 39.1339 37.7303 39.1339 37.3549C39.1339 36.9031 39.3152 36.5531 39.6779 36.305C40.0438 36.0536 40.5401 35.928 41.1668 35.928C41.7872 35.928 42.3742 36.0536 42.9278 36.305L42.5651 37.1497C41.9956 36.9142 41.5168 36.7965 41.1287 36.7965C40.5369 36.7965 40.241 36.9651 40.241 37.3024C40.241 37.4678 40.3174 37.6078 40.4701 37.7223C40.626 37.8369 40.9632 37.9943 41.4818 38.1948C41.9177 38.3634 42.2342 38.5177 42.4315 38.6577C42.6287 38.7977 42.7751 38.9599 42.8705 39.1444C42.966 39.3258 43.0137 39.5437 43.0137 39.7982Z" fill="#8529CD"/>
<path d="M47.0459 35.8278C47.0459 36.0282 47.0984 36.2175 47.2034 36.3957C47.3116 36.5738 47.4611 36.7631 47.652 36.9635C48.0115 36.7599 48.2629 36.5706 48.406 36.3957C48.5524 36.2175 48.6255 36.0186 48.6255 35.7991C48.6255 35.5923 48.5555 35.4269 48.4156 35.3028C48.2788 35.1787 48.0958 35.1167 47.8668 35.1167C47.6154 35.1167 47.415 35.1819 47.2655 35.3124C47.1191 35.4396 47.0459 35.6114 47.0459 35.8278ZM47.757 40.4329C48.3392 40.4329 48.8371 40.2627 49.2507 39.9223L47.4229 38.1232C47.0857 38.3395 46.8535 38.5431 46.7262 38.734C46.5989 38.9217 46.5353 39.1365 46.5353 39.3783C46.5353 39.6901 46.6451 39.9446 46.8646 40.1418C47.0873 40.3359 47.3848 40.4329 47.757 40.4329ZM45.3518 39.4546C45.3518 39.0379 45.4536 38.6752 45.6572 38.3666C45.8608 38.0548 46.2283 37.7462 46.7596 37.4408C46.4574 37.0876 46.2506 36.7902 46.1392 36.5484C46.031 36.3034 45.977 36.0505 45.977 35.7896C45.977 35.306 46.1488 34.9242 46.4924 34.6442C46.8391 34.3643 47.3036 34.2243 47.8858 34.2243C48.449 34.2243 48.8912 34.3611 49.2125 34.6347C49.5339 34.9051 49.6945 35.271 49.6945 35.7323C49.6945 36.095 49.5863 36.4243 49.37 36.7202C49.1568 37.016 48.7989 37.3119 48.2963 37.6078L49.9474 39.2017C50.2051 38.8613 50.4199 38.3618 50.5917 37.7032H51.7466C51.5239 38.6068 51.1675 39.3433 50.6776 39.9128L52.114 41.3015H50.668L49.957 40.6095C49.6325 40.8704 49.2857 41.0676 48.9166 41.2013C48.5508 41.3317 48.1451 41.3969 47.6997 41.3969C46.968 41.3969 46.3937 41.2235 45.977 40.8768C45.5602 40.53 45.3518 40.0559 45.3518 39.4546Z" fill="#8529CD"/>
<path d="M58.4608 41.3015H54.5142V34.3245H58.4608V35.2885H55.6548V37.1878H58.2842V38.1423H55.6548V40.3327H58.4608V41.3015Z" fill="#8529CD"/>
<path d="M60.4913 38.6052L58.7208 36.0234H59.9997L61.2023 37.8703L62.4145 36.0234H63.6839L61.9086 38.6052L63.7745 41.3015H62.5051L61.2023 39.3258L59.9043 41.3015H58.6349L60.4913 38.6052Z" fill="#8529CD"/>
<path d="M66.8406 41.3969C66.1725 41.3969 65.6539 41.1567 65.2848 40.6763H65.218C65.2626 41.1217 65.2848 41.3922 65.2848 41.4876V43.6494H64.1633V36.0234H65.0701C65.0955 36.122 65.148 36.3575 65.2275 36.7297H65.2848C65.6348 36.1952 66.1597 35.928 66.8596 35.928C67.5182 35.928 68.0304 36.1666 68.3963 36.6438C68.7654 37.121 68.9499 37.7907 68.9499 38.6529C68.9499 39.5151 68.7622 40.188 68.3868 40.6716C68.0145 41.1551 67.4991 41.3969 66.8406 41.3969ZM66.5685 36.8442C66.1231 36.8442 65.797 36.9747 65.5902 37.2356C65.3866 37.4964 65.2848 37.9132 65.2848 38.4859V38.6529C65.2848 39.2956 65.3866 39.7617 65.5902 40.0512C65.7939 40.3375 66.1263 40.4807 66.5876 40.4807C66.9758 40.4807 67.2748 40.3216 67.4848 40.0034C67.6948 39.6853 67.7998 39.2319 67.7998 38.6434C67.7998 38.0516 67.6948 37.6046 67.4848 37.3024C67.278 36.997 66.9726 36.8442 66.5685 36.8442Z" fill="#8529CD"/>
<path d="M72.0207 41.3969C71.1998 41.3969 70.5572 41.1583 70.0927 40.6811C69.6314 40.2007 69.4007 39.5405 69.4007 38.7006C69.4007 37.8385 69.6155 37.1608 70.045 36.6677C70.4745 36.1745 71.0646 35.928 71.8155 35.928C72.5122 35.928 73.0626 36.1395 73.4666 36.5627C73.8707 36.9858 74.0727 37.568 74.0727 38.3093V38.9154H70.5556C70.5715 39.4276 70.7099 39.8221 70.9708 40.0989C71.2317 40.3725 71.5991 40.5093 72.0732 40.5093C72.3849 40.5093 72.6745 40.4807 72.9417 40.4234C73.2121 40.363 73.5016 40.2643 73.8102 40.1275V41.039C73.5366 41.1695 73.2599 41.2617 72.9799 41.3158C72.6999 41.3699 72.3802 41.3969 72.0207 41.3969ZM71.8155 36.7774C71.4591 36.7774 71.1728 36.8904 70.9565 37.1163C70.7433 37.3421 70.616 37.6714 70.5747 38.1041H72.9703C72.964 37.6682 72.859 37.339 72.6554 37.1163C72.4518 36.8904 72.1718 36.7774 71.8155 36.7774Z" fill="#8529CD"/>
<path d="M77.4871 35.928C77.713 35.928 77.8991 35.9439 78.0454 35.9757L77.9357 37.0208C77.7766 36.9826 77.6112 36.9635 77.4394 36.9635C76.9908 36.9635 76.6265 37.1099 76.3465 37.4026C76.0698 37.6953 75.9314 38.0755 75.9314 38.5431V41.3015H74.8099V36.0234H75.688L75.8359 36.954H75.8932C76.0682 36.639 76.2956 36.3893 76.5756 36.2048C76.8588 36.0202 77.1626 35.928 77.4871 35.928Z" fill="#8529CD"/>
<path d="M79.613 41.3015H78.4915V36.0234H79.613V41.3015ZM78.4247 34.6252C78.4247 34.4247 78.4788 34.2704 78.587 34.1623C78.6983 34.0541 78.8558 34 79.0594 34C79.2567 34 79.4094 34.0541 79.5176 34.1623C79.6289 34.2704 79.6846 34.4247 79.6846 34.6252C79.6846 34.816 79.6289 34.9672 79.5176 35.0785C79.4094 35.1867 79.2567 35.2408 79.0594 35.2408C78.8558 35.2408 78.6983 35.1867 78.587 35.0785C78.4788 34.9672 78.4247 34.816 78.4247 34.6252Z" fill="#8529CD"/>
<path d="M82.9892 41.3969C82.1684 41.3969 81.5257 41.1583 81.0612 40.6811C80.5999 40.2007 80.3693 39.5405 80.3693 38.7006C80.3693 37.8385 80.584 37.1608 81.0135 36.6677C81.443 36.1745 82.0332 35.928 82.784 35.928C83.4807 35.928 84.0311 36.1395 84.4352 36.5627C84.8392 36.9858 85.0413 37.568 85.0413 38.3093V38.9154H81.5241C81.54 39.4276 81.6784 39.8221 81.9393 40.0989C82.2002 40.3725 82.5677 40.5093 83.0417 40.5093C83.3535 40.5093 83.643 40.4807 83.9102 40.4234C84.1807 40.363 84.4702 40.2643 84.7788 40.1275V41.039C84.5052 41.1695 84.2284 41.2617 83.9484 41.3158C83.6684 41.3699 83.3487 41.3969 82.9892 41.3969ZM82.784 36.7774C82.4277 36.7774 82.1413 36.8904 81.925 37.1163C81.7118 37.3421 81.5846 37.6714 81.5432 38.1041H83.9389C83.9325 37.6682 83.8275 37.339 83.6239 37.1163C83.4203 36.8904 83.1403 36.7774 82.784 36.7774Z" fill="#8529CD"/>
<path d="M90.4218 41.3015H89.2956V38.0564C89.2956 37.6492 89.2128 37.3453 89.0474 37.1449C88.8851 36.9445 88.6259 36.8442 88.2695 36.8442C87.7955 36.8442 87.4487 36.9842 87.2292 37.2642C87.0097 37.5442 86.8999 38.0134 86.8999 38.672V41.3015H85.7784V36.0234H86.6565L86.814 36.7154H86.8713C87.0303 36.4641 87.2562 36.27 87.5489 36.1332C87.8416 35.9964 88.1661 35.928 88.5225 35.928C89.7887 35.928 90.4218 36.5722 90.4218 37.8607V41.3015Z" fill="#8529CD"/>
<path d="M93.5737 41.3969C92.7752 41.3969 92.1675 41.1647 91.7507 40.7002C91.3371 40.2325 91.1303 39.5628 91.1303 38.6911C91.1303 37.8035 91.3467 37.121 91.7794 36.6438C92.2152 36.1666 92.8436 35.928 93.6644 35.928C94.2211 35.928 94.7222 36.0314 95.1676 36.2382L94.8288 37.1401C94.3548 36.9556 93.9634 36.8633 93.6548 36.8633C92.7418 36.8633 92.2852 37.4694 92.2852 38.6815C92.2852 39.2733 92.3982 39.7187 92.624 40.0178C92.8531 40.3136 93.1872 40.4616 93.6262 40.4616C94.1257 40.4616 94.5982 40.3375 95.0436 40.0893V41.0676C94.8431 41.1854 94.6284 41.2697 94.3993 41.3206C94.1734 41.3715 93.8982 41.3969 93.5737 41.3969Z" fill="#8529CD"/>
<path d="M98.0523 41.3969C97.2315 41.3969 96.5888 41.1583 96.1243 40.6811C95.663 40.2007 95.4324 39.5405 95.4324 38.7006C95.4324 37.8385 95.6471 37.1608 96.0766 36.6677C96.5061 36.1745 97.0963 35.928 97.8471 35.928C98.5438 35.928 99.0942 36.1395 99.4983 36.5627C99.9023 36.9858 100.104 37.568 100.104 38.3093V38.9154H96.5872C96.6031 39.4276 96.7415 39.8221 97.0024 40.0989C97.2633 40.3725 97.6308 40.5093 98.1048 40.5093C98.4166 40.5093 98.7061 40.4807 98.9733 40.4234C99.2438 40.363 99.5333 40.2643 99.8419 40.1275V41.039C99.5683 41.1695 99.2915 41.2617 99.0115 41.3158C98.7315 41.3699 98.4118 41.3969 98.0523 41.3969ZM97.8471 36.7774C97.4908 36.7774 97.2044 36.8904 96.9881 37.1163C96.7749 37.3421 96.6477 37.6714 96.6063 38.1041H99.002C98.9956 37.6682 98.8906 37.339 98.687 37.1163C98.4834 36.8904 98.2034 36.7774 97.8471 36.7774Z" fill="#8529CD"/>
<path d="M104.387 39.7982C104.387 40.3136 104.2 40.7097 103.824 40.9865C103.449 41.2601 102.911 41.3969 102.211 41.3969C101.508 41.3969 100.943 41.2904 100.517 41.0772V40.1084C101.137 40.3948 101.715 40.5379 102.249 40.5379C102.94 40.5379 103.285 40.3295 103.285 39.9128C103.285 39.7792 103.247 39.6678 103.17 39.5787C103.094 39.4896 102.968 39.3974 102.793 39.3019C102.618 39.2065 102.375 39.0983 102.063 38.9774C101.456 38.742 101.044 38.5066 100.827 38.2711C100.614 38.0357 100.507 37.7303 100.507 37.3549C100.507 36.9031 100.689 36.5531 101.052 36.305C101.417 36.0536 101.914 35.928 102.54 35.928C103.161 35.928 103.748 36.0536 104.301 36.305L103.939 37.1497C103.369 36.9142 102.89 36.7965 102.502 36.7965C101.91 36.7965 101.615 36.9651 101.615 37.3024C101.615 37.4678 101.691 37.6078 101.844 37.7223C102 37.8369 102.337 37.9943 102.855 38.1948C103.291 38.3634 103.608 38.5177 103.805 38.6577C104.002 38.7977 104.149 38.9599 104.244 39.1444C104.34 39.3258 104.387 39.5437 104.387 39.7982Z" fill="#8529CD"/>
<defs>
<linearGradient id="paint0_linear" x1="-4.68097e-08" y1="11.7394" x2="104.858" y2="11.8924" gradientUnits="userSpaceOnUse">
<stop stop-color="#5A5BC0"/>
<stop offset="1" stop-color="#921A9F"/>
</linearGradient>
</defs>
</svg>
