<svg width="221" height="34" viewBox="0 0 221 34" fill="none" xmlns="http://www.w3.org/2000/svg">
<path fill-rule="evenodd" clip-rule="evenodd" d="M52.1301 6.19433L44.7229 15.004L53.3181 24.9838H47.3084L40.8795 17.2753V24.9838H36.4771V0H40.8795V12.7328L46.1205 6.19433H52.1301ZM78.7542 20.9919C79.3133 20.9919 79.8024 20.7854 80.2217 20.5101L83.0169 24.2267C81.6892 24.9838 80.012 25.3968 78.8241 25.3968C75.6096 25.3968 72.3952 22.919 72.3952 18.7206V10.668H70.0892V6.19433H72.3952V1.51417H76.7277V6.19433H80.4313V10.668H76.7277V18.7206C76.7277 20.4413 78.0554 20.9919 78.7542 20.9919ZM90.2145 5.71255C85.1831 5.71255 81.6193 10.0486 81.6193 15.5547C81.6193 21.336 86.0916 25.3968 90.6337 25.3968C92.9398 25.3968 95.8048 24.6397 98.2506 21.1984L94.4072 18.9959C91.4723 23.2632 86.5108 21.1296 85.9518 16.7935H98.3904C99.5084 10.1862 95.106 5.71255 90.2145 5.71255ZM93.988 13.1457H86.2313C87.1398 8.80972 93.1494 8.53441 93.988 13.1457ZM104.54 13.9717V24.915H100.207V6.19433H104.54V6.95142C104.54 6.95142 106.147 5.78138 108.243 5.78138C112.855 5.78138 116 9.42915 116 13.9717V24.9838H111.667V13.9717C111.667 11.9069 110.2 10.1862 108.104 10.1862C106.007 10.1862 104.54 11.9069 104.54 13.9717ZM23.2 28.4939H93.2892L28.7904 34L23.2 28.4939ZM64.2892 6.19433V17.2065C64.2892 19.2713 62.8217 20.9919 60.7253 20.9919C58.6289 20.9919 57.1614 19.2713 57.1614 17.2065V6.19433H52.8289V17.2065C52.8289 21.749 55.9735 25.3968 60.5855 25.3968C62.6819 25.3968 64.2892 24.2267 64.2892 24.2267V24.915H68.6217V6.19433H64.2892ZM29.6988 6.19433V7.02024C28.3711 6.19433 27.253 5.71255 25.6458 5.71255C20.7542 5.71255 16.9807 10.1174 16.9807 15.5547C16.9807 20.9919 20.6843 25.3968 25.6458 25.3968C27.253 25.3968 28.441 24.915 29.6988 24.0891V24.915H34.0313V6.19433H29.6988ZM25.5759 20.9231C23.1301 20.9231 21.3831 18.583 21.3831 15.6235C21.3831 12.664 23.1301 10.3239 25.5759 10.3239C28.0217 10.3239 29.6988 12.664 29.6988 15.6235C29.7687 18.583 28.0217 20.9231 25.5759 20.9231ZM4.54217 17.6883V24.915H0V1.51417H7.40723C11.8795 1.51417 15.5831 5.09312 15.5831 9.5668C15.5831 12.3198 14.2554 14.7287 12.159 16.1741L18.8675 24.915H13.2072L7.68675 17.6883H4.54217ZM7.47711 5.98785H4.54217V13.2834H7.47711C9.50362 13.2834 11.1807 11.6316 11.1807 9.63563C11.1807 7.63968 9.50362 5.98785 7.47711 5.98785Z" fill="#C4C4C4"/>
<path fill-rule="evenodd" clip-rule="evenodd" d="M52.1301 6.19433L44.7229 15.004L53.3181 24.9838H47.3084L40.8795 17.2753V24.9838H36.4771V0H40.8795V12.7328L46.1205 6.19433H52.1301ZM78.7542 20.9919C79.3133 20.9919 79.8024 20.7854 80.2217 20.5101L83.0169 24.2267C81.6892 24.9838 80.012 25.3968 78.8241 25.3968C75.6096 25.3968 72.3952 22.919 72.3952 18.7206V10.668H70.0892V6.19433H72.3952V1.51417H76.7277V6.19433H80.4313V10.668H76.7277V18.7206C76.7277 20.4413 78.0554 20.9919 78.7542 20.9919ZM90.2145 5.71255C85.1831 5.71255 81.6193 10.0486 81.6193 15.5547C81.6193 21.336 86.0916 25.3968 90.6337 25.3968C92.9398 25.3968 95.8048 24.6397 98.2506 21.1984L94.4072 18.9959C91.4723 23.2632 86.5108 21.1296 85.9518 16.7935H98.3904C99.5084 10.1862 95.106 5.71255 90.2145 5.71255ZM93.988 13.1457H86.2313C87.1398 8.80972 93.1494 8.53441 93.988 13.1457ZM104.54 13.9717V24.915H100.207V6.19433H104.54V6.95142C104.54 6.95142 106.147 5.78138 108.243 5.78138C112.855 5.78138 116 9.42915 116 13.9717V24.9838H111.667V13.9717C111.667 11.9069 110.2 10.1862 108.104 10.1862C106.007 10.1862 104.54 11.9069 104.54 13.9717ZM23.2 28.4939H93.2892L28.7904 34L23.2 28.4939ZM64.2892 6.19433V17.2065C64.2892 19.2713 62.8217 20.9919 60.7253 20.9919C58.6289 20.9919 57.1614 19.2713 57.1614 17.2065V6.19433H52.8289V17.2065C52.8289 21.749 55.9735 25.3968 60.5855 25.3968C62.6819 25.3968 64.2892 24.2267 64.2892 24.2267V24.915H68.6217V6.19433H64.2892ZM29.6988 6.19433V7.02024C28.3711 6.19433 27.253 5.71255 25.6458 5.71255C20.7542 5.71255 16.9807 10.1174 16.9807 15.5547C16.9807 20.9919 20.6843 25.3968 25.6458 25.3968C27.253 25.3968 28.441 24.915 29.6988 24.0891V24.915H34.0313V6.19433H29.6988ZM25.5759 20.9231C23.1301 20.9231 21.3831 18.583 21.3831 15.6235C21.3831 12.664 23.1301 10.3239 25.5759 10.3239C28.0217 10.3239 29.6988 12.664 29.6988 15.6235C29.7687 18.583 28.0217 20.9231 25.5759 20.9231ZM4.54217 17.6883V24.915H0V1.51417H7.40723C11.8795 1.51417 15.5831 5.09312 15.5831 9.5668C15.5831 12.3198 14.2554 14.7287 12.159 16.1741L18.8675 24.915H13.2072L7.68675 17.6883H4.54217ZM7.47711 5.98785H4.54217V13.2834H7.47711C9.50362 13.2834 11.1807 11.6316 11.1807 9.63563C11.1807 7.63968 9.50362 5.98785 7.47711 5.98785Z" fill="url(#paint0_linear)"/>
<path d="M124.492 25.3234H120V17.3699H124.492V18.4688H121.298V20.634H124.291V21.7221H121.298V24.2191H124.492V25.3234Z" fill="#8529CD"/>
<path d="M126.851 25.3234L124.569 19.3066H125.916L127.138 22.8046C127.348 23.3922 127.475 23.8673 127.519 24.23H127.562C127.595 23.9688 127.721 23.4937 127.942 22.8046L129.164 19.3066H130.522L128.23 25.3234H126.851Z" fill="#8529CD"/>
<path d="M133.462 25.4322C132.528 25.4322 131.797 25.1602 131.268 24.6162C130.743 24.0686 130.48 23.316 130.48 22.3586C130.48 21.3757 130.725 20.6032 131.214 20.041C131.702 19.4789 132.374 19.1978 133.229 19.1978C134.022 19.1978 134.648 19.439 135.108 19.9214C135.568 20.4037 135.798 21.0674 135.798 21.9125V22.6034H131.795C131.813 23.1873 131.97 23.637 132.267 23.9525C132.564 24.2644 132.982 24.4204 133.522 24.4204C133.877 24.4204 134.206 24.3877 134.51 24.3225C134.818 24.2535 135.148 24.1411 135.499 23.9852V25.0242C135.188 25.1729 134.873 25.2781 134.554 25.3398C134.235 25.4014 133.871 25.4322 133.462 25.4322ZM133.229 20.1662C132.823 20.1662 132.497 20.2949 132.251 20.5524C132.008 20.8099 131.864 21.1853 131.816 21.6785H134.543C134.536 21.1817 134.416 20.8063 134.185 20.5524C133.953 20.2949 133.634 20.1662 133.229 20.1662Z" fill="#8529CD"/>
<path d="M141.937 25.3234H140.655V21.6241C140.655 21.1599 140.561 20.8136 140.373 20.5851C140.188 20.3566 139.893 20.2423 139.487 20.2423C138.948 20.2423 138.553 20.4019 138.303 20.7211C138.053 21.0402 137.928 21.5752 137.928 22.3259V25.3234H136.652V19.3066H137.651L137.831 20.0955H137.896C138.077 19.8089 138.334 19.5877 138.667 19.4318C139 19.2758 139.37 19.1978 139.775 19.1978C141.216 19.1978 141.937 19.9322 141.937 21.4011V25.3234Z" fill="#8529CD"/>
<path d="M145.355 24.3986C145.666 24.3986 145.978 24.3497 146.289 24.2517V25.2146C146.148 25.2763 145.965 25.3271 145.74 25.367C145.52 25.4105 145.29 25.4322 145.051 25.4322C143.841 25.4322 143.236 24.7939 143.236 23.5173V20.275H142.416V19.7092L143.296 19.2413L143.731 17.9683H144.518V19.3066H146.229V20.275H144.518V23.4955C144.518 23.8038 144.594 24.0323 144.746 24.181C144.902 24.3261 145.105 24.3986 145.355 24.3986Z" fill="#8529CD"/>
<path d="M150.934 23.6098C150.934 24.1973 150.721 24.6489 150.293 24.9644C149.866 25.2763 149.254 25.4322 148.458 25.4322C147.657 25.4322 147.015 25.3107 146.529 25.0678V23.9634C147.236 24.2898 147.893 24.453 148.501 24.453C149.287 24.453 149.68 24.2155 149.68 23.7404C149.68 23.588 149.636 23.4611 149.549 23.3595C149.462 23.258 149.319 23.1528 149.12 23.044C148.921 22.9352 148.644 22.8119 148.289 22.6741C147.598 22.4057 147.129 22.1373 146.883 21.8689C146.64 21.6006 146.519 21.2524 146.519 20.8244C146.519 20.3094 146.725 19.9105 147.138 19.6276C147.554 19.3411 148.119 19.1978 148.832 19.1978C149.539 19.1978 150.207 19.3411 150.837 19.6276L150.424 20.5905C149.776 20.3221 149.231 20.1879 148.789 20.1879C148.115 20.1879 147.779 20.3802 147.779 20.7646C147.779 20.9532 147.866 21.1128 148.039 21.2433C148.217 21.3739 148.601 21.5534 149.191 21.7819C149.687 21.9741 150.047 22.15 150.272 22.3096C150.496 22.4692 150.663 22.6541 150.771 22.8645C150.88 23.0712 150.934 23.3197 150.934 23.6098Z" fill="#8529CD"/>
<path d="M155.554 19.0836C155.554 19.3121 155.614 19.5279 155.733 19.731C155.857 19.9341 156.027 20.1499 156.244 20.3783C156.653 20.1462 156.939 19.9304 157.102 19.731C157.269 19.5279 157.352 19.3012 157.352 19.0509C157.352 18.8152 157.272 18.6266 157.113 18.4852C156.957 18.3437 156.749 18.273 156.488 18.273C156.202 18.273 155.974 18.3473 155.804 18.496C155.638 18.6411 155.554 18.837 155.554 19.0836ZM156.364 24.3333C157.026 24.3333 157.593 24.1393 158.064 23.7512L155.983 21.7003C155.599 21.9469 155.335 22.179 155.19 22.3966C155.045 22.6106 154.973 22.8554 154.973 23.1311C154.973 23.4865 155.098 23.7766 155.348 24.0015C155.601 24.2227 155.94 24.3333 156.364 24.3333ZM153.626 23.2181C153.626 22.743 153.742 22.3295 153.974 21.9777C154.205 21.6223 154.624 21.2705 155.228 20.9224C154.884 20.5198 154.649 20.1807 154.522 19.905C154.399 19.6258 154.338 19.3375 154.338 19.0401C154.338 18.4888 154.533 18.0536 154.924 17.7344C155.319 17.4153 155.848 17.2557 156.51 17.2557C157.151 17.2557 157.654 17.4116 158.02 17.7235C158.386 18.0318 158.569 18.4489 158.569 18.9748C158.569 19.3882 158.446 19.7636 158.199 20.1009C157.957 20.4382 157.549 20.7755 156.977 21.1128L158.857 22.9298C159.15 22.5417 159.394 21.9723 159.59 21.2216H160.904C160.651 22.2516 160.245 23.0912 159.688 23.7404L161.322 25.3234H159.677L158.867 24.5346C158.498 24.832 158.103 25.0569 157.683 25.2092C157.267 25.3579 156.805 25.4322 156.298 25.4322C155.466 25.4322 154.812 25.2346 154.338 24.8393C153.863 24.444 153.626 23.9036 153.626 23.2181Z" fill="#8529CD"/>
<path d="M168.576 25.3234H164.085V17.3699H168.576V18.4688H165.383V20.634H168.376V21.7221H165.383V24.2191H168.576V25.3234Z" fill="#8529CD"/>
<path d="M170.903 22.2498L168.888 19.3066H170.343L171.712 21.412L173.092 19.3066H174.536L172.516 22.2498L174.64 25.3234H173.195L171.712 23.0712L170.235 25.3234H168.79L170.903 22.2498Z" fill="#8529CD"/>
<path d="M178.144 25.4322C177.384 25.4322 176.794 25.1584 176.374 24.6108H176.298C176.348 25.1185 176.374 25.4268 176.374 25.5356V28H175.097V19.3066H176.129C176.158 19.4191 176.218 19.6874 176.309 20.1118H176.374C176.772 19.5025 177.369 19.1978 178.166 19.1978C178.916 19.1978 179.499 19.4698 179.915 20.0138C180.335 20.5579 180.545 21.3213 180.545 22.3042C180.545 23.287 180.331 24.0541 179.904 24.6053C179.48 25.1566 178.894 25.4322 178.144 25.4322ZM177.835 20.2423C177.328 20.2423 176.957 20.391 176.721 20.6884C176.49 20.9858 176.374 21.4609 176.374 22.1137V22.3042C176.374 23.0368 176.49 23.5681 176.721 23.8981C176.953 24.2245 177.331 24.3877 177.856 24.3877C178.298 24.3877 178.639 24.2064 178.878 23.8437C179.117 23.481 179.236 22.9642 179.236 22.2933C179.236 21.6187 179.117 21.1091 178.878 20.7646C178.642 20.4164 178.295 20.2423 177.835 20.2423Z" fill="#8529CD"/>
<path d="M184.055 25.4322C183.121 25.4322 182.39 25.1602 181.861 24.6162C181.336 24.0686 181.073 23.316 181.073 22.3586C181.073 21.3757 181.318 20.6032 181.807 20.041C182.296 19.4789 182.967 19.1978 183.822 19.1978C184.615 19.1978 185.241 19.439 185.701 19.9214C186.161 20.4037 186.391 21.0674 186.391 21.9125V22.6034H182.388C182.406 23.1873 182.563 23.637 182.86 23.9525C183.157 24.2644 183.576 24.4204 184.115 24.4204C184.47 24.4204 184.799 24.3877 185.104 24.3225C185.411 24.2535 185.741 24.1411 186.092 23.9852V25.0242C185.781 25.1729 185.466 25.2781 185.147 25.3398C184.828 25.4014 184.464 25.4322 184.055 25.4322ZM183.822 20.1662C183.416 20.1662 183.09 20.2949 182.844 20.5524C182.602 20.8099 182.457 21.1853 182.41 21.6785H185.136C185.129 21.1817 185.009 20.8063 184.778 20.5524C184.546 20.2949 184.227 20.1662 183.822 20.1662Z" fill="#8529CD"/>
<path d="M190.292 19.1978C190.549 19.1978 190.761 19.216 190.928 19.2522L190.803 20.4436C190.622 20.4001 190.433 20.3783 190.238 20.3783C189.727 20.3783 189.313 20.5452 188.994 20.8788C188.679 21.2125 188.522 21.6459 188.522 22.179V25.3234H187.245V19.3066H188.245L188.413 20.3675H188.478C188.677 20.0084 188.936 19.7237 189.255 19.5134C189.577 19.303 189.923 19.1978 190.292 19.1978Z" fill="#8529CD"/>
<path d="M192.727 25.3234H191.451V19.3066H192.727V25.3234ZM191.375 17.7127C191.375 17.4842 191.436 17.3083 191.559 17.185C191.686 17.0617 191.865 17 192.097 17C192.321 17 192.495 17.0617 192.618 17.185C192.745 17.3083 192.808 17.4842 192.808 17.7127C192.808 17.9303 192.745 18.1025 192.618 18.2295C192.495 18.3528 192.321 18.4144 192.097 18.4144C191.865 18.4144 191.686 18.3528 191.559 18.2295C191.436 18.1025 191.375 17.9303 191.375 17.7127Z" fill="#8529CD"/>
<path d="M196.585 25.4322C195.651 25.4322 194.919 25.1602 194.391 24.6162C193.866 24.0686 193.603 23.316 193.603 22.3586C193.603 21.3757 193.847 20.6032 194.336 20.041C194.825 19.4789 195.497 19.1978 196.351 19.1978C197.144 19.1978 197.771 19.439 198.231 19.9214C198.69 20.4037 198.92 21.0674 198.92 21.9125V22.6034H194.917C194.936 23.1873 195.093 23.637 195.39 23.9525C195.687 24.2644 196.105 24.4204 196.645 24.4204C196.999 24.4204 197.329 24.3877 197.633 24.3225C197.941 24.2535 198.27 24.1411 198.622 23.9852V25.0242C198.31 25.1729 197.995 25.2781 197.677 25.3398C197.358 25.4014 196.994 25.4322 196.585 25.4322ZM196.351 20.1662C195.946 20.1662 195.62 20.2949 195.374 20.5524C195.131 20.8099 194.986 21.1853 194.939 21.6785H197.666C197.659 21.1817 197.539 20.8063 197.307 20.5524C197.076 20.2949 196.757 20.1662 196.351 20.1662Z" fill="#8529CD"/>
<path d="M205.059 25.3234H203.778V21.6241C203.778 21.1599 203.684 20.8136 203.495 20.5851C203.311 20.3566 203.015 20.2423 202.61 20.2423C202.07 20.2423 201.676 20.4019 201.426 20.7211C201.176 21.0402 201.051 21.5752 201.051 22.3259V25.3234H199.775V19.3066H200.774L200.953 20.0955H201.018C201.2 19.8089 201.457 19.5877 201.79 19.4318C202.123 19.2758 202.492 19.1978 202.898 19.1978C204.339 19.1978 205.059 19.9322 205.059 21.4011V25.3234Z" fill="#8529CD"/>
<path d="M208.662 25.4322C207.753 25.4322 207.062 25.1675 206.587 24.638C206.117 24.1048 205.881 23.3414 205.881 22.3477C205.881 21.3358 206.127 20.5579 206.62 20.0138C207.116 19.4698 207.831 19.1978 208.765 19.1978C209.399 19.1978 209.969 19.3157 210.476 19.5514L210.091 20.5796C209.551 20.3693 209.106 20.2641 208.754 20.2641C207.715 20.2641 207.196 20.955 207.196 22.3368C207.196 23.0114 207.324 23.5191 207.581 23.86C207.842 24.1973 208.222 24.366 208.722 24.366C209.29 24.366 209.828 24.2245 210.335 23.9416V25.0569C210.107 25.1911 209.862 25.2872 209.602 25.3452C209.345 25.4032 209.031 25.4322 208.662 25.4322Z" fill="#8529CD"/>
<path d="M213.775 25.4322C212.84 25.4322 212.109 25.1602 211.58 24.6162C211.055 24.0686 210.793 23.316 210.793 22.3586C210.793 21.3757 211.037 20.6032 211.526 20.041C212.015 19.4789 212.687 19.1978 213.541 19.1978C214.334 19.1978 214.96 19.439 215.42 19.9214C215.88 20.4037 216.11 21.0674 216.11 21.9125V22.6034H212.107C212.125 23.1873 212.283 23.637 212.58 23.9525C212.877 24.2644 213.295 24.4204 213.834 24.4204C214.189 24.4204 214.519 24.3877 214.823 24.3225C215.131 24.2535 215.46 24.1411 215.811 23.9852V25.0242C215.5 25.1729 215.185 25.2781 214.866 25.3398C214.548 25.4014 214.184 25.4322 213.775 25.4322ZM213.541 20.1662C213.136 20.1662 212.81 20.2949 212.563 20.5524C212.321 20.8099 212.176 21.1853 212.129 21.6785H214.855C214.848 21.1817 214.729 20.8063 214.497 20.5524C214.265 20.2949 213.947 20.1662 213.541 20.1662Z" fill="#8529CD"/>
<path d="M221 23.6098C221 24.1973 220.786 24.6489 220.359 24.9644C219.932 25.2763 219.32 25.4322 218.523 25.4322C217.723 25.4322 217.08 25.3107 216.595 25.0678V23.9634C217.301 24.2898 217.958 24.453 218.567 24.453C219.352 24.453 219.745 24.2155 219.745 23.7404C219.745 23.588 219.702 23.4611 219.615 23.3595C219.528 23.258 219.385 23.1528 219.186 23.044C218.987 22.9352 218.71 22.8119 218.355 22.6741C217.663 22.4057 217.194 22.1373 216.948 21.8689C216.706 21.6006 216.584 21.2524 216.584 20.8244C216.584 20.3094 216.791 19.9105 217.203 19.6276C217.62 19.3411 218.185 19.1978 218.898 19.1978C219.604 19.1978 220.272 19.3411 220.902 19.6276L220.489 20.5905C219.841 20.3221 219.296 20.1879 218.855 20.1879C218.181 20.1879 217.844 20.3802 217.844 20.7646C217.844 20.9532 217.931 21.1128 218.105 21.2433C218.282 21.3739 218.666 21.5534 219.257 21.7819C219.753 21.9741 220.113 22.15 220.337 22.3096C220.562 22.4692 220.728 22.6541 220.837 22.8645C220.946 23.0712 221 23.3197 221 23.6098Z" fill="#8529CD"/>
<defs>
<linearGradient id="paint0_linear" x1="-5.22108e-08" y1="12.8965" x2="116.957" y2="13.0698" gradientUnits="userSpaceOnUse">
<stop stop-color="#5A5BC0"/>
<stop offset="1" stop-color="#921A9F"/>
</linearGradient>
</defs>
</svg>
