<svg width="42" height="42" viewBox="0 0 42 42" fill="none" xmlns="http://www.w3.org/2000/svg">
<g clip-path="url(#clip0_629:962)">
<path d="M42.0001 0.000427246H0.000427246V42.0001H42.0001V0.000427246Z" fill="#00008F"/>
<path d="M26.0265 20.7417L42 0H39.6407L23.6146 20.7417H26.0265Z" fill="#FF1721"/>
<path d="M32.0922 29.9977C32.8243 32.0458 34.3327 37.3756 34.9324 37.8003H30.9722C30.9603 37.3291 30.898 36.8605 30.7863 36.4025C30.6156 35.7934 29.1831 31.1849 29.1831 31.1849H22.8926L21.9036 32.587C21.9036 32.587 23.0915 36.3056 23.1653 36.4879C23.2934 36.8164 23.8606 37.8003 23.8606 37.8003H20.0653C20.0653 37.8003 19.9669 37.2323 19.93 36.9958C19.9003 36.8048 19.5704 35.7587 19.5704 35.7587C19.5704 35.7587 18.7103 36.7013 18.4759 37.1383C18.2392 37.5745 18.1343 37.8003 18.1343 37.8003H15.1652C15.1652 37.8003 15.0661 37.2323 15.0292 36.9958C15.0003 36.8048 14.6371 35.6748 14.6371 35.6748C14.6371 35.6748 13.8059 36.684 13.5693 37.1202C13.3341 37.5572 13.2329 37.8003 13.2329 37.8003H10.2964C10.2964 37.8003 11.1262 37.0102 11.4163 36.6709C11.9053 36.0958 13.7277 33.7142 13.7277 33.7142L12.9971 31.1849H6.75427C6.75427 31.1849 3.19482 35.8621 3.05451 36.0068C2.91271 36.1493 1.87526 37.6382 1.85207 37.8003H0V36.6225C0.0229713 36.5975 0.0473599 36.5738 0.0730456 36.5516C0.130237 36.5096 2.77158 33.2308 5.19809 29.9977C7.37864 27.1784 9.42458 24.4364 9.60401 24.1753C10.0388 23.5437 10.6653 22.18 10.6653 22.18H13.8927C13.8927 22.18 13.9925 23.4344 14.0866 23.739C14.1705 24.0081 16.1368 30.46 16.1831 30.5295L17.2705 29.139L15.4119 23.4178C15.4119 23.4178 14.9764 22.3413 14.8346 22.18H18.6046C18.5913 22.526 18.6328 22.872 18.7276 23.2051C18.8809 23.6768 19.6891 26.5931 19.6891 26.5931C19.6891 26.5931 22.2603 23.3701 22.4108 23.1385C22.5934 22.8498 22.7025 22.5207 22.7284 22.18H25.8696C25.8696 22.18 25.2945 22.6003 24.2867 23.875C23.9481 24.304 20.631 28.5197 20.631 28.5197C20.631 28.5197 20.9204 29.5065 21.0615 29.9977C21.0999 30.1388 21.1266 30.2343 21.1266 30.2444C21.1266 30.2488 21.1997 30.1591 21.3255 29.9977C22.1814 28.9132 26.0744 23.8085 26.3103 23.3715C26.5005 23.0185 26.7805 22.6169 26.9447 22.18H30.0093C30.0093 22.18 30.0802 23.0951 30.1735 23.3484L32.0922 29.9977ZM27.4287 25.1657C26.9787 26.1337 24.3301 29.3582 24.3301 29.3582H28.5247C28.5247 29.3582 27.7116 26.8542 27.5698 26.29C27.4973 25.9291 27.4696 25.5608 27.4873 25.1932C27.4873 25.1418 27.4779 25.0586 27.4287 25.1657ZM11.3121 25.1657C10.8621 26.1337 8.21348 29.3582 8.21348 29.3582H12.4081C12.4081 29.3582 11.5957 26.8542 11.4539 26.29C11.3815 25.9291 11.3537 25.5608 11.3714 25.1932C11.3714 25.1418 11.3613 25.0586 11.3121 25.1657H11.3121ZM17.6272 34.9426L18.7819 33.3568C18.6755 33.2425 18.0251 31.2703 18.0251 31.2703L16.9088 32.7186L17.6272 34.9426Z" fill="white"/>
</g>
<defs>
<clipPath id="clip0_629:962">
<rect width="42" height="42" fill="white"/>
</clipPath>
</defs>
</svg>
