<svg width="200" height="32" viewBox="0 0 200 32" fill="none" xmlns="http://www.w3.org/2000/svg">
<g clip-path="url(#clip0)">
<path d="M109.797 32C109.478 32 109.125 31.7991 108.991 31.615C107.857 30.0581 106.572 30.033 106.723 29.0034C107.437 23.8556 109.999 10.9401 110.671 7.90165C107.261 14.8156 103.725 23.4538 101.91 28.3505C101.709 28.8862 101.432 29.129 101.138 29.129C100.869 29.129 100.6 28.9197 100.382 28.5514C99.7685 27.48 98.5757 26.9359 98.3825 25.672C97.761 21.6542 99.0965 13.9953 99.2813 9.14884C97.425 14.4389 94.3088 24.7178 92.9481 29.355C92.6877 30.2422 92.1501 30.6524 91.6882 30.6524C91.159 30.6524 90.739 30.0999 91.0078 29.0871C93.0825 21.3026 97.551 7.51661 99.4829 2.56971C99.9365 1.40623 101.129 1.44808 102.12 0.962596C102.952 0.560817 103.582 0.368298 104.027 0.368298C104.539 0.368298 104.791 0.61941 104.8 1.08815C104.825 2.22652 104.657 3.74156 104.531 4.83809C103.867 10.7978 102.767 15.661 102.683 21.7881C105.589 14.3385 108.034 9.15721 111.175 2.77897C112.174 0.753336 112.813 1.13 113.628 0.761706C114.736 0.276224 115.475 0.0585938 115.946 0.0585938C116.836 0.0585938 116.794 0.811929 116.517 1.93356C114.972 8.30343 111.007 28.3505 110.402 31.4308C110.318 31.8577 110.066 32 109.797 32Z" fill="#E9000F"/>
<path d="M79.1149 32.0001C78.8797 32.0001 78.6614 31.8829 78.5606 31.7406C77.7374 30.6022 77.1327 30.5687 76.4943 29.648C76.4187 29.4973 76.2675 29.2964 76.3599 28.9365C76.8303 27.0448 78.0734 23.1609 79.9633 18.0383C77.5778 18.5489 75.0076 19.1013 73.9408 19.344C72.6641 22.6755 71.421 26.0236 70.2367 29.3299C69.9007 30.2674 69.3211 30.6943 68.8508 30.6943C68.2964 30.6943 67.9016 30.1 68.2628 29.0453C69.3295 25.9566 70.5055 22.7508 71.6814 19.637C70.3627 19.4947 69.9175 18.574 69.1783 17.8039C68.8928 17.5109 68.2712 17.5528 67.9688 17.1343C67.4228 16.3893 67.4732 16.0545 68.7416 15.6946C70.4803 15.2007 72.1434 14.7654 73.7057 14.3804C75.8391 8.93128 77.771 4.2606 78.7957 1.76622C79.1737 0.845479 79.8373 0.410219 80.3497 0.410219C80.904 0.410219 81.2652 0.929183 80.862 1.91689C79.2829 5.76727 77.6702 9.76832 76.0743 13.828C78.3086 13.3341 80.2993 12.9574 82.0128 12.6645C83.3483 9.27446 84.8854 5.54964 86.6073 1.64904C86.7165 1.39792 87.044 1.038 87.3884 0.979405C88.388 0.811997 89.9671 -0.00830078 90.6642 -0.00830078C90.7146 -0.00830078 90.765 6.96089e-05 90.807 0.00844C91.3698 0.142366 91.3278 0.803627 90.9834 1.69926C89.9671 4.35267 88.556 7.84312 86.9348 11.9614C87.9512 11.8442 88.5056 11.8107 88.5056 11.8107C88.6567 11.7939 88.7911 11.7856 88.9171 11.7856C90.0091 11.7856 90.1855 12.4385 89.8243 13.1248C89.4967 13.7359 89.1019 13.3257 87.7412 15.343C86.9768 16.473 85.7169 16.7743 85.0198 16.925C83.3399 21.3195 81.5424 26.2245 79.7869 31.456C79.6441 31.8578 79.3669 32.0001 79.1149 32.0001Z" fill="#E9000F"/>
<path d="M86.4559 27.2708C86.2711 27.2708 86.0779 27.2457 85.8847 27.1871C84.4316 26.7435 84.062 24.7178 85.4143 23.1526C85.9603 22.5332 86.3719 22.0979 86.7078 21.7463C86.6071 21.4115 86.5231 21.1353 86.4643 20.9344C86.2879 20.3066 86.1283 19.57 86.7666 18.8167C87.1194 18.4066 87.6066 18.2224 88.077 18.2224C89.2277 18.2224 90.328 19.2938 89.3285 20.8256C88.9925 21.3446 88.5977 21.8384 88.1862 22.3406C88.3205 22.7675 88.4717 23.2279 88.6145 23.6715C88.7489 23.546 88.8749 23.4288 89.0009 23.32C89.2445 23.1107 89.4797 23.0186 89.6813 23.0186C90.2104 23.0186 90.4708 23.6632 89.8493 24.5839C89.6645 24.8601 89.4545 25.1531 89.2193 25.4377C89.3285 25.7474 89.4293 26.0069 89.5049 26.2078C89.7653 26.8774 89.4713 27.2541 89.1017 27.2541C88.8497 27.2541 88.5557 27.0783 88.4045 26.6932C88.3709 26.6095 88.3373 26.5258 88.3037 26.4338C87.7494 26.9192 87.1278 27.2708 86.4559 27.2708ZM87.2706 23.4706C87.1446 23.6297 87.027 23.7887 86.9094 23.9478C86.3719 24.6844 86.4811 25.061 86.8002 25.061C86.901 25.061 87.0186 25.0192 87.153 24.9438C87.321 24.8434 87.489 24.7178 87.657 24.5839C87.5142 24.2156 87.3882 23.8389 87.2706 23.4706ZM87.993 19.4612C87.7242 19.4612 87.4386 19.7458 87.6318 20.4573C87.657 20.541 87.6822 20.6415 87.7158 20.7503C87.8418 20.6247 87.9594 20.4908 88.0938 20.3401C88.5641 19.8212 88.2954 19.4612 87.993 19.4612Z" fill="#E9000F"/>
<path d="M6.476 11.3755V15.5188H1.38591V11.3755H0V21.2693H1.38591V16.8497H6.476V21.2693H7.87031V11.3755H6.476Z" fill="#E9000F"/>
<path d="M19.9489 19.9719V21.2693H12.5994V11.3755H19.7725V12.6645H13.9937V15.5439H17.8742V16.8414H13.9937V19.9719H19.9489Z" fill="#E9000F"/>
<path d="M30.5163 19.9384V21.2693H24.0991V11.3755H25.485V19.9384H30.5163Z" fill="#E9000F"/>
<path d="M40.9644 19.9384V21.2693H34.5388V11.3755H35.9331V19.9384H40.9644Z" fill="#E9000F"/>
<path d="M43.9373 16.3224C43.9373 13.4095 46.096 11.2332 48.9602 11.2332C51.8244 11.2332 53.9915 13.4095 53.9915 16.3224C53.9915 19.2352 51.8244 21.4116 48.9602 21.4116C46.096 21.4116 43.9373 19.2352 43.9373 16.3224ZM52.5972 16.3224C52.5972 14.1712 51.0097 12.564 48.9518 12.564C46.8939 12.564 45.3232 14.1712 45.3232 16.3224C45.3232 18.4735 46.8939 20.0807 48.9518 20.0807C51.0097 20.0807 52.5972 18.4735 52.5972 16.3224Z" fill="#E9000F"/>
<path d="M138.76 21.2693H137.365V13.1751L134.291 19.3441H132.973L129.898 13.1751V21.2693H128.504V11.3755H130.419L133.636 17.8039L136.845 11.3755H138.76V21.2693Z" fill="#E9000F"/>
<path d="M150.829 19.9719V21.2693H143.488V11.3755H150.661V12.6645H144.874V15.5439H148.763V16.8414H144.874V19.9719H150.829Z" fill="#E9000F"/>
<path d="M165.234 21.2693H163.84V13.1751L160.766 19.3441H159.447L156.373 13.1751V21.2693H154.979V11.3755H156.894L160.111 17.8039L163.319 11.3755H165.234V21.2693Z" fill="#E9000F"/>
<path d="M177.128 18.3397C177.128 20.1309 175.742 21.2609 173.877 21.2609H170.106V11.3755H173.608C175.296 11.3755 176.54 12.405 176.54 13.987C176.54 14.7906 176.195 15.4435 175.649 15.8955C176.54 16.381 177.128 17.2431 177.128 18.3397ZM171.491 15.4184H173.558C174.465 15.4184 175.145 14.9245 175.145 14.0373C175.145 13.1584 174.465 12.6645 173.558 12.6645H171.491V15.4184ZM175.733 18.3397C175.733 17.2934 174.91 16.6991 173.835 16.6991H171.5V19.9635H173.835C174.91 19.9719 175.733 19.3776 175.733 18.3397Z" fill="#E9000F"/>
<path d="M188.619 19.9719V21.2693H181.278V11.3755H188.451V12.6645H182.664V15.5439H186.552V16.8414H182.664V19.9719H188.619Z" fill="#E9000F"/>
<path d="M195.792 17.4691H193.877V21.2693H192.483V11.3755H195.968C197.909 11.3755 199.353 12.539 199.353 14.4139C199.353 15.8453 198.522 16.8581 197.27 17.2682L199.992 21.2693H198.346L195.792 17.4691ZM193.877 16.1382H195.977C197.111 16.1382 197.976 15.5188 197.976 14.4139C197.976 13.309 197.111 12.7064 195.977 12.7064H193.877V16.1382Z" fill="#E9000F"/>
</g>
<defs>
<clipPath id="clip0">
<rect width="200" height="32" fill="white"/>
</clipPath>
</defs>
</svg>
