<svg width="128" height="44" viewBox="0 0 128 44" fill="none" xmlns="http://www.w3.org/2000/svg">
    <g clip-path="url(#logo-icon)">
        <path d="M41.6736 0.00312796C41.6375 0.0876463 41.6276 0.123433 41.6084 0.15389C39.2493 3.88792 37.0199 7.69886 34.7268 11.4717C32.9606 14.3773 31.212 17.2936 29.4519 20.203C28.4902 21.7936 27.8145 23.4893 27.52 25.3266C27.4978 25.4637 27.487 25.603 27.4694 25.7416C27.428 26.0675 27.4272 26.0698 27.099 26.0706C25.9363 26.0721 24.7744 26.0713 23.6118 26.0713C23.42 26.0713 23.2283 26.0637 23.0373 26.0736C22.8387 26.0843 22.8103 26.0043 22.8372 25.8223C23.0596 24.32 23.5374 22.8977 24.167 21.518C24.9109 19.887 25.8535 18.3672 26.7999 16.8482C28.9733 13.3585 31.1399 9.86436 33.3087 6.37094C33.3601 6.28794 33.4061 6.20266 33.4115 6.07474C29.9343 8.56537 26.4563 11.056 22.9054 13.5999C24.6218 13.5999 26.2484 13.5999 27.8528 13.5999C27.9288 13.6966 27.8743 13.7461 27.839 13.7918C26.8436 15.0824 25.5942 15.9923 23.9607 16.3144C23.6869 16.3685 23.4047 16.3959 23.1248 16.4065C21.9767 16.4492 20.8278 16.4789 19.6797 16.5162C19.4635 16.523 19.2464 16.5626 19.0309 16.5543C18.8215 16.5459 18.6674 16.6312 18.5086 16.7454C16.6159 18.1045 14.7216 19.4599 12.8273 20.8175C10.4881 22.4934 8.14749 24.167 5.81221 25.8482C5.59517 26.0043 5.38196 26.0789 5.10971 26.0774C3.52601 26.066 1.94231 26.0713 0.358612 26.0713C0.245874 26.0713 0.132369 26.0713 0.0111952 26.0713C0.0449398 26.0119 0.0111952 26.0728 0.00199208 26.0226C-0.00030869 26.0119 0.00122516 25.9944 0.00736055 25.9891C4.24385 22.9464 8.4811 19.9045 12.7905 16.8116C11.6876 16.7819 10.6668 16.8801 9.64453 16.9007C8.61148 16.9213 7.57843 16.9867 6.54539 17.0256C5.51234 17.0652 4.47853 17.0926 3.44471 17.1329C2.4155 17.1725 1.38706 17.2205 0.330236 17.2654C0.364747 17.1223 0.457545 17.0713 0.528102 17.0073C1.15545 16.4301 1.79429 15.8644 2.41013 15.2751C3.31971 14.4055 4.41871 13.9525 5.64732 13.7728C6.44415 13.6563 7.24789 13.6174 8.05316 13.6182C11.0035 13.619 13.9539 13.6159 16.9042 13.6235C17.1604 13.6243 17.3621 13.5573 17.5699 13.408C22.1431 10.1293 26.7201 6.8552 31.3002 3.58564C32.4398 2.77167 33.6071 1.99883 34.8556 1.3539C36.5513 0.479019 38.3566 0.0465293 40.2609 0.00541224C40.718 -0.00524773 41.1751 0.00312796 41.6736 0.00312796Z" fill="#01426A"/>
        <path d="M80.8821 30.1152C80.106 30.084 79.316 30.2074 78.5437 29.9675C77.2009 29.551 76.2905 28.686 75.9155 27.3383C75.2575 24.9726 74.6386 22.5962 74.0036 20.2243C73.9713 20.1048 73.9361 19.986 73.8962 19.8466C73.7474 19.9281 73.7037 20.0667 73.6354 20.1802C72.5257 22.0297 71.4136 23.8776 70.3154 25.734C70.1697 25.9799 70.0194 26.0843 69.7172 26.0797C68.428 26.0591 67.1373 26.0705 65.835 26.0705C65.8036 25.8931 65.9294 25.785 66.0015 25.6632C67.5491 23.0561 69.0998 20.4505 70.6513 17.8449C73.0595 13.8009 75.4684 9.75699 77.8773 5.71305C78.2945 5.0133 78.7623 4.35239 79.3429 3.77218C80.2532 2.86227 81.3637 2.37801 82.6284 2.2143C83.1859 2.14197 83.7466 2.11227 84.308 2.14273C84.3156 2.15491 84.3233 2.16481 84.3279 2.17547C84.3333 2.18689 84.3409 2.20059 84.3386 2.21049C84.3325 2.23486 84.3241 2.25922 84.3118 2.28054C81.7012 6.66179 79.0906 11.0423 76.4807 15.4235C76.4753 15.4319 76.4799 15.4464 76.4799 15.505C76.5973 15.4273 76.6955 15.3649 76.7921 15.2986C78.5583 14.0925 80.3261 12.888 82.0877 11.675C82.2871 11.538 82.4827 11.4793 82.7235 11.4801C84.0771 11.4885 85.4315 11.4839 86.7851 11.4839C86.894 11.4839 87.0029 11.4839 87.2046 11.4839C87.0183 11.621 86.9124 11.7032 86.8012 11.7793C83.6929 13.9106 80.5845 16.0418 77.4762 18.1723C77.4133 18.2157 77.3542 18.2667 77.2868 18.3002C77.1134 18.3862 77.1058 18.5088 77.1625 18.6763C77.4079 19.3951 77.6441 20.117 77.8827 20.8388C78.8605 23.7954 79.8375 26.7528 80.8115 29.7109C80.8499 29.8289 80.9274 29.9432 80.8821 30.1152Z" fill="#01426A"/>
        <path d="M88.8494 24.2401C88.1715 24.6163 87.5019 25.0069 86.7787 25.297C85.6636 25.7447 84.5278 26.1133 83.3153 26.1864C82.918 26.21 82.5238 26.1985 82.1396 26.082C81.4839 25.8833 81.1035 25.4021 81.0536 24.7176C81.0084 24.0993 81.125 23.5038 81.3366 22.9297C82.1043 20.8541 83.0959 18.8888 84.3108 17.0355C84.8338 16.2376 85.4236 15.4898 86.0816 14.7954C87.6868 13.0997 89.6202 11.9941 91.9417 11.5913C92.8505 11.4337 93.7677 11.3987 94.6888 11.4116C96.4259 11.4352 98.1591 11.5243 99.887 11.7124C99.9246 11.7162 99.9614 11.7269 99.9997 11.7345C100.002 11.8761 99.9039 11.969 99.8402 12.0748C98.2603 14.6926 96.669 17.3043 95.1014 19.9297C94.1665 21.4944 93.4333 23.1475 93.0476 24.9361C92.9839 25.2323 92.944 25.5346 92.9034 25.8361C92.8819 25.996 92.8344 26.0782 92.6434 26.0767C91.4432 26.0676 90.2421 26.0676 89.0419 26.0767C88.8295 26.0782 88.7896 25.9899 88.7812 25.8072C88.7589 25.297 88.8479 24.7983 88.9069 24.2957C88.9284 24.2698 88.9468 24.2371 88.9192 24.212C88.887 24.1815 88.8655 24.212 88.8494 24.2401ZM94.3904 14.0165C93.6649 13.9662 93.0107 14.0195 92.3665 14.1893C91.1893 14.5007 90.2046 15.1396 89.3402 15.9688C87.7121 17.5297 86.5678 19.4241 85.5785 21.4213C85.455 21.6711 85.3775 21.9414 85.3507 22.2208C85.2947 22.8102 85.6053 23.1406 86.1989 23.1178C86.5065 23.1056 86.8025 23.0257 87.0924 22.9267C88.0349 22.6038 88.8425 22.0564 89.6064 21.4373C89.8165 21.2675 89.9852 21.0696 90.1286 20.8396C91.2806 18.9886 92.4394 17.1414 93.5959 15.2926C93.8513 14.8845 94.1044 14.4764 94.3904 14.0165Z" fill="#01426A"/>
        <path d="M58.2007 11.7259C58.157 11.9041 58.0657 12.0122 57.9944 12.1295C56.4207 14.7366 54.8354 17.3369 53.2755 19.9516C52.3222 21.5499 51.576 23.2387 51.2071 25.073C51.155 25.3334 51.1097 25.5968 51.0875 25.8611C51.0729 26.027 51.0077 26.0735 50.8497 26.0727C49.6364 26.0682 48.4232 26.0674 47.2091 26.0735C47.0235 26.0743 46.9622 25.9973 46.9568 25.8268C46.9446 25.4065 47.0013 24.993 47.0596 24.5788C47.0749 24.4669 47.0933 24.3557 47.111 24.2392C46.9967 24.1905 46.9407 24.2758 46.8748 24.3161C45.4061 25.2192 43.8255 25.8375 42.1206 26.1276C41.6804 26.2022 41.2325 26.2182 40.7846 26.1717C39.7056 26.0598 39.1718 25.4179 39.2293 24.3108C39.2592 23.7374 39.3996 23.1816 39.6135 22.6516C40.5078 20.4359 41.5592 18.3009 42.9704 16.3569C43.8262 15.1775 44.8133 14.1221 46.0158 13.2785C47.509 12.2308 49.174 11.6551 50.9893 11.4785C52.0868 11.3719 53.1835 11.4069 54.2809 11.445C55.5832 11.4899 56.8823 11.5691 58.2007 11.7259ZM52.537 14.0133C51.1419 13.9166 49.8895 14.2569 48.7453 15.0016C47.9814 15.498 47.3226 16.1118 46.7298 16.7963C45.5587 18.1493 44.6453 19.6669 43.84 21.2537C43.7434 21.444 43.6782 21.6519 43.6123 21.856C43.554 22.0372 43.5241 22.226 43.5356 22.4171C43.5616 22.842 43.8094 23.0902 44.2404 23.1161C44.3662 23.1237 44.4965 23.1138 44.6208 23.0933C44.9229 23.043 45.2167 22.9615 45.502 22.8473C46.3747 22.4978 47.1393 21.9785 47.8564 21.3823C48.0244 21.2422 48.1617 21.0831 48.2775 20.8973C49.6326 18.725 50.9931 16.5549 52.3498 14.3833C52.4158 14.2782 52.5047 14.1838 52.537 14.0133Z" fill="#01426A"/>
        <path d="M31.0747 26.0706C31.1238 25.5117 31.235 25.0077 31.3585 24.5059C31.7511 22.9084 32.4268 21.4244 33.1991 19.9792C34.0427 18.4015 34.9991 16.8901 35.9178 15.3566C38.0368 11.8213 40.1635 8.29054 42.2894 4.75981C42.7158 4.05168 43.1959 3.38315 43.7872 2.79609C44.7505 1.8405 45.9262 1.35623 47.2645 1.22298C47.8113 1.16816 48.3589 1.14913 48.9111 1.17425C48.9901 1.32654 48.8604 1.41334 48.8014 1.51157C46.9508 4.60143 45.0964 7.68902 43.242 10.7766C41.3423 13.9403 39.4411 17.1033 37.5414 20.267C36.592 21.8485 35.9263 23.5343 35.6456 25.361C35.6264 25.4858 35.6118 25.6115 35.5973 25.7371C35.5597 26.066 35.5604 26.0691 35.233 26.0698C34.3012 26.0714 33.3693 26.0706 32.4368 26.0706C31.9927 26.0706 31.5487 26.0706 31.0747 26.0706Z" fill="#01426A"/>
        <path d="M70.4877 11.6598C70.4386 11.7633 70.4218 11.8098 70.3964 11.8524C69.8972 12.6915 69.3933 13.5283 68.9009 14.3704C68.8051 14.5349 68.7061 14.5867 68.5067 14.5707C67.2214 14.4671 65.933 14.4161 64.6438 14.4626C64.1974 14.4786 63.7564 14.557 63.3446 14.7458C63.1337 14.8425 62.9404 14.9628 62.797 15.1486C62.5247 15.5034 62.5408 15.8644 62.8637 16.1689C63.0286 16.325 63.218 16.4583 63.4075 16.5862C63.8086 16.8565 64.2166 17.1161 64.6223 17.3796C64.8899 17.5532 65.1492 17.7375 65.3769 17.9613C66.3187 18.8857 66.6983 19.9669 66.3785 21.2781C65.7834 23.7208 64.2196 25.1972 61.8169 25.855C60.9886 26.0819 60.1411 26.1634 59.283 26.1817C57.4531 26.2205 55.6385 26.0774 53.8363 25.7659C53.7619 25.753 53.6898 25.7271 53.6 25.7035C53.5931 25.5885 53.6698 25.5139 53.7174 25.4347C54.2166 24.5956 54.719 23.7581 55.2213 22.9213C55.3985 22.6258 55.4008 22.6197 55.7306 22.6799C56.4959 22.8192 57.2636 22.9487 58.039 23.0126C58.8144 23.0766 59.5928 23.1345 60.3651 22.973C60.8352 22.8748 61.2639 22.6913 61.6014 22.3365C62.0983 21.8126 62.0983 21.2476 61.6021 20.72C61.392 20.4961 61.142 20.321 60.8927 20.1428C60.2922 19.7149 59.6649 19.3212 59.1265 18.8111C58.4961 18.2134 58.1341 17.506 58.174 16.6189C58.2077 15.8689 58.4125 15.1753 58.8151 14.5387C59.3152 13.7476 60 13.1522 60.803 12.6831C61.9887 11.991 63.2832 11.6346 64.6407 11.4884C66.1201 11.3285 67.5979 11.4298 69.075 11.5417C69.5306 11.576 69.9854 11.6171 70.4877 11.6598Z" fill="#01426A"/>
        <path d="M98.9784 24.8012C98.9769 25.5977 98.3472 26.2289 97.5527 26.2289C96.7627 26.2297 96.1316 25.5916 96.1323 24.7944C96.1331 24.001 96.775 23.3561 97.5596 23.3606C98.3495 23.3652 98.9799 24.0048 98.9784 24.8012ZM97.5412 25.9358C98.1701 25.9403 98.6624 25.4347 98.6586 24.7891C98.6548 24.1639 98.1693 23.6637 97.5603 23.6583C96.9514 23.653 96.4567 24.1449 96.4429 24.77C96.4291 25.4149 96.9154 25.9312 97.5412 25.9358Z" fill="#01426A"/>
        <path d="M97.5116 24.9687H97.3628V25.5291H97.0752V24.074H97.6473C97.9326 24.074 98.1144 24.2689 98.1144 24.5209C98.1144 24.7242 97.9947 24.878 97.8022 24.9336L98.1167 25.5283H97.7984L97.5116 24.9687ZM97.5944 24.7242C97.7393 24.7242 97.8237 24.642 97.8237 24.5232C97.8237 24.3999 97.7393 24.3199 97.5944 24.3199H97.3628V24.7242H97.5944Z" fill="#01426A"/>
    </g>
    <path d="M24.775 41V39.57H21.409V37.766H24.456V36.413H21.409V34.631H24.775V33.201H19.891V41H24.775ZM31.1584 35.588H29.6184L28.3314 39.218L26.9894 35.588H25.3834L27.5944 41H29.0574L31.1584 35.588ZM32.9544 37.678C32.9874 37.183 33.4054 36.611 34.1644 36.611C35.0004 36.611 35.3524 37.139 35.3744 37.678H32.9544ZM35.5174 39.086C35.3414 39.57 34.9674 39.911 34.2854 39.911C33.5594 39.911 32.9544 39.394 32.9214 38.679H36.7934C36.7934 38.657 36.8154 38.437 36.8154 38.228C36.8154 36.49 35.8144 35.423 34.1424 35.423C32.7564 35.423 31.4804 36.545 31.4804 38.272C31.4804 40.098 32.7894 41.165 34.2744 41.165C35.6054 41.165 36.4634 40.384 36.7384 39.449L35.5174 39.086ZM39.4305 37.887C39.4305 37.26 39.8045 36.765 40.4425 36.765C41.1465 36.765 41.4435 37.238 41.4435 37.843V41H42.9065V37.59C42.9065 36.402 42.2905 35.445 40.9485 35.445C40.3655 35.445 39.7165 35.698 39.3865 36.259V35.588H37.9675V41H39.4305V37.887ZM46.1954 33.971H44.8754V34.73C44.8754 35.214 44.6114 35.588 44.0394 35.588H43.7644V36.886H44.7434V39.405C44.7434 40.45 45.4034 41.077 46.4594 41.077C46.8884 41.077 47.1524 41 47.2844 40.945V39.735C47.2074 39.757 47.0094 39.779 46.8334 39.779C46.4154 39.779 46.1954 39.625 46.1954 39.152V36.886H47.2844V35.588H46.1954V33.971ZM48.1833 39.493C48.2493 40.109 48.8103 41.165 50.4383 41.165C51.8573 41.165 52.5393 40.263 52.5393 39.383C52.5393 38.591 52.0003 37.942 50.9333 37.722L50.1633 37.557C49.8663 37.502 49.6683 37.337 49.6683 37.073C49.6683 36.765 49.9763 36.534 50.3613 36.534C50.9773 36.534 51.2083 36.941 51.2523 37.26L52.4733 36.985C52.4073 36.402 51.8903 35.423 50.3503 35.423C49.1843 35.423 48.3263 36.226 48.3263 37.194C48.3263 37.953 48.7993 38.58 49.8443 38.811L50.5593 38.976C50.9773 39.064 51.1423 39.262 51.1423 39.504C51.1423 39.79 50.9113 40.043 50.4273 40.043C49.7893 40.043 49.4703 39.647 49.4373 39.218L48.1833 39.493ZM61.2069 41H63.0989L61.3389 39.152L62.4279 38.008V36.182L60.4589 38.239L59.2819 36.996L59.5789 36.776C60.1399 36.358 60.6789 35.786 60.6789 34.994C60.6789 33.828 59.7549 33.025 58.5119 33.025C57.4559 33.025 56.3559 33.751 56.3559 35.06C56.3559 35.764 56.8399 36.358 57.2139 36.754L57.3349 36.886L57.2799 36.919C56.4659 37.524 55.9489 38.085 55.9489 39.053C55.9489 40.098 56.7849 41.143 58.3139 41.143C59.1499 41.143 59.8209 40.747 60.4039 40.153L61.2069 41ZM58.3359 39.867C57.7639 39.867 57.4009 39.416 57.4009 38.965C57.4009 38.503 57.6539 38.206 58.0279 37.931L58.1929 37.81L59.5239 39.218C59.1499 39.614 58.8089 39.867 58.3359 39.867ZM57.7419 35.016C57.7419 34.488 58.1379 34.235 58.5009 34.235C58.9629 34.235 59.2929 34.565 59.2929 34.983C59.2929 35.269 59.1609 35.544 58.7979 35.808L58.4129 36.094L58.2039 35.863C58.0059 35.665 57.7419 35.346 57.7419 35.016ZM71.149 41V39.57H67.783V37.766H70.83V36.413H67.783V34.631H71.149V33.201H66.265V41H71.149ZM71.9084 41H73.5584C73.7454 40.703 74.4714 39.636 74.6694 39.339L75.8024 41H77.5184L75.5604 38.239L77.4524 35.588H75.7914L74.7244 37.194C74.5374 36.897 73.8334 35.885 73.6464 35.588H71.9084L73.8334 38.283L71.9084 41ZM79.8749 43.09V40.472C80.1389 40.835 80.6889 41.132 81.4369 41.132C82.9659 41.132 83.9889 39.922 83.9889 38.283C83.9889 36.677 83.0759 35.467 81.4919 35.467C80.6779 35.467 80.0729 35.83 79.8309 36.248V35.588H78.4119V43.09H79.8749ZM82.5479 38.294C82.5479 39.262 81.9539 39.823 81.2059 39.823C80.4579 39.823 79.8529 39.251 79.8529 38.294C79.8529 37.337 80.4579 36.776 81.2059 36.776C81.9539 36.776 82.5479 37.337 82.5479 38.294ZM86.2142 37.678C86.2472 37.183 86.6652 36.611 87.4242 36.611C88.2602 36.611 88.6122 37.139 88.6342 37.678H86.2142ZM88.7772 39.086C88.6012 39.57 88.2272 39.911 87.5452 39.911C86.8192 39.911 86.2142 39.394 86.1812 38.679H90.0532C90.0532 38.657 90.0752 38.437 90.0752 38.228C90.0752 36.49 89.0742 35.423 87.4022 35.423C86.0162 35.423 84.7402 36.545 84.7402 38.272C84.7402 40.098 86.0492 41.165 87.5342 41.165C88.8652 41.165 89.7232 40.384 89.9982 39.449L88.7772 39.086ZM94.5273 35.566C94.4173 35.555 94.3073 35.544 94.1863 35.544C93.7243 35.544 92.9763 35.676 92.6463 36.391V35.588H91.2273V41H92.6903V38.525C92.6903 37.359 93.3393 36.996 94.0873 36.996C94.2193 36.996 94.3623 37.007 94.5273 37.04V35.566ZM97.0194 41V35.588H95.5564V41H97.0194ZM95.3804 33.817C95.3804 34.301 95.7874 34.708 96.2824 34.708C96.7884 34.708 97.1844 34.301 97.1844 33.817C97.1844 33.311 96.7884 32.904 96.2824 32.904C95.7874 32.904 95.3804 33.311 95.3804 33.817ZM99.6527 37.678C99.6857 37.183 100.104 36.611 100.863 36.611C101.699 36.611 102.051 37.139 102.073 37.678H99.6527ZM102.216 39.086C102.04 39.57 101.666 39.911 100.984 39.911C100.258 39.911 99.6527 39.394 99.6197 38.679H103.492C103.492 38.657 103.514 38.437 103.514 38.228C103.514 36.49 102.513 35.423 100.841 35.423C99.4547 35.423 98.1787 36.545 98.1787 38.272C98.1787 40.098 99.4877 41.165 100.973 41.165C102.304 41.165 103.162 40.384 103.437 39.449L102.216 39.086ZM106.129 37.887C106.129 37.26 106.503 36.765 107.141 36.765C107.845 36.765 108.142 37.238 108.142 37.843V41H109.605V37.59C109.605 36.402 108.989 35.445 107.647 35.445C107.064 35.445 106.415 35.698 106.085 36.259V35.588H104.666V41H106.129V37.887ZM113.521 36.776C114.247 36.776 114.588 37.238 114.72 37.689L116.029 37.249C115.798 36.336 114.962 35.423 113.488 35.423C111.915 35.423 110.683 36.622 110.683 38.294C110.683 39.955 111.937 41.165 113.532 41.165C114.973 41.165 115.82 40.241 116.062 39.339L114.775 38.91C114.654 39.328 114.28 39.823 113.532 39.823C112.784 39.823 112.146 39.273 112.146 38.294C112.146 37.315 112.773 36.776 113.521 36.776ZM118.151 37.678C118.184 37.183 118.602 36.611 119.361 36.611C120.197 36.611 120.549 37.139 120.571 37.678H118.151ZM120.714 39.086C120.538 39.57 120.164 39.911 119.482 39.911C118.756 39.911 118.151 39.394 118.118 38.679H121.99C121.99 38.657 122.012 38.437 122.012 38.228C122.012 36.49 121.011 35.423 119.339 35.423C117.953 35.423 116.677 36.545 116.677 38.272C116.677 40.098 117.986 41.165 119.471 41.165C120.802 41.165 121.66 40.384 121.935 39.449L120.714 39.086ZM122.702 39.493C122.768 40.109 123.329 41.165 124.957 41.165C126.376 41.165 127.058 40.263 127.058 39.383C127.058 38.591 126.519 37.942 125.452 37.722L124.682 37.557C124.385 37.502 124.187 37.337 124.187 37.073C124.187 36.765 124.495 36.534 124.88 36.534C125.496 36.534 125.727 36.941 125.771 37.26L126.992 36.985C126.926 36.402 126.409 35.423 124.869 35.423C123.703 35.423 122.845 36.226 122.845 37.194C122.845 37.953 123.318 38.58 124.363 38.811L125.078 38.976C125.496 39.064 125.661 39.262 125.661 39.504C125.661 39.79 125.43 40.043 124.946 40.043C124.308 40.043 123.989 39.647 123.956 39.218L122.702 39.493Z" fill="#01426A"/>
    <defs>
        <clipPath id="logo-icon">
            <rect width="100" height="40" fill="white"/>
        </clipPath>
    </defs>
</svg>
