
<svg width="106" height="68" viewBox="0 0 106 78" fill="none" xmlns="http://www.w3.org/2000/svg">
<path fill-rule="evenodd" clip-rule="evenodd" d="M-6.98817 7.01998C1.40008 6.65412 5.84796 11.3621 7.30473 17.1273C10.2077 28.5769 3.74695 39.7857 -6.98817 47L-6.97108 42.9196C-5.7628 42.2777 -2.49822 39.5683 -1.60549 38.1491C-2.9768 37.6726 -5.45909 37.3276 -7 37.3562V32.1873C-4.41253 32.0337 -0.50108 32.5076 1.93651 33.0544C2.97781 31.4751 3.54316 30.1393 3.92576 28.3413C1.32514 27.8569 -4.16009 27.9884 -7 28.3946V24.7764C-4.06806 23.9783 2.36775 23.3742 4.88423 23.6489C5.07619 22.5149 5.03017 21.071 4.65283 19.7846C2.14687 19.5906 -4.16009 20.3184 -6.98817 21.166V18.234C-4.37571 17.1325 1.54076 16.1 4.05329 15.936C3.82584 14.8944 3.17371 13.6653 2.40851 12.9948C0.0629587 13.1719 -4.28368 14.0767 -6.98817 14.9608V12.2058C-5.3894 11.4689 -1.93813 10.6304 -0.127684 10.5119C-1.0993 9.86221 -4.24292 8.95212 -6.97502 9.14221L-6.98817 7.01998Z" fill="white"/>
<path fill-rule="evenodd" clip-rule="evenodd" d="M-0.0205402 5.80078C19.064 2.17707 27.6993 10.8429 22.5213 31.9829C17.7236 49.369 7.58871 61.0484 -6.99709 70V60.8517C-6.14572 61.5748 -5.05111 62.9799 -4.30713 64.252C-2.67686 63.4212 -0.497978 61.838 0.628983 60.5712C-0.539382 58.8697 -4.81821 54.5454 -6.99709 53.2028C-7.00097 53.2227 -7.00097 52.0808 -6.99709 52.0184C-5.0097 50.935 -1.56542 48.3242 -0.0735888 46.2943C2.37441 47.3751 7.20443 51.4414 8.29646 52.917C10.0328 51.1104 12.0875 48.1687 12.9583 46.2026C11.0123 44.4692 7.24454 42.2266 4.49119 41.227C6.01148 39.5946 7.55248 36.912 8.23823 35.0018C10.628 35.5468 15.0349 36.8695 17.078 38.0911C18.0781 36.2487 18.8428 33.8334 19.3694 31.2146C17.3031 30.3585 13.0683 29.5676 10.3265 29.2751C10.6901 28.0947 10.9489 25.1263 10.8738 23.9047C14.0128 23.8329 18.333 24.2915 20.6374 24.8538C20.9647 23.4394 21.0708 21.7632 20.8056 20.059C18.1208 19.635 13.6285 19.3704 10.5801 19.5964C10.5478 18.3123 10.1182 16.3768 9.6602 15.4702C12.0875 15.0621 17.0081 15.0169 19.8455 15.3479C19.403 13.9628 18.8428 12.5524 17.6175 11.5142C15.6405 11.3254 11.1042 11.5447 8.29646 12.0605C7.76468 11.0143 6.86544 9.91899 5.90539 9.257C7.72327 8.68938 11.4833 8.29457 13.5353 8.42485C11.8714 7.54351 8.70403 6.70737 3.8339 7.36272C2.03154 6.17831 -0.0205402 5.80078 -0.0205402 5.80078Z" fill="white"/>
<mask id="mask0" mask-type="alpha" maskUnits="userSpaceOnUse" x="-7" y="-3" width="95" height="95">
<path fill-rule="evenodd" clip-rule="evenodd" d="M-6.79492 -2.6153H87.4298V91.7451H-6.79492V-2.6153Z" fill="white"/>
</mask>
<g mask="url(#mask0)">
<path fill-rule="evenodd" clip-rule="evenodd" d="M87.4298 91.745V-2.61597H-6.79492V5.16084C6.68469 0.882875 33.5113 3.31354 49.0887 17.3155C61.7505 28.7107 70.4043 43.1226 71.4624 63.0001C72.1123 75.0956 68.9826 85.8576 66.0144 91.745H87.4298Z" fill="white"/>
</g>
<path fill-rule="evenodd" clip-rule="evenodd" d="M34.3661 17.2702C32.5717 16.4923 29.8043 15.6947 27.5984 15.586C28.0098 16.91 28.2082 18.5274 28.2578 20.2234C30.469 20.5011 34.2777 21.5435 36.2115 22.3712C36.9365 24.5544 36.9781 26.4612 36.9647 28.6117C34.807 27.4081 30.8617 25.8732 28.038 25.3729C27.9629 27.2811 27.4966 30.0523 26.8238 32.1241C29.7534 33.0422 34.011 35.1651 35.9917 36.5546C35.6111 39.4083 34.5913 42.6104 33.156 45.3161C30.997 43.4368 26.655 40.7939 23.8822 39.644C23.0607 42.1546 20.7195 46.9453 19.0604 48.8848C21.4914 50.3241 25.5507 53.8274 27.1119 55.7264C25.3081 58.8944 23.2014 61.4102 20.8682 63.3275C19.6112 61.1077 16.4672 57.0793 14.2479 55.3663C12.4709 58.2501 8.21596 62.4527 5.31723 64.2521C7.28992 66.1328 9.9903 69.8391 11.2058 71.9646C9.54538 73.6292 6.5314 75.701 3.99318 76.974C3.07384 74.0587 1.57154 71.0217 -0.117037 68.515C-1.75603 70.1612 -4.36662 71.5075 -7 72.825V86C10.6081 79.7714 33.4736 61.9433 38.9038 37.8119C41.5493 26.0683 38.8878 18.9662 36.3897 15.0896C32.2916 8.74575 24.7922 7.48719 21.3976 7C22.8449 7.7478 24.8806 9.52236 25.8978 11.09C31.4366 12.0801 33.4361 15.3673 34.3661 17.2702Z" fill="white"/>
<path fill-rule="evenodd" clip-rule="evenodd" d="M-7 91V89.8879C-1.53645 88.2471 4.82722 84.7851 7.5132 82.4209C8.46173 84.6988 9.40896 88.4159 9.69417 90.5656C12.1407 89.0701 15.0779 87.0827 17.0993 84.7092C16.5092 82.7885 15.2938 80.1926 14.0744 78.3465C17.5873 75.9534 22.1376 71.6266 24.8223 68.2588C25.9173 69.9401 27.2361 72.8866 27.9047 75.1396C30.5658 72.9284 33.8091 68.9902 35.4589 66.2831C34.4424 64.4448 32.752 62.2388 30.9871 60.5641C33.6247 57.42 36.4873 51.9064 37.3272 49.0555C38.8344 49.9072 41.4458 52.8236 42.4048 54.3165C44.2849 50.8571 45.41 47.2708 46.0498 43.3155C44.8474 41.8985 42.728 40.2172 40.7472 39.3197C41.3843 37.0967 42.0529 33.3521 41.9011 30.9146C43.5914 31.6499 45.8849 33.3312 47.0533 34.5754C47.3097 32.079 47.0991 29.6088 46.4384 27.149C45.3629 26.063 42.9464 24.6329 41.4877 24.2116C41.3424 22.5788 40.6726 20.5455 40.144 19.4465C41.3424 19.7029 43.7197 21.1735 44.6486 21.9468C43.7197 19.7029 41.1684 17.4956 39.206 16.7695C38.6146 15.6979 37.4921 13.9878 36.4676 13C47.3097 16.674 48.6115 24.3765 49.4135 27.4342C51.2059 39.0881 48.7855 49.4781 43.5823 59.5069C36.9923 72.2389 28.8807 79.5895 14.8019 91H-7Z" fill="white"/>
<path fill-rule="evenodd" clip-rule="evenodd" d="M20 91C25.1248 87.6739 28.6391 84.6575 31.9139 80.5944C32.9606 82.9134 33.5082 87.3403 33.5082 87.3364C35.8964 85.3628 40.8382 80.1278 42.4917 77.2301C41.9953 75.6362 40.8557 73.1235 39.9461 71.9831C43.1927 68.8363 46.3975 63.0765 47.5533 59.2336C48.892 60.5493 50.2213 62.8405 50.7325 64.3342C52.8099 60.6165 54.7218 56.0564 55.6259 51.0152C54.9209 49.5413 53.7396 47.8881 52.4305 46.6225C53.3615 44.0241 53.8728 40.28 53.7867 37.2241C54.7648 37.9611 56.4977 40.102 57.3682 41.6247C57.3481 36.3672 56.8072 32.9936 53.601 30.1869C53.5405 28.6339 53.0507 26.0157 52.0753 24C56.8072 27.9352 60.9942 33.169 59.7914 44.8599C57.9845 62.4899 47.3797 79.2946 34.8563 91H20Z" fill="white"/>
<path fill-rule="evenodd" clip-rule="evenodd" d="M54 91C56.5166 88.6979 57.7896 86.3971 59.191 83.4087C59.7878 84.8584 60.0829 86.6082 60.1522 88.5357C60.885 86.352 64.9185 79.707 64.8415 70.3865C66.2364 65.8274 67.0423 60.8871 67.249 57C68.6555 63.6926 68.6555 78.4903 62.1465 91H54Z" fill="white"/>
<path fill-rule="evenodd" clip-rule="evenodd" d="M62.6065 51.0039C62.9183 49.1765 62.4754 46.2285 61.1481 44.2807C61.1949 42.8958 60.8604 39.4975 60.5727 38C63.3585 41.7255 65.7041 45.8856 64.8049 55.6745C63.2448 68.9258 59.1625 82.2477 48.7567 92H44.7265C44.7975 90.8585 44.6249 87.9198 44 85.9392C47.8749 82.0318 52.0803 75.5822 53.6431 70.8566C54.7336 73.0322 55.3076 75.0625 55.5953 77.6583C58.3168 72.9 60.4015 65.9713 60.9741 61.2614C60.6169 59.7809 59.9104 58.3096 59.1491 57.2126C60.087 54.8904 60.8818 50.4711 60.9246 48.0559C61.5923 48.717 62.2814 50.1936 62.6065 51.0039Z" fill="white"/>
</svg>
