<svg width="214px" height="35px" viewBox="0 0 227 40" version="1.1" xmlns="http://www.w3.org/2000/svg" xmlns:xlink="http://www.w3.org/1999/xlink">
    <title>United Logo</title>
    <defs>
        <filter id="filter-1">
			<feColorMatrix 
                color-interpolation-filters="sRGB"
                type="matrix"
                values="0.38 0   0   0   0
                        0   0.27  0   0   0
                        0   0   0.73  0   0
                        0   0   0   1   0 "/>
        </filter>
        <polygon id="path-2" points="0 0.104553645 21.9204326 0.104553645 21.9204326 20.5654464 0 20.5654464"></polygon>
        <polygon id="path-4" points="0.0830839216 0.451965602 38.260731 0.451965602 38.260731 38.6845823 0.0830839216 38.6845823"></polygon>
        <polygon id="path-6" points="0.0849987879 0.238759214 5.18556435 0.238759214 5.18556435 5.32323915 0.0849987879 5.32323915"></polygon>
    </defs>
    <g id="Export-Assets" stroke="none" stroke-width="1" fill="none" fill-rule="evenodd">
        <g id="Group-31" filter="url(#filter-1)">
            <g>
                <polygon id="Fill-1" fill="#6244BB" points="49.4728583 10.8321089 49.4728583 22.8823956 37.8022801 10.8321089 32.8582016 10.8321089 32.8582016 30.9283415 38.18153 30.9283415 38.18153 18.3478337 50.5260348 30.9283415 54.7951229 30.9283415 54.7951229 10.8321089"></polygon>
                <polygon id="Fill-2" fill="#6244BB" points="67.459304 15.438964 67.459304 10.8320025 73.2703913 10.8320025 73.2703913 30.9282351 67.459304 30.9282351"></polygon>
                <polygon id="Fill-3" fill="#6244BB" points="119.437393 22.8830344 119.437393 26.5519943 132.586673 26.5519943 132.586673 30.928448 113.753431 30.928448 113.753431 10.8322154 132.503696 10.8322154 132.503696 15.2342219 119.437393 15.2342219 119.437393 18.7988411 130.504788 18.7988411 130.504788 22.8830344"></polygon>
                <polygon id="Fill-4" fill="#6244BB" points="96.445114 15.3825348 96.445114 30.9287674 90.7313657 30.9287674 90.7313657 15.3825348 83.37296 15.3825348 83.37296 10.8330672 103.816817 10.8330672 103.816817 15.3825348"></polygon>
                <g id="Group-30" transform="translate(0.000000, 0.080598)">
                    <path d="M143.540453,10.7515111 L143.540453,30.8477437 L153.64882,30.8477437 C161.969446,30.8408231 166.057153,27.0744431 166.057153,20.7746069 C166.057153,14.8170721 162.376355,10.7600287 153.64882,10.7515111 L143.540453,10.7515111 Z M149.242499,15.2610524 L153.519566,15.2610524 C158.21152,15.2658436 160.120004,17.2334111 160.120004,20.8060156 C160.120004,24.4648608 158.159394,26.3291523 153.519566,26.3382023 L149.242499,26.3382023 L149.242499,15.2610524 Z" id="Fill-5" fill="#6244BB"></path>
                    <g id="Group-9" transform="translate(0.000000, 10.647011)">
                        <mask id="mask-3" fill="white">
                            <use xlink:href="#path-2"></use>
                        </mask>
                        <g id="Clip-8"></g>
                        <path d="M21.9204326,11.3366175 C21.9220278,17.4820721 18.0970824,20.5654464 10.9987793,20.5654464 C3.88398717,20.5654464 -0.00159572193,17.4953808 -4.91299386e-07,11.3717527 L-4.91299386e-07,0.104553645 L5.69832299,0.104553645 L5.69832299,11.3855938 C5.70364207,14.4487387 7.43712799,15.9787142 11.0189918,15.9670025 C14.5604307,15.9552907 16.2338111,14.4620475 16.2370025,11.4170025 L16.2370025,0.104553645 L21.9204326,0.104553645 L21.9204326,11.3366175 Z" id="Fill-7" fill="#6244BB" mask="url(#mask-3)"></path>
                    </g>
                    <path d="M180.387002,4.56394758 C183.780571,4.41435708 185.580013,6.33933661 186.169366,8.69658477 C187.343818,13.3780753 184.730025,17.9610811 180.387002,20.9108354 L180.393917,19.2424488 C180.88274,18.98 182.203466,17.8721785 182.564631,17.2919165 C182.009851,17.0970762 181.00561,16.9560033 180.382215,16.967715 L180.382215,14.8542834 C181.429008,14.791466 183.011433,14.9852416 183.997589,15.2088288 C184.418859,14.5630876 184.64758,14.016896 184.802365,13.2817199 C183.750252,13.0836855 181.531135,13.1374529 180.382215,13.3035463 L180.382215,11.8241441 C181.568368,11.4978133 184.172054,11.2508026 185.190125,11.3631286 C185.267784,10.8994513 185.249167,10.3090745 185.096509,9.7831122 C184.082694,9.70379197 181.531135,10.0013759 180.387002,10.3479361 L180.387002,9.14908272 C181.443902,8.69871417 183.837485,8.2765602 184.85396,8.20948403 C184.76194,7.7836036 184.498114,7.2810647 184.188544,7.00690418 C183.239621,7.07930385 181.481135,7.44928747 180.387002,7.81075348 L180.387002,6.68429975 C181.033801,6.38298935 182.430058,6.04015561 183.162494,5.99171171 C182.769415,5.7260688 181.497625,5.35395577 180.392321,5.43167895 L180.387002,4.56394758 Z" id="Fill-10" fill="#6244BB"></path>
                    <path d="M183.258982,4.07530303 C191.104615,2.62411548 194.654565,6.0945086 192.525872,14.5604791 C190.553559,21.5230917 186.387129,26.2003235 180.390938,29.785172 L180.390938,26.1215356 C180.740933,26.4111343 181.190927,26.9738288 181.496773,27.4832883 C182.166977,27.1505692 183.062709,26.5165397 183.526,26.0092097 C183.045688,25.327801 181.28667,23.5960647 180.390938,23.0583907 C180.389342,23.0663759 180.389342,22.6090868 180.390938,22.5840663 C181.207948,22.1502007 182.623885,21.1046642 183.237174,20.2917649 C184.243543,20.7245659 186.229153,22.3530262 186.678083,22.9439353 C187.391902,22.2204709 188.236571,21.0423792 188.594545,20.2550328 C187.794556,19.5608477 186.245642,18.6627723 185.113743,18.2624447 C185.738734,17.6087183 186.372236,16.5344349 186.654147,15.7694472 C187.63658,15.9877109 189.448256,16.5173997 190.288137,17.0066298 C190.699302,16.268792 191.013659,15.3015111 191.230145,14.2527805 C190.380689,13.9099468 188.639757,13.5931982 187.512645,13.4760811 C187.662111,13.0033538 187.768493,11.8146151 187.737642,11.3253849 C189.028049,11.296638 190.804088,11.4802989 191.751414,11.7054832 C191.885987,11.1390622 191.929603,10.4677682 191.820562,9.78529484 C190.716855,9.61547502 188.870073,9.50953726 187.616899,9.60003686 C187.603601,9.08578624 187.427008,8.31068387 187.238713,7.9476208 C188.236571,7.78418919 190.259414,7.76608927 191.425887,7.89864455 C191.243975,7.3439353 191.013659,6.77911138 190.509943,6.36334562 C189.697188,6.28775184 187.832321,6.37558968 186.678083,6.58214169 C186.459469,6.16318182 186.089793,5.72452498 185.695118,5.45941441 C186.442448,5.23210074 187.98817,5.07399263 188.831775,5.12616298 C188.147742,4.77321458 186.845633,4.43836609 184.843534,4.70081491 C184.102587,4.22649058 183.258982,4.07530303 183.258982,4.07530303" id="Fill-12" fill="#6244BB"></path>
                    <g id="Group-16" transform="translate(180.316578, 0.000000)">
                        <mask id="mask-5" fill="white">
                            <use xlink:href="#path-4"></use>
                        </mask>
                        <g id="Clip-15"></g>
                        <path d="M38.260731,38.6845823 L38.260731,0.451699427 L0.0830839216,0.451699427 L0.0830839216,3.60268223 C5.54470816,1.86934889 16.414234,2.85419738 22.7258461,8.527457 C27.8560921,13.1445332 31.3624251,18.9838862 31.7911424,27.0378174 C32.0544365,31.9386364 30.7863695,36.2991196 29.5837271,38.6845823 L38.260731,38.6845823 Z" id="Fill-14" fill="#6244BB" mask="url(#mask-5)"></path>
                    </g>
                    <path d="M196.801821,8.82067568 C196.089597,8.50445946 194.991209,8.18025799 194.115689,8.13607289 C194.278985,8.67427928 194.357707,9.33173219 194.377388,10.0211261 C195.255035,10.1339844 196.766715,10.5577355 197.534258,10.894181 C197.822019,11.7816093 197.838509,12.5567117 197.833189,13.4308313 C196.976819,12.9416011 195.410884,12.3176863 194.290155,12.1143284 C194.260368,12.8899631 194.075264,14.0164169 193.808247,14.8585954 C194.970996,15.2317731 196.660866,16.0947133 197.447025,16.6595373 C197.295963,17.8195291 196.891182,19.1211261 196.321509,20.2209623 C195.464606,19.4570393 193.741227,18.3827559 192.64071,17.9153522 C192.314651,18.9358681 191.385409,20.8832064 190.726908,21.6716175 C191.691788,22.2566708 193.302935,23.6807084 193.922607,24.4526167 C193.20666,25.7403726 192.370501,26.763018 191.444451,27.5423792 C190.945522,26.640045 189.697667,25.0025348 188.816829,24.3062203 C188.11152,25.4784562 186.422714,27.186769 185.272198,27.9182187 C186.055166,28.682674 187.126959,30.189226 187.609399,31.053231 C186.950366,31.7298485 185.754106,32.572027 184.746674,33.0894717 C184.381786,31.9044595 183.785517,30.6699386 183.115314,29.6510197 C182.464792,30.3201843 181.428636,30.8674406 180.383438,31.4029853 L180.383438,36.7584316 C187.372168,34.2265725 196.447571,26.9796847 198.602859,17.1705938 C199.652844,12.3970066 198.596476,9.51006962 197.605001,7.93431204 C195.978429,5.35560606 193.001875,4.8440172 191.654554,4.6459828 C192.229014,4.94995495 193.036981,5.67128993 193.440699,6.30851351 C195.639072,6.71097052 196.432678,8.04717035 196.801821,8.82067568" id="Fill-17" fill="#6244BB"></path>
                    <path d="M180.384928,38.6596151 L180.384928,38.2071171 C182.606173,37.5395495 185.19337,36.13095 186.285375,35.1689926 C186.671008,36.0958149 187.056109,37.6082228 187.172065,38.4828747 C188.166732,37.874398 189.360863,37.0657576 190.18266,36.1000737 C189.94277,35.3185831 189.448628,34.2623997 188.952891,33.5112531 C190.381062,32.5375839 192.231035,30.7771007 193.322509,29.4068305 C193.767716,30.0909009 194.303878,31.2897543 194.575683,32.2064619 C195.657582,31.3067895 196.97618,29.7044144 197.646916,28.6029812 C197.233624,27.8550287 196.546399,26.9574857 195.828856,26.276077 C196.901181,24.9968387 198.064995,22.7535135 198.406479,21.5935217 C199.019236,21.9400819 200.080923,23.1266912 200.470811,23.7341032 C201.235162,22.3265684 201.692602,20.8673956 201.952705,19.2580999 C201.463882,18.6815643 200.602193,17.9974939 199.796885,17.6323014 C200.055924,16.7278378 200.327728,15.2042506 200.266027,14.2124816 C200.953251,14.5116626 201.885685,15.195733 202.360678,15.7019984 C202.464932,14.6862735 202.379295,13.6811957 202.110682,12.6803767 C201.673454,12.2385258 200.691021,11.6566667 200.097944,11.4852498 C200.038903,10.8208763 199.766566,9.9936036 199.551676,9.54642916 C200.038903,9.65076986 201.005378,10.2491319 201.383032,10.563751 C201.005378,9.65076986 199.968159,8.75269451 199.170298,8.45723997 C198.929876,8.02124488 198.473499,7.32546274 198.057016,6.92353808 C202.464932,8.41837838 202.99418,11.552326 203.320239,12.7964292 C204.048952,17.5380753 203.064923,21.7654709 200.949528,25.8459378 C198.270311,31.0262408 194.972486,34.0169861 189.248631,38.6596151 L180.384928,38.6596151 Z" id="Fill-19" fill="#6244BB"></path>
                    <path d="M191.326952,38.6720721 C193.352987,37.3289517 194.742329,36.1109337 196.036992,34.4702293 C196.450816,35.4066339 196.667302,37.194267 196.667302,37.1926699 C197.611437,36.3957412 199.565133,34.2817772 200.218847,33.1116708 C200.022573,32.468059 199.572048,31.4533989 199.212478,30.9929156 C200.495971,29.7221949 201.762974,27.3963554 202.219882,25.8445536 C202.74913,26.3758395 203.274654,27.3010647 203.476779,27.9042179 C204.298044,26.4029894 205.053884,24.5615889 205.411326,22.5258804 C205.132607,21.9307125 204.665592,21.263145 204.148046,20.7520885 C204.516126,19.7028256 204.718251,18.19095 204.684209,16.9569615 C205.070905,17.2545455 205.756002,18.1190827 206.100146,18.7339476 C206.092167,16.6109337 205.878341,15.2486486 204.610806,14.1152744 C204.58687,13.4881654 204.393255,12.4309173 204.007623,11.6169533 C205.878341,13.2060197 207.533636,15.3194513 207.058111,20.0403358 C206.34376,27.1594595 202.151266,33.9453317 197.200273,38.6720721 L191.326952,38.6720721 Z" id="Fill-21" fill="#6244BB"></path>
                    <path d="M204.976811,38.6866585 C206.019881,37.7348157 206.547533,36.7835053 207.128376,35.5479197 C207.375713,36.1473464 207.498052,36.8708108 207.526775,37.6677396 C207.830494,36.7648731 209.502278,34.017412 209.470364,30.1637265 C210.048547,28.2786732 210.382585,26.2360442 210.468222,24.628878 C211.051192,27.396036 211.051192,33.5143407 208.353359,38.6866585 L204.976811,38.6866585 Z" id="Fill-23" fill="#6244BB"></path>
                    <path d="M208.657556,22.0148239 C208.781491,21.2716626 208.605429,20.0728092 208.077777,19.2806716 C208.096394,18.7174447 207.963417,17.3354627 207.849057,16.7264537 C208.956488,18.2415233 209.888922,19.9333333 209.53148,23.9142506 C208.911276,29.3032351 207.288427,34.7209664 203.151784,38.6869779 L201.549679,38.6869779 C201.57787,38.2227682 201.509254,37.0276413 201.260853,36.2221949 C202.801257,34.6331286 204.473042,32.0102375 205.094309,30.0884521 C205.527814,30.9732187 205.756002,31.7988943 205.870362,32.8545455 C206.952262,30.9194513 207.780973,28.1017199 208.008629,26.1863227 C207.86661,25.5842342 207.585763,24.9858722 207.283108,24.5397625 C207.655975,23.5953726 207.971928,21.7981572 207.988949,20.8159705 C208.254371,21.0848075 208.528303,21.6852989 208.657556,22.0148239" id="Fill-25" fill="#6244BB"></path>
                    <g id="Group-29" transform="translate(220.741533, 33.538084)">
                        <mask id="mask-7" fill="white">
                            <use xlink:href="#path-6"></use>
                        </mask>
                        <g id="Clip-28"></g>
                        <path d="M2.54294246,2.48368141 C2.88868221,2.48368141 3.49558845,2.54596642 3.49558845,2.10358313 C3.49558845,1.81611384 3.11899807,1.76394349 2.81847045,1.76394349 L2.07433212,1.76394349 L2.07433212,2.48368141 L2.54294246,2.48368141 Z M3.84664727,4.15845618 L3.3759093,4.15845618 L2.54294246,2.873362 L2.07433212,2.873362 L2.07433212,4.15845618 L1.68657169,4.15845618 L1.68657169,1.37373055 L2.89559701,1.37373055 C3.39612178,1.37373055 3.88654032,1.51001229 3.88654032,2.11050369 C3.88654032,2.66042179 3.50037561,2.86218264 3.004638,2.873362 L3.84664727,4.15845618 Z M4.79556991,2.78286241 C4.79556991,1.58241196 3.80090324,0.631101556 2.63549433,0.631101556 C1.4690216,0.631101556 0.472759216,1.58241196 0.472759216,2.78286241 C0.472759216,3.98331286 1.4690216,4.93355856 2.63549433,4.93355856 C3.80090324,4.93355856 4.79556991,3.98331286 4.79556991,2.78286241 L4.79556991,2.78286241 Z M0.0849987879,2.78286241 C0.0849987879,1.36521294 1.20891893,0.238759214 2.63549433,0.238759214 C4.05834638,0.238759214 5.18598988,1.36521294 5.18598988,2.78286241 C5.18598988,4.19518837 4.05834638,5.32323915 2.63549433,5.32323915 C1.20891893,5.32323915 0.0849987879,4.19518837 0.0849987879,2.78286241 L0.0849987879,2.78286241 Z" id="Fill-27" fill="#6244BB" mask="url(#mask-7)"></path>
                    </g>
                </g>
            </g>
        </g>
    </g>
</svg>