<?xml version="1.0" encoding="utf-8"?>
<!-- Generator: Adobe Illustrator 24.3.0, SVG Export Plug-In . SVG Version: 6.00 Build 0)  -->
<svg version="1.1" id="Layer_1" xmlns="http://www.w3.org/2000/svg" xmlns:xlink="http://www.w3.org/1999/xlink" x="0px" y="0px"
	 viewBox="0 0 374 66" style="enable-background:new 0 0 374 66;" xml:space="preserve">
<style type="text/css">
	.st0{fill-rule:evenodd;clip-rule:evenodd;fill:#0033A1;}
	.st1{filter:url(#Adobe_OpacityMaskFilter);}
	.st2{fill-rule:evenodd;clip-rule:evenodd;fill:#FFFFFF;}
	.st3{mask:url(#mask-3_1_);fill-rule:evenodd;clip-rule:evenodd;fill:#0033A1;}
	.st4{filter:url(#Adobe_OpacityMaskFilter_1_);}
	.st5{mask:url(#mask-5_1_);fill-rule:evenodd;clip-rule:evenodd;fill:#0033A1;}
	.st6{filter:url(#Adobe_OpacityMaskFilter_2_);}
	.st7{mask:url(#mask-7_1_);fill-rule:evenodd;clip-rule:evenodd;fill:#0033A1;}
</style>
<g id="Export-Assets">
	<g id="Group-31">
		<g>
			<polygon id="Fill-1" class="st0" points="81.6,17.9 81.6,37.8 62.4,17.9 54.2,17.9 54.2,51 63,51 63,30.3 83.4,51 90.4,51 
				90.4,17.9 			"/>
			<polygon id="Fill-2" class="st0" points="111.3,25.5 111.3,17.9 120.9,17.9 120.9,51 111.3,51 			"/>
			<polygon id="Fill-3" class="st0" points="197.1,37.8 197.1,43.8 218.8,43.8 218.8,51 187.7,51 187.7,17.9 218.6,17.9 218.6,25.1 
				197.1,25.1 197.1,31 215.3,31 215.3,37.8 			"/>
			<polygon id="Fill-4" class="st0" points="159.1,25.4 159.1,51 149.7,51 149.7,25.4 137.6,25.4 137.6,17.9 171.3,17.9 171.3,25.4 
							"/>
			<g id="Group-30" transform="translate(0.000000, 0.132986)">
				<path id="Fill-5" class="st0" d="M236.8,17.7v33.2h16.7c13.7,0,20.5-6.2,20.5-16.6c0-9.8-6.1-16.5-20.5-16.5H236.8z M246.3,25.2
					h7.1c7.7,0,10.9,3.3,10.9,9.1c0,6-3.2,9.1-10.9,9.1h-7.1V25.2z"/>
				<g id="Group-9" transform="translate(0.000000, 17.567568)">
					<g id="Clip-8">
					</g>
					<defs>
						<filter id="Adobe_OpacityMaskFilter" filterUnits="userSpaceOnUse" x="0" y="0.2" width="36.2" height="33.8">
							<feColorMatrix  type="matrix" values="1 0 0 0 0  0 1 0 0 0  0 0 1 0 0  0 0 0 1 0"/>
						</filter>
					</defs>
					<mask maskUnits="userSpaceOnUse" x="0" y="0.2" width="36.2" height="33.8" id="mask-3_1_">
						<g class="st1">
							<polygon id="path-2_1_" class="st2" points="0,0.2 36.2,0.2 36.2,33.9 0,33.9 							"/>
						</g>
					</mask>
					<path id="Fill-7" class="st3" d="M36.2,18.7c0,10.1-6.3,15.2-18,15.2C6.4,33.9,0,28.9,0,18.8V0.2h9.4v18.6
						c0,5.1,2.9,7.6,8.8,7.6c5.8,0,8.6-2.5,8.6-7.5V0.2h9.4V18.7z"/>
				</g>
				<path id="Fill-10" class="st0" d="M297.6,7.5c5.6-0.2,8.6,2.9,9.5,6.8c1.9,7.7-2.4,15.3-9.5,20.2l0-2.8c0.8-0.4,3-2.3,3.6-3.2
					c-0.9-0.3-2.6-0.6-3.6-0.5v-3.5c1.7-0.1,4.3,0.2,6,0.6c0.7-1.1,1.1-2,1.3-3.2c-1.7-0.3-5.4-0.2-7.3,0v-2.4
					c2-0.5,6.3-0.9,7.9-0.8c0.1-0.8,0.1-1.7-0.2-2.6c-1.7-0.1-5.9,0.4-7.8,0.9v-2c1.7-0.7,5.7-1.4,7.4-1.6c-0.2-0.7-0.6-1.5-1.1-2
					c-1.6,0.1-4.5,0.7-6.3,1.3V11c1.1-0.5,3.4-1.1,4.6-1.1c-0.6-0.4-2.7-1.1-4.6-0.9L297.6,7.5z"/>
				<path id="Fill-12" class="st0" d="M302.4,6.7c12.9-2.4,18.8,3.3,15.3,17.3c-3.3,11.5-10.1,19.2-20,25.1v-6
					c0.6,0.5,1.3,1.4,1.8,2.2c1.1-0.5,2.6-1.6,3.3-2.4c-0.8-1.1-3.7-4-5.2-4.9c0,0,0-0.7,0-0.8c1.3-0.7,3.7-2.4,4.7-3.8
					c1.7,0.7,4.9,3.4,5.7,4.4c1.2-1.2,2.6-3.1,3.2-4.4c-1.3-1.1-3.9-2.6-5.7-3.3c1-1.1,2.1-2.9,2.5-4.1c1.6,0.4,4.6,1.2,6,2
					c0.7-1.2,1.2-2.8,1.6-4.5c-1.4-0.6-4.3-1.1-6.1-1.3c0.2-0.8,0.4-2.7,0.4-3.5c2.1,0,5.1,0.3,6.6,0.6c0.2-0.9,0.3-2,0.1-3.2
					c-1.8-0.3-4.9-0.5-6.9-0.3c0-0.8-0.3-2.1-0.6-2.7c1.6-0.3,5-0.3,6.9-0.1c-0.3-0.9-0.7-1.8-1.5-2.5c-1.3-0.1-4.4,0-6.3,0.4
					c-0.4-0.7-1-1.4-1.6-1.9c1.2-0.4,3.8-0.6,5.2-0.5c-1.1-0.6-3.3-1.1-6.6-0.7C303.8,7,302.4,6.7,302.4,6.7"/>
				<g id="Group-16" transform="translate(297.522353, 0.000000)">
					<g id="Clip-15">
					</g>
					<defs>
						<filter id="Adobe_OpacityMaskFilter_1_" filterUnits="userSpaceOnUse" x="0.1" y="0.7" width="63" height="63.1">
							<feColorMatrix  type="matrix" values="1 0 0 0 0  0 1 0 0 0  0 0 1 0 0  0 0 0 1 0"/>
						</filter>
					</defs>
					<mask maskUnits="userSpaceOnUse" x="0.1" y="0.7" width="63" height="63.1" id="mask-5_1_">
						<g class="st4">
							<polygon id="path-4_1_" class="st2" points="0.1,0.7 63.1,0.7 63.1,63.8 0.1,63.8 							"/>
						</g>
					</mask>
					<path id="Fill-14" class="st5" d="M63.1,63.8V0.7h-63v5.2c9-2.9,26.9-1.2,37.4,8.1c8.5,7.6,14.3,17.3,15,30.5
						c0.4,8.1-1.7,15.3-3.6,19.2H63.1z"/>
				</g>
				<path id="Fill-17" class="st0" d="M324.7,14.6c-1.2-0.5-3-1.1-4.4-1.1c0.3,0.9,0.4,2,0.4,3.1c1.4,0.2,3.9,0.9,5.2,1.4
					c0.5,1.5,0.5,2.7,0.5,4.2c-1.4-0.8-4-1.8-5.8-2.2c0,1.3-0.4,3.1-0.8,4.5c1.9,0.6,4.7,2,6,3c-0.2,1.9-0.9,4.1-1.9,5.9
					c-1.4-1.3-4.3-3-6.1-3.8c-0.5,1.7-2.1,4.9-3.2,6.2c1.6,1,4.3,3.3,5.3,4.6c-1.2,2.1-2.6,3.8-4.1,5.1c-0.8-1.5-2.9-4.2-4.3-5.3
					c-1.2,1.9-4,4.8-5.8,6c1.3,1.3,3.1,3.7,3.9,5.2c-1.1,1.1-3.1,2.5-4.7,3.4c-0.6-2-1.6-4-2.7-5.7c-1.1,1.1-2.8,2-4.5,2.9v8.8
					c11.5-4.2,26.5-16.1,30.1-32.3c1.7-7.9,0-12.6-1.6-15.2c-2.7-4.3-7.6-5.1-9.8-5.4c0.9,0.5,2.3,1.7,2.9,2.7
					C322.8,11.1,324.1,13.3,324.7,14.6"/>
				<path id="Fill-19" class="st0" d="M297.6,63.8V63c3.7-1.1,7.9-3.4,9.7-5c0.6,1.5,1.3,4,1.5,5.5c1.6-1,3.6-2.3,5-3.9
					c-0.4-1.3-1.2-3-2-4.3c2.4-1.6,5.4-4.5,7.2-6.8c0.7,1.1,1.6,3.1,2.1,4.6c1.8-1.5,4-4.1,5.1-5.9c-0.7-1.2-1.8-2.7-3-3.8
					c1.8-2.1,3.7-5.8,4.3-7.7c1,0.6,2.8,2.5,3.4,3.5c1.3-2.3,2-4.7,2.4-7.4c-0.8-1-2.2-2.1-3.6-2.7c0.4-1.5,0.9-4,0.8-5.6
					c1.1,0.5,2.7,1.6,3.5,2.5c0.2-1.7,0-3.3-0.4-5c-0.7-0.7-2.3-1.7-3.3-2c-0.1-1.1-0.5-2.5-0.9-3.2c0.8,0.2,2.4,1.2,3,1.7
					c-0.6-1.5-2.3-3-3.7-3.5c-0.4-0.7-1.1-1.9-1.8-2.5c7.3,2.5,8.1,7.6,8.7,9.7c1.2,7.8-0.4,14.8-3.9,21.5
					c-4.4,8.5-9.9,13.5-19.3,21.1H297.6z"/>
				<path id="Fill-21" class="st0" d="M315.7,63.8c3.3-2.2,5.6-4.2,7.8-6.9c0.7,1.5,1,4.5,1,4.5c1.6-1.3,4.8-4.8,5.9-6.7
					c-0.3-1.1-1.1-2.7-1.7-3.5c2.1-2.1,4.2-5.9,5-8.5c0.9,0.9,1.7,2.4,2.1,3.4c1.4-2.5,2.6-5.5,3.2-8.9c-0.5-1-1.2-2.1-2.1-2.9
					c0.6-1.7,0.9-4.2,0.9-6.3c0.6,0.5,1.8,1.9,2.3,2.9c0-3.5-0.4-5.8-2.5-7.6c0-1-0.4-2.8-1-4.1c3.1,2.6,5.8,6.1,5,13.9
					c-1.2,11.7-8.1,22.9-16.3,30.7H315.7z"/>
				<path id="Fill-23" class="st0" d="M338.2,63.8c1.7-1.6,2.6-3.1,3.6-5.2c0.4,1,0.6,2.2,0.7,3.5c0.5-1.5,3.3-6,3.2-12.4
					c1-3.1,1.5-6.5,1.6-9.1c1,4.6,1,14.7-3.5,23.2H338.2z"/>
				<path id="Fill-25" class="st0" d="M344.3,36.3c0.2-1.2-0.1-3.2-1-4.5c0-0.9-0.2-3.2-0.4-4.2c1.8,2.5,3.4,5.3,2.8,11.9
					c-1,8.9-3.7,17.8-10.5,24.4h-2.6c0-0.8-0.1-2.7-0.5-4.1c2.5-2.6,5.3-6.9,6.3-10.1c0.7,1.5,1.1,2.8,1.3,4.6
					c1.8-3.2,3.2-7.8,3.5-11c-0.2-1-0.7-2-1.2-2.7c0.6-1.6,1.1-4.5,1.2-6.1C343.6,34.8,344.1,35.8,344.3,36.3"/>
				<g id="Group-29" transform="translate(364.223529, 55.337838)">
					<g id="Clip-28">
					</g>
					<defs>
						<filter id="Adobe_OpacityMaskFilter_2_" filterUnits="userSpaceOnUse" x="0.1" y="0.4" width="8.4" height="8.4">
							<feColorMatrix  type="matrix" values="1 0 0 0 0  0 1 0 0 0  0 0 1 0 0  0 0 0 1 0"/>
						</filter>
					</defs>
					<mask maskUnits="userSpaceOnUse" x="0.1" y="0.4" width="8.4" height="8.4" id="mask-7_1_">
						<g class="st6">
							<polygon id="path-6_1_" class="st2" points="0.1,0.4 8.6,0.4 8.6,8.8 0.1,8.8 							"/>
						</g>
					</mask>
					<path id="Fill-27" class="st7" d="M4.2,4.1c0.6,0,1.6,0.1,1.6-0.6c0-0.5-0.6-0.6-1.1-0.6H3.4v1.2H4.2z M6.3,6.9H5.6L4.2,4.7
						H3.4v2.1H2.8V2.3h2c0.8,0,1.6,0.2,1.6,1.2c0,0.9-0.6,1.2-1.5,1.3L6.3,6.9z M7.9,4.6c0-2-1.6-3.6-3.6-3.6C2.4,1,0.8,2.6,0.8,4.6
						s1.6,3.5,3.6,3.5C6.3,8.1,7.9,6.6,7.9,4.6L7.9,4.6z M0.1,4.6c0-2.3,1.9-4.2,4.2-4.2c2.3,0,4.2,1.9,4.2,4.2
						c0,2.3-1.9,4.2-4.2,4.2C2,8.8,0.1,6.9,0.1,4.6L0.1,4.6z"/>
				</g>
			</g>
		</g>
	</g>
</g>
</svg>
