<svg width="296" height="19" viewBox="0 0 296 19" fill="none" xmlns="http://www.w3.org/2000/svg">
<path d="M206.377 0.0416485L196.587 14.2056C195.296 16.0802 193.213 17.8716 190.672 18.0382V18.4548H201.545C204.419 18.4548 206.544 16.5802 207.96 14.4972L218 0H206.377V0.0416485Z" fill="#FF0101"/>
<path d="M107.271 11.2895H112.645L109.854 6.12379L107.271 11.2895ZM116.728 18.4964L114.603 14.7888H105.396L103.48 18.4964H98.8977L108.063 1.62466H112.228L122.601 18.4964H116.728ZM8.54003 11.2895H14.039L11.1645 6.12379L8.54003 11.2895ZM18.2882 18.4964L16.1219 14.7888H6.66539L4.70743 18.4964H0L9.41486 1.62466H13.7057L24.3703 18.4964H18.2882ZM45.7412 9.37318C47.6992 9.37318 48.6157 8.37337 48.6157 7.24858C48.6157 6.1238 47.7825 5.20731 45.7412 5.20731H40.4922V9.37318H45.7412ZM49.6572 12.1643L56.4892 18.4964H51.2402C50.0737 18.4964 49.3239 18.1215 48.699 17.5383L44.0332 13.0391C43.9499 12.9558 43.8249 12.9142 43.6166 12.9142H40.4506V18.4964H35.5349V1.583H46.1995C51.7401 1.583 54.073 4.08252 54.073 6.83199C54.1146 10.0397 51.2402 11.5811 49.6572 12.1643ZM88.0248 9.37318C89.9827 9.37318 90.8992 8.37337 90.8992 7.24858C90.8992 6.1238 90.0661 5.20731 88.0248 5.20731H82.7758V9.37318H88.0248ZM91.9824 12.1643L98.8144 18.4964H93.5654C92.3989 18.4964 91.6491 18.1215 91.0242 17.5383L86.3584 13.0391C86.2751 12.9558 86.1501 12.9142 85.9419 12.9142H82.7758V18.4964H77.8601V1.583H88.5247C94.0653 1.583 96.3982 4.08252 96.3982 6.83199C96.4398 10.0397 93.5654 11.5811 91.9824 12.1643ZM168.468 18.4964V1.583H185.589V5.20731H173.425V8.12342H185.423V11.7477H173.425V14.8305H185.548V18.4548H168.468V18.4964ZM58.3638 18.4964V1.583H74.8606V5.20731H63.3212V9.41482H74.6107V13.0391H63.3212V18.4964H58.3638ZM165.468 7.08195C163.219 5.99882 160.719 5.08232 157.386 5.08232C153.429 5.08232 150.471 7.12361 150.471 9.99806C150.471 12.9142 153.471 14.9971 157.386 14.9971C160.594 14.9971 163.135 14.1639 165.635 12.7475V16.9134C163.427 17.9965 160.469 18.8297 157.178 18.8297C150.43 18.8297 145.097 15.372 145.097 9.99806C145.097 4.7074 150.513 1.29138 157.137 1.29138C160.261 1.29138 163.094 1.87461 165.468 2.83276V7.08195ZM139.723 18.4964L127.85 8.45668V18.4964H123.685V1.583H127.226L138.932 11.4561V1.583H143.098V18.4964H139.723ZM25.995 1.62466H30.9107V18.5381H25.995V1.62466Z" fill="#041139"/>
<path d="M206.377 0.0416485L196.587 14.2056C195.296 16.0802 193.213 17.8716 190.672 18.0382V18.4548H201.545C204.419 18.4548 206.544 16.5802 207.96 14.4972L218 0H206.377V0.0416485Z" fill="#FF0101"/>
<path d="M107.271 11.2895H112.645L109.854 6.12379L107.271 11.2895ZM116.728 18.4964L114.603 14.7888H105.396L103.48 18.4964H98.8977L108.063 1.62466H112.228L122.601 18.4964H116.728ZM8.54003 11.2895H14.039L11.1645 6.12379L8.54003 11.2895ZM18.2882 18.4964L16.1219 14.7888H6.66539L4.70743 18.4964H0L9.41486 1.62466H13.7057L24.3703 18.4964H18.2882ZM45.7412 9.37318C47.6992 9.37318 48.6157 8.37337 48.6157 7.24858C48.6157 6.1238 47.7825 5.20731 45.7412 5.20731H40.4922V9.37318H45.7412ZM49.6572 12.1643L56.4892 18.4964H51.2402C50.0737 18.4964 49.3239 18.1215 48.699 17.5383L44.0332 13.0391C43.9499 12.9558 43.8249 12.9142 43.6166 12.9142H40.4506V18.4964H35.5349V1.583H46.1995C51.7401 1.583 54.073 4.08252 54.073 6.83199C54.1146 10.0397 51.2402 11.5811 49.6572 12.1643ZM88.0248 9.37318C89.9827 9.37318 90.8992 8.37337 90.8992 7.24858C90.8992 6.1238 90.0661 5.20731 88.0248 5.20731H82.7758V9.37318H88.0248ZM91.9824 12.1643L98.8144 18.4964H93.5654C92.3989 18.4964 91.6491 18.1215 91.0242 17.5383L86.3584 13.0391C86.2751 12.9558 86.1501 12.9142 85.9419 12.9142H82.7758V18.4964H77.8601V1.583H88.5247C94.0653 1.583 96.3982 4.08252 96.3982 6.83199C96.4398 10.0397 93.5654 11.5811 91.9824 12.1643ZM168.468 18.4964V1.583H185.589V5.20731H173.425V8.12342H185.423V11.7477H173.425V14.8305H185.548V18.4548H168.468V18.4964ZM58.3638 18.4964V1.583H74.8606V5.20731H63.3212V9.41482H74.6107V13.0391H63.3212V18.4964H58.3638ZM165.468 7.08195C163.219 5.99882 160.719 5.08232 157.386 5.08232C153.429 5.08232 150.471 7.12361 150.471 9.99806C150.471 12.9142 153.471 14.9971 157.386 14.9971C160.594 14.9971 163.135 14.1639 165.635 12.7475V16.9134C163.427 17.9965 160.469 18.8297 157.178 18.8297C150.43 18.8297 145.097 15.372 145.097 9.99806C145.097 4.7074 150.513 1.29138 157.137 1.29138C160.261 1.29138 163.094 1.87461 165.468 2.83276V7.08195ZM139.723 18.4964L127.85 8.45668V18.4964H123.685V1.583H127.226L138.932 11.4561V1.583H143.098V18.4964H139.723ZM25.995 1.62466H30.9107V18.5381H25.995V1.62466Z" fill="#041139"/>
<path d="M222.854 13.996C222.583 13.996 222.373 13.9213 222.224 13.772C222.075 13.6227 222 13.4173 222 13.156V4.952C222 4.68133 222.079 4.46667 222.238 4.308C222.406 4.14 222.625 4.056 222.896 4.056C223.176 4.056 223.395 4.14 223.554 4.308C223.722 4.46667 223.806 4.68133 223.806 4.952V12.512H227.74C228.3 12.512 228.58 12.7593 228.58 13.254C228.58 13.7487 228.3 13.996 227.74 13.996H222.854Z" fill="#041139"/>
<path d="M230.662 14.08C230.391 14.08 230.172 13.996 230.004 13.828C229.845 13.66 229.766 13.4407 229.766 13.17V4.952C229.766 4.68133 229.845 4.46667 230.004 4.308C230.172 4.14 230.391 4.056 230.662 4.056C230.942 4.056 231.161 4.14 231.32 4.308C231.488 4.46667 231.572 4.68133 231.572 4.952V13.17C231.572 13.4407 231.488 13.66 231.32 13.828C231.161 13.996 230.942 14.08 230.662 14.08Z" fill="#041139"/>
<path d="M234.599 14.08C234.328 14.08 234.109 13.996 233.941 13.828C233.782 13.66 233.703 13.4407 233.703 13.17V4.98C233.703 4.70933 233.778 4.49933 233.927 4.35C234.086 4.20067 234.3 4.126 234.571 4.126H239.485C240.054 4.126 240.339 4.36867 240.339 4.854C240.339 5.33 240.054 5.568 239.485 5.568H235.481V8.256H239.205C239.774 8.256 240.059 8.49867 240.059 8.984C240.059 9.46 239.774 9.698 239.205 9.698H235.481V13.17C235.481 13.4407 235.402 13.66 235.243 13.828C235.084 13.996 234.87 14.08 234.599 14.08Z" fill="#041139"/>
<path d="M242.501 13.996C242.23 13.996 242.015 13.9213 241.857 13.772C241.707 13.6227 241.633 13.4127 241.633 13.142V4.98C241.633 4.70933 241.707 4.49933 241.857 4.35C242.015 4.20067 242.23 4.126 242.501 4.126H247.555C247.825 4.126 248.035 4.18667 248.185 4.308C248.334 4.42933 248.409 4.602 248.409 4.826C248.409 5.05933 248.334 5.24133 248.185 5.372C248.035 5.49333 247.825 5.554 247.555 5.554H243.397V8.27H247.275C247.545 8.27 247.755 8.33067 247.905 8.452C248.054 8.57333 248.129 8.75067 248.129 8.984C248.129 9.208 248.054 9.38067 247.905 9.502C247.755 9.62333 247.545 9.684 247.275 9.684H243.397V12.568H247.555C247.825 12.568 248.035 12.6333 248.185 12.764C248.334 12.8853 248.409 13.0627 248.409 13.296C248.409 13.52 248.334 13.6927 248.185 13.814C248.035 13.9353 247.825 13.996 247.555 13.996H242.501Z" fill="#041139"/>
<path d="M253.156 14.122C252.437 14.122 251.756 14.0287 251.112 13.842C250.477 13.646 249.959 13.3847 249.558 13.058C249.343 12.8993 249.236 12.6753 249.236 12.386C249.236 12.19 249.292 12.022 249.404 11.882C249.525 11.7327 249.665 11.658 249.824 11.658C249.992 11.658 250.183 11.7233 250.398 11.854C250.799 12.1433 251.219 12.3533 251.658 12.484C252.097 12.6147 252.582 12.68 253.114 12.68C253.795 12.68 254.318 12.5633 254.682 12.33C255.046 12.0873 255.228 11.7373 255.228 11.28C255.228 10.9253 255.055 10.6547 254.71 10.468C254.374 10.272 253.809 10.0853 253.016 9.908C252.195 9.73067 251.527 9.52533 251.014 9.292C250.501 9.05867 250.113 8.76 249.852 8.396C249.591 8.032 249.46 7.57 249.46 7.01C249.46 6.43133 249.623 5.91333 249.95 5.456C250.277 4.99867 250.729 4.644 251.308 4.392C251.896 4.13067 252.554 4 253.282 4C254.617 4 255.704 4.35467 256.544 5.064C256.665 5.16667 256.749 5.26933 256.796 5.372C256.852 5.46533 256.88 5.58667 256.88 5.736C256.88 5.932 256.819 6.10467 256.698 6.254C256.586 6.394 256.451 6.464 256.292 6.464C256.199 6.464 256.11 6.45 256.026 6.422C255.951 6.394 255.849 6.34267 255.718 6.268C255.335 5.988 254.962 5.78267 254.598 5.652C254.243 5.512 253.805 5.442 253.282 5.442C252.647 5.442 252.143 5.57267 251.77 5.834C251.406 6.086 251.224 6.44067 251.224 6.898C251.224 7.28067 251.387 7.57467 251.714 7.78C252.041 7.98533 252.596 8.17667 253.38 8.354C254.211 8.54067 254.883 8.75067 255.396 8.984C255.919 9.208 256.315 9.49733 256.586 9.852C256.866 10.2067 257.006 10.65 257.006 11.182C257.006 11.7607 256.843 12.274 256.516 12.722C256.199 13.1607 255.746 13.506 255.158 13.758C254.579 14.0007 253.912 14.122 253.156 14.122Z" fill="#041139"/>
<path d="M261.697 14.066C261.417 14.066 261.193 13.9867 261.025 13.828C260.866 13.66 260.787 13.4407 260.787 13.17V5.61H258.239C257.679 5.61 257.399 5.36267 257.399 4.868C257.399 4.37333 257.679 4.126 258.239 4.126H265.141C265.701 4.126 265.981 4.37333 265.981 4.868C265.981 5.36267 265.701 5.61 265.141 5.61H262.593V13.17C262.593 13.4407 262.509 13.66 262.341 13.828C262.182 13.9867 261.967 14.066 261.697 14.066Z" fill="#041139"/>
<path d="M273.414 4.364C273.582 4.15867 273.782 4.056 274.016 4.056C274.23 4.056 274.422 4.14 274.59 4.308C274.758 4.46667 274.842 4.658 274.842 4.882C274.842 5.06867 274.772 5.246 274.632 5.414L271.454 9.292V13.17C271.454 13.4593 271.37 13.6833 271.202 13.842C271.034 14.0007 270.819 14.08 270.558 14.08C270.287 14.08 270.068 14.0007 269.9 13.842C269.732 13.6833 269.648 13.4593 269.648 13.17V9.292L266.47 5.414C266.33 5.246 266.26 5.06867 266.26 4.882C266.26 4.658 266.344 4.46667 266.512 4.308C266.68 4.14 266.871 4.056 267.086 4.056C267.319 4.056 267.52 4.15867 267.688 4.364L270.558 7.92L273.414 4.364Z" fill="#041139"/>
<path d="M276.83 13.996C276.56 13.996 276.35 13.9213 276.2 13.772C276.051 13.6227 275.976 13.4173 275.976 13.156V4.952C275.976 4.68133 276.056 4.46667 276.214 4.308C276.382 4.14 276.602 4.056 276.872 4.056C277.152 4.056 277.372 4.14 277.53 4.308C277.698 4.46667 277.782 4.68133 277.782 4.952V12.512H281.716C282.276 12.512 282.556 12.7593 282.556 13.254C282.556 13.7487 282.276 13.996 281.716 13.996H276.83Z" fill="#041139"/>
<path d="M284.61 13.996C284.339 13.996 284.125 13.9213 283.966 13.772C283.817 13.6227 283.742 13.4127 283.742 13.142V4.98C283.742 4.70933 283.817 4.49933 283.966 4.35C284.125 4.20067 284.339 4.126 284.61 4.126H289.664C289.935 4.126 290.145 4.18667 290.294 4.308C290.443 4.42933 290.518 4.602 290.518 4.826C290.518 5.05933 290.443 5.24133 290.294 5.372C290.145 5.49333 289.935 5.554 289.664 5.554H285.506V8.27H289.384C289.655 8.27 289.865 8.33067 290.014 8.452C290.163 8.57333 290.238 8.75067 290.238 8.984C290.238 9.208 290.163 9.38067 290.014 9.502C289.865 9.62333 289.655 9.684 289.384 9.684H285.506V12.568H289.664C289.935 12.568 290.145 12.6333 290.294 12.764C290.443 12.8853 290.518 13.0627 290.518 13.296C290.518 13.52 290.443 13.6927 290.294 13.814C290.145 13.9353 289.935 13.996 289.664 13.996H284.61Z" fill="#041139"/>
</svg>
