<svg width="132" height="22" viewBox="0 0 132 22" fill="none" xmlns="http://www.w3.org/2000/svg">
<g clip-path="url(#clip0)">
<path d="M13.5176 16.0208C13.5176 12.402 10.504 10.906 13.155 8.28039C12.8736 8.24935 12.2046 8.30522 11.5481 8.56592C9.17848 7.95141 7.98427 10.5584 8.28439 13.5441C9.25976 13.0972 10.4039 13.1096 11.0604 13.5441C8.67203 13.8482 7.6654 15.2697 6.3274 17.8581C5.34577 19.7699 5.17071 20.1051 4.62675 21.1603H0L9.14096 0H12.0296L21.1705 21.1603H10.2164C12.7048 19.323 13.5176 17.7153 13.5176 16.0208Z" fill="url(#paint0_linear)"/>
<path d="M28.6548 15.8717L29.6614 13.5316H33.938L34.9446 15.8717H37.0892L32.525 5.28848H31.0807L26.5102 15.8717H28.6548ZM31.7934 8.5845L33.1502 11.7129H30.4367L31.7934 8.5845ZM39.3338 14.4379C40.428 15.4372 41.7535 16.0269 43.1853 16.0269C45.1047 16.0269 46.7929 14.7296 46.7929 12.855C46.7929 9.28591 41.8723 9.81352 41.8723 8.10654C41.8723 7.2872 42.7413 6.95821 43.5166 6.95821C44.2169 6.95821 44.9359 7.26237 45.3611 7.65342L46.4302 6.13887C45.4236 5.40021 44.4232 5.13951 43.3416 5.13951C41.5721 5.13951 39.8215 6.22577 39.8215 8.11896C39.8215 9.31074 40.4905 10.037 41.3283 10.5211C42.7601 11.3529 44.7421 11.5205 44.7421 12.8799C44.7421 13.6496 44.1044 14.2082 43.1915 14.2082C42.2161 14.2082 41.2908 13.7116 40.6781 13.0413L39.3338 14.4379ZM49.4564 5.28848V7.10098H52.2762V15.8717H54.3332V7.10098H57.1531V5.28848H49.4564ZM61.4484 10.577C61.4484 8.57829 62.9427 6.9458 64.9498 6.9458C66.963 6.9458 68.4511 8.57829 68.4511 10.577C68.4511 12.5695 66.9568 14.2082 64.9498 14.2082C62.9427 14.2082 61.4484 12.5757 61.4484 10.577ZM59.3914 10.577C59.3914 13.5875 61.661 16.0207 64.9498 16.0207C68.2385 16.0207 70.5081 13.5875 70.5081 10.577C70.5081 7.56652 68.2385 5.1333 64.9498 5.1333C61.661 5.13951 59.3914 7.57273 59.3914 10.577ZM74.097 15.8717H76.154V8.97555L82.0938 15.8717H83.538V5.28848H81.481V12.1847L75.5413 5.28848H74.097V15.8717V15.8717ZM87.8022 15.8717H94.3484V14.0592H89.8529V5.28848H87.7959V15.8717H87.8022ZM99.1189 15.8717L100.126 13.5316H104.408L105.415 15.8717H107.56L102.989 5.28848H101.539L96.9681 15.8717H99.1189ZM102.251 8.5845L103.608 11.7129H100.895L102.251 8.5845ZM113.362 11.1853L117.157 15.8717H119.702L115.713 11.0177C116.138 10.8812 116.488 10.6701 116.776 10.397C117.357 9.85076 117.72 9.08107 117.72 8.2369C117.72 7.39272 117.357 6.61682 116.776 6.07679C116.244 5.59263 115.544 5.28848 114.443 5.28848H110.561V15.8717H112.618V11.1853H113.362ZM112.612 9.37281V7.10719H114.318C114.912 7.10719 115.169 7.24374 115.356 7.44237C115.538 7.641 115.663 7.93895 115.663 8.26172C115.663 8.56588 115.538 8.86382 115.356 9.06245C115.175 9.26108 114.912 9.37902 114.318 9.37902H112.612V9.37281ZM129.362 15.8717H131.994L126.742 10.1301L131.431 5.29469H128.718L124.679 9.52799V5.28848H122.622V15.8717H124.679V10.6701L129.362 15.8717Z" fill="#231F20"/>
</g>
<defs>
<linearGradient id="paint0_linear" x1="0" y1="10.5802" x2="21.1705" y2="10.5802" gradientUnits="userSpaceOnUse">
<stop stop-color="#A146BB"/>
<stop offset="0.25" stop-color="#A146BB"/>
<stop offset="1" stop-color="#FD4F57"/>
</linearGradient>
<clipPath id="clip0">
<rect width="132" height="21.1603" fill="white"/>
</clipPath>
</defs>
</svg>
