<svg width="133" height="40" viewBox="0 0 133 48" fill="none" xmlns="http://www.w3.org/2000/svg">
<path d="M68.3606 11.3224C68.3606 11.3683 68.3422 11.4096 68.3053 11.4463C68.2777 11.4739 68.2409 11.4877 68.1948 11.4877H63.4848C63.4387 11.4877 63.4157 11.5106 63.4157 11.5565V14.1324C63.4157 14.1783 63.4387 14.2012 63.4848 14.2012H66.6478C66.6939 14.2012 66.7307 14.2196 66.7583 14.2563C66.7952 14.2839 66.8136 14.3206 66.8136 14.3665V15.4134C66.8136 15.4593 66.7952 15.5006 66.7583 15.5374C66.7307 15.5649 66.6939 15.5787 66.6478 15.5787H63.4848C63.4387 15.5787 63.4157 15.6016 63.4157 15.6476V18.306C63.4157 18.352 63.4387 18.3749 63.4848 18.3749H68.1948C68.2409 18.3749 68.2777 18.3933 68.3053 18.43C68.3422 18.4576 68.3606 18.4943 68.3606 18.5402V19.5871C68.3606 19.633 68.3422 19.6743 68.3053 19.7111C68.2777 19.7386 68.2409 19.7524 68.1948 19.7524H61.9792C61.9332 19.7524 61.8917 19.7386 61.8549 19.7111C61.8273 19.6743 61.8135 19.633 61.8135 19.5871V10.2755C61.8135 10.2296 61.8273 10.1928 61.8549 10.1653C61.8917 10.1286 61.9332 10.1102 61.9792 10.1102H68.1948C68.2409 10.1102 68.2777 10.1286 68.3053 10.1653C68.3422 10.1928 68.3606 10.2296 68.3606 10.2755V11.3224Z" fill="#E01A0A"/>
<path d="M71.4335 19.7524C71.3414 19.7524 71.2816 19.7065 71.254 19.6146L69.0302 12.8927C69.021 12.8743 69.0163 12.8513 69.0163 12.8238C69.0163 12.7411 69.067 12.6998 69.1683 12.6998H70.5772C70.6784 12.6998 70.7429 12.7457 70.7705 12.8376L72.1103 17.4383C72.1196 17.4658 72.1334 17.4796 72.1518 17.4796C72.1702 17.4796 72.184 17.4658 72.1932 17.4383L73.533 12.8376C73.5607 12.7457 73.6251 12.6998 73.7264 12.6998L75.1353 12.7274C75.1905 12.7274 75.232 12.7457 75.2596 12.7825C75.2872 12.81 75.2918 12.8559 75.2734 12.9202L73.0634 19.6146C73.0358 19.7065 72.9759 19.7524 72.8838 19.7524H71.4335Z" fill="#E01A0A"/>
<path d="M81.7548 15.4409C81.7916 15.6705 81.81 15.9276 81.81 16.2123L81.7962 16.6393C81.7962 16.7495 81.741 16.8046 81.6305 16.8046H77.3072C77.2611 16.8046 77.2381 16.8276 77.2381 16.8735C77.2657 17.1765 77.3072 17.3832 77.3624 17.4934C77.5834 18.1545 78.1221 18.4897 78.9785 18.4989C79.6046 18.4989 80.1019 18.2418 80.4702 17.7275C80.5071 17.6724 80.5531 17.6449 80.6084 17.6449C80.6452 17.6449 80.6774 17.6586 80.705 17.6862L81.5614 18.3887C81.6443 18.453 81.6581 18.5264 81.6028 18.6091C81.3174 19.0131 80.9352 19.3254 80.4564 19.5458C79.9868 19.7661 79.4619 19.8763 78.8818 19.8763C78.1635 19.8763 77.5512 19.7156 77.0447 19.3942C76.5475 19.0728 76.1838 18.6229 75.9535 18.0443C75.7418 17.5484 75.6359 16.8597 75.6359 15.9782C75.6359 15.4455 75.6911 15.0139 75.8016 14.6833C75.9858 14.0405 76.3311 13.5355 76.8375 13.1681C77.3532 12.7916 77.9702 12.6034 78.6884 12.6034C80.5025 12.6034 81.5246 13.5492 81.7548 15.4409ZM78.6884 13.9808C78.3477 13.9808 78.0622 14.0681 77.832 14.2426C77.611 14.4079 77.4545 14.642 77.3624 14.9451C77.3072 15.1012 77.2703 15.3032 77.2519 15.5511C77.2335 15.5971 77.2519 15.62 77.3072 15.62H80.1111C80.1571 15.62 80.1802 15.5971 80.1802 15.5511C80.1617 15.3216 80.1341 15.1471 80.0973 15.0277C80.0144 14.6971 79.8487 14.44 79.6 14.2563C79.3606 14.0727 79.0567 13.9808 78.6884 13.9808Z" fill="#E01A0A"/>
<path d="M86.3501 12.6034C87.096 12.6034 87.6899 12.8238 88.1319 13.2646C88.5831 13.7054 88.8087 14.3068 88.8087 15.069V19.5871C88.8087 19.633 88.7903 19.6743 88.7535 19.7111C88.7259 19.7386 88.689 19.7524 88.643 19.7524H87.3722C87.3262 19.7524 87.2848 19.7386 87.2479 19.7111C87.2203 19.6743 87.2065 19.633 87.2065 19.5871V15.3996C87.2065 14.9772 87.0868 14.6374 86.8474 14.3803C86.608 14.114 86.2903 13.9808 85.8943 13.9808C85.4983 13.9808 85.1761 14.1094 84.9274 14.3665C84.688 14.6237 84.5683 14.9634 84.5683 15.3858V19.5871C84.5683 19.633 84.5499 19.6743 84.5131 19.7111C84.4854 19.7386 84.4486 19.7524 84.4026 19.7524H83.1318C83.0858 19.7524 83.0443 19.7386 83.0075 19.7111C82.9799 19.6743 82.9661 19.633 82.9661 19.5871V12.8789C82.9661 12.833 82.9799 12.7962 83.0075 12.7687C83.0443 12.7319 83.0858 12.7136 83.1318 12.7136H84.4026C84.4486 12.7136 84.4854 12.7319 84.5131 12.7687C84.5499 12.7962 84.5683 12.833 84.5683 12.8789V13.3197C84.5683 13.3472 84.5775 13.3656 84.5959 13.3748C84.6143 13.3839 84.6282 13.3748 84.6374 13.3472C85.0149 12.8513 85.5858 12.6034 86.3501 12.6034Z" fill="#E01A0A"/>
<path d="M93.9142 13.8431C93.9142 13.889 93.8957 13.9303 93.8589 13.9671C93.8313 13.9946 93.7945 14.0084 93.7484 14.0084H92.3395C92.2935 14.0084 92.2705 14.0313 92.2705 14.0773V17.3969C92.2705 17.7459 92.3441 17.9984 92.4915 18.1545C92.648 18.3106 92.892 18.3887 93.2235 18.3887H93.6379C93.684 18.3887 93.7208 18.4071 93.7484 18.4438C93.7852 18.4713 93.8037 18.5081 93.8037 18.554V19.5871C93.8037 19.6881 93.7484 19.7478 93.6379 19.7662L92.9197 19.7799C92.1922 19.7799 91.6489 19.656 91.2898 19.408C90.9307 19.1601 90.7465 18.6917 90.7373 18.003V14.0773C90.7373 14.0313 90.7143 14.0084 90.6682 14.0084H89.8809C89.8349 14.0084 89.7934 13.9946 89.7566 13.9671C89.729 13.9303 89.7152 13.889 89.7152 13.8431V12.8789C89.7152 12.833 89.729 12.7962 89.7566 12.7687C89.7934 12.7319 89.8349 12.7136 89.8809 12.7136H90.6682C90.7143 12.7136 90.7373 12.6906 90.7373 12.6447V11.0331C90.7373 10.9872 90.7511 10.9504 90.7787 10.9229C90.8156 10.8862 90.857 10.8678 90.903 10.8678H92.1047C92.1508 10.8678 92.1876 10.8862 92.2152 10.9229C92.2521 10.9504 92.2705 10.9872 92.2705 11.0331V12.6447C92.2705 12.6906 92.2935 12.7136 92.3395 12.7136H93.7484C93.7945 12.7136 93.8313 12.7319 93.8589 12.7687C93.8957 12.7962 93.9142 12.833 93.9142 12.8789V13.8431Z" fill="#E01A0A"/>
<path d="M97.6532 19.835C97.0731 19.835 96.562 19.7524 96.12 19.5871C95.6873 19.4126 95.3512 19.1784 95.1117 18.8846C94.8723 18.5815 94.7526 18.2464 94.7526 17.879V17.7551C94.7526 17.7092 94.7664 17.6724 94.794 17.6449C94.8309 17.6081 94.8723 17.5898 94.9184 17.5898H96.1339C96.1799 17.5898 96.2167 17.6081 96.2444 17.6449C96.2812 17.6724 96.2996 17.7092 96.2996 17.7551V17.7826C96.2996 18.0122 96.4239 18.2142 96.6725 18.3887C96.9304 18.554 97.2527 18.6366 97.6394 18.6366C98.0078 18.6366 98.307 18.5632 98.5372 18.4162C98.7674 18.2601 98.8825 18.0673 98.8825 17.8377C98.8825 17.6265 98.7859 17.4704 98.5925 17.3694C98.4083 17.2592 98.1044 17.1444 97.6809 17.025L97.156 16.8597C96.6864 16.722 96.2904 16.575 95.9681 16.4189C95.6458 16.2628 95.3742 16.0516 95.1532 15.7853C94.9322 15.5098 94.8217 15.1609 94.8217 14.7384C94.8217 14.0956 95.0749 13.586 95.5814 13.2095C96.0878 12.8238 96.7554 12.6309 97.5842 12.6309C98.1459 12.6309 98.6385 12.7228 99.0621 12.9064C99.4857 13.0809 99.8126 13.3288 100.043 13.6503C100.273 13.9625 100.388 14.3206 100.388 14.7247C100.388 14.7706 100.37 14.8119 100.333 14.8486C100.305 14.8762 100.268 14.89 100.222 14.89H99.0483C99.0023 14.89 98.9608 14.8762 98.924 14.8486C98.8964 14.8119 98.8825 14.7706 98.8825 14.7247C98.8825 14.4859 98.7628 14.2885 98.5234 14.1324C98.2932 13.9671 97.9755 13.8844 97.5704 13.8844C97.2112 13.8844 96.9166 13.9533 96.6864 14.091C96.4654 14.2196 96.3549 14.4033 96.3549 14.642C96.3549 14.8624 96.4608 15.0323 96.6725 15.1517C96.8935 15.2619 97.2573 15.3858 97.7637 15.5236L98.0676 15.6062C98.5556 15.7532 98.9654 15.9047 99.2969 16.0608C99.6284 16.2077 99.9093 16.4189 100.139 16.6944C100.37 16.9607 100.485 17.3097 100.485 17.7413C100.485 18.3933 100.227 18.9075 99.7113 19.284C99.1956 19.6514 98.5096 19.835 97.6532 19.835Z" fill="#E01A0A"/>
<path d="M111.862 19.5458C111.89 19.5825 111.904 19.6192 111.904 19.656C111.904 19.7202 111.858 19.7524 111.766 19.7524H110.343C110.26 19.7524 110.191 19.7202 110.136 19.656L109.514 18.9672C109.487 18.9397 109.454 18.9397 109.418 18.9672C108.57 19.5641 107.64 19.8626 106.627 19.8626C105.78 19.8626 105.08 19.6651 104.528 19.2703C103.985 18.8662 103.713 18.2785 103.713 17.5071C103.713 16.8827 103.883 16.3547 104.224 15.9231C104.574 15.4915 105.044 15.092 105.633 14.7247C105.688 14.6879 105.693 14.6558 105.647 14.6282C105.159 14.0405 104.836 13.586 104.68 13.2646C104.523 12.9432 104.445 12.608 104.445 12.259C104.445 11.8366 104.556 11.4555 104.777 11.1157C104.998 10.7668 105.306 10.4959 105.702 10.303C106.107 10.101 106.568 10 107.083 10C107.617 10 108.092 10.101 108.506 10.303C108.92 10.4959 109.243 10.7714 109.473 11.1295C109.712 11.4877 109.832 11.9009 109.832 12.3692C109.832 12.9294 109.666 13.4207 109.335 13.8431C109.003 14.2655 108.557 14.6512 107.995 15.0002C107.949 15.0277 107.944 15.0598 107.981 15.0966C108.405 15.5925 108.92 16.1756 109.528 16.8459C109.556 16.8827 109.588 16.8827 109.625 16.8459C109.846 16.6072 110.131 16.2399 110.481 15.744C110.536 15.643 110.61 15.6246 110.702 15.6889L111.641 16.2261C111.752 16.2904 111.77 16.3638 111.697 16.4465C111.31 17.0342 110.928 17.5393 110.55 17.9617L110.536 17.9892C110.536 18.026 110.555 18.0627 110.592 18.0994C110.923 18.4851 111.245 18.8524 111.558 19.2014C111.623 19.284 111.678 19.3529 111.724 19.408C111.779 19.4631 111.826 19.509 111.862 19.5458ZM107.125 11.4601C106.802 11.4601 106.54 11.5473 106.337 11.7218C106.144 11.8963 106.047 12.1259 106.047 12.4105C106.047 12.5667 106.103 12.7411 106.213 12.934C106.324 13.1268 106.558 13.439 106.917 13.8706C106.945 13.9074 106.977 13.912 107.014 13.8844C107.41 13.6365 107.709 13.3977 107.912 13.1681C108.124 12.9294 108.23 12.6723 108.23 12.3968C108.23 12.1121 108.128 11.8871 107.926 11.7218C107.723 11.5473 107.456 11.4601 107.125 11.4601ZM106.641 18.5127C107.212 18.5127 107.815 18.306 108.451 17.8928C108.488 17.8561 108.488 17.8239 108.451 17.7964C108.405 17.7505 108.359 17.7 108.313 17.6449C108.267 17.5898 108.22 17.5347 108.174 17.4796C108.055 17.3418 107.857 17.1168 107.58 16.8046L107.263 16.4465C107.115 16.2904 106.936 16.0883 106.724 15.8404C106.706 15.8129 106.673 15.8083 106.627 15.8266C106.213 16.0929 105.895 16.3547 105.674 16.6118C105.453 16.8689 105.343 17.1582 105.343 17.4796C105.343 17.7918 105.458 18.0443 105.688 18.2372C105.928 18.4208 106.245 18.5127 106.641 18.5127Z" fill="#E01A0A"/>
<path d="M68.3606 27.9666C68.3606 28.0125 68.3422 28.0538 68.3053 28.0906C68.2777 28.1181 68.2409 28.1319 68.1948 28.1319H63.4848C63.4387 28.1319 63.4157 28.1548 63.4157 28.2008V30.7766C63.4157 30.8225 63.4387 30.8455 63.4848 30.8455H66.6478C66.6939 30.8455 66.7307 30.8638 66.7583 30.9006C66.7952 30.9281 66.8136 30.9648 66.8136 31.0108V32.0576C66.8136 32.1035 66.7952 32.1449 66.7583 32.1816C66.7307 32.2092 66.6939 32.2229 66.6478 32.2229H63.4848C63.4387 32.2229 63.4157 32.2459 63.4157 32.2918V34.9503C63.4157 34.9962 63.4387 35.0192 63.4848 35.0192H68.1948C68.2409 35.0192 68.2777 35.0375 68.3053 35.0743C68.3422 35.1018 68.3606 35.1385 68.3606 35.1845V36.2313C68.3606 36.2772 68.3422 36.3186 68.3053 36.3553C68.2777 36.3828 68.2409 36.3966 68.1948 36.3966H61.9792C61.9332 36.3966 61.8917 36.3828 61.8549 36.3553C61.8273 36.3186 61.8135 36.2772 61.8135 36.2313V26.9197C61.8135 26.8738 61.8273 26.8371 61.8549 26.8095C61.8917 26.7728 61.9332 26.7544 61.9792 26.7544H68.1948C68.2409 26.7544 68.2777 26.7728 68.3053 26.8095C68.3422 26.8371 68.3606 26.8738 68.3606 26.9197V27.9666Z" fill="#E01A0A"/>
<path d="M69.1545 36.3966C69.09 36.3966 69.044 36.3782 69.0163 36.3415C68.9979 36.2956 69.0071 36.2451 69.044 36.19L71.2816 32.9117C71.3 32.8841 71.3 32.8566 71.2816 32.829L69.044 29.5644C69.0256 29.5277 69.0163 29.4956 69.0163 29.468C69.0163 29.3946 69.0624 29.3578 69.1545 29.3578H70.5081C70.591 29.3578 70.6554 29.3946 70.7015 29.468L72.138 31.5893C72.1564 31.6077 72.1748 31.6168 72.1932 31.6168C72.2116 31.6168 72.2254 31.6077 72.2347 31.5893L73.6712 29.468C73.7172 29.3946 73.7817 29.3578 73.8645 29.3578H75.3148C75.3793 29.3578 75.4207 29.3808 75.4391 29.4267C75.4668 29.4634 75.4622 29.5093 75.4253 29.5644L73.1877 32.829C73.1785 32.8566 73.1785 32.8841 73.1877 32.9117L75.4253 36.19C75.4438 36.2267 75.453 36.2589 75.453 36.2864C75.453 36.3599 75.4069 36.3966 75.3148 36.3966H73.9612C73.8783 36.3966 73.8139 36.3599 73.7678 36.2864L72.3313 34.1651C72.3221 34.1468 72.3083 34.1376 72.2899 34.1376C72.2715 34.1376 72.2531 34.1468 72.2347 34.1651L70.7982 36.2864C70.7521 36.3599 70.6877 36.3966 70.6048 36.3966H69.1545Z" fill="#E01A0A"/>
<path d="M82.322 31.1761C82.4877 31.6444 82.5706 32.2183 82.5706 32.8979C82.5706 33.5499 82.4923 34.11 82.3358 34.5784C82.1332 35.1845 81.8063 35.6574 81.3551 35.9972C80.9131 36.3369 80.3514 36.5068 79.67 36.5068C79.0162 36.5068 78.4913 36.2726 78.0953 35.8043C78.0769 35.7859 78.0585 35.7814 78.0401 35.7905C78.0217 35.7997 78.0125 35.8181 78.0125 35.8456V38.8347C78.0125 38.8806 77.994 38.9174 77.9572 38.9449C77.9296 38.9816 77.8928 39 77.8467 39H76.576C76.5299 39 76.4885 38.9816 76.4517 38.9449C76.424 38.9174 76.4102 38.8806 76.4102 38.8347V29.5231C76.4102 29.4772 76.424 29.4405 76.4517 29.4129C76.4885 29.3762 76.5299 29.3578 76.576 29.3578H77.8467C77.8928 29.3578 77.9296 29.3762 77.9572 29.4129C77.994 29.4405 78.0125 29.4772 78.0125 29.5231V29.9364C78.0125 29.9639 78.0217 29.9823 78.0401 29.9915C78.0585 30.0006 78.0769 29.9914 78.0953 29.9639C78.5005 29.4864 79.03 29.2476 79.6838 29.2476C80.3376 29.2476 80.8901 29.4175 81.3413 29.7573C81.7925 30.0971 82.1194 30.57 82.322 31.1761ZM80.5263 34.5508C80.8026 34.1284 80.9407 33.5682 80.9407 32.8703C80.9407 32.2 80.8302 31.6719 80.6092 31.2863C80.3514 30.8363 79.96 30.6113 79.4352 30.6113C78.9563 30.6113 78.5972 30.8317 78.3578 31.2725C78.146 31.6306 78.0401 32.1632 78.0401 32.8703C78.0401 33.5958 78.1552 34.1468 78.3854 34.5233C78.6248 34.9273 78.9701 35.1294 79.4213 35.1294C79.9094 35.1294 80.2777 34.9365 80.5263 34.5508Z" fill="#E01A0A"/>
<path d="M89.7151 32.0852C89.7519 32.3148 89.7703 32.5719 89.7703 32.8566L89.7565 33.2836C89.7565 33.3938 89.7013 33.4489 89.5908 33.4489H85.2675C85.2214 33.4489 85.1984 33.4718 85.1984 33.5177C85.226 33.8208 85.2675 34.0274 85.3227 34.1376C85.5437 34.7988 86.0824 35.1339 86.9388 35.1431C87.5649 35.1431 88.0622 34.886 88.4305 34.3718C88.4673 34.3167 88.5134 34.2891 88.5686 34.2891C88.6055 34.2891 88.6377 34.3029 88.6653 34.3304L89.5217 35.0329C89.6046 35.0972 89.6184 35.1707 89.5631 35.2533C89.2777 35.6574 88.8955 35.9696 88.4167 36.19C87.9471 36.4104 87.4222 36.5206 86.8421 36.5206C86.1238 36.5206 85.5115 36.3599 85.005 36.0385C84.5078 35.7171 84.144 35.2671 83.9138 34.6886C83.702 34.1927 83.5961 33.504 83.5961 32.6224C83.5961 32.0898 83.6514 31.6582 83.7619 31.3276C83.9461 30.6848 84.2914 30.1797 84.7978 29.8124C85.3135 29.4359 85.9305 29.2476 86.6487 29.2476C88.4627 29.2476 89.4849 30.1935 89.7151 32.0852ZM86.6487 30.6251C86.308 30.6251 86.0225 30.7123 85.7923 30.8868C85.5713 31.0521 85.4148 31.2863 85.3227 31.5893C85.2675 31.7454 85.2306 31.9474 85.2122 32.1954C85.1938 32.2413 85.2122 32.2642 85.2675 32.2642H88.0714C88.1174 32.2642 88.1405 32.2413 88.1405 32.1954C88.122 31.9658 88.0944 31.7913 88.0576 31.6719C87.9747 31.3414 87.809 31.0842 87.5603 30.9006C87.3209 30.7169 87.017 30.6251 86.6487 30.6251Z" fill="#E01A0A"/>
<path d="M94.2137 29.2752C94.5084 29.2752 94.7662 29.3349 94.9872 29.4542C95.0609 29.491 95.0885 29.5598 95.0701 29.6609L94.8353 30.9006C94.8261 31.0108 94.7616 31.0429 94.6419 30.997C94.5038 30.9511 94.3426 30.9281 94.1585 30.9281C94.0388 30.9281 93.9467 30.9327 93.8822 30.9419C93.4955 30.9603 93.1732 31.098 92.9153 31.3551C92.6575 31.6031 92.5286 31.9291 92.5286 32.3331V36.2313C92.5286 36.2772 92.5102 36.3186 92.4733 36.3553C92.4457 36.3828 92.4089 36.3966 92.3628 36.3966H91.0921C91.0461 36.3966 91.0046 36.3828 90.9678 36.3553C90.9402 36.3186 90.9264 36.2772 90.9264 36.2313V29.5231C90.9264 29.4772 90.9402 29.4405 90.9678 29.4129C91.0046 29.3762 91.0461 29.3578 91.0921 29.3578H92.3628C92.4089 29.3578 92.4457 29.3762 92.4733 29.4129C92.5102 29.4405 92.5286 29.4772 92.5286 29.5231V30.143C92.5286 30.1797 92.5332 30.2027 92.5424 30.2118C92.5608 30.2118 92.5792 30.1981 92.5977 30.1705C92.9844 29.5736 93.5231 29.2752 94.2137 29.2752Z" fill="#E01A0A"/>
<path d="M96.7228 28.3936C96.4374 28.3936 96.2026 28.3018 96.0184 28.1181C95.8342 27.9345 95.7421 27.7003 95.7421 27.4156C95.7421 27.1309 95.8342 26.8968 96.0184 26.7131C96.2026 26.5294 96.4374 26.4376 96.7228 26.4376C97.0083 26.4376 97.2431 26.5294 97.4273 26.7131C97.6114 26.8968 97.7035 27.1309 97.7035 27.4156C97.7035 27.7003 97.6114 27.9345 97.4273 28.1181C97.2431 28.3018 97.0083 28.3936 96.7228 28.3936ZM96.0598 36.3966C96.0138 36.3966 95.9724 36.3828 95.9355 36.3553C95.9079 36.3186 95.8941 36.2772 95.8941 36.2313V29.5093C95.8941 29.4634 95.9079 29.4267 95.9355 29.3991C95.9724 29.3624 96.0138 29.344 96.0598 29.344H97.3306C97.3766 29.344 97.4135 29.3624 97.4411 29.3991C97.4779 29.4267 97.4963 29.4634 97.4963 29.5093V36.2313C97.4963 36.2772 97.4779 36.3186 97.4411 36.3553C97.4135 36.3828 97.3766 36.3966 97.3306 36.3966H96.0598Z" fill="#E01A0A"/>
<path d="M104.977 32.0852C105.013 32.3148 105.032 32.5719 105.032 32.8566L105.018 33.2836C105.018 33.3938 104.963 33.4489 104.852 33.4489H100.529C100.483 33.4489 100.46 33.4718 100.46 33.5177C100.488 33.8208 100.529 34.0274 100.584 34.1376C100.805 34.7988 101.344 35.1339 102.2 35.1431C102.826 35.1431 103.324 34.886 103.692 34.3718C103.729 34.3167 103.775 34.2891 103.83 34.2891C103.867 34.2891 103.899 34.3029 103.927 34.3304L104.783 35.0329C104.866 35.0972 104.88 35.1707 104.825 35.2533C104.539 35.6574 104.157 35.9696 103.678 36.19C103.209 36.4104 102.684 36.5206 102.104 36.5206C101.385 36.5206 100.773 36.3599 100.267 36.0385C99.7693 35.7171 99.4056 35.2671 99.1754 34.6886C98.9636 34.1927 98.8577 33.504 98.8577 32.6224C98.8577 32.0898 98.913 31.6582 99.0235 31.3276C99.2076 30.6848 99.5529 30.1797 100.059 29.8124C100.575 29.4359 101.192 29.2476 101.91 29.2476C103.724 29.2476 104.746 30.1935 104.977 32.0852ZM101.91 30.6251C101.57 30.6251 101.284 30.7123 101.054 30.8868C100.833 31.0521 100.676 31.2863 100.584 31.5893C100.529 31.7454 100.492 31.9474 100.474 32.1954C100.455 32.2413 100.474 32.2642 100.529 32.2642H103.333C103.379 32.2642 103.402 32.2413 103.402 32.1954C103.384 31.9658 103.356 31.7913 103.319 31.6719C103.236 31.3414 103.071 31.0842 102.822 30.9006C102.582 30.7169 102.279 30.6251 101.91 30.6251Z" fill="#E01A0A"/>
<path d="M109.572 29.2476C110.318 29.2476 110.912 29.468 111.354 29.9088C111.805 30.3496 112.031 30.9511 112.031 31.7133V36.2313C112.031 36.2772 112.012 36.3186 111.975 36.3553C111.948 36.3828 111.911 36.3966 111.865 36.3966H110.594C110.548 36.3966 110.507 36.3828 110.47 36.3553C110.442 36.3186 110.428 36.2772 110.428 36.2313V32.0439C110.428 31.6214 110.309 31.2817 110.069 31.0245C109.83 30.7582 109.512 30.6251 109.116 30.6251C108.72 30.6251 108.398 30.7536 108.149 31.0108C107.91 31.2679 107.79 31.6077 107.79 32.0301V36.2313C107.79 36.2772 107.772 36.3186 107.735 36.3553C107.707 36.3828 107.67 36.3966 107.624 36.3966H106.354C106.308 36.3966 106.266 36.3828 106.229 36.3553C106.202 36.3186 106.188 36.2772 106.188 36.2313V29.5231C106.188 29.4772 106.202 29.4405 106.229 29.4129C106.266 29.3762 106.308 29.3578 106.354 29.3578H107.624C107.67 29.3578 107.707 29.3762 107.735 29.4129C107.772 29.4405 107.79 29.4772 107.79 29.5231V29.9639C107.79 29.9914 107.799 30.0098 107.818 30.019C107.836 30.0282 107.85 30.019 107.859 29.9915C108.237 29.4956 108.808 29.2476 109.572 29.2476Z" fill="#E01A0A"/>
<path d="M116.281 36.5068C115.572 36.5068 114.96 36.3277 114.444 35.9696C113.928 35.6023 113.569 35.111 113.367 34.4957C113.219 34.0825 113.146 33.5315 113.146 32.8428C113.146 32.1816 113.219 31.6398 113.367 31.2174C113.56 30.6113 113.914 30.1338 114.43 29.7848C114.955 29.4267 115.572 29.2476 116.281 29.2476C116.999 29.2476 117.625 29.4267 118.159 29.7848C118.694 30.143 119.048 30.5929 119.223 31.1347C119.269 31.2817 119.301 31.4286 119.32 31.5755V31.6031C119.32 31.6949 119.269 31.75 119.168 31.7684L117.925 31.9474H117.897C117.814 31.9474 117.759 31.9015 117.731 31.8097C117.731 31.7638 117.727 31.727 117.717 31.6995C117.699 31.626 117.681 31.5617 117.662 31.5066C117.579 31.2495 117.414 31.0383 117.165 30.873C116.916 30.7077 116.622 30.6251 116.281 30.6251C115.931 30.6251 115.632 30.7169 115.383 30.9006C115.144 31.075 114.983 31.3184 114.9 31.6306C114.808 31.9245 114.762 32.3331 114.762 32.8566C114.762 33.3616 114.803 33.7703 114.886 34.0825C114.978 34.4039 115.144 34.661 115.383 34.8539C115.623 35.0375 115.922 35.1294 116.281 35.1294C116.631 35.1294 116.93 35.0421 117.179 34.8676C117.437 34.684 117.602 34.4406 117.676 34.1376C117.685 34.1192 117.69 34.0963 117.69 34.0687C117.699 34.0595 117.704 34.0458 117.704 34.0274C117.731 33.9172 117.796 33.8713 117.897 33.8896L119.14 34.0825C119.186 34.0917 119.223 34.1146 119.251 34.1514C119.287 34.1789 119.301 34.2202 119.292 34.2753C119.264 34.4223 119.241 34.5279 119.223 34.5921C119.048 35.1799 118.694 35.6482 118.159 35.9972C117.625 36.3369 116.999 36.5068 116.281 36.5068Z" fill="#E01A0A"/>
<path d="M126.254 32.0852C126.291 32.3148 126.309 32.5719 126.309 32.8566L126.296 33.2836C126.296 33.3938 126.24 33.4489 126.13 33.4489H121.807C121.761 33.4489 121.737 33.4718 121.737 33.5177C121.765 33.8208 121.807 34.0274 121.862 34.1376C122.083 34.7988 122.621 35.1339 123.478 35.1431C124.104 35.1431 124.601 34.886 124.97 34.3718C125.006 34.3167 125.052 34.2891 125.108 34.2891C125.145 34.2891 125.177 34.3029 125.204 34.3304L126.061 35.0329C126.144 35.0972 126.157 35.1707 126.102 35.2533C125.817 35.6574 125.435 35.9696 124.956 36.19C124.486 36.4104 123.961 36.5206 123.381 36.5206C122.663 36.5206 122.051 36.3599 121.544 36.0385C121.047 35.7171 120.683 35.2671 120.453 34.6886C120.241 34.1927 120.135 33.504 120.135 32.6224C120.135 32.0898 120.191 31.6582 120.301 31.3276C120.485 30.6848 120.83 30.1797 121.337 29.8124C121.853 29.4359 122.47 29.2476 123.188 29.2476C125.002 29.2476 126.024 30.1935 126.254 32.0852ZM123.188 30.6251C122.847 30.6251 122.562 30.7123 122.331 30.8868C122.11 31.0521 121.954 31.2863 121.862 31.5893C121.807 31.7454 121.77 31.9474 121.751 32.1954C121.733 32.2413 121.751 32.2642 121.807 32.2642H124.61C124.657 32.2642 124.68 32.2413 124.68 32.1954C124.661 31.9658 124.634 31.7913 124.597 31.6719C124.514 31.3414 124.348 31.0842 124.099 30.9006C123.86 30.7169 123.556 30.6251 123.188 30.6251Z" fill="#E01A0A"/>
<path d="M129.982 36.4793C129.402 36.4793 128.891 36.3966 128.449 36.2313C128.016 36.0568 127.68 35.8227 127.44 35.5288C127.201 35.2258 127.081 34.8906 127.081 34.5233V34.3993C127.081 34.3534 127.095 34.3167 127.123 34.2891C127.16 34.2524 127.201 34.234 127.247 34.234H128.463C128.509 34.234 128.545 34.2524 128.573 34.2891C128.61 34.3167 128.628 34.3534 128.628 34.3993V34.4269C128.628 34.6564 128.753 34.8585 129.001 35.0329C129.259 35.1982 129.581 35.2809 129.968 35.2809C130.336 35.2809 130.636 35.2074 130.866 35.0605C131.096 34.9044 131.211 34.7115 131.211 34.482C131.211 34.2707 131.115 34.1146 130.921 34.0136C130.737 33.9034 130.433 33.7886 130.01 33.6693L129.485 33.504C129.015 33.3662 128.619 33.2193 128.297 33.0632C127.975 32.9071 127.703 32.6959 127.482 32.4295C127.261 32.1541 127.15 31.8051 127.15 31.3827C127.15 30.7399 127.404 30.2302 127.91 29.8537C128.416 29.468 129.084 29.2752 129.913 29.2752C130.475 29.2752 130.967 29.367 131.391 29.5507C131.814 29.7251 132.141 29.9731 132.371 30.2945C132.602 30.6067 132.717 30.9649 132.717 31.3689C132.717 31.4148 132.698 31.4561 132.662 31.4929C132.634 31.5204 132.597 31.5342 132.551 31.5342H131.377C131.331 31.5342 131.289 31.5204 131.253 31.4929C131.225 31.4561 131.211 31.4148 131.211 31.3689C131.211 31.1301 131.092 30.9327 130.852 30.7766C130.622 30.6113 130.304 30.5287 129.899 30.5287C129.54 30.5287 129.245 30.5975 129.015 30.7353C128.794 30.8638 128.684 31.0475 128.684 31.2863C128.684 31.5067 128.789 31.6765 129.001 31.7959C129.222 31.9061 129.586 32.0301 130.092 32.1678L130.396 32.2505C130.884 32.3974 131.294 32.5489 131.626 32.705C131.957 32.852 132.238 33.0632 132.468 33.3387C132.698 33.605 132.813 33.9539 132.813 34.3855C132.813 35.0375 132.556 35.5518 132.04 35.9283C131.524 36.2956 130.838 36.4793 129.982 36.4793Z" fill="#E01A0A"/>
<path d="M39.6387 20.4409C39.7546 18.2618 39.8405 16.1686 39.9876 14.0798C40.0801 12.7706 41.332 11.8651 42.7232 12.1149C43.3096 12.2197 43.6909 12.0257 44.0554 11.6498C44.5604 11.1291 45.0575 10.6161 45.7554 10.3295C47.141 9.7596 48.0039 10.5268 47.9938 11.9944C47.9849 13.2513 47.8221 14.5047 47.9136 15.7627C47.9648 16.4597 47.8166 17.1611 48.0574 17.857C48.2446 18.3979 48.4453 18.583 48.9904 18.3611C49.608 18.1101 50.2033 17.8012 50.793 17.4879C51.3938 17.1689 52.0014 16.9459 52.7037 17.0083C53.6758 17.0964 54.0916 17.8994 53.6167 18.7402C53.1239 19.6123 52.3626 20.1063 51.444 20.3606C48.6983 21.1223 46.2046 22.4438 43.7243 23.7909C41.147 25.1905 38.5674 26.5945 36.1228 28.2182C35.105 28.894 34.0036 29.4483 33.0873 30.2813C32.842 30.5044 32.7484 30.7263 32.7272 31.0441C32.5845 33.1005 32.648 35.1603 32.6113 37.2189C32.5867 38.5951 32.4452 39.9768 32.5979 41.3451C32.6949 42.2094 32.6938 43.1094 33.0683 43.929C33.1341 44.074 33.1564 44.2179 33.0672 44.3539C32.9022 44.606 33.0549 44.7866 33.1196 45.0342C33.2901 45.681 33.5332 46.3947 33.2099 47.0438C32.9056 47.6549 32.356 48.0151 31.628 47.9995C30.9179 47.9839 30.3684 47.5389 30.151 46.8598C29.8132 45.8037 29.9592 44.7264 29.9815 43.6547C30.0094 42.2674 30.064 40.8801 30.0964 39.4939C30.1443 37.4342 30.1187 35.3755 30.1577 33.318C30.1599 33.1697 30.1554 33.0214 30.1577 32.8719C30.1655 32.4738 30.0038 32.4013 29.695 32.6355C28.8389 33.2868 27.9716 33.9258 27.1333 34.6005C25.168 36.1829 23.1603 37.7197 21.2775 39.3947C19.602 40.8846 18.038 42.5027 16.5164 44.1554C15.8497 44.8792 15.1552 45.5773 14.4418 46.2553C13.9647 46.7092 12.9502 46.6267 12.4419 46.1471C11.9436 45.6777 11.8823 44.8435 12.3293 44.2747C13.123 43.2644 14.0862 42.4191 15.007 41.528C16.4762 40.1062 18.0703 38.8326 19.621 37.5067C21.681 35.7447 23.8035 34.0641 26.0041 32.4794C27.2994 31.5471 28.5803 30.5925 29.8634 29.6446C30.1242 29.4516 30.2914 28.6041 30.1198 28.3643C29.9548 28.1346 29.8322 28.3554 29.7073 28.4268C28.7966 28.9487 27.8234 29.2152 26.7788 29.0479C25.994 28.923 25.4055 28.3052 25.3887 27.5212C25.3497 25.728 25.1903 23.9292 25.5916 22.1494C25.9461 20.5758 26.6194 19.212 27.975 18.2585C28.3629 17.9852 28.7832 17.7912 29.2648 17.7968C29.743 17.8024 29.9793 18.0856 29.9124 18.5585C29.8578 18.9499 29.7129 19.3001 29.4543 19.6157C28.597 20.6595 28.0686 21.8137 28.0775 23.2144C28.082 23.927 27.8668 24.6429 27.9382 25.37C27.975 25.7392 27.9683 26.1596 28.3897 26.3124C28.7887 26.4562 29.1488 26.2733 29.4699 26.0213C29.8901 25.6901 30.0752 25.244 30.1566 24.7288C30.5122 22.4728 30.6326 20.1944 30.8254 17.9239C30.9079 16.9526 31.5924 16.356 32.5377 16.4597C33.0549 16.5165 33.3537 16.8043 33.3916 17.3217C33.425 17.7845 33.3849 18.2462 33.3448 18.7101C33.1686 20.7409 32.9914 22.7728 32.8688 24.8069C32.8186 25.6366 32.8888 26.4741 32.7662 27.3027C32.7506 27.4086 32.7294 27.5435 32.8643 27.5904C33.0048 27.6383 33.1062 27.5212 33.2121 27.4554C34.25 26.8042 35.2677 26.1194 36.3256 25.5016C38.9542 23.9682 41.6018 22.465 44.2415 20.9494C44.6763 20.6996 45.1111 20.4509 45.5469 20.2034C45.7509 20.0874 45.8178 19.9636 45.5993 19.7863C45.2649 19.5142 45.2036 19.1384 45.2069 18.7324C45.2158 17.6585 45.2069 16.5823 45.3139 15.5129C45.3842 14.8114 45.1021 14.12 45.2905 13.4096C45.3585 13.1509 45.1233 13.0238 44.8669 13.0148C44.3976 12.9992 44.0821 13.268 43.7622 13.5713C42.9908 14.3051 42.8503 15.2753 42.682 16.2489C42.4713 17.4667 42.4958 18.6967 42.4312 19.9223C42.381 20.8702 41.7946 21.4412 40.9441 21.7434C40.2139 22.0022 39.6911 21.6275 39.6432 20.8513C39.6298 20.6885 39.6387 20.5212 39.6387 20.4409Z" fill="#E01A0A"/>
<path d="M8.61164 32.3378C8.80114 31.0754 8.98731 29.8119 9.17905 28.5495C9.86574 24.0274 10.9705 19.6012 12.2045 15.2029C13.404 10.9272 15.0705 6.81553 16.6268 2.66591C16.9656 1.76149 17.4294 0.911713 18.2632 0.330699C19.4449 -0.493426 21.195 0.313972 21.3656 1.74588C21.4849 2.74732 21.0903 3.5681 20.4036 4.17922C19.3323 5.13159 18.5731 6.28135 18.028 7.56494C16.9913 10.0039 15.881 12.4216 15.2612 15.0122C14.9646 16.2512 14.3638 17.4087 14.3081 18.7157C14.2891 19.154 13.9703 19.5287 13.7908 19.9257C13.1721 21.2996 12.9146 22.7616 12.6069 24.2103C12.2391 25.9433 11.928 27.6874 11.6025 29.4294C11.529 29.8241 11.4197 30.2144 11.6037 30.6282C11.7096 30.868 11.597 31.1568 11.4755 31.3776C11.2804 31.7322 11.1834 32.1036 11.1912 32.495C11.2168 33.7184 10.7453 34.8615 10.645 36.0703C10.4889 37.955 10.218 39.8296 9.88135 41.692C9.81892 42.0388 9.75872 42.3901 9.57144 42.6979C9.29164 43.1562 8.86357 43.3681 8.34632 43.2956C7.86921 43.2287 7.54927 42.9276 7.4233 42.4436C7.02087 40.8957 6.80573 39.3133 6.54822 37.7386C6.04769 34.6886 5.55831 31.6352 5.11798 28.5762C4.94073 27.3473 4.75903 26.1228 4.50486 24.9084C4.45804 24.6865 4.40565 24.4177 4.16709 24.3865C3.94191 24.3564 3.86053 24.634 3.77915 24.8058C3.60637 25.1738 3.43915 25.5518 3.33548 25.9433C3.07351 26.9358 2.66105 27.8692 2.25639 28.806C1.98997 29.4238 1.24196 29.7561 0.696844 29.5275C0.080382 29.2677 -0.144799 28.7201 0.0926446 28.0086C1.17396 24.7712 2.25639 21.5338 3.34663 18.2986C3.5863 17.5872 4.06788 17.237 4.74788 17.237C5.44795 17.237 5.90835 17.547 6.08559 18.3354C6.35759 19.5465 6.57386 20.7744 6.74664 22.0033C7.06101 24.2437 7.66632 26.4284 8.01412 28.6576C8.15681 29.5688 8.27944 30.5011 8.32626 31.4345C8.34186 31.7411 8.4199 32.0445 8.47006 32.3489C8.51577 32.3445 8.5637 32.3411 8.61164 32.3378Z" fill="#E01A0A"/>
<path d="M19.0178 30.191C19.0368 27.8758 19.3344 25.5785 19.4827 23.2712C19.5429 22.3445 20.195 21.6386 21.1169 21.4613C21.856 21.3196 22.5438 21.0743 23.216 20.7553C23.6619 20.5434 24.1111 20.4487 24.4645 20.9226C24.8056 21.3787 24.799 22.0579 24.421 22.4672C24.1713 22.7381 23.8915 22.9958 23.5828 23.1943C22.4379 23.9336 22.1603 25.118 22.0589 26.3235C21.973 27.335 21.973 28.3587 21.9206 29.3758C21.8694 30.385 21.4134 31.1043 20.4681 31.4846C19.6086 31.8303 19.0858 31.4991 19.0178 30.5802C19.01 30.4508 19.0178 30.3203 19.0178 30.191Z" fill="#E01A0A"/>
<path d="M13.9838 32.8418C14.1388 30.617 14.2726 28.3442 14.4665 26.0759C14.5457 25.1514 14.9893 24.3775 15.812 23.8801C16.1643 23.6671 16.5511 23.472 16.9636 23.6972C17.3805 23.9247 17.4028 24.3541 17.4095 24.7667C17.4374 26.512 17.0505 28.2149 16.8733 29.9401C16.7674 30.9694 16.6983 32.0021 16.6147 33.0336C16.6091 33.1061 16.6336 33.1864 16.6124 33.2533C16.5099 33.5778 15.054 34.4399 14.7118 34.3752C14.3216 34.3016 14.0853 34.0562 14.0284 33.667C13.9905 33.4105 13.9983 33.1485 13.9838 32.8418Z" fill="#E01A0A"/>
<path d="M36.253 36.9925C36.3121 37.8189 36.0869 38.2371 35.5618 38.2739C35.0446 38.3107 34.8127 37.9527 34.8462 37.0338C34.8863 35.9253 34.9654 34.8168 35.0379 33.7094C35.0591 33.3882 35.1304 33.0648 34.6154 33.3235C34.4148 33.4239 34.2063 33.3436 34.0681 33.1674C33.8997 32.9522 33.893 32.6801 34.0636 32.4961C34.582 31.9362 35.0535 31.3519 35.4069 30.6683C35.5228 30.4441 35.8004 30.4631 36.0156 30.5233C36.3778 30.6248 36.7067 30.5746 37.0411 30.4229C37.2786 30.3148 37.5361 30.2746 37.8003 30.2702C38.6074 30.2545 39.0042 30.724 38.827 31.5169C38.7422 31.8972 38.6464 32.292 38.4123 32.602C37.9798 33.1741 37.8683 33.8945 37.4792 34.4856C37.283 34.7833 37.5283 34.8803 37.7635 34.9227C38.3097 35.0209 38.8459 35.1848 39.4089 35.1826C39.556 35.1814 39.7065 35.2015 39.8481 35.2383C40.343 35.3643 40.6017 35.7089 40.5158 36.1071C40.4289 36.5108 40.0699 36.6847 39.5438 36.5799C38.6352 36.3981 37.7122 36.2665 36.8215 36.0201C36.2363 35.8584 36.2039 36.1405 36.2084 36.5509C36.2095 36.6981 36.2374 36.8453 36.253 36.9925ZM36.3076 33.9492C36.8115 33.2756 37.1582 32.5663 37.5004 31.8548C37.5718 31.7054 37.652 31.5225 37.3689 31.4935C37.0055 31.4556 36.331 31.9563 36.3143 32.3109C36.2898 32.8362 36.3076 33.3637 36.3076 33.9492Z" fill="#E01A0A"/>
<path d="M34.8574 23.1776C35.096 20.7074 35.2654 18.264 35.6578 15.8474C35.7581 15.2274 36.1327 14.7188 36.6901 14.3876C37.3489 13.9951 37.9018 14.2449 38.0412 14.9887C38.0646 15.1159 38.0969 15.2541 38.069 15.3746C37.7491 16.7451 37.8918 18.1481 37.7981 19.532C37.7391 20.4097 37.5696 21.2806 37.6209 22.1739C37.6744 23.0939 36.553 24.0842 35.6255 24.0407C35.1183 24.0173 34.8608 23.7162 34.8574 23.1776Z" fill="#E01A0A"/>
<path d="M43.8781 31.0575C44.0509 29.9602 44.0598 28.7915 44.149 27.6294C44.1635 27.4399 44.1713 27.2648 44.0866 27.0886C43.8558 26.6068 44.0442 26.2734 44.4712 26.0236C45.4421 25.4559 46.5134 25.5217 47.3171 26.1998C48.1766 26.9258 48.3115 27.8358 48.0529 28.961C47.6716 30.6126 46.393 31.3174 45.1155 32.0378C44.3775 32.4549 43.848 32.0233 43.8781 31.0575ZM45.2069 29.7182C45.2069 29.8966 45.2169 30.1375 45.2047 30.3762C45.1891 30.6918 45.3373 30.6973 45.5268 30.5367C46.3272 29.8587 46.9571 29.0848 46.8768 27.9473C46.84 27.4309 46.5524 27.0908 46.0775 26.9213C45.6617 26.773 45.3764 26.9548 45.344 27.393C45.2849 28.1469 45.2526 28.9019 45.2069 29.7182Z" fill="#E01A0A"/>
<path d="M39.6912 33.4864C39.7481 32.5061 39.806 31.5259 39.8607 30.5456C39.8718 30.3449 39.8763 30.1698 39.7012 29.9914C39.3167 29.5966 39.3479 29.145 39.8105 28.8071C40.6967 28.1603 41.6532 27.6238 42.6476 27.1588C42.8594 27.0596 43.0578 27.0808 43.1748 27.3027C43.3454 27.6261 43.2819 27.9394 42.992 28.1446C42.4781 28.5093 41.9386 28.8394 41.4068 29.1784C41.1961 29.3134 41.0111 29.4583 41.0055 29.7371C41.0033 29.8475 40.9721 29.9713 41.0791 30.0449C41.1872 30.1196 41.2942 30.0538 41.3868 29.9936C41.6677 29.8118 41.9419 29.62 42.2251 29.4427C42.5004 29.2699 42.7847 28.9888 43.0968 29.3725C43.3198 29.6457 43.1537 30.2044 42.7869 30.4297C42.3599 30.6917 41.9218 30.9348 41.4927 31.1925C41.1259 31.4133 40.903 32.4203 41.1382 32.7716C41.2809 32.9846 41.4269 32.8507 41.5674 32.7716C41.8917 32.5909 42.2039 32.3879 42.5383 32.2285C42.9753 32.0199 43.2562 32.2452 43.2005 32.7314C43.1626 33.0604 42.953 33.2634 42.6855 33.415C42.137 33.7262 41.5807 34.025 41.0323 34.3373C40.7357 34.5068 40.4459 34.6841 40.1048 34.4499C39.7648 34.2191 39.6622 33.8745 39.6912 33.4864Z" fill="#E01A0A"/>
<path d="M15.7875 19.7718C15.8075 18.9911 17.0003 17.7566 17.7851 17.7042C18.0727 17.6852 18.2823 17.8057 18.4183 18.06C18.6858 18.5607 18.5911 19.0268 18.2723 19.4606C17.9256 19.9312 17.4618 20.2636 16.9379 20.5145C16.3237 20.81 15.7696 20.4509 15.7875 19.7718Z" fill="#E01A0A"/>
<path d="M37.3302 12.0056C36.6502 11.9911 36.2322 11.4112 36.483 10.7722C36.7817 10.0117 37.367 9.54331 38.1651 9.37826C38.4806 9.31246 38.8017 9.38161 39.0235 9.65371C39.2487 9.93028 39.2375 10.2481 39.0815 10.5447C38.7024 11.2652 38.018 12.0458 37.3302 12.0056Z" fill="#E01A0A"/>
</svg>
