<svg width="140" height="30" viewBox="0 0 140 30" fill="none" xmlns="http://www.w3.org/2000/svg">
<path d="M12.5556 0.563094C13.2593 0.211158 14.037 0.0351903 14.8519 0.0351903C18.4074 0.0351903 21.963 0.0351903 25.5185 0.0351903C25.037 1.02061 24.5556 2.28758 23.2593 2.42835C19.963 2.49874 16.6667 2.42836 13.3333 2.46355C12.5185 2.46355 11.7037 2.85068 11.3704 3.58974C10.6667 4.9271 10.037 6.26445 9.33333 7.60181C12.1481 7.60181 15 7.60181 17.8148 7.60181C17.5556 8.05933 17.3704 8.55204 17 8.93917C16.5185 9.2911 15.8889 9.22072 15.3333 9.25591C13.1481 9.22072 10.963 9.2911 8.74074 9.22072C7.96296 10.6285 7.2963 12.1066 6.51852 13.5143C6.18518 14.183 5.40741 14.6053 4.62963 14.6053C3.07407 14.6053 1.55556 14.6757 0 14.5701V14.4998C0.037037 14.4998 0.0740741 14.5349 0.111111 14.5349C1.44444 11.7898 2.81482 9.11513 4.18519 6.40523C4.85185 5.03268 6 3.94168 7.40741 3.20261C9.11111 2.25239 10.8519 1.40774 12.5556 0.563094ZM27.2963 1.23178C27.6667 0.527904 28.4815 0.0703861 29.2963 0.0703861C30.8148 0.0351925 32.2963 0.0703861 33.8148 0.0703861C31.5926 4.50478 29.3333 8.93917 27.0741 13.3736C26.7778 14.1126 26 14.6053 25.1481 14.6053C23.5926 14.6405 22.037 14.6053 20.4815 14.6053C22.7778 10.1357 25.037 5.66616 27.2963 1.23178ZM39.8519 0.105582C40.3333 -0.140773 40.9259 0.140771 41.1852 0.563094C43.4074 3.44897 45.6296 6.33484 47.8519 9.22072C48.1111 9.53746 48.2963 9.88939 48.4815 10.2413C49.8889 7.56662 51.2222 4.85671 52.5926 2.182C52.963 1.51332 53.1852 0.703871 53.9259 0.351936C54.963 -0.175968 56.1481 0.105577 57.2593 0.0351903C54.7778 4.8919 52.3333 9.71342 49.8518 14.5701C48.5926 14.5701 47.3333 14.6053 46.1111 14.5349C45.3333 14.4998 44.7407 13.9718 44.2963 13.4087C42.5556 11.2267 40.8518 9.04475 39.1111 6.86275C38.7407 6.40523 38.3704 5.94771 38.1111 5.455C36.7037 8.09452 35.4074 10.8044 34.037 13.4791C33.7037 14.0774 33.0741 14.4998 32.3704 14.5349C31.5556 14.5701 30.7407 14.5349 29.9259 14.5349C31.6667 10.9804 33.4444 7.46104 35.2222 3.94168C35.7778 2.78029 36.6667 1.72448 37.8519 1.05581C38.5185 0.739065 39.1481 0.422324 39.8519 0.105582ZM63.9259 0.105582C64.4074 -0.140773 64.963 0.140774 65.2593 0.527903C67.4815 3.41378 69.7037 6.29965 71.9259 9.18552C72.1852 9.50226 72.3704 9.8542 72.5555 10.2061C74.1111 7.21468 75.5926 4.18803 77.1481 1.19658C77.4815 0.527901 78.1852 0.105577 78.9259 0.0351903C79.7407 -0.0351968 80.5185 0.0351936 81.3333 0C78.8889 4.85671 76.4074 9.67823 73.963 14.5349C72.7037 14.4998 71.4445 14.5701 70.1852 14.4998C69.3704 14.4646 68.7407 13.8311 68.2963 13.2328C66.3333 10.734 64.3333 8.27049 62.4074 5.73655C62.3333 5.70136 62.2222 5.59578 62.1482 5.52539C60.8889 8.09452 59.5926 10.6285 58.2963 13.1624C58 13.7959 57.4444 14.359 56.7037 14.4294C55.8148 14.4998 54.963 14.4294 54.0741 14.4646C55.4815 11.4731 57 8.55204 58.4815 5.59578C59.1111 4.43439 59.5926 3.13222 60.5185 2.1468C61.4074 1.23177 62.7037 0.668679 63.9259 0.105582ZM90.2222 0.59829C90.9259 0.246354 91.7037 0.0351925 92.4815 0.0703861C94.1482 0.0703861 95.8519 0.0703861 97.5185 0.0703861C98.7408 0.0703861 99.9259 0.49271 100.889 1.23178C101.963 2.00603 103.074 2.78029 104.148 3.55455C104.63 3.87129 104.667 4.46958 104.407 4.9271C102.778 8.16491 101.148 11.3675 99.5185 14.5701C98.1111 14.5701 96.7408 14.6053 95.3334 14.5701C94.5926 14.6053 93.963 13.7959 94.3333 13.1624C94.9259 11.825 95.6667 10.5581 96.2963 9.25591C93 9.25591 89.7037 9.25591 86.4074 9.25591C85.7037 10.6285 85 12.0362 84.2593 13.4439C83.9259 14.0774 83.2593 14.6053 82.4815 14.6053C80.8889 14.6405 79.2963 14.6053 77.7407 14.6405C79.1111 11.8954 80.5185 9.15033 81.8889 6.40523C82.5555 5.06787 83.7037 3.94168 85.0741 3.20261C86.7778 2.28758 88.5185 1.44294 90.2222 0.59829ZM89.2593 3.58974C88.5556 4.9271 87.9259 6.26445 87.2222 7.60181C90.5185 7.60181 93.8148 7.60181 97.1111 7.60181C97.7778 6.26445 98.4445 4.96229 99.1111 3.66013C99.2222 3.37858 99.4815 3.09703 99.3333 2.78029C99.0741 2.42835 98.5926 2.49874 98.1852 2.46355C95.8519 2.46355 93.5185 2.46355 91.1852 2.46355C90.3704 2.42836 89.5926 2.88587 89.2593 3.58974ZM110 1.68929C110.296 0.87984 111 0.140773 111.963 0.0703861C113.556 -1.07035e-06 115.148 0.0703839 116.778 0.0351903C114.63 4.46958 112.333 8.83358 110.111 13.2328C109.815 13.9367 109.111 14.5349 108.296 14.5701C106.704 14.6053 105.074 14.5701 103.481 14.5701C105.667 10.2765 107.815 5.98291 110 1.68929ZM123.889 1.58371C125.185 1.02061 126.444 0.0703861 127.963 0.0703861C129.704 0.0703861 131.481 0.0351925 133.222 0.0703861C134.815 0.10558 136.185 0.98542 137.37 1.93565C138.222 2.63952 139.296 3.13223 140 4.01206V4.53997C139.593 5.52539 139.111 6.51081 138.593 7.42584C138 8.41126 136.704 8.728 135.593 8.86878C133.741 9.00955 131.889 8.83359 130.037 8.97436C130.074 9.04475 130.185 9.18552 130.259 9.25591C131.333 9.64304 132.852 9.2911 133.481 10.3821C134.37 11.7898 135.259 13.1976 136.185 14.6405C134.37 14.6053 132.593 14.6405 130.778 14.6053C130.074 14.6405 129.444 14.2886 129.111 13.7255C128.296 12.4937 127.556 11.2268 126.741 9.95978C126.444 9.46707 125.963 9.04475 125.333 8.97436C124.296 8.86878 123.259 8.97436 122.222 8.93917C121.444 10.3821 120.741 11.825 120 13.268C119.667 13.9718 119 14.5701 118.148 14.5701C116.556 14.6053 114.963 14.5701 113.407 14.6053C114.889 11.6843 116.333 8.728 117.852 5.84213C119.074 3.58974 121.704 2.7451 123.889 1.58371ZM124.778 3.48416C124.111 4.75113 123.481 6.0181 122.815 7.28507C125.481 7.28507 128.111 7.28507 130.778 7.28507C131.667 7.28507 132.741 7.1091 133.222 6.29965C133.704 5.41981 134.111 4.53997 134.556 3.66013C134.667 3.37858 134.926 3.06184 134.741 2.7451C134.481 2.42836 134 2.46355 133.63 2.46355C131.296 2.46355 128.963 2.46355 126.63 2.46355C125.889 2.46355 125.148 2.81548 124.778 3.48416Z" fill="#0B1560"/>
<path d="M38.4314 22.4821H42.3848V23.3102H39.5235V25.3448H41.9808V26.1116H39.5235V28.3301H42.5814V29.1378H38.4314V22.4821Z" fill="#8A8A8A"/>
<path d="M43.129 22.4821H44.2648L45.6846 26.8886L45.9904 28.4937L46.3071 26.8886L47.7268 22.4821H48.7425L46.4709 29.1378H45.4334L43.129 22.4821Z" fill="#8A8A8A"/>
<path d="M49.741 22.4821H53.6945V23.3102H50.8331V25.3448H53.2904V26.1116H50.8331V28.3301H53.8911V29.1378H49.741V22.4821Z" fill="#8A8A8A"/>
<path d="M55.0708 22.4821H56.2722L58.4673 26.4592L59.2209 28.3915L58.9587 26.1422V22.4821H59.9307V29.1378H58.7731L56.4687 24.9972L55.7916 23.1671L56.0319 25.2937V29.1378H55.0708V22.4821Z" fill="#8A8A8A"/>
<path d="M60.9086 23.3102V22.4821H65.6702V23.3102H63.8355V29.1378H62.7434V23.3102H60.9086Z" fill="#8A8A8A"/>
<path d="M68.33 29.281C67.8058 29.281 67.3798 29.2332 67.0522 29.1378C66.7246 29.0424 66.4443 28.9333 66.2113 28.8107L66.4079 28.0848C66.7136 28.2075 66.9976 28.3097 67.2597 28.3915C67.5291 28.4665 67.8349 28.5039 68.1771 28.5039C68.6503 28.5039 68.9962 28.429 69.2146 28.279C69.4403 28.1291 69.5531 27.8428 69.5531 27.4202C69.5531 27.2566 69.5313 27.1169 69.4876 27.001C69.4512 26.8784 69.382 26.7761 69.2801 26.6943C69.1855 26.6057 69.0508 26.5273 68.876 26.4592C68.7086 26.391 68.4901 26.3229 68.2208 26.2547C67.9004 26.1729 67.6165 26.0843 67.3689 25.9889C67.1286 25.8935 66.9248 25.7708 66.7573 25.6208C66.5972 25.4709 66.4734 25.2868 66.386 25.0687C66.3059 24.8438 66.2659 24.5678 66.2659 24.2406C66.2659 23.6272 66.4552 23.1603 66.8338 22.8399C67.2124 22.5196 67.7548 22.3594 68.461 22.3594C68.8979 22.3594 69.2546 22.3901 69.5313 22.4514C69.8152 22.5128 70.0737 22.5912 70.3067 22.6866L70.1538 23.4636C70.0155 23.4227 69.8844 23.3852 69.7606 23.3511C69.6369 23.3171 69.5131 23.2898 69.3893 23.2693C69.2655 23.2421 69.1309 23.2216 68.9852 23.208C68.8469 23.1944 68.6831 23.1876 68.4938 23.1876C68.0642 23.1876 67.7548 23.2591 67.5655 23.4023C67.3762 23.5386 67.2815 23.7874 67.2815 24.1486C67.2815 24.319 67.2961 24.4621 67.3252 24.578C67.3616 24.687 67.4272 24.7825 67.5218 24.8643C67.6165 24.9461 67.7475 25.0176 67.915 25.079C68.0897 25.1403 68.3154 25.2085 68.5921 25.2834C68.9052 25.3584 69.1855 25.447 69.433 25.5493C69.6806 25.6447 69.8917 25.7708 70.0664 25.9275C70.2412 26.0775 70.3759 26.2649 70.4705 26.4898C70.5652 26.708 70.6125 26.9772 70.6125 27.2975C70.6125 27.9519 70.4195 28.446 70.0337 28.78C69.6478 29.114 69.0799 29.281 68.33 29.281Z" fill="#8A8A8A"/>
<path d="M77.8526 27.1646C78.0564 26.6807 78.2057 26.0741 78.3003 25.3448H79.174L79.043 26.0604C78.9847 26.3876 78.901 26.7114 78.7918 27.0317C78.6898 27.3452 78.5661 27.6213 78.4205 27.8598L79.447 29.1378H78.2239L77.6014 28.3608L77.3065 28.8822C77.2046 28.9572 77.0408 29.0424 76.8151 29.1378C76.5966 29.2332 76.2908 29.281 75.8977 29.281C75.5628 29.281 75.2533 29.2367 74.9694 29.148C74.6927 29.0663 74.4524 28.9436 74.2486 28.78C74.0447 28.6096 73.8882 28.4051 73.779 28.1666C73.6698 27.9212 73.6152 27.6417 73.6152 27.3282C73.6152 27.0351 73.6588 26.7829 73.7462 26.5716C73.8336 26.3535 73.9501 26.1661 74.0957 26.0093C74.2413 25.8526 74.4051 25.7162 74.5871 25.6004C74.7692 25.4845 74.9548 25.3823 75.1441 25.2937L75.1223 25.2732C74.8456 24.9256 74.6563 24.6189 74.5544 24.3531C74.4597 24.0804 74.4124 23.801 74.4124 23.5147C74.4124 23.2693 74.4597 23.0512 74.5544 22.8604C74.649 22.6627 74.7764 22.4991 74.9366 22.3696C75.0968 22.2333 75.2861 22.1311 75.5045 22.0629C75.7302 21.9948 75.9668 21.9607 76.2144 21.9607C76.4328 21.9607 76.644 21.9914 76.8478 22.0527C77.059 22.1141 77.241 22.2095 77.3939 22.339C77.554 22.4617 77.6815 22.6184 77.7761 22.8093C77.878 22.9933 77.929 23.2114 77.929 23.4636C77.929 23.7976 77.878 24.0634 77.7761 24.2611C77.6742 24.4519 77.554 24.6257 77.4157 24.7825L76.3236 25.2732L77.8526 27.1646ZM76.0943 24.9972C76.3855 24.8472 76.6148 24.67 76.7823 24.4655C76.957 24.2611 77.0444 23.9714 77.0444 23.5965C77.0444 23.2625 76.9679 23.0342 76.8151 22.9115C76.6694 22.7888 76.4801 22.7275 76.2472 22.7275C76.0142 22.7275 75.8176 22.7888 75.6574 22.9115C75.4972 23.0274 75.4171 23.2284 75.4171 23.5147C75.4171 23.6374 75.4244 23.7499 75.439 23.8521C75.4536 23.9543 75.479 24.0566 75.5154 24.1588C75.5591 24.2542 75.6174 24.3565 75.6902 24.4655C75.763 24.5746 75.854 24.6973 75.9632 24.8336L76.0943 24.9972ZM75.5154 25.7537C75.2388 25.9241 75.0349 26.1184 74.9039 26.3365C74.7728 26.5478 74.7073 26.8272 74.7073 27.1748V27.3078C74.7073 27.7508 74.8165 28.0711 75.0349 28.2688C75.2606 28.4596 75.581 28.5551 75.996 28.5551C76.5275 28.5551 76.9716 28.3744 77.3283 28.0132L75.5154 25.7537Z" fill="#8A8A8A"/>
<path d="M82.771 22.4821H86.7245V23.3102H83.8632V25.3448H86.3204V26.1116H83.8632V28.3301H86.9211V29.1378H82.771V22.4821Z" fill="#8A8A8A"/>
<path d="M89.466 25.7128L87.5766 22.4821H88.7889L89.8045 24.3019L90.2414 25.3755L90.6127 24.3019L91.5847 22.4821H92.6003L90.7328 25.7026L92.7314 29.1378H91.5191L90.427 27.1748L89.9465 26.0911L89.5752 27.1748L88.5049 29.1378H87.4892L89.466 25.7128Z" fill="#8A8A8A"/>
<path d="M93.7074 22.4821H95.979C96.7872 22.4821 97.3878 22.6764 97.781 23.0649C98.1814 23.4466 98.3816 23.9612 98.3816 24.6087C98.3816 24.9222 98.3307 25.2119 98.2287 25.4777C98.1341 25.7367 97.9885 25.9616 97.7919 26.1525C97.5953 26.3433 97.3441 26.4933 97.0383 26.6023C96.7398 26.7114 96.3867 26.7659 95.979 26.7659H94.7995V29.1378H93.7074V22.4821ZM95.9025 26.04C96.3831 26.04 96.7216 25.9378 96.9182 25.7333C97.1221 25.5288 97.224 25.1812 97.224 24.6905V24.5371C97.224 24.06 97.1221 23.7328 96.9182 23.5556C96.7144 23.3716 96.3685 23.2796 95.8807 23.2796H94.7995V26.04H95.9025Z" fill="#8A8A8A"/>
<path d="M99.4635 22.4821H103.417V23.3102H100.556V25.3448H103.013V26.1116H100.556V28.3301H103.614V29.1378H99.4635V22.4821Z" fill="#8A8A8A"/>
<path d="M108.343 26.8681L109.642 29.1378H108.474L106.999 26.4796H105.875V29.1378H104.782V22.4821H107.054C107.869 22.4821 108.477 22.6593 108.878 23.0137C109.278 23.3614 109.478 23.8555 109.478 24.4962C109.478 24.7143 109.449 24.929 109.391 25.1403C109.333 25.3448 109.235 25.5356 109.096 25.7128C108.958 25.8832 108.772 26.0298 108.539 26.1525C108.314 26.2683 108.03 26.3467 107.687 26.3876L108.343 26.8681ZM106.978 25.7946C107.465 25.7946 107.808 25.7026 108.004 25.5186C108.208 25.3346 108.31 25.0176 108.31 24.5678V24.4144C108.31 24.1963 108.284 24.0157 108.233 23.8725C108.19 23.7226 108.113 23.6033 108.004 23.5147C107.895 23.4261 107.753 23.3648 107.578 23.3307C107.411 23.2966 107.203 23.2796 106.956 23.2796H105.875V25.7946H106.978Z" fill="#8A8A8A"/>
<path d="M110.828 22.4821H111.92V29.1378H110.828V22.4821Z" fill="#8A8A8A"/>
<path d="M113.564 22.4821H117.518V23.3102H114.657V25.3448H117.114V26.1116H114.657V28.3301H117.714V29.1378H113.564V22.4821Z" fill="#8A8A8A"/>
<path d="M118.894 22.4821H120.096L122.291 26.4592L123.044 28.3915L122.782 26.1422V22.4821H123.754V29.1378H122.596L120.292 24.9972L119.615 23.1671L119.855 25.2937V29.1378H118.894V22.4821Z" fill="#8A8A8A"/>
<path d="M127.768 29.281C127.251 29.281 126.811 29.1923 126.447 29.0151C126.09 28.8379 125.799 28.5925 125.573 28.279C125.354 27.9655 125.194 27.5974 125.092 27.1748C124.998 26.7454 124.95 26.2854 124.95 25.7946C124.95 25.3039 125.001 24.8506 125.103 24.4349C125.213 24.0123 125.38 23.6476 125.606 23.3409C125.831 23.0342 126.126 22.7956 126.49 22.6252C126.854 22.448 127.291 22.3594 127.801 22.3594C128.172 22.3594 128.492 22.3935 128.762 22.4617C129.039 22.523 129.301 22.6048 129.548 22.707L129.417 23.5147C129.25 23.467 129.097 23.4261 128.958 23.392C128.82 23.3511 128.685 23.3205 128.554 23.3C128.423 23.2728 128.292 23.2523 128.161 23.2387C128.03 23.225 127.888 23.2182 127.735 23.2182C127.51 23.2182 127.295 23.2523 127.091 23.3205C126.894 23.3886 126.723 23.5147 126.578 23.6987C126.432 23.876 126.316 24.1179 126.228 24.4246C126.148 24.7314 126.108 25.1199 126.108 25.5902V25.9173C126.108 26.4012 126.144 26.8068 126.217 27.134C126.297 27.4611 126.407 27.7235 126.545 27.9212C126.691 28.1188 126.865 28.262 127.069 28.3506C127.273 28.4324 127.502 28.4733 127.757 28.4733C127.932 28.4733 128.088 28.463 128.227 28.4426C128.365 28.4222 128.496 28.3949 128.62 28.3608C128.751 28.3267 128.878 28.2858 129.002 28.2381C129.133 28.1904 129.275 28.1393 129.428 28.0848L129.668 28.8618C129.414 28.9776 129.13 29.0765 128.816 29.1583C128.511 29.2401 128.161 29.281 127.768 29.281Z" fill="#8A8A8A"/>
<path d="M130.662 22.4821H134.616V23.3102H131.754V25.3448H134.212V26.1116H131.754V28.3301H134.812V29.1378H130.662V22.4821Z" fill="#8A8A8A"/>
<path d="M137.718 29.281C137.193 29.281 136.767 29.2332 136.44 29.1378C136.112 29.0424 135.832 28.9333 135.599 28.8107L135.795 28.0848C136.101 28.2075 136.385 28.3097 136.647 28.3915C136.917 28.4665 137.222 28.5039 137.565 28.5039C138.038 28.5039 138.384 28.429 138.602 28.279C138.828 28.1291 138.941 27.8428 138.941 27.4202C138.941 27.2566 138.919 27.1169 138.875 27.001C138.839 26.8784 138.77 26.7761 138.668 26.6943C138.573 26.6057 138.438 26.5273 138.264 26.4592C138.096 26.391 137.878 26.3229 137.608 26.2547C137.288 26.1729 137.004 26.0843 136.756 25.9889C136.516 25.8935 136.312 25.7708 136.145 25.6208C135.985 25.4709 135.861 25.2868 135.774 25.0687C135.693 24.8438 135.653 24.5678 135.653 24.2406C135.653 23.6272 135.843 23.1603 136.221 22.8399C136.6 22.5196 137.142 22.3594 137.849 22.3594C138.285 22.3594 138.642 22.3901 138.919 22.4514C139.203 22.5128 139.461 22.5912 139.694 22.6866L139.541 23.4636C139.403 23.4227 139.272 23.3852 139.148 23.3511C139.024 23.3171 138.901 23.2898 138.777 23.2693C138.653 23.2421 138.518 23.2216 138.373 23.208C138.234 23.1944 138.071 23.1876 137.881 23.1876C137.452 23.1876 137.142 23.2591 136.953 23.4023C136.764 23.5386 136.669 23.7874 136.669 24.1486C136.669 24.319 136.684 24.4621 136.713 24.578C136.749 24.687 136.815 24.7825 136.909 24.8643C137.004 24.9461 137.135 25.0176 137.303 25.079C137.477 25.1403 137.703 25.2085 137.98 25.2834C138.293 25.3584 138.573 25.447 138.821 25.5493C139.068 25.6447 139.279 25.7708 139.454 25.9275C139.629 26.0775 139.763 26.2649 139.858 26.4898C139.953 26.708 140 26.9772 140 27.2975C140 27.9519 139.807 28.446 139.421 28.78C139.035 29.114 138.467 29.281 137.718 29.281Z" fill="#8A8A8A"/>
</svg>
