<svg width="187" height="20" viewBox="0 0 187 20" fill="none" xmlns="http://www.w3.org/2000/svg">
<path d="M89.416 7.0835L85.3327 14.1668L81.2493 7.0835H75.9993L72.916 17.5002H77.666L79.2494 10.8335L83.0827 17.5002H87.5827L91.3327 10.8335L92.916 17.5002H97.7494L94.666 7.0835H89.416Z" fill="#004D6E"/>
<path d="M57.416 7.0835L50.416 17.4168H55.0827L56.166 15.6668H63.4993L64.5827 17.4168H69.7493L62.7494 7.0835H57.416ZM57.416 13.6668L59.916 9.5835L62.416 13.6668H57.416Z" fill="#004D6E"/>
<path d="M148.833 7.0835L141.833 17.4168H146.5L147.583 15.6668H154.916L156 17.4168H161.166L154.166 7.0835H148.833ZM148.833 13.6668L151.333 9.5835L153.833 13.6668H148.833Z" fill="#004D6E"/>
<path d="M181.501 7.0835H175.751L170.084 11.7502V7.0835H165.251V17.5002H170.084V12.5835L175.751 17.5002H182.084L175.084 12.0835L181.501 7.0835Z" fill="#004D6E"/>
<path d="M137.666 10.5002C137.666 8.91683 136.583 8.0835 135 7.5835C133.25 7.16683 131.083 7.0835 129 7.0835C125 7.0835 121.583 7.0835 121.583 7.0835V17.4168H126.416V14.3335H130.5L133 17.5835H138.5L134.916 13.5835C136.916 13.0002 137.666 11.7502 137.666 10.5002ZM131.416 12.1668C130.833 12.2502 130.25 12.3335 129.333 12.3335C128.5 12.3335 126.416 12.3335 126.416 12.3335V9.16683C126.416 9.16683 128.75 9.16683 129.416 9.16683C131.916 9.16683 132.916 9.66682 132.916 10.6668C132.916 11.5002 132.25 12.0835 131.416 12.1668Z" fill="#004D6E"/>
<path d="M100 9.50016H106.167V17.5002H111V9.50016H116.833L117.333 7.0835H100.417L100 9.50016Z" fill="#004D6E"/>
<path d="M59.0003 0C42.3337 4.58333 31.7503 7.91666 24.167 16.0833C27.8337 17.5833 31.667 19 35.0003 20C38.917 12.25 46.0003 5.99999 59.0837 0.333328L59.0003 0Z" fill="#004D6E"/>
<path d="M37.5 2.00018C35.5 1.83351 33.3333 1.41686 31.5833 0.916856C27.9167 0.75019 8.58333 0.250195 0 3.91686C2.33333 5.33353 4.74999 6.75018 7.74999 8.33352C16.3333 4.33352 27.3333 2.91684 37.5 2.33351V2.00018Z" fill="#004D6E"/>
<path d="M49.9173 1.91675C47.2506 2.25008 43.0007 2.41675 40.4173 2.41675C32.7507 3.25009 19.2507 5.41677 11.584 10.1668C14.4173 11.5834 17.2506 13.0001 20.2506 14.2501C28.2506 7.33343 39.0007 4.2501 49.9173 2.16676V1.91675Z" fill="#004D6E"/>
<path d="M185.834 8.49985C185.834 8.08318 185.501 7.9165 185.001 7.9165H184.084V10.2498H184.417V9.1665V8.83318V8.16649H184.917C185.084 8.16649 185.417 8.24985 185.417 8.49985C185.417 8.91651 185.084 8.91651 184.917 8.91651H184.501V9.24984H184.834L185.417 10.2498H185.834L185.251 9.24984C185.584 9.08318 185.834 8.91651 185.834 8.49985Z" fill="#004D6E"/>
<path d="M184.833 6.91675C183.75 6.91675 182.833 7.7501 182.833 8.91677C182.833 10.0834 183.75 10.9168 184.833 10.9168C185.916 10.9168 186.833 10.0834 186.833 8.91677C186.833 7.83344 185.916 6.91675 184.833 6.91675ZM184.833 10.5001C183.916 10.5834 183.25 9.91677 183.25 8.91677C183.25 8.0001 183.916 7.33341 184.833 7.33341C185.75 7.33341 186.416 8.0001 186.416 8.91677C186.416 9.83344 185.75 10.5001 184.833 10.5001Z" fill="#004D6E"/>
</svg>