<svg width="68" height="41" viewBox="0 0 68 41" fill="none" xmlns="http://www.w3.org/2000/svg">
<path d="M22.5942 0.328257V25.2434H20.3103V4.90073L12.0993 20.8142H10.495L2.28393 4.92847V25.2388H0V0.328257H2.39026L11.3133 17.5317L20.241 0.328257H22.5942ZM46.8298 25.5948L42.6872 21.1702C41.1893 23.5281 39.155 25.2388 35.7985 25.2388C31.4803 25.2388 28.3041 22.2429 28.3041 18.5673C28.3041 15.4974 30.195 13.6065 33.8382 11.5352C31.7669 9.46397 30.625 7.74871 30.625 5.71906C30.625 2.75551 33.1216 0.40223 36.1545 0.40223C39.3677 0.40223 41.758 2.76013 41.758 5.71906C41.758 8.57628 39.511 10.4996 37.2594 11.9652L42.4006 17.5687L45.4335 12.6448L47.2551 13.7868L43.8986 19.2469L48.5034 24.1384L46.8298 25.5948ZM35.2668 13.1025C32.0212 14.8871 30.5926 16.3157 30.5926 18.5303C30.5926 21.0639 32.8765 23.1721 35.8031 23.1721C38.443 23.1721 39.8023 21.9562 41.2633 19.6029L35.2668 13.1025ZM32.8719 5.71444C32.8719 7.10606 33.8012 8.28502 35.8355 10.4626C38.2257 9.07098 39.548 7.60538 39.548 5.71444C39.548 3.86048 38.2997 2.39489 36.1545 2.39489C34.1572 2.39489 32.8719 3.96682 32.8719 5.71444ZM67.8197 5.64509L65.7484 6.39407C64.9255 3.79113 62.6092 2.11286 59.4653 2.11286C56.0394 2.11286 53.7925 3.8235 53.7925 6.7177C53.7925 12.9268 68 9.64427 68 18.387C68 22.5619 64.6435 25.4884 59.6456 25.4884C55.0038 25.4884 52.2206 23.2739 50.2926 19.7416L52.2206 18.5627C53.5058 21.2766 55.8591 23.3802 59.433 23.3802C63.5708 23.3802 65.7161 21.4893 65.7161 18.3454C65.7161 12.0993 51.5132 15.1692 51.5132 6.67609C51.5132 1.64128 56.0441 0 59.4006 0C63.1779 0.00462333 66.6038 1.71988 67.8197 5.64509Z" fill="black"/>
<path d="M41.5221 37.8004C41.9798 37.5554 42.2433 37.1809 42.2433 36.6584C42.2433 35.7245 41.4851 35.2529 40.5697 35.2529C39.6496 35.2529 38.896 35.7245 38.896 36.6584C38.896 37.1809 39.1549 37.5554 39.608 37.8004C39.1318 38.0269 38.7342 38.4153 38.7342 39.0256C38.7342 39.9549 39.4 40.5883 40.5743 40.5883C41.7486 40.5883 42.4144 39.9317 42.4144 39.0256C42.4051 38.4107 42.0075 38.0223 41.5221 37.8004ZM39.5387 36.6908C39.5387 36.1406 39.9039 35.817 40.565 35.817C41.2215 35.817 41.5868 36.1406 41.5868 36.6908C41.5868 37.2456 41.0782 37.523 40.565 37.523C40.0102 37.523 39.5387 37.2086 39.5387 36.6908ZM40.565 40.0196C39.9131 40.0196 39.4046 39.696 39.4046 39.0302C39.4046 38.4014 39.9594 38.087 40.565 38.087C41.1707 38.087 41.7255 38.4014 41.7255 39.0302C41.7255 39.7006 41.2169 40.0196 40.565 40.0196Z" fill="black"/>
<path d="M46.5847 37.8004C47.0424 37.5554 47.3013 37.1809 47.3013 36.6584C47.3013 35.7245 46.5431 35.2529 45.6277 35.2529C44.7076 35.2529 43.9494 35.7245 43.9494 36.6584C43.9494 37.1809 44.2129 37.5554 44.6614 37.8004C44.1806 38.0269 43.7876 38.4153 43.7876 39.0256C43.7876 39.9549 44.4534 40.5883 45.6277 40.5883C46.802 40.5883 47.4678 39.9317 47.4678 39.0256C47.4678 38.4107 47.0702 38.0223 46.5847 37.8004ZM44.6013 36.6908C44.6013 36.1406 44.9712 35.817 45.6277 35.817C46.2842 35.817 46.6541 36.1406 46.6541 36.6908C46.6541 37.2456 46.1455 37.523 45.6277 37.523C45.0729 37.523 44.6013 37.2086 44.6013 36.6908ZM45.6277 40.0196C44.9758 40.0196 44.4672 39.696 44.4672 39.0302C44.4672 38.4014 45.022 38.087 45.6277 38.087C46.2333 38.087 46.7881 38.4014 46.7881 39.0302C46.7881 39.7006 46.2796 40.0196 45.6277 40.0196Z" fill="black"/>
<path d="M16.7687 38.2026H19.2145V37.5554H16.7687V35.9233H19.3948V35.2761H16.0891V40.5282H19.5427V39.8809H16.7687V38.2026Z" fill="black"/>
<path d="M22.9641 37.5415L22.9456 37.5369C22.2105 37.3288 21.762 37.167 21.762 36.6954C21.762 36.1776 22.1596 35.8679 22.8208 35.8679C23.3848 35.8679 23.8194 36.1453 23.9905 36.6122L24.0413 36.7555L24.6562 36.5429L24.6054 36.3949C24.2494 35.3778 23.3247 35.2252 22.8069 35.2252C21.4661 35.2252 21.1055 36.1499 21.1055 36.6954C21.1055 37.6802 21.9978 37.9484 22.7884 38.1795L22.8023 38.1842C23.5697 38.4061 24.0321 38.5725 24.0321 39.0672C24.0321 39.6174 23.5697 39.9873 22.8809 39.9873C22.1643 39.9873 21.7019 39.7191 21.4245 39.1504L21.3505 38.9979L20.7865 39.3354L20.8512 39.4648C21.2396 40.2369 21.9146 40.6299 22.867 40.6299C23.9165 40.6299 24.6793 39.978 24.6793 39.0765C24.6793 38.0316 23.7685 37.7681 22.9641 37.5415Z" fill="black"/>
<path d="M31.2816 39.6959C31.0411 39.6959 30.8377 39.8947 30.8377 40.1351C30.8377 40.3756 31.0411 40.579 31.2816 40.579C31.522 40.579 31.7254 40.3756 31.7254 40.1351C31.7254 39.8947 31.522 39.6959 31.2816 39.6959Z" fill="black"/>
<path d="M35.5626 35.9187H36.2191V40.5282H36.8941V35.2714H35.5626V35.9187Z" fill="black"/>
<path d="M52.7707 38.7204L52.0864 38.6557V35.2668H51.3097L48.7391 38.8314V39.2798H51.4345V40.5281H52.0864V39.2798H52.7707V38.7204ZM51.4345 38.6326H49.6314L49.6546 38.6048L51.4345 36.1452V38.6326Z" fill="black"/>
<path d="M25.923 35.9233H27.5273V40.5282H28.2023V35.9233H29.8066V35.2761H25.923V35.9233Z" fill="black"/>
</svg>
