<?xml version="1.0" encoding="UTF-8"?>
<svg width="226px" height="40px" viewBox="0 0 226 40" version="1.1" xmlns="http://www.w3.org/2000/svg" xmlns:xlink="http://www.w3.org/1999/xlink">
    <!-- Generator: Sketch 63.1 (92452) - https://sketch.com -->
    <title>logo delta color</title>
    <desc>Created with Sketch.</desc>
    <g id="logo-delta-color" stroke="none" stroke-width="1" fill="none" fill-rule="evenodd">
        <g>
            <rect id="Rectangle" stroke="#979797" fill="#D8D8D8" opacity="0" x="0.5" y="0.5" width="225" height="39"></rect>
            <path d="M62.8016997,31.7280453 L62.01983,26.6968839 L54.8130312,26.6968839 L54.8130312,8.27195467 L49,8.27195467 L49,31.7280453 L62.8016997,31.7280453 Z M73.7025496,31.7280453 L73.7025496,8.27195467 L67.8895184,8.27195467 L67.8895184,31.7280453 L73.7025496,31.7280453 Z M86.1671388,31.7280453 L86.1671388,22.8215297 L93.101983,22.8215297 L92.286119,17.8923513 L86.1671388,17.8923513 L86.1671388,13.1331445 L94.427762,13.1331445 L94.427762,8.27195467 L80.388102,8.27195467 L80.388102,31.7280453 L86.1671388,31.7280453 Z M114.677054,31.7280453 L114.677054,27.0708215 L105.464589,27.0708215 L105.464589,22.0056657 L113.011331,22.0056657 L112.263456,17.2124646 L105.464589,17.2124646 L105.464589,12.9291785 L114.371105,12.9291785 L114.371105,8.27195467 L99.7535411,8.27195467 L99.7535411,31.7280453 L114.677054,31.7280453 Z M127.447592,32 C132.104816,32 135.844193,29.7563739 135.844193,24.6572238 C135.844193,20.917847 133.804533,19.1501416 128.705382,17.2804533 C125.78187,16.1586402 125.135977,15.5807365 125.135977,14.3909348 C125.135977,13.3031161 125.985836,12.5552408 127.753541,12.5552408 C129.555241,12.5552408 131.764873,13.2351275 133.872521,14.4589235 L134.756374,9.56373938 C132.716714,8.57790368 130.745042,8 127.685552,8 C123.1983,8 119.66289,10.4135977 119.66289,14.9348442 C119.66289,18.8101983 121.70255,20.3399433 126.393768,22.1416431 C129.691218,23.3994334 130.371105,24.0113314 130.371105,25.3371105 C130.371105,26.7308782 129.215297,27.4447592 127.549575,27.4447592 C125.203966,27.4447592 122.518414,26.5609065 120.104816,25.2691218 L119.254958,30.2322946 C121.634561,31.3201133 124.286119,32 127.447592,32 Z M151.878187,31.7280453 L151.878187,13.2011331 L158.915014,13.2011331 L158.09915,8.27195467 L139.538244,8.27195467 L139.538244,13.2011331 L146.031161,13.2011331 L146.031161,31.7280453 L151.878187,31.7280453 Z M175.866856,31.7280453 L175.866856,23.0934844 L184.29745,8.27195467 L178.212465,8.27195467 L173.215297,17.7903683 L168.116147,8.03399433 L161.929178,8.88385269 L170.01983,23.1614731 L170.01983,31.7280453 L175.866856,31.7280453 Z M202.711048,31.7280453 L201.929178,26.6968839 L194.72238,26.6968839 L194.72238,8.27195467 L188.909348,8.27195467 L188.909348,31.7280453 L202.711048,31.7280453 Z M222.586402,31.7280453 L222.586402,27.0708215 L213.373938,27.0708215 L213.373938,22.0056657 L220.92068,22.0056657 L220.172805,17.2124646 L213.373938,17.2124646 L213.373938,12.9291785 L222.280453,12.9291785 L222.280453,8.27195467 L207.66289,8.27195467 L207.66289,31.7280453 L222.586402,31.7280453 Z" id="LIFESTYLE" fill="#1B335D" fill-rule="nonzero"></path>
            <g id="Group-2" transform="translate(0.000000, 4.000000)" fill-rule="nonzero">
                <path d="M38.587013,28.5922078 L20.0311688,19.6571429 L20.0311688,0 L38.587013,28.5922078 Z M40.0623377,32 L20.0311688,23.5428571 L20.0311688,32 L40.0623377,32 Z" id="Shape" fill="#98002E"></path>
                <polyline id="Path" fill="#E31837" points="1.47532468 28.5922078 20.0311688 -1.0658141e-14 20.0311688 19.6571429 1.47532468 28.5922078"></polyline>
                <polyline id="Path" fill="#E31837" points="-3.01980663e-14 32 20.0311688 32 20.0311688 23.5428571 -3.01980663e-14 32"></polyline>
            </g>
        </g>
    </g>
</svg>