<svg width="128" height="42" viewBox="0 0 128 42" fill="none" xmlns="http://www.w3.org/2000/svg"><path fill-rule="evenodd" clip-rule="evenodd" d="M41.436 22.51h9.276l-.892 1.834a.597.597 0 0 0-.495-.347h-2.481l-3.77 7.738h-2.43l3.77-7.74h-3.076c-.327.018-.64.14-.893.347l.99-1.832Zm27.628 7.44-.843 1.785h-8.978l4.216-8.581a.737.737 0 0 0 .05-.347.63.63 0 0 0-.05-.298h8.038l-.942 1.785a.598.598 0 0 0-.495-.347h-4.612l-1.095 2.184h4.662l-.892 1.834a.598.598 0 0 0-.495-.347H63.61l-1.29 2.629h5.8c.339.007.67-.097.943-.298h.001Zm44.441 0-.84 1.785h-6.845l4.215-8.581a.724.724 0 0 0 .05-.347.622.622 0 0 0-.05-.298h2.729l-3.82 7.738h3.67c.322 0 .636-.105.893-.298h-.002Zm-65.52 1.785 4.165-8.532a.736.736 0 0 0 .05-.347.629.629 0 0 0-.05-.298h4.81c.942 0 2.679 0 2.679 2.183a3.548 3.548 0 0 1-2.679 3.224l.695 3.174a.974.974 0 0 0 .446.645h-2.579l-.744-3.82H52.25l-1.835 3.82h-2.43v-.05Zm9.423-7.043a.735.735 0 0 0-.794-.695h-2.43l-1.24 2.48h2.232c1.339 0 2.231-.842 2.231-1.785h.001Zm28.024-2.182c.04.093.058.196.05.297 0 .1-.05.249-.05.348l-4.166 8.58h2.43l4.513-9.225h-2.777Zm32.538 0c.04.093.057.196.049.297 0 .1-.049.249-.049.348l-4.167 8.58h2.431l4.513-9.225h-2.777Zm-28.073 0h9.325l-.893 1.834a.596.596 0 0 0-.495-.347h-2.48l-3.77 7.738h-2.43l3.767-7.74h-3.026c-.326.018-.64.14-.892.347l.892-1.832h.002Zm11.954 0a1.196 1.196 0 0 1-.298.744l-7.342 8.48h2.133l1.735-2.08h4.514l.049 2.083h2.232l-.495-9.225-2.528-.002Zm-2.53 5.654 3.125-3.77.099 3.77h-3.224Zm25.592-5.654a1.19 1.19 0 0 1-.298.744l-7.341 8.48h2.133l1.736-2.082h4.513l.05 2.083h2.231l-.495-9.225h-2.529Zm-2.53 5.654 3.175-3.77.099 3.77h-3.274ZM73.577 23.8l.298-.595a.716.716 0 0 0 .099-.347.63.63 0 0 0-.05-.298h2.383l2.232 6.399 2.83-5.754a.717.717 0 0 0 .098-.347.63.63 0 0 0-.05-.298h1.981l-4.563 9.176H77.1l-2.381-6.845-3.373 6.845h-1.688l3.919-7.936ZM5.33 38.431l-2.335-.05v.844h1.243c-.035.16-.102.312-.198.446a1.217 1.217 0 0 1-1.042.446 1.514 1.514 0 0 1 0-3.025c.247-.011.491.058.695.198.188.1.356.235.495.397l.843-.495a1.807 1.807 0 0 0-.495-.546 2.294 2.294 0 0 0-1.538-.495 2.373 2.373 0 0 0-2.38 2.478 2.263 2.263 0 0 0 2.334 2.43 2.263 2.263 0 0 0 2.083-1.19c.213-.449.315-.942.298-1.439l-.004.001Zm122.559-1.24v-.893h-2.628v4.661h2.628v-.941h-1.637v-.99h1.588v-.898h-1.588v-.939h1.637Zm-17.558 3.768-1.885-4.662h-1.091l-1.836 4.662h1.092l.347-.942h1.935l.347.942h1.091Zm-1.786-1.835h-1.289l.645-1.835.645 1.835h-.001Zm4.81 1.835v-.891h-1.587v-3.72h-.99v4.661h2.579l-.002-.05Zm1.538 0v-4.661h-.99v4.661h.99Zm5.208 0-1.885-4.662h-1.091l-1.834 4.662h1.091l.347-.942h1.935l.347.942h1.09Zm-1.835-1.835h-1.291l.645-1.835.645 1.835h.001Zm6.2 1.835v-4.661h-.942v3.075l-2.182-3.075h-.893v4.661h.942l-.049-3.125 2.182 3.125h.942Zm-18.699-3.77v-.891h-2.976v.892h.991v3.72h.99v-3.719l.995-.001Zm-6.894 1.439a2.387 2.387 0 0 0-2.482-2.43 2.43 2.43 0 1 0 .05 4.861 2.318 2.318 0 0 0 2.43-2.43l.002-.001Zm-1.042 0a1.414 1.414 0 0 1-1.389 1.485 1.489 1.489 0 0 1-.05-2.976 1.422 1.422 0 0 1 1.44 1.486l-.001.005Zm4.464 2.334v-4.664h-.991v4.661l.991.003Zm-8.482-3.77v-.894h-2.974v.892h.99v3.72h.99v-3.719l.994.002Zm-2.776 3.767-1.885-4.662H88.06l-1.835 4.662h1.092l.347-.942h1.937l.347.942h1.089Zm-1.786-1.835h-1.29l.646-1.835.645 1.835Zm-2.777-1.934v-.892h-2.976v.892h.99v3.72h.99v-3.719l.996-.001Zm-8.532 1.438a2.384 2.384 0 0 0-2.48-2.43 2.43 2.43 0 1 0 2.48 2.43Zm-1.041 0a1.414 1.414 0 0 1-1.389 1.485 1.488 1.488 0 0 1-.05-2.976 1.422 1.422 0 0 1 1.44 1.486l-.002.005Zm6.298.892c0-1.438-1.885-1.29-1.885-2.033a.406.406 0 0 1 .447-.397.913.913 0 0 1 .694.446l.645-.744a1.744 1.744 0 0 0-1.339-.645 1.371 1.371 0 0 0-1.485 1.339c0 .794.645 1.19 1.24 1.485.149.053.284.138.397.249a.613.613 0 0 1 .198.397.534.534 0 0 1-.595.545 1.162 1.162 0 0 1-.893-.545l-.645.744a2.059 2.059 0 0 0 1.486.645 1.485 1.485 0 0 0 1.735-1.486Zm-10.468 1.44v-.892h-1.583v-3.72h-.99v4.661h2.578l-.005-.05Zm-9.668-2.38a2.24 2.24 0 0 0-.347-1.24c-.546-.943-1.486-.99-2.43-.99h-.943v4.661h1.091a2.837 2.837 0 0 0 1.786-.446 2.782 2.782 0 0 0 .843-1.98v-.005Zm-.99 0a1.359 1.359 0 0 1-1.44 1.537h-.297v-3.026h.149c.387-.032.773.074 1.091.298a1.537 1.537 0 0 1 .495 1.19h.002Zm4.265-1.389v-.893h-2.63v4.661h2.628v-.941h-1.633v-.99h1.584v-.898h-1.585v-.939h1.636Zm3.272 3.768v-.891h-1.587v-3.72h-.99v4.661h2.578l-.001-.05Zm-12.944-3.77v-.891h-2.63v4.661h2.628v-.941h-1.636v-.99h1.587v-.898h-1.587v-.939l1.638-.001Zm-3.572 3.77v-4.661h-.99v4.661h.99Zm-1.39-4.661h-1.09l-1.141 3.324-1.141-3.324h-1.09l1.735 4.661h.99l1.736-4.662h.001Zm-4.612 2.334a2.385 2.385 0 0 0-2.478-2.433 2.43 2.43 0 1 0 .05 4.86 2.317 2.317 0 0 0 2.426-2.43l.002.003Zm-1.042 0a1.415 1.415 0 0 1-1.389 1.485 1.489 1.489 0 1 1-.047-2.978 1.421 1.421 0 0 1 1.439 1.486l-.003.007Zm-25.147-.896a1.3 1.3 0 0 0-.248-.843 1.655 1.655 0 0 0-1.24-.595H17.78v4.661h.99v-1.785h.496c.441.04.882-.084 1.24-.347.253-.307.393-.693.396-1.091h.002Zm-.99 0c0 .447-.298.595-.695.595h-.446V37.14h.397a.63.63 0 0 1 .298.05.495.495 0 0 1 .446.545v.002Zm6.098.893a2.386 2.386 0 0 0-2.476-2.43 2.43 2.43 0 1 0 .05 4.86 2.317 2.317 0 0 0 2.426-2.43Zm-1.042 0a1.413 1.413 0 0 1-1.388 1.486 1.487 1.487 0 1 1-.046-2.976 1.422 1.422 0 0 1 1.44 1.486l-.006.004Zm6.2.347v-.892h-1.685v-.893h1.686v-.893h-2.678v4.661h.99v-1.933h1.687v-.05Zm3.075-1.785v-.893h-2.627v4.661h2.628v-.941H32.61v-.99h1.587v-.898H32.61v-.939h1.635Zm4.067 3.77-1.336-1.983c.175-.035.343-.102.495-.197a1.386 1.386 0 0 0 .545-1.092 1.57 1.57 0 0 0-.198-.794 1.713 1.713 0 0 0-1.587-.595h-1.29v4.66h.99v-1.982l1.24 1.981 1.141.002Zm-1.29-3.225a.92.92 0 0 1-.099.348.717.717 0 0 1-.694.297h-.348V37.14h.348c.397-.05.794.1.794.595v.002Zm4.962 3.223-1.338-1.98c.175-.036.343-.103.495-.198a1.387 1.387 0 0 0 .545-1.092 1.57 1.57 0 0 0-.198-.794A1.713 1.713 0 0 0 39.9 36.3h-1.29v4.66h.99v-1.982l1.24 1.981h1.143Zm-1.289-3.224a.92.92 0 0 1-.099.347.717.717 0 0 1-.695.298h-.347v-1.24h.347c.397-.05.794.099.794.594v.001Zm-23.361 0c.018-.301-.07-.6-.249-.843a1.655 1.655 0 0 0-1.24-.595h-1.636v4.662h.99v-1.785h.495c.442.04.883-.084 1.24-.347.254-.307.394-.693.397-1.091l.003-.001Zm-.99 0c0 .446-.298.595-.695.595H15.2v-1.19h.397a.63.63 0 0 1 .298.049.532.532 0 0 1 .446.545v.001Zm-6.996 3.224-1.34-1.98c.177-.036.344-.103.496-.198a1.387 1.387 0 0 0 .545-1.092 1.57 1.57 0 0 0-.198-.794 1.713 1.713 0 0 0-1.583-.597H5.974v4.661h.99v-1.98l1.24 1.98h1.143Zm-1.29-3.224a.92.92 0 0 1-.099.347.717.717 0 0 1-.694.298h-.348v-1.24h.35c.447-.05.794.099.794.594l-.003.001Zm5.357 1.14v-2.577h-.99v2.876c0 .595-.248.943-.843.943a.834.834 0 0 1-.745-.348 1.037 1.037 0 0 1-.148-.694v-2.876h-.99v2.876c-.028.29.023.581.148.844a1.81 1.81 0 0 0 1.735 1.04 1.816 1.816 0 0 0 1.538-.695c.231-.424.335-.906.298-1.388h-.003Z" fill="#006A65"/><path fill-rule="evenodd" clip-rule="evenodd" d="m18.82 14.375-10.018.99L2.057 28.76c5.356 0 8.085-.495 11.209-4.96a91.786 91.786 0 0 0 5.555-9.424ZM45.95 1.973l.794-1.486H25.618c-7.144 0-10.815 2.43-13.047 6.895l-1.736 3.52h9.62c3.375-6.546 7.541-8.778 17.71-8.93h7.786Z" fill="#006C67"/><path fill-rule="evenodd" clip-rule="evenodd" d="M45.307 3.414C32.41 3.513 30.278 5.645 27.4 10.903h14.236l3.67-7.49Z" fill="#006C67"/><path fill-rule="evenodd" clip-rule="evenodd" d="M31.67 21.864a11.5 11.5 0 0 1-9.328 9.325 34.628 34.628 0 0 1-4.712.495c-1.885.05-17.012.05-17.012.05l.645-1.339s5.754-.05 6.547-.05a51.675 51.675 0 0 0 5.605-.396 9.384 9.384 0 0 0 8.281-6.944l1.141-3.868a7.013 7.013 0 0 1 6.845-5.654l11.012-.695-.546 1.091-3.372.198a5.243 5.243 0 0 0-4.81 4.662l-.296 3.125Z" fill="#E31936"/></svg>