<svg xmlns="http://www.w3.org/2000/svg" viewBox="0 0 708.8 425.48"><defs><style>.cls-1{fill:#8a55ff;}.cls-2{fill:#333;}</style></defs><g id="Layer_2" data-name="Layer 2"><g id="Layer_1-2" data-name="Layer 1"><path class="cls-1" d="M465.21,235.22a10.86,10.86,0,0,0-5.32-3c-6.82-1.77-13.73-8.38-20.13-17L419.44,183c-5-9.48-7.94-18.57-6.58-25.49a10.91,10.91,0,0,0-.38-6.07c-1.2-3.13-3.89-5.09-6.27-6.33l-55.56,35a12.6,12.6,0,0,0,1.66,8.08c2.59,4,7.4,5,8.26,5.25,5.89,1.55,12.13,7.45,18.11,15.24L399,241c4.44,8.75,7.06,16.93,5.9,22.91-.16.88-1.3,5.66,1.17,9.72a12.58,12.58,0,0,0,6.57,5l55.56-35C468.11,240.93,467.51,237.65,465.21,235.22Z"/><rect class="cls-1" x="367.11" y="117.99" width="11.84" height="73.6" rx="3.55" transform="translate(305.29 -243.36) rotate(57.81)"/><rect class="cls-1" x="439.23" y="230.3" width="11.84" height="78.09" rx="3.55" transform="translate(435.94 -250.87) rotate(57.81)"/><path class="cls-2" d="M505.16,317.66H398.59a12.91,12.91,0,0,0-10,3.95,22.05,22.05,0,0,0-4.71,7.11H522.69a26.45,26.45,0,0,0-6-7.11A17.05,17.05,0,0,0,505.16,317.66Z"/><path class="cls-2" d="M491,308H411.58c-1.17-.08-4.34-.05-7.42,3.47a19.88,19.88,0,0,0-3.5,6.24H504a22.2,22.2,0,0,0-4.5-6.24A11.47,11.47,0,0,0,491,308Z"/><path class="cls-2" d="M309.3,0q-59,164.36-118.07,328.72h20.64q2.65-7.22,5.3-14.44l-10.49,5.84,12.64-5.72q44.49-124,89-248.11l43.94,86.8,28.38-17.49Z"/><path class="cls-1" d="M223.89,328.72H191.23L392.36,216.78l7.11,11.67Z"/><rect class="cls-1" x="290.45" y="156.27" width="16.31" height="16.31"/><rect class="cls-1" x="312.98" y="156.27" width="16.31" height="16.31"/><rect class="cls-1" x="290.45" y="178.02" width="16.31" height="16.31"/><rect class="cls-1" x="312.98" y="178.02" width="16.31" height="16.31"/><path class="cls-2" d="M49.56,425.48H41.43l-4.76-8H13l-4.54,8H0l20.57-36.6h8.12ZM32.87,410.84,24.67,396l-8.13,14.86Z"/><path class="cls-2" d="M103.29,416.11c0,3.86-.65,6.38-1.94,7.58s-3.92,1.79-7.87,1.79H71.81c-4,0-6.58-.59-7.87-1.79S62,420,62,416.11v-27.3h8.57v29.06h24.3V388.81h8.42Z"/><path class="cls-2" d="M161.19,416.84q0,5.13-1.94,6.88c-1.3,1.18-3.67,1.76-7.14,1.76H130.37c-3.46,0-5.84-.58-7.14-1.76s-1.94-3.46-1.94-6.88V397.59q0-5.05,1.94-6.84t7.14-1.8h21.74q8.79.07,9.08,6.08v5.34H152.7v-4.9H129.79V418.6H152.7v-5.34h8.49Z"/><path class="cls-2" d="M213.6,395.54H197.5v29.94h-8.57V395.54h-16V389h40.7Z"/><path class="cls-2" d="M234.9,425.48h-8.42v-36.6h8.42Z"/><path class="cls-2" d="M298.73,416.84q0,5.13-1.94,6.88c-1.29,1.18-3.67,1.76-7.14,1.76H262.86c-3.46,0-5.84-.58-7.13-1.76s-1.94-3.46-1.94-6.88V397.67c0-3.42.64-5.71,1.94-6.89s3.67-1.75,7.13-1.75h26.79q5.21,0,7.14,1.75c1.29,1.18,1.94,3.47,1.94,6.89Zm-8.49,1.69V395.62h-28v22.91Z"/><path class="cls-2" d="M361.83,425.48h-7.39l-27.89-25.62v25.62h-7.76v-36.6H326l28.19,25.55V388.88h7.61Z"/><path class="cls-1" d="M465.77,425.48h-8.56v-15H431.37v15h-8.49V389h8.49v14.13h25.84V389h8.56Z"/><path class="cls-1" d="M531.29,416.84q0,5.13-1.94,6.88c-1.3,1.18-3.68,1.76-7.14,1.76H495.42c-3.47,0-5.85-.58-7.14-1.76s-1.94-3.46-1.94-6.88V397.67c0-3.42.65-5.71,1.94-6.89S492,389,495.42,389h26.79q5.19,0,7.14,1.75c1.29,1.18,1.94,3.47,1.94,6.89Zm-8.5,1.69V395.62h-28v22.91Z"/><path class="cls-1" d="M592.7,416.11c0,3.86-.65,6.38-1.94,7.58s-3.92,1.79-7.87,1.79H561.22c-4,0-6.57-.59-7.87-1.79s-1.93-3.72-1.93-7.58v-27.3H560v29.06h24.3V388.81h8.42Z"/><path class="cls-1" d="M652.58,416.84c0,3.42-.69,5.71-2.05,6.88s-3.83,1.76-7.39,1.76h-22.7q-5.78,0-7.61-2T611,415.09h8.49v3.44h25.33v-8.27H621.18q-5.35,0-7.36-1.8c-1.34-1.19-2-3.5-2-6.91v-4q0-5.13,2-6.88t7.36-1.76H651.7v6.44H619.49v7.84h23.65q5.34,0,7.39,1.75c1.36,1.17,2.05,3.47,2.05,6.88Z"/><path class="cls-1" d="M708.8,425.48H670.73V395q0-6.15,6.3-6.15h31.4v6.22H679.3v8.2h16.32v6.22H679.3v9.08h29.5Z"/></g></g></svg>