<svg width="709" height="426" viewBox="0 0 709 426" fill="none" xmlns="http://www.w3.org/2000/svg">
<g clip-path="url(#short)">
<path d="M465.21 235.22C463.76 233.732 461.914 232.69 459.89 232.22C453.07 230.45 446.16 223.84 439.76 215.22L419.44 183C414.44 173.52 411.5 164.43 412.86 157.51C413.311 155.492 413.179 153.386 412.48 151.44C411.28 148.31 408.59 146.35 406.21 145.11L350.65 180.11C350.281 182.913 350.866 185.759 352.31 188.19C354.9 192.19 359.71 193.19 360.57 193.44C366.46 194.99 372.7 200.89 378.68 208.68L399 241C403.44 249.75 406.06 257.93 404.9 263.91C404.74 264.79 403.6 269.57 406.07 273.63C407.635 275.988 409.95 277.75 412.64 278.63L468.2 243.63C468.11 240.93 467.51 237.65 465.21 235.22Z" fill="#8A55FF"/>
<path d="M405.423 137.192L402.898 133.181C401.853 131.522 399.662 131.023 398.002 132.068L341.724 167.494C340.065 168.539 339.567 170.731 340.611 172.39L343.136 176.401C344.181 178.061 346.373 178.559 348.032 177.514L404.31 142.088C405.969 141.044 406.467 138.852 405.423 137.192Z" fill="#8A55FF"/>
<path d="M479.447 250.547L476.922 246.536C475.877 244.877 473.686 244.378 472.026 245.423L411.949 283.241C410.289 284.286 409.791 286.478 410.835 288.137L413.361 292.148C414.405 293.807 416.597 294.306 418.256 293.261L478.334 255.443C479.993 254.398 480.492 252.207 479.447 250.547Z" fill="#8A55FF"/>
<path d="M505.16 317.66H398.59C396.737 317.561 394.885 317.863 393.159 318.544C391.433 319.226 389.875 320.272 388.59 321.61C386.572 323.651 384.972 326.066 383.88 328.72H522.69C521.126 326.014 519.094 323.607 516.69 321.61C513.464 318.918 509.359 317.511 505.16 317.66V317.66Z" fill="#333333"/>
<path d="M491 308H411.58C410.41 307.92 407.24 307.95 404.16 311.47C402.625 313.321 401.44 315.435 400.66 317.71H504C502.874 315.384 501.352 313.272 499.5 311.47C498.398 310.337 497.075 309.445 495.612 308.847C494.15 308.25 492.579 307.962 491 308V308Z" fill="#333333"/>
<path d="M309.3 0C269.967 109.573 230.61 219.147 191.23 328.72H211.87C213.637 323.907 215.403 319.093 217.17 314.28L206.68 320.12L219.32 314.4C248.98 231.733 278.647 149.03 308.32 66.29L352.26 153.09L380.64 135.6L309.3 0Z" fill="#333333"/>
<path d="M223.89 328.72H191.23L392.36 216.78L399.47 228.45L223.89 328.72Z" fill="#8A55FF"/>
<path d="M306.76 156.27H290.45V172.58H306.76V156.27Z" fill="#8A55FF"/>
<path d="M329.29 156.27H312.98V172.58H329.29V156.27Z" fill="#8A55FF"/>
<path d="M306.76 178.02H290.45V194.33H306.76V178.02Z" fill="#8A55FF"/>
<path d="M329.29 178.02H312.98V194.33H329.29V178.02Z" fill="#8A55FF"/>
<path d="M49.56 425.48H41.43L36.67 417.48H13L8.46 425.48H0L20.57 388.88H28.69L49.56 425.48ZM32.87 410.84L24.67 396L16.54 410.86L32.87 410.84Z" fill="#333333"/>
<path d="M103.29 416.11C103.29 419.97 102.64 422.49 101.35 423.69C100.06 424.89 97.43 425.48 93.48 425.48H71.81C67.81 425.48 65.23 424.89 63.94 423.69C62.65 422.49 62 420 62 416.11V388.81H70.57V417.87H94.87V388.81H103.29V416.11Z" fill="#333333"/>
<path d="M161.19 416.84C161.19 420.26 160.543 422.553 159.25 423.72C157.95 424.9 155.58 425.48 152.11 425.48H130.37C126.91 425.48 124.53 424.9 123.23 423.72C121.93 422.54 121.29 420.26 121.29 416.84V397.59C121.29 394.223 121.937 391.943 123.23 390.75C124.523 389.557 126.903 388.957 130.37 388.95H152.11C157.97 388.997 160.997 391.023 161.19 395.03V400.37H152.7V395.47H129.79V418.6H152.7V413.26H161.19V416.84Z" fill="#333333"/>
<path d="M213.6 395.54H197.5V425.48H188.93V395.54H172.93V389H213.63L213.6 395.54Z" fill="#333333"/>
<path d="M234.9 425.48H226.48V388.88H234.9V425.48Z" fill="#333333"/>
<path d="M298.73 416.84C298.73 420.26 298.083 422.553 296.79 423.72C295.5 424.9 293.12 425.48 289.65 425.48H262.86C259.4 425.48 257.02 424.9 255.73 423.72C254.44 422.54 253.79 420.26 253.79 416.84V397.67C253.79 394.25 254.43 391.96 255.73 390.78C257.03 389.6 259.4 389.03 262.86 389.03H289.65C293.123 389.03 295.503 389.613 296.79 390.78C298.08 391.96 298.73 394.25 298.73 397.67V416.84ZM290.24 418.53V395.62H262.24V418.53H290.24Z" fill="#333333"/>
<path d="M361.83 425.48H354.44L326.55 399.86V425.48H318.79V388.88H326L354.19 414.43V388.88H361.8L361.83 425.48Z" fill="#333333"/>
<path d="M465.77 425.48H457.21V410.48H431.37V425.48H422.88V389H431.37V403.13H457.21V389H465.77V425.48Z" fill="#8A55FF"/>
<path d="M531.29 416.84C531.29 420.26 530.643 422.553 529.35 423.72C528.05 424.9 525.67 425.48 522.21 425.48H495.42C491.95 425.48 489.57 424.9 488.28 423.72C486.99 422.54 486.34 420.26 486.34 416.84V397.67C486.34 394.25 486.99 391.96 488.28 390.78C489.57 389.6 492 389 495.42 389H522.21C525.67 389 528.05 389.583 529.35 390.75C530.64 391.93 531.29 394.22 531.29 397.64V416.84ZM522.79 418.53V395.62H494.79V418.53H522.79Z" fill="#8A55FF"/>
<path d="M592.7 416.11C592.7 419.97 592.05 422.49 590.76 423.69C589.47 424.89 586.84 425.48 582.89 425.48H561.22C557.22 425.48 554.65 424.89 553.35 423.69C552.05 422.49 551.42 419.97 551.42 416.11V388.81H560V417.87H584.3V388.81H592.72L592.7 416.11Z" fill="#8A55FF"/>
<path d="M652.58 416.84C652.58 420.26 651.89 422.55 650.53 423.72C649.17 424.89 646.7 425.48 643.14 425.48H620.44C616.587 425.48 614.05 424.813 612.83 423.48C611.61 422.147 611 419.35 611 415.09H619.49V418.53H644.82V410.26H621.18C617.613 410.26 615.16 409.66 613.82 408.46C612.48 407.27 611.82 404.96 611.82 401.55V397.55C611.82 394.13 612.487 391.837 613.82 390.67C615.153 389.503 617.607 388.917 621.18 388.91H651.7V395.35H619.49V403.19H643.14C646.7 403.19 649.163 403.773 650.53 404.94C651.89 406.11 652.58 408.41 652.58 411.82V416.84Z" fill="#8A55FF"/>
<path d="M708.8 425.48H670.73V395C670.73 390.9 672.83 388.85 677.03 388.85H708.43V395.07H679.3V403.27H695.62V409.49H679.3V418.57H708.8V425.48Z" fill="#8A55FF"/>
</g>
<defs>
<clipPath id="clip0_101_259">
<rect width="708.8" height="425.48" fill="white"/>
</clipPath>
</defs>
</svg>
