<svg width="128" height="35" viewBox="0 0 128 35" fill="none" xmlns="http://www.w3.org/2000/svg">
<path d="M118.61 7.18978H123.95L122.808 12.4818H117.469L115.701 20.6934C115.296 22.5547 115.701 22.8102 117.874 22.8102C118.868 22.8102 119.678 22.7737 120.746 22.7372L119.678 27.7007C117.984 27.9197 115.849 28.0657 113.455 28.0657C108.19 28.0657 106.312 26.7883 107.269 22.3723L109.405 12.4453H105.17L106.275 7.18978H110.509L111.909 0.693431H119.973L118.61 7.18978ZM90.9568 27.6277H99.0209L103.403 7.18978H95.3386L90.9568 27.6277ZM95.8541 4.85402H103.918L104.949 0.0364958H96.8852L95.8541 4.85402ZM73.9817 7.18978L69.5998 27.6277H77.443L81.8248 7.18978H73.9817ZM92.6506 6.31387C92.1351 6.27737 91.6196 6.24088 91.1409 6.24088C87.5323 6.24088 81.788 9.74452 80.2783 16.0219L79.8733 17.4453H80.0205C81.162 14.7445 84.0342 13.2847 87.9005 13.2847C88.9315 13.2847 90.1467 13.4307 91.0672 13.6496L92.6506 6.31387ZM62.5668 7.18978L58.1849 27.6277H66.249L70.6309 7.18978H62.5668ZM72.1774 0H64.1133L63.0823 4.81752H71.1464L72.1774 0ZM57.7062 17.7372C56.4543 23.6496 51.0046 28.4307 43.4192 28.4307C39.8474 28.4307 37.3435 27.2628 36.3125 25.7664H36.2388L34.2504 35H26.1863L32.1515 7.15328H39.9947L39.4055 9.85402H39.4792C41.6517 7.77372 44.7448 6.60584 48.022 6.60584C55.3128 6.64234 59.2159 10.6569 57.7062 17.7372ZM44.8921 12.2263C41.0994 12.2263 38.7059 14.2701 38.0431 17.4453C37.3435 20.6204 38.89 22.6277 42.6827 22.6277C46.365 22.6277 48.7952 20.8029 49.4949 17.4453C50.1945 14.0511 48.5743 12.2263 44.8921 12.2263ZM20.0002 15.073L13.1881 14.3066C11.1996 14.0876 10.7578 13.5037 10.9051 12.8832C11.1996 11.4964 12.6725 10.9489 15.0292 10.9489C16.0602 10.9489 17.0912 11.0584 17.8277 11.4234C18.5641 11.7153 19.006 12.2993 18.8955 13.1387H27.9538C28.7639 7.33577 22.0254 6.35037 16.5389 6.35037C8.8062 6.35037 3.65107 8.10219 2.47276 13.6496C1.73631 17.1168 3.76154 18.7956 8.36433 19.3431L15.3974 20.219C17.349 20.438 18.0854 20.7664 17.8277 21.8248C17.4963 23.2847 15.5447 23.6496 13.7404 23.6496C11.9729 23.6496 10.9419 23.4307 10.3159 23.0292C9.68993 22.6277 9.50582 22.0438 9.54264 21.2774H0.116131C-1.02536 27.4818 6.48639 28.4672 12.1938 28.4672C20.7734 28.4672 25.8918 26.2044 26.9228 21.3869C27.8065 17.3723 25.4131 15.6569 20.0002 15.073ZM126.785 8.9781L127.153 9.63503H126.711L126.453 9.08759H126.159V9.63503H125.717V7.95621H126.417C126.601 7.95621 126.748 7.9927 126.895 8.10219C127.043 8.17518 127.079 8.32117 127.079 8.54015C127.079 8.64964 127.043 8.72263 127.006 8.79562C126.969 8.86861 126.895 8.94161 126.785 8.9781ZM126.638 8.54015C126.638 8.46715 126.601 8.39416 126.564 8.35767C126.527 8.32117 126.417 8.28467 126.343 8.28467H126.159V8.79562H126.343C126.453 8.79562 126.527 8.75913 126.564 8.72263C126.601 8.68613 126.638 8.61314 126.638 8.54015ZM128 8.83212C128 9.08759 127.963 9.30657 127.853 9.48905C127.779 9.67153 127.669 9.85402 127.521 10.0365C127.374 10.1825 127.19 10.292 127.006 10.365C126.822 10.438 126.601 10.4745 126.38 10.4745C126.159 10.4745 125.938 10.438 125.754 10.365C125.57 10.292 125.386 10.1825 125.238 10.0365C125.091 9.89051 124.981 9.70803 124.907 9.48905C124.833 9.30657 124.76 9.05109 124.76 8.83212C124.76 8.57664 124.796 8.35767 124.907 8.13869C124.981 7.91971 125.091 7.73723 125.238 7.59124C125.386 7.44526 125.57 7.33577 125.754 7.26277C125.938 7.18978 126.159 7.15328 126.38 7.15328C126.601 7.15328 126.822 7.18978 127.006 7.26277C127.19 7.33577 127.374 7.44526 127.521 7.59124C127.669 7.73723 127.779 7.91971 127.853 8.13869C127.963 8.35767 128 8.57664 128 8.83212ZM127.595 8.83212C127.595 8.64963 127.558 8.46715 127.484 8.28467C127.411 8.10219 127.337 7.9927 127.227 7.84672C127.116 7.73723 127.006 7.62774 126.822 7.59124C126.674 7.51825 126.49 7.48175 126.343 7.48175C126.159 7.48175 126.012 7.51825 125.827 7.59124C125.68 7.66424 125.533 7.73723 125.422 7.84672C125.312 7.9562 125.238 8.10219 125.165 8.28467C125.091 8.46715 125.054 8.61314 125.054 8.83212C125.054 9.0146 125.091 9.19708 125.165 9.37956C125.238 9.52555 125.312 9.67153 125.422 9.78102C125.533 9.89051 125.643 9.9635 125.827 10.0365C125.975 10.1095 126.159 10.146 126.343 10.146C126.527 10.146 126.674 10.1095 126.822 10.0365C126.969 9.9635 127.116 9.89051 127.227 9.78102C127.337 9.67153 127.411 9.52555 127.484 9.37956C127.558 9.19708 127.595 9.0146 127.595 8.83212Z" fill="black"/>
</svg>