<?xml version="1.0" encoding="UTF-8"?>
<svg width="60px" height="60px" viewBox="0 0 60 60" version="1.1" xmlns="http://www.w3.org/2000/svg" xmlns:xlink="http://www.w3.org/1999/xlink">
    <!-- Generator: Sketch 63.1 (92452) - https://sketch.com -->
    <title>illustrations / always on time</title>
    <desc>Created with Sketch.</desc>
    <g id="illustrations-/-always-on-time" stroke="none" stroke-width="1" fill="none" fill-rule="evenodd">
        <g>
            <rect id="Rectangle-Copy-2" stroke="#979797" fill="#D8D8D8" opacity="0" x="0.5" y="0.5" width="59" height="59"></rect>
            <g id="stopwatch" transform="translate(5.000000, 0.000000)" fill-rule="nonzero">
                <path d="M48.046875,35.390625 C48.046875,48.3352662 37.5540162,58.828125 24.609375,58.828125 C11.6647338,58.828125 1.171875,48.3352662 1.171875,35.390625 C1.171875,22.4899291 11.6184997,11.953125 24.609375,11.953125 C37.5553894,11.953125 48.046875,22.4450684 48.046875,35.390625 Z" id="Path" fill-opacity="0.1" fill="#00B4E2"></path>
                <path d="M41.015625,35.390625 C41.015625,44.4374085 33.6566162,51.796875 24.609375,51.796875 C15.5625915,51.796875 8.203125,44.4378662 8.203125,35.390625 C8.203125,26.3438415 15.5621338,18.984375 24.609375,18.984375 C33.6561585,18.984375 41.015625,26.3433838 41.015625,35.390625 Z" id="Path" fill="#FAFAFF"></path>
                <path d="M31.640625,3.515625 L31.640625,6.5625 C29.8677063,6.5625 19.3487549,6.5625 17.578125,6.5625 L17.578125,3.515625 C17.578125,2.2206116 18.6268616,1.171875 19.921875,1.171875 L29.296875,1.171875 C30.5918884,1.171875 31.640625,2.2206116 31.640625,3.515625 Z" id="Path" fill-opacity="0.1" fill="#00B4E2"></path>
                <g id="Group" transform="translate(2.929688, 6.562500)">
                    <path d="M4.1015625,6.76391602 L7.50137332,10.1637268 C6.25305176,11.1126709 5.10452273,12.1838379 4.06997684,13.3607483 L0.787353516,10.078125 C-0.127716094,9.16305539 -0.127716094,7.67944336 0.787353516,6.76391602 C1.70288086,5.84884641 3.18649289,5.84884641 4.1015625,6.76391602 Z" id="Path" fill-opacity="0.1" fill="#00B4E2"></path>
                    <polygon id="Path" fill="#FFFFFF" points="18.1640625 0 25.1953125 0 25.1953125 5.65200809 18.1640625 5.65200809"></polygon>
                    <path d="M42.5720215,6.76391602 C43.4870911,7.67944336 43.4870911,9.16305539 42.5720215,10.078125 L39.2893982,13.3607483 C38.2548523,12.1838379 37.1063232,11.1126709 35.8580017,10.1637268 L39.2578125,6.76391602 C40.1728821,5.84884641 41.6564941,5.84884641 42.5720215,6.76391602 Z" id="Path" fill-opacity="0.1" fill="#00B4E2"></path>
                </g>
                <path d="M24.609375,33.046875 C25.9030151,33.046875 26.953125,34.0969849 26.953125,35.390625 C26.953125,36.6842651 25.9030151,37.734375 24.609375,37.734375 C23.3157349,37.734375 22.265625,36.6842651 22.265625,35.390625 C22.265625,34.0969849 23.3157349,33.046875 24.609375,33.046875 Z" id="Path" fill="#FFFFFF"></path>
                <path d="M23.4375,44.765625 C23.4375,45.412445 23.962555,45.9375 24.609375,45.9375 C25.256195,45.9375 25.78125,45.412445 25.78125,44.765625 C25.78125,44.118805 25.256195,43.59375 24.609375,43.59375 C23.962555,43.59375 23.4375,44.118805 23.4375,44.765625 Z" id="Path" fill="#00B4E2"></path>
                <path d="M43.8070678,19.9923705 L46.3302612,17.4691772 C47.7008057,16.0986328 47.7008057,13.8684082 46.3302612,12.4978638 C44.9597168,11.1273193 42.7290345,11.1273193 41.3589478,12.4978638 L38.6654663,15.1913452 C35.8557129,13.2344055 32.6527405,11.8798828 29.296875,11.2298584 L29.296875,7.734375 L31.640625,7.734375 C32.2879029,7.734375 32.8125,7.20977789 32.8125,6.5625 L32.8125,3.515625 C32.8125,1.57699582 31.2355042,0 29.296875,0 L19.921875,0 C17.9832458,0 16.40625,1.57699582 16.40625,3.515625 L16.40625,6.5625 C16.40625,7.20977789 16.9308471,7.734375 17.578125,7.734375 L19.921875,7.734375 L19.921875,11.2298584 C16.5664673,11.8794251 13.3630371,13.2344055 10.5532838,15.1913452 L7.85980219,12.4978638 C6.48925781,11.1273193 4.2590332,11.1273193 2.88848883,12.4978638 C1.51794434,13.8684082 1.51794434,16.0986328 2.88848883,17.4691772 L5.41122434,19.9923705 C1.91436773,24.3479919 0,29.773407 0,35.390625 C0,48.9601136 11.0398864,60 24.609375,60 C38.1788636,60 49.21875,48.9601136 49.21875,35.390625 C49.21875,29.773407 47.3043823,24.3479919 43.8070678,19.9923705 Z M43.0160522,14.1549682 C43.4729004,13.6985779 44.2163086,13.6985779 44.6731568,14.1549682 C45.1295471,14.6118164 45.1295471,15.3552246 44.6731568,15.8120728 L42.2515869,18.2331848 C41.7059326,17.6728821 41.133728,17.1386719 40.5386353,16.632843 L43.0160522,14.1549682 Z M18.75,3.515625 C18.75,2.8692627 19.2755127,2.34375 19.921875,2.34375 L29.296875,2.34375 C29.9432373,2.34375 30.46875,2.8692627 30.46875,3.515625 L30.46875,5.390625 L18.75,5.390625 L18.75,3.515625 Z M26.953125,7.734375 L26.953125,10.8920288 C25.3994752,10.74646 23.8197327,10.7460022 22.265625,10.8920288 L22.265625,7.734375 L26.953125,7.734375 Z M4.5455932,14.1549682 C5.00244141,13.6985779 5.74584961,13.6985779 6.20269781,14.1549682 L8.68011469,16.632843 C8.08502203,17.1386719 7.51281738,17.6728821 6.96716309,18.2331848 L4.5455932,15.8120728 C4.08920285,15.3552246 4.08920285,14.6118164 4.5455932,14.1549682 Z M24.609375,57.65625 C12.3321533,57.65625 2.34375,47.6678467 2.34375,35.390625 C2.34375,29.974823 4.309845,24.7567748 7.87948605,20.6968689 C8.86276242,19.57901 9.96002203,18.5568237 11.1405945,17.6586914 C14.0991211,15.4074096 17.6010131,13.9256286 21.2677002,13.373108 C22.3654174,13.2087708 23.4892273,13.125 24.609375,13.125 C25.7295227,13.125 26.8533326,13.2087708 27.9505921,13.373108 C31.6177369,13.9256286 35.1196289,15.4074096 38.0786133,17.6586914 C39.258728,18.5568237 40.3559876,19.57901 41.3392639,20.6968689 C44.908905,24.7567748 46.875,29.974823 46.875,35.390625 C46.875,47.6678467 36.8865967,57.65625 24.609375,57.65625 Z" id="Shape" fill="#00B4E2"></path>
                <path d="M24.609375,38.90625 C26.5480042,38.90625 28.125,37.3292542 28.125,35.390625 C28.125,33.8630677 27.1453857,32.5602722 25.78125,32.076416 L25.78125,23.671875 C25.78125,23.0245971 25.2566529,22.5 24.609375,22.5 C23.9620971,22.5 23.4375,23.0245971 23.4375,23.671875 L23.4375,32.076416 C22.0733643,32.5602722 21.09375,33.8630677 21.09375,35.390625 C21.09375,37.3292542 22.6707458,38.90625 24.609375,38.90625 Z M24.609375,34.21875 C25.2557373,34.21875 25.78125,34.7442627 25.78125,35.390625 C25.78125,36.0369873 25.2557373,36.5625 24.609375,36.5625 C23.9630127,36.5625 23.4375,36.0369873 23.4375,35.390625 C23.4375,34.7442627 23.9630127,34.21875 24.609375,34.21875 Z" id="Shape" fill="#00B4E2"></path>
                <path d="M37.0930481,23.026886 C37.0747376,23.0058288 37.056427,22.9843139 37.0358276,22.9641724 C37.0138549,22.9417419 36.9905091,22.9216003 36.9671631,22.9019166 C34.9017334,20.8580017 32.3501587,19.3460084 29.5811462,18.5284424 C28.9604187,18.3444213 28.3085632,18.6996459 28.1254577,19.3203736 C27.9423523,19.941101 28.2966614,20.5929565 28.9173889,20.776062 C30.9690857,21.3821412 32.8829955,22.4295045 34.5144654,23.8279724 L33.7239075,24.6185303 C33.2666016,25.0762939 33.2666016,25.8183288 33.7239075,26.2760925 C33.9527893,26.5049743 34.2526245,26.6194153 34.5529174,26.6194153 C34.8527527,26.6194153 35.1525879,26.5049743 35.3814697,26.2760925 L36.1738587,25.4837037 C38.29422,27.9492188 39.5535279,30.984192 39.7988892,34.2192077 L38.671875,34.2192077 C38.0245971,34.2192077 37.5,34.743805 37.5,35.3910827 C37.5,36.0379029 38.0245971,36.5629577 38.671875,36.5629577 L39.7988892,36.5629577 C39.5535279,39.7975159 38.29422,42.832489 36.1738587,45.2980042 L35.3814697,44.5056152 C34.9237061,44.0483093 34.1816712,44.0483093 33.7239075,44.5056152 C33.2661438,44.9633789 33.2661438,45.7054138 33.7239075,46.1631775 L34.5162963,46.9551087 C32.0507812,49.07547 29.015808,50.3352356 25.78125,50.580597 L25.78125,49.453125 C25.78125,48.8058471 25.2566529,48.28125 24.609375,48.28125 C23.9620971,48.28125 23.4375,48.8058471 23.4375,49.453125 L23.4375,50.5801392 C20.202942,50.3347779 17.1679687,49.07547 14.7024537,46.9551087 L15.4948425,46.1627197 C15.9526062,45.7049561 15.9526062,44.9629212 15.4948425,44.5051575 C15.0370788,44.0478516 14.2955017,44.0478516 13.8372803,44.5051575 L13.0448913,45.2975463 C10.92453,42.8320312 9.66522211,39.797058 9.41986078,36.5625 L10.546875,36.5625 C11.1941529,36.5625 11.71875,36.037445 11.71875,35.390625 C11.71875,34.7433471 11.1941529,34.21875 10.546875,34.21875 L9.41986078,34.21875 C9.66522211,30.9837341 10.92453,27.948761 13.0448913,25.4832458 L13.8372803,26.2756348 C14.0661621,26.5045166 14.3659973,26.6189576 14.6658326,26.6189576 C14.9661255,26.6189576 15.2659607,26.5045166 15.4948425,26.2756348 C15.9521484,25.8178711 15.9521484,25.0758362 15.4948425,24.6180725 L14.7042846,23.8275146 C16.3357545,22.4290466 18.2496643,21.3816833 20.3013611,20.776062 C20.9220886,20.5924987 21.2763977,19.9406433 21.0932923,19.3199157 C20.9101868,18.6991882 20.2583313,18.3448792 19.6376038,18.5279846 C16.8388366,19.3547058 14.2616272,20.8891296 12.1847534,22.9660034 C8.86138922,26.2898255 7.03125,30.7022095 7.03125,35.390625 C7.03125,40.0506592 8.84033203,44.4374085 12.1257019,47.7539062 C12.1440124,47.7754212 12.162323,47.7969361 12.1829224,47.8170776 C12.2030639,47.8372193 12.2241211,47.8555298 12.2451783,47.8738404 C15.5621338,51.159668 19.9488831,52.96875 24.609375,52.96875 C29.2977905,52.96875 33.7101745,51.1386108 37.0335388,47.8147888 C40.3573608,44.4914245 42.1875,40.0790405 42.1875,35.390625 C42.1875,30.7305908 40.378418,26.3433838 37.0930481,23.026886 L37.0930481,23.026886 Z" id="Path" fill="#00B4E2"></path>
                <path d="M24.609375,20.15625 C25.256195,20.15625 25.78125,19.631195 25.78125,18.984375 C25.78125,18.337555 25.256195,17.8125 24.609375,17.8125 C23.962555,17.8125 23.4375,18.337555 23.4375,18.984375 C23.4375,19.631195 23.962555,20.15625 24.609375,20.15625 Z" id="Path" fill="#00B4E2"></path>
            </g>
        </g>
    </g>
</svg>