<?xml version="1.0" encoding="UTF-8"?>
<svg width="60px" height="60px" viewBox="0 0 60 60" version="1.1" xmlns="http://www.w3.org/2000/svg" xmlns:xlink="http://www.w3.org/1999/xlink">
    <!-- Generator: Sketch 63.1 (92452) - https://sketch.com -->
    <title>illustrations / best ticket</title>
    <desc>Created with Sketch.</desc>
    <g id="illustrations-/-best-ticket" stroke="none" stroke-width="1" fill="none" fill-rule="evenodd">
        <g>
            <rect id="Rectangle-Copy-10" stroke="#979797" fill="#D8D8D8" opacity="0" x="0.5" y="0.5" width="59" height="59"></rect>
            <g id="star" fill-rule="nonzero">
                <path d="M56.2513733,24.208374 C56.5896607,25.9194947 58.7988281,28.1904602 58.7988281,30 C58.7988281,31.8104554 56.5896607,34.0827942 56.2513733,35.7939148 C55.9030151,37.5549316 57.3362732,39.8483276 56.6647338,41.4692688 C55.9803772,43.1190491 53.3377076,43.7237549 52.3571777,45.189972 C51.3679505,46.6685486 51.8133545,49.3382263 50.5604554,50.5911255 C49.3080139,51.843567 46.6383362,51.395874 45.1593018,52.3873901 C43.6935424,53.3683777 43.0888366,56.0096741 41.4385986,56.6940307 C39.8181152,57.36557 37.5247193,55.9336853 35.7623291,56.282959 C34.0512084,56.6203308 31.7802429,58.828125 29.9707031,58.828125 C28.1602478,58.828125 25.8879089,56.6203308 24.1767884,56.282959 C22.4157715,55.9336853 20.1223755,57.36557 18.5014343,56.6940307 C16.851654,56.0096741 16.2469482,53.3683777 14.7807312,52.3873901 C13.3021546,51.395874 10.6324768,51.843567 9.37957758,50.5911255 C8.12713617,49.3373108 8.5748291,46.6662598 7.58331305,45.189972 C6.60232547,43.7237549 3.96102902,43.1190491 3.27667242,41.4692688 C2.60513309,39.8483276 4.03701785,37.5549316 3.68774414,35.7939148 C3.35037234,34.0827942 1.14257812,31.8104554 1.14257812,30 C1.14257812,28.1904602 3.35037234,25.9194947 3.68774414,24.208374 C4.03701785,22.4459838 2.60513309,20.1539612 3.27667242,18.5321045 C3.96102902,16.8818665 6.60232547,16.2771607 7.58331305,14.8114014 C8.5748291,13.3323669 8.12713617,10.6626892 9.37957758,9.41024777 C10.6333923,8.15734863 13.3044434,8.60275266 14.7807312,7.61489871 C16.2469482,6.63299555 16.851654,3.9903259 18.5014343,3.3059693 C20.1223755,2.63442996 22.4157715,4.06768805 24.1767884,3.7193298 C25.8879089,3.38104242 28.1602478,1.171875 29.9707031,1.171875 C31.7802429,1.171875 34.0512084,3.38104242 35.7623291,3.7193298 C37.5247193,4.06768805 39.8181152,2.63442996 41.4385986,3.3059693 C43.0888366,3.9903259 43.6935424,6.63299555 45.1593018,7.61489871 C46.6383362,8.60275266 49.3080139,8.15734863 50.5604554,9.41024777 C51.8133545,10.6626892 51.3679505,13.3323669 52.3571777,14.8114014 C53.3377076,16.2771607 55.9803772,16.8818665 56.6647338,18.5321045 C57.3362732,20.1539612 55.9030151,22.4459838 56.2513733,24.208374 L56.2513733,24.208374 Z" id="Path" fill-opacity="0.1" fill="#00B4E2"></path>
                <path d="M51.7630005,30 C51.7630005,18.3691406 41.5969849,8.203125 29.9661255,8.203125 C18.3352662,8.203125 8.16925055,18.3691406 8.16925055,30 C8.16925055,41.6308594 18.3352662,51.796875 29.9661255,51.796875 C41.5969849,51.796875 51.7630005,41.6308594 51.7630005,30 Z" id="Path" fill="#FFFFFF"></path>
                <polygon id="Path" fill-opacity="0.1" fill="#00B4E2" points="40.5084229 28.3946228 35.2253723 33.5435486 36.4723206 40.8151245 29.943695 37.3814392 23.414154 40.8151245 24.6611023 33.5435486 19.3780518 28.3946228 26.6789245 27.3339844 29.943695 20.7188415 33.2075501 27.3339844"></polygon>
                <path d="M12.8860474,31.171875 C12.2392273,31.171875 11.7141724,31.69693 11.7141724,32.34375 C11.7141724,32.99057 12.2392273,33.515625 12.8860474,33.515625 C13.5328675,33.515625 14.0579224,32.99057 14.0579224,32.34375 C14.0579224,31.69693 13.5328675,31.171875 12.8860474,31.171875 Z" id="Path" fill="#00B4E2"></path>
                <path d="M57.4301147,23.981781 C57.3188782,23.4196472 57.5093079,22.6098633 57.6928711,21.8266296 C57.9702759,20.6460572 58.283844,19.3084717 57.7766419,18.0830384 C57.2589111,16.8356323 56.0778809,16.105957 55.035553,15.4623412 C54.3621826,15.0462341 53.6654663,14.6159363 53.3605957,14.1600036 C53.0488587,13.6940003 52.9147338,12.8796387 52.7856445,12.0922852 C52.5883484,10.8901978 52.364502,9.52743527 51.4183044,8.58123773 C50.4721069,7.63504031 49.1088867,7.41165164 47.9067994,7.21435547 C47.1194459,7.08526617 46.305542,6.95159906 45.8409118,6.64123535 C45.3840638,6.33544922 44.9542236,5.63873297 44.5381165,4.96490484 C43.894043,3.92257687 43.1643677,2.74063113 41.9165039,2.22335812 C40.6919861,1.71569824 39.3544007,2.02972406 38.1742859,2.30667117 C37.3905945,2.49069211 36.5803528,2.68066406 36.0186768,2.56988531 C35.4597473,2.45910645 34.6554565,1.9802857 33.8777161,1.51702875 C32.6257324,0.771331758 31.330719,0 30,0 C28.6683655,0 27.3728943,0.771331758 26.1199951,1.51702875 C25.3422546,1.9802857 24.5379639,2.45910645 23.9790345,2.56988531 C23.4178161,2.68066406 22.6080322,2.49069211 21.8247986,2.30667117 C20.644226,2.02972406 19.3066406,1.71569824 18.081665,2.22335812 C16.8342591,2.74108887 16.1045837,3.92257687 15.4605103,4.96490484 C15.0448608,5.63873297 14.614563,6.33544922 14.1586303,6.64077762 C13.6940003,6.95159906 12.8800964,7.08526617 12.0927429,7.21435547 C10.8901978,7.41165164 9.52743527,7.63549805 8.58032227,8.58169559 C7.63504031,9.52697754 7.41165164,10.8883666 7.21435547,12.0899964 C7.08526617,12.8778076 6.95159906,13.692627 6.63848883,14.1595459 C6.33316043,14.616394 5.6369018,15.0462341 4.96353152,15.4623412 C3.92166141,16.1064148 2.74063113,16.8356323 2.22335812,18.0839538 C1.71615598,19.3084717 2.02926633,20.6455993 2.30575559,21.8252564 C2.48931891,22.60849 2.67929074,23.4187317 2.56759641,23.981781 C2.45727539,24.5411682 1.97845453,25.345459 1.51519781,26.1236572 C0.770416289,27.3756409 -3.33066907e-15,28.6697388 -3.33066907e-15,30 C-3.33066907e-15,31.3311768 0.770416289,32.6261902 1.51565555,33.8786316 C1.97845453,34.6568298 2.45727539,35.4611205 2.56759641,36.0218811 C2.67883301,36.5830993 2.48931891,37.3933411 2.30575559,38.1765748 C2.02926633,39.3566895 1.71615598,40.6938171 2.22335812,41.9178772 C2.74108887,43.1657409 3.92166141,43.8949584 4.96353152,44.539032 C5.6369018,44.9546814 6.33316043,45.3849792 6.63986203,45.8432006 C6.95159906,46.3078308 7.08572391,47.1226501 7.2148132,47.9104615 C7.41165164,49.1116334 7.63504031,50.4730225 8.58032227,51.4196777 C9.52606195,52.3649597 10.8874512,52.5883484 12.088623,52.7856445 C12.876892,52.9147338 13.6917115,53.0484009 14.1586303,53.3615112 C14.6150208,53.6668396 15.0453186,54.3630982 15.4614258,55.0364685 C16.1050416,56.0783386 16.8347168,57.2589111 18.0825806,57.7766419 C19.3061829,58.283844 20.6433105,57.9702759 21.8234252,57.6942444 C22.6066589,57.5106811 23.4173584,57.321167 23.9794922,57.4324036 C24.5384216,57.5427246 25.3431702,58.0215455 26.1213684,58.4843445 C27.3738098,59.2295837 28.6688232,60 30,60 C31.3302612,60 32.624817,59.2295837 33.8763428,58.4848022 C34.654541,58.0215455 35.4592896,57.5427246 36.0191345,57.4324036 C36.5812683,57.321167 37.39151,57.5106811 38.1756592,57.6942444 C39.3553161,57.9707337 40.6924439,58.283844 41.9169616,57.7766419 C43.1643677,57.2593689 43.894043,56.0783386 44.5376588,55.0364685 C44.9537659,54.3630982 45.383606,53.6668396 45.8413697,53.3610534 C46.307373,53.0484009 47.1221924,52.9147338 47.9100036,52.7856445 C49.1111755,52.5883484 50.4730225,52.3649597 51.4183044,51.4196777 C52.364502,50.473938 52.5883484,49.1111755 52.7856445,47.9090882 C52.9147338,47.1212768 53.0488587,46.307373 53.360138,45.8413697 C53.6654663,45.3849792 54.3621826,44.9546814 55.035553,44.5385742 C56.0778809,43.8949584 57.2589111,43.1652832 57.7766419,41.9174194 C58.283844,40.6929016 57.9702759,39.3553161 57.6928711,38.1752014 C57.5093079,37.3919678 57.3193359,36.5826416 57.4301147,36.0214233 C57.5404358,35.4620361 58.0197143,34.6577454 58.4825134,33.8800049 C59.2286682,32.6271057 60,31.3316345 60,30 C60,28.669281 59.2286682,27.3742676 58.4829713,26.1222839 C58.0197143,25.3445435 57.5408936,24.5402527 57.4301147,23.981781 Z M56.4688111,32.6811218 C55.9043884,33.6296081 55.320282,34.6105957 55.1307679,35.5659485 L55.1307679,35.5664062 C54.9215698,36.6247559 55.1705932,37.6849365 55.411377,38.7107849 C55.6173705,39.5874023 55.8297729,40.4937744 55.6118775,41.0202026 C55.3843689,41.5690613 54.5809936,42.0648193 53.8041687,42.5450134 C52.9174805,43.0924988 52.0010377,43.6582946 51.4123535,44.5385742 C50.8186341,45.4266357 50.6428528,46.4955139 50.4730225,47.5291443 C50.3260804,48.4240723 50.1741028,49.3496705 49.7611999,49.7621155 C49.3492126,50.1741028 48.4249877,50.3260804 47.5309753,50.4725647 C46.4955139,50.6423951 45.4252624,50.8181763 44.5372009,51.4137268 C43.6573792,52.0019531 43.0915833,52.9183959 42.5436401,53.8046264 C42.0639037,54.5809936 41.5681458,55.3839111 41.0192871,55.6114196 C40.4924011,55.8297729 39.5864869,55.6173705 38.7098694,55.4122924 C37.6840209,55.1719665 36.6229248,54.9234009 35.5645752,55.1330566 C34.6083069,55.3216553 33.6268616,55.9057617 32.6779174,56.470642 C31.7440795,57.0263672 30.6857299,57.65625 30,57.65625 C29.3133545,57.65625 28.2545471,57.0259095 27.3197937,56.4701843 C26.3708496,55.905304 25.3894043,55.3216553 24.4345092,55.1330566 C23.381195,54.9243164 22.3297119,55.1683044 21.2887573,55.4122924 C20.4125977,55.6173705 19.5062256,55.8297729 18.9797974,55.6118775 C18.4309387,55.3839111 17.9351807,54.5809936 17.4549866,53.8046264 C16.9075012,52.9183959 16.3417054,52.0019531 15.4627991,51.4141846 C14.573822,50.8181763 13.5035706,50.6423951 12.4681091,50.4725647 C11.5745544,50.3260804 10.6498718,50.1745605 10.2383423,49.7625732 C9.82589719,49.3501282 9.6743775,48.4254456 9.52743527,47.5309753 C9.35760492,46.4959717 9.18228152,45.4252624 8.58673102,44.5381165 C7.99804687,43.6587525 7.0820618,43.0924987 6.19583133,42.5450134 C5.41900641,42.0652771 4.61608887,41.5690612 4.38858035,41.0206604 C4.17022711,40.4937744 4.38262945,39.5874023 4.58770758,38.7112427 C4.82803348,37.6849365 5.07659906,36.6242981 4.86694336,35.566864 C4.67834473,34.6105957 4.09469602,33.6291504 3.5298157,32.6802063 C2.97409055,31.7459107 2.34375,30.6866455 2.34375,30 C2.34375,29.3142701 2.97363281,28.2559205 3.52935797,27.3220826 C4.09423828,26.3731384 4.67834473,25.3916931 4.86648562,24.4363404 C5.07659906,23.3775329 4.82803348,22.3164368 4.58770758,21.2905884 C4.38262945,20.413971 4.17022711,19.5080566 4.3881225,18.9811706 C4.61608887,18.4318542 5.41900641,17.9360962 6.19537359,17.4563599 C7.08160406,16.9084167 7.99804687,16.3426208 8.58581543,15.4637146 C9.18182367,14.5747376 9.35760492,13.5044861 9.52743527,12.4690247 C9.67391965,11.5750123 9.82543945,10.6507874 10.2374268,10.2392578 C10.6507874,9.82635492 11.5768432,9.6743775 12.4726868,9.52743527 C13.5063171,9.35760492 14.5747376,9.18228152 15.4623412,8.58856195 C16.3417054,7.9994202 16.9075012,7.08297727 17.4549866,6.1967468 C17.9347229,5.41946414 18.4309387,4.61608887 18.9793396,4.38858035 C19.5062256,4.17022711 20.4125977,4.38262945 21.2892151,4.58862305 C22.3146057,4.8294068 23.3752441,5.07843023 24.4340515,4.86923215 C25.3894043,4.68017578 26.3703919,4.09606934 27.3188782,3.53118891 C28.2536316,2.97454828 29.3133545,2.34375 30,2.34375 C30.6857299,2.34375 31.7445374,2.97454828 32.6783753,3.53073117 C33.6268616,4.0956116 34.6078491,4.67971805 35.5641175,4.86923215 C36.6229248,5.07843023 37.6835632,4.8294068 38.7094116,4.58862305 C39.586029,4.38308719 40.4924011,4.17022711 41.0188294,4.3881225 C41.567688,4.61608887 42.0639037,5.41946414 42.5436401,6.1967468 C43.0911255,7.08297727 43.6573792,7.9994202 44.5376587,8.58947754 C45.4252624,9.18228152 46.4936829,9.35760492 47.5273132,9.52697754 C48.4226989,9.67391965 49.3482971,9.82589719 49.7611999,10.2388001 C50.1736451,10.6512451 50.3260804,11.5768432 50.4730225,12.4717712 C50.6428528,13.5058594 50.8181763,14.5747376 51.4123535,15.4627991 C52.0010377,16.3426208 52.9174805,16.9084167 53.8041687,17.4563599 C54.5809936,17.9360962 55.3839111,18.4318542 55.6114196,18.9802552 C55.8297729,19.5075989 55.6169128,20.413971 55.411377,21.2905884 C55.1705932,22.3164368 54.9215698,23.3770752 55.1307679,24.4358825 C55.320282,25.3921509 55.9043884,26.3731384 56.4692688,27.3216247 C57.0254517,28.2554626 57.65625,29.3142701 57.65625,30 C57.65625,30.6866455 57.0254517,31.7463684 56.4688111,32.6811218 L56.4688111,32.6811218 Z" id="Shape" fill="#00B4E2"></path>
                <path d="M29.9954224,7.03125 C17.7461243,7.03125 7.02667242,17.7104187 7.02667242,30 C7.02667242,42.2492981 17.7058411,52.96875 29.9954224,52.96875 C42.2447204,52.96875 52.9641724,42.2895813 52.9641724,30 C52.9641724,17.7507019 42.2850036,7.03125 29.9954224,7.03125 Z M29.9954224,50.625 C19.0081787,50.625 9.37042242,40.9872436 9.37042242,30 C9.37042242,19.0127564 19.0081787,9.375 29.9954224,9.375 C40.982666,9.375 50.6204224,19.0127564 50.6204224,30 C50.6204224,40.9872436 40.982666,50.625 29.9954224,50.625 Z" id="Shape" fill="#00B4E2"></path>
                <path d="M29.9954224,14.0625 C30.6427002,14.0625 31.1672974,13.5379029 31.1672974,12.890625 C31.1672974,12.2433471 30.6427002,11.71875 29.9954224,11.71875 C21.178894,11.71875 13.1195068,18.9390564 11.8922425,27.4923705 C11.8002319,28.132782 12.2451783,28.7265014 12.8860474,28.818512 C12.9423523,28.8267517 12.9981995,28.8304138 13.0540466,28.8304138 C13.6271667,28.8304138 14.128418,28.4092712 14.2121888,27.824707 C15.2824402,20.3649902 22.5100709,14.0625 29.9954224,14.0625 Z" id="Path" fill="#00B4E2"></path>
                <path d="M40.705719,27.2346497 L34.0150452,26.2628174 L31.0240173,20.2001953 C30.8267213,19.8001099 30.4193115,19.5469665 29.9729919,19.5469665 C29.5271302,19.5469665 29.1197204,19.8001099 28.9224244,20.2001953 L25.9300232,26.2628174 L19.2388916,27.2346497 C18.7976074,27.2987366 18.4309388,27.6081848 18.2931518,28.0325318 C18.155365,28.4564209 18.2702637,28.9224244 18.5897827,29.2337037 L23.4310913,33.9527893 L22.2885131,40.6173705 C22.2129821,41.0568237 22.3937988,41.5013122 22.7549743,41.763153 C23.1156921,42.0254517 23.5940552,42.0597839 23.9891052,41.852417 L29.9729919,38.7057495 L35.9559632,41.852417 C36.3468933,42.0574951 36.8257141,42.0281982 37.1905518,41.763153 C37.5512695,41.5013122 37.7320862,41.0568237 37.6565552,40.6169128 L36.5139771,33.9527893 L41.3557434,29.2337037 C41.6752624,28.9219665 41.7901611,28.4564209 41.6523743,28.0320739 C41.5141296,27.6081848 41.1474609,27.2987366 40.705719,27.2346497 L40.705719,27.2346497 Z M34.4366455,32.7044678 C34.160614,32.9736328 34.0342712,33.3618164 34.0997314,33.7417603 L34.945221,38.6727905 L30.5186462,36.3446045 C30.1771546,36.1651611 29.7692871,36.1651611 29.4277955,36.3446045 L24.9998474,38.6727905 L25.8453369,33.7417603 C25.9103393,33.3618164 25.7844544,32.9740905 25.5084229,32.7044678 L21.9259643,29.2131042 L26.8766784,28.4939576 C27.2584534,28.4385681 27.588501,28.1986999 27.7592468,27.8526306 L29.9729919,23.3670045 L32.1858216,27.8526306 C32.3565674,28.1986999 32.686615,28.4385681 33.0683899,28.4939576 L38.0191041,29.2131042 L34.4366455,32.7044678 Z" id="Shape" fill="#00B4E2"></path>
            </g>
        </g>
    </g>
</svg>