<?xml version="1.0" encoding="UTF-8"?>
<svg width="60px" height="60px" viewBox="0 0 60 60" version="1.1" xmlns="http://www.w3.org/2000/svg" xmlns:xlink="http://www.w3.org/1999/xlink">
    <!-- Generator: Sketch 63.1 (92452) - https://sketch.com -->
    <title>illustrations / best prices</title>
    <desc>Created with Sketch.</desc>
    <g id="illustrations-/-best-prices" stroke="none" stroke-width="1" fill="none" fill-rule="evenodd">
        <g>
            <rect id="Rectangle" stroke="#979797" fill="#D8D8D8" opacity="0" x="0.5" y="0.5" width="59" height="59"></rect>
            <g id="payment" fill="#00B4E2" fill-rule="nonzero">
                <path d="M56.6192127,26.9641113 C55.1662257,25.7194519 52.9991275,25.9011841 51.7676681,27.379303 L43.8858783,35.615387 L43.893983,35.615387 C43.4675874,34.1258239 42.1141077,33.0377197 40.512085,33.0377197 L27.4581659,33.0377197 C25.7642902,32.2846985 23.8916617,31.8663025 21.923578,31.8663025 C16.470487,31.8663025 11.7549209,34.553833 9.50317377,39.6464538 L19.9230757,50.1860046 L19.9424369,50.1704407 L21.7367204,48.4107971 C22.595365,47.5675964 23.743076,47.0965576 24.9367136,47.0965576 L40.2946097,47.0965576 C42.6859371,47.0965576 44.9831603,46.1480713 46.6972976,44.4520569 L57.0275979,31.8960572 C58.2541044,30.4206848 58.0717494,28.2124329 56.6192127,26.9641113 L56.6192127,26.9641113 Z" id="Path" fill-opacity="0.1"></path>
                <path d="M19.7006475,53.2388306 L14.119683,58.8285827 L1.1810303,45.5735779 L6.66293791,39.9838256 C7.56255603,39.0692139 9.02274713,39.0687561 9.9228156,39.9838256 L19.7006475,49.9246216 C20.6061191,50.8451843 20.5953129,52.3292542 19.7006475,53.2388306 L19.7006475,53.2388306 Z" id="Path" fill-opacity="0.1"></path>
                <path d="M27.1790051,40.6951904 C27.6288141,40.236969 27.6288141,39.4953919 27.1790051,39.0371705 C26.7287458,38.5803223 25.9993256,38.5803223 25.5486161,39.0371705 C25.0992572,39.4953919 25.0992572,40.236969 25.5486161,40.6951904 C25.9993256,41.1520385 26.7287458,41.1520385 27.1790051,40.6951904 Z" id="Path"></path>
                <path d="M21.7218618,12.8869629 C21.7218618,19.9928284 27.4081871,25.7743835 34.397563,25.7743835 C41.3869389,25.7743835 47.0732642,19.9928284 47.0732642,12.8869629 C47.0732642,5.78109738 41.3869389,0 34.397563,0 C27.4081871,0 21.7218618,5.78109738 21.7218618,12.8869629 Z M44.7688368,12.8869629 C44.7688368,18.7010193 40.116307,23.4310912 34.397563,23.4310912 C28.6788191,23.4310912 24.0262891,18.7010193 24.0262891,12.8869629 C24.0262891,7.07336426 28.6788191,2.34329227 34.397563,2.34329227 C40.116307,2.34329227 44.7688368,7.07336426 44.7688368,12.8869629 Z" id="Shape"></path>
                <path d="M13.3308286,59.6534729 C13.7774859,60.1112366 14.5046547,60.116272 14.9571654,59.6630859 L20.5439834,54.0673828 C21.4931301,53.102417 21.7817463,51.6737366 21.3643558,50.4318237 L22.5660981,49.25354 C23.2131208,48.6181641 24.0650115,48.2679749 24.9655302,48.2679749 L40.284704,48.2679749 C43.0024694,48.2679749 45.571199,47.2068786 47.5185707,45.2801514 C47.5987168,45.2009583 46.9102703,46.0253906 57.9695405,32.5872803 C59.6098353,30.6143189 59.3644439,27.6516724 57.4220251,25.9822083 C55.4917633,24.328308 52.6001978,24.5658874 50.9554003,26.5049743 L44.1555836,33.6103821 C43.296939,32.5360107 41.9875848,31.8663025 40.57287,31.8663025 L27.7229184,31.8663025 C25.8944152,31.088562 23.9542476,30.6948853 21.9523946,30.6948853 C16.4033984,30.6948853 11.5581576,33.300476 8.95790978,38.1857299 C7.86242882,37.9747009 6.70706327,38.311615 5.87588445,39.1566468 L0.39397696,44.746399 C-0.0535808914,45.2027893 -0.0544813525,45.9411621 0.392175922,46.3989258 L13.3308286,59.6534729 Z M21.9519443,33.0377197 C23.7169609,33.0377197 25.4234439,33.3988952 27.0250164,34.1111755 C27.1709004,34.176178 27.328041,34.2095947 27.4869825,34.2095947 L40.57287,34.2095947 C41.8223396,34.2095947 42.8777476,35.2455139 42.8777476,36.5524291 C42.8777476,37.844696 41.8439521,38.8957214 40.57287,38.8957214 L31.1710045,38.8957214 C30.534788,38.8957214 30.0187909,39.4203186 30.0187909,40.0671387 C30.0187909,40.7144166 30.534788,41.2385559 31.1710045,41.2385559 L40.57287,41.2385559 C43.114584,41.2385559 45.182175,39.1365052 45.182175,36.5524291 C45.182175,36.3464355 45.1677667,36.1422729 45.1416516,35.9399414 C51.7194904,29.0657044 52.6470247,28.099823 52.6866476,28.0517578 C53.5079206,27.0661927 54.9658603,26.9412232 55.935719,27.772522 C56.9064781,28.6070251 57.029399,30.0883484 56.2058746,31.0794068 L45.8701712,43.6413574 C44.3609019,45.1144409 42.3793104,45.9251404 40.284704,45.9251404 L24.9655302,45.9251404 C23.4643654,45.9251404 22.0433469,46.5087891 20.9654261,47.5675964 L19.986112,48.5284424 L10.958412,39.3507386 C13.0683274,35.3265381 17.0274578,33.0377197 21.9519443,33.0377197 L21.9519443,33.0377197 Z M7.50672387,40.8123779 C7.88674276,40.4260254 8.47027888,40.3564453 8.93359572,40.647583 C9.13306064,40.7711791 8.56033075,40.2410889 18.9144947,50.7531738 C19.3751101,51.2214661 19.3503458,51.9676208 18.9207984,52.4043274 L14.157955,57.1746826 L2.83528309,45.5754089 L7.50672387,40.8123779 Z" id="Shape"></path>
                <path d="M32.9859999,5.89416504 L32.9859999,7.23083496 C31.6446773,7.7142334 30.6811223,9.01657102 30.6811223,10.5441284 C30.6811223,12.4749756 32.220559,14.0473938 34.1175017,14.0583802 C34.7037394,14.0620423 35.2174853,14.5024109 35.2832231,15.0947571 C35.3615683,15.8010865 34.817655,16.4016724 34.1382136,16.4016724 C33.6519335,16.4016724 33.1273814,16.094513 32.6591117,15.536499 C32.2921503,15.0984192 31.6622374,14.9633789 31.1764076,15.2581787 C30.5482959,15.6394958 30.4276263,16.4785767 30.8778856,17.0233154 C31.4938404,17.768097 32.2183078,18.2872009 32.9859999,18.5490417 L32.9859999,19.8797607 C32.9859999,20.4666138 33.3957359,20.9916687 33.9671151,21.0754395 C34.6794253,21.1793518 35.2904272,20.6204224 35.2904272,19.9163818 L35.2904272,18.5430908 C36.6317499,18.0596924 37.5953049,16.7573548 37.5953049,15.2297974 C37.5953049,13.2989502 36.0558682,11.7269897 34.1589255,11.7155456 C33.5726879,11.7118835 33.058942,11.2715149 32.9932041,10.6791687 C32.914859,9.9728393 33.4587723,9.37225336 34.1382136,9.37225336 C34.5371434,9.37225336 34.9581359,9.57458496 35.3570657,9.95819086 C35.770854,10.355072 36.4084212,10.4342651 36.8654345,10.0895691 C37.4543737,9.64599609 37.4912949,8.79638672 36.9874548,8.30062863 C36.4025679,7.72521973 35.8172307,7.39974973 35.2904272,7.22213742 L35.2904272,5.85800168 C35.2904272,5.15350336 34.6794253,4.59457395 33.9671151,4.69894406 C33.3957359,4.78225711 32.9859999,5.30731195 32.9859999,5.89416504 L32.9859999,5.89416504 Z" id="Path"></path>
            </g>
        </g>
    </g>
</svg>