<?xml version="1.0" encoding="UTF-8"?>
<svg width="60px" height="60px" viewBox="0 0 60 60" version="1.1" xmlns="http://www.w3.org/2000/svg" xmlns:xlink="http://www.w3.org/1999/xlink">
    <!-- Generator: Sketch 63.1 (92452) - https://sketch.com -->
    <title>illustrations / best deals</title>
    <desc>Created with Sketch.</desc>
    <g id="illustrations-/-best-deals" stroke="none" stroke-width="1" fill="none" fill-rule="evenodd">
        <g>
            <rect id="Rectangle-Copy" stroke="#979797" fill="#D8D8D8" opacity="0" x="0.5" y="0.5" width="59" height="59"></rect>
            <g id="discount" fill-rule="nonzero">
                <path d="M49.6833802,10.2868652 C48.7683105,9.37179562 47.2837829,9.37179562 46.3682556,10.2868652 C45.4531861,11.2023926 45.4531861,12.6869202 46.3682556,13.6019897 C47.2837829,14.517517 48.7683105,14.517517 49.6833802,13.6019897 C50.5989075,12.6869202 50.5989075,11.2023926 49.6833802,10.2868652 Z M52.9975891,6.97311398 C55.7899475,9.76547238 55.8274841,14.2547607 53.0818177,17.0004272 L58.1117249,21.8884277 C59.0267944,22.8034973 59.0267944,24.2871094 58.1117249,25.202179 L25.031433,58.1410218 C24.1159057,59.0560912 22.6313782,59.0560912 21.7163086,58.1410218 L16.5188599,52.943573 C13.8963318,54.1740417 10.6562805,53.7098694 8.45901492,51.5116882 C6.26037598,49.3144226 5.79666141,46.0743714 7.02713016,43.4518432 L1.82968137,38.2543945 C0.914611875,37.3393249 0.914611875,35.8543396 1.82968137,34.9392701 L34.7680664,1.85897824 C35.6835938,0.94390875 37.1672058,0.94390875 38.0822754,1.85897824 L42.9698181,6.88842773 C45.7154846,4.14276117 50.2052307,4.18029785 52.9975891,6.97311398 Z" id="Shape" fill-opacity="0.1" fill="#00B4E2"></path>
                <polygon id="Path" fill="#FFFFFF" points="7.63000488 35.7678223 35.5961609 7.80166629 52.1685791 24.3740845 24.2024231 52.3397827"></polygon>
                <path d="M31.5797425,21.7630005 C32.494812,22.67807 32.494812,24.1616822 31.5797425,25.0767517 C30.6642151,25.992279 29.1796875,25.992279 28.2646179,25.0767517 C27.3490905,24.1616822 27.3490905,22.67807 28.2646179,21.7630005 C29.1796875,20.8479309 30.6642151,20.8479309 31.5797425,21.7630005 Z" id="Path" fill="#E5F7FC"></path>
                <path d="M32.266388,36.6778564 C32.266388,37.9724121 31.2167358,39.0220642 29.9221802,39.0220642 C28.6271667,39.0220642 27.5779724,37.9724121 27.5779724,36.6778564 C27.5779724,35.382843 28.6271667,34.3336487 29.9221802,34.3336487 C31.2167358,34.3336487 32.266388,35.382843 32.266388,36.6778564 Z" id="Path" fill="#E5F7FC"></path>
                <path d="M20.836029,24.2486572 C21.2942505,23.7904358 21.2942505,23.0484009 20.836029,22.5915527 C20.3791809,22.1333313 19.6371459,22.1333313 19.1789245,22.5915527 C18.7207031,23.0484009 18.7207031,23.7904358 19.1789245,24.2486572 C19.6371459,24.7055053 20.3791809,24.7055053 20.836029,24.2486572 Z" id="Path" fill="#00B4E2"></path>
                <path d="M32.4375915,25.9057617 C33.808136,24.5352173 33.808136,22.3049927 32.4375915,20.9344482 C31.0638428,19.5606995 28.8391113,19.5602416 27.4653626,20.9344482 C26.091156,22.308197 26.091156,24.5315552 27.4653626,25.9057617 C28.835907,27.2763061 31.0665893,27.2767639 32.4375915,25.9057617 Z M29.1224671,22.5915527 C29.5806885,22.1337891 30.3222656,22.1337891 30.780487,22.5915527 C31.2368775,23.0484009 31.2368775,23.7913513 30.780487,24.2481995 C30.3231811,24.7050476 29.5793152,24.7055053 29.1224671,24.2481995 C28.6651611,23.7913513 28.6633301,23.0506897 29.1224671,22.5915527 Z" id="Shape" fill="#00B4E2"></path>
                <path d="M27.4653626,34.1912842 C26.091156,35.5654908 26.091156,37.7897644 27.4653626,39.163971 C28.8391113,40.5377197 31.063385,40.5381775 32.4375915,39.163971 C33.8085937,37.7929688 33.8085937,35.5622864 32.4375915,34.1912842 C31.0638428,32.8179932 28.8391113,32.8175354 27.4653626,34.1912842 L27.4653626,34.1912842 Z M30.780487,37.5068665 C30.3222656,37.9646302 29.5802307,37.9646302 29.1224671,37.5068665 C28.6651611,37.0495605 28.6633301,36.3079834 29.1224671,35.8488464 C29.5806885,35.390625 30.3222656,35.3910827 30.780487,35.8488464 C31.2373352,36.3056946 31.2373352,37.0495605 30.780487,37.5068665 Z" id="Shape" fill="#00B4E2"></path>
                <path d="M20.5155945,31.9358825 C20.6423951,32.5712585 21.260376,32.9818725 21.8943786,32.855072 L38.4667969,29.5399475 C39.1012573,29.413147 39.5127868,28.7956238 39.3859863,28.1611634 C39.2591858,27.5262451 38.6416627,27.1151733 38.0072021,27.2419739 L21.4347839,30.5570984 C20.7998658,30.683899 20.3883362,31.3014221 20.5155945,31.9358825 Z" id="Path" fill="#00B4E2"></path>
                <path d="M35.6259155,6.62979129 C35.315094,6.62979129 35.0170898,6.75292969 34.7973633,6.97265625 L22.4940491,19.2759704 C22.0362854,19.7337341 22.0362854,20.475769 22.4940491,20.9335327 C22.9518128,21.3912963 23.6938477,21.3912963 24.1511536,20.9335327 L35.6259155,9.45877078 L50.5407715,24.3740845 L24.2321777,50.6826783 L9.31686398,35.7678223 L17.5222779,27.5624085 C17.9800416,27.1051025 17.9800416,26.3630677 17.5222779,25.905304 C17.0645142,25.447998 16.3224792,25.447998 15.8647155,25.905304 L6.8312073,34.9392701 C6.37344363,35.3965759 6.37344363,36.1386108 6.8312073,36.5963745 L23.4036255,53.1687927 C23.8613892,53.6265564 24.6029662,53.6265564 25.0607299,53.1687927 L53.026886,25.2026367 C53.4846497,24.744873 53.4846497,24.0028382 53.026886,23.5450745 L36.4544678,6.97265625 C36.2347412,6.75292969 35.936737,6.62979129 35.6259155,6.62979129 Z" id="Path" fill="#00B4E2"></path>
                <path d="M57.999115,0.343780547 L52.9692077,5.37322992 C50.0344849,3.15719602 45.981903,3.12103266 43.0718994,5.28167719 L38.9520264,1.04232785 C38.9479065,1.03820801 38.9442444,1.0345459 38.9401245,1.03042605 C37.5732422,-0.336456328 35.3503418,-0.351104766 33.9669799,1.03225711 L1.03042605,34.1107178 C-0.343322812,35.4844665 -0.343780547,37.709198 1.03042605,39.0834046 L5.67855832,43.7310791 C4.64035031,46.7024231 5.38925168,50.071106 7.65930176,52.3402405 C9.92889398,54.6107483 13.2975769,55.359192 16.2689209,54.3218994 L20.9170533,58.9695739 C22.290802,60.3433228 24.5164489,60.342865 25.8874512,58.971405 L58.9695739,26.0311889 C60.3437805,24.6569824 60.3437805,22.4336243 58.9695739,21.0598755 C58.9654541,21.0557556 58.961792,21.0520935 58.9576721,21.0479736 L54.7187805,16.9290162 C56.8716431,14.0386963 56.8634033,9.98428348 54.6267701,7.03079227 L59.6562195,2.00134277 C60.1139831,1.5435791 60.1139831,0.801544219 59.6562195,0.343780547 C59.1984558,-0.113983125 58.4568786,-0.113983125 57.999115,0.343780547 Z M52.2825622,16.171875 C52.0610046,16.3938904 51.9374085,16.6950989 51.9392395,17.0091247 C51.9415283,17.3226928 52.0697021,17.622528 52.2944641,17.8408814 L57.3170471,22.7220154 C57.7716064,23.1816101 57.766571,23.9195251 57.3138428,24.3717956 L24.2321777,57.3120117 C23.7748718,57.7693177 23.0310059,57.7693177 22.5741577,57.3120117 L17.376709,52.1150208 C17.1524048,51.8902588 16.8521119,51.771698 16.5481568,51.771698 C16.3796998,51.771698 16.2098694,51.8078613 16.0505677,51.8824768 C13.7969971,52.9399109 11.0906982,52.4578857 9.31686398,50.6826783 C7.54165652,48.908844 7.05963141,46.2030029 8.11706543,43.9494323 C8.32672125,43.5021973 8.23425293,42.9721069 7.88497922,42.6228333 L2.68798828,37.4258423 C2.23068234,36.9685364 2.23068234,36.2251282 2.6893616,35.7659912 L35.6263733,2.68753055 C36.0823059,2.23205566 36.8193054,2.22930914 37.2779846,2.68249512 L42.1586609,7.70507812 C42.5962829,8.15551758 43.345642,8.19946289 43.828125,7.71743777 C45.8340455,5.71060184 48.9752197,5.49636844 51.2892151,7.05322266 L49.5703125,8.77212527 C48.2633972,8.14956668 46.6493225,8.37799078 45.5690003,9.45831305 C44.1984558,10.8293152 44.1984558,13.0599975 45.5690003,14.430542 C46.942749,15.8042907 49.1674805,15.8047486 50.541687,14.430542 C51.6467285,13.3255005 51.8403626,11.7045593 51.229248,10.4278564 L52.9476928,8.70941156 C54.4926452,10.996399 54.3145752,14.1403198 52.2825622,16.171875 Z M48.8841247,11.1154174 C49.3414307,11.5727234 49.3432617,12.3143005 48.8841247,12.7734375 C48.4263611,13.2312012 47.6843262,13.2312012 47.2265625,12.7734375 C46.7692566,12.3161316 46.7692566,11.5722656 47.2261048,11.1154174 C47.6834107,10.6590271 48.4272766,10.6581116 48.8841247,11.1154174 L48.8841247,11.1154174 Z" id="Shape" fill="#00B4E2"></path>
            </g>
        </g>
    </g>
</svg>