<svg width="86" height="46" viewBox="0 0 86 46" fill="none" xmlns="http://www.w3.org/2000/svg"><ellipse cx="43" cy="42" rx="43" ry="4" fill="#C2C2C2" fill-opacity=".285"/><path d="M68.781 4.688A4.701 4.701 0 0 0 64.094 0H50.032a4.701 4.701 0 0 0-4.687 4.688v22.5H68.78v-22.5Z" fill="#00ADE6"/><path d="M17.219 33.75h1.875v6.563h-1.875V33.75Z" fill="#BABFC5"/><path d="M40.655 4.688A4.701 4.701 0 0 0 35.968 0H21.906a4.701 4.701 0 0 0-4.687 4.688v22.5h23.436v-22.5Z" fill="#00ADE6"/><path d="M20.97 40.781a.47.47 0 0 0-.47-.468h-4.688a.47.47 0 0 0-.47.468v.938a.47.47 0 0 0 .47.468H20.5a.47.47 0 0 0 .469-.468v-.938ZM45.813 40.781a.47.47 0 0 0-.468-.468h-4.69a.47.47 0 0 0-.468.468v.938a.47.47 0 0 0 .468.468h4.69a.47.47 0 0 0 .468-.468v-.938ZM70.657 40.781a.47.47 0 0 0-.469-.468H65.5a.47.47 0 0 0-.469.468v.938a.47.47 0 0 0 .47.468h4.688a.47.47 0 0 0 .47-.468v-.938Z" fill="#BABFC5"/><path d="M66.906 33.75h1.875v6.563h-1.875V33.75ZM42.063 21.55h1.874v18.762h-1.874V21.55Z" fill="#BABFC5"/><path d="M23.313 22.031a.469.469 0 0 1-.47-.468v-15a.469.469 0 0 1 .938 0v15c0 .258-.21.468-.468.468ZM28.938 22.031a.469.469 0 0 1-.47-.468v-15a.469.469 0 0 1 .938 0v15c0 .258-.21.468-.468.468ZM34.563 22.031a.469.469 0 0 1-.47-.468v-15a.469.469 0 0 1 .938 0v15c0 .258-.21.468-.468.468ZM51.438 22.031a.469.469 0 0 1-.47-.468v-15a.469.469 0 0 1 .938 0v15c0 .258-.21.468-.468.468ZM57.063 22.031a.469.469 0 0 1-.47-.468v-15a.469.469 0 0 1 .938 0v15c0 .258-.21.468-.468.468ZM62.688 22.031a.469.469 0 0 1-.47-.468v-15a.469.469 0 0 1 .938 0v15c0 .258-.21.468-.468.468Z" fill="#fff"/><path d="M15.344 21.563h1.875v7.5h-1.875v-7.5Z" fill="#BABFC5"/><path d="M19.094 21.094a.47.47 0 0 1-.469.468h-4.688a.47.47 0 0 1-.468-.468v-1.875a.47.47 0 0 1 .469-.469h4.687a.47.47 0 0 1 .469.469v1.875Z" fill="#CCD1D9"/><path d="M68.781 21.563h1.875v7.5h-1.875v-7.5Z" fill="#BABFC5"/><path d="M72.531 21.094a.47.47 0 0 1-.469.468h-4.687a.47.47 0 0 1-.469-.468v-1.875a.47.47 0 0 1 .469-.469h4.688a.47.47 0 0 1 .468.469v1.875Z" fill="#CCD1D9"/><path d="M42.062 33.75v-4.688a1.88 1.88 0 0 0-1.875-1.875H17.219a1.88 1.88 0 0 0-1.875 1.875v4.688h26.718ZM70.656 33.75v-4.688a1.88 1.88 0 0 0-1.875-1.875H45.813a1.88 1.88 0 0 0-1.875 1.875v4.688h26.718Z" fill="#00ADE6"/><path d="M46.281 21.094a.47.47 0 0 1-.468.468h-5.626a.47.47 0 0 1-.468-.468v-1.875a.47.47 0 0 1 .468-.469h5.626a.47.47 0 0 1 .468.469v1.875Z" fill="#CCD1D9"/></svg>