<svg width="42" height="39" viewBox="0 0 42 39" fill="none" xmlns="http://www.w3.org/2000/svg">
<path d="M18.5784 35.7394H9.04449L8.19703 28.6949L2.37076 24.5106C2.10593 23.2924 2 22.0212 2 20.75C2 10.3686 10.4216 2 20.75 2C31.1314 2 39.5 10.4216 39.5 20.75C39.5 22.0212 39.3941 23.2924 39.1292 24.5106L33.3559 28.6949L32.4555 35.7394H22.9216L22.3919 36.1631C21.9153 36.5339 21.3326 36.6928 20.75 36.6928C20.1674 36.6928 19.5847 36.4809 19.108 36.1631L18.5784 35.7394V35.7394Z" stroke="white" stroke-width="3.08753" stroke-miterlimit="40"/>
<path d="M18.5784 35.7394H9.04449L8.19703 28.6949L2.37076 24.5106C2.10593 23.2924 2 22.0212 2 20.75C2 10.3686 10.4216 2 20.75 2C31.1314 2 39.5 10.4216 39.5 20.75C39.5 22.0212 39.3941 23.2924 39.1292 24.5106L33.3559 28.6949L32.4555 35.7394H22.9216L22.3919 36.1631C21.9153 36.5339 21.3326 36.6928 20.75 36.6928C20.1674 36.6928 19.5847 36.4809 19.108 36.1631L18.5784 35.7394Z" fill="#FBCE07"/>
<path fill-rule="evenodd" clip-rule="evenodd" d="M18.5784 35.7394H9.04449L8.19703 28.6949L2.37076 24.5106C2.10593 23.2924 2 22.0212 2 20.75C2 10.3686 10.4216 2 20.75 2C31.0784 2 39.5 10.4216 39.5 20.75C39.5 22.0212 39.3941 23.2924 39.1292 24.5106L33.3559 28.6949L32.4555 35.7394H22.9216L22.3919 36.1631C21.9153 36.5339 21.3326 36.6928 20.75 36.6928C20.1674 36.6928 19.5847 36.4809 19.108 36.1631L18.5784 35.7394ZM18.8962 32.4555H11.9576L11.2691 26.8411L5.54873 22.7097C5.38983 22.0742 5.2839 21.3856 5.2839 20.697C5.2839 19.5847 5.49576 18.4725 5.97246 17.4661L16.089 27.6886L6.29025 15.5593C6.66102 13.9703 7.50847 12.5932 8.7267 11.4809L17.5191 26.6822L9.73305 10.1038C10.7394 8.77966 12.1695 7.7733 13.7585 7.29661L19.161 26.1525L15.2415 6.50212C16.4597 5.81356 17.7839 5.49576 19.161 5.49576C19.4258 5.49576 19.7436 5.49576 20.0085 5.54873L20.803 25.9407L21.5975 5.54873C21.8623 5.49576 22.1801 5.49576 22.4449 5.49576C23.822 5.49576 25.1462 5.86652 26.3644 6.50212L22.4449 26.1525L27.8475 7.24364C29.4364 7.72034 30.8665 8.72669 31.8729 10.0508L24.0339 26.6822L32.8263 11.4809C34.0445 12.5403 34.8919 13.9703 35.2627 15.5593L25.464 27.6886L35.5805 17.4661C36.0572 18.4725 36.2691 19.5847 36.2691 20.697C36.2691 21.3856 36.1631 22.0212 36.0042 22.7097L30.2839 26.8411L29.5953 32.4555H22.7097L21.6504 33.197C21.3856 33.4089 21.0678 33.4619 20.75 33.4619C20.4322 33.4619 20.1144 33.3559 19.8496 33.197L18.8962 32.4555Z" fill="#DD1D21"/>
</svg>
