<svg width="86" height="46" viewBox="0 0 86 46" fill="none" xmlns="http://www.w3.org/2000/svg">
<ellipse cx="43" cy="42" rx="43" ry="4" fill="#C2C2C2" fill-opacity="0.284665"/>
<path d="M68.7812 4.6875C68.7812 2.10938 66.6719 0 64.0938 0H50.0322C47.454 0 45.3447 2.10938 45.3447 4.6875V27.1875H68.7812V4.6875Z" fill="#0072C9"/>
<path d="M17.2188 33.75H19.0938V40.3125H17.2188V33.75Z" fill="#BABFC5"/>
<path d="M40.6553 4.6875C40.6553 2.10938 38.546 0 35.9678 0H21.9062C19.3281 0 17.2188 2.10938 17.2188 4.6875V27.1875H40.6553V4.6875Z" fill="#0072C9"/>
<path d="M20.9697 40.7812C20.9697 40.5235 20.7586 40.3125 20.5009 40.3125H15.8116C15.5539 40.3125 15.3428 40.5235 15.3428 40.7812V41.7188C15.3428 41.9765 15.5539 42.1875 15.8116 42.1875H20.5009C20.7586 42.1875 20.9697 41.9765 20.9697 41.7188V40.7812Z" fill="#BABFC5"/>
<path d="M45.8134 40.7812C45.8134 40.5235 45.6024 40.3125 45.3447 40.3125H40.6553C40.3976 40.3125 40.1866 40.5235 40.1866 40.7812V41.7188C40.1866 41.9765 40.3976 42.1875 40.6553 42.1875H45.3447C45.6024 42.1875 45.8134 41.9765 45.8134 41.7188V40.7812Z" fill="#BABFC5"/>
<path d="M70.6572 40.7812C70.6572 40.5235 70.4461 40.3125 70.1884 40.3125H65.4991C65.2414 40.3125 65.0303 40.5235 65.0303 40.7812V41.7188C65.0303 41.9765 65.2414 42.1875 65.4991 42.1875H70.1884C70.4461 42.1875 70.6572 41.9765 70.6572 41.7188V40.7812Z" fill="#BABFC5"/>
<path d="M66.9062 33.75H68.7812V40.3125H66.9062V33.75Z" fill="#BABFC5"/>
<path d="M42.0625 21.55H43.9375V40.3124H42.0625V21.55Z" fill="#BABFC5"/>
<path d="M23.3125 22.0312C23.0539 22.0312 22.8438 21.8211 22.8438 21.5625V6.5625C22.8438 6.30386 23.0539 6.09375 23.3125 6.09375C23.5711 6.09375 23.7812 6.30386 23.7812 6.5625V21.5625C23.7812 21.8211 23.5711 22.0312 23.3125 22.0312Z" fill="white"/>
<path d="M28.9375 22.0312C28.6789 22.0312 28.4688 21.8211 28.4688 21.5625V6.5625C28.4688 6.30386 28.6789 6.09375 28.9375 6.09375C29.1961 6.09375 29.4062 6.30386 29.4062 6.5625V21.5625C29.4062 21.8211 29.1961 22.0312 28.9375 22.0312Z" fill="white"/>
<path d="M34.5625 22.0312C34.3039 22.0312 34.0938 21.8211 34.0938 21.5625V6.5625C34.0938 6.30386 34.3039 6.09375 34.5625 6.09375C34.8211 6.09375 35.0312 6.30386 35.0312 6.5625V21.5625C35.0312 21.8211 34.8211 22.0312 34.5625 22.0312Z" fill="white"/>
<path d="M51.4375 22.0312C51.1789 22.0312 50.9688 21.8211 50.9688 21.5625V6.5625C50.9688 6.30386 51.1789 6.09375 51.4375 6.09375C51.6961 6.09375 51.9062 6.30386 51.9062 6.5625V21.5625C51.9062 21.8211 51.6961 22.0312 51.4375 22.0312Z" fill="white"/>
<path d="M57.0625 22.0312C56.8039 22.0312 56.5938 21.8211 56.5938 21.5625V6.5625C56.5938 6.30386 56.8039 6.09375 57.0625 6.09375C57.3211 6.09375 57.5312 6.30386 57.5312 6.5625V21.5625C57.5312 21.8211 57.3211 22.0312 57.0625 22.0312Z" fill="white"/>
<path d="M62.6875 22.0312C62.4289 22.0312 62.2188 21.8211 62.2188 21.5625V6.5625C62.2188 6.30386 62.4289 6.09375 62.6875 6.09375C62.9461 6.09375 63.1562 6.30386 63.1562 6.5625V21.5625C63.1562 21.8211 62.9461 22.0312 62.6875 22.0312Z" fill="white"/>
<path d="M15.3438 21.5625H17.2188V29.0625H15.3438V21.5625Z" fill="#BABFC5"/>
<path d="M19.0938 21.0938C19.0938 21.3515 18.8827 21.5625 18.625 21.5625H13.9375C13.6798 21.5625 13.4688 21.3515 13.4688 21.0938V19.2188C13.4688 18.961 13.6798 18.75 13.9375 18.75H18.625C18.8827 18.75 19.0938 18.961 19.0938 19.2188V21.0938Z" fill="#CCD1D9"/>
<path d="M68.7812 21.5625H70.6562V29.0625H68.7812V21.5625Z" fill="#BABFC5"/>
<path d="M72.5312 21.0938C72.5312 21.3515 72.3202 21.5625 72.0625 21.5625H67.375C67.1173 21.5625 66.9062 21.3515 66.9062 21.0938V19.2188C66.9062 18.961 67.1173 18.75 67.375 18.75H72.0625C72.3202 18.75 72.5312 18.961 72.5312 19.2188V21.0938Z" fill="#CCD1D9"/>
<path d="M42.0616 33.75V29.0625C42.0616 28.0312 41.2179 27.1875 40.1866 27.1875H17.2188C16.1874 27.1875 15.3438 28.0312 15.3438 29.0625V33.75H42.0616Z" fill="#0072C9"/>
<path d="M70.6562 33.75V29.0625C70.6562 28.0312 69.8126 27.1875 68.7812 27.1875H45.8134C44.7821 27.1875 43.9384 28.0312 43.9384 29.0625V33.75H70.6562Z" fill="#0072C9"/>
<path d="M46.2812 21.0938C46.2812 21.3515 46.0702 21.5625 45.8125 21.5625H40.1875C39.9298 21.5625 39.7188 21.3515 39.7188 21.0938V19.2188C39.7188 18.961 39.9298 18.75 40.1875 18.75H45.8125C46.0702 18.75 46.2812 18.961 46.2812 19.2188V21.0938Z" fill="#CCD1D9"/>
</svg>
