<?xml version="1.0" encoding="UTF-8"?>
<svg width="130px" height="44px" viewBox="0 0 130 44" version="1.1" xmlns="http://www.w3.org/2000/svg" xmlns:xlink="http://www.w3.org/1999/xlink">
    <title>jetblue-logo</title>
    <g id="Export-Assets" stroke="none" stroke-width="1" fill="none" fill-rule="evenodd">
        <g id="jetblue-logo" fill="#00205B" fill-rule="nonzero">
            <path d="M4.21893562,9.98945022 L9.23274318,9.98945022 L9.23274318,36.9763342 C9.28011749,38.9035268 8.5180895,40.7616845 7.13347346,42.0952724 C5.74885742,43.4288604 3.86967226,44.1145776 1.95660783,43.9843178 L0,43.9843178 L0,39.2508552 L1.43688387,39.2508552 C3.14891572,39.2508552 4.24950762,38.4516992 4.24950762,36.5767562 L4.24950762,9.98945022 M4.21893562,0 L9.23274318,0 L9.23274318,5.04083027 L4.21893562,5.04083027 L4.21893562,0 Z M17.4566104,20.4092152 C17.2391164,18.3843292 18.1911068,16.4124304 19.9080107,15.3315238 C21.6249145,14.2506172 23.8050734,14.2506172 25.5219773,15.3315238 C27.2388812,16.4124304 28.1908715,18.3843292 27.9733775,20.4092152 L17.4566104,20.4092152 M32.9871851,24.5586792 L32.9871851,20.4092152 C33.0967553,17.6155032 32.0579615,14.8995765 30.1148403,12.8994683 C28.171719,10.8993602 25.4955382,9.79136142 22.714994,9.83576637 C17.9151904,9.83576637 12.4428029,12.9094434 12.4428029,22.714473 C12.4428029,32.9805541 18.3737704,35.4394957 23.5098659,35.4394957 C26.9512297,35.5562787 30.2625624,34.1117533 32.5286051,31.5051892 L28.8905374,28.4315122 C27.4636659,29.9272939 25.5092557,30.7993757 23.4487219,30.859717 C21.8076731,30.9757109 20.1990187,30.3596712 19.0505746,29.1754313 C17.9021305,27.9911915 17.3303084,26.3587918 17.4871824,24.712363 L32.9871851,24.5586792 Z M36.9615447,2.52041513 L41.9753522,2.52041513 L41.9753522,9.98945022 L45.6134199,9.98945022 L45.6134199,13.8315465 L41.9753522,13.8315465 L41.9753522,28.4315122 C41.9753522,29.8146668 42.5256482,30.3064551 43.7485281,30.3064551 L45.6134199,30.3064551 L45.6134199,35.0399177 L43.0148002,35.0399177 C41.3593552,35.1602702 39.733605,34.5513601 38.5599721,33.3714018 C37.3863393,32.1914435 36.7806933,30.556931 36.9004007,28.8925637 L36.9004007,13.9852303 L34.3934969,13.9852303 L34.3934969,9.98945022 L36.9004007,9.98945022 L36.9615447,2.52041513 Z M62.2751584,19.5485857 C64.2891895,19.3299195 66.2505175,20.2870407 67.3256295,22.0131981 C68.4007416,23.7393555 68.4007416,25.9312647 67.3256295,27.6574221 C66.2505175,29.3835795 64.2891895,30.3407007 62.2751584,30.1220345 L54.1124352,30.1220345 L54.1124352,19.5485857 L62.2751584,19.5485857 M48.8234796,35.1628648 L63.5591823,35.1628648 C66.1910156,35.2160808 68.7277218,34.1734323 70.5687125,32.2817759 C72.4097032,30.3901195 73.3912916,27.8176469 73.2810775,25.1734146 C73.535657,21.4561339 71.1620296,18.0689565 67.594686,17.0589073 C70.7885484,15.9618919 72.8885941,12.888545 72.7613535,9.49766191 C72.7613535,3.96504332 69.2150018,0.0614735398 62.3974464,0.0614735398 L48.8540516,0.0614735398 L48.8540516,35.2243383 M61.8165785,4.79493611 C63.7400453,4.58105461 65.6156661,5.49234752 66.6441334,7.14046172 C67.6726007,8.78857593 67.6726007,10.8829568 66.6441334,12.531071 C65.6156661,14.1791852 63.7400453,15.0904781 61.8165785,14.8765966 L54.1430072,14.8765966 L54.1430072,4.79493611 L61.8165785,4.79493611 Z M76.1548452,0 L81.1686527,0 L81.1686527,28.7081431 C81.1686527,29.8454036 81.8106647,30.4294022 83.0335446,30.4294022 L84.7455764,30.4294022 L84.7455764,35.1628648 L82.5443926,35.1628648 C78.906325,35.1628648 76.1548452,33.5952895 76.1548452,29.0155108 L76.1548452,0 Z M86.8550442,9.98945022 L91.8688518,9.98945022 L91.8688518,24.8967836 C91.7226368,26.7634933 92.6304175,28.5548567 94.2184024,29.5332549 C95.8063874,30.5116532 97.8060713,30.5116532 99.3940563,29.5332549 C100.982041,28.5548567 101.889822,26.7634933 101.743607,24.8967836 L101.743607,9.98945022 L106.757414,9.98945022 L106.757414,35.0399177 L101.743607,35.0399177 L101.743607,32.3658187 C100.197627,34.3580795 97.8055526,35.497874 95.2929155,35.4394957 C93.0280736,35.4324143 90.862602,34.5035918 89.2901674,32.8647735 C87.7177327,31.2259551 86.8723563,29.0168204 86.9467602,26.7409898 L86.8550442,9.98945022 Z M114.461558,20.4092152 C114.294929,18.9117955 114.77552,17.4144883 115.781314,16.2974491 C116.787107,15.1804099 118.221366,14.5510754 119.719941,14.5692289 C122.777141,14.5692289 124.825465,16.5978558 124.978325,20.4092152 L114.461558,20.4092152 M129.992132,24.5586792 L129.992132,20.4092152 C130.101703,17.6155032 129.062909,14.8995765 127.119788,12.8994683 C125.176666,10.8993602 122.500486,9.79136142 119.719941,9.83576637 C114.920138,9.83576637 109.44775,12.9094434 109.44775,22.714473 C109.44775,32.9805541 115.378718,35.4394957 120.484241,35.4394957 C123.935023,35.5163648 127.2366,34.0260351 129.472408,31.3822421 L125.834341,28.3085651 C124.407469,29.8043468 122.453059,30.6764286 120.392525,30.7367699 C118.756607,30.8432931 117.156533,30.2230834 116.015126,29.0400329 C114.873718,27.8569824 114.305841,26.2301446 114.461558,24.5894159 L129.992132,24.5586792 Z" id="Shape"></path>
        </g>
    </g>
</svg>