<svg width="118" height="18" viewBox="0 0 118 18" fill="none" xmlns="http://www.w3.org/2000/svg">
<path d="M4.46496 4.86673C4.3961 4.57726 4.39021 4.27637 4.44771 3.98442C4.56203 3.44727 4.92656 2.85187 5.98564 2.85187C6.96275 2.86266 7.5473 3.46237 7.5473 4.37272V5.41251H11.7362V4.23682C11.7362 0.582454 8.44245 0 6.0676 0C3.08018 0 0.644939 0.990173 0.198442 3.72555C0.0618937 4.47487 0.0736189 5.24369 0.232954 5.98849C0.959859 9.42498 6.9304 10.4173 7.79751 12.5918C7.93023 12.993 7.94223 13.4243 7.83202 13.8322C7.69397 14.3953 7.31434 14.9669 6.19055 14.9669C5.14226 14.9669 4.51457 14.3543 4.51457 13.4374V11.8195H0V13.1139C0 16.8696 2.95076 18 6.10643 18C9.14131 18 11.6348 16.9645 12.0403 14.1536C12.1873 13.2422 12.1814 12.3127 12.023 11.4032C11.3134 7.87608 4.94381 6.83197 4.46496 4.86673ZM59.095 4.90772C59.0357 4.62354 59.0313 4.33065 59.082 4.04482C59.2007 3.50767 59.563 2.9209 60.6049 2.9209C61.5733 2.9209 62.1428 3.52493 62.1428 4.43097V5.45134H66.2799V4.28428C66.2799 0.66443 63.0444 0.0949182 60.6847 0.0949182C57.7274 0.0949182 55.3095 1.06999 54.8608 3.79458C54.7231 4.53601 54.7363 5.29759 54.8996 6.0338C55.633 9.42929 61.5453 10.413 62.3973 12.5702C62.5224 12.9698 62.5336 13.3964 62.4297 13.802C62.3002 14.3607 61.9249 14.9238 60.8098 14.9238C59.7636 14.9238 59.136 14.3219 59.136 13.4137V11.7958H54.6818V13.0772C54.6818 16.7898 57.5894 17.9116 60.7213 17.9116C63.7217 17.9116 66.2001 16.8847 66.597 14.1062C66.7392 13.2027 66.7297 12.2819 66.5689 11.3816C65.8744 7.89981 59.5717 6.85139 59.095 4.90772ZM97.2391 14.0609L93.2832 0.534995H87.0495V17.1608H91.1737L90.9342 3.20134L95.1835 17.1608H101.161V0.534995H97.0105L97.2391 14.0609ZM17.985 0.534995L14.8724 17.3356H19.4021L21.7554 1.78404L24.0439 17.3377H28.5499L25.4503 0.534995H17.985ZM43.3576 0.534995L41.2373 13.6683L39.1191 0.534995H32.2664L31.904 17.3356H36.1015L36.2158 1.78188L39.1019 17.3356H43.3619L46.2544 1.78404L46.3687 17.3377H50.5792L50.2017 0.537153L43.3576 0.534995ZM82.3991 0.534995H78.1433V12.9628C78.1544 13.1793 78.1421 13.3962 78.1067 13.61C78.0182 14.0285 77.6645 14.831 76.4911 14.831C75.3177 14.831 74.9812 14.0285 74.8906 13.61C74.8506 13.3968 74.8361 13.1795 74.8474 12.9628V0.534995H70.5939V12.5702C70.5939 12.8787 70.6133 13.5129 70.6305 13.6791C70.9239 16.8178 73.3979 17.8361 76.4846 17.8361C79.5712 17.8361 82.0518 16.8178 82.3494 13.6791C82.3847 13.3106 82.3969 12.9402 82.3861 12.5702L82.3991 0.534995ZM111.562 7.90628V10.3547H113.287V12.786C113.294 13.0027 113.279 13.2195 113.242 13.4331C113.175 13.8883 112.744 14.6584 111.516 14.6584C110.289 14.6584 109.879 13.8883 109.806 13.4331C109.774 13.2189 109.759 13.0025 109.76 12.786V5.10834C109.755 4.84159 109.781 4.57513 109.838 4.31448C109.92 3.9046 110.285 3.09779 111.508 3.09779C112.802 3.09779 113.112 3.9499 113.186 4.31448C113.219 4.52858 113.237 4.74493 113.237 4.96165V5.89358H117.47V5.34348C117.478 4.97284 117.467 4.602 117.437 4.2325C117.118 1.08078 114.523 0.0841322 111.544 0.0841322C108.565 0.0841322 106.018 1.08941 105.649 4.2325C105.615 4.51941 105.563 5.035 105.563 5.34348V12.4063C105.564 12.7769 105.587 13.1471 105.63 13.5151C105.906 16.5784 108.563 17.6656 111.533 17.6656C114.504 17.6656 117.159 16.587 117.439 13.5151C117.491 12.9521 117.495 12.7148 117.502 12.4063V7.90628H111.562Z" fill="black"/>
</svg>
