<svg width="101" height="32" viewBox="0 0 101 32" fill="none" xmlns="http://www.w3.org/2000/svg">
  <path d="M68.829 21.371v10.165h-4.165V21.9c0-2.252-1.323-3.41-3.192-3.41-2.032 0-3.552 1.223-3.552 4.103v8.942h-4.174V14.98h3.68l.488 1.854c.97-1.488 2.646-2.318 4.811-2.318 3.425 0 6.104 2.452 6.104 6.855ZM79.61 28.126a4.752 4.752 0 0 0 2.748-.818 1.925 1.925 0 0 1 2.09-.116c.28.166.516.402.684.686a2.008 2.008 0 0 1 .076 1.899c-.145.297-.36.552-.627.741a8.595 8.595 0 0 1-5.035 1.488c-5.427 0-8.852-3.809-8.852-8.742 0-4.933 3.457-8.742 8.527-8.742 4.782 0 8.172 3.868 8.172 8.742a9.926 9.926 0 0 1-.162 1.756H75.056c.58 2.178 2.357 3.106 4.554 3.106Zm3.616-6.424c-.517-2.38-2.261-3.345-4.005-3.345-2.226 0-3.747 1.226-4.228 3.345h8.233Z" fill="#000"/>
  <path d="M91.468 5.75c1.31 0 2.37-1.088 2.37-2.431S92.779.888 91.469.888s-2.371 1.088-2.371 2.43c0 1.344 1.061 2.432 2.37 2.432Z" fill="#9B43FF"/>
  <path d="M91.468 12.653c1.31 0 2.37-1.088 2.37-2.43 0-1.344-1.06-2.432-2.37-2.432s-2.371 1.088-2.371 2.431 1.061 2.431 2.37 2.431Z" fill="#23B574"/>
  <path d="M91.468 19.553c1.31 0 2.37-1.088 2.37-2.43 0-1.343-1.06-2.432-2.37-2.432s-2.371 1.089-2.371 2.431c0 1.343 1.061 2.431 2.37 2.431Z" fill="#FF93AA"/>
  <path d="M98.198 12.653c1.31 0 2.371-1.088 2.371-2.43 0-1.344-1.062-2.432-2.371-2.432-1.31 0-2.372 1.088-2.372 2.431s1.062 2.431 2.372 2.431Z" fill="#2C76EC"/>
  <path d="M84.735 12.653c1.31 0 2.37-1.088 2.37-2.43 0-1.344-1.06-2.432-2.37-2.432s-2.371 1.088-2.371 2.431 1.061 2.431 2.37 2.431Z" fill="#FF3B48"/>
  <path d="M47.548 26.668c-.442.48-.978.857-1.573 1.108a4.448 4.448 0 0 1-1.878.35c-2.197 0-3.973-.928-4.553-3.113h12.189c.103-.579.157-1.166.16-1.755 0-4.868-3.39-8.742-8.17-8.742-5.073 0-8.526 3.808-8.526 8.742 0 4.933 3.421 8.742 8.848 8.742 3.01 0 5.377-1.22 6.901-3.35l-3.398-1.982Zm-3.837-8.31c1.741 0 3.483.96 4.005 3.344H39.48c.485-2.119 2.002-3.345 4.231-3.345ZM9.365 17.893c-3.424-1.06-4.298-1.82-4.298-3.243 0-1.327 1.1-2.318 2.972-2.318 2.284 0 3.511 1.214 4.318 2.957l3.755-2.198C14.595 9.847 11.76 7.892 8.04 7.892c-3.875 0-7.427 2.518-7.427 6.889 0 4.37 3.358 5.894 6.814 6.92 3.358.995 4.876 1.658 4.876 3.378 0 1.291-1.161 2.726-3.66 2.619-2.266-.099-3.529-1.569-4.164-2.497-.697-1.02-1.344-2.02-2.789-1.693-1.445.327-2.104 1.785-1.434 3.273 1.161 2.526 3.683 5.225 8.3 5.225 4.815 0 8.204-2.648 8.204-6.986.006-4.74-3.804-5.966-7.394-7.127ZM26.98 27.751c-2.486 0-4.33-1.89-4.33-4.505s1.844-4.538 4.33-4.538a3.92 3.92 0 0 1 2.137.562 4.056 4.056 0 0 1 1.52 1.637l3.608-2.115c-1.324-2.547-4.063-4.27-7.232-4.27-4.91 0-8.527 3.809-8.527 8.742 0 4.933 3.616 8.742 8.527 8.742a8.112 8.112 0 0 0 4.231-1.129 8.382 8.382 0 0 0 3.079-3.182l-3.619-2.12c-.656 1.358-2.046 2.176-3.723 2.176ZM90.269 30.212h-.47v-.244h1.21v.244h-.47v1.324h-.27v-1.324ZM91.186 29.968h.426l.398 1.115.392-1.115h.43v1.568h-.27v-1.259l-.465 1.259h-.188l-.459-1.259v1.259h-.258l-.006-1.568Z" fill="#000"/>
</svg>