<svg width="219" height="44" viewBox="0 0 219 44" fill="none" xmlns="http://www.w3.org/2000/svg">
<path fill-rule="evenodd" clip-rule="evenodd" d="M28.4373 38.827C28.1075 38.8508 27.7844 38.8746 27.458 38.8746C27.0839 38.8746 26.7167 38.8372 26.3427 38.827L27.4376 36.1951L28.4373 38.827ZM29.6512 41.8159C29.8417 41.8057 30.1443 41.7513 30.4401 41.7513C30.7428 41.7513 31.11 41.8091 31.2766 41.8159C30.7904 40.7754 30.0865 39.1602 29.6818 38.2285C29.2976 37.3274 28.6515 35.8313 28.1415 34.3623C28.0224 34.3997 27.917 34.4167 27.798 34.4167C27.6722 34.4167 27.5634 34.3997 27.4444 34.3623C27.1894 35.243 26.5671 36.6304 25.4858 39.0514L24.2446 41.8159C24.3942 41.7921 24.5473 41.7513 24.7241 41.7513C24.8975 41.7513 25.0981 41.7921 25.2409 41.8159C25.4144 41.2039 25.751 40.3198 26.0978 39.4935C26.5229 39.4697 26.9513 39.4527 27.3798 39.4527C27.8388 39.4527 28.2877 39.4697 28.7535 39.4935L29.199 40.6292L29.6512 41.8159Z" fill="#53626F"/>
<path d="M32.2152 36.9431C32.2152 38.7725 32.2152 40.5407 32.0962 41.8159C32.3342 41.8057 32.6301 41.7513 32.8681 41.7513C33.1129 41.7513 33.3679 41.8091 33.6162 41.8159C33.5312 40.9488 33.5108 39.7893 33.5108 38.1979C33.5108 37.1166 33.5107 35.2668 33.6264 34.4711C33.3679 34.5017 33.1027 34.5357 32.8681 34.5357C32.7083 34.5357 32.3104 34.4949 32.1064 34.4711C32.2152 35.5082 32.2152 36.2733 32.2152 36.9431Z" fill="#53626F"/>
<path fill-rule="evenodd" clip-rule="evenodd" d="M38.5837 38.1809C39.5528 37.9973 40.4471 37.3852 40.4471 36.1951C40.4471 35.7462 40.2737 35.311 39.9541 34.9947C39.4916 34.5561 38.9679 34.4711 38.2743 34.4711C38.026 34.4711 36.7815 34.5255 36.5061 34.5255C35.9586 34.5255 35.6798 34.4949 35.435 34.4711C35.5098 35.855 35.5098 36.0046 35.5098 37.4056C35.5098 39.4662 35.4962 39.7043 35.4146 41.8125C35.6492 41.7751 35.9042 41.7479 36.1524 41.7479C36.4177 41.7479 36.6557 41.7887 36.8665 41.8125C36.8665 41.5337 36.8257 40.1531 36.8257 39.8403V38.3237H37.0841C37.6588 39.133 38.3253 40.0783 38.8693 40.9216C39.0292 41.1664 39.2638 41.5643 39.427 41.8125C39.7466 41.7683 39.8758 41.7479 40.2941 41.7479C40.6783 41.7479 40.9436 41.7785 41.2428 41.8125C40.5661 40.9692 40.2805 40.5952 39.4338 39.4016C39.274 39.1772 39.0394 38.8202 38.8761 38.5957L38.5837 38.1809ZM36.8257 35.0525C36.9855 35.0423 37.38 34.9981 37.584 34.9981C37.9376 34.9981 38.2947 35.0525 38.5837 35.2702C38.9577 35.5456 39.0326 35.9298 39.0326 36.3787C39.0326 37.0792 38.6381 37.8612 37.567 37.8612C37.2882 37.8612 37.0297 37.8374 36.8257 37.8272V35.0525Z" fill="#53626F"/>
<path d="M44.1577 39.3098C43.6579 37.8238 42.9608 35.7394 42.6275 34.4711C42.3589 34.5119 42.1243 34.5357 41.8795 34.5357C41.621 34.5357 41.2606 34.4949 41.043 34.4711C41.4782 35.6306 41.8557 36.6541 42.1447 37.4668C42.6377 38.8609 42.9574 39.8266 43.345 40.9998L43.6103 41.8159C43.7599 41.7785 43.9333 41.7513 44.0489 41.7513C44.1679 41.7513 44.2767 41.7717 44.457 41.8159C44.6304 41.2582 44.831 40.5747 44.9874 40.1327C45.4023 38.9119 45.4533 38.7419 46.0007 37.222L46.3204 36.3311C46.4394 36.6745 46.6434 37.222 46.759 37.562C46.8814 37.8986 47.4255 39.5342 47.5513 39.8947C47.7281 40.3809 47.7655 40.5169 48.1634 41.8125C48.2586 41.8023 48.4626 41.7479 48.619 41.7479C48.7686 41.7479 48.891 41.7785 49.0475 41.8125C49.4589 40.5373 49.5031 40.4115 50.0982 38.6977C50.6864 37.0213 51.0469 36.0726 51.693 34.4677C51.5331 34.5085 51.3733 34.5323 51.2101 34.5323C51.0095 34.5323 50.8395 34.4983 50.7205 34.4677C50.3362 35.8584 50.1424 36.5351 49.833 37.4498C49.3297 38.9494 49.2617 39.1228 48.9557 39.9355C48.6156 39.014 48.2824 38.0857 47.9729 37.1438C47.7995 36.6303 47.1432 34.4915 47.133 34.4677C46.9834 34.5017 46.878 34.5323 46.6604 34.5323C46.47 34.5323 46.3272 34.4915 46.1911 34.4677C45.8681 35.7734 44.7358 38.9221 44.6304 39.2078L44.3617 39.9049L44.1577 39.3098Z" fill="#53626F"/>
<path fill-rule="evenodd" clip-rule="evenodd" d="M54.9602 38.827C54.627 38.8508 54.3073 38.8746 53.9741 38.8746C53.6001 38.8746 53.2362 38.8372 52.8622 38.827L53.9503 36.1951L54.9602 38.827ZM56.1673 41.8159C56.3612 41.8057 56.657 41.7513 56.9562 41.7513C57.2555 41.7513 57.6329 41.8091 57.7927 41.8159C57.3133 40.7754 56.6026 39.1602 56.2013 38.2285C55.8171 37.3274 55.1744 35.8313 54.661 34.3623C54.542 34.3997 54.4366 34.4167 54.3175 34.4167C54.1917 34.4167 54.0795 34.3997 53.9605 34.3623C53.7055 35.243 53.0866 36.6304 52.0019 39.0514L50.7607 41.8125C50.9138 41.7887 51.06 41.7479 51.2436 41.7479C51.417 41.7479 51.6142 41.7887 51.7537 41.8125C51.9305 41.2005 52.2705 40.3164 52.6139 39.4901C53.039 39.4663 53.4708 39.4493 53.8959 39.4493C54.3549 39.4493 54.8038 39.4663 55.2662 39.4901L55.7185 40.6258L56.1673 41.8159Z" fill="#53626F"/>
<path d="M60.6626 38.946C60.6626 38.8508 60.7306 38.7351 60.802 38.6025C61.2543 37.834 61.6657 37.0282 62.1486 36.2563C62.305 36.0046 63.0905 34.7601 63.2537 34.4711C63.1313 34.5119 63.0157 34.5391 62.8015 34.5391C62.5668 34.5391 62.3492 34.5051 62.1792 34.4711C61.4107 36.1645 61.2407 36.5283 60.3328 38.0891C59.4215 36.4977 59.0168 35.6476 58.4592 34.4711C58.1498 34.5255 57.8403 34.5391 57.5819 34.5391C57.3507 34.5391 57.099 34.5153 56.7046 34.4711C57.2589 35.4028 58.1736 36.8853 58.7176 37.8238L59.3501 38.9154C59.3501 39.575 59.3195 40.9794 59.2855 41.8159C59.4895 41.7921 59.7887 41.7479 60.003 41.7479C60.2512 41.7479 60.496 41.7887 60.7442 41.8159C60.7 40.8196 60.666 40.2415 60.666 39.3438V38.946" fill="#53626F"/>
<path d="M63.8689 40.211C63.8144 40.721 63.8076 40.8638 63.624 41.4181C64.0083 41.6119 64.7087 41.9656 65.6234 41.9656C67.5821 41.9656 68.3403 40.7176 68.3403 39.6227C68.3403 39.3201 68.2655 38.691 67.8201 38.2081C67.5107 37.8647 67.1876 37.7423 66.3647 37.426C65.4228 37.0622 64.8754 36.848 64.8754 36.0659C64.8754 35.4368 65.2936 34.9098 66.1403 34.9098C66.8102 34.9098 67.3848 35.2328 67.5413 35.8415H67.6909C67.7861 35.4368 67.8099 35.3484 68.0241 34.8214C67.5005 34.5901 67.0244 34.3861 66.2491 34.3861C64.3109 34.3861 63.7532 35.5864 63.7532 36.5249C63.7532 37.4124 64.0661 37.9633 65.1066 38.419C65.4024 38.5516 65.9057 38.742 66.2049 38.8712C66.4089 38.9528 67.0822 39.252 67.0822 40.1021C67.0822 40.8706 66.5279 41.4419 65.6813 41.4419C65.0488 41.4419 64.5149 41.2821 64.0253 40.211H63.8689Z" fill="#53626F"/>
<path fill-rule="evenodd" clip-rule="evenodd" d="M4.40009 20.4275C4.40009 12.3312 8.73898 10.1516 12.0135 10.1516C17.2773 10.1516 19.559 14.5176 19.559 19.1762C19.559 21.8387 19.2393 24.3447 17.92 26.3714C16.6041 28.3912 14.421 29.6085 12.0441 29.6085C6.10368 29.6119 4.40009 23.9605 4.40009 20.4275ZM20.3921 36.9669C21.3578 36.2903 22.8709 35.4572 23.9591 34.9777L16.7027 30.479C21.164 28.9046 23.9591 24.9228 23.9591 19.4992C23.9591 11.7939 18.0832 8.51257 12.0815 8.51257C5.59022 8.51257 0 12.1102 0 20.2677C0 21.9985 0.387643 25.2798 3.08414 28.0069C5.87926 30.8327 9.18782 31.2475 11.9795 31.2475C12.3366 31.2475 12.6868 31.2475 13.0405 31.2203L20.3921 36.9669Z" fill="#63003D"/>
<path fill-rule="evenodd" clip-rule="evenodd" d="M38.9378 21.8387C37.9449 21.9067 36.9792 21.9679 35.9829 21.9679C34.8608 21.9679 33.7659 21.8727 32.6471 21.8387L35.9217 13.943L38.9378 21.8387ZM42.5694 30.7987C43.1475 30.7681 44.0418 30.6083 44.9429 30.6083C45.844 30.6083 46.9661 30.7681 47.4524 30.7987C46.0072 27.6839 43.8854 22.8384 42.6612 20.0399C41.5051 17.34 39.5805 12.8481 38.0401 8.44458C37.6865 8.54659 37.3635 8.6112 37.0132 8.6112C36.629 8.6112 36.3059 8.54659 35.9523 8.44458C35.177 11.0833 33.317 15.2589 30.0764 22.5153L26.353 30.7987C26.8019 30.7375 27.2507 30.6083 27.7982 30.6083C28.3082 30.6083 28.9237 30.7341 29.342 30.7987C29.852 28.9693 30.8789 26.3034 31.9092 23.8313C33.1912 23.7701 34.4765 23.7021 35.7619 23.7021C37.139 23.7021 38.489 23.7701 39.8695 23.8313L41.2195 27.2385L42.5694 30.7987Z" fill="#63003D"/>
<path d="M56.824 14.5211C56.824 13.297 56.8546 12.0797 56.8818 10.9235C59.0989 10.9235 61.3805 10.9609 63.2746 11.1514C63.1759 10.6345 63.1113 10.3421 63.1113 9.99184C63.1113 9.73681 63.1793 9.31856 63.2746 8.7677C60.1904 8.93432 57.3613 8.96152 54.6988 8.96152C52.2267 8.96152 48.6631 8.93092 46.123 8.7677C46.2217 9.15874 46.2829 9.57359 46.2829 9.96123C46.2829 10.3421 46.2217 10.7637 46.123 11.1514C47.762 10.9881 50.8462 10.9235 51.1352 10.9235H52.7402C52.7742 12.1817 52.8048 13.297 52.8048 14.4905L52.832 23.4471C52.832 25.8886 52.6416 28.3675 52.5124 30.8022C53.6719 30.6797 54.1479 30.6117 54.6954 30.6117C55.0796 30.6117 56.1134 30.7069 57.0417 30.8022C56.9431 29.9045 56.8206 28.8435 56.8206 26.4055V14.5211" fill="#63003D"/>
<path fill-rule="evenodd" clip-rule="evenodd" d="M74.6927 21.8387C73.6998 21.9067 72.7375 21.9679 71.7446 21.9679C70.6157 21.9679 69.5275 21.8727 68.402 21.8387L71.6766 13.943L74.6927 21.8387ZM78.3243 30.7987C78.9024 30.7681 79.8001 30.6083 80.7046 30.6083C81.5989 30.6083 82.7244 30.7681 83.2073 30.7987C81.7621 27.6839 79.6437 22.8384 78.4195 20.0399C77.2668 17.34 75.3354 12.8481 73.795 8.44458C73.4414 8.54659 73.1183 8.6112 72.7681 8.6112C72.3839 8.6112 72.0642 8.54659 71.7038 8.44458C70.9353 11.0833 69.0753 15.2589 65.8313 22.5153L62.1079 30.7987C62.5534 30.7375 63.009 30.6083 63.5497 30.6083C64.0665 30.6083 64.6752 30.7341 65.0934 30.7987C65.6069 28.9693 66.6304 26.3034 67.6607 23.8313C68.9461 23.7701 70.228 23.7021 71.5168 23.7021C72.9007 23.7021 74.2439 23.7701 75.6244 23.8313L76.971 27.2385L78.3243 30.7987Z" fill="#63003D"/>
<path fill-rule="evenodd" clip-rule="evenodd" d="M96.1354 19.8835C99.0597 19.3361 101.722 17.5067 101.722 13.9431C101.722 12.5931 101.209 11.2738 100.246 10.3421C98.8693 9.02953 97.2915 8.7677 95.2003 8.7677C94.4624 8.7677 90.739 8.93432 89.9025 8.93432C88.2669 8.93432 87.4304 8.83571 86.6925 8.7677C86.917 12.9162 86.917 13.3616 86.917 17.5713C86.917 23.7702 86.883 24.4741 86.6279 30.8022C87.3318 30.7069 88.1037 30.6117 88.8416 30.6117C89.6441 30.6117 90.3547 30.7375 90.994 30.8022C90.994 29.9691 90.8682 25.824 90.8682 24.8957V20.329H91.6401C93.3709 22.7739 95.3635 25.5996 96.9991 28.1363C97.4819 28.8741 98.1892 30.0643 98.6687 30.7988C99.6344 30.6763 100.019 30.6083 101.27 30.6083C102.423 30.6083 103.229 30.7035 104.126 30.7988C102.1 28.2621 101.236 27.1399 98.7027 23.573C98.2198 22.9031 97.5091 21.8388 97.0297 21.1655L96.1354 19.8835ZM90.8716 10.5087C91.3511 10.4747 92.5378 10.3421 93.1465 10.3421C94.2074 10.3421 95.2683 10.5087 96.1354 11.1514C97.2609 11.9879 97.4853 13.144 97.4853 14.4905C97.4853 16.575 96.2952 18.9246 93.0853 18.9246C92.2522 18.9246 91.4803 18.86 90.8716 18.826V10.5087Z" fill="#63003D"/>
<path d="M144.448 22.6174C144.472 23.175 144.468 23.7225 144.441 24.2632C139.031 24.4808 133.907 24.8038 133.907 25.1745C133.907 25.5349 138.919 25.8579 144.264 26.0688C144.173 26.6876 144.047 27.2895 143.904 27.888C138.637 28.0988 133.744 28.4184 133.744 28.7755C133.744 29.1189 138.307 29.4283 143.363 29.6494C143.132 30.2886 142.867 30.9143 142.574 31.5162C138.232 31.7236 134.648 32.0024 134.648 32.3085C134.648 32.5907 137.783 32.8559 141.731 33.0531C141.513 33.4204 141.279 33.7672 141.037 34.1073C140.782 34.4677 140.5 34.8349 140.204 35.1886C137.739 35.3756 136.042 35.5898 136.042 35.8177C136.042 36.0115 137.256 36.1917 139.13 36.3583C138.103 37.3682 136.899 38.3135 135.478 39.1364C135.478 39.1364 133.801 37.6947 132.424 36.0081C131.19 34.5085 128.572 30.5471 127.956 29.663C127.344 28.7789 126.939 28.5204 126.219 28.7755C125.256 29.1155 124.131 29.2889 123.787 29.2889C123.444 29.2889 123.253 29.1529 123.832 28.9217C124.406 28.6905 126.684 27.6159 127.81 25.3921C129.068 22.8894 127.96 19.4346 127.96 19.4346C127.541 21.2776 126.579 21.9713 126.579 21.9713C126.888 20.2575 126.552 18.7001 125.705 17.6086L125.229 19.7815C125.229 19.7815 124.933 19.7645 124.202 20.3799C123.471 20.9954 123.27 21.8965 123.27 21.8965C123.845 22.1277 124.535 21.5531 124.535 21.5531C123.655 24.8616 122.38 27.5547 121.458 28.9727C120.537 30.4009 119.771 30.9381 118.85 31.3156C118.068 31.6318 117.813 31.2577 117.813 31.2577C117.129 30.6729 116.619 30.1322 116.082 29.4895C116.082 29.4895 116.041 29.4147 116.187 29.4147C116.565 29.4249 117.245 28.7687 117.391 28.5C117.565 28.1906 117.544 27.9594 117.459 27.9424C117.374 27.9254 117.225 28.1736 116.497 28.6361C115.766 29.0951 115.433 28.7721 115.191 28.517C115.004 28.313 115.184 28.058 115.303 27.8982C115.412 27.7622 119.275 20.5602 129.493 12.9977C142.877 3.08561 151.426 0.409507 151.915 0.215686C152.238 0.0898718 152.769 -0.0801472 152.888 0.0422665C153.02 0.178282 153.088 0.290494 153.065 0.453712C153.051 0.61353 152.963 0.70194 152.344 0.97397C147.206 3.23862 141.207 7.00964 137.8 9.20629C133.604 11.2499 129.609 14.1674 129.463 14.232C129.14 14.4361 129.378 14.7251 129.568 14.6027C136.648 9.89317 144.948 6.69341 154.119 4.05811C154.554 3.9323 154.795 3.9323 154.87 4.03091C154.952 4.13972 154.989 4.26554 154.999 4.39475C155.01 4.56477 154.874 4.64978 154.493 4.8028C144.645 8.45821 137.382 11.8586 132.71 15.0005C132.71 15.0005 132.224 15.293 132.22 15.6296C132.22 15.7588 132.482 15.7724 132.482 15.7724C134.822 15.8132 137.943 15.9526 139.429 16.0376C139.429 16.0376 139.222 16.7925 137.797 17.3978C136.699 17.8671 135.682 17.7922 134.675 17.799C134.451 17.799 134.264 18.0235 134.441 18.2649C134.519 18.3771 136.661 21.8285 144.448 22.6174Z" fill="#63003D"/>
<path d="M73.0539 40.6564H71.7379C71.7379 40.6564 71.5543 39.8471 72.0372 39.5376C72.5166 39.218 73.0539 38.9766 73.0539 38.9766V40.6564ZM79.3174 37.6198C79.3174 37.6198 78.5149 38.0789 78.0116 38.5311C77.505 38.9766 78.1136 39.15 78.1136 39.15V40.6598H74.2848V35.379C74.2848 35.379 72.8839 36.6643 72.758 36.8343C72.6254 37.0112 73.0913 37.1778 73.0913 37.1778L73.0131 37.6776C73.0131 37.6776 72.4554 37.9667 71.7787 38.4223C71.1089 38.8746 70.609 39.4526 70.609 39.8471C70.609 40.2449 70.4424 41.8159 70.4424 41.8159H79.3208V37.6198H79.3174ZM71.3877 35.685C71.8263 35.685 72.1358 35.5116 72.1358 35.1681C72.1358 34.8179 71.9283 34.5731 71.3877 34.5731C70.9082 34.5731 70.779 34.7805 70.779 35.1681C70.779 35.5524 70.9456 35.685 71.3877 35.685ZM73.0233 35.685C73.4687 35.685 73.7612 35.5116 73.7612 35.1681C73.7612 34.8179 73.5605 34.5731 73.0233 34.5731C72.5438 34.5731 72.4146 34.7805 72.4146 35.1681C72.4146 35.5524 72.5812 35.685 73.0233 35.685ZM75.4987 42.2681C75.0193 42.2681 74.8901 42.4756 74.8901 42.8598C74.8901 43.2372 75.0567 43.3801 75.4987 43.3801C75.934 43.3801 76.2434 43.2066 76.2434 42.8598C76.2434 42.513 76.0394 42.2681 75.4987 42.2681ZM77.1955 42.2681C76.7161 42.2681 76.5869 42.4756 76.5869 42.8598C76.5869 43.2372 76.7603 43.3801 77.1955 43.3801C77.6376 43.3801 77.9402 43.2066 77.9402 42.8598C77.9402 42.513 77.7396 42.2681 77.1955 42.2681ZM96.3261 35.583C96.7613 35.583 97.0742 35.413 97.0742 35.0661C97.0742 34.7193 96.8735 34.4711 96.3261 34.4711C95.8466 34.4711 95.7208 34.6819 95.7208 35.0661C95.7208 35.4538 95.8942 35.583 96.3261 35.583ZM98.0195 35.583C98.4615 35.583 98.7641 35.413 98.7641 35.0661C98.7641 34.7193 98.5635 34.4711 98.0195 34.4711C97.5434 34.4711 97.4142 34.6819 97.4142 35.0661C97.4142 35.4538 97.5774 35.583 98.0195 35.583ZM102.705 35.7258C102.467 35.9298 102.535 36.1815 102.838 36.1475V41.8227H104.099V34.7533C104.099 34.7533 102.94 35.5218 102.705 35.7258ZM97.6522 38.912H96.8395C96.8395 38.4631 97.6522 38.2149 97.6522 38.2149V38.912ZM92.2898 39.8471C92.2898 40.0511 92.2796 40.3911 92.2728 40.6564H85.1626V39.4084C85.3496 38.9256 85.6659 38.8712 86.1487 38.8712H91.3411C92.4632 38.8746 92.2898 39.4628 92.2898 39.8471ZM100.6 36.1407V40.6564H98.9104V36.5555C98.9104 36.5555 98.5669 36.6847 98.0875 36.8955C97.6182 37.1098 95.9112 37.8 95.9112 38.7351V39.8199H97.6488V40.6564H93.5344C93.5378 40.4625 93.5412 40.1701 93.5412 39.7383C93.5412 38.3917 92.3952 37.6606 91.3717 37.6606H86.6214C85.7883 37.6606 85.387 37.8646 85.1592 38.0891V34.6139C85.1592 34.6139 84.4213 35.1375 83.8739 35.549C83.3298 35.9604 83.8739 36.2427 83.8739 36.2427V40.6564H82.3165L82.2825 36.8683C82.2825 36.8683 81.1978 37.6606 80.8849 37.9055C80.5823 38.1435 80.7523 38.3577 81.0924 38.3577C81.0924 38.3577 81.0312 41.1528 81.0312 41.8159C81.0312 42.4824 80.4837 43.2372 79.3242 42.8938C79.3242 42.8938 78.9603 42.9618 79.2664 43.2338C79.569 43.5127 79.9362 43.7201 80.3443 43.7201C80.7523 43.7201 82.2485 43.4413 82.2485 41.8125H101.852V34.7499C101.852 34.7499 100.692 35.5116 100.461 35.719C100.223 35.9298 100.294 36.1747 100.6 36.1407Z" fill="#63003D"/>
<path d="M144.146 19.9447C144.146 20.1522 141.235 20.3426 137.086 20.5092C136.352 20.0944 135.801 19.6761 135.39 19.3157C140.426 19.4925 144.146 19.7135 144.146 19.9447Z" fill="#77848F"/>
<path d="M141.163 12.9399C141.163 13.1133 138.725 13.2732 135.243 13.4126C135.74 13.1235 136.26 12.8277 136.794 12.5353C139.429 12.6543 141.163 12.7971 141.163 12.9399Z" fill="#77848F"/>
<path d="M115.212 28.0104C113.597 28.0274 112.182 28.0376 111.08 28.0376C109.489 28.0376 108.2 27.5514 108.2 26.9427C108.2 26.3374 109.489 25.8444 111.08 25.8444C112.488 25.8444 114.396 25.8614 116.582 25.892C115.739 27.1093 115.331 27.8438 115.297 27.888C115.27 27.9254 115.239 27.9662 115.212 28.0104Z" fill="#77848F"/>
<path d="M116.076 29.4793C116.613 30.1254 117.119 30.6661 117.806 31.2509C117.806 31.2509 118.061 31.6216 118.843 31.3053C119.636 30.9789 120.309 30.5403 121.071 29.5201C123.291 29.5507 125.637 29.6051 127.953 29.6596C128.144 29.9384 128.528 30.513 129.007 31.2203C122.553 31.3869 115.549 31.489 111.961 31.489C110.468 31.489 109.254 31.0231 109.254 30.462C109.254 29.8908 110.465 29.4249 111.961 29.4249C113.053 29.4249 114.46 29.4351 116.069 29.4487C116.069 29.4623 116.076 29.4793 116.076 29.4793Z" fill="#77848F"/>
<path d="M113.579 34.8655C112.25 34.8655 111.179 34.4541 111.179 33.9508C111.179 33.4442 112.25 33.0361 113.579 33.0361C117.089 33.0361 124.284 33.1449 130.445 33.3218C130.741 33.7434 131.04 34.1651 131.319 34.5561C124.977 34.7397 117.259 34.8655 113.579 34.8655Z" fill="#77848F"/>
<path d="M134.043 37.7864C128.867 38.0142 119.972 38.1672 116.276 38.1672C115.232 38.1672 114.385 37.8408 114.385 37.4464C114.385 37.0485 115.232 36.7289 116.276 36.7289C119.812 36.7289 128.113 36.8683 133.356 37.0791C133.591 37.3375 133.822 37.5688 134.043 37.7864Z" fill="#77848F"/>
<path d="M120.547 39.7314C123.597 39.7314 132.89 39.9593 132.89 40.2381C132.89 40.5203 123.593 40.7482 120.547 40.7482C119.948 40.7482 119.469 40.5203 119.469 40.2381C119.465 39.9593 119.948 39.7314 120.547 39.7314Z" fill="#77848F"/>
<path d="M120.581 20.941C116.739 21.0022 113.294 21.0464 111.08 21.0464C109.492 21.0464 108.2 20.5533 108.2 19.9481C108.2 19.3428 109.489 18.8531 111.08 18.8531C113.654 18.8531 117.884 18.9042 122.465 18.9892C121.785 19.6522 121.156 20.3119 120.581 20.941Z" fill="#77848F"/>
<path d="M139.419 16.0376C141.674 16.16 143.088 16.2926 143.088 16.432C143.088 16.5851 141.374 16.7313 138.726 16.8673C139.29 16.4388 139.416 16.0648 139.419 16.0376Z" fill="#77848F"/>
<path d="M111.961 17.4658C110.468 17.4658 109.254 17.0033 109.254 16.432C109.254 15.8608 110.465 15.4017 111.961 15.4017C115.032 15.4017 120.591 15.4765 126.175 15.6024C125.491 16.177 124.842 16.7483 124.23 17.3059C119.33 17.408 114.671 17.4658 111.961 17.4658Z" fill="#77848F"/>
<path d="M128.643 13.6233C122.937 13.7661 116.752 13.8511 113.579 13.8511C112.253 13.8511 111.179 13.4431 111.179 12.9398C111.179 12.4332 112.253 12.0251 113.579 12.0251C117.078 12.0251 124.257 12.134 130.408 12.3108C130.102 12.5318 129.792 12.7528 129.48 12.9875C129.197 13.1983 128.915 13.4091 128.643 13.6233Z" fill="#77848F"/>
<path d="M116.276 10.1551C115.232 10.1551 114.385 9.83542 114.385 9.43757C114.385 9.03973 115.232 8.72009 116.276 8.72009C120.197 8.72009 129.986 8.89351 134.958 9.14174C134.645 9.34236 134.328 9.56339 134.005 9.78101C128.827 10.0054 119.962 10.1551 116.276 10.1551Z" fill="#77848F"/>
<path d="M110.781 24.5624C109.163 24.5624 107.847 24.0558 107.847 23.4471C107.847 22.8282 109.159 22.3318 110.781 22.3318C112.808 22.3318 115.844 22.3624 119.279 22.4168C118.633 23.1785 118.072 23.879 117.592 24.508C114.862 24.5386 112.468 24.5624 110.781 24.5624Z" fill="#77848F"/>
<path d="M119.469 6.64582C119.469 6.36699 119.948 6.13916 120.547 6.13916C123.593 6.13916 132.89 6.36359 132.89 6.64582C132.89 6.92805 123.593 7.15587 120.547 7.15587C119.948 7.15927 119.469 6.92805 119.469 6.64582Z" fill="#77848F"/>
<path d="M158.179 24.716H162.139V26H156.595V17.36H158.179V24.716Z" fill="#905A6C"/>
<path d="M163.813 17.36H165.397V26H163.813V17.36Z" fill="#905A6C"/>
<path d="M173.321 18.644H169.517V21.356H172.601V22.64H169.517V26H167.933V18.428L166.925 18.128V17.36H173.321V18.644Z" fill="#905A6C"/>
<path d="M176.935 24.716H180.979V26H175.351V18.428L174.343 18.128V17.36H180.763V18.644H176.935V21.056H180.187V22.34H176.935V24.716Z" fill="#905A6C"/>
<path d="M188.176 17.756L187.876 19.016C187.164 18.696 186.444 18.528 185.716 18.512C185.228 18.504 184.82 18.58 184.492 18.74C184.164 18.892 183.996 19.136 183.988 19.472C183.988 19.608 184.02 19.736 184.084 19.856C184.156 19.968 184.24 20.068 184.336 20.156C184.44 20.236 184.58 20.324 184.756 20.42C184.932 20.516 185.096 20.596 185.248 20.66C185.4 20.724 185.588 20.804 185.812 20.9C186.036 20.996 186.224 21.08 186.376 21.152C187.112 21.504 187.668 21.872 188.044 22.256C188.42 22.64 188.592 23.148 188.56 23.78C188.504 24.532 188.196 25.116 187.636 25.532C187.076 25.948 186.336 26.16 185.416 26.168C184.368 26.184 183.352 25.968 182.368 25.52L182.68 24.26C183.52 24.612 184.376 24.796 185.248 24.812C185.768 24.82 186.176 24.72 186.472 24.512C186.776 24.296 186.932 24.024 186.94 23.696C186.948 23.528 186.912 23.376 186.832 23.24C186.76 23.104 186.632 22.98 186.448 22.868C186.272 22.748 186.1 22.648 185.932 22.568C185.772 22.48 185.54 22.372 185.236 22.244C184.932 22.108 184.688 21.996 184.504 21.908C184.24 21.78 184.024 21.672 183.856 21.584C183.696 21.496 183.508 21.376 183.292 21.224C183.084 21.072 182.92 20.92 182.8 20.768C182.688 20.616 182.588 20.432 182.5 20.216C182.42 19.992 182.38 19.752 182.38 19.496C182.38 18.736 182.672 18.168 183.256 17.792C183.84 17.408 184.584 17.208 185.488 17.192C186.456 17.176 187.352 17.364 188.176 17.756Z" fill="#905A6C"/>
<path d="M196.279 17.372V18.644H193.639V26H192.055V18.644H189.439V17.372H192.055V17.36H193.639V17.372H196.279Z" fill="#905A6C"/>
<path d="M204.48 17.36L201.696 22.364L201.684 26H200.112L200.124 22.388L197.184 17.36H198.912L200.88 20.888L200.94 21.284L201 20.9L202.872 17.36H204.48Z" fill="#905A6C"/>
<path d="M207.608 24.716H211.568V26H206.024V17.36H207.608V24.716Z" fill="#905A6C"/>
<path d="M214.869 24.716H218.913V26H213.285V18.428L212.277 18.128V17.36H218.697V18.644H214.869V21.056H218.121V22.34H214.869V24.716Z" fill="#905A6C"/>
</svg>
