<svg width="279" height="45" viewBox="0 0 279 45" fill="none" xmlns="http://www.w3.org/2000/svg">
<path fill-rule="evenodd" clip-rule="evenodd" d="M88.5909 36.3184V21.4813H91.8963V20.0549H88.5909V16H87.0068V20.0573V21.4838V36.3184H88.5909ZM19.8749 16.0024H18.292V17.8653H19.8749V16.0024ZM136.765 17.8653H135.182V16.0024H136.765V17.8653ZM7.66787 36.3159H9.12962L16.6746 20.0573H14.9204L8.43923 34.4336L1.87092 20.0573H0L7.66787 36.3159ZM19.8749 36.3159H18.292V20.0573H19.8749V36.3159ZM47.9066 17.8653H49.4895V16.0024H47.9066V17.8653ZM49.4895 36.3159H47.9066V20.0573H49.4895V36.3159ZM93.1696 36.3159H94.7506V16.0024H93.1696V36.3159ZM136.765 36.3159H135.182V20.0573H136.765V36.3159ZM130.276 21.4813V36.3184H128.699V21.4838V20.0573V16H130.276V20.0573H133.585V21.4813H130.276ZM83.5784 26.2848V26.0629C83.5784 22.7492 81.5133 21.3423 78.2196 21.3423C76.4847 21.3423 74.851 21.769 73.1161 22.5981L72.5449 21.3326C74.2997 20.4572 76.3666 19.8915 78.4377 19.8915C80.5924 19.8915 82.3248 20.4109 83.48 21.5447C84.7458 22.7858 85.1013 24.3951 85.1013 26.041V36.3159H83.5784V33.7387C83.2544 34.3921 81.2265 36.6671 77.4439 36.6671C74.2565 36.6671 71.3063 34.8213 71.3063 31.5978V31.5394C71.3063 26.297 76.9939 26.2848 78.677 26.2848H83.5784ZM83.6086 29.8374C83.6086 33.6607 80.5034 35.2699 77.5848 35.2699C74.8962 35.2699 72.9263 33.7021 72.9263 31.5077C72.9263 28.6719 74.9172 27.6746 78.876 27.6746H83.6086V29.8374ZM109.039 26.2848V26.0629C109.039 22.7492 106.973 21.3423 103.679 21.3423C101.941 21.3423 100.309 21.769 98.5753 22.5981L98.0042 21.3326C99.7601 20.4572 101.825 19.8915 103.898 19.8915C106.049 19.8915 107.784 20.4109 108.939 21.5447C110.203 22.7858 110.561 24.3951 110.561 26.041V36.3159H109.039V33.7387C108.715 34.3921 106.687 36.6671 102.9 36.6671C99.7157 36.6671 96.7656 34.8213 96.7656 31.5978V31.5394C96.7656 26.297 102.455 26.2848 104.139 26.2848H109.039ZM109.067 29.8374C109.067 33.6607 105.961 35.2699 103.042 35.2699C100.354 35.2699 98.3837 33.7021 98.3837 31.5077C98.3837 28.6719 100.376 27.6746 104.336 27.6746H109.067V29.8374ZM64.0477 36.3159H65.6318V26.8042C65.6318 22.1031 63.1632 19.7745 59.1346 19.7745C54.9186 19.7745 53.2567 22.9004 53.1015 23.2954V20.0549H51.5216V36.3159H53.1015V28.4037C53.1015 23.3905 55.7258 21.1985 58.9114 21.1985C63.9957 21.1985 64.0477 25.7167 64.0477 27.7088V36.3159ZM126.734 36.3159H125.152V27.7088C125.152 25.7167 125.099 21.1985 120.013 21.1985C116.83 21.1985 114.205 23.3905 114.205 28.4037V36.3159H112.624V20.0549H114.205V23.2954C114.362 22.9004 116.022 19.7745 120.238 19.7745C124.268 19.7745 126.734 22.1031 126.734 26.8042V36.3159ZM38.0105 41C40.3704 41 42.4446 40.2417 43.8278 38.8445C45.1196 37.5449 45.8503 35.782 45.8503 32.8268V20.0549H44.3124V23.3613C43.4503 21.5447 40.8408 19.7769 37.6323 19.7769C33.76 19.7769 29.9242 22.7858 29.9242 27.4454V27.5113C29.9242 32.1368 33.76 35.1139 37.6323 35.1139C40.808 35.1139 43.4082 33.2729 44.3124 31.3736V32.8633C44.3124 37.2937 41.9334 39.5419 38.042 39.5419C35.3725 39.5419 33.4405 38.5886 31.5529 37.2767L30.6492 38.5275C31.7129 39.4272 34.4405 41 38.0105 41ZM31.5905 27.4454C31.5905 31.0199 34.4553 33.6314 37.7997 33.6314C41.1337 33.6314 44.2933 31.1493 44.2933 27.4771V27.4113C44.2933 23.6734 41.1251 21.2667 37.7892 21.2667C34.4238 21.2667 31.5905 23.6124 31.5905 27.382V27.4454ZM152.98 32.5464C152.166 33.4315 150.314 35.0554 147.48 35.0554C143.727 35.0554 140.782 31.971 140.782 28.0989V28.0355C140.782 24.1952 143.63 21.1424 147.352 21.1424C149.091 21.1424 151.02 21.7276 152.957 23.6026L153.942 22.5444C152.89 21.3253 150.648 19.6965 147.385 19.6965C142.482 19.6965 139.081 23.5978 139.081 28.0989V28.1623C139.081 32.6635 142.489 36.5013 147.385 36.5013C150.813 36.5013 153.199 34.6116 154 33.4632L152.98 32.5464ZM23.6075 36.3136H22.0246V20.0525H23.6075V24.5512C24.9389 21.6666 27.6453 19.7745 30.9057 19.8989V21.5398H30.7432C26.9322 21.5398 23.6075 24.361 23.6075 29.618V36.3136Z" fill="#5B056A"/>
<path d="M177 0H164.515C160.65 0 159.706 0.635228 158.166 2.31638L147 14.5029C155.918 14.0866 158.668 23.0233 167.722 20.5744L177 0Z" fill="url(#paint0_linear)"/>
<path d="M168.005 19.5905C159.237 21.9203 156.506 13.5388 148 13.7404L158.8 2.163C160.264 0.592718 161.166 0 164.867 0H177L168.005 19.5905H167.998H168.005Z" fill="url(#paint1_linear)"/>
<path fill-rule="evenodd" clip-rule="evenodd" d="M160.864 4.81735C160.864 4.81735 161.395 3.78876 161.815 3.45179C161.815 3.45179 162.274 3.16044 162.287 2.68161C162.287 2.68161 162.321 2.35985 162.073 2.16224C162.073 2.16224 161.426 1.6074 160.901 2.54986C160.901 2.54986 158.425 7.46488 157.572 12.4179C157.572 12.4179 157.507 12.58 157.49 12.1265L157.111 7.81957L157.107 7.76636C157.095 7.59662 157.073 7.2926 156.775 7.2698C156.775 7.2698 156.384 7.1938 156.154 7.80944L155.056 10.647C155.056 10.647 154.874 11.0042 155.166 11.1385C155.166 11.1385 155.493 11.331 155.706 10.8522L156.213 9.70957C156.315 9.47649 156.39 9.50942 156.39 9.50942C156.448 9.52209 156.472 9.75518 156.472 9.75518L156.923 15.3795C156.928 15.4226 156.968 15.871 157.326 15.871C157.586 15.8686 157.668 15.5645 157.719 15.3112L157.752 15.1464C157.881 14.4776 158.342 12.0911 159.059 9.53983C159.587 7.66503 160.266 5.79022 160.864 4.81735ZM160.133 9.68424C159.622 9.80585 159.555 10.4164 159.555 10.4164L159.242 12.8461C159.192 13.33 159.788 12.9778 159.788 12.9778C160.034 12.8258 160.077 12.5066 160.077 12.5066L160.172 11.8985L160.462 10.2543C160.557 9.56769 160.133 9.68424 160.133 9.68424ZM160.959 11.4501C160.986 11.1689 161.153 9.90212 161.153 9.90212C161.21 9.11166 161.616 9.09393 161.616 9.09393L161.994 9.04326C161.994 9.04326 162.126 9.03059 162.375 8.91151C162.701 8.76204 162.805 9.04326 162.805 9.04326C162.972 9.40301 162.421 9.66143 162.421 9.66143C161.907 9.95279 161.88 10.6318 161.88 10.6318L161.792 11.5489C161.723 12.1975 161.282 12.3267 161.282 12.3267C160.735 12.5192 160.959 11.4501 160.959 11.4501ZM160.728 8.45042C161.065 8.16667 160.965 7.93358 160.965 7.93358C160.84 7.55355 160.383 7.95891 160.383 7.95891C159.999 8.24774 160.133 8.52895 160.133 8.52895C160.301 8.83298 160.728 8.45042 160.728 8.45042ZM166.839 9.60062C166.762 10.12 166.325 10.2188 166.325 10.2188C165.925 10.3277 166.012 9.91478 166.012 9.91478L166.071 9.52715L166.397 7.61689C166.473 7.18365 166.892 7.09752 166.892 7.09752C167.234 7.01898 167.12 7.52822 167.11 7.59409C167.098 7.65996 166.839 9.60062 166.839 9.60062ZM167.37 6.16012C167.37 6.16012 167.736 5.84343 167.569 5.61034C167.569 5.61034 167.414 5.36713 166.981 5.68889C166.981 5.68889 166.593 6.02078 166.831 6.25639C166.831 6.25639 167.056 6.47934 167.37 6.16012ZM171.238 8.44028C171.634 8.2604 171.857 8.36935 171.943 8.52389C172.033 8.68857 172.006 8.84818 171.933 8.96219C171.807 9.15473 171.38 9.30674 171.05 9.40809C170.802 9.48409 170.609 9.56009 170.609 9.56009C170.024 9.75518 169.336 10.0415 169.336 10.0415C167.747 10.7483 166.327 11.5236 165.088 12.2862C165.071 12.4736 165.058 12.6256 165.055 12.7321C165.055 12.7321 164.83 15.4834 164.8 15.8888C164.8 15.8888 164.791 16.3904 164.857 16.6945L164.878 16.7857C164.955 17.1125 165.085 17.6698 164.723 17.913C164.398 18.1335 164.109 17.8751 164.045 17.7915C164.001 17.7332 163.882 17.5786 163.972 16.8059C163.972 16.8059 164.168 14.8298 164.214 14.1914L164.318 12.7751C161.087 14.8805 159.337 16.7628 159.337 16.7628C159.16 16.9351 158.73 17.3202 158.419 16.8971C158.126 16.502 158.91 15.8965 158.91 15.8965C160.618 14.3763 162.596 13.031 164.377 11.9517L164.408 11.5134C164.408 11.5134 164.428 11.3741 164.286 11.4729C164.286 11.4729 163.685 11.8428 163.246 11.63C163.246 11.63 162.894 11.4678 162.908 10.9206C162.908 10.9206 162.906 9.19526 163.595 8.47828C163.595 8.47828 163.992 8.04506 164.379 8.06025C164.611 8.07039 164.582 8.42762 164.273 8.70377C164.009 8.93938 163.939 9.22567 163.858 9.56263L163.81 9.75518C163.81 9.75518 163.564 10.9257 163.977 10.8775C163.977 10.8775 164.394 10.9105 164.523 10.1707L164.835 8.34654L164.84 8.32121C164.871 8.10839 164.934 7.68783 165.291 7.70302C165.291 7.70302 165.671 7.70302 165.63 8.02986C165.63 8.02986 165.345 10.0364 165.177 11.4754C167.606 10.0617 169.492 9.21807 169.492 9.21807C169.565 9.17753 169.533 9.16233 169.533 9.16233C169.242 9.05846 169.38 8.37948 169.38 8.37948L169.522 7.00631C169.527 6.66683 169.133 6.86951 169.133 6.86951C168.855 7.03165 168.663 7.40914 168.663 7.40914C168.5 7.64475 168.402 8.84564 168.402 8.84564C168.363 9.45875 168.021 9.56009 168.021 9.56009C167.617 9.70704 167.57 9.47143 167.57 9.47143C167.522 9.36248 167.616 8.77724 167.616 8.77724L167.791 7.28247C167.824 6.65162 168.263 6.53002 168.263 6.53002C168.363 6.49961 168.491 6.47681 168.634 6.52747C168.776 6.57815 168.875 6.56801 168.959 6.54522C169.106 6.50721 169.297 6.31973 169.297 6.31973C169.688 5.95744 169.931 5.98784 169.931 5.98784C170.389 5.98531 170.326 6.59841 170.326 6.59841L170.166 8.28573C170.116 9.00272 170.618 8.7291 170.631 8.7215L171.238 8.44028Z" fill="white"/>
<path d="M177 36.31H178.56V16.3H177V36.31Z" fill="#E1163C"/>
<path d="M182.696 19.36C183.356 19.36 183.896 18.82 183.896 18.16C183.896 17.5 183.356 16.96 182.696 16.96C182.066 16.96 181.496 17.5 181.496 18.16C181.496 18.82 182.066 19.36 182.696 19.36ZM181.916 36.31H183.476V21.82H181.916V36.31Z" fill="#E1163C"/>
<path d="M187.342 36.31H188.902V23.2H191.842V21.82H188.902V20.5C188.902 18.49 189.772 17.35 191.422 17.35C191.962 17.35 192.382 17.47 192.742 17.68L193.222 16.45C192.652 16.12 191.992 16 191.272 16C188.872 16 187.342 17.65 187.342 20.5V21.82H184.942V23.2H187.342V36.31Z" fill="#E1163C"/>
<path d="M192.431 29.05C192.431 33.52 195.461 36.67 199.691 36.67C202.091 36.67 203.921 35.83 205.361 34.33L204.551 33.31C203.291 34.63 201.641 35.32 199.781 35.32C196.391 35.32 194.291 32.71 194.141 29.56H206.261V29.14C206.261 24.97 203.831 21.46 199.421 21.46C195.401 21.46 192.431 24.85 192.431 29.05ZM199.391 22.81C203.021 22.81 204.641 25.87 204.671 28.33H194.141C194.261 25.81 195.971 22.81 199.391 22.81Z" fill="#E1163C"/>
<path d="M207.533 34.39C208.973 35.98 210.773 36.67 213.113 36.67C216.713 36.67 218.543 34.75 218.543 32.41C218.543 29.32 215.753 28.63 213.263 28C211.253 27.49 209.393 27.04 209.393 25.39C209.393 23.89 210.773 22.78 213.023 22.78C214.943 22.78 216.503 23.56 217.343 24.7L218.213 23.62C217.163 22.42 215.513 21.46 213.023 21.46C209.723 21.46 207.863 23.26 207.863 25.48C207.863 28.3 210.533 28.93 212.933 29.53C215.033 30.07 217.013 30.61 217.013 32.47C217.013 34.15 215.573 35.35 213.143 35.35C211.073 35.35 209.393 34.39 208.463 33.22L207.533 34.39Z" fill="#E1163C"/>
<path d="M224.213 36.67C225.413 36.67 226.103 36.31 226.673 35.77L226.072 34.57C225.742 34.93 225.142 35.26 224.452 35.26C223.432 35.26 222.952 34.45 222.952 33.28V23.23H225.893V21.82H222.952V17.86H221.362V21.82H218.963V23.23H221.362V33.52C221.362 35.5 222.293 36.67 224.213 36.67Z" fill="#E1163C"/>
<path d="M227.134 40.54L226.864 41.98C227.254 42.1 227.914 42.19 228.394 42.19C230.104 42.19 231.334 41.32 232.114 39.49L239.614 21.82H237.844L232.594 34.48L227.344 21.82H225.604L231.724 36.43L230.584 39.01C230.014 40.39 229.354 40.78 228.364 40.78C228.034 40.78 227.464 40.69 227.134 40.54Z" fill="#E1163C"/>
<path d="M240.768 36.31H242.328V16.3H240.768V36.31Z" fill="#E1163C"/>
<path d="M244.844 29.05C244.844 33.52 247.874 36.67 252.104 36.67C254.504 36.67 256.334 35.83 257.774 34.33L256.964 33.31C255.704 34.63 254.054 35.32 252.194 35.32C248.804 35.32 246.704 32.71 246.554 29.56H258.674V29.14C258.674 24.97 256.244 21.46 251.834 21.46C247.814 21.46 244.844 24.85 244.844 29.05ZM251.804 22.81C255.434 22.81 257.054 25.87 257.084 28.33H246.554C246.674 25.81 248.384 22.81 251.804 22.81Z" fill="#E1163C"/>
<defs>
<linearGradient id="paint0_linear" x1="146.052" y1="9.60295" x2="160.74" y2="23.5167" gradientUnits="userSpaceOnUse">
<stop stop-color="#E96E85"/>
<stop offset="0.023062" stop-color="#E5566C"/>
<stop offset="0.0506833" stop-color="#E24256"/>
<stop offset="0.0833096" stop-color="#E03245"/>
<stop offset="0.123658" stop-color="#DE263A"/>
<stop offset="0.180256" stop-color="#DD2033"/>
<stop offset="0.337423" stop-color="#DD1E31"/>
<stop offset="0.516817" stop-color="#DA1E30"/>
<stop offset="0.646871" stop-color="#D11D2F"/>
<stop offset="0.761373" stop-color="#C11B2C"/>
<stop offset="0.866884" stop-color="#AB1928"/>
<stop offset="0.965325" stop-color="#8E1622"/>
<stop offset="1" stop-color="#821520"/>
</linearGradient>
<linearGradient id="paint1_linear" x1="180.99" y1="10.5698" x2="172.786" y2="-4.88269" gradientUnits="userSpaceOnUse">
<stop offset="0.84" stop-color="#C52032"/>
<stop offset="0.868297" stop-color="#C62335"/>
<stop offset="0.889821" stop-color="#C82D3E"/>
<stop offset="0.909114" stop-color="#CD3D4D"/>
<stop offset="0.927111" stop-color="#D35462"/>
<stop offset="0.944205" stop-color="#DA727D"/>
<stop offset="0.960618" stop-color="#E4969F"/>
<stop offset="0.976481" stop-color="#EFC2C7"/>
<stop offset="0.991548" stop-color="#FCF3F4"/>
<stop offset="0.995" stop-color="white"/>
</linearGradient>
</defs>
</svg>
