<svg width="81" height="26" viewBox="0 0 81 26" fill="none" xmlns="http://www.w3.org/2000/svg"><g clip-path="url(#gst-svg--visa--logo)"><path d="M30.755.46 20.15 25.607H13.23L8.013 5.538c-.317-1.236-.591-1.689-1.556-2.21C4.884 2.48 2.286 1.684 0 1.19L.155.46h11.138c1.42 0 2.696.938 3.018 2.563l2.756 14.55L23.878.457h6.877V.46Zm27.108 16.936c.028-6.637-9.234-7.002-9.17-9.967.02-.903.886-1.862 2.776-2.107.938-.122 3.522-.215 6.453 1.126l1.15-5.333C57.496.547 55.47 0 52.949 0c-6.47 0-11.022 3.418-11.06 8.313-.043 3.62 3.248 5.64 5.729 6.843 2.551 1.232 3.407 2.024 3.397 3.126-.018 1.686-2.034 2.431-3.919 2.46-3.29.05-5.199-.884-6.72-1.588l-1.187 5.51c1.53.697 4.352 1.305 7.279 1.336 6.876 0 11.374-3.376 11.395-8.604Zm17.084 8.21H81L75.716.46h-5.587a2.991 2.991 0 0 0-1.678.497 2.963 2.963 0 0 0-1.107 1.347l-9.822 23.303h6.873l1.364-3.756h8.397l.79 3.756Zm-7.303-8.91 3.444-9.441 1.983 9.442h-5.427ZM40.106.46l-5.412 25.147h-6.545L33.563.46h6.543Z" fill="#1434CB"/></g><defs><clipPath id="a"><path fill="#fff" d="M0 0h81v26H0z"/></clipPath></defs></svg>