<?xml version="1.0" encoding="UTF-8"?>
<svg width="212px" height="42px" viewBox="0 0 212 42" version="1.1" xmlns="http://www.w3.org/2000/svg" xmlns:xlink="http://www.w3.org/1999/xlink">
    <title>A6C330B8-1618-4F64-8DD5-DEC828D33075</title>
    <defs>
        <linearGradient x1="50%" y1="-0.000288061704%" x2="50%" y2="99.9992171%" id="linearGradient-1">
            <stop stop-color="#19AADE" offset="3.3%"></stop>
            <stop stop-color="#134E8E" offset="95.1%"></stop>
        </linearGradient>
        <linearGradient x1="50.0000842%" y1="1.31081935e-14%" x2="50.0000842%" y2="100%" id="linearGradient-2">
            <stop stop-color="#E02527" offset="13.2%"></stop>
            <stop stop-color="#A1141C" offset="74.2%"></stop>
        </linearGradient>
        <linearGradient x1="0.00398474639%" y1="50.0019807%" x2="100%" y2="50.0019807%" id="linearGradient-3">
            <stop stop-color="#71251D" offset="0.5%"></stop>
            <stop stop-color="#C73127" offset="74.2%"></stop>
        </linearGradient>
        <linearGradient x1="0.00348599995%" y1="49.9988877%" x2="100.002071%" y2="49.9988877%" id="linearGradient-4">
            <stop stop-color="#E8EBEE" offset="14.8%"></stop>
            <stop stop-color="#95A5AF" offset="74.2%"></stop>
        </linearGradient>
    </defs>
    <g id="PC-Lifestyle-Design-System" stroke="none" stroke-width="1" fill="none" fill-rule="evenodd">
        <g id="1.1-american-airlines-styleguide" transform="translate(-681.000000, -550.000000)" fill-rule="nonzero">
            <g id="logo-white-bg" transform="translate(681.000000, 550.000000)">
                <g id="Group-2" transform="translate(167.000000, 1.000000)">
                    <path d="M0,0.00250904999 L4.81228431,0.00250904999 C4.81228431,0.00250904999 7.67943668,-0.159924842 9.49245303,2.12911546 L20,15.9980496 L12.6266253,15.9980496 C12.6266253,15.9980496 9.35929167,16.1477078 8.03569561,13.8250857 L0,0.00250904999 Z" id="Path" fill="url(#linearGradient-1)"></path>
                    <path d="M21,36 C21,36 23.3021112,40 29.009776,40 L41,40 L24.02054,19 L16.8737454,20.6689665 C16.8737454,20.6685791 14.0340729,24.2898572 16,29 L21,36 Z" id="Path" fill="url(#linearGradient-2)"></path>
                    <path d="M26,24.1385731 L23.3942149,21 L16.8273927,22.7644892 C16.8273927,22.7644892 14.9657591,25.2028285 16.8273927,29.5375748 L17.1006666,30 C17.0787904,29.7133463 16.8768833,25.2402646 26,24.1385731 L26,24.1385731 Z" id="Path" fill="url(#linearGradient-3)"></path>
                    <path d="M16.5983284,30 C16.5983284,30 14.5791406,24.772705 21.1675506,22.2687793 C21.1675506,22.2687793 25.8606839,20.5781065 29,21.5803149 C29,21.5803149 28.7828035,17.7615003 21.0739132,18.0117865 C21.0739132,18.0117865 17.0031517,17.9805894 13.8011759,19.1075864 C13.8011759,19.1075864 10.4129815,20.0151398 12.93063,23.9275459 L16.5983284,30 Z" id="Path" fill="url(#linearGradient-4)"></path>
                    <polygon id="Path" fill="#37495A" points="42.4108382 38.2194076 42 38.2194076 42 38 43 38 43 38.2194076 42.5875601 38.2194076 42.5875601 40 42.4108382 40"></polygon>
                    <path d="M44.704048,39.121732 C44.6897153,38.8423203 44.6722836,38.5073529 44.6753825,38.2581699 L44.666473,38.2581699 C44.5929628,38.5144652 44.510395,38.7677738 44.4189425,39.0175654 L44.0730196,39.9877451 L43.8808832,39.9877451 L43.5640132,39.0355392 C43.471044,38.7536765 43.3931823,38.4955065 43.3377881,38.2581699 L43.3315902,38.2581699 C43.3234659,38.5531653 43.3108101,38.8480024 43.2936277,39.1425654 L43.2413326,40 L43,40 L43.1363548,38 L43.4594228,38 L43.7937246,38.9673203 C43.87546,39.2136438 43.9420879,39.4330065 43.9912841,39.6405229 L44.0001937,39.6405229 C44.0493899,39.4387255 44.1198915,39.2193627 44.2066628,38.9673203 L44.5552973,38 L44.8783653,38 L45,40 L44.7524695,40 L44.704048,39.121732 Z" id="Path" fill="#37495A"></path>
                </g>
                <g id="Group" fill="#36495A">
                    <path d="M159.327865,23.8895152 C159.327865,23.8173619 159.363517,23.6369786 159.363517,23.4926719 C159.363517,22.0856821 158.721785,19.7767756 156.0479,19.7767756 C153.088801,19.7767756 152.554024,22.5546787 152.554024,23.8895152 L159.327865,23.8895152 L159.327865,23.8895152 Z M163,24.1059752 C163,24.6832018 162.893045,26.0901917 162.857393,26.4148816 L152.482721,26.4148816 C152.482721,29.0845547 154.158355,31.2130778 157.509624,31.2130778 C159.292213,31.2130778 160.646982,30.5997745 161.0035,30.4193912 C161.253062,30.3111612 161.431321,30.2029312 161.60958,30.2029312 C161.752187,30.2029312 161.859143,30.2750846 161.894794,30.5636979 C161.930446,30.9966178 162.037402,32.4036077 162.037402,33.1972943 C161.395669,33.4498309 159.434821,34.0992108 157.153106,34.0992108 C151.413167,34.0992108 148.739283,31.0326945 148.739283,25.621195 C148.739283,20.4622322 151.484471,17.0710259 156.119204,17.0710259 C161.431321,17.0710259 163,20.9673055 163,24.1059752 M139.184602,19.7046223 C136.938539,19.7046223 135.690726,21.1116122 135.690726,23.0236753 C135.690726,25.1161218 136.867235,26.3427283 139.14895,26.3427283 C141.288058,26.3427283 142.571522,25.1521984 142.571522,23.059752 C142.607174,20.9673055 141.359361,19.7046223 139.184602,19.7046223 M140.396763,33.9909808 L137.936789,33.9909808 C137.651575,33.9909808 137.259405,33.9909808 136.974191,33.9549042 C136.332458,34.2074408 135.334208,35.0732807 135.334208,36.5163472 C135.334208,38.2480271 136.831584,39.1860203 139.113298,39.1860203 C142.072397,39.1860203 143.605424,37.9233371 143.605424,36.1916573 C143.605424,34.9289741 142.714129,33.9909808 140.396763,33.9909808 M138.828084,42 C134.157699,42 131.804681,40.1600902 131.804681,36.9853439 C131.804681,34.7485908 133.58727,33.6302142 134.692476,33.2694476 C134.157699,33.0529876 132.909886,32.5118377 132.909886,30.8162345 C132.909886,29.0124014 134.407262,28.3630214 135.048994,28.1465614 C133.97944,27.8218715 132.161199,26.4148816 132.161199,23.3483653 C132.161199,19.9210823 134.76378,17.0349493 139.327209,17.0349493 C140.289808,17.0349493 141.109799,17.1792559 141.965442,17.3596392 L147.420166,17.3596392 C147.420166,17.8286359 147.384514,18.6944758 147.313211,19.3438557 C147.241907,20.065389 146.778434,20.1014656 146.350612,20.1014656 L144.924541,20.1014656 C145.31671,20.3540023 146.029746,21.3641488 146.029746,22.8072153 C146.029746,26.3066516 143.605424,28.7959414 139.077647,28.7959414 C138.435914,28.7959414 137.722878,28.723788 137.223753,28.6155581 C136.831584,28.6877114 136.261155,29.1206313 136.261155,29.6978579 C136.261155,30.5276212 136.76028,31.1048478 138.364611,31.1048478 L141.466317,31.1048478 C145.31671,31.1048478 147.0993,32.800451 147.0993,35.6505073 C147.206255,39.222097 143.997594,42 138.828084,42 M119.433508,28.723788 C119.433508,30.1668546 120.360455,31.3934611 122.036089,31.3934611 C124.282152,31.3934611 125.565617,29.264938 125.565617,26.6674183 L125.565617,25.4768884 L124.745626,25.4768884 C121.180446,25.4408117 119.433508,26.5952649 119.433508,28.723788 M122.428259,17.0710259 C126.991689,17.0710259 129.237752,19.1273957 129.237752,23.0236753 L129.237752,29.5535513 C129.237752,30.9966178 129.380359,32.6561443 129.522966,33.7745209 L126.456912,33.7745209 C125.922135,33.7745209 125.886483,33.4498309 125.850831,33.0529876 L125.743876,31.6820744 L125.601269,31.6820744 C125.102143,32.4396843 123.747375,34.0992108 120.788276,34.0992108 C117.757874,34.0992108 115.725722,31.8263811 115.725722,28.7959414 C115.725722,24.4667418 120.431759,23.059752 124.63867,23.059752 L125.565617,23.059752 L125.565617,22.518602 C125.565617,20.5343856 124.103893,19.848929 122.107393,19.848929 C120.110892,19.848929 118.506562,20.5343856 118.043088,20.7869222 C117.864829,20.8590755 117.650919,21.0033822 117.47266,21.0033822 C117.187445,21.0033822 117.223097,20.7508455 117.187445,20.6786922 C117.151794,20.1014656 117.08049,18.6583991 117.08049,18.1533258 C117.650919,17.9007892 119.932633,17.0710259 122.428259,17.0710259 M106.670166,28.3269448 L106.670166,20.2096956 L104.424103,20.2096956 L104.424103,17.3957159 L106.670166,17.3957159 L106.670166,13.7880496 L110.377953,13.7880496 L110.377953,17.3957159 L114.263998,17.3957159 L114.263998,20.2096956 L110.377953,20.2096956 L110.377953,28.940248 C110.377953,30.3833145 111.055337,31.1770011 112.410105,31.1770011 C113.408355,31.1770011 113.943132,30.8883878 114.263998,30.8883878 C114.477909,30.8883878 114.584864,31.0326945 114.584864,31.3573844 C114.584864,31.3573844 114.727472,33.1972943 114.763123,33.7745209 C114.406605,33.9188275 113.479659,34.1352875 112.160542,34.1352875 C108.024934,34.0992108 106.670166,31.7903044 106.670166,28.3269448 M88.7016623,33.7745209 L88.7016623,22.410372 C88.7016623,20.7147689 88.5947069,18.6583991 88.5234033,17.3957159 L91.4468504,17.3957159 C91.7320647,17.3957159 91.8746719,17.5039459 91.8746719,17.8286359 C91.8746719,18.2254791 91.9103237,19.8850056 91.9103237,19.8850056 L92.0529309,19.8850056 C93.0155293,18.1894025 94.4059493,17.0710259 97.0085302,17.0710259 C100.57371,17.0710259 102.498906,19.524239 102.498906,22.2660654 L102.498906,33.7745209 L98.7911199,33.7745209 L98.7911199,23.3122886 C98.7911199,20.6786922 97.5433071,19.9210823 96.1885389,19.9210823 C94.2633421,19.9210823 92.373797,21.7970688 92.373797,25.6933484 L92.373797,33.7384442 L88.7016623,33.7384442 L88.7016623,33.7745209 Z M75.6531059,28.723788 C75.6531059,30.1668546 76.5800525,31.3934611 78.2556868,31.3934611 C80.5017498,31.3934611 81.7852143,29.264938 81.7852143,26.6674183 L81.7852143,25.4768884 L80.9652231,25.4768884 C77.4000437,25.4408117 75.6531059,26.5952649 75.6531059,28.723788 M78.6478565,17.0710259 C83.2112861,17.0710259 85.4573491,19.1273957 85.4573491,23.0236753 L85.4573491,29.5535513 C85.4573491,30.9966178 85.5999563,32.6561443 85.7425634,33.7745209 L82.6765092,33.7745209 C82.1417323,33.7745209 82.1060805,33.4498309 82.0704287,33.0529876 L81.9634733,31.6820744 L81.8208661,31.6820744 C81.321741,32.4396843 79.9669729,34.0992108 77.007874,34.0992108 C73.9418198,34.0992108 71.9096675,31.8263811 71.9096675,28.7959414 C71.9096675,24.4667418 76.6157043,23.059752 80.8226159,23.059752 L81.7495626,23.059752 L81.7495626,22.518602 C81.7495626,20.5343856 80.287839,19.848929 78.2913386,19.848929 C76.2948381,19.848929 74.6905074,20.5343856 74.2270341,20.7869222 C74.0844269,20.8590755 73.8348644,21.0033822 73.6922572,21.0033822 C73.4070429,21.0033822 73.4426947,20.7508455 73.4070429,20.6786922 C73.3713911,20.1014656 73.3000875,18.6583991 73.3000875,18.1533258 C73.906168,17.9007892 76.152231,17.0710259 78.6478565,17.0710259 M55.082021,17.3957159 L59.1463255,17.3957159 L63.2106299,29.4092446 L63.3532371,29.4092446 L67.2749344,17.3957159 L71.1966317,17.3957159 L65.0645232,33.7745209 L61.1784777,33.7745209 L55.082021,17.3957159 Z M42.3543307,26.162345 C42.3543307,28.7959414 42.8891076,31.2491545 45.7769029,31.2491545 C47.7020997,31.2491545 49.555993,29.5535513 49.555993,25.6933484 L49.555993,20.3179256 C49.2351269,20.2096956 48.4864392,19.9932356 47.0247157,19.9932356 C43.9943132,19.957159 42.3543307,22.0496054 42.3543307,26.162345 M49.5916448,10 L53.2994313,10 L53.2994313,28.7598647 C53.2994313,30.4554679 53.3707349,32.475761 53.4776903,33.7745209 L50.5185914,33.7745209 C50.2333771,33.7745209 50.0907699,33.6662909 50.0907699,33.3416009 C50.0551181,32.9447576 50.0551181,31.2852311 50.0551181,31.2852311 L49.9125109,31.2852311 C49.377734,32.2953777 48.0942695,34.0992108 44.9569116,34.0992108 C39.3595801,34.0992108 38.5395888,29.3010147 38.5395888,26.3427283 C38.5395888,20.7869222 41.8195538,17.0710259 47.0960192,17.0710259 C48.5577428,17.0710259 49.3420822,17.2874859 49.5916448,17.3957159 L49.5916448,10 Z M24.0293088,25.729425 L27.5588364,15.5197294 L27.7014436,15.5197294 L31.2309711,25.729425 L24.0293088,25.729425 Z M6.80949256,25.729425 L10.3390201,15.5197294 L10.4816273,15.5197294 L14.0111549,25.729425 L6.80949256,25.729425 Z M30.0544619,11.4430665 L25.5979878,11.4430665 L19.1450131,28.5794814 L12.8346457,11.4069899 L8.37817148,11.4069899 L0,33.7745209 L3.99300087,33.7745209 L5.77559055,28.723788 L15.1163605,28.723788 L16.8632983,33.7745209 L21.2484689,33.7745209 L23.0310586,28.723788 L32.3718285,28.723788 L34.1187664,33.7745209 L38.3613298,33.7745209 L30.0544619,11.4430665 Z" id="Shape"></path>
                    <path d="M116.60252,1.89285714 L116.60252,1.89285714 L115.21764,5.78571429 L117.9874,5.78571429 L116.60252,1.89285714 Z M119.052692,8.85714286 L118.378007,6.92857143 L114.791523,6.92857143 L114.116838,8.85714286 L112.58992,8.85714286 L115.785796,0.357142857 L117.490263,0.357142857 L120.65063,8.85714286 L119.052692,8.85714286 Z M132.049255,0 L133.540664,0 L133.540664,1.42857143 L132.049255,1.42857143 L132.049255,0 Z M132.049255,2.35714286 L133.505155,2.35714286 L133.505155,8.82142857 L132.049255,8.82142857 L132.049255,2.35714286 Z M121.254296,0 L122.745704,0 L122.745704,1.42857143 L121.254296,1.42857143 L121.254296,0 Z M121.289805,2.35714286 L122.745704,2.35714286 L122.745704,8.82142857 L121.289805,8.82142857 L121.289805,2.35714286 Z M130.451317,0 L128.995418,0 L128.995418,8.85714286 L130.451317,8.85714286 L130.451317,0 Z M125.799542,5.67857143 L125.799542,8.85714286 L124.343643,8.85714286 L124.343643,4.03571429 C124.343643,3.57142857 124.308133,2.67857143 124.272623,2.35714286 L125.444444,2.35714286 C125.586483,2.35714286 125.621993,2.42857143 125.621993,2.53571429 C125.621993,2.71428571 125.621993,3.32142857 125.621993,3.32142857 L125.657503,3.32142857 C125.764032,3.03571429 126.190149,2.21428571 127.39748,2.21428571 C127.788087,2.21428571 128.107675,2.35714286 128.143184,2.35714286 C128.143184,2.64285714 128.107675,3.25 128.107675,3.39285714 C128.107675,3.5 128.036655,3.53571429 128.001145,3.53571429 C127.965636,3.53571429 127.930126,3.53571429 127.894616,3.5 C127.788087,3.46428571 127.575029,3.39285714 127.290951,3.39285714 C126.545246,3.46428571 125.799542,4.03571429 125.799542,5.67857143 M139.115693,8.85714286 L139.115693,4.67857143 C139.115693,3.89285714 138.760596,3.39285714 138.085911,3.39285714 C137.198167,3.39285714 136.594502,4.35714286 136.594502,5.64285714 L136.594502,8.85714286 L135.138603,8.85714286 L135.138603,4.10714286 C135.138603,3.57142857 135.103093,2.82142857 135.067583,2.39285714 L136.239404,2.39285714 C136.381443,2.39285714 136.416953,2.46428571 136.416953,2.57142857 C136.416953,2.71428571 136.416953,3.39285714 136.416953,3.39285714 L136.452463,3.39285714 C136.630011,3.07142857 137.091638,2.28571429 138.441008,2.28571429 C139.825888,2.28571429 140.607102,3.25 140.607102,4.32142857 L140.607102,8.89285714 L139.115693,8.89285714 L139.115693,8.85714286 Z M143.163803,4.92857143 L145.862543,4.92857143 C145.933562,3.89285714 145.365407,3.28571429 144.548683,3.28571429 C143.696449,3.32142857 143.199313,3.92857143 143.163803,4.92857143 M146.785796,7.42857143 C146.856816,7.42857143 146.892325,7.5 146.892325,7.57142857 C146.927835,7.85714286 146.927835,8.46428571 146.927835,8.64285714 C146.785796,8.67857143 145.969072,8.96428571 144.93929,8.96428571 C142.879725,8.96428571 141.672394,7.89285714 141.672394,5.60714286 C141.672394,3.64285714 142.737686,2.25 144.619702,2.25 C146.466208,2.25 147.353952,3.5 147.353952,5.03571429 C147.353952,5.21428571 147.318442,5.53571429 147.318442,5.92857143 L143.199313,5.92857143 C143.199313,7.03571429 143.909507,7.82142857 145.187858,7.82142857 C145.898053,7.82142857 146.466208,7.57142857 146.679267,7.46428571 C146.679267,7.42857143 146.714777,7.42857143 146.785796,7.42857143 M150.194731,8.96428571 C152.112257,8.96428571 153,8.17857143 153,7.03571429 C153,5.89285714 152.183276,5.39285714 151.331042,5.10714286 C151.082474,5.03571429 150.833906,4.92857143 150.620848,4.85714286 C150.017182,4.67857143 149.733104,4.39285714 149.733104,4.03571429 C149.733104,3.64285714 150.088202,3.35714286 150.869416,3.35714286 C151.544101,3.35714286 152.112257,3.64285714 152.325315,3.75 C152.360825,3.75 152.396334,3.78571429 152.467354,3.78571429 C152.502864,3.78571429 152.573883,3.75 152.573883,3.64285714 C152.573883,3.42857143 152.609393,3.03571429 152.609393,2.64285714 C152.431844,2.57142857 151.792669,2.21428571 150.762887,2.21428571 C149.200458,2.21428571 148.206186,3.03571429 148.206186,4.10714286 C148.206186,5.14285714 148.91638,5.64285714 149.697595,5.89285714 C149.875143,5.96428571 150.230241,6.07142857 150.407789,6.14285714 C151.224513,6.42857143 151.473081,6.67857143 151.473081,7.03571429 C151.473081,7.53571429 150.940435,7.78571429 150.017182,7.78571429 C149.271478,7.78571429 148.738832,7.5 148.525773,7.39285714 C148.490263,7.39285714 148.454754,7.35714286 148.419244,7.35714286 C148.312715,7.35714286 148.312715,7.5 148.312715,7.53571429 C148.312715,7.60714286 148.277205,8.28571429 148.277205,8.5 C148.454754,8.64285714 149.200458,8.96428571 150.194731,8.96428571 M64.0126002,1.89285714 L64.0126002,1.89285714 L62.6277205,5.78571429 L65.39748,5.78571429 L64.0126002,1.89285714 Z M66.4627721,8.85714286 L65.7880871,6.92857143 L62.2016037,6.92857143 L61.5269187,8.85714286 L60,8.85714286 L63.1958763,0.357142857 L64.9003436,0.357142857 L68.0607102,8.85714286 L66.4627721,8.85714286 Z M90.3608247,0 L91.8522337,0 L91.8522337,1.42857143 L90.3608247,1.42857143 L90.3608247,0 Z M90.3608247,2.35714286 L91.8167239,2.35714286 L91.8167239,8.82142857 L90.3608247,8.82142857 L90.3608247,2.35714286 Z M87.2359679,5.67857143 L87.2359679,8.85714286 L85.7800687,8.85714286 L85.7800687,4.03571429 C85.7800687,3.57142857 85.744559,2.67857143 85.7090493,2.35714286 L86.8808706,2.35714286 C87.0229095,2.35714286 87.0584192,2.42857143 87.0584192,2.53571429 C87.0584192,2.71428571 87.0584192,3.32142857 87.0584192,3.32142857 L87.093929,3.32142857 C87.2004582,3.03571429 87.626575,2.21428571 88.8339061,2.21428571 C89.2245132,2.21428571 89.5441008,2.35714286 89.5796105,2.35714286 C89.5796105,2.64285714 89.5441008,3.25 89.5441008,3.42857143 C89.5441008,3.53571429 89.4730813,3.57142857 89.4375716,3.57142857 C89.4020619,3.57142857 89.3665521,3.57142857 89.3310424,3.53571429 C89.2245132,3.5 89.0114548,3.42857143 88.7273769,3.42857143 C87.9461627,3.46428571 87.2359679,4.03571429 87.2359679,5.67857143 M76.441008,8.85714286 L76.441008,4.71428571 C76.441008,3.96428571 76.1214204,3.39285714 75.3757159,3.39285714 C74.5234822,3.39285714 74.0263459,4.32142857 74.0263459,5.64285714 L74.0263459,8.85714286 L72.5704467,8.85714286 L72.5704467,4.67857143 C72.5704467,4 72.2863688,3.35714286 71.5051546,3.35714286 C70.652921,3.35714286 70.1557847,4.28571429 70.1557847,5.64285714 L70.1557847,8.82142857 L68.6998855,8.82142857 L68.6998855,4.10714286 C68.6998855,3.5 68.628866,2.64285714 68.628866,2.35714286 L69.8006873,2.35714286 C69.9427262,2.35714286 69.978236,2.39285714 69.978236,2.53571429 C69.978236,2.71428571 69.978236,3.32142857 69.978236,3.32142857 L70.0137457,3.32142857 C70.1202749,3.14285714 70.5819015,2.21428571 71.9312715,2.21428571 C73.1741123,2.21428571 73.6712486,3.10714286 73.7777778,3.39285714 C73.884307,3.14285714 74.4524628,2.21428571 75.6953036,2.21428571 C77.0091638,2.21428571 77.8969072,2.92857143 77.8969072,4.35714286 L77.8969072,8.85714286 L76.441008,8.85714286 Z M80.4536082,4.92857143 L83.1523482,4.92857143 C83.2233677,3.89285714 82.6552119,3.28571429 81.838488,3.28571429 C81.021764,3.32142857 80.5246277,3.92857143 80.4536082,4.92857143 M84.0756014,7.42857143 C84.1466208,7.42857143 84.1821306,7.5 84.1821306,7.57142857 C84.2176403,7.85714286 84.2176403,8.46428571 84.2176403,8.64285714 C84.0756014,8.67857143 83.2588774,8.96428571 82.2290951,8.96428571 C80.1695304,8.96428571 78.9266896,7.89285714 78.9266896,5.60714286 C78.9266896,3.64285714 79.9919817,2.25 81.8739977,2.25 C83.720504,2.25 84.6082474,3.5 84.6082474,5.03571429 C84.6082474,5.21428571 84.5727377,5.53571429 84.5727377,5.92857143 L80.4536082,5.92857143 C80.4536082,7.03571429 81.163803,7.82142857 82.4421535,7.82142857 C83.1523482,7.82142857 83.720504,7.57142857 83.9335624,7.46428571 C84.0045819,7.42857143 84.0400916,7.42857143 84.0756014,7.42857143 M102.434135,5.57142857 L102.185567,5.57142857 C100.339061,5.57142857 99.9839633,6.21428571 99.9839633,6.85714286 C99.9839633,7.39285714 100.339061,7.89285714 101.013746,7.89285714 C101.936999,7.89285714 102.434135,7 102.434135,6.07142857 L102.434135,5.57142857 Z M102.789233,8.85714286 C102.682703,8.85714286 102.576174,8.82142857 102.576174,8.64285714 C102.576174,8.42857143 102.540664,8.03571429 102.540664,8.03571429 L102.505155,8.03571429 C102.434135,8.14285714 101.901489,9 100.552119,9 C99.2737686,9 98.5280641,8 98.5280641,6.92857143 C98.5280641,5.42857143 99.9839633,4.64285714 102.150057,4.64285714 L102.434135,4.64285714 L102.434135,4.39285714 C102.434135,3.71428571 101.936999,3.35714286 101.049255,3.35714286 C100.232532,3.35714286 99.5578465,3.64285714 99.3092784,3.78571429 C99.3092784,3.78571429 99.2382589,3.82142857 99.2027491,3.82142857 C99.1317297,3.82142857 99.0962199,3.78571429 99.0962199,3.71428571 C99.0962199,3.46428571 99.0607102,3 99.0607102,2.71428571 C99.3092784,2.60714286 100.197022,2.28571429 101.155785,2.28571429 C103.07331,2.28571429 103.890034,3.17857143 103.890034,4.60714286 L103.890034,7.14285714 C103.890034,8.07142857 103.961054,8.67857143 103.996564,8.89285714 L102.789233,8.89285714 L102.789233,8.85714286 Z M97.7113402,7.42857143 C97.7468499,7.42857143 97.8178694,7.46428571 97.8178694,7.57142857 C97.8533792,7.89285714 97.8533792,8.39285714 97.8533792,8.53571429 C97.5693013,8.67857143 96.930126,8.96428571 96.1489118,8.96428571 C94.1958763,8.96428571 92.9885452,7.82142857 92.9885452,5.60714286 C92.9885452,3.53571429 94.0538373,2.25 96.1489118,2.25 C96.8235968,2.25 97.4627721,2.5 97.8533792,2.67857143 C97.8533792,2.89285714 97.8178694,3.42857143 97.8178694,3.64285714 C97.8178694,3.75 97.7468499,3.78571429 97.7113402,3.78571429 C97.6403207,3.78571429 97.6403207,3.78571429 97.604811,3.75 C97.1431844,3.53571429 96.6815578,3.39285714 96.2909507,3.39285714 C95.04811,3.39285714 94.5509737,4.21428571 94.5509737,5.60714286 C94.5509737,6.85714286 94.9770905,7.82142857 96.2909507,7.82142857 C96.7880871,7.82142857 97.2852234,7.64285714 97.5693013,7.5 C97.6403207,7.42857143 97.6758305,7.42857143 97.7113402,7.42857143 M109.145475,8.85714286 L109.145475,4.67857143 C109.145475,3.89285714 108.790378,3.39285714 108.115693,3.39285714 C107.22795,3.39285714 106.624284,4.35714286 106.624284,5.64285714 L106.624284,8.85714286 L105.168385,8.85714286 L105.168385,4.10714286 C105.168385,3.57142857 105.132875,2.82142857 105.097365,2.39285714 L106.269187,2.39285714 C106.411226,2.39285714 106.446735,2.46428571 106.446735,2.57142857 C106.446735,2.71428571 106.446735,3.39285714 106.446735,3.39285714 L106.482245,3.39285714 C106.659794,3.07142857 107.12142,2.28571429 108.47079,2.28571429 C109.85567,2.28571429 110.636884,3.25 110.636884,4.32142857 L110.636884,8.89285714 L109.145475,8.89285714 L109.145475,8.85714286 Z" id="Shape"></path>
                </g>
            </g>
        </g>
    </g>
</svg>