<svg width="139" height="32" viewBox="0 0 139 32" fill="none" xmlns="http://www.w3.org/2000/svg">
<path fill-rule="evenodd" clip-rule="evenodd" d="M127.293 25.0301C126.069 23.8437 124.174 21.761 124.174 21.761C124.174 21.761 131.167 21.8771 132.619 25.2988C131.569 24.9135 127.358 25.0283 127.293 25.0301C130.419 27.9449 134.158 30.4171 138.6 31.9358C138.6 31.9358 132.644 32.4212 129.05 30.7225C125.457 29.0237 121.716 26.1602 119.402 25.9661C117.088 25.7719 115.736 25.6457 115.119 25.0301H127.293ZM113.101 0C113.101 0 115.932 12.095 124.174 21.761C124.174 21.761 114.608 21.4613 111.257 15.0578C108.178 9.17305 110.344 3.15475 113.101 0ZM17.3727 10.0952H21.639L25.5115 20.1258L29.2527 10.0952H33.6502L26.9308 25.7558H25.5115C24.8387 25.7558 23.8705 25.691 22.886 23.1025C21.9015 20.5141 17.3727 10.0952 17.3727 10.0952ZM34.9629 25.7558V10.0952H39.1635V25.7558H34.9629ZM39.4917 5.69467C39.4917 7.01714 38.4044 8.08918 37.0631 8.08918C35.722 8.08918 34.6347 7.01714 34.6347 5.69467C34.6347 4.37239 35.722 3.30036 37.0631 3.30036C38.4044 3.30036 39.4917 4.37239 39.4917 5.69467ZM72.5061 25.7558H68.174V15.0782C68.174 15.0782 68.174 12.8132 65.7455 13.3309C63.77 13.752 62.3326 14.9487 62.3326 14.9487V25.7558H58.0007V10.0952C58.0007 10.0952 61.8075 8.93038 62.1357 11.5837C62.1357 11.5837 64.5641 9.57745 67.5832 9.57745C70.6026 9.57745 72.5061 11.7132 72.5061 13.9133V25.7558ZM50.9777 21.776V18.6373C46.3834 18.3783 45.7926 19.5756 45.7926 20.5787C45.7926 21.4523 46.3176 22.5849 48.0897 22.5849C49.8619 22.5849 50.9777 21.776 50.9777 21.776ZM55.1127 23.0542C55.1127 23.0542 55.1783 25.7558 55.5721 25.7558H53.0781C53.0781 25.7558 51.5029 25.6912 51.3715 24.3322C51.3715 24.3322 49.7307 25.8853 46.5145 25.8853C43.2985 25.8853 41.6577 23.2966 41.6577 21.1611C41.6577 19.0256 42.117 15.4664 50.7808 15.5957C50.7808 15.5957 51.1746 12.8778 48.0242 12.8778C44.8737 12.8778 44.0861 14.1721 44.0861 14.1721L42.4453 11.5837C42.4453 11.5837 44.283 9.54366 49.2056 9.5128C54.358 9.48038 55.1127 13.1368 55.1127 14.9487V23.0542ZM98.5277 21.776V18.6373C93.9332 18.3783 93.3427 19.5756 93.3427 20.5787C93.3427 21.4523 93.8678 22.5849 95.6399 22.5849C97.4121 22.5849 98.5277 21.776 98.5277 21.776ZM102.663 23.0542C102.663 23.0542 102.728 25.7558 103.122 25.7558H100.628C100.628 25.7558 99.0527 25.6912 98.9215 24.3322C98.9215 24.3322 97.2807 25.8853 94.0647 25.8853C90.8485 25.8853 89.2075 23.2966 89.2075 21.1611C89.2075 19.0256 89.667 15.4664 98.3308 15.5957C98.3308 15.5957 98.7246 12.8778 95.5742 12.8778C92.4237 12.8778 91.6361 14.1721 91.6361 14.1721L89.9951 11.5837C89.9951 11.5837 91.833 9.54366 96.7556 9.5128C101.908 9.48038 102.663 13.1368 102.663 14.9487V23.0542ZM87.2737 14.3016C87.2737 14.3016 85.8625 12.8778 83.0731 12.8778C79.9882 12.8778 78.8068 15.8547 78.8068 18.3785C78.8068 20.9023 80.7103 22.6496 83.4669 22.6496C85.5344 22.6496 87.1425 21.4201 87.1425 21.4201L88.2582 24.4615C88.2582 24.4615 85.9282 26.0794 82.2199 26.0794C79.6602 26.0794 74.6718 24.397 74.6718 18.3139C74.6718 12.2307 78.7414 9.60598 82.6793 9.64229C86.1907 9.67451 87.569 10.8718 87.569 10.8718L87.2737 14.3016ZM7.63102 16.7749H12.3876L10.0092 10.2284L7.63102 16.7749ZM11.6174 4.01207L20.4125 25.7558H16.0148L13.7833 20.2553H6.1696L4.39766 25.7558H0L8.40131 4.01207H11.6174Z" fill="#DE0108"/>
</svg>
