<svg width="46" height="47" viewBox="0 0 46 47" fill="none" xmlns="http://www.w3.org/2000/svg"><g clip-path="url(#a)"><path d="M44.98 21.642 34.813 3.083a5.344 5.344 0 0 0-1.42-1.802 5.476 5.476 0 0 0-2.06-1.056 5.244 5.244 0 0 0-1.458-.204 5.876 5.876 0 0 0-2.708.817L8.417 11.005a6.145 6.145 0 0 0-2.875 3.634L.522 31.77a5.108 5.108 0 0 0 .374 4.145c.35.628.829 1.18 1.406 1.618a5.36 5.36 0 0 0 1.948.934l29.688 8.268a5.117 5.117 0 0 0 4.12-.339 4.992 4.992 0 0 0 1.59-1.367 4.875 4.875 0 0 0 .873-1.887l4.896-16.864a6.155 6.155 0 0 0-.437-4.635Z" fill="#fff"/><path d="m43.063 22.622-9.938-18.17a3.856 3.856 0 0 0-.983-1.176 3.944 3.944 0 0 0-1.37-.71 3.993 3.993 0 0 0-3.022.334L9.542 12.843a4.14 4.14 0 0 0-1.222 1.056 4.05 4.05 0 0 0-.716 1.434L2.73 31.871a3.665 3.665 0 0 0 .296 2.848c.239.433.561.815.95 1.125.389.31.836.542 1.317.682l28.687 8.003a3.821 3.821 0 0 0 2.892-.31c.437-.237.82-.558 1.129-.943.308-.385.535-.827.667-1.299l4.75-16.333a4.15 4.15 0 0 0-.354-3.022Z" fill="#00ADE6"/><path d="M24.813 21.07c1.604-2.266 3.083-4.532 5.812-4.532 1.24 0 2.429.481 3.307 1.338a4.548 4.548 0 0 1 1.38 3.235v13.373h-3.416V21.826c0-1.736-1.438-1.736-1.438-1.736-1.166 0-3.27 2.818-5.625 5.962v8.432h-3.458v-3.9s-2.27 3.92-5.688 3.92c-3.854 0-5.187-2.613-5.187-8.84s.875-9.106 5-9.106c3.146 0 5.854 4.492 5.854 4.492v-2.858l3.459-4.553s-.021 7.452 0 7.431Zm-4.063 5.043s-3.146-6.023-5.188-6.023c-1.583 0-1.729 1.634-1.729 5.574s.23 5.492 1.709 5.492c2.02-.02 5.208-5.043 5.208-5.043Z" fill="#fff"/></g><defs><clipPath id="a"><path fill="#fff" d="M0 0h46v47H0z"/></clipPath></defs></svg>