<svg width="24" height="24" viewBox="0 0 24 24" fill="none" xmlns="http://www.w3.org/2000/svg">
    <path d="M12.0002 0.574231C14.1644 0.571053 16.2846 1.18506 18.1122 2.34423C22.8622 5.35523 23.2122 11.5742 19.4272 16.1212C17.2673 18.7153 14.89 21.1204 12.3212 23.3102C12.2312 23.3856 12.1176 23.4269 12.0002 23.4269C11.8828 23.4269 11.7692 23.3856 11.6792 23.3102C9.11028 21.1208 6.73298 18.7161 4.5732 16.1222C0.789199 11.5742 1.1382 5.35523 5.8882 2.34423C7.71578 1.18506 9.83601 0.571053 12.0002 0.574231V0.574231Z" stroke="black" stroke-linecap="round" stroke-linejoin="round"/>
    <path d="M17.4335 7.1838C17.6601 7.23644 17.8697 7.34556 18.0428 7.50099C18.2159 7.65643 18.3469 7.85313 18.4235 8.0728C18.4745 8.21354 18.5005 8.3621 18.5005 8.5118C18.5052 8.74701 18.449 8.97944 18.3374 9.18654C18.2258 9.39363 18.0625 9.56837 17.8635 9.6938L10.0105 14.5698C9.93009 14.6198 9.83672 14.6449 9.74208 14.6421C9.64745 14.6392 9.55576 14.6085 9.4785 14.5538L6.6005 12.5338C6.56886 12.5088 6.5433 12.477 6.52573 12.4407C6.50815 12.4044 6.49902 12.3646 6.49902 12.3243C6.49902 12.284 6.50815 12.2442 6.52573 12.2079C6.5433 12.1716 6.56886 12.1398 6.6005 12.1148L7.8085 11.0498C7.8439 11.0195 7.88664 10.999 7.93245 10.9904C7.97825 10.9818 8.02551 10.9854 8.0695 11.0008L9.5835 11.9008L11.5035 10.5608L7.8645 8.3148C7.7979 8.25784 7.75661 8.1768 7.74967 8.08944C7.74274 8.00209 7.77072 7.91555 7.8275 7.8488C7.84351 7.83106 7.86127 7.81498 7.8805 7.8008L8.7695 7.1408C8.81379 7.10819 8.86549 7.0871 8.91995 7.07942C8.9744 7.07174 9.02992 7.07771 9.0815 7.0968L14.1005 8.9618L16.4205 7.3788C16.5667 7.27807 16.7322 7.20874 16.9066 7.17518C17.0809 7.14162 17.2603 7.14455 17.4335 7.1838Z" stroke="black" stroke-linecap="round" stroke-linejoin="round"/>
</svg>
