<svg width="16" height="16" fill="none" xmlns="http://www.w3.org/2000/svg"><path d="M14.7513 6.7797v-3.291c0-.5633-.417-1.0395-.975-1.1153L5.692 1.286a3.918 3.918 0 1 0 .033 7.761l8.061-1.1542a1.125 1.125 0 0 0 .9653-1.113Z" stroke="#1BAB1E" stroke-linecap="round" stroke-linejoin="round"/><path d="M6.3836 4.2029A1.3126 1.3126 0 1 1 4.528 6.0576a1.3125 1.3125 0 0 1 1.8555-1.8555M12.3125 2.2327v5.79M4.25 8.9745l.6113 4.2802a1.7419 1.7419 0 0 0 1.7272 1.4955 1.7424 1.7424 0 0 0 1.6735-1.2494 1.742 1.742 0 0 0 .0537-.7388l-.5722-4.0035" stroke="#1BAB1E" stroke-linecap="round" stroke-linejoin="round"/></svg>