<svg width="24" height="24" fill="none" xmlns="http://www.w3.org/2000/svg"><path class="gst-svg-icon" d="m1.5 23.463.886-2.662a.5003.5003 0 0 1 .474-.342h18.28a.5.5 0 0 1 .474.342l.886 2.658" stroke="#1F262D" stroke-linecap="round" stroke-linejoin="round"/><path d="M3.5 9.4629h17v11h-17v-11ZM23.5 23.4629H.5M6.502 9.4629v11M9.502 9.4629v11M14.502 9.4629v11M17.502 9.4629v11M22.3703 6.8512a.5.5 0 0 0-.226-.592l-9.896-5.659a.4999.4999 0 0 0-.5 0l-9.9 5.655a.5.5 0 0 0-.226.592l.764 2.273a.5.5 0 0 0 .474.342h18.28a.5002.5002 0 0 0 .474-.342l.756-2.269ZM22.3331 6.4629H1.6621" stroke="#1F262D" stroke-linecap="round" stroke-linejoin="round"/></svg>