<svg width="16" height="20" fill="none" xmlns="http://www.w3.org/2000/svg"><path d="M8.3108 19.8608a.4166.4166 0 0 1-.6216 0C2.9025 14.5108.5 10.4125.5 7.5.5 3.1033 3.6033 0 8 0s7.5 3.1033 7.5 7.5c0 2.9125-2.4025 7.0117-7.1892 12.3608ZM14.6667 7.5c0-3.9367-2.73-6.6667-6.6667-6.6667-3.9367 0-6.6667 2.73-6.6667 6.6667 0 2.5833 2.2167 6.4225 6.6667 11.4567 4.45-5.0334 6.6667-8.8734 6.6667-11.4567ZM8 10.8333A3.3335 3.3335 0 0 1 5.643 5.143 3.3333 3.3333 0 1 1 8 10.8333ZM8 10a2.5 2.5 0 1 0 0-5 2.5 2.5 0 0 0 0 5Z" fill="#8F9296"/></svg>