<svg width="24" height="24" fill="none" xmlns="http://www.w3.org/2000/svg"><path class="gst-svg-icon" d="M11.9997.5098c14 0 8 19 0 19s-14-19 0-19v0Z" stroke="#1F262D" stroke-linecap="round" stroke-linejoin="round"/><path d="M7.2236 8.9392a1 1 0 0 0 .894.553h7.764a1.0003 1.0003 0 0 0 .894-.553l1-2a.9993.9993 0 0 0-.0438-.9726.9994.9994 0 0 0-.8502-.4744h-9.764a1 1 0 0 0-.894 1.447l1 2ZM15.3438 18.3868c1.762-2.365-.243-5.377-3.345-5.377-3.102 0-5.105 3.016-3.343 5.377M.5 23.4915l4.133-10.386M19.3447 13.1602l4.155 10.332M1.2959 21.4922h21.4M16.4414 17.4922h4.646M2.8877 17.4922h4.671" stroke="#1F262D" stroke-linecap="round" stroke-linejoin="round"/></svg>