<svg width="18" height="17" fill="none" xmlns="http://www.w3.org/2000/svg"><path d="M11.2211 16.0373a2.064 2.064 0 0 0-2.0641-2.0642H6.5768a2.064 2.064 0 0 0-2.0642-2.0641H.9004v4.1283H11.221ZM4.5127 13.9731h2.5802M2.4192 9.1566a.344.344 0 0 0-.243.5876l.6881.6881a.344.344 0 0 0 .2429.1004h11.412a.3436.3436 0 0 0 .2436-.1004l.688-.688a.344.344 0 0 0-.2436-.5877M.9004 9.1566h15.8251M8.8133 2.9642c.57 0 1.0321-.4621 1.0321-1.0321 0-.57-.462-1.032-1.032-1.032-.57 0-1.0321.462-1.0321 1.032 0 .57.462 1.032 1.032 1.032Z" stroke="#1BAB1E" stroke-linecap="round" stroke-linejoin="round"/><path d="M2.6201 9.1566a6.1924 6.1924 0 1 1 12.3849 0" stroke="#1BAB1E" stroke-linecap="round" stroke-linejoin="round"/></svg>