<svg width="16" height="15" fill="none" xmlns="http://www.w3.org/2000/svg"><path d="m8 2.5916 1.12 3.377.16.5497h4.24l-2.96 2.1204-.48.3142.16.5497 1.12 3.377-2.88-2.0419L8 10.445l-.48.3927-2.96 2.1204 1.12-3.377.16-.5497-.48-.3141-2.88-2.199h4.24l.16-.5497L8 2.5916ZM8 0 6.08 5.733H0l4.96 3.534L3.04 15 8 11.466 12.96 15l-1.92-5.733L16 5.733H9.92L8 0Z" fill="#F2BD2A"/><path d="m8 2.5916 1.12 3.377.16.5497h4.24l-2.96 2.1204-.48.3142.16.5497 1.12 3.377-2.88-2.0419L8 10.445l-.48.3927-2.96 2.1204 1.12-3.377.16-.5497-.48-.3141-2.88-2.199h4.24l.16-.5497L8 2.5916Z" fill="#F2BD2A"/></svg>