<svg width="16" height="16" fill="none" xmlns="http://www.w3.org/2000/svg"><path d="M2.75 14.75h10.3342a1.5 1.5 0 0 0 1.5-1.5V2.75a1.5 1.5 0 0 0-1.5-1.5H2.75a1.5 1.5 0 0 0-1.5 1.5v10.5a1.5001 1.5001 0 0 0 1.5 1.5Z" stroke="#1BAB1E" stroke-linecap="round" stroke-linejoin="round"/><path d="M5.4028 11.375a1.4316 1.4316 0 0 1 .438-1.902l.0007-.0007A1.431 1.431 0 0 1 7.4863 9.5l1.029.7493a1.4313 1.4313 0 0 0 1.6447.0277l.0008-.0007a1.4323 1.4323 0 0 0 .438-1.902" stroke="#1BAB1E" stroke-linecap="round" stroke-linejoin="round"/><path d="M10.1222 7.7538a2.9994 2.9994 0 0 1 .0372 4.2791 2.999 2.999 0 0 1-2.1474.8786 3.0011 3.0011 0 0 1-2.1318-.9157 3.0003 3.0003 0 0 1 .0366-4.2055 3 3 0 0 1 4.2054-.0365M11 3.125h1.5" stroke="#1BAB1E" stroke-linecap="round" stroke-linejoin="round"/></svg>