<svg width="134" height="48" viewBox="0 0 134 48" fill="none" xmlns="http://www.w3.org/2000/svg">
<path d="M24.7138 3.9296C23.9278 4.9484 23.4912 6.20007 23.4912 7.48084C23.4912 7.91747 23.4912 18.251 23.4912 18.6294C23.433 19.4736 23.1128 20.2595 22.5888 20.929C22.2978 21.2201 20.5804 22.7628 20.4348 22.9375L21.3954 22.9666C21.7156 22.6755 25.034 19.7355 25.3542 19.328C26.3147 18.2801 26.8678 16.912 26.8678 15.4857C26.8678 15.02 26.8678 5.21037 26.8678 4.77375C26.8387 3.69673 27.2462 2.61971 28.003 1.83378C28.4106 1.39715 29.6913 0.320139 29.9242 0.058162L28.9054 0.0290527C28.7016 0.29103 25.0631 3.5803 24.7138 3.9296Z" fill="#D71921"/>
<path d="M16.5338 44.4778L20.5799 47.9999H23.287C25.8777 47.9999 28.381 46.9811 30.2148 45.1473C31.874 43.4881 32.4853 41.2468 32.4853 39.1509V33.3583C32.4562 32.0485 31.9031 30.7968 30.9134 29.9235C30.7388 29.7489 29.5453 28.6136 29.5453 28.6136V33.0673C29.5453 33.0673 30.8552 34.4063 31.0881 34.6682C32.2815 35.949 32.2815 38.2777 28.4683 41.9745C27.7988 42.6149 25.9068 44.4196 23.287 44.4196L16.5338 44.4778Z" fill="#D71921"/>
<path d="M27.799 20.6962C27.3623 21.1619 26.9257 22.3263 26.9257 23.3742V25.5573H29.138C30.0112 25.5573 31.1465 24.7714 31.3793 24.3639C31.3793 24.3348 31.3793 22.1807 31.3793 22.1807C31.6995 22.6465 32.107 23.0831 32.5728 23.4324C32.8056 23.1413 34.8432 20.6962 36.5315 20.6671C39.3551 20.638 38.7147 24.2183 37.5794 25.3536C37.201 25.732 35.5419 27.2456 35.0179 27.7405C33.6789 29.0212 31.3793 28.41 31.3793 25.1207C31.3793 25.1207 28.9342 27.4494 28.5558 27.7696C28.1774 28.0898 26.9257 29.4288 26.9257 29.4288V35.2214C26.9257 37.9867 26.0234 38.9182 25.2665 39.7623C24.9754 40.0825 21.8608 42.9351 21.4242 43.2553L20.4054 43.2844C20.4054 43.2844 22.2392 41.6252 22.5885 41.2468C22.9961 40.8102 23.4909 39.9369 23.4909 38.4815C23.4909 38.1031 23.4327 29.3997 23.4327 29.3997H9.22772C4.27927 29.3997 3.23135 23.9272 3.20225 22.4427C3.20225 22.0061 3.20225 17.6398 3.20225 16.9412C3.20225 16.0388 2.62008 14.5252 1.71771 14.0594H3.11492C3.28958 14.1177 4.16283 14.467 4.16283 17.8436C4.16283 17.8436 4.10461 21.7441 4.10461 21.977C4.10461 23.6944 5.47271 25.6447 7.42299 25.6447L23.4909 25.6155C23.4909 25.1789 23.9275 23.5488 24.7135 22.6756C25.1501 22.1807 28.614 19.037 28.9924 18.7168H30.0112C29.8657 18.8624 28.1774 20.3469 27.8281 20.7544L27.799 20.6962ZM33.0676 23.9855C33.4751 24.5385 33.9409 25.0916 34.4357 25.5864C36.1822 26.9836 36.9973 25.47 35.8329 23.8981C35.3672 23.2578 33.5916 23.4324 33.0676 23.9855Z" fill="#D71921"/>
<path d="M15.8354 34.3481C15.8354 35.134 13.3611 37.2007 13.2156 37.3172C13.0409 36.473 12.4006 35.5707 10.5667 33.7077L13.2738 31.0006C15.1076 32.8344 15.8354 33.242 15.8354 34.3481Z" fill="#D71921"/>
<path d="M20.5511 3.23105C21.1041 3.78411 22.2685 5.23954 21.5699 5.96725C20.9586 6.57853 19.998 7.56822 19.998 7.56822C19.9398 7.21892 19.0374 6.34566 19.0374 6.34566C19.0374 6.34566 19.0374 8.96543 19.0374 9.28563C19.0083 10.4791 18.5717 10.7993 18.5717 10.7993C18.5717 10.7993 20.7548 12.9533 20.7548 15.7477C20.7548 17.0867 20.7548 18.3384 20.7548 18.6004C20.7839 19.1243 20.5802 19.6774 20.2018 20.0558C19.998 20.2887 17.9895 22.3263 17.6693 22.5882C17.2036 22.9958 16.6214 23.2286 16.0101 23.1995H8.471C7.27755 23.1995 6.05499 22.268 6.05499 21.3366C6.05499 21.1037 6.0841 18.5421 6.0841 18.5421C6.46251 18.9788 6.87003 19.5027 7.80151 19.5027C8.55833 19.5027 9.31515 18.9206 9.51891 18.6877C9.72267 18.4548 15.2242 12.7495 15.2242 12.7495C15.2242 12.7495 12.6626 10.3626 10.9743 9.22741C10.1593 8.67435 9.05317 9.37295 8.87852 10.1007C8.35457 12.3711 8.87852 15.8059 8.87852 15.8059L6.81182 13.7392C5.96767 12.8951 5.99678 11.003 7.01558 10.0133C7.16112 9.83869 8.70387 8.15039 10.625 8.15039H13.6232C15.6317 8.15039 17.844 10.1589 17.844 10.1589C18.0186 9.95512 18.135 9.72225 18.1642 9.46028C18.1642 8.41237 18.135 5.64706 18.135 5.64706C16.6214 4.13341 16.4176 2.56155 17.1454 1.83384C18.5135 0.465737 19.0083 0 19.0083 0C19.0083 0 18.9501 1.65919 20.5511 3.23105ZM11.0908 18.3675C10.334 19.1534 10.2175 19.3281 9.51891 19.7647H18.0186C20.3182 19.7647 19.8524 18.3384 19.4449 17.6107C18.6008 16.1261 15.9228 13.3899 15.9228 13.3899C15.9228 13.3899 11.2363 18.222 11.0908 18.3675Z" fill="#D71921"/>
<path d="M1.39721 26.1104H0C0 26.1104 1.48454 26.9254 1.48454 29.0503V35.8326C1.48454 40.228 5.12311 44.3032 9.54761 44.3032H13.2444C15.4566 44.3032 16.2426 43.7792 17.5816 42.5858C18.0764 42.1492 18.7168 41.4215 18.9497 41.1595C19.7065 40.2862 20.5506 39.5876 20.5506 37.3171V35.1049C20.5506 33.1837 19.4445 32.3978 18.8915 31.8447C18.5421 31.4954 17.6107 30.5931 17.6107 30.5931V35.134C17.6107 35.134 18.5421 36.1237 18.9497 36.4439C20.8708 37.9575 19.3572 40.5773 17.5525 40.5773C17.2032 40.5773 9.95513 40.5773 9.43117 40.5773C6.4621 40.6355 2.41601 37.9866 2.41601 33.5039V29.8362C2.44512 26.1104 1.39721 26.1104 1.39721 26.1104Z" fill="#D71921"/>
<path d="M10.305 34.3773C10.305 35.1632 7.8308 37.2299 7.68526 37.3463C7.51061 36.5022 6.87022 35.5998 5.03638 33.7369L7.74347 31.0298C9.5482 32.8345 10.305 33.242 10.305 34.3773Z" fill="#D71921"/>
<path d="M53.6056 19.1192H49.5757C48.3131 19.1192 48.4205 18.0715 48.2862 17.1849V11.4356C48.2862 11.4356 49.1728 11.4088 50.1668 11.4088C51.2683 11.4088 52.6653 11.2476 54.0086 11.9998C53.3101 10.5222 51.8056 9.60876 50.1668 9.6625H48.3131V7.80875C48.3131 7.80875 48.3131 6.19681 47.9101 5.74009H50.5698C52.8534 5.74009 54.6265 5.71322 56.4803 6.92218C56.4803 6.92218 56.131 3.88635 51.6981 3.88635H43.0474C43.0474 3.88635 44.5518 5.17591 44.4981 7.78189L44.5518 18.2595C44.5518 20.8924 45.5996 20.973 45.5996 20.973H54.1161C56.0504 20.973 56.722 19.6028 56.722 18.8506L56.7489 17.8566C56.7489 17.8566 56.131 19.1192 53.6056 19.1192Z" fill="#D71921"/>
<path d="M76.2813 18.2328V10.8985C76.2813 8.0507 73.9708 7.29846 72.2246 7.29846C69.941 7.29846 69.2425 9.20593 68.9469 9.87757C68.4365 8.10443 66.6365 7.29846 65.1857 7.29846C62.4185 7.29846 61.72 9.93131 61.72 9.93131C61.72 9.93131 61.6663 7.37906 59.4364 7.37906H57.2603C57.2603 7.37906 58.523 7.88951 58.523 10.0925V18.2328C58.523 20.9194 59.5976 20.9731 59.5976 20.9731H63.1977C62.3379 20.3284 61.8275 19.3075 61.8275 18.206V10.9791C61.8812 10.6567 62.4185 9.58205 63.9499 9.58205C64.8365 9.58205 65.8036 10.4955 65.7768 11.5164V18.2328C65.7768 20.9463 66.8514 20.9731 66.8514 20.9731H70.4514C69.5917 20.3015 69.0813 19.3075 69.0813 18.206V10.9791C69.4305 9.93131 70.5589 9.34026 71.6335 9.68951C72.4395 9.95817 73.0037 10.6836 73.0305 11.5433C73.0305 11.5433 73.0305 17.6687 73.0305 18.2328C73.0574 20.9731 74.1052 20.9463 74.1052 20.9463C75.9858 20.9463 77.7052 20.9463 77.7052 20.9463C76.8186 20.3015 76.3082 19.3075 76.2813 18.2328Z" fill="#D71921"/>
<path d="M82.5671 18.2328C82.5671 19.3074 83.0776 20.3283 83.9373 20.9731C83.9373 20.9731 82.2179 20.9731 80.3373 20.9731C80.3373 20.9731 79.2358 21 79.2358 18.2597V10.0656C79.2358 7.91636 77.9999 7.35217 77.9999 7.35217H80.1761C80.9552 7.35217 82.5403 7.35217 82.5403 10.388V18.1791L82.5671 18.2328Z" fill="#D71921"/>
<path d="M93.6356 8.3998C93.6356 8.3998 93.2864 7.43264 91.8088 7.43264C89.552 7.43264 89.0147 10.1192 89.0147 10.1192C88.8267 7.99682 88.2625 7.37891 86.6774 7.37891H84.5013C84.5013 7.37891 85.764 7.88935 85.764 10.0923V18.2327C85.764 20.9193 86.8386 20.973 86.8386 20.973H90.4386C89.5789 20.3282 89.0685 19.3073 89.0685 18.2327V11.5431C89.1491 10.9789 89.4715 10.4685 89.955 10.1729C91.164 9.36697 92.7491 9.60876 93.6894 10.7103L93.6356 8.3998Z" fill="#D71921"/>
<path d="M110.373 8.88349C111.126 8.88349 111.851 9.07155 112.496 9.4208V7.37901H109.487V4.26257C108.842 5.28347 108.009 6.19691 107.069 6.97602C106.048 7.80886 103.899 8.85662 103.899 8.85662L106.182 8.88349V18.3402C106.182 20.9731 107.284 20.9731 107.284 20.9731C109.245 20.9731 110.857 20.9731 110.857 20.9731C109.997 20.3552 109.487 19.3611 109.46 18.3134V8.88349C110.427 8.88349 109.782 8.88349 110.373 8.88349Z" fill="#D71921"/>
<path d="M121.281 12.9939C119.266 15.0894 117.681 14.767 116.418 16.3252C116.418 16.3252 116.633 18.4208 118.218 19.1461C118.755 19.3879 120.985 20.1939 122.409 17.7222V19.9252C122.409 19.9252 121.496 20.9999 118.567 20.9999C115.048 20.9999 112.63 18.2327 112.63 14.4715C112.63 10.764 114.591 7.35205 118.325 7.32518C121.952 7.27145 123.94 10.2267 121.281 12.9939ZM119.078 12.1342C119.669 11.0327 120.152 8.23862 118.111 8.39982C115.746 8.58788 116.203 14.8476 116.203 14.8476C116.982 13.9879 118.164 13.7998 119.078 12.1342Z" fill="#D71921"/>
<path d="M80.9018 6.27762C81.8153 6.25076 82.5138 5.49852 82.5138 4.61195C82.4869 3.69851 81.7347 3 80.8481 3C79.9615 3.02687 79.2361 3.75224 79.2361 4.63881C79.2361 5.55225 79.9884 6.27762 80.9018 6.27762Z" fill="#D71921"/>
<path d="M97.3694 19.4149C96.5634 19.4149 95.9724 18.5552 95.9724 17.6955C95.9724 14.3104 98.7396 13.8268 99.4918 12.9402V18.6626C99.1426 18.9313 98.8202 19.4149 97.3694 19.4149ZM99.4918 11.6238C98.659 13.0746 92.1575 13.397 93.1515 18.4209C93.5545 20.4089 94.8709 21 96.5366 21C98.1485 21 99.1426 20.1671 99.5455 19.3612C99.7873 20.8656 100.566 20.9731 100.566 20.9731C102.447 20.9731 104.166 20.9731 104.166 20.9731C103.307 20.3283 102.769 19.3343 102.769 18.2597V10.6029C102.769 8.77604 100.755 7.35215 98.6052 7.35215C97.3963 7.32528 96.2411 7.67454 95.247 8.34618V10.7104C95.247 10.7104 95.9993 8.82977 97.853 8.82977C99.6799 8.82977 99.8142 9.74321 99.8142 10.1999C99.8411 10.6835 99.7605 11.194 99.4918 11.6238Z" fill="#D71921"/>
<path d="M129.233 17.2657C129.26 18.2328 128.4 19.4955 126.573 19.4955C124.693 19.4955 123.94 17.5881 123.94 17.5881V20.006C124.961 20.6508 126.143 20.9731 127.352 20.9731C129.797 20.9731 132.296 19.1194 132.242 16.5134C132.215 15.6537 131.92 14.8209 131.409 14.1492C130.576 13.0477 129.072 12.2686 127.89 11.5433C127.218 11.1403 126.869 10.388 126.869 10.1462C126.842 9.68951 127.084 8.77608 128.884 8.77608C130.657 8.77608 131.436 10.6567 131.436 10.6567V8.37309C130.442 7.67458 129.233 7.29846 127.997 7.29846C125.848 7.29846 123.887 8.72235 123.94 10.5492C123.967 12.1612 124.639 13.1821 125.955 14.1761C126.546 14.606 127.164 14.9821 127.809 15.3313C128.83 15.8955 129.206 16.594 129.233 17.2657Z" fill="#D71921"/>
<path d="M45.6544 29.5C45.6544 28.65 45.5377 28.025 45.3044 27.625C45.0711 27.2083 44.6044 27 43.9044 27H43.4044V26.5H45.6544C46.2711 26.5 46.7294 26.5833 47.0294 26.75C47.3461 26.9 47.5711 27.1833 47.7044 27.6C47.8377 28.0167 47.9044 28.65 47.9044 29.5V42H56.7794V43H45.6544V29.5ZM60.0698 29.75C59.6865 29.75 59.3532 29.5917 59.0698 29.275C58.8032 28.9583 58.6698 28.5833 58.6698 28.15C58.6698 27.8 58.7698 27.525 58.9698 27.325C59.1865 27.125 59.4698 27.025 59.8198 27.025C60.2032 27.025 60.5282 27.1833 60.7948 27.5C61.0782 27.8167 61.2198 28.1917 61.2198 28.625C61.2198 28.975 61.1115 29.25 60.8948 29.45C60.6948 29.65 60.4198 29.75 60.0698 29.75ZM59.1198 34.25C59.1198 33.4 59.0032 32.775 58.7698 32.375C58.5365 31.9583 58.0698 31.75 57.3698 31.75H56.8698V31.25H59.1198C59.7365 31.25 60.1948 31.3333 60.4948 31.5C60.8115 31.65 61.0365 31.9333 61.1698 32.35C61.3032 32.7667 61.3698 33.4 61.3698 34.25V43H59.1198V34.25ZM63.6222 32.25V31.25H65.3722V30.5C65.3722 27.6667 66.8305 26.25 69.7472 26.25C70.7972 26.25 71.5055 26.375 71.8722 26.625C72.1555 26.8417 72.4472 27.2167 72.7472 27.75L71.9972 28.375C71.4972 27.625 70.7055 27.25 69.6222 27.25C68.2888 27.25 67.6222 28.3333 67.6222 30.5V31.25H71.1222V32.25H67.6222V43H65.3722V32.25H63.6222ZM77.6021 43.25C76.4687 43.25 75.5104 42.9833 74.7271 42.45C73.9437 41.9 73.3521 41.1667 72.9521 40.25C72.5521 39.3167 72.3521 38.275 72.3521 37.125C72.3521 35.9917 72.5521 34.9583 72.9521 34.025C73.3521 33.0917 73.9271 32.3583 74.6771 31.825C75.4437 31.275 76.3354 31 77.3521 31C79.0354 31 80.2854 31.475 81.1021 32.425C81.9354 33.3583 82.3521 34.7167 82.3521 36.5L82.3021 37.5H74.7271C74.7271 38.9 75.0271 40.0417 75.6271 40.925C76.2271 41.8083 77.0521 42.25 78.1021 42.25C78.8854 42.25 79.5437 42.0833 80.0771 41.75C80.6271 41.4167 81.1354 40.9167 81.6021 40.25L82.1021 40.625C81.5521 41.5417 80.9104 42.2083 80.1771 42.625C79.4437 43.0417 78.5854 43.25 77.6021 43.25ZM79.9771 36.5C79.9771 35.0333 79.7604 33.9167 79.3271 33.15C78.8937 32.3833 78.2354 32 77.3521 32C76.8521 32 76.4021 32.2 76.0021 32.6C75.6021 32.9833 75.2854 33.5167 75.0521 34.2C74.8354 34.8833 74.7271 35.65 74.7271 36.5H79.9771ZM89.1591 43.25C87.2424 43.25 85.9507 42.9167 85.2841 42.25C85.0007 41.9667 84.8257 41.65 84.7591 41.3C84.6924 40.9333 84.6591 40.375 84.6591 39.625H85.1591C85.3091 40.4583 85.6674 41.1083 86.2341 41.575C86.8174 42.025 87.6257 42.25 88.6591 42.25C89.5757 42.25 90.2591 42.0917 90.7091 41.775C91.1757 41.4583 91.4091 41.0333 91.4091 40.5C91.4091 40.0167 91.2257 39.6 90.8591 39.25C90.5091 38.9 89.9424 38.5667 89.1591 38.25L87.6591 37.625C86.6591 37.225 85.9091 36.7583 85.4091 36.225C84.9091 35.6917 84.6591 35.0333 84.6591 34.25C84.6591 33.2333 85.0424 32.4417 85.8091 31.875C86.5757 31.2917 87.5674 31 88.7841 31C90.6174 31 91.8674 31.3333 92.5341 32C92.8174 32.2833 92.9924 32.6 93.0591 32.95C93.1257 33.3 93.1591 33.8583 93.1591 34.625H92.6591C92.5257 33.7917 92.1757 33.15 91.6091 32.7C91.0424 32.2333 90.2674 32 89.2841 32C88.5007 32 87.8841 32.1667 87.4341 32.5C87.0007 32.8167 86.7841 33.2333 86.7841 33.75C86.7841 34.6167 87.4507 35.325 88.7841 35.875L90.2841 36.5C91.4174 36.9667 92.2424 37.4667 92.7591 38C93.2757 38.5167 93.5341 39.1833 93.5341 40C93.5341 41.0167 93.1257 41.8167 92.3091 42.4C91.4924 42.9667 90.4424 43.25 89.1591 43.25ZM99.8663 43.25C98.933 43.25 98.1996 42.9833 97.6663 42.45C97.133 41.9167 96.8663 41.1 96.8663 40V32.25H95.1163V31.25H96.8663V29L98.1163 27.5H99.1163V31.25H102.116V32.25H99.1163V40C99.1163 41.5 99.6996 42.25 100.866 42.25C101.266 42.25 101.6 42.2083 101.866 42.125C102.15 42.0417 102.441 41.9167 102.741 41.75L102.991 42.25C102.608 42.5333 102.183 42.775 101.716 42.975C101.25 43.1583 100.633 43.25 99.8663 43.25ZM105.664 47.25C106.48 47.25 107.147 47.0583 107.664 46.675C108.197 46.3083 108.655 45.625 109.039 44.625L109.539 43.25L105.539 33.5C105.072 32.3 104.155 31.6333 102.789 31.5V31H104.914C106.364 31 107.364 31.6667 107.914 33L110.764 39.925L113.914 31.25H115.164L110.289 44.625C109.805 45.9417 109.272 46.8333 108.689 47.3C108.105 47.7667 107.347 48 106.414 48H105.664V47.25ZM117.634 29.5C117.634 28.65 117.517 28.025 117.284 27.625C117.051 27.2083 116.584 27 115.884 27H115.384V26.5H117.634C118.251 26.5 118.709 26.5833 119.009 26.75C119.326 26.9 119.551 27.1833 119.684 27.6C119.817 28.0167 119.884 28.65 119.884 29.5V43H117.634V29.5ZM128.164 43.25C127.03 43.25 126.072 42.9833 125.289 42.45C124.505 41.9 123.914 41.1667 123.514 40.25C123.114 39.3167 122.914 38.275 122.914 37.125C122.914 35.9917 123.114 34.9583 123.514 34.025C123.914 33.0917 124.489 32.3583 125.239 31.825C126.005 31.275 126.897 31 127.914 31C129.597 31 130.847 31.475 131.664 32.425C132.497 33.3583 132.914 34.7167 132.914 36.5L132.864 37.5H125.289C125.289 38.9 125.589 40.0417 126.189 40.925C126.789 41.8083 127.614 42.25 128.664 42.25C129.447 42.25 130.105 42.0833 130.639 41.75C131.189 41.4167 131.697 40.9167 132.164 40.25L132.664 40.625C132.114 41.5417 131.472 42.2083 130.739 42.625C130.005 43.0417 129.147 43.25 128.164 43.25ZM130.539 36.5C130.539 35.0333 130.322 33.9167 129.889 33.15C129.455 32.3833 128.797 32 127.914 32C127.414 32 126.964 32.2 126.564 32.6C126.164 32.9833 125.847 33.5167 125.614 34.2C125.397 34.8833 125.289 35.65 125.289 36.5H130.539Z" fill="#D71921"/>
<line x1="43" y1="23.5" x2="132" y2="23.5" stroke="#D71921"/>
</svg>
