<svg width="210" height="35" viewBox="0 0 210 35" fill="none" xmlns="http://www.w3.org/2000/svg">
<path fill-rule="evenodd" clip-rule="evenodd" d="M78.1378 16.8872L75.7634 11.6768L73.3704 16.8872H78.1378ZM73.5545 7.98572H77.9737C78.7414 9.63955 85.1056 23.238 85.1056 23.238H81.0659L79.4035 19.6644H72.0705L70.4538 23.2408H66.3984L73.5545 7.98572Z" fill="#016CB2"/>
<path fill-rule="evenodd" clip-rule="evenodd" d="M125.776 11.4011C123.216 11.4011 121.971 12.7366 121.971 12.7366L121.762 11.6331H118.306C118.443 12.0477 118.671 12.8144 118.671 13.4935V23.2411H122.088V16.48C122.088 14.6706 123.216 13.7298 125.776 13.7298C127.183 13.7298 128.045 14.191 128.045 16.48V23.2411H131.448V16.48C131.448 13.0309 130.325 11.4011 125.776 11.4011Z" fill="#016CB2"/>
<path fill-rule="evenodd" clip-rule="evenodd" d="M137.557 16.2683C137.757 14.838 138.412 13.7416 141.107 13.7416C143.087 13.7416 143.796 15.0007 143.91 16.2683H137.557ZM141.107 11.4398C135.304 11.4398 134.013 14.1349 134.013 17.4383C134.013 20.7771 135.278 23.4821 141.391 23.4821C143.629 23.4821 145.719 23.0675 146.196 22.9699C146.287 22.3786 146.486 21.0954 146.55 20.6554C146.223 20.688 143.575 21.1718 141.391 21.1718C138.55 21.1718 137.79 20.098 137.557 18.6055H147.382V17.4383C147.382 13.2776 145.14 11.4398 141.107 11.4398Z" fill="#016CB2"/>
<path fill-rule="evenodd" clip-rule="evenodd" d="M25.9151 21.1895C23.0612 21.1895 22.2136 19.7819 22.2136 17.449C22.2136 15.1585 23.0612 13.7579 25.9151 13.7579C28.7519 13.7579 29.6066 15.1585 29.6066 17.449C29.6066 19.7819 28.7519 21.1895 25.9151 21.1895ZM25.9151 11.4307C21.6486 11.4307 18.8047 13.2896 18.8047 17.449C18.8047 21.6578 21.6486 23.4927 25.9151 23.4927C30.1759 23.4927 33.0084 21.6578 33.0084 17.449C33.0084 13.2896 30.1759 11.4307 25.9151 11.4307Z" fill="#016CB2"/>
<path fill-rule="evenodd" clip-rule="evenodd" d="M60.4405 18.823C60.4405 20.9748 58.3614 21.1629 56.4579 21.1629C55.8001 21.1629 54.7627 21.0229 54.7627 19.7539C54.7627 18.9163 55.9128 18.3561 57.3112 18.3561H60.4405V18.823ZM63.8437 15.1347C63.8437 12.799 61.3209 11.4012 57.5966 11.4012C55.6788 11.4012 53.3215 12.144 52.511 12.4213C52.4339 12.9079 52.1913 14.4401 52.1428 14.7612C52.8834 14.5986 55.7887 13.7299 57.5966 13.7299C59.4616 13.7299 60.4405 14.3609 60.4405 15.2734V16.258C60.4405 16.258 58.1374 16.0345 57.3112 16.0345C53.594 16.0345 51.3438 17.3516 51.3438 19.7539C51.3438 22.7969 54.7299 23.4619 56.4579 23.4619C58.7881 23.4619 60.0081 22.8465 60.5803 22.3301L60.7772 23.2412H64.1933C64.1533 23.0601 63.8437 22.2466 63.8437 21.1629V15.1347Z" fill="#016CB2"/>
<path fill-rule="evenodd" clip-rule="evenodd" d="M9.29508 7.5381C13.3005 7.53245 15.7876 8.78732 17.1689 10.7609L13.5916 12.1388C12.8196 11.0523 11.5254 10.3393 9.34074 10.3266H9.25227C7.11472 10.3379 5.83619 11.0056 5.05423 12.0483C4.37072 12.9523 3.99829 14.1166 3.99829 15.438V15.6559H3.99544C4.01114 16.9164 4.38785 18.1345 5.05423 19.0102C5.83619 20.0444 7.11472 20.7277 9.25227 20.7319H9.34074C11.484 20.7277 12.7739 20.0274 13.5531 18.9777L17.1689 20.3528C15.7805 22.2995 13.2662 23.4921 9.31363 23.4921H9.29508C5.78196 23.4921 3.42609 22.5725 1.98061 20.988C0.664972 19.5648 -0.0042604 17.6733 2.04073e-05 15.5795V15.438C-0.0042604 13.3909 0.666399 11.4923 1.97775 10.0776C3.42324 8.4973 5.78054 7.53528 9.29508 7.5381Z" fill="#016CB2"/>
<path fill-rule="evenodd" clip-rule="evenodd" d="M108.44 21.3982V7.99219H105.028V21.3982C105.028 22.2117 105.318 23.0422 105.391 23.2416H108.805C108.755 23.045 108.44 22.2499 108.44 21.3982Z" fill="#016CB2"/>
<path fill-rule="evenodd" clip-rule="evenodd" d="M97.0448 16.4576C97.0591 14.6722 98.3904 13.73 100.739 13.73C101.13 13.73 102.667 13.9238 103.326 14.0101C103.296 13.7116 103.059 12.2714 102.961 11.6772C102.474 11.5867 101.384 11.4014 100.739 11.4014C98.7386 11.4014 97.6156 12.13 96.9935 12.6817L96.7052 11.6334H93.2734C93.3362 11.8682 93.6273 12.6591 93.633 13.4641V23.2385H97.0448V16.4576Z" fill="#016CB2"/>
<path fill-rule="evenodd" clip-rule="evenodd" d="M42.6688 21.1743C39.775 21.1743 38.9774 19.5318 38.9774 17.4408C39.0387 15.2169 39.775 13.7441 42.6688 13.7441C45.2887 13.7441 45.7981 15.3796 45.7981 17.4408C45.7981 19.5318 45.2887 21.1743 42.6688 21.1743ZM42.6688 11.4141C40.5413 11.4141 38.8932 12.6534 38.8932 12.6534C38.8932 12.6534 38.7105 11.9672 38.6349 11.6503H35.2031C35.3258 12.0691 35.5684 12.8769 35.5684 13.7441V26.9366H38.9774V22.3415C39.6637 22.8381 40.9366 23.4846 42.6688 23.4846C48.3866 23.4846 49.2113 20.7768 49.2113 17.4408C49.2113 14.1374 48.3866 11.4141 42.6688 11.4141Z" fill="#016CB2"/>
<path fill-rule="evenodd" clip-rule="evenodd" d="M159.677 12.0255V14.6512C159.01 14.2947 158.314 14.0203 157.592 13.8406C156.861 13.6581 156.135 13.5676 155.41 13.5676C154.601 13.5676 153.989 13.6666 153.571 13.8632C153.164 14.0542 152.951 14.3499 152.951 14.7333C152.951 15.2822 153.84 15.7236 155.604 16.0674L155.738 16.0957L156.784 16.2966C158.114 16.5583 159.083 16.9771 159.695 17.5529C160.314 18.1414 160.615 18.9195 160.615 19.8999C160.615 21.0954 160.147 21.9923 159.208 22.5794C158.277 23.1722 156.861 23.4651 154.978 23.4651C154.144 23.4651 153.282 23.4085 152.405 23.2939C151.536 23.1666 150.644 22.9954 149.746 22.752V20.1051C150.547 20.4913 151.363 20.7771 152.194 20.978C153.021 21.1831 153.826 21.285 154.604 21.285C155.451 21.285 156.098 21.176 156.537 20.9709C156.971 20.7601 157.197 20.4644 157.197 20.0669C157.197 19.6877 157.035 19.392 156.731 19.1798C156.422 18.969 155.675 18.7639 154.515 18.5276L153.506 18.3366C152.124 18.0891 151.109 17.676 150.477 17.1228C149.844 16.5611 149.522 15.8283 149.522 14.8974C149.522 13.7826 150.003 12.9267 150.969 12.3183C151.941 11.6916 153.297 11.3875 155.048 11.3875C155.832 11.3875 156.614 11.4398 157.408 11.5417C158.185 11.6492 158.943 11.8119 159.677 12.0255Z" fill="#016CB2"/>
<path fill-rule="evenodd" clip-rule="evenodd" d="M113.552 10.7352C114.288 10.7352 114.798 10.6418 115.07 10.4423C115.34 10.2372 115.478 9.88069 115.478 9.34875C115.478 8.84652 115.346 8.48859 115.088 8.28911C114.816 8.09105 114.32 7.9906 113.581 7.9906C112.83 7.9906 112.326 8.09671 112.052 8.30184C111.783 8.50839 111.654 8.87481 111.654 9.40109C111.654 9.91181 111.777 10.2542 112.034 10.4494C112.302 10.6418 112.806 10.7352 113.552 10.7352ZM115.262 21.3981V11.6279H111.857V21.3981C111.857 22.2596 112.178 23.1198 112.225 23.2415H115.628C115.567 23.0264 115.262 22.2271 115.262 21.3981Z" fill="#016CB2"/>
<path fill-rule="evenodd" clip-rule="evenodd" d="M88.5052 10.7352C89.2444 10.7352 89.7467 10.6418 90.0235 10.4423C90.2918 10.2372 90.4373 9.88069 90.4373 9.34875C90.4373 8.84652 90.2946 8.48859 90.0392 8.28911C89.7709 8.09105 89.2715 7.9906 88.5366 7.9906C87.7846 7.9906 87.2795 8.09671 87.0084 8.30184C86.7416 8.50839 86.6074 8.87481 86.6074 9.40109C86.6074 9.91181 86.7359 10.2542 86.9941 10.4494C87.2553 10.6418 87.759 10.7352 88.5052 10.7352ZM90.219 21.3981V11.6279H86.8101V21.3981C86.8101 22.2596 87.1354 23.1198 87.1825 23.2415H90.5814C90.5201 23.0264 90.219 22.2271 90.219 21.3981Z" fill="#016CB2"/>
<path fill-rule="evenodd" clip-rule="evenodd" d="M207.439 32.6531H207.094V32.0999H207.648C207.883 32.0999 208.176 32.1395 208.176 32.3659C208.176 32.7054 207.708 32.6531 207.439 32.6531ZM208.473 32.3659C208.473 31.9047 208.097 31.8014 207.712 31.8014H206.796V33.949H207.094V32.9686H207.439L208.086 33.949H208.445L207.799 32.9686C208.181 32.9544 208.473 32.7974 208.473 32.3659Z" fill="#016CB2"/>
<path fill-rule="evenodd" clip-rule="evenodd" d="M207.512 34.5293C206.628 34.5293 205.847 33.8134 205.847 32.8967C205.847 31.9672 206.628 31.2415 207.512 31.2415C208.406 31.2415 209.181 31.9672 209.181 32.8967C209.181 33.8134 208.406 34.5293 207.512 34.5293ZM207.512 30.9727C206.424 30.9727 205.547 31.796 205.547 32.8967C205.547 33.9846 206.424 34.8335 207.512 34.8335C208.611 34.8335 209.484 33.9846 209.484 32.8967C209.484 31.796 208.611 30.9727 207.512 30.9727Z" fill="#016CB2"/>
<path fill-rule="evenodd" clip-rule="evenodd" d="M166.499 15.2473V16.348C170.256 14.895 174.046 14.0094 177.683 13.486C174.331 13.3997 170.39 13.9656 166.499 15.2473Z" fill="#016CB2"/>
<path fill-rule="evenodd" clip-rule="evenodd" d="M187.039 16.3954C186.153 15.7588 185.224 15.1773 184.024 14.6892C184.425 14.6637 184.84 14.6001 185.311 14.576C186.06 15.0684 187.067 15.8507 187.664 16.5963L187.039 16.3954ZM178.781 11.8159C177.858 11.4707 176.766 11.2401 175.682 11.0873C176.151 10.984 176.611 10.8949 177.134 10.8312C177.895 11.0378 178.9 11.3957 179.858 11.9828L178.781 11.8159ZM166.498 9.45186C167.51 9.42215 168.667 9.75744 169.92 9.92155L167.718 10.2017C167.343 10.2172 166.922 10.2512 166.498 10.2922V10.7845C168.093 10.4889 169.839 10.2965 171.457 10.2823C185.635 6.91948 197.38 10.0857 197.38 10.0857C194.86 9.51411 180.819 7.60987 166.498 13.2023V14.0512C168.624 13.3367 170.87 12.785 173.019 12.5317C176.205 12.1413 179.168 12.3153 181.662 13.017C192.142 12.2714 199.736 14.5039 199.736 14.5039C196.885 14.0413 181.585 11.9531 166.498 18.8132V19.4951C170.675 17.5102 175.055 16.3657 178.79 16.1209C182.575 15.9186 185.961 16.4548 188.507 17.9601C194.51 17.8681 199.085 18.6406 201.642 19.2588V0H166.498V9.45186Z" fill="#016CB2"/>
<path fill-rule="evenodd" clip-rule="evenodd" d="M166.499 20.9007V23.0285C172.672 20.0448 178.965 18.6273 184.447 18.1576C179.438 17.2776 173.019 18.1845 166.499 20.9007Z" fill="#016CB2"/>
<path fill-rule="evenodd" clip-rule="evenodd" d="M193.474 23.436C192.409 21.8741 191.061 20.6942 189.19 19.7902C189.75 19.7237 190.453 19.7039 190.978 19.6798C191.165 19.8171 191.343 19.9883 191.512 20.1962C191.576 20.2882 193.661 22.3296 194.36 24.4079L193.474 23.436ZM166.499 25.8339V26.7182C166.923 26.4777 167.348 26.2485 167.748 26.0348C170.905 24.3471 174.06 23.1714 177.214 22.4556C180.199 21.7482 183.123 21.4978 185.795 21.734C190.848 22.1853 194.477 24.3796 196.225 28.1683C196.241 28.1966 197.489 30.9793 197.609 33.6037L197.003 32.1012C196.843 31.3514 196.636 30.5804 196.241 29.89C194.946 27.3887 192.424 25.5934 189.02 24.5409C185.93 23.5704 181.871 23.5279 177.661 24.3471C173.923 25.0516 170.119 26.455 166.499 28.2376V34.8359H166.85C169.022 33.2302 171.365 32.0531 173.801 31.0925C180.185 28.3621 186.395 27.5359 191.055 28.7653C194.477 29.7386 196.713 31.7475 197.623 34.8359H201.643V19.5384C195.892 18.8876 180.567 17.8336 166.499 25.8339Z" fill="#016CB2"/>
<path fill-rule="evenodd" clip-rule="evenodd" d="M190.38 31.2191C187.33 30.4156 183.823 30.3675 179.933 31.0833C176.463 31.7143 172.826 32.8857 169.328 34.8366H196.019C194.776 33.0342 192.797 31.8798 190.38 31.2191Z" fill="#016CB2"/>
</svg>