<svg width="24" height="24" viewBox="0 0 24 24" fill="none" xmlns="http://www.w3.org/2000/svg"><path d="M20.993 7.594c0-.553-.047-1.105-.18-1.644-.236-.981-.796-1.731-1.634-2.282a3.772 3.772 0 00-1.409-.545 7.51 7.51 0 00-1.171-.111c-.03-.003-.062-.01-.094-.012H7.487c-.114.009-.228.015-.342.02-.56.032-1.116.09-1.644.302-1.001.395-1.725 1.087-2.147 2.083-.146.337-.22.694-.272 1.057a7.404 7.404 0 00-.076.885c0 .024-.006.047-.006.07v9.168l.017.316c.039.613.117 1.22.376 1.782.486 1.064 1.303 1.764 2.426 2.1.313.097.641.141.97.17.416.041.831.047 1.247.047h8.274c.392 0 .785-.026 1.177-.076.619-.08 1.198-.26 1.723-.606a3.792 3.792 0 001.41-1.656c.14-.316.22-.653.278-.993.085-.507.102-1.02.102-1.532-.003-2.849 0-5.696-.003-8.544l-.004.001zm-4.817 2.991v4.284c0 .313-.044.62-.184.905-.217.442-.569.72-1.04.855-.262.075-.531.118-.803.13a1.395 1.395 0 01-1.456-1.152 1.407 1.407 0 01.779-1.518c.24-.117.5-.187.761-.24.284-.062.568-.117.85-.182a.463.463 0 00.383-.387.592.592 0 00.015-.143V9.053a.563.563 0 00-.02-.138c-.03-.114-.112-.182-.229-.176-.12.005-.237.026-.354.05-.572.111-1.143.225-1.711.342l-2.774.56c-.012.003-.027.01-.039.01-.208.058-.28.152-.29.368-.003.032 0 .065 0 .097-.003 1.951 0 3.903-.003 5.854 0 .316-.035.627-.16.92-.209.48-.578.782-1.075.925-.264.077-.535.12-.81.129a1.38 1.38 0 01-1.437-1.157 1.402 1.402 0 01.863-1.559c.27-.111.548-.173.832-.231l.645-.132c.287-.061.436-.243.451-.536V7.605c0-.094.012-.187.032-.278.053-.214.205-.337.41-.387.19-.05.387-.085.58-.126.55-.112 1.099-.223 1.65-.331l1.701-.346 1.509-.302c.164-.032.331-.067.498-.08.231-.02.392.127.416.361.006.056.009.112.009.167v4.299l.001.003z" fill="#fff"/></svg>