<svg width="91" height="65" viewBox="0 0 91 65" fill="none" xmlns="http://www.w3.org/2000/svg">
<path d="M0.5 5C0.5 2.51472 2.51472 0.5 5 0.5H86C88.4853 0.5 90.5 2.51472 90.5 5V60C90.5 62.4853 88.4853 64.5 86 64.5H5C2.51472 64.5 0.5 62.4853 0.5 60V5Z" fill="#FEFEFE" stroke="#F0F2F4"/>
<path d="M15 10C15 7.23858 17.2386 5 20 5H72C74.7614 5 77 7.23858 77 10V21C77 23.7614 74.7614 26 72 26H20C17.2386 26 15 23.7614 15 21V10Z" fill="#F0F2F3"/>
<rect x="19" y="20" width="27" height="2" rx="1" fill="#D6DBE0"/>
<rect x="19" y="30" width="39" height="2" rx="1" fill="#F0F2F3"/>
<rect x="62" y="30" width="15" height="14" rx="4" fill="#D6DBE0"/>
<rect x="19" y="34" width="39" height="2" rx="1" fill="#F0F2F3"/>
<rect x="19" y="38" width="39" height="2" rx="1" fill="#F0F2F3"/>
<rect x="19" y="42" width="39" height="2" rx="1" fill="#F0F2F3"/>
<circle class="gst-svg-icon" cx="70" cy="12" r="3" fill="#00B4E2"/>
</svg>
