<?xml version="1.0" encoding="UTF-8"?>
<svg width="24px" height="24px" viewBox="0 0 24 24" version="1.1" xmlns="http://www.w3.org/2000/svg" xmlns:xlink="http://www.w3.org/1999/xlink">
    <!-- Generator: Sketch 62 (91390) - https://sketch.com -->
    <title>icons / delete typing</title>
    <desc>Created with Sketch.</desc>
    <g id="icons-/-delete-typing" stroke="none" stroke-width="1" fill="none" fill-rule="evenodd">
        <g>
            <g id="menu-24px">
                <polygon id="Path" points="0 0 24 0 24 24 0 24"></polygon>
            </g>
            <path class="gst-svg-icon" d="M15.7086451,14.3176289 C16.0953358,14.7043035 16.0980026,15.3243161 15.711312,15.712324 C15.3286216,16.0949985 14.7059163,16.0976652 14.3178922,15.7096573 L11.9990817,13.3922767 L9.68160455,15.7096573 C9.29358047,16.0949985 8.67487542,16.0976652 8.28818476,15.712324 C7.90416094,15.3269828 7.90282752,14.7069702 8.29085159,14.3176289 L10.6083287,12.0002484 L8.29085159,9.68286784 C7.90682777,9.29752665 7.90282752,8.67751402 8.28818476,8.28950611 C8.67220859,7.90416493 9.29224706,7.90283157 9.68160455,8.28950611 L11.9990817,10.6068867 L14.3178922,8.28950611 C14.7032494,7.90549829 15.3259547,7.90283157 15.711312,8.28950611 C16.0953358,8.67351394 16.0980026,9.29219321 15.7086451,9.68286784 L13.3925014,12.0002484 L15.7086451,14.3176289 Z M12,3 C7.03071429,3 3,7.03071429 3,12 C3,16.9692857 7.03071429,21 12,21 C16.9705714,21 21,16.9692857 21,12 C21,7.03071429 16.9705714,3 12,3 L12,3 Z" id="Close-Icon" fill="#23262D"></path>
        </g>
    </g>
</svg>
