<?xml version="1.0" encoding="UTF-8"?>
<svg width="24px" height="24px" viewBox="0 0 24 24" version="1.1" xmlns="http://www.w3.org/2000/svg" xmlns:xlink="http://www.w3.org/1999/xlink">
    <!-- Generator: Sketch 63.1 (92452) - https://sketch.com -->
    <title>icons / counter</title>
    <desc>Created with Sketch.</desc>
    <g id="icons-/-counter" stroke="none" stroke-width="1" fill="none" fill-rule="evenodd">
        <g>
            <rect id="Rectangle" x="0" y="0" width="24" height="24"></rect>
            <path class="gst-svg-icon" d="M12,4 C7.6,4 4,7.6 4,12 C4,16.4 7.6,20 12,20 C16.4,20 20,16.4 20,12 C20,7.6 16.4,4 12,4 Z M14.84,15.04 L11.576,13.032 C11.336,12.888 11.192,12.632 11.192,12.352 L11.192,8.6 C11.2,8.272 11.472,8 11.8,8 C12.128,8 12.4,8.272 12.4,8.6 L12.4,12.16 L15.472,14.008 C15.76,14.184 15.856,14.56 15.68,14.848 C15.504,15.128 15.128,15.216 14.84,15.04 Z" id="Shape" fill="#23262D" fill-rule="nonzero"></path>
        </g>
    </g>
</svg>
