<svg viewBox="0 0 24 24" fill="none" xmlns="http://www.w3.org/2000/svg">
    <path fill-rule="evenodd" clip-rule="evenodd" d="M12 3C7.03071 3 3 7.03071 3 12C3 16.9693 7.03071 21 12 21C16.9706 21 21 16.9693 21 12C21 7.03071 16.9706 3 12 3Z" fill="black" fill-opacity="0.4"/>
    <path fill-rule="evenodd" clip-rule="evenodd" d="M15.7086 14.3176C16.0953 14.7043 16.098 15.3243 15.7113 15.7123C15.3286 16.095 14.7059 16.0977 14.3179 15.7097L11.9991 13.3923L9.6816 15.7097C9.29358 16.095 8.67488 16.0977 8.28818 15.7123C7.90416 15.327 7.90283 14.707 8.29085 14.3176L10.6083 12.0002L8.29085 9.68287C7.90683 9.29753 7.90283 8.67751 8.28818 8.28951C8.67221 7.90416 9.29225 7.90283 9.6816 8.28951L11.9991 10.6069L14.3179 8.28951C14.7032 7.9055 15.326 7.90283 15.7113 8.28951C16.0953 8.67351 16.098 9.29219 15.7086 9.68287L13.3925 12.0002L15.7086 14.3176Z" fill="white"/>
</svg>
