<?xml version="1.0" encoding="UTF-8"?>
<svg width="24px" height="24px" viewBox="0 0 24 24" version="1.1" xmlns="http://www.w3.org/2000/svg" xmlns:xlink="http://www.w3.org/1999/xlink">
    <!-- Generator: Sketch 62 (91390) - https://sketch.com -->
    <title>icons / close menu</title>
    <desc>Created with Sketch.</desc>
    <g id="icons-/-close-menu" stroke="none" stroke-width="1" fill="none" fill-rule="evenodd">
        <g>
            <g id="menu-24px">
                <polygon id="Path" points="0 0 24 0 24 24 0 24"></polygon>
            </g>
            <path class="gst-svg-icon" d="M17.7337884,6.27531286 C17.3788396,5.92036405 16.8054608,5.92036405 16.4505119,6.27531286 L12,10.7167235 L7.54948805,6.2662116 C7.19453925,5.9112628 6.62116041,5.9112628 6.2662116,6.2662116 C5.9112628,6.62116041 5.9112628,7.19453925 6.2662116,7.54948805 L10.7167235,12 L6.2662116,16.4505119 C5.9112628,16.8054608 5.9112628,17.3788396 6.2662116,17.7337884 C6.62116041,18.0887372 7.19453925,18.0887372 7.54948805,17.7337884 L12,13.2832765 L16.4505119,17.7337884 C16.8054608,18.0887372 17.3788396,18.0887372 17.7337884,17.7337884 C18.0887372,17.3788396 18.0887372,16.8054608 17.7337884,16.4505119 L13.2832765,12 L17.7337884,7.54948805 C18.0796359,7.2036405 18.0796359,6.62116041 17.7337884,6.27531286 Z" id="Path" fill="#23262D" fill-rule="nonzero"></path>
        </g>
    </g>
</svg>
