<?xml version="1.0" encoding="UTF-8"?>
<svg width="24px" height="24px" viewBox="0 0 24 24" version="1.1" xmlns="http://www.w3.org/2000/svg" xmlns:xlink="http://www.w3.org/1999/xlink">
    <!-- Generator: Sketch 62 (91390) - https://sketch.com -->
    <title>icons / events / concerts</title>
    <desc>Created with Sketch.</desc>
    <g id="icons-/-events-/-concerts" stroke="none" stroke-width="1" fill="none" fill-rule="evenodd">
        <g id="Path">
            <polygon points="0 0 24 0 24 24 0 24"></polygon>
            <path class="gst-svg-icon"  d="M12,5 L12,13.55 C11.06,13.01 9.9,12.8 8.67,13.23 C7.33,13.71 6.3,14.9 6.06,16.3 C5.6,19.04 7.92,21.38 10.65,20.95 C12.61,20.64 14,18.84 14,16.85 L14,7 L16,7 C17.1,7 18,6.1 18,5 C18,3.9 17.1,3 16,3 L14,3 C12.9,3 12,3.9 12,5 Z" fill="#23262D" fill-rule="nonzero"></path>
        </g>
    </g>
</svg>
