<?xml version="1.0" encoding="UTF-8"?>
<svg width="24px" height="24px" viewBox="0 0 24 24" version="1.1" xmlns="http://www.w3.org/2000/svg" xmlns:xlink="http://www.w3.org/1999/xlink">
    <!-- Generator: Sketch 62 (91390) - https://sketch.com -->
    <title>icons / date</title>
    <desc>Created with Sketch.</desc>
    <g id="icons-/-date" stroke="none" stroke-width="1" fill="none" fill-rule="evenodd">
        <g>
            <polygon id="Path" points="0 0 24 0 24 24 0 24"></polygon>
            <path class="gst-svg-icon" d="M18.4,5.45454545 L17.6,5.45454545 L17.6,4.72727273 C17.6,4.32727273 17.24,4 16.8,4 C16.36,4 16,4.32727273 16,4.72727273 L16,5.45454545 L8,5.45454545 L8,4.72727273 C8,4.32727273 7.64,4 7.2,4 C6.76,4 6.4,4.32727273 6.4,4.72727273 L6.4,5.45454545 L5.6,5.45454545 C4.72,5.45454545 4,6.10909091 4,6.90909091 L4,18.5454545 C4,19.3454545 4.72,20 5.6,20 L18.4,20 C19.28,20 20,19.3454545 20,18.5454545 L20,6.90909091 C20,6.10909091 19.28,5.45454545 18.4,5.45454545 Z M17.6,18.5454545 L6.4,18.5454545 C5.96,18.5454545 5.6,18.2181818 5.6,17.8181818 L5.6,9.09090909 L18.4,9.09090909 L18.4,17.8181818 C18.4,18.2181818 18.04,18.5454545 17.6,18.5454545 Z" id="Shape" fill="#23262D" fill-rule="nonzero"></path>
        </g>
    </g>
</svg>