<svg width="24" height="24" viewBox="0 0 24 24" fill="none" xmlns="http://www.w3.org/2000/svg">
<rect opacity="0.01" x="0.5" y="0.5" width="23" height="23" fill="#D8D8D8" stroke="#979797"/>
<path class="gst-svg-icon" d="M19.7018 3H4.29817C3.58118 3 3 3.58118 3 4.29817V19.7018C3 20.4188 3.58118 21 4.29817 21H12.6152V14.0391H10.2773V11.3145H12.6152V9.30931C12.6152 6.98405 14.0348 5.71843 16.109 5.71843C17.1025 5.71843 17.9562 5.79245 18.2051 5.82555V8.25586H16.7748C15.6462 8.25586 15.4277 8.79213 15.4277 9.57916V11.3145H18.126L17.7744 14.0391H15.4277V21H19.7018C20.4188 21 21 20.4188 21 19.7018V4.29817C21 3.58118 20.4188 3 19.7018 3Z" fill="#23262D"/>
</svg>
