<?xml version="1.0" encoding="UTF-8"?>
<svg width="24px" height="24px" viewBox="0 0 24 24" version="1.1" xmlns="http://www.w3.org/2000/svg" xmlns:xlink="http://www.w3.org/1999/xlink">
    <!-- Generator: Sketch 63.1 (92452) - https://sketch.com -->
    <title>icons / family</title>
    <desc>Created with Sketch.</desc>
    <g id="icons-/-family" stroke="none" stroke-width="1" fill="none" fill-rule="evenodd">
        <g>
            <polygon id="Path" points="0 0 24 0 24 24 0 24"></polygon>
            <path class="gst-svg-icon"  d="M19.0714701,4.92852992 C15.1667635,1.02382336 8.83323649,1.02382336 4.92852992,4.92852992 C1.02382336,8.83323649 1.02382336,15.1667635 4.92852992,19.0714701 C8.83323649,22.9761766 15.1667635,22.9761766 19.0714701,19.0714701 C22.9761766,15.1667635 22.9761766,8.83556072 19.0714701,4.92852992 Z M15.55,8 C16.3511309,8 17,8.64886914 17,9.45 C17,10.2511309 16.3511309,10.9 15.55,10.9 C14.7488691,10.9 14.1,10.2511309 14.1,9.45 C14.1,8.64886914 14.7488691,8 15.55,8 Z M8.45000315,7.9 C9.25113227,7.9 9.9,8.54886914 9.9,9.35 C9.9,10.1511309 9.25113227,10.8 8.45000315,10.8 C7.64887403,10.8 7,10.1511309 7,9.35 C6.99766382,8.54886914 7.64887403,7.9 8.45000315,7.9 Z M17.1136761,14.7445008 C16.6491408,15.6251269 15.9418333,16.3740057 15.1014679,16.9125513 C13.8105733,17.7377049 12.1952044,17.9896425 10.7012215,17.6591188 C9.08351815,17.2985475 7.65489703,16.1983428 6.8892308,14.7445008 C6.70715164,14.400109 6.80986296,14.0071788 7.14134041,13.7945342 C7.44947438,13.598069 7.93035012,13.7205708 8.10075754,14.0441604 C8.17545668,14.1874644 8.25715887,14.3261457 8.34352976,14.4602042 C8.38788237,14.5295449 8.43456934,14.5942628 8.4812563,14.6612921 C8.50226544,14.6913397 8.53261197,14.7213873 8.55128675,14.7537463 C8.74036896,14.9848817 8.94812595,15.1975263 9.17455773,15.3916801 C9.22591339,15.4355958 9.27726906,15.4772002 9.32862472,15.5188046 C9.31695298,15.5118705 9.30528123,15.5026251 9.29594384,15.4933797 C9.2889408,15.488757 9.28660645,15.4864456 9.2842721,15.4864456 C9.2889408,15.4910683 9.35897124,15.5442295 9.36597429,15.5488522 C9.36363994,15.5465408 9.35430255,15.5372954 9.33095907,15.5211159 C9.34496515,15.5326727 9.36130559,15.5442295 9.37764603,15.5534749 C9.48035735,15.6274382 9.58773737,15.6990902 9.69511739,15.7661195 C9.8888683,15.8839986 10.0896222,15.9880095 10.2973792,16.0804637 C10.6592032,16.2237677 11.0326989,16.3254673 11.4178664,16.3832511 C11.8077026,16.4271669 12.1998731,16.4271669 12.5897092,16.3832511 C12.9725423,16.3231559 13.3483724,16.2237677 13.7101964,16.0804637 C13.9179534,15.9903209 14.1187073,15.8839986 14.3124582,15.7661195 C14.4268413,15.6967789 14.5365556,15.6228155 14.6439357,15.5442295 C14.6509387,15.5396068 14.6579418,15.5349841 14.6649448,15.5303614 C14.6556074,15.5372954 14.64627,15.5442295 14.6369326,15.5534749 C14.6509387,15.5442295 14.6626105,15.5326727 14.6766165,15.5234273 C14.6742822,15.5257386 14.6696135,15.52805 14.6672792,15.5303614 C14.6742822,15.5234273 14.6836196,15.5164932 14.6906226,15.5118705 C14.7396439,15.4725775 14.7863309,15.4332845 14.8330179,15.3939914 C15.061784,15.1975263 15.2718753,14.9825704 15.4609576,14.7491236 C15.4726293,14.7352554 15.484301,14.7190759 15.4959728,14.7052078 C15.5006415,14.6982738 15.5076445,14.6913397 15.5123132,14.6844056 C15.5076445,14.6913397 15.5029758,14.6959624 15.4983071,14.7028965 C15.5076445,14.6890283 15.5169819,14.6728489 15.5263193,14.6612921 C15.5730063,14.5965742 15.6196932,14.5295449 15.6640459,14.4602042 C15.7527511,14.3261457 15.8321189,14.1874644 15.9068181,14.0441604 C16.0888972,13.6997686 16.5440951,13.6258053 16.8662352,13.7945342 C17.20705,13.9771312 17.2817492,14.4232226 17.1136761,14.7445008 Z" id="Shape" fill="#23262D" fill-rule="nonzero" transform="translate(12.000000, 12.000000) scale(-1, 1) translate(-12.000000, -12.000000) "></path>
        </g>
    </g>
</svg>
