<?xml version="1.0" encoding="UTF-8"?>
<svg width="24px" height="24px" viewBox="0 0 24 24" version="1.1" xmlns="http://www.w3.org/2000/svg" xmlns:xlink="http://www.w3.org/1999/xlink">
    <!-- Generator: Sketch 62 (91390) - https://sketch.com -->
    <title>icons / gps</title>
    <desc>Created with Sketch.</desc>
    <g id="icons-/-gps" stroke="none" stroke-width="1" fill="none" fill-rule="evenodd">
        <g>
            <rect id="Rectangle" stroke="#979797" fill="#D8D8D8" opacity="0" x="0.5" y="0.5" width="23" height="23"></rect>
            <path class="gst-svg-icon" d="M12,8.72727273 C10.1918182,8.72727273 8.72727273,10.1918182 8.72727273,12 C8.72727273,13.8081818 10.1918182,15.2727273 12,15.2727273 C13.8081818,15.2727273 15.2727273,13.8081818 15.2727273,12 C15.2727273,10.1918182 13.8081818,8.72727273 12,8.72727273 Z M19.3145455,11.1818182 C18.9381818,7.77 16.23,5.06181818 12.8181818,4.68545455 L12.8181818,3.81818182 C12.8181818,3.36818182 12.45,3 12,3 C11.55,3 11.1818182,3.36818182 11.1818182,3.81818182 L11.1818182,4.68545455 C7.77,5.06181818 5.06181818,7.77 4.68545455,11.1818182 L3.81818182,11.1818182 C3.36818182,11.1818182 3,11.55 3,12 C3,12.45 3.36818182,12.8181818 3.81818182,12.8181818 L4.68545455,12.8181818 C5.06181818,16.23 7.77,18.9381818 11.1818182,19.3145455 L11.1818182,20.1818182 C11.1818182,20.6318182 11.55,21 12,21 C12.45,21 12.8181818,20.6318182 12.8181818,20.1818182 L12.8181818,19.3145455 C16.23,18.9381818 18.9381818,16.23 19.3145455,12.8181818 L20.1818182,12.8181818 C20.6318182,12.8181818 21,12.45 21,12 C21,11.55 20.6318182,11.1818182 20.1818182,11.1818182 L19.3145455,11.1818182 Z M12,17.7272727 C8.83363636,17.7272727 6.27272727,15.1663636 6.27272727,12 C6.27272727,8.83363636 8.83363636,6.27272727 12,6.27272727 C15.1663636,6.27272727 17.7272727,8.83363636 17.7272727,12 C17.7272727,15.1663636 15.1663636,17.7272727 12,17.7272727 Z" id="Shape" fill="#23262D" fill-rule="nonzero"></path>
        </g>
    </g>
</svg>