<svg width="24" height="24" viewBox="0 0 24 24" fill="none" xmlns="http://www.w3.org/2000/svg">
<rect x="0.5" y="0.5" width="23" height="23" rx="11.5" fill="white" stroke="#F80445"/>
<path d="M11.3653 4C11.197 4 11.0355 4.06688 10.9165 4.18593C10.7974 4.30499 10.7305 4.46645 10.7305 4.63482V9.41817L6.58706 7.02681C6.51483 6.98516 6.43509 6.95814 6.35242 6.94731C6.26974 6.93647 6.18574 6.94203 6.10522 6.96367C6.02469 6.9853 5.94921 7.02259 5.8831 7.0734C5.81698 7.12421 5.76153 7.18755 5.7199 7.25979L5.08508 8.35803C5.00104 8.50397 4.97831 8.67728 5.02186 8.83995C5.06542 9.00263 5.17171 9.1414 5.31742 9.22582L9.45961 11.6178L5.31742 14.0098C5.01398 14.185 4.90987 14.5742 5.08508 14.8776L5.7199 15.9758C5.76153 16.0481 5.81698 16.1114 5.8831 16.1622C5.94921 16.213 6.02469 16.2503 6.10522 16.272C6.18574 16.2936 6.26974 16.2992 6.35242 16.2883C6.43509 16.2775 6.51483 16.2505 6.58706 16.2088L10.7305 13.8175V18.6008C10.7305 18.7692 10.7974 18.9307 10.9165 19.0497C11.0355 19.1688 11.197 19.2356 11.3653 19.2356H12.635C12.8033 19.2356 12.9648 19.1688 13.0839 19.0497C13.2029 18.9307 13.2698 18.7692 13.2698 18.6008V13.8175L17.412 16.2088C17.7154 16.384 18.1052 16.2793 18.2804 15.9758L18.9152 14.8776C18.9569 14.8053 18.9839 14.7255 18.9947 14.6427C19.0055 14.56 18.9998 14.4759 18.9782 14.3953C18.9565 14.3147 18.9191 14.2392 18.8682 14.1731C18.8173 14.1069 18.7539 14.0515 18.6816 14.0098L14.5394 11.6178L18.6816 9.22582C18.9851 9.05061 19.0904 8.66147 18.9152 8.35803L18.2804 7.25979C18.1961 7.1138 18.0573 7.00725 17.8944 6.96356C17.7316 6.91988 17.5581 6.94263 17.412 7.02681L13.2698 9.41817V4.63482C13.2698 4.46645 13.2029 4.30499 13.0839 4.18593C12.9648 4.06688 12.8033 4 12.635 4H11.3653Z" fill="#F80445"/>
</svg>
