<?xml version="1.0" encoding="UTF-8"?>
<svg width="24px" height="24px" viewBox="0 0 24 24" version="1.1" xmlns="http://www.w3.org/2000/svg" xmlns:xlink="http://www.w3.org/1999/xlink">
    <!-- Generator: Sketch 62 (91390) - https://sketch.com -->
    <title>icons / fav stroke</title>
    <desc>Created with Sketch.</desc>
    <g id="icons-/-fav-stroke" stroke="none" stroke-width="1" fill="none" fill-rule="evenodd">
        <g>
            <circle class="gst-svg-icon-2" id="Oval" fill-opacity="0.4" fill="#000000" cx="12" cy="12" r="12"></circle>
            <g id="favorite_border-24px" class="gst-svg-icon" transform="translate(6.000000, 8.000000)" fill="#FFFFFF" fill-rule="nonzero">
                <path class="gst-svg-icon" d="M10.5943979,0.561375392 C9.01100671,-0.458633158 7.05575856,0.017370832 6.00016446,1.18471395 C4.94457037,0.017370832 2.98932221,-0.464299872 1.40593107,0.561375392 C0.566253945,1.10537995 0.0384568966,2.02338765 0.00247073428,2.99239577 C-0.0814969779,5.19108087 1.98170966,6.95342897 5.13049887,9.65645163 L5.19047581,9.70745206 C5.64630053,10.0984553 6.3480307,10.0984553 6.80385542,9.70178534 L6.86983005,9.6451182 C10.0186193,6.94776226 12.0758282,5.18541415 11.9978582,2.98672906 C11.961872,2.02338765 11.434075,1.10537995 10.5943979,0.561375392 L10.5943979,0.561375392 Z M6.0601414,8.81211122 L6.00016446,8.86877836 L5.94018752,8.81211122 C3.08528531,6.36975741 1.20200948,4.75474388 1.20200948,3.11706348 C1.20200948,1.98372065 2.10166354,1.13371352 3.30120228,1.13371352 C4.22484712,1.13371352 5.12450118,1.69471823 5.44237895,2.47105807 L6.56394767,2.47105807 C6.87582775,1.69471823 7.77548181,1.13371352 8.69912664,1.13371352 C9.89866539,1.13371352 10.7983194,1.98372065 10.7983194,3.11706348 C10.7983194,4.75474388 8.91504361,6.36975741 6.0601414,8.81211122 Z" id="Shape"></path>
            </g>
        </g>
    </g>
</svg>
