<svg width="24" height="24" viewBox="0 0 24 24" fill="none" xmlns="http://www.w3.org/2000/svg">
<circle class="gst-svg-icon-2" cx="12" cy="12" r="12" fill="#000000" fill-opacity="0.4"/>
<path class="gst-svg-icon" d="M14.6716 8C14.1262 8 13.6364 8.15626 13.1465 8.41669L12.8738 9.87614H13.9647L12.5455 12.4804H13.4193L11.2375 16.1265L11.7829 13.0013H11.0176L11.9449 10.397H10.692L11.1818 8.67712C10.692 8.31252 10.0353 8 9.32836 8C7.36364 8 6 9.30215 6 11.1783C6 13.2617 7.692 14.5639 9.38182 15.866C10.1465 16.4905 10.9647 17.1151 11.5636 17.7927C11.6716 17.8963 11.8364 18 12 18C12.1636 18 12.3284 17.9495 12.4364 17.7927C13.0353 17.1151 13.8535 16.4374 14.6182 15.8655C16.2545 14.5634 18 13.2612 18 11.1778C18 9.30215 16.6364 8 14.6716 8Z" fill="white"/>
</svg>
