<svg width="57" height="52" viewBox="0 0 57 52" fill="none" xmlns="http://www.w3.org/2000/svg">
<circle cx="24.0961" cy="24.0961" r="23.5961" fill="white" stroke="#F0F2F3"/>
<path class="gst-svg-icon" d="M32.4231 17.0105C29.5202 15.1745 25.9356 16.0313 24.0003 18.1325C22.065 16.0313 18.4804 15.1643 15.5775 17.0105C14.0381 17.9897 13.0705 19.6421 13.0045 21.3863C12.8506 25.3439 16.6331 28.5162 22.4059 33.3816L22.5159 33.4734C23.3516 34.1772 24.6381 34.1772 25.4737 33.4632L25.5947 33.3612C31.3675 28.506 35.139 25.3337 34.9961 21.3761C34.9301 19.6421 33.9625 17.9897 32.4231 17.0105Z" fill="#00C1F3"/>
<path d="M52.6243 37.2292C52.9691 37.3906 53.1311 37.6607 53.1103 38.0395C53.0924 38.4267 52.9116 38.6822 52.5678 38.806L50.6828 39.4846C49.3445 39.9664 48.9227 41.6519 49.8763 42.7073L52.5115 45.6235C52.6692 45.8048 52.7436 46.0112 52.7345 46.243C52.7255 46.4747 52.6394 46.6723 52.4763 46.8357L50.6442 48.5663C50.4699 48.7243 50.2693 48.7965 50.0425 48.7829C49.8157 48.7694 49.6208 48.6777 49.458 48.5079L47.1019 45.9018C46.1358 44.8331 44.3909 45.1056 43.7965 46.4178L42.6442 48.9617C42.5463 49.1778 42.391 49.3242 42.1781 49.4008C42.0799 49.4362 41.9741 49.4505 41.8606 49.4437C41.4816 49.4183 41.2284 49.2286 41.101 48.8747L34.2561 29.8618C34.1287 29.5078 34.2029 29.2003 34.4788 28.9391C34.5618 28.8616 34.6525 28.8052 34.7507 28.7698C34.9718 28.6902 35.1848 28.704 35.3898 28.8111L52.6243 37.2292Z" fill="#CED9DF"/>
</svg>
