<?xml version="1.0" encoding="UTF-8"?>
<svg width="24px" height="24px" viewBox="0 0 24 24" version="1.1" xmlns="http://www.w3.org/2000/svg" xmlns:xlink="http://www.w3.org/1999/xlink">
    <!-- Generator: Sketch 63.1 (92452) - https://sketch.com -->
    <title>icons / help</title>
    <desc>Created with Sketch.</desc>
    <g id="icons-/-help" stroke="none" stroke-width="1" fill="none" fill-rule="evenodd">
        <g>
            <polygon id="Path" points="0 0 24 0 24 24 0 24"></polygon>
            <path class="gst-svg-icon" d="M12,4 C7.584,4 4,7.584 4,12 C4,16.416 7.584,20 12,20 C16.416,20 20,16.416 20,12 C20,7.584 16.416,4 12,4 Z M12.8,17.6 L11.2,17.6 L11.2,16 L12.8,16 L12.8,17.6 Z M14.456,11.4 L13.736,12.136 C13.336,12.544 13.048,12.912 12.904,13.488 C12.84,13.744 12.8,14.032 12.8,14.4 L11.2,14.4 L11.2,14 C11.2,13.632 11.264,13.28 11.376,12.952 C11.536,12.488 11.8,12.072 12.136,11.736 L13.128,10.728 C13.496,10.376 13.672,9.848 13.568,9.288 C13.464,8.712 13.016,8.224 12.456,8.064 C11.568,7.816 10.744,8.32 10.48,9.08 C10.384,9.376 10.136,9.6 9.824,9.6 L9.584,9.6 C9.12,9.6 8.8,9.152 8.928,8.704 C9.272,7.528 10.272,6.632 11.512,6.44 C12.728,6.248 13.888,6.88 14.608,7.88 C15.552,9.184 15.272,10.584 14.456,11.4 L14.456,11.4 Z" id="Shape" fill="#23262D" fill-rule="nonzero"></path>
        </g>
    </g>
</svg>