<?xml version="1.0" encoding="UTF-8"?>
<svg width="24px" height="24px" viewBox="0 0 24 24" version="1.1" xmlns="http://www.w3.org/2000/svg" xmlns:xlink="http://www.w3.org/1999/xlink">
    <!-- Generator: Sketch 62 (91390) - https://sketch.com -->
    <title>icons / history</title>
    <desc>Created with Sketch.</desc>
    <g id="icons-/-history" stroke="none" stroke-width="1" fill="none" fill-rule="evenodd">
        <g>
            <rect id="Rectangle" stroke="#979797" fill="#D8D8D8" opacity="0" x="0.5" y="0.5" width="23" height="23"></rect>
            <path class="gst-svg-icon" d="M12.9953083,4.00003861 L13.2452509,4.00310175 C17.4048911,4.1186349 20.8816053,7.60240385 20.9969045,11.7704846 C21.1210729,16.2940519 17.4935828,20 13.0146526,20 C11.1609963,20 9.466985,19.3690112 8.11887134,18.3025514 C7.7020204,17.9826134 7.67541289,17.3516246 8.04791798,16.9783637 C8.36720806,16.6584257 8.86388152,16.6317642 9.21864828,16.9072663 C10.2652102,17.7337727 11.5867164,18.2225669 13.0146526,18.2225669 C16.4736284,18.2225669 19.2674166,15.387561 19.2230708,11.9126792 C19.1787249,8.60665358 16.4026751,5.82497071 13.1033442,5.78053488 C9.62663004,5.73609906 6.80623434,8.53555625 6.80623434,12.0015509 L6.80623434,12.0015509 L8.39381557,12.0015509 C8.79292817,12.0015509 8.98804988,12.4814578 8.71310565,12.75696 L8.71310565,12.75696 L6.23860753,15.2453664 C6.06122416,15.4231097 5.78627992,15.4231097 5.60889654,15.2453664 L5.60889654,15.2453664 L3.13439843,12.75696 C2.85058503,12.4814578 3.04570674,12.0015509 3.44481934,12.0015509 L3.44481934,12.0015509 L5.03240057,12.0015509 C5.03240057,7.5135322 8.73084399,3.87868143 13.2452509,4.00310175 Z M12.7929233,8.44668459 C13.1565593,8.44668459 13.458111,8.74884823 13.458111,9.10433486 L13.458111,9.10433486 L13.458111,12.1259712 L16.0124316,13.6456765 C16.3228525,13.832307 16.4292826,14.2411166 16.24303,14.5610546 C16.0567775,14.8721054 15.6487957,14.9787514 15.3295056,14.7921209 L15.3295056,14.7921209 L12.5623249,13.1479952 C12.2962499,12.9880263 12.1277357,12.6947498 12.1277357,12.383699 L12.1277357,12.383699 L12.1277357,9.11322202 C12.1277357,8.74884823 12.4292874,8.44668459 12.7929233,8.44668459 Z" id="Combined-Shape" fill="#23262D" fill-rule="nonzero"></path>
        </g>
    </g>
</svg>