<svg width="24" height="24" viewBox="0 0 24 24" fill="none" xmlns="http://www.w3.org/2000/svg">
<rect opacity="0.01" x="0.5" y="0.5" width="23" height="23" fill="#D8D8D8" stroke="#979797"/>
<path class="gst-svg-icon" fill-rule="evenodd" clip-rule="evenodd" d="M20.5358 6.10838C20.7574 6.67814 20.9121 7.33566 20.9543 8.29208C20.9964 9.25206 21 9.55796 21 12.0018C21 14.4457 20.9894 14.7515 20.9473 15.7115C20.9051 16.6679 20.7503 17.322 20.5288 17.8952C20.061 19.1048 19.1044 20.0612 17.8945 20.5289C17.3248 20.7505 16.6671 20.9051 15.7105 20.9473C14.7503 20.9896 14.4444 21 12.0001 21C9.55576 21 9.24968 20.9896 8.28965 20.9473C7.33291 20.9051 6.67883 20.7505 6.10554 20.5289C5.50765 20.3039 4.96251 19.9487 4.51231 19.4916C4.0551 19.0415 3.69996 18.5 3.47136 17.8952C3.24976 17.3255 3.09493 16.6679 3.05275 15.7115C3.01058 14.7515 3 14.4457 3 12.0018C3 9.55796 3.01058 9.25206 3.05633 8.28851C3.0985 7.33209 3.2532 6.67814 3.47479 6.10495C3.69996 5.50717 4.0551 4.96214 4.51231 4.51202C4.96251 4.05133 5.50407 3.69969 6.10911 3.47113C6.67883 3.24971 7.33648 3.09491 8.29308 3.05274C9.25325 3.01058 9.5592 3 12.0035 3C14.4478 3 14.7538 3.01058 15.7175 3.05632C16.6741 3.09848 17.3283 3.25315 17.9015 3.4747C18.4994 3.69969 19.0445 4.0549 19.4947 4.51202C19.9555 4.96214 20.3072 5.5036 20.5358 6.10838ZM19.0235 17.3115C19.1466 16.995 19.2943 16.5203 19.333 15.6412C19.3752 14.6918 19.3858 14.4105 19.3858 12.0088C19.3858 9.60713 19.3752 9.32239 19.333 8.37298C19.2943 7.49733 19.1466 7.01919 19.0235 6.70272C18.8792 6.31236 18.6506 5.96072 18.3517 5.66884C18.0633 5.36995 17.7081 5.14139 17.3177 4.9973C17.0012 4.87423 16.5264 4.72657 15.6472 4.68784C14.701 4.64567 14.4162 4.63509 12.0105 4.63509C9.60852 4.63509 9.32359 4.64567 8.374 4.68784C7.49832 4.72657 7.01995 4.87423 6.70342 4.9973C6.31298 5.14139 5.96128 5.36995 5.66948 5.66884C5.36697 5.95729 5.13836 6.31236 4.99411 6.70272C4.87101 7.01919 4.72333 7.4939 4.68472 8.37298C4.64241 9.31882 4.63197 9.60713 4.63197 12.0088C4.63197 14.4105 4.64241 14.6954 4.68472 15.6448C4.72333 16.5203 4.87101 16.9986 4.99411 17.315C5.13836 17.7053 5.36697 18.0569 5.66591 18.3488C5.95428 18.6477 6.30955 18.8762 6.69985 19.0205C7.01638 19.1435 7.49118 19.2912 8.37043 19.3298C9.31658 19.3721 9.60495 19.3825 12.0071 19.3825C14.4092 19.3825 14.694 19.3721 15.6436 19.3298C16.5194 19.2912 16.9976 19.1435 17.3142 19.0205C18.0985 18.718 18.721 18.0956 19.0235 17.3115ZM7.37866 12.0018C7.37866 9.4489 9.45025 7.37783 12.0035 7.37783C14.5569 7.37783 16.6284 9.4489 16.6284 12.0018C16.6284 14.5547 14.5569 16.6258 12.0035 16.6258C9.45025 16.6258 7.37866 14.5547 7.37866 12.0018ZM9.00349 12.0018C9.00349 13.6581 10.3471 15.0013 12.0035 15.0013C13.6601 15.0013 15.0035 13.6581 15.0035 12.0018C15.0035 10.3456 13.6601 9.00235 12.0035 9.00235C10.3471 9.00235 9.00349 10.3456 9.00349 12.0018ZM16.8112 8.2745C17.4076 8.2745 17.891 7.79114 17.891 7.19501C17.891 6.59874 17.4076 6.11552 16.8112 6.11552C16.215 6.11552 15.7315 6.59874 15.7315 7.19501C15.7315 7.79114 16.215 8.2745 16.8112 8.2745Z" fill="#23262D"/>
</svg>
