<svg width="48" height="48" viewBox="0 0 48 48" fill="none" xmlns="http://www.w3.org/2000/svg">
<circle cx="24" cy="24" r="23.5" fill="white" stroke="#F0F2F3"/>
<rect opacity="0.01" x="12.5" y="12.5" width="23" height="23" fill="#D8D8D8" stroke="#979797"/>
<path fill-rule="evenodd" clip-rule="evenodd" d="M24.0504 32.7643C24.0115 32.746 23.9726 32.7276 23.9337 32.7276C23.6226 32.5809 16 28.1074 16 20.627C16 16.4468 19.6557 13 24.1671 13C28.6784 13 32.3341 16.4468 32.3341 20.627C32.3341 27.6577 25.4665 32.0454 24.5025 32.6613C24.4509 32.6943 24.4162 32.7164 24.4004 32.7276C24.3226 32.801 24.2448 32.801 24.1671 32.801C24.1282 32.801 24.0893 32.7826 24.0504 32.7643ZM28.445 20.6982C28.445 18.4981 26.5004 16.6647 24.167 16.6647C21.8336 16.6647 19.889 18.4981 19.889 20.6982C19.889 22.8983 21.8336 24.7318 24.167 24.7318C26.5004 24.7318 28.445 22.8983 28.445 20.6982Z" fill="#D6DBE0"/>
<path d="M28.9117 30.3063C28.7562 30.3063 28.6006 30.3063 28.5228 30.3796C26.6561 32.2864 24.8671 33.3131 24.7893 33.3131C24.4004 33.5331 23.9337 33.5331 23.5448 33.3131C23.467 33.2397 21.6781 32.213 19.8113 30.3796C19.7335 30.3063 19.578 30.2329 19.4224 30.3063C17.2445 30.7463 16 31.553 16 32.433C16 34.1198 20.1224 34.9998 24.1671 34.9998C28.2117 34.9998 32.3341 34.1198 32.3341 32.433C32.3341 31.553 31.0896 30.8196 28.9117 30.3063Z" fill="#D6DBE0"/>
</svg>