<?xml version="1.0" encoding="UTF-8"?>
<svg width="24px" height="24px" viewBox="0 0 24 24" version="1.1" xmlns="http://www.w3.org/2000/svg" xmlns:xlink="http://www.w3.org/1999/xlink">
    <!-- Generator: Sketch 62 (91390) - https://sketch.com -->
    <title>icons / location</title>
    <desc>Created with Sketch.</desc>
    <g id="icons-/-location" stroke="none" stroke-width="1" fill="none" fill-rule="evenodd">
        <g>
            <rect id="Rectangle" stroke="#979797" fill="#D8D8D8" opacity="0" x="0.5" y="0.5" width="23" height="23"></rect>
            <path class="gst-svg-icon" d="M11.8090909,19.14 C11.8727273,19.14 11.9363636,19.2 12,19.2 C12.0636364,19.2 12.1272727,19.2 12.1909091,19.14 C12.4454545,18.96 18.6818182,15.3 18.6818182,9.24 C18.6818182,5.82 15.6909091,3 12,3 C8.30909091,3 5.31818182,5.82 5.31818182,9.24 C5.31818182,15.36 11.5545455,19.02 11.8090909,19.14 Z M12,6 C13.9090909,6 15.5,7.5 15.5,9.3 C15.5,11.1 13.9090909,12.6 12,12.6 C10.0909091,12.6 8.5,11.1 8.5,9.3 C8.5,7.5 10.0909091,6 12,6 Z" id="Shape" fill="#23262D" fill-rule="nonzero"></path>
            <path class="gst-svg-icon" d="M15.8818182,17.16 C15.7545455,17.16 15.6272727,17.16 15.5636364,17.22 C14.0363636,18.78 12.5727273,19.62 12.5090909,19.62 C12.1909091,19.8 11.8090909,19.8 11.4909091,19.62 C11.4272727,19.56 9.96363636,18.72 8.43636364,17.22 C8.37272727,17.16 8.24545455,17.1 8.11818182,17.16 C6.33636364,17.52 5.31818182,18.18 5.31818182,18.9 C5.31818182,20.28 8.69090909,21 12,21 C15.3090909,21 18.6818182,20.28 18.6818182,18.9 C18.6818182,18.18 17.6636364,17.58 15.8818182,17.16 Z" id="Path" fill="#23262D" fill-rule="nonzero"></path>
        </g>
    </g>
</svg>