<svg width="24" height="24" viewBox="0 0 24 24" fill="none" xmlns="http://www.w3.org/2000/svg">
<rect opacity="0.01" x="0.5" y="0.5" width="23" height="23" fill="#D8D8D8" stroke="#979797"/>
<path class="gst-svg-icon" fill-rule="evenodd" clip-rule="evenodd" d="M4.8 5H19.2C20.19 5 21 5.7875 21 6.75V17.25C21 18.2125 20.19 19 19.2 19H4.8C3.81 19 3 18.2125 3 17.25L3.009 6.75C3.009 5.7875 3.81 5 4.8 5ZM12.477 12.5863L18.84 8.71875C19.065 8.57875 19.2 8.3425 19.2 8.08875C19.2 7.5025 18.543 7.1525 18.03 7.45875L12 11.125L5.97 7.45875C5.457 7.1525 4.8 7.5025 4.8 8.08875C4.8 8.3425 4.935 8.57875 5.16 8.71875L11.523 12.5863C11.811 12.7613 12.189 12.7613 12.477 12.5863Z" fill="#23262D"/>
</svg>
