<svg width="48" height="48" viewBox="0 0 48 48" fill="none" xmlns="http://www.w3.org/2000/svg">
<circle cx="24" cy="24" r="23.5" fill="white" stroke="#F0F2F3"/>
<g clip-path="url(#microphone_bordered_clip0)">
<path d="M22.1065 20.5372C22.1273 20.5882 22.1644 20.6308 22.2122 20.6582L27.7876 23.8772C27.8353 23.9048 27.8907 23.9157 27.9453 23.9082C29.0343 23.7656 30.057 23.3049 30.8854 22.5838C30.9154 22.5576 30.9387 22.5246 30.9534 22.4876C30.9681 22.4506 30.9737 22.4106 30.9698 22.371C30.966 22.3313 30.9526 22.2932 30.931 22.2598C30.9094 22.2263 30.8801 22.1985 30.8456 22.1786L22.1542 17.1606C22.1197 17.1407 22.081 17.1292 22.0412 17.1272C22.0014 17.1252 21.9618 17.1328 21.9255 17.1492C21.8892 17.1657 21.8574 17.1906 21.8327 17.2218C21.808 17.253 21.7911 17.2897 21.7834 17.3288C21.5727 18.4067 21.6851 19.5229 22.1065 20.5372Z" fill="#D6DBE0"/>
<path d="M22.2368 16.0537L31.7631 21.5537C31.995 21.6761 32.2646 21.7065 32.5179 21.6386C32.7712 21.5707 32.9895 21.4097 33.1291 21.1877C33.2617 20.958 33.2976 20.685 33.229 20.4288C33.1603 20.1727 32.9927 19.9542 32.7631 19.8216C32.7211 19.7974 32.6879 19.7604 32.6682 19.7161C32.6486 19.6718 32.6435 19.6223 32.6538 19.5749C32.8989 18.4274 32.7741 17.2317 32.2974 16.1595C31.8207 15.0873 31.0165 14.1936 30.0003 13.6069C28.984 13.0202 27.8081 12.7706 26.6411 12.8938C25.4742 13.0171 24.3763 13.5069 23.5051 14.2929C23.4691 14.3255 23.4238 14.3458 23.3756 14.351C23.3274 14.3561 23.2788 14.3459 23.2368 14.3216C23.0071 14.189 22.7341 14.1531 22.478 14.2217C22.2218 14.2904 22.0034 14.458 21.8708 14.6877C21.7492 14.9197 21.7194 15.189 21.7872 15.4421C21.855 15.6951 22.0155 15.9134 22.2368 16.0537Z" fill="#D6DBE0"/>
<path d="M18.1951 29.886C18.0941 30.1011 18.0663 30.3432 18.1159 30.5755C18.1654 30.8078 18.2897 31.0176 18.4696 31.1726C18.5127 31.2109 18.5413 31.2628 18.5506 31.3197C18.5598 31.3766 18.5491 31.4349 18.5203 31.4848L17.6313 33.0246C17.4987 33.2543 17.4627 33.5273 17.5314 33.7834C17.6 34.0396 17.7676 34.258 17.9973 34.3906C18.227 34.5232 18.5 34.5592 18.7561 34.4905C19.0123 34.4219 19.2307 34.2543 19.3633 34.0246L20.2503 32.4883C20.279 32.4382 20.3242 32.3997 20.3781 32.3792C20.432 32.3588 20.4914 32.3577 20.546 32.3761C20.7713 32.4561 21.0167 32.4597 21.2442 32.3863C21.4717 32.3129 21.6687 32.1666 21.8047 31.97L26.8103 24.776C26.8293 24.7476 26.8422 24.7156 26.8483 24.6819C26.8545 24.6483 26.8537 24.6138 26.846 24.5805C26.8383 24.5472 26.8239 24.5158 26.8036 24.4882C26.7834 24.4607 26.7577 24.4376 26.7282 24.4203L22.2716 21.8473C22.2416 21.8302 22.2084 21.8194 22.1741 21.8157C22.1397 21.812 22.105 21.8155 22.072 21.8258C22.0391 21.8361 22.0086 21.8532 21.9825 21.8758C21.9564 21.8985 21.9353 21.9263 21.9205 21.9575L18.1951 29.886Z" fill="#D6DBE0"/>
</g>
<defs>
<clipPath id="clip0">
<rect width="24" height="24" fill="white" transform="translate(19.6077 7.60742) rotate(30)"/>
</clipPath>
</defs>
</svg>