<?xml version="1.0" encoding="UTF-8"?>
<svg width="109px" height="127px" viewBox="0 0 109 127" version="1.1" xmlns="http://www.w3.org/2000/svg" xmlns:xlink="http://www.w3.org/1999/xlink">
    <!-- Generator: Sketch 63.1 (92452) - https://sketch.com -->
    <title>no events illustration</title>
    <desc>Created with Sketch.</desc>
    <defs>
        <polygon id="path-1" points="0.000186189258 0.248904007 32.0242731 0.248904007 32.0242731 32.2728048 0.000186189258 32.2728048"></polygon>
    </defs>
    <g id="Design-System" stroke="none" stroke-width="1" fill="none" fill-rule="evenodd">
        <g id="2.1-design-system" transform="translate(-900.000000, -3591.000000)">
            <g id="Group-14" transform="translate(794.000000, 3591.000000)">
                <g id="no-events-illustration" transform="translate(106.000000, 0.000000)">
                    <path d="M65,1.48962556 L65,92.5132809 C65,93.029974 64.7335533,93.5093496 64.2976055,93.7793633 C64.066789,93.9241149 63.8004216,94 63.5287682,94 L59.4947456,94 C58.7928693,93.994185 58.1927809,93.4881886 58.0614811,92.7914354 C57.489264,89.8323517 54.9229629,87.6974343 51.9392586,87.6983309 C51.5216204,87.6961114 51.1048914,87.7379006 50.6958304,87.8230209 C48.2228019,88.3292842 46.2941719,90.2895281 45.8075442,92.7914354 C45.7146099,93.3154342 45.3531607,93.7500775 44.8583624,93.9328279 C44.7131542,93.974599 44.5631989,93.9971674 44.412247,94 L40.0744862,94 C39.3654583,94.0033742 38.7548884,93.4952695 38.6222381,92.7914354 C38.0534438,89.8302915 35.4850632,87.6936442 32.5000155,87.6983309 C32.0854922,87.695576 31.6718543,87.7373743 31.2660792,87.8230209 C29.7352683,88.1424324 28.379694,89.0328123 27.469352,90.3168196 C26.9462176,91.0566811 26.5839222,91.9000222 26.4062684,92.7914354 C26.3133341,93.3154342 25.9518849,93.7500775 25.4570867,93.9328279 C25.3118784,93.974599 25.1619231,93.9971674 25.0109712,94 L20.644735,94 C19.9370552,94 19.328579,93.4932019 19.1924868,92.7914354 C18.9104725,91.320059 18.1156844,89.9996461 16.9524178,89.0699203 C16.4227418,88.6502143 15.8255319,88.3257606 15.1869397,88.1107669 C14.6324473,87.8852052 14.0462709,87.7492596 13.449937,87.7079225 L13.0702643,87.7079225 C10.0852166,87.7032357 7.51683604,89.8398831 6.94804176,92.8010269 C6.807995,93.4989803 6.2005458,94 5.49579362,94 L1.47126284,94 C1.08029263,94.0025425 0.70459732,93.8467364 0.428133765,93.5673685 C0.15167021,93.2880006 -0.0025160545,92.9083584 0,92.5132809 L0,1.48962556 C-0.0025160545,1.09454803 0.15167021,0.714905878 0.428133765,0.435537947 C0.70459732,0.156170017 1.08029263,0 1.47126284,0.0029378331 L5.49579362,0.0029378331 C6.20347336,0.00334221538 6.8119496,0.509704554 6.94804176,1.21147109 C7.51683604,4.1726149 10.0852166,6.30926224 13.0702643,6.30457551 L13.449937,6.30457551 C14.0538418,6.27852732 14.6497925,6.15549489 15.2154151,5.94009723 C15.8540073,5.72510355 16.4512173,5.40064983 16.9808933,4.98094385 C18.1441599,4.05121802 18.938948,2.73080516 19.2209623,1.25942875 C19.3348421,0.549145008 19.9329034,0.0213510488 20.644735,0.0029378331 L24.9255449,0.0029378331 C25.0764968,0.00573899689 25.2264521,0.0283073933 25.3716603,0.0700785694 C25.8664585,0.25282895 26.2279078,0.687472207 26.3208421,1.21147109 C26.4984958,2.10288422 26.8607913,2.94622534 27.3839257,3.68608679 C28.2942677,4.97009415 29.6498419,5.860474 31.1806528,6.17988557 C31.5864279,6.26553212 32.0000659,6.30733046 32.4145892,6.30457551 C35.3996368,6.30926224 37.9680174,4.1726149 38.5368117,1.21147109 C38.6742499,0.474313747 39.3336076,-0.0439075798 40.0744862,0.0029378331 L44.3552961,0.0029378331 C44.506248,0.00573899689 44.6562033,0.0283073933 44.8014115,0.0700785694 C45.2962098,0.25282895 45.657659,0.687472207 45.7505933,1.21147109 C45.9382877,2.10813494 46.3172776,2.95263596 46.861136,3.68608679 C47.7721329,4.96940153 49.1274128,5.85958805 50.6578632,6.17988557 C51.0669241,6.26500584 51.4836531,6.30679508 51.9012913,6.30457551 C54.8992674,6.32390902 57.4865761,4.18478113 58.0614811,1.21147109 C58.1927809,0.514717879 58.7928693,0.00872144029 59.4947456,0.0029378331 L63.5287682,0.0029378331 C63.8004216,0.0023617554 64.066789,0.0787915083 64.2976055,0.223543109 C64.7335533,0.49355681 65,0.972932456 65,1.48962556 Z" id="Path" fill="#F1F2F4"></path>
                    <g id="star-24px-(1)-copy-2" transform="translate(13.000000, 20.000000)">
                        <g id="Group">
                            <polygon id="Path" points="0 0 40 0 40 40 0 40"></polygon>
                            <polygon id="Path" points="0 0 40 0 40 40 0 40"></polygon>
                        </g>
                        <path d="M20.5,29.6116852 L27.0473038,33.7551662 C28.2463282,34.5145292 29.7135553,33.3919925 29.3980226,31.9723138 L27.6625926,24.1805887 L33.452618,18.931079 C34.5096526,17.9736213 33.9416937,16.1577532 32.5533497,16.0421979 L24.9332347,15.3653743 L21.9514505,8.00285445 C21.4150449,6.66571518 19.5849551,6.66571518 19.0485495,8.00285445 L16.0667653,15.3488664 L8.44665027,16.02569 C7.05830632,16.1412453 6.49034743,17.9571134 7.54738203,18.9145711 L13.3374074,24.1640808 L11.6019774,31.9558059 C11.2864447,33.3754846 12.7536718,34.4980213 13.9526962,33.7386583 L20.5,29.6116852 Z" id="Path" fill="#C2C2C2" fill-rule="nonzero"></path>
                    </g>
                    <g id="Group-25" transform="translate(69.000000, 87.000000) scale(-1, 1) translate(-69.000000, -87.000000) translate(29.000000, 47.000000)">
                        <polygon id="Fill-1" fill="#00B4E2" points="20.5866028 63.4782609 15.6521739 58.7200616 35.0652559 40 40 44.7581993"></polygon>
                        <g id="Group-24">
                            <path d="M38.6661095,44.720829 C37.2827233,43.3374428 36.1379697,41.8066568 35.2203669,40.1824658 L34.6549722,39.6170711 L31.1586483,43.1133951 C32.2447523,44.9427045 33.5729023,46.667748 35.1458912,48.2410472 C35.2467437,48.3418997 35.352251,48.435615 35.4543448,48.5342953 L38.974563,45.0140771 C38.8721589,44.9157071 38.766962,44.8216815 38.6661095,44.720829" id="Fill-2" fill="#009CC5"></path>
                            <g id="Group-6" transform="translate(0.000000, 46.857630)">
                                <mask id="mask-2" fill="white">
                                    <use xlink:href="#path-1"></use>
                                </mask>
                                <g id="Clip-5"></g>
                                <path d="M4.20806343,31.2996866 L0.973025064,28.0646483 C-0.324093436,26.7672194 -0.324093436,24.6632808 0.973025064,23.365852 L23.1174445,1.22174288 C24.414563,-0.0753756181 26.5185016,-0.0753756181 27.8159304,1.22174288 L31.0509688,4.45678124 C32.3487079,5.75452038 32.3487079,7.85814868 31.0509688,9.15588781 L8.90716999,31.2996866 C7.60943086,32.5974257 5.50580256,32.5974257 4.20806343,31.2996866" id="Fill-4" fill="#00B4E2" mask="url(#mask-2)"></path>
                            </g>
                            <g id="Group-9" transform="translate(1.551577, 48.719523)" fill="#009CC5">
                                <path d="M29.4993606,2.59488866 L27.0193197,0.114847741 C28.3167485,1.41227656 28.3167485,3.51621517 27.0193197,4.81364399 L4.87521057,26.9577531 C3.57778176,28.2551819 1.47384314,28.2551819 0.176414322,26.9577531 L2.65645524,29.437794 C3.95419437,30.7355332 6.05782268,30.7355332 7.35556181,29.437794 L29.4993606,7.29399523 C30.7970997,5.9962561 30.7970997,3.89262779 29.4993606,2.59488866" id="Fill-7"></path>
                            </g>
                            <g id="Group-12" transform="translate(26.997442, 0.000000)" fill="#00B4E2">
                                <path d="M11.2265296,40.9064317 C3.01216982,32.6923823 3.01216982,19.3745749 11.2265296,11.1605255 C19.440579,2.94647604 32.7583864,2.94647604 40.9724358,11.1605255 C49.1867956,19.3745749 49.1867956,32.6923823 40.9724358,40.9064317 C32.7583864,49.1207915 19.440579,49.1207915 11.2265296,40.9064317 M44.492654,7.64030725 C34.3344784,-2.51817869 17.8647973,-2.51817869 7.70631134,7.64030725 C-2.45186428,17.7984829 -2.45186428,34.268164 7.70631134,44.42665 C17.8647973,54.5848256 34.3344784,54.5848256 44.492654,44.42665 C54.65114,34.268164 54.65114,17.7984829 44.492654,7.64030725" id="Fill-10"></path>
                            </g>
                            <path d="M74.1305395,26.0334165 C74.1305395,37.6500747 64.7133971,47.0672171 53.0970493,47.0672171 C41.4803911,47.0672171 32.0635591,37.6500747 32.0635591,26.0334165 C32.0635591,14.4167584 41.4803911,4.99992634 53.0970493,4.99992634 C64.7133971,4.99992634 74.1305395,14.4167584 74.1305395,26.0334165" id="Fill-15" fill-opacity="0.2" fill="#00B4E2"></path>
                        </g>
                    </g>
                </g>
            </g>
        </g>
    </g>
</svg>