<svg width="86" height="46" viewBox="0 0 86 46" fill="none" xmlns="http://www.w3.org/2000/svg"><ellipse cx="43" cy="42" rx="43" ry="4" fill="#C2C2C2" fill-opacity=".285"/><path class="gst-svg-icon" d="M68.781 4.688A4.701 4.701 0 0064.094 0H50.032a4.701 4.701 0 00-4.687 4.688v22.5H68.78v-22.5z" fill="#00B4E2"/><path d="M17.219 33.75h1.875v6.563h-1.875V33.75z" fill="#BABFC5"/><path class="gst-svg-icon" d="M40.655 4.688A4.701 4.701 0 0035.968 0H21.906a4.701 4.701 0 00-4.687 4.688v22.5h23.436v-22.5z" fill="#00B4E2"/><path d="M20.97 40.781a.47.47 0 00-.47-.468h-4.688a.47.47 0 00-.47.468v.938a.47.47 0 00.47.468H20.5a.47.47 0 00.469-.468v-.938zM45.813 40.781a.47.47 0 00-.468-.468h-4.69a.47.47 0 00-.468.468v.938a.47.47 0 00.468.468h4.69a.47.47 0 00.468-.468v-.938zM70.657 40.781a.47.47 0 00-.469-.468H65.5a.47.47 0 00-.469.468v.938a.47.47 0 00.47.468h4.688a.47.47 0 00.47-.468v-.938z" fill="#BABFC5"/><path d="M66.906 33.75h1.875v6.563h-1.875V33.75zM42.063 21.55h1.874v18.762h-1.874V21.55z" fill="#BABFC5"/><path d="M23.313 22.031a.469.469 0 01-.47-.468v-15a.469.469 0 01.938 0v15c0 .258-.21.468-.468.468zM28.938 22.031a.469.469 0 01-.47-.468v-15a.469.469 0 01.938 0v15c0 .258-.21.468-.468.468zM34.563 22.031a.469.469 0 01-.47-.468v-15a.469.469 0 01.938 0v15c0 .258-.21.468-.468.468zM51.438 22.031a.469.469 0 01-.47-.468v-15a.469.469 0 01.938 0v15c0 .258-.21.468-.468.468zM57.063 22.031a.469.469 0 01-.47-.468v-15a.469.469 0 01.938 0v15c0 .258-.21.468-.468.468zM62.688 22.031a.469.469 0 01-.47-.468v-15a.469.469 0 01.938 0v15c0 .258-.21.468-.468.468z" fill="#fff"/><path d="M15.344 21.563h1.875v7.5h-1.875v-7.5z" fill="#BABFC5"/><path d="M19.094 21.094a.47.47 0 01-.469.468h-4.688a.47.47 0 01-.468-.468v-1.875a.47.47 0 01.469-.469h4.687a.47.47 0 01.469.469v1.875z" fill="#CCD1D9"/><path d="M68.781 21.563h1.875v7.5h-1.875v-7.5z" fill="#BABFC5"/><path d="M72.531 21.094a.47.47 0 01-.469.468h-4.687a.47.47 0 01-.469-.468v-1.875a.47.47 0 01.469-.469h4.688a.47.47 0 01.468.469v1.875z" fill="#CCD1D9"/><path class="gst-svg-icon" d="M42.062 33.75v-4.688a1.88 1.88 0 00-1.875-1.875H17.219a1.88 1.88 0 00-1.875 1.875v4.688h26.718zM70.656 33.75v-4.688a1.88 1.88 0 00-1.875-1.875H45.813a1.88 1.88 0 00-1.875 1.875v4.688h26.718z" fill="#00B4E2"/><path d="M46.281 21.094a.47.47 0 01-.468.468h-5.626a.47.47 0 01-.468-.468v-1.875a.47.47 0 01.468-.469h5.626a.47.47 0 01.468.469v1.875z" fill="#CCD1D9"/></svg>