<?xml version="1.0" encoding="UTF-8"?>
<svg width="24px" height="24px" viewBox="0 0 24 24" version="1.1" xmlns="http://www.w3.org/2000/svg" xmlns:xlink="http://www.w3.org/1999/xlink">
    <!-- Generator: Sketch 63.1 (92452) - https://sketch.com -->
    <title>icons / other</title>
    <desc>Created with Sketch.</desc>
    <g id="icons-/-other" stroke="none" stroke-width="1" fill="none" fill-rule="evenodd">
        <g>
            <polygon id="Path" points="0 0 24 0 24 24 0 24"></polygon>
            <path class="gst-svg-icon" d="M21.9789695,10.4199134 L21.9789695,20.2034632 C21.9789695,21.1991342 21.2008412,22 20.2334385,22 L20.2334385,22 L3.76656151,22 C2.79915878,22 2.02103049,21.1991342 2.02103049,20.2034632 L2.02103049,20.2034632 L2,20.2034632 L2,10.4199134 L21.9789695,10.4199134 Z M12.3470032,13.6883117 C12.1997897,13.4069264 11.8002103,13.4069264 11.6529968,13.6883117 L11.6529968,13.6883117 L11.0851735,14.8787879 C11.0431125,14.987013 10.980021,15.030303 10.8748686,15.0519481 L10.8748686,15.0519481 L9.57097792,15.2467532 C9.2555205,15.3116883 9.12933754,15.7012987 9.36067298,15.961039 L9.36067298,15.961039 L10.2860147,16.8917749 C10.3491062,16.95671 10.3911672,17.0649351 10.3701367,17.1515152 L10.3701367,17.1515152 L10.1388013,18.4935065 C10.0757098,18.8181818 10.4121977,19.0562771 10.6855941,18.9047619 L10.6855941,18.9047619 L11.8212408,18.2770563 C11.9053628,18.2337662 12.0105152,18.2337662 12.0946372,18.2770563 L12.0946372,18.2770563 L13.2723449,18.9047619 C13.5457413,19.0562771 13.8822292,18.8181818 13.8191377,18.4935065 L13.8191377,18.4935065 L13.6088328,17.1731602 C13.5878023,17.0865801 13.6298633,16.978355 13.6929548,16.9134199 L13.6929548,16.9134199 L14.639327,15.961039 C14.8706625,15.7229437 14.7444795,15.3333333 14.4290221,15.2900433 L14.4290221,15.2900433 L13.1461619,15.0952381 C13.06204,15.0735931 12.977918,15.008658 12.935857,14.9220779 L12.935857,14.9220779 Z M5.40694006,4.01298701 L5.40694006,4.79220779 C5.40694006,6.17748918 6.50052576,7.3030303 7.84647739,7.3030303 C9.17139853,7.3030303 10.2649842,6.17748918 10.2649842,4.79220779 L10.2649842,4.79220779 L10.2649842,4.01298701 L13.7560463,4.01298701 L13.7560463,4.79220779 C13.7560463,6.17748918 14.8286015,7.3030303 16.1745531,7.3030303 C17.5205047,7.3030303 18.6140904,6.17748918 18.6140904,4.79220779 L18.6140904,4.79220779 L18.6140904,4.01298701 L20.254469,4.01298701 C21.2218717,4.01298701 22,4.83549784 22,5.80952381 L22,5.80952381 L22,9.16450216 L2.02103049,9.16450216 L2.02103049,5.80952381 C2.02103049,4.81385281 2.79915878,4.01298701 3.76656151,4.01298701 L3.76656151,4.01298701 L5.40694006,4.01298701 Z M7.84647739,2 C8.49842271,2 9.04521556,2.54112554 9.04521556,3.23376623 L9.04521556,3.23376623 L9.04521556,4.79220779 C9.04521556,5.46320346 8.51945321,6.02597403 7.84647739,6.02597403 C7.17350158,6.02597403 6.62670873,5.48484848 6.64773922,4.79220779 L6.64773922,4.79220779 L6.64773922,3.23376623 C6.64773922,2.56277056 7.17350158,2 7.84647739,2 Z M16.1745531,2 C16.8264984,2 17.3732913,2.54112554 17.3732913,3.23376623 L17.3732913,3.23376623 L17.3732913,4.79220779 C17.3732913,5.46320346 16.8475289,6.02597403 16.1745531,6.02597403 C15.5015773,6.02597403 14.9758149,5.48484848 14.9758149,4.79220779 L14.9758149,4.79220779 L14.9758149,3.23376623 C14.9758149,2.56277056 15.5015773,2 16.1745531,2 Z" id="Combined-Shape" fill="#23262D" fill-rule="nonzero"></path>
        </g>
    </g>
</svg>
