<svg width="109" height="127" viewBox="0 0 109 127" fill="none" xmlns="http://www.w3.org/2000/svg">
<path fill-rule="evenodd" clip-rule="evenodd" d="M65 1.48963V92.5133C64.9995 93.03 64.7336 93.5094 64.2976 93.7794C64.0668 93.9241 63.8004 94.0005 63.5288 94H59.4947C58.7929 93.9942 58.1928 93.4882 58.0615 92.7914C57.4893 89.8324 54.923 87.6974 51.9393 87.6983C51.5216 87.6961 51.1049 87.7379 50.6958 87.823C48.2228 88.3293 46.2942 90.2895 45.8075 92.7914C45.7146 93.3154 45.3532 93.7501 44.8584 93.9328C44.7132 93.9746 44.5632 93.9972 44.4122 94H40.0745C39.3655 94.0034 38.7549 93.4953 38.6222 92.7914C38.0534 89.8303 35.4851 87.6936 32.5 87.6983C32.0855 87.6956 31.6719 87.7374 31.2661 87.823C29.7353 88.1424 28.3797 89.0328 27.4694 90.3168C26.9462 91.0567 26.5839 91.9 26.4063 92.7914C26.3133 93.3154 25.9519 93.7501 25.4571 93.9328C25.3119 93.9746 25.1619 93.9972 25.011 94H20.6447C19.9371 93.9996 19.3286 93.4932 19.1925 92.7914C18.9105 91.3201 18.1157 89.9996 16.9524 89.0699C16.4227 88.6502 15.8255 88.3258 15.1869 88.1108C14.6324 87.8852 14.0463 87.7493 13.4499 87.7079H13.0703C10.0852 87.7032 7.51684 89.8399 6.94804 92.801C6.808 93.499 6.20055 94.0005 5.49579 94H1.47126C1.08029 94.0025 0.704597 93.8467 0.428134 93.5674C0.15167 93.288 -0.00251605 92.9084 3.1064e-05 92.5133V1.48963C-0.00251605 1.09455 0.15167 0.714906 0.428134 0.435538C0.704597 0.15617 1.08029 0.000363956 1.47126 0.00293783H5.49579C6.20347 0.00334222 6.81195 0.509705 6.94804 1.21147C7.51684 4.17262 10.0852 6.30926 13.0703 6.30458H13.4499C14.0538 6.27853 14.6498 6.1555 15.2154 5.9401C15.854 5.7251 16.4512 5.40065 16.9809 4.98094C18.1442 4.05122 18.9389 2.73081 19.221 1.25943C19.3348 0.549145 19.9329 0.021351 20.6447 0.00293783H24.9255C25.0765 0.005739 25.2265 0.0283074 25.3717 0.0700786C25.8665 0.252829 26.2279 0.687472 26.3208 1.21147C26.4985 2.10288 26.8608 2.94623 27.3839 3.68609C28.2943 4.97009 29.6498 5.86047 31.1807 6.17989C31.5864 6.26553 32.0001 6.30733 32.4146 6.30458C35.3996 6.30926 37.968 4.17262 38.5368 1.21147C38.6743 0.474314 39.3336 -0.0439076 40.0745 0.00293783H44.3553C44.5062 0.005739 44.6562 0.0283074 44.8014 0.0700786C45.2962 0.252829 45.6577 0.687472 45.7506 1.21147C45.9383 2.10813 46.3173 2.95264 46.8611 3.68609C47.7721 4.9694 49.1274 5.85959 50.6579 6.17989C51.0669 6.26501 51.4837 6.3068 51.9013 6.30458C54.8993 6.32391 57.4866 4.18478 58.0615 1.21147C58.1928 0.514718 58.7929 0.00872144 59.4947 0.00293783H63.5288C63.8004 0.00236176 64.0668 0.0787915 64.2976 0.223543C64.7336 0.493557 64.9995 0.972932 65 1.48963Z" fill="#F1F2F4"/>
<path d="M42.8374 37.2631C39.2748 34.9681 34.8755 36.0391 32.5004 38.6656C30.1253 36.0391 25.726 34.9553 22.1633 37.2631C20.2741 38.4871 19.0865 40.5526 19.0056 42.7329C18.8166 47.6799 23.4588 51.6452 30.5436 57.727L30.6786 57.8418C31.7042 58.7215 33.2831 58.7215 34.3087 57.829L34.4571 57.7015C41.5419 51.6325 46.1706 47.6672 45.9952 42.7201C45.9142 40.5526 44.7267 38.4871 42.8374 37.2631Z" fill="#C2C2C2"/>
<path class="gst-svg-icon" fill-rule="evenodd" clip-rule="evenodd" d="M88.4137 110.478L93.3481 105.72L73.9351 87L69.0003 91.7582L88.4137 110.478Z" fill="#00B4E2"/>
<path class="gst-svg-icon" fill-rule="evenodd" clip-rule="evenodd" d="M70.3338 91.717C71.7172 90.3337 72.862 88.8029 73.7796 87.1787L74.345 86.6133L77.8413 90.1096C76.7552 91.9389 75.4271 93.664 73.8541 95.2373C73.7532 95.3381 73.6477 95.4318 73.5456 95.5305L70.0254 92.0103C70.1278 91.9119 70.233 91.8179 70.3338 91.717Z" fill="#009CC5"/>
<mask id="icon-search-favorite-data" mask-type="alpha" maskUnits="userSpaceOnUse" x="76" y="94" width="33" height="33">
<path fill-rule="evenodd" clip-rule="evenodd" d="M109 94.1045H76.9759V126.128H109V94.1045Z" fill="white"/>
</mask>
<g mask="url(#icon-search-favorite-data)">
<path class="gst-svg-icon" fill-rule="evenodd" clip-rule="evenodd" d="M104.792 125.155L108.027 121.92C109.324 120.623 109.324 118.519 108.027 117.221L85.8827 95.0773C84.5856 93.7802 82.4817 93.7802 81.1843 95.0773L77.9492 98.3124C76.6515 99.6101 76.6515 101.714 77.9492 103.011L100.093 125.155C101.391 126.453 103.494 126.453 104.792 125.155Z" fill="#00B4E2"/>
</g>
<path class="gst-svg-icon" fill-rule="evenodd" clip-rule="evenodd" d="M77.9493 98.3121L80.4293 95.832C79.1319 97.1295 79.1319 99.2334 80.4293 100.531L102.573 122.675C103.871 123.972 105.975 123.972 107.272 122.675L104.792 125.155C103.494 126.453 101.391 126.453 100.093 125.155L77.9493 103.011C76.6515 101.713 76.6515 99.6098 77.9493 98.3121Z" fill="#009CC5"/>
<path class="gst-svg-icon" fill-rule="evenodd" clip-rule="evenodd" d="M70.7762 87.9064C78.9906 79.6924 78.9906 66.3746 70.7762 58.1605C62.5622 49.9465 49.2444 49.9465 41.0303 58.1605C32.816 66.3746 32.816 79.6924 41.0303 87.9064C49.2444 96.1208 62.5622 96.1208 70.7762 87.9064ZM37.5101 54.6384C47.6682 44.4799 64.1379 44.4799 74.2964 54.6384C84.4546 64.7966 84.4546 81.2663 74.2964 91.4247C64.1379 101.583 47.6682 101.583 37.5101 91.4247C27.3516 81.2663 27.3516 64.7966 37.5101 54.6384Z" fill="#00B4E2"/>
<path class="gst-svg-icon" fill-rule="evenodd" clip-rule="evenodd" d="M34.8695 73.0296C34.8695 84.6462 44.2867 94.0634 55.903 94.0634C67.5197 94.0634 76.9365 84.6462 76.9365 73.0296C76.9365 61.4129 67.5197 51.9961 55.903 51.9961C44.2867 51.9961 34.8695 61.4129 34.8695 73.0296Z" fill="#00B4E2" fill-opacity="0.2"/>
</svg>
