<svg width="62" height="67" viewBox="0 0 62 67" fill="none" xmlns="http://www.w3.org/2000/svg">
<path fill-rule="evenodd" clip-rule="evenodd" d="M37 0.855742V53.1459C36.9997 53.4428 36.8483 53.7181 36.6002 53.8733C36.4688 53.9564 36.3172 54.0003 36.1625 54H33.8662C33.4667 53.9967 33.1251 53.706 33.0504 53.3057C32.7247 51.6058 31.2638 50.3794 29.5654 50.3799C29.3277 50.3786 29.0905 50.4026 28.8576 50.4515C27.4499 50.7424 26.3521 51.8685 26.0751 53.3057C26.0222 53.6067 25.8164 53.8564 25.5348 53.9614C25.4521 53.9854 25.3667 53.9984 25.2808 54H22.8116C22.408 54.0019 22.0605 53.71 21.985 53.3057C21.6612 51.6046 20.1992 50.3772 18.5 50.3799C18.264 50.3783 18.0286 50.4023 17.7976 50.4515C16.9262 50.635 16.1546 51.1465 15.6364 51.8841C15.3386 52.3092 15.1324 52.7936 15.0313 53.3057C14.9784 53.6067 14.7726 53.8564 14.491 53.9614C14.4083 53.9854 14.3229 53.9984 14.237 54H11.7516C11.3488 53.9997 11.0024 53.7089 10.925 53.3057C10.7644 52.4605 10.312 51.7019 9.64984 51.1678C9.34833 50.9267 9.00838 50.7403 8.64487 50.6168C8.32924 50.4872 7.99557 50.4091 7.65612 50.3854H7.44C5.74082 50.3827 4.27881 51.6101 3.95504 53.3112C3.87532 53.7122 3.52954 54.0003 3.12838 54H0.837488C0.614936 54.0015 0.401078 53.912 0.243707 53.7515C0.0863353 53.591 -0.00143222 53.3729 1.76826e-05 53.1459V0.855742C-0.00143222 0.628783 0.0863353 0.410691 0.243707 0.250203C0.401078 0.0897147 0.614936 0.000209081 0.837488 0.00168769H3.12838C3.53121 0.00192 3.87757 0.292809 3.95504 0.695951C4.27881 2.39703 5.74082 3.62447 7.44 3.62178H7.65612C7.99988 3.60681 8.33911 3.53614 8.66108 3.4124C9.02459 3.28889 9.36454 3.1025 9.66605 2.86139C10.3282 2.3273 10.7806 1.56876 10.9412 0.723502C11.006 0.315466 11.3464 0.0122655 11.7516 0.00168769H14.1884C14.2743 0.00329687 14.3597 0.0162617 14.4423 0.0402579C14.724 0.145242 14.9297 0.394931 14.9826 0.695951C15.0838 1.20804 15.29 1.69251 15.5878 2.11754C16.106 2.85516 16.8776 3.36666 17.749 3.55015C17.98 3.59935 18.2154 3.62336 18.4514 3.62178C20.1506 3.62447 21.6126 2.39703 21.9363 0.695951C22.0146 0.272478 22.3899 -0.0252235 22.8116 0.00168769H25.2484C25.3343 0.00329687 25.4197 0.0162617 25.5023 0.0402579C25.784 0.145242 25.9897 0.394931 26.0426 0.695951C26.1495 1.21106 26.3652 1.6962 26.6748 2.11754C27.1934 2.85476 27.9648 3.36615 28.836 3.55015C29.0689 3.59905 29.3061 3.62305 29.5438 3.62178C31.2504 3.63288 32.7231 2.40402 33.0504 0.695951C33.1251 0.295689 33.4667 0.00501019 33.8662 0.00168769H36.1625C36.3172 0.00135675 36.4688 0.0452632 36.6002 0.128418C36.8483 0.283533 36.9997 0.558919 37 0.855742Z" fill="#F0F2F3"/>
<path class="gst-svg-icon" fill-rule="evenodd" clip-rule="evenodd" d="M49.815 58.2667L52.5682 55.6117L41.7363 45.1665L38.9829 47.8214L49.815 58.2667Z" fill="#00B4E2"/>
<mask id="mask0" mask-type="alpha" maskUnits="userSpaceOnUse" x="43" y="49" width="19" height="19">
<path fill-rule="evenodd" clip-rule="evenodd" d="M61.3017 49.1318H43.4332V67.0002H61.3017V49.1318Z" fill="white"/>
</mask>
<g mask="url(#mask0)">
<path class="gst-svg-icon" fill-rule="evenodd" clip-rule="evenodd" d="M58.9538 66.4572L60.7589 64.6522C61.4826 63.9283 61.4826 62.7543 60.7589 62.0304L48.403 49.6747C47.6792 48.9509 46.5053 48.9509 45.7813 49.6747L43.9763 51.4797C43.2522 52.2038 43.2522 53.3776 43.9763 54.1017L56.3319 66.4572C57.056 67.1813 58.2297 67.1813 58.9538 66.4572Z" fill="#00B4E2"/>
</g>
<path class="gst-svg-icon" fill-rule="evenodd" clip-rule="evenodd" d="M40.0352 45.6599C44.6185 41.0767 44.6185 33.6458 40.0352 29.0626C35.452 24.4794 28.021 24.4794 23.4378 29.0626C18.8545 33.6458 18.8545 41.0767 23.4378 45.6599C28.021 50.2433 35.452 50.2433 40.0352 45.6599ZM21.4732 27.0988C27.1412 21.4306 36.3308 21.4306 41.9989 27.0988C47.6669 32.7667 47.6669 41.9563 41.9989 47.6244C36.3308 53.2924 27.1412 53.2924 21.4732 47.6244C15.8051 41.9563 15.8051 32.7667 21.4732 27.0988Z" fill="#00B4E2"/>
<path class="gst-svg-icon" fill-rule="evenodd" clip-rule="evenodd" d="M19.9389 37.3742C19.9389 43.856 25.1934 49.1105 31.675 49.1105C38.1568 49.1105 43.4111 43.856 43.4111 37.3742C43.4111 30.8925 38.1568 25.6382 31.675 25.6382C25.1934 25.6382 19.9389 30.8925 19.9389 37.3742Z" fill="#00B4E2" fill-opacity="0.2"/>
</svg>
