<?xml version="1.0" encoding="UTF-8"?>
<svg width="24px" height="24px" viewBox="0 0 24 24" version="1.1" xmlns="http://www.w3.org/2000/svg" xmlns:xlink="http://www.w3.org/1999/xlink">
    <!-- Generator: Sketch 63.1 (92452) - https://sketch.com -->
    <title>icons / secure</title>
    <desc>Created with Sketch.</desc>
    <g id="icons-/-secure" stroke="none" stroke-width="1" fill="none" fill-rule="evenodd">
        <g transform="translate(12.000000, 12.000000) scale(-1, 1) rotate(-360.000000) translate(-12.000000, -12.000000) ">
            <polygon id="Path" points="0 0 24 0 24 24 0 24"></polygon>
            <g id="Group-2" transform="translate(2.000000, 0.000000)">
                <g id="shield" class="gst-svg-icon" fill-rule="nonzero">
                    <path class="gst-svg-icon" d="M19.9765183,6.51181315 L19.9758016,6.49313641 C19.965588,6.26260705 19.9587789,6.01871108 19.9546577,5.74734927 C19.9354848,4.42404855 18.9060625,3.32944617 17.6109077,3.25547171 C14.9105779,3.10148026 12.8216301,2.20170173 11.0367605,0.423934137 L11.0215298,0.409102587 C10.4393552,-0.136367529 9.56116569,-0.136367529 8.97881188,0.409102587 L8.9635811,0.423934137 C7.17871156,2.20170173 5.08976371,3.10148026 2.38943403,3.2556548 C1.09445839,3.32944617 0.0648568788,4.42404855 0.0456840348,5.74753236 C0.0417419247,6.01706309 0.0347536678,6.26095911 0.0245400898,6.49313641 L0.0234649981,6.53653231 C-0.0290364239,9.35030869 -0.0942600937,12.8521941 1.05217055,16.0307159 C1.68254614,17.7786374 2.63724798,19.2980436 3.88957738,20.5470037 C5.31589619,21.9693642 7.18408711,23.0985735 9.44218633,23.9031374 C9.51565248,23.9293214 9.59198564,23.9505616 9.66975225,23.9664918 C9.77941394,23.9888306 9.88979238,24 10.0001708,24 C10.1105493,24 10.2211069,23.9888306 10.3305894,23.9664918 C10.4083561,23.9505616 10.4852267,23.9291383 10.5590513,23.9027712 C12.8144627,23.0967425 14.6806826,21.9669838 16.1057471,20.5448064 C17.3575389,19.2954802 18.3122408,17.7757077 18.9431539,16.02742 C20.093885,12.8393768 20.0288405,9.33089957 19.9765183,6.51181315 Z" id="Shape"></path>
                </g>
                <path d="M13.7220234,10.5396072 L9.30721779,14.7356787 C9.12190007,14.9118147 8.87884025,15 8.63602717,15 C8.39321409,15 8.15040101,14.9120493 7.96508329,14.7356787 L6.27797658,13.1321606 C5.90734114,12.7801231 5.90734114,12.2090296 6.27797658,11.8567576 C6.64836521,11.5044855 7.24922889,11.5044855 7.61986427,11.8567576 L8.63602717,12.822574 L12.3801357,9.26420402 C12.7505244,8.91193199 13.351388,8.91193199 13.7220234,9.26420402 C14.0926589,9.61624154 14.0926589,10.1873351 13.7220234,10.5396072 Z" id="Path" fill="#FFFFFF" transform="translate(10.000000, 12.000000) scale(-1, 1) translate(-10.000000, -12.000000) "></path>
            </g>
        </g>
    </g>
</svg>
