<svg width="24" height="24" viewBox="0 0 24 24" fill="none" xmlns="http://www.w3.org/2000/svg"><path d="M12 3c-4.95 0-9 4.05-9 9s4.05 9 9 9 9-4.05 9-9-4.005-9-9-9zm4.14 13.005c-.18.27-.495.36-.766.18-2.116-1.305-4.77-1.576-7.921-.856-.314.092-.584-.133-.674-.404-.09-.316.134-.584.405-.675 3.42-.766 6.39-.45 8.73.99.315.135.36.495.226.765zm1.08-2.475c-.225.315-.63.45-.946.224-2.43-1.482-6.119-1.935-8.954-1.034-.358.091-.765-.09-.854-.448-.091-.363.09-.768.45-.858 3.284-.99 7.335-.494 10.124 1.217.27.134.405.584.18.9zm.09-2.521c-2.88-1.71-7.695-1.89-10.44-1.033a.845.845 0 01-1.035-.54.844.844 0 01.54-1.037c3.195-.945 8.46-.766 11.79 1.217.405.224.54.765.315 1.17-.225.315-.765.448-1.17.223z" fill="#fff"/></svg>