<svg width="16" height="15" fill="none" xmlns="http://www.w3.org/2000/svg"><path class="gst-svg-icon" d="m8 2.592 1.12 3.377.16.55h4.24l-2.96 2.12-.48.314.16.55 1.12 3.377-2.88-2.042-.48-.393-.48.393-2.96 2.12 1.12-3.377.16-.55-.48-.314-2.88-2.199h4.24l.16-.55L8 2.593ZM8 0 6.08 5.733H0l4.96 3.534L3.04 15 8 11.466 12.96 15l-1.92-5.733L16 5.733H9.92L8 0Z" fill="#F2BD2A"/><path class="gst-svg-icon" d="m8 2.592 1.12 3.377.16.55h4.24l-2.96 2.12-.48.314.16.55 1.12 3.377-2.88-2.042-.48-.393-.48.393-2.96 2.12 1.12-3.377.16-.55-.48-.314-2.88-2.199h4.24l.16-.55L8 2.593Z" fill="#F2BD2A"/></svg>