<?xml version="1.0" encoding="UTF-8"?>
<svg width="24px" height="24px" viewBox="0 0 24 24" version="1.1" xmlns="http://www.w3.org/2000/svg" xmlns:xlink="http://www.w3.org/1999/xlink">
    <!-- Generator: Sketch 62 (91390) - https://sketch.com -->
    <title>icons / ticket</title>
    <desc>Created with Sketch.</desc>
    <g id="icons-/-ticket" stroke="none" stroke-width="1" fill="none" fill-rule="evenodd">
        <g>
            <polygon id="Path" transform="translate(12.000000, 12.000000) scale(-1, 1) rotate(-360.000000) translate(-12.000000, -12.000000) " points="0 0 24 0 24 24 0 24"></polygon>
            <path class="gst-svg-icon" d="M14.1816082,4 L15.877003,5.69539483 C15.2071604,6.36523748 15.2071604,7.45084452 15.877003,8.12068717 C16.5468457,8.79052981 17.6324527,8.79052981 18.3022954,8.12068717 L20,9.8183918 L17.6209037,12.1951783 L11.8048217,6.37678649 L14.1816082,4 Z M17.0434532,12.7749386 L9.8183918,20 L8.12068717,18.3022954 C8.79052981,17.6324527 8.79052981,16.5468457 8.12068717,15.877003 C7.45084452,15.2071604 6.36523748,15.2071604 5.69539483,15.877003 L4,14.1816082 L11.2250614,6.95654685 L17.0434532,12.7749386 Z" id="Shape" fill="#23262D" transform="translate(12.000000, 12.000000) scale(-1, 1) rotate(-495.000000) translate(-12.000000, -12.000000) "></path>
        </g>
    </g>
</svg>