<svg width="22" height="22" viewBox="0 0 22 22" fill="none" xmlns="http://www.w3.org/2000/svg">
    <path class="gst-svg-icon" fill-rule="evenodd" clip-rule="evenodd" d="M0.999693 11.0007C0.999693 11.0006 0.999693 11.0006 0.999693 11.0006C0.998131 10.8902 1.01853 10.7805 1.05971 10.6781C1.10089 10.5756 1.16202 10.4823 1.23956 10.4037C1.3171 10.325 1.40949 10.2626 1.51137 10.22C1.55043 10.2036 1.59059 10.1903 1.63149 10.1801C1.59073 10.1903 1.5507 10.2036 1.51176 10.2199C1.40988 10.2625 1.31749 10.3249 1.23995 10.4036C1.16241 10.4822 1.10128 10.5755 1.0601 10.678C1.01892 10.7804 0.998522 10.8901 1.00008 11.0005C1.00008 11.0005 1.00008 11.0006 1.00008 11.0007L0.999693 11.0007ZM0.999693 11.0016C0.999693 11.0013 0.999693 11.001 0.999693 11.0007L0.849693 11.0006L0.849694 11.0016L0.999693 11.0016ZM13.0576 20.7876C12.3932 20.9272 11.7048 21.0006 10.9997 21.0006C5.48714 21.0006 1.00027 16.514 0.999693 11.0016L1.00008 11.0016C1.00071 16.514 5.48756 21.0005 11 21.0005C11.7051 21.0005 12.3933 20.9271 13.0576 20.7876ZM8.59105 1.29639C7.07276 1.67637 5.69109 2.40599 4.5336 3.38981L4.53346 3.3897C5.691 2.4059 7.07271 1.67632 8.59105 1.29639ZM2.7904 2.07012C2.69767 2.09347 2.61888 2.16889 2.60338 2.27738L1.88793 7.28551C1.86283 7.46125 2.02335 7.60517 2.19371 7.56399C2.0232 7.60549 1.86242 7.46148 1.88754 7.28561L2.60299 2.27748C2.61851 2.16883 2.6975 2.09336 2.7904 2.07012ZM9.09998 2.88456C9.70982 2.74238 10.3458 2.66716 11 2.66716C15.6121 2.66716 19.3333 6.38838 19.3333 11.0005C19.3333 14.8921 16.684 18.1494 13.0855 19.0722C16.6838 18.1493 19.3329 14.8921 19.333 11.0006C19.333 6.38848 15.6117 2.66725 10.9997 2.66725C10.3455 2.66725 9.7097 2.74244 9.09998 2.88456ZM2.66674 11.0016C2.66674 11.0016 2.66674 11.0015 2.66674 11.0015L2.81635 11.0016C2.81804 10.8717 2.79397 10.7427 2.74552 10.6221C2.69693 10.5012 2.62479 10.3912 2.5333 10.2984C2.44181 10.2056 2.33279 10.1319 2.21257 10.0816C2.09235 10.0313 1.96334 10.0054 1.83302 10.0054C1.70271 10.0054 1.57369 10.0313 1.45348 10.0816C1.33326 10.1319 1.22424 10.2056 1.13275 10.2984C1.04125 10.3912 0.969117 10.5012 0.920527 10.6221C0.87207 10.7427 0.847996 10.8717 0.849694 11.0016C0.850269 16.5969 5.4043 21.1506 10.9997 21.1506C16.5954 21.1506 21.1496 16.5963 21.1496 11.0006C21.1496 5.40486 16.5954 0.850588 10.9997 0.850587C8.54236 0.850587 6.29044 1.73703 4.53286 3.19435L3.10658 2.00557C2.86602 1.80507 2.49878 1.94625 2.4545 2.25626L1.73905 7.26439C1.69807 7.55128 1.96627 7.78519 2.24492 7.70557L7.25317 6.27464C7.56203 6.18639 7.64614 5.78847 7.39941 5.58278L6.0665 4.47163C7.4369 3.43379 9.14319 2.81725 10.9997 2.81725C15.5289 2.81725 19.183 6.47132 19.183 11.0006C19.183 15.5299 15.5289 19.1839 10.9997 19.1839C6.47074 19.1839 2.8169 15.5304 2.81635 11.0016L2.66674 11.0016Z" fill="#00B4E2"/>
</svg>
