<svg width="24" height="24" viewBox="0 0 24 24" fill="none" xmlns="http://www.w3.org/2000/svg">
<path class="gst-svg-icon" fill-rule="evenodd" clip-rule="evenodd" d="M15.2726 9.0833C15.2726 11.0135 13.8048 12.5833 11.9999 12.5833C10.195 12.5833 8.72714 11.0135 8.72714 9.0833V8.49997C8.72714 6.56974 10.195 5 11.9999 5C13.8048 5 15.2726 6.56974 15.2726 8.49997V9.0833ZM8.00618 14.3223C10.5725 13.5622 13.428 13.5622 15.9938 14.3223C17.1747 14.6723 18 15.829 18 17.1363V18C18 18.5523 17.5523 19 17 19H7C6.44772 19 6 18.5523 6 18V17.1363C6 15.829 6.82527 14.6723 8.00618 14.3223Z" fill="#111111"/>
</svg>
