<svg width="166" height="73" viewBox="0 0 166 73" fill="none" xmlns="http://www.w3.org/2000/svg">
<defs>
    <linearGradient id="warning_3sign_linear1" x1="50" y1="72" x2="50" y2="0" gradientUnits="userSpaceOnUse">
        <stop stop-color="white"/>
        <stop offset="1" stop-color="#F0F2F3"/>
    </linearGradient>
    <linearGradient id="warning_3sign_linear2" x1="166" y1="72" x2="166" y2="0" gradientUnits="userSpaceOnUse">
        <stop stop-color="white"/>
        <stop offset="1" stop-color="#F0F2F3"/>
    </linearGradient>
</defs>
<path class="gst-svg-icon gst-svg-icon__center" fill-rule="evenodd" clip-rule="evenodd" d="M108.24 1.14258V70.8628C108.24 71.2586 108.035 71.6258 107.7 71.8326C107.522 71.9435 107.317 72.002 107.109 72.0016H104.005C103.466 71.9971 103.004 71.6096 102.903 71.0759C102.463 68.8093 100.489 67.1741 98.1935 67.1748C97.8723 67.1731 97.5517 67.2051 97.237 67.2703C95.3347 67.6581 93.8511 69.1595 93.4768 71.0759C93.4053 71.4772 93.1273 71.8102 92.7467 71.9501C92.635 71.9821 92.5196 71.9994 92.4035 72.0016H89.0668C88.5214 72.0042 88.0517 71.615 87.9496 71.0759C87.5121 68.8078 85.5364 67.1712 83.2402 67.1748C82.9214 67.1727 82.6032 67.2047 82.2911 67.2703C81.1135 67.5149 80.0708 68.1969 79.3705 69.1804C78.9681 69.7471 78.6894 70.3931 78.5527 71.0759C78.4813 71.4772 78.2032 71.8102 77.8226 71.9501C77.7109 71.9821 77.5956 71.9994 77.4794 72.0016H74.1208C73.5764 72.0013 73.1084 71.6134 73.0037 71.0759C72.7868 69.9489 72.1754 68.9375 71.2806 68.2254C70.8731 67.9039 70.4137 67.6554 69.9225 67.4907C69.496 67.3179 69.0451 67.2138 68.5863 67.1821H68.2943C65.9981 67.1785 64.0224 68.8151 63.5849 71.0832C63.4772 71.6178 63.0099 72.002 62.4678 72.0016H59.372C59.0712 72.0035 58.7822 71.8842 58.5696 71.6702C58.3569 71.4562 58.2383 71.1654 58.2403 70.8628V1.14258C58.2383 0.839964 58.3569 0.549174 58.5696 0.33519C58.7822 0.121206 59.0712 0.00186569 59.372 0.00383717H62.4678C63.0121 0.00414691 63.4802 0.391999 63.5849 0.929522C64.0224 3.19763 65.9981 4.83421 68.2943 4.83062H68.5863C69.0509 4.81067 69.5093 4.71643 69.9444 4.55145C70.4356 4.38677 70.895 4.13825 71.3025 3.81678C72.1973 3.10465 72.8087 2.09327 73.0256 0.966256C73.1132 0.422209 73.5732 0.0179409 74.1208 0.00383717H77.4137C77.5298 0.00598274 77.6452 0.0232692 77.7569 0.0552641C78.1375 0.195243 78.4155 0.528161 78.487 0.929522C78.6237 1.61231 78.9024 2.25827 79.3048 2.82497C80.0051 3.80847 81.0478 4.49046 82.2254 4.73512C82.5375 4.80072 82.8557 4.83273 83.1745 4.83062C85.4707 4.83421 87.4464 3.19763 87.8839 0.929522C87.9897 0.364891 88.4969 -0.0320444 89.0668 0.00383717H92.3597C92.4758 0.00598274 92.5912 0.0232692 92.7029 0.0552641C93.0835 0.195243 93.3615 0.528161 93.433 0.929522C93.5774 1.61633 93.8689 2.26318 94.2873 2.82497C94.988 3.80794 96.0306 4.48978 97.2078 4.73512C97.5225 4.80031 97.843 4.83232 98.1643 4.83062C100.47 4.84543 102.461 3.20695 102.903 0.929522C103.004 0.395839 103.466 0.00826717 104.005 0.00383717H107.109C107.317 0.00339592 107.522 0.0619379 107.7 0.172811C108.035 0.37963 108.24 0.746812 108.24 1.14258Z" fill="#EE2E24" />
<path class="gst-svg-icon__left" fill-rule="evenodd" clip-rule="evenodd" d="M50 1.14099V70.8612C49.9996 71.257 49.795 71.6242 49.4597 71.831C49.2821 71.9419 49.0772 72.0004 48.8683 72H45.7652C45.2253 71.9955 44.7637 71.608 44.6627 71.0743C44.2225 68.8078 42.2484 67.1725 39.9533 67.1732C39.632 67.1715 39.3115 67.2035 38.9968 67.2687C37.0945 67.6565 35.6109 69.1579 35.2366 71.0743C35.1651 71.4756 34.887 71.8086 34.5064 71.9485C34.3947 71.9805 34.2794 71.9978 34.1633 72H30.8265C30.2811 72.0026 29.8115 71.6134 29.7094 71.0743C29.2719 68.8062 27.2962 67.1696 25 67.1732C24.6811 67.1711 24.363 67.2031 24.0508 67.2687C22.8733 67.5134 21.8305 68.1953 21.1303 69.1788C20.7279 69.7455 20.4492 70.3915 20.3125 71.0743C20.241 71.4756 19.963 71.8086 19.5824 71.9485C19.4707 71.9805 19.3553 71.9978 19.2392 72H15.8806C15.3362 71.9997 14.8681 71.6118 14.7635 71.0743C14.5465 69.9473 13.9351 68.9359 13.0403 68.2238C12.6329 67.9023 12.1735 67.6538 11.6823 67.4891C11.2557 67.3163 10.8048 67.2122 10.3461 67.1805H10.054C7.75786 67.1769 5.78218 68.8135 5.34465 71.0816C5.23692 71.6162 4.76965 72.0004 4.22753 72H1.13174C0.830994 72.0019 0.541998 71.8826 0.329334 71.6686C0.116669 71.4546 -0.00193543 71.1638 2.38954e-05 70.8612V1.14099C-0.00193543 0.838377 0.116669 0.547588 0.329334 0.333604C0.541998 0.11962 0.830994 0.000278775 1.13174 0.00225026H4.22753C4.7719 0.00255999 5.23996 0.390412 5.34465 0.927935C5.78218 3.19605 7.75786 4.83263 10.054 4.82904H10.3461C10.8106 4.80908 11.2691 4.71485 11.7042 4.54986C12.1954 4.38519 12.6548 4.13667 13.0622 3.81519C13.957 3.10306 14.5684 2.09168 14.7854 0.964669C14.873 0.420622 15.333 0.016354 15.8806 0.00225026H19.1735C19.2896 0.00439583 19.405 0.0216823 19.5167 0.0536772C19.8973 0.193656 20.1753 0.526574 20.2468 0.927935C20.3835 1.61072 20.6621 2.25668 21.0646 2.82339C21.7648 3.80688 22.8076 4.48887 23.9851 4.73353C24.2973 4.79913 24.6154 4.83115 24.9343 4.82904C27.2305 4.83263 29.2062 3.19605 29.6437 0.927935C29.7494 0.363304 30.2566 -0.0336313 30.8265 0.00225026H34.1195C34.2356 0.00439583 34.3509 0.0216823 34.4626 0.0536772C34.8432 0.193656 35.1213 0.526574 35.1928 0.927935C35.3371 1.61474 35.6287 2.26159 36.047 2.82339C36.7478 3.80635 37.7903 4.4882 38.9676 4.73353C39.2822 4.79873 39.6028 4.83074 39.9241 4.82904C42.2302 4.84385 44.2204 3.20536 44.6627 0.927935C44.7637 0.394252 45.2253 0.00668025 45.7652 0.00225026H48.8683C49.0772 0.001809 49.2821 0.0603509 49.4597 0.171225C49.795 0.378044 49.9996 0.745225 50 1.14099Z" fill="url(#warning_3sign_linear1)"/>
<path class="gst-svg-icon__right" fill-rule="evenodd" clip-rule="evenodd" d="M166 1.14099V70.8612C166 71.257 165.795 71.6242 165.46 71.831C165.282 71.9419 165.077 72.0004 164.868 72H161.765C161.225 71.9955 160.764 71.608 160.663 71.0743C160.223 68.8078 158.248 67.1725 155.953 67.1732C155.632 67.1715 155.311 67.2035 154.997 67.2687C153.094 67.6565 151.611 69.1579 151.237 71.0743C151.165 71.4756 150.887 71.8086 150.506 71.9485C150.395 71.9805 150.279 71.9978 150.163 72H146.827C146.281 72.0026 145.811 71.6134 145.709 71.0743C145.272 68.8062 143.296 67.1696 141 67.1732C140.681 67.1711 140.363 67.2031 140.051 67.2687C138.873 67.5134 137.831 68.1953 137.13 69.1788C136.728 69.7455 136.449 70.3915 136.313 71.0743C136.241 71.4756 135.963 71.8086 135.582 71.9485C135.471 71.9805 135.355 71.9978 135.239 72H131.881C131.336 71.9997 130.868 71.6118 130.763 71.0743C130.547 69.9473 129.935 68.9359 129.04 68.2238C128.633 67.9023 128.173 67.6538 127.682 67.4891C127.256 67.3163 126.805 67.2122 126.346 67.1805H126.054C123.758 67.1769 121.782 68.8135 121.345 71.0816C121.237 71.6162 120.77 72.0004 120.228 72H117.132C116.831 72.0019 116.542 71.8826 116.329 71.6686C116.117 71.4546 115.998 71.1638 116 70.8612V1.14099C115.998 0.838377 116.117 0.547588 116.329 0.333604C116.542 0.11962 116.831 0.000278775 117.132 0.00225026H120.228C120.772 0.00255999 121.24 0.390412 121.345 0.927935C121.782 3.19605 123.758 4.83263 126.054 4.82904H126.346C126.811 4.80908 127.269 4.71485 127.704 4.54986C128.195 4.38519 128.655 4.13667 129.062 3.81519C129.957 3.10306 130.568 2.09168 130.785 0.964669C130.873 0.420622 131.333 0.016354 131.881 0.00225026H135.173C135.29 0.00439583 135.405 0.0216823 135.517 0.0536772C135.897 0.193656 136.175 0.526574 136.247 0.927935C136.383 1.61072 136.662 2.25668 137.065 2.82339C137.765 3.80688 138.808 4.48887 139.985 4.73353C140.297 4.79913 140.615 4.83115 140.934 4.82904C143.23 4.83263 145.206 3.19605 145.644 0.927935C145.749 0.363304 146.257 -0.0336313 146.827 0.00225026H150.119C150.236 0.00439583 150.351 0.0216823 150.463 0.0536772C150.843 0.193656 151.121 0.526574 151.193 0.927935C151.337 1.61474 151.629 2.26159 152.047 2.82339C152.748 3.80635 153.79 4.4882 154.968 4.73353C155.282 4.79873 155.603 4.83074 155.924 4.82904C158.23 4.84385 160.22 3.20536 160.663 0.927935C160.764 0.394252 161.225 0.00668025 161.765 0.00225026H164.868C165.077 0.001809 165.282 0.0603509 165.46 0.171225C165.795 0.378044 166 0.745225 166 1.14099Z" fill="url(#warning_3sign_linear2)"/>
<path d="M82.6 44.4L80.96 19.64H86.4L84.48 44.4H82.6ZM80.92 52V46.72H86.2V52H80.92Z" fill="white"/>
</svg>
