<svg width="149" height="43" viewBox="0 0 149 43" fill="none" xmlns="http://www.w3.org/2000/svg">
<path d="M107.551 39.6417C107.551 39.543 107.501 39.4937 107.403 39.4937H107.205C107.181 39.4937 107.181 39.4937 107.181 39.5184V39.7404C107.181 39.765 107.181 39.765 107.205 39.765H107.403C107.501 39.765 107.551 39.7157 107.551 39.6417ZM107.033 40.3077C107.008 40.3077 107.008 40.283 107.008 40.283V39.395C107.008 39.3704 107.033 39.3704 107.033 39.3704H107.403C107.625 39.3704 107.748 39.469 107.748 39.6664C107.748 39.8144 107.674 39.8884 107.551 39.9377L107.748 40.3077C107.773 40.3324 107.748 40.3324 107.723 40.3324H107.625C107.6 40.3324 107.6 40.3077 107.575 40.3077L107.378 39.9624H107.205C107.181 39.9624 107.181 39.9624 107.181 39.987V40.3324C107.181 40.357 107.156 40.357 107.156 40.357H107.033V40.3077ZM108.069 39.839C108.069 39.4197 107.748 39.1237 107.353 39.1237C106.934 39.1237 106.638 39.4197 106.638 39.839C106.638 40.2584 106.959 40.5544 107.353 40.5544C107.748 40.5297 108.069 40.2337 108.069 39.839ZM106.465 39.839C106.465 39.3457 106.835 38.9757 107.329 38.9757C107.822 38.9757 108.192 39.3457 108.192 39.839C108.192 40.3324 107.822 40.727 107.329 40.727C106.835 40.7024 106.465 40.3324 106.465 39.839Z" fill="#413691"/>
<path d="M12.654 13.9108V27.1567C12.654 27.7487 12.654 28.5874 11.84 28.5874H9.5953V22.5934H3.05866V27.1567C3.05866 27.7487 3.10799 28.5874 2.29399 28.5874H0V15.3414C0 14.7494 2.94049e-07 13.9108 0.813998 13.9108H3.05866V20.2254H9.61997V15.3414C9.61997 14.7741 9.57064 13.9108 10.3846 13.9108H12.654Z" fill="#413691"/>
<path d="M23.7184 22.1956L21.6218 16.0289L18.6371 24.1689L18.7604 24.1936C19.1551 23.4536 20.1418 22.1709 21.8684 22.1709L23.7184 22.1956ZM28.5777 28.5842H25.8891L24.4831 24.4896H18.6371L17.6258 27.4989C17.4531 27.9675 17.2311 28.5842 16.4665 28.5842H14.2465L19.0318 15.1163C19.2044 14.6476 19.4264 13.9076 20.2404 13.9076H23.8664L28.9231 28.1155C28.9971 28.3869 28.8737 28.5842 28.5777 28.5842Z" fill="#413691"/>
<path d="M49.5107 13.9099L44.6268 27.5012C44.5281 27.7972 44.3308 28.5865 43.5661 28.5865H41.6914L38.9041 20.7672L36.4375 27.5259C36.3388 27.8219 36.1415 28.6112 35.3768 28.6112H33.3295L28.2728 14.4032C28.1741 14.1072 28.3221 13.9346 28.6181 13.9346H31.3068L34.9575 24.8619L37.5968 17.0672L36.6348 14.4032C36.5361 14.1072 36.6841 13.9346 36.9801 13.9346H39.6934L43.0728 24.5659L46.0081 14.9952C46.1561 14.5266 46.4028 13.9346 47.1674 13.9346H49.5107V13.9099Z" fill="#413691"/>
<path d="M58.019 22.1956L55.9223 16.0289L52.9376 24.1689L53.061 24.1936C53.4556 23.4536 54.4423 22.1709 56.169 22.1709L58.019 22.1956ZM62.8783 28.5842H60.1896L58.7836 24.4896H52.9623L51.951 27.4989C51.7783 27.9675 51.5563 28.5842 50.7916 28.5842H48.5717L53.357 15.1163C53.5296 14.6476 53.7516 13.9076 54.5656 13.9076H58.1916L63.2483 28.1155C63.3223 28.3869 63.1743 28.5842 62.8783 28.5842Z" fill="#413691"/>
<path d="M64.9568 15.3325C64.9568 14.7405 64.9569 13.9019 65.6722 13.9019H68.0155V25.1992V27.1478C68.0155 27.7398 68.0155 28.5785 67.3002 28.5785H64.9568V15.3325Z" fill="#413691"/>
<path d="M71.167 15.3325C71.167 14.7405 71.167 13.9019 71.8823 13.9019H74.2256V24.9525V27.1478C74.2256 27.7398 74.2256 28.5785 73.5103 28.5785H71.167V15.3325Z" fill="#413691"/>
<path d="M85.2529 22.1956L83.1563 16.0289L80.1716 24.1689L80.2949 24.1936C80.6896 23.4536 81.6763 22.1709 83.4029 22.1709L85.2529 22.1956ZM90.1122 28.5842H87.4236L86.0176 24.4896H80.1716L79.1603 27.4989C78.9876 27.9675 78.7656 28.5842 78.0009 28.5842H75.7809L80.5663 15.1163C80.7389 14.6476 80.9609 13.9076 81.7749 13.9076H85.4009L90.4576 28.1155C90.5562 28.3869 90.4082 28.5842 90.1122 28.5842Z" fill="#413691"/>
<path d="M105.054 13.9099V27.1559C105.054 27.7479 105.054 28.5865 104.338 28.5865H102.414L95.1623 18.8926V27.1559C95.1623 27.7479 95.1623 28.5865 94.373 28.5865H92.2023V15.3406C92.2023 14.7486 92.2023 13.9099 92.9177 13.9099H94.9157L102.094 23.8012V15.3406C102.094 14.7486 101.97 13.9099 102.784 13.9099H105.054Z" fill="#413691"/>
<path d="M56.337 38.1027L55.1777 34.7727H55.153L53.9691 38.1027H56.337ZM54.6844 33.4654C54.7091 33.416 54.7337 33.3667 54.8077 33.3667H55.523C55.597 33.3667 55.6464 33.416 55.671 33.4654L58.2117 40.594C58.2364 40.6433 58.187 40.6927 58.1377 40.6927H57.373C57.299 40.6927 57.2497 40.668 57.225 40.594L56.6577 38.9907H53.6484L53.0811 40.594C53.0564 40.668 53.0071 40.6927 52.9331 40.6927H52.1684C52.0944 40.6927 52.0697 40.6433 52.0944 40.594L54.6844 33.4654Z" fill="#413691"/>
<path d="M60.5427 33.4551C60.5427 33.4058 60.5921 33.3564 60.6414 33.3564H61.3814C61.4554 33.3564 61.4801 33.4058 61.4801 33.4551V39.1038V40.5838C61.4801 40.6331 61.4307 40.6824 61.3814 40.6824H60.6414C60.5674 40.6824 60.5427 40.6331 60.5427 40.5838V33.4551Z" fill="#413691"/>
<path d="M69.0192 35.4547C69.0192 34.69 68.5012 34.246 67.6379 34.246H65.8866C65.8372 34.246 65.8126 34.2707 65.8126 34.2954V36.614C65.8126 36.6634 65.8372 36.6634 65.8866 36.6634H67.6379C68.5012 36.688 69.0192 36.2194 69.0192 35.4547ZM69.1919 40.684C69.1179 40.684 69.0932 40.6593 69.0439 40.5853L67.5639 37.576H65.9112C65.8619 37.576 65.8372 37.6007 65.8372 37.6254V40.5607C65.8372 40.61 65.7879 40.6594 65.7386 40.6594H64.9986C64.9246 40.6594 64.8999 40.61 64.8999 40.5607V33.432C64.8999 33.3827 64.9492 33.3334 64.9986 33.3334H67.6872C69.0686 33.3334 70.0059 34.172 70.0059 35.43C70.0059 36.4414 69.4386 37.1567 68.5506 37.428L70.1292 40.5114C70.1786 40.5607 70.1539 40.6347 70.0552 40.6347L69.1919 40.684Z" fill="#413691"/>
<path d="M72.9372 33.4551C72.9372 33.4058 72.9865 33.3564 73.0359 33.3564H73.7759C73.8499 33.3564 73.8745 33.4058 73.8745 33.4551V39.7204C73.8745 39.7698 73.8992 39.7698 73.9485 39.7698H77.5005C77.5745 39.7698 77.5992 39.8191 77.5992 39.8684V40.5344C77.5992 40.5838 77.5498 40.6331 77.5005 40.6331H73.0359C72.9619 40.6331 72.9372 40.5838 72.9372 40.5344V33.4551Z" fill="#413691"/>
<path d="M79.7913 33.4551C79.7913 33.4058 79.8406 33.3564 79.8899 33.3564H80.6299C80.7039 33.3564 80.7286 33.4058 80.7286 33.4551V38.6598V40.5591C80.7286 40.6084 80.6793 40.6578 80.6299 40.6578H79.8899C79.8159 40.6578 79.7913 40.6084 79.7913 40.5591V33.4551Z" fill="#413691"/>
<path d="M84.1474 33.4551C84.1474 33.4058 84.1967 33.3564 84.2461 33.3564H84.9367C85.0354 33.3564 85.0847 33.3811 85.1341 33.4551L88.4887 38.9558H88.5381V33.4551C88.5381 33.4058 88.5874 33.3564 88.6367 33.3564H89.3274C89.4014 33.3564 89.426 33.4058 89.426 33.4551V40.5838C89.426 40.6331 89.3767 40.6824 89.3274 40.6824H88.6367C88.5627 40.6824 88.4887 40.6578 88.4394 40.5838L85.0601 35.1078H85.0354V40.5838C85.0354 40.6331 84.9861 40.6824 84.9367 40.6824H84.2461C84.1721 40.6824 84.1474 40.6331 84.1474 40.5838V33.4551Z" fill="#413691"/>
<path d="M92.8038 33.4551C92.8038 33.4058 92.8531 33.3564 92.9024 33.3564H97.3671C97.4411 33.3564 97.4658 33.4058 97.4658 33.4551V34.1211C97.4658 34.1704 97.4164 34.2198 97.3671 34.2198H93.8398C93.7904 34.2198 93.7658 34.2444 93.7658 34.2691V36.4151C93.7658 36.4644 93.7904 36.4644 93.8398 36.4644H96.8491C96.9231 36.4644 96.9478 36.5138 96.9478 36.5631V37.2291C96.9478 37.2784 96.8984 37.3278 96.8491 37.3278H93.8398C93.7904 37.3278 93.7658 37.3524 93.7658 37.3771V39.5971C93.7658 39.6464 93.7904 39.6464 93.8398 39.6464H97.3671C97.4411 39.6464 97.4658 39.6958 97.4658 39.7451V40.4111C97.4658 40.4604 97.4164 40.5098 97.3671 40.5098H92.9024C92.8284 40.5098 92.8038 40.4604 92.8038 40.4111V33.4551Z" fill="#413691"/>
<path d="M99.9682 39.8836C99.9189 39.8343 99.8942 39.7849 99.9435 39.7109L100.437 39.1683C100.486 39.1189 100.536 39.1189 100.585 39.1436C101.078 39.5383 101.818 39.9083 102.657 39.9083C103.693 39.9083 104.285 39.3903 104.285 38.6503C104.285 38.009 103.915 37.6143 102.731 37.4416L102.361 37.3923C100.906 37.195 100.19 36.5043 100.19 35.3696C100.19 34.0623 101.152 33.2236 102.608 33.2236C103.471 33.2236 104.31 33.495 104.877 33.8896C104.951 33.939 104.951 33.9883 104.902 34.0376L104.532 34.6296C104.482 34.679 104.433 34.679 104.384 34.6543C103.767 34.2843 103.224 34.1116 102.583 34.1116C101.67 34.1116 101.177 34.605 101.177 35.2956C101.177 35.9123 101.596 36.3316 102.731 36.455L103.101 36.5043C104.556 36.7016 105.272 37.343 105.272 38.5516C105.272 39.8343 104.359 40.7716 102.558 40.7716C101.522 40.8209 100.511 40.3769 99.9682 39.8836Z" fill="#413691"/>
<path d="M110.463 17.5626C110.463 26.1959 116.753 33.3739 125.041 34.8046C124.967 35.4212 124.893 36.0132 124.795 36.4819C124.227 39.2445 122.303 41.7852 121.243 42.4019C124.03 42.1552 126.25 41.3412 127.582 40.0585C127.483 40.0585 126.62 40.0339 126.546 40.0339C127.064 39.8365 127.607 39.5899 128.1 39.2939C128.297 37.6905 128.223 35.7666 127.804 33.3986C127.237 30.3399 126.077 29.3039 125.88 29.1066C125.855 29.0819 125.855 29.0819 125.855 29.0819C125.855 29.0572 125.88 29.0572 125.905 29.0572C126.891 28.4406 127.755 27.7253 128.149 27.3799C128.445 27.1333 128.347 27.0099 128.026 27.1333C127.187 27.5033 125.831 27.9719 124.079 28.1939C122.55 28.3912 120.725 28.3419 118.751 27.9719C118.751 27.9719 117.37 27.7746 117.567 26.3933C117.617 25.9986 117.814 25.6039 117.987 25.2093C118.036 25.0859 118.159 24.7159 118.11 24.4199C118.085 24.3459 117.987 24.1979 117.937 24.1239C117.839 23.9759 117.789 23.7539 117.913 23.5073C118.011 23.3099 118.357 22.9893 118.875 22.9399C119.121 22.9153 119.393 22.9153 119.689 22.9153C120.059 22.9153 120.429 22.9153 120.725 22.8659C121.514 22.7179 122.007 22.1999 121.909 22.0273C121.835 21.9286 121.119 22.0519 120.897 22.1013C120.552 22.1753 119.886 21.8793 119.541 21.7806C119.023 21.6079 118.727 21.4846 118.283 21.6819C117.987 21.8053 117.765 22.3726 117.691 22.1013C117.666 21.9779 117.715 21.8546 117.814 21.7066C117.913 21.5586 118.11 21.3119 118.11 21.1639C118.135 21.0159 118.184 20.7693 117.715 20.4486C117.37 20.2019 117.148 20.0539 117.025 19.9059C116.581 19.4619 116.507 19.0179 117.37 18.3026C117.987 17.8093 119.319 16.4526 119.713 15.614C119.787 15.4906 120.108 14.9726 119.738 14.43C119.467 14.0353 119.417 13.9613 119.343 13.8133C119.146 13.4433 119.269 13.098 119.615 12.6046C119.763 12.358 119.911 12.062 120.231 11.0506C120.626 9.8913 121.193 8.87998 122.032 8.01665C122.106 7.84398 122.18 6.51198 122.969 5.27865C123.216 4.78532 123.586 4.26732 124.03 3.77399C124.351 3.45332 124.844 3.05866 125.485 2.68866C126.151 2.31866 126.941 1.94866 127.903 1.67733C129.037 1.35666 130.369 1.13466 131.849 1.13466C132.959 1.15933 133.995 1.23333 135.253 1.554C135.253 1.554 135.327 1.57866 135.401 1.60333C133.157 0.567332 130.69 0 128.051 0C118.357 0.0493332 110.463 7.89331 110.463 17.5626ZM117.493 19.7086C117.469 19.7826 117.518 19.8073 117.592 19.8319C117.913 19.9799 118.061 20.0539 118.653 20.3993C119.343 20.7939 119.639 20.4733 119.787 20.2019C119.837 20.1279 119.886 19.8319 119.812 19.7579C119.738 19.6593 119.615 19.7333 119.491 19.8566C119.343 20.0046 118.973 19.9306 118.85 19.9059C118.727 19.8813 118.159 19.7579 117.814 19.6839C117.74 19.6593 117.691 19.6593 117.641 19.6593C117.543 19.6593 117.493 19.6593 117.493 19.7086Z" fill="url(#paint0_linear)"/>
<path d="M125.509 11.6252C125.41 11.6005 123.092 11.0825 122.302 11.1319C121.513 11.1812 120.872 11.6252 120.452 12.0938C120.23 12.3405 120.132 12.5872 120.082 12.8092C120.058 13.1792 120.329 13.3518 120.625 13.2532C120.847 13.1792 121.02 13.0065 121.266 12.6859C121.414 12.4639 121.513 12.1925 121.735 12.0692C122.105 11.8225 122.746 11.7979 123.782 11.7979C124.572 11.8225 125.238 11.8718 125.386 11.8718C125.706 11.8472 125.632 11.6498 125.509 11.6252Z" fill="#413691"/>
<path d="M124.155 13.732C123.736 13.4854 123.144 13.4854 123.021 13.4607C122.897 13.436 122.873 13.3127 123.045 13.2387C123.292 13.14 123.736 13.214 123.736 13.14C123.761 13.066 123.662 12.918 123.317 12.7947C123.144 12.7207 122.799 12.696 122.527 12.696C121.812 12.77 121.417 13.214 121.343 13.288C121.269 13.362 121.146 13.4854 121.097 13.6827C121.047 13.9294 121.22 14.1267 121.368 14.3487C121.442 14.472 121.516 14.5707 121.541 14.6447C121.565 14.768 121.565 14.842 121.442 14.916C121.319 15.0147 121.393 15.1874 121.639 15.1134C121.935 15.0394 122.083 14.9654 122.305 14.768C122.601 14.5214 122.601 14.3487 122.823 14.1514C123.021 13.954 123.711 13.954 124.057 14.0034C124.501 14.102 124.599 14.0034 124.155 13.732Z" fill="#413691"/>
<path d="M145.92 17.0211C145.92 16.2318 145.698 14.6778 145.649 14.3571C145.55 13.4198 145.328 12.1125 144.588 10.2872C143.799 8.31382 143.133 6.93249 141.16 5.0085C138.841 2.76384 136.103 1.82651 135.462 1.65384C135.363 1.62917 135.314 1.60451 135.314 1.60451C134.08 1.28384 133.02 1.20984 131.91 1.18518C127.988 1.11118 125.102 2.73917 124.09 3.8245C123.622 4.31783 123.276 4.83583 123.03 5.32916C122.24 6.56249 122.142 7.91916 122.092 8.06716C122.166 8.01782 123.104 6.98183 124.164 6.68583C124.411 7.10516 124.978 7.67249 126.064 8.21515C127.174 8.78248 128.407 9.10315 128.407 9.10315C128.407 9.10315 129.936 9.54715 131.49 10.0651C132.724 10.5091 134.006 12.0631 134.006 12.4085C134.006 13.0745 133.34 13.7158 132.674 15.7385C131.959 17.9091 131.712 19.9811 131.934 22.3984C131.934 22.3984 131.934 22.3984 131.934 22.4231V22.4478C132.082 23.8784 132.403 25.4571 132.872 27.2578C133.266 28.7131 133.39 30.1684 133.34 31.5497C132.995 35.1264 130.775 37.8151 128.111 39.3197C127.593 39.5911 127.1 39.8624 126.557 40.0597C126.631 40.0597 127.519 40.0844 127.593 40.0844C129.838 40.0597 132.995 39.6404 135.708 36.8531C136.646 35.8911 137.386 34.8797 137.854 33.9177C138.052 33.5231 138.841 32.1171 139.31 29.3051C139.384 28.9351 139.556 27.7264 139.556 27.7264C139.556 27.7264 139.68 28.5898 139.704 29.3544C139.729 30.4151 139.778 31.7224 139.137 33.7204C139.359 33.6711 140.42 32.9064 141.653 31.2291C142.122 30.6124 142.541 29.9958 142.911 29.3298C144.687 26.5424 145.97 23.2618 145.92 17.0211Z" fill="#413691"/>
<path d="M136.207 10.8868C136.182 11.0102 136.231 11.0349 136.355 10.9609C136.848 10.5662 137.637 9.99885 138.747 9.77685C140.079 9.53019 140.795 8.91352 141.165 8.19819C141.362 7.77886 141.535 6.98953 142.176 6.54553C142.373 6.39753 142.176 6.3482 142.003 6.37287C141.855 6.39753 140.967 6.6442 140.4 7.2362C140.005 6.84153 140.055 6.29886 140.104 5.9782C140.129 5.87953 140.055 5.8302 139.931 5.9042C139.512 6.24953 139.216 6.69353 139.117 7.0142C139.117 7.0142 138.772 6.76753 138.969 6.17553C138.994 6.07687 138.92 6.10153 138.895 6.15086C138.279 6.59486 138.328 7.26086 138.328 7.33486C138.328 7.33486 137.711 6.98953 136.749 6.8662C136.601 6.24953 135.565 6.07687 135.393 6.7182C135.245 7.28553 136.231 7.72953 136.651 7.26086C136.651 7.26086 138.007 7.40886 139.191 8.56819C139.315 8.69152 139.339 8.79019 139.265 8.83953C139.216 8.88886 139.043 8.79019 138.821 8.64219C138.575 8.49419 136.947 7.45819 135.541 8.14886C135.467 8.17352 135.467 8.24753 135.516 8.24753C135.787 8.32153 136.379 8.51886 136.527 8.91352C136.133 9.01219 135.541 9.23419 135.097 10.1222C134.973 10.3688 135.121 10.3935 135.245 10.2949C135.393 10.1962 136.281 9.72752 136.601 9.75218C136.626 9.82618 136.33 10.2455 136.207 10.8868ZM147.479 4.30087C147.43 4.74487 147.553 6.00287 147.898 7.13753C148.268 8.3462 147.602 9.45619 146.492 10.0729C146.147 9.53019 145.432 9.28353 144.791 9.23419C144.421 9.20953 144.519 9.38219 144.716 9.43152C147.331 10.5169 146.418 13.5015 146.073 14.1428C145.728 14.7842 145.826 15.6475 145.826 15.6475C145.012 15.4008 144.273 15.5735 143.607 15.6722C142.324 15.8695 141.436 15.6475 140.77 15.3515C140.227 15.1048 139.389 14.5622 139.265 13.5262C139.241 13.3288 139.117 13.2055 139.043 13.5508C138.92 14.1675 139.019 14.9075 139.438 15.3762C138.969 17.7195 134.283 17.5468 134.283 17.5468C133.987 16.5355 131.841 16.2395 131.372 14.7595C131.15 14.0688 131.323 13.3288 131.323 13.3288C132.556 13.6002 133.247 13.0575 133.641 12.5642C133.863 12.2928 133.691 12.2682 133.518 12.3668C131.964 13.3288 130.533 12.3668 130.237 11.0102C129.843 9.53019 128.363 9.03685 128.363 9.03685C129.423 8.37086 129.127 7.23619 129.695 6.2742C131.15 3.73354 133.247 4.4982 133.247 4.4982C133.444 5.11487 134.061 5.55887 134.677 5.70687C135.023 5.80553 134.973 5.63287 134.825 5.50954C133.345 4.44887 133.715 2.79621 134.875 2.03154C136.922 0.674882 137.267 0.0828857 137.267 0.0828857C137.637 0.354218 138.649 0.600884 139.685 0.699551C142.028 0.896883 142.571 2.08088 142.62 2.54954C142.349 2.69754 141.88 3.11687 141.658 3.80754C141.535 4.15287 141.732 4.10354 141.855 3.95554C142.768 2.74688 143.878 2.96887 144.939 3.43754C145.555 3.73354 146.517 4.4982 147.479 4.30087Z" fill="#EF3138"/>
<path d="M3.68641 8.92366V8.14504H1.11388V6.77099H3.43005V6.00763H1.11388V4.83206H3.60685V4.07634H0V8.92366H3.68641Z" fill="#413691"/>
<path d="M9.91873 4.07634H8.83137L7.4346 7.89313L6.05551 4.07634H4.87974L6.78041 8.92366H8.01806L9.91873 4.07634Z" fill="#413691"/>
<path d="M15.1057 8.92366V8.14504H12.5332V6.77099H14.8494V6.00763H12.5332V4.83206H15.0262V4.07634H11.4193V8.92366H15.1057Z" fill="#413691"/>
<path d="M21.5414 8.92366V4.07634H20.4894V7.41221L18.0937 4.07634H16.9002V8.92366H17.9522V5.41221L20.4717 8.92366H21.5414Z" fill="#413691"/>
<path d="M27.3721 4.83206V4.07634H23.0581V4.83206H24.667V8.92366H25.7721V4.83206H27.3721Z" fill="#413691"/>
<path d="M32.5755 7.48855C32.5755 6.94657 32.2661 6.48092 31.4263 6.21374C31.2672 6.16031 30.5599 5.93893 30.3566 5.87023C30.1533 5.79389 29.7466 5.66412 29.7466 5.30534C29.7466 4.94656 30.0649 4.76336 30.6395 4.76336C31.2141 4.76336 31.8153 5.0687 32.0805 5.29771L32.5578 4.64122C32.2926 4.41221 31.6031 4 30.6749 4C29.172 4 28.6593 4.77099 28.6593 5.39695C28.6593 6.10687 29.1808 6.47328 29.7466 6.66412C29.8969 6.71756 30.613 6.93893 30.834 7.01527C31.055 7.0916 31.4705 7.22901 31.4705 7.59542C31.4705 7.96183 31.1346 8.19084 30.4715 8.19084C29.8085 8.19084 29.172 7.78626 28.951 7.59542L28.3941 8.27481C28.8891 8.72519 29.7201 9 30.4715 9C32.0009 9 32.5755 8.18321 32.5755 7.48855Z" fill="#413691"/>
<path d="M41.8467 8.92366L40.7152 7.87786C41.0157 7.60305 41.4224 6.93893 41.5108 6.51908L40.671 6.25191C40.5826 6.59542 40.3262 7.08397 40.1052 7.32061L39.0974 6.36641L39.2565 6.28244C39.672 6.0687 40.2201 5.74809 40.2201 5.09924C40.2201 4.45038 39.5217 4 38.6112 4C37.7095 4 36.9846 4.43511 36.9846 5.1374C36.9846 5.67176 37.4354 6.0229 37.5592 6.14504L37.6564 6.22901L37.4442 6.32824C37.0022 6.53435 36.3304 6.89313 36.3304 7.67939C36.3304 8.45802 37.126 9 38.2045 9C39.2919 9 39.7869 8.60305 40.0433 8.43511L40.556 8.92366H41.8467ZM39.2742 5.1145C39.2742 5.42748 39.0001 5.66412 38.7438 5.80916L38.5758 5.90076L38.3636 5.69466C38.2487 5.58779 37.9835 5.38168 37.9835 5.09924C37.9835 4.81679 38.2399 4.58015 38.6288 4.58015C39.009 4.58015 39.2742 4.79389 39.2742 5.1145ZM39.4333 7.87786C39.3184 7.98473 38.9648 8.27481 38.3725 8.27481C37.789 8.27481 37.4089 7.9771 37.4089 7.56489C37.4089 7.14504 37.7271 6.9313 38.0189 6.77863L38.178 6.70229L39.4333 7.87786Z" fill="#413691"/>
<path d="M49.3798 8.92366V8.14504H46.8073V6.77099H49.1235V6.00763H46.8073V4.83206H49.3003V4.07634H45.6934V8.92366H49.3798Z" fill="#413691"/>
<path d="M55.6563 8.92366L53.791 6.43511L55.5061 4.07634H54.2419L53.1015 5.83206L51.9611 4.07634H50.7058L52.4296 6.43511L50.5466 8.92366H51.8373L53.1015 7.03053L54.3745 8.92366H55.6563Z" fill="#413691"/>
<path d="M61.1258 5.64885C61.1258 5.08397 60.9137 4.70229 60.5247 4.44275C60.1269 4.17557 59.5699 4.07634 59.0395 4.07634H57.13V8.92366H58.2439V7.22137H59.0395C59.5257 7.22137 60.1357 7.12214 60.5247 6.8626C60.9225 6.59542 61.1258 6.21374 61.1258 5.64885ZM60.012 5.64885C60.012 5.98473 59.8794 6.18321 59.6672 6.32061C59.4462 6.45802 59.234 6.48855 58.8539 6.48855H58.2439V4.80916H58.8627C59.234 4.80916 59.455 4.84733 59.6672 4.98473C59.8882 5.12214 60.012 5.32061 60.012 5.64885Z" fill="#413691"/>
<path d="M66.5563 8.92366V8.14504H63.9838V6.77099H66.2999V6.00763H63.9838V4.83206H66.4767V4.07634H62.8699V8.92366H66.5563Z" fill="#413691"/>
<path d="M72.7444 8.92366L71.2592 6.8855C71.9399 6.68702 72.4085 6.21374 72.4085 5.52672C72.4085 5.03053 72.1521 4.64886 71.7897 4.40458C71.4449 4.17557 70.941 4.07634 70.3752 4.07634H68.3508V8.92366H69.4647V7.03817H70.163L71.4714 8.92366H72.7444ZM71.3034 5.56489C71.3034 5.82443 71.162 6.0458 70.9675 6.16031C70.773 6.27481 70.5609 6.32061 70.2426 6.32061H69.4647V4.80916H70.2514C70.5609 4.80916 70.773 4.85496 70.9675 4.96947C71.162 5.08397 71.3034 5.30534 71.3034 5.56489Z" fill="#413691"/>
<path d="M75.429 8.92366V4.07634H74.3151V8.92366H75.429Z" fill="#413691"/>
<path d="M81.2292 8.92366V8.14504H78.6566V6.77099H80.9728V6.00763H78.6566V4.83206H81.1496V4.07634H77.5428V8.92366H81.2292Z" fill="#413691"/>
<path d="M87.6648 8.92366V4.07634H86.6128V7.41221L84.2171 4.07634H83.0236V8.92366H84.0756V5.41221L86.5951 8.92366H87.6648Z" fill="#413691"/>
<path d="M94.2205 4.8626C94.194 4.82443 93.6017 4 92.1695 4C90.7374 4 89.4467 4.89313 89.4467 6.49618C89.4467 8.09924 90.6048 9 92.1253 9C93.6459 9 94.2382 8.1145 94.2382 8.1145L93.6636 7.46565C93.6636 7.46565 93.1773 8.12977 92.2049 8.12977C91.2236 8.12977 90.5783 7.47328 90.5783 6.48092C90.5783 5.48855 91.2501 4.83969 92.2226 4.83969C93.195 4.83969 93.637 5.49618 93.637 5.49618L94.2205 4.8626Z" fill="#413691"/>
<path d="M99.528 8.92366V8.14504H96.9554V6.77099H99.2716V6.00763H96.9554V4.83206H99.4484V4.07634H95.8415V8.92366H99.528Z" fill="#413691"/>
<path d="M105 7.48855C105 6.94657 104.691 6.48092 103.851 6.21374C103.692 6.16031 102.984 5.93893 102.781 5.87023C102.578 5.79389 102.171 5.66412 102.171 5.30534C102.171 4.94656 102.489 4.76336 103.064 4.76336C103.639 4.76336 104.24 5.0687 104.505 5.29771L104.982 4.64122C104.717 4.41221 104.028 4 103.099 4C101.596 4 101.084 4.77099 101.084 5.39695C101.084 6.10687 101.605 6.47328 102.171 6.66412C102.321 6.71756 103.037 6.93893 103.258 7.01527C103.479 7.0916 103.895 7.22901 103.895 7.59542C103.895 7.96183 103.559 8.19084 102.896 8.19084C102.233 8.19084 101.596 7.78626 101.375 7.59542L100.819 8.27481C101.314 8.72519 102.145 9 102.896 9C104.425 9 105 8.18321 105 7.48855Z" fill="#413691"/>
<defs>
<linearGradient id="paint0_linear" x1="123.162" y1="4.15356" x2="120.382" y2="27.8105" gradientUnits="userSpaceOnUse">
<stop stop-color="#D2068A"/>
<stop offset="0.737" stop-color="#413691"/>
<stop offset="1" stop-color="#413691"/>
</linearGradient>
</defs>
</svg>
