<?xml version="1.0" encoding="UTF-8"?>
<svg width="178px" height="44px" viewBox="0 0 178 48" version="1.1" xmlns="http://www.w3.org/2000/svg" xmlns:xlink="http://www.w3.org/1999/xlink">
    <title>Miles_&amp;_More_Lufthansa_Logo</title>
    <g id="Export-Assets" stroke="none" stroke-width="1" fill="none" fill-rule="evenodd">
        <g id="Miles_&amp;_More_Lufthansa_Logo" fill="#000066" fill-rule="nonzero">
            <g id="Group" transform="translate(67.000000, 29.000000)">
                <path d="M18.9426637,9.52467532 C18.9426637,14.6818182 14.7081264,18.8272727 9.47133183,18.8272727 C4.28465011,18.8272727 0.0250564334,14.6571429 0.0250564334,9.52467532 C0.0250564334,4.29350649 4.25959368,0.148051948 9.6717833,0.148051948 C14.7582393,0.172727273 18.9426637,4.39220779 18.9426637,9.52467532 Z M0.977200903,9.52467532 C0.977200903,14.1636364 4.76072235,17.8896104 9.47133183,17.8896104 C14.1819413,17.8896104 17.9654628,14.1636364 17.9654628,9.57402597 C17.9654628,4.86103896 14.2069977,1.15974026 9.39616253,1.15974026 C4.81083521,1.11038961 0.977200903,4.93506494 0.977200903,9.52467532 Z M7.41670429,9.15454545 L7.29142212,9.4012987 C6.84040632,9.32727273 6.06365688,9.00649351 5.23679458,8.63636364 L5.11151242,8.83376623 L5.43724605,9.03116883 C6.63995485,9.64805195 7.04085779,9.77142857 7.74243792,9.77142857 C9.14559819,9.77142857 10.2230248,9.00649351 10.6990971,7.62467532 C11.5760722,7.45194805 12.6785553,7.37792208 14.0065463,7.37792208 C15.1591422,7.37792208 16.1613995,7.42727273 17.3891648,7.57532468 L17.0634312,7.97012987 C16.4871332,7.8961039 15.4097065,7.7974026 14.6329571,7.7974026 C13.6808126,7.7974026 13.1045147,7.7974026 12.8288939,7.84675325 L12.6534989,8.16753247 C13.4302483,8.11818182 13.7309255,8.11818182 14.3072235,8.11818182 C15.3345372,8.11818182 16.1613995,8.16753247 16.8128668,8.19220779 L16.4871332,8.58701299 C15.2844244,8.53766234 14.7582393,8.53766234 13.8562077,8.53766234 C13.355079,8.53766234 12.9792325,8.53766234 12.4029345,8.58701299 L12.2275395,8.90779221 C12.7286682,8.85844156 13.4302483,8.85844156 14.1568849,8.85844156 C14.858465,8.85844156 15.6853273,8.85844156 16.186456,8.90779221 L15.8607223,9.3025974 C15.5349887,9.3025974 14.8835214,9.3025974 14.3322799,9.3025974 C13.5054176,9.3025974 12.4781038,9.35194805 11.9769752,9.42597403 L11.8015801,9.72207792 C12.7537246,9.64805195 13.3801354,9.5987013 14.4325056,9.5987013 C14.8334086,9.5987013 15.1340858,9.5987013 15.5851016,9.64805195 L15.2092551,10.0922078 C14.5577878,10.0428571 14.3322799,10.0428571 14.106772,10.0428571 C12.3027088,10.0428571 11.1501129,10.2896104 9.94740406,10.9805195 C11.0248307,12.0415584 12.8288939,12.7571429 14.4325056,12.7571429 C14.5577878,12.7571429 14.6329571,12.7571429 14.9586907,12.7571429 L14.1819413,13.5220779 C9.8972912,12.4363636 9.14559819,12.1402597 5.18668172,9.82077922 C3.60812641,8.93246753 2.38036117,8.36493506 1.3530474,8.04415584 L1.47832957,7.6 C1.72889391,7.64935065 2.25507901,7.7974026 2.75620767,7.97012987 L3.00677201,7.47662338 L7.41670429,9.15454545 Z" id="Shape"></path>
                <path d="M34.7282167,3.25714286 L34.7282167,13.2506494 L40.0902935,13.2506494 L40.0902935,15.7181818 L31.5961625,15.7181818 L31.5961625,3.25714286 L34.7282167,3.25714286 Z M46.7302483,15.7181818 L46.655079,14.8298701 C45.903386,15.5948052 45.0765237,15.9649351 44.0492099,15.9649351 C42.7713318,15.9649351 41.6939052,15.4467532 41.1927765,14.5337662 C40.7918736,13.8428571 40.7417607,13.5220779 40.7417607,12.0662338 L40.7417607,6.76103896 L43.6984199,6.76103896 L43.6984199,11.9675325 C43.6984199,13.2753247 44.0742664,13.8428571 45.0264108,13.8428571 C46.0036117,13.8428571 46.5047404,13.2012987 46.5047404,11.9675325 L46.5047404,6.76103896 L49.4613995,6.76103896 L49.4613995,15.7428571 L46.7302483,15.7428571 L46.7302483,15.7181818 Z M56.1765237,5.25584416 L55.675395,5.25584416 C54.572912,5.25584416 54.2722348,5.5025974 54.2722348,6.51428571 L54.2722348,6.76103896 L56.0512415,6.76103896 L56.0512415,8.75974026 L54.2722348,8.75974026 L54.2722348,15.7428571 L51.3155756,15.7428571 L51.3155756,8.75974026 L50.0376975,8.75974026 L50.0376975,6.76103896 L51.3155756,6.76103896 L51.3155756,6.51428571 C51.3155756,4.17012987 52.2176072,3.25714286 54.5227991,3.25714286 L56.1765237,3.25714286 L56.1765237,5.25584416 Z M60.7367946,3.94805195 L60.7367946,6.76103896 L62.4155756,6.76103896 L62.4155756,8.75974026 L60.7367946,8.75974026 L60.7367946,12.2883117 C60.7367946,13.5961039 60.8119639,13.6701299 61.9645598,13.6701299 L62.5408578,13.6701299 L62.5408578,15.7428571 L60.3108352,15.7428571 C58.5318284,15.7428571 57.755079,14.9285714 57.755079,13.1025974 L57.755079,8.75974026 L56.5273138,8.75974026 L56.5273138,6.76103896 L57.755079,6.76103896 L57.755079,3.94805195 L60.7367946,3.94805195 Z M66.1740406,3.25714286 L66.1740406,7.77272727 C66.7002257,6.88441558 67.5020316,6.51428571 68.6546275,6.51428571 C69.8823928,6.51428571 70.9097065,7.03246753 71.4609481,7.97012987 C71.861851,8.66103896 71.9119639,9.03116883 71.9119639,10.5363636 L71.9119639,15.7428571 L68.9803612,15.7428571 L68.9803612,10.6597403 C68.9803612,9.35194805 68.5794582,8.78441558 67.6523702,8.78441558 C66.6751693,8.78441558 66.1740406,9.42597403 66.1740406,10.6597403 L66.1740406,15.7428571 L63.2173815,15.7428571 L63.2173815,3.28181818 L66.1740406,3.28181818 L66.1740406,3.25714286 Z M73.2399549,9.64805195 C73.2399549,7.62467532 74.8435666,6.39090909 77.524605,6.39090909 C80.3810384,6.39090909 81.7591422,7.57532468 81.7591422,9.87012987 L81.7591422,14.4597403 C81.7591422,15.2246753 81.7591422,15.2246753 82.0097065,15.7181818 L79.2534989,15.7181818 L79.0781038,14.9779221 C78.1259594,15.7922078 77.2990971,16.112987 76.1214447,16.112987 C74.0918736,16.112987 72.6636569,14.9285714 72.6636569,13.3 C72.6636569,11.9675325 73.5656885,10.9805195 75.2945824,10.487013 C75.5451467,10.412987 76.4471783,10.2402597 77.9255079,9.96883117 C78.5769752,9.84545455 78.8275395,9.64805195 78.8275395,9.2038961 C78.8275395,8.71038961 78.3013544,8.34025974 77.4995485,8.34025974 C76.5474041,8.34025974 75.9711061,8.78441558 75.9209932,9.54935065 L73.189842,9.54935065 L73.189842,9.64805195 L73.2399549,9.64805195 Z M78.8776524,11.4246753 C78.5018059,11.5480519 78.3765237,11.5974026 78.1009029,11.6714286 C77.7250564,11.7454545 77.3993228,11.8441558 77.0234763,11.9181818 C76.0713318,12.1649351 75.5702032,12.5350649 75.5702032,13.1025974 C75.5702032,13.6701299 76.021219,14.0402597 76.772912,14.0402597 C78.2261851,14.0402597 78.8776524,13.3987013 78.8776524,12.0909091 L78.8776524,11.4246753 Z M85.5176072,6.76103896 L85.5927765,7.77272727 C86.2943567,6.88441558 87.121219,6.51428571 88.223702,6.51428571 C89.5015801,6.51428571 90.5288939,7.03246753 91.0801354,7.97012987 C91.4559819,8.66103896 91.5311512,9.05584416 91.5311512,10.5363636 L91.5311512,15.7428571 L88.5744921,15.7428571 L88.5744921,10.6597403 C88.5744921,9.32727273 88.1986456,8.78441558 87.2465011,8.78441558 C86.2943567,8.78441558 85.793228,9.42597403 85.793228,10.6597403 L85.793228,15.7428571 L82.8365688,15.7428571 L82.8365688,6.76103896 L85.5176072,6.76103896 L85.5176072,6.76103896 Z M98.0458239,9.54935065 C97.9706546,8.68571429 97.5948081,8.36493506 96.6927765,8.36493506 C95.9410835,8.36493506 95.4900677,8.66103896 95.4900677,9.10519481 C95.4900677,9.54935065 95.9410835,9.7961039 96.893228,9.96883117 L97.9205418,10.1662338 C100.075395,10.5363636 101.102709,11.4246753 101.102709,12.9792208 C101.102709,14.8792208 99.4489842,16.112987 96.8681716,16.112987 C93.8112867,16.112987 92.1325056,14.9285714 92.1325056,12.7324675 L95.0139955,12.7324675 L95.0139955,12.8558442 C95.0139955,13.5961039 95.6404063,14.0649351 96.6677201,14.0649351 C97.5446953,14.0649351 98.0708804,13.7441558 98.0708804,13.2506494 C98.0708804,12.7324675 97.5697517,12.4363636 96.4171558,12.238961 L95.4650113,12.0662338 C93.310158,11.6961039 92.38307,10.9311688 92.38307,9.5 C92.38307,7.55064935 94.0367946,6.36623377 96.7428894,6.36623377 C98.6471783,6.36623377 99.7997743,6.85974026 100.401129,7.94545455 C100.651693,8.38961039 100.701806,8.56233766 100.776975,9.52467532 L98.0458239,9.52467532 L98.0458239,9.54935065 Z M102.205192,9.64805195 C102.205192,7.62467532 103.858916,6.39090909 106.539955,6.39090909 C109.396388,6.39090909 110.749436,7.57532468 110.749436,9.87012987 L110.749436,14.4597403 C110.749436,15.2246753 110.749436,15.2246753 111,15.7181818 L108.243792,15.7181818 L108.068397,14.9779221 C106.965914,15.8662338 106.339503,16.112987 105.111738,16.112987 C103.082167,16.112987 101.603837,14.9285714 101.603837,13.3 C101.603837,11.9675325 102.505869,10.9805195 104.234763,10.487013 C104.485327,10.412987 105.387359,10.2402597 106.865688,9.96883117 C107.492099,9.84545455 107.76772,9.64805195 107.76772,9.2038961 C107.76772,8.71038961 107.241535,8.34025974 106.439729,8.34025974 C105.487585,8.34025974 104.861174,8.83376623 104.861174,9.54935065 L102.180135,9.54935065 L102.180135,9.64805195 L102.205192,9.64805195 Z M107.893002,11.4246753 C107.517156,11.5480519 107.391874,11.5974026 107.06614,11.6714286 C106.740406,11.7207792 106.36456,11.7948052 105.988713,11.9181818 C105.036569,12.1649351 104.53544,12.5350649 104.53544,13.1025974 C104.53544,13.6701299 104.986456,14.0402597 105.738149,14.0402597 C107.191422,14.0402597 107.893002,13.3987013 107.893002,12.0909091 L107.893002,11.4246753 L107.893002,11.4246753 Z" id="Shape"></path>
            </g>
            <polygon id="Path" points="7.80062305 4.41580231e-16 12.0124611 14.8903955 16.0996885 0 24 0 24 22 18.6417445 22 18.6417445 7.55706215 14.7788162 22 9.24610592 22 5.35825545 7.35819209 5.35825545 22 0 22 0 4.41580231e-16"></polygon>
            <path d="M31,6.16497175 L31,22 L26,22 L26,6.16497175 L31,6.16497175 Z M31,0 L31,4.07683616 L26,4.07683616 L26,0 L31,0 Z" id="Shape"></path>
            <polygon id="Path" points="38 0 38 22 33 22 33 0"></polygon>
            <path d="M55.6735598,17.357971 C55.3722304,20.5608696 51.957164,23 47.7134417,23 C42.465288,23 39,19.6246377 39,14.5 C39,9.52318841 42.5908419,6 47.7134417,6 C51.254062,6 54.0413589,7.74927536 55.2215657,10.7304348 C55.6735598,11.8637681 56,13.6869565 56,15.0173913 C56,15.1405797 56,15.4115942 55.9497784,15.7072464 L44.2481536,15.7072464 C44.549483,18.0231884 45.7296898,19.2304348 47.562777,19.2304348 C48.9187592,19.2304348 49.9985229,18.5405797 50.5007386,17.357971 C50.5007386,17.357971 55.6735598,17.357971 55.6735598,17.357971 Z M50.5007386,12.3565217 C50.4254062,10.6072464 49.2703102,9.54782609 47.562777,9.54782609 C45.7799114,9.54782609 44.5997046,10.6318841 44.4741507,12.3565217 L50.5007386,12.3565217 Z" id="Shape"></path>
            <path d="M67.5216,11.5761974 C67.4448,10.1204644 66.728,9.50362845 65.1152,9.50362845 C63.8096,9.50362845 62.9648,9.99709724 62.9648,10.8113208 C62.9648,11.3788099 63.2208,11.6995646 63.9376,11.8969521 C64.3472,12.0696662 65.064,12.2177068 65.5504,12.2917271 L67.368,12.6124819 C71.2336,13.2539913 73,14.808418 73,17.5224964 C73,20.9027576 70.056,23 65.4224,23 C62.0432,23 59.432,22.1117562 58.1264,20.5573295 C57.3584,19.6197388 57,18.6081277 57,17.1030479 L62.1712,17.1030479 L62.1712,17.275762 C62.1712,18.6081277 63.2976,19.4716981 65.0896,19.4716981 C66.6,19.4716981 67.5728,18.8548621 67.5728,18.0159652 C67.5728,17.1277213 66.6512,16.5602322 64.6288,16.2394775 L62.9392,15.9927431 C59.0992,15.3512337 57.4352,13.9941945 57.4352,11.5268505 C57.4352,8.12191582 60.3792,6 65.192,6 C68.52,6 70.7984,6.93759071 71.7968,8.81277213 C72.2064,9.57764877 72.3856,10.2438316 72.4368,11.6255443 L67.5472,11.6255443 L67.5472,11.5761974 L67.5216,11.5761974 Z" id="Path"></path>
            <path d="M97.5286783,10.8618063 C97.478803,12.8389554 96.5561097,15.4417845 95.1845387,17.2937976 L99,22.3492927 L93.2643392,22.3492927 L91.9925187,20.6224157 C90.3466334,22.0739935 87.9027431,23 85.7581047,23 C81.9925187,23 79,20.2720348 79,16.9183896 C79,15.4417845 79.6234414,13.7399347 80.7206983,12.5136017 C81.3441397,11.7627856 81.6932668,11.4874864 83.2144638,10.4863983 L83.8379052,10.085963 L83.3890274,9.46028292 C82.3167082,8.05875952 81.7431421,6.58215452 81.7431421,5.38084875 C81.7431421,2.45266594 84.4862843,0 87.7780549,0 C91.1945137,0 93.638404,2.30250272 93.638404,5.43090316 C93.638404,7.58324266 92.3167082,9.63547334 90.1221945,10.8618063 L92.1670823,13.5897715 C92.4663342,13.1893362 92.915212,11.7878128 92.9900249,10.8618063 C92.9650873,10.8618063 97.5286783,10.8618063 97.5286783,10.8618063 Z M89,5.30576714 C89,4.35473341 88.5012469,3.72905332 87.7780549,3.72905332 C87.1546135,3.72905332 86.5561097,4.42981502 86.5561097,5.25571273 C86.5561097,5.95647443 86.8054863,6.4570185 87.6533666,7.63329706 C88.5760599,7.03264418 89,6.33188248 89,5.30576714 Z M86.4064838,13.4145811 C84.8104738,14.515778 84.0623441,15.5418934 84.0623441,16.6931447 C84.0623441,17.9695321 85.0349127,18.9956474 86.2319202,18.9956474 C86.9800499,18.9956474 88.0274314,18.4951034 88.8254364,17.7943417 L89.3990025,17.2687704 L86.4064838,13.4145811 Z" id="Shape"></path>
            <polygon id="Path" points="113.783784 4.41580231e-16 118 14.8903955 122.091476 0 130 0 130 22 124.636175 22 124.636175 7.55706215 120.744283 22 115.255717 22 111.363825 7.35819209 111.363825 22 106 22 106 4.41580231e-16"></polygon>
            <path d="M149,14.512301 C149,19.8509407 145.685552,23 139.974504,23 C134.365439,23 131,19.8755427 131,14.536903 C131,9.07525326 134.314448,6 140.101983,6 C145.711048,6.04920405 149,9.24746744 149,14.512301 Z M136.354108,14.512301 C136.354108,17.5137482 137.603399,19.1374819 140,19.1374819 C142.396601,19.1374819 143.696884,17.5629522 143.696884,14.5615051 C143.696884,11.4862518 142.447592,9.91172214 140,9.91172214 C137.552408,9.88712012 136.354108,11.5108538 136.354108,14.512301 Z" id="Shape"></path>
            <path d="M155.607843,6.46341463 L155.779412,8.09756098 C156.833333,6.73170732 158.230392,6 159.921569,6 C160.117647,6 160.534314,6.04878049 161,6.07317073 L161,10.3170732 C160.607843,10.2439024 160.436275,10.2439024 160.142157,10.2439024 C158.720588,10.2439024 157.568627,10.8536585 156.784314,11.8780488 C156.220588,12.7317073 156.04902,13.4390244 156.04902,15.2195122 L156.04902,22 L151,22 L151,6.46341463 L155.607843,6.46341463 Z" id="Path"></path>
            <path d="M177.624448,17.357971 C177.324006,20.5608696 173.918999,23 169.687776,23 C164.455081,23 161,19.6246377 161,14.5 C161,9.52318841 164.580265,6 169.687776,6 C173.217968,6 175.997054,7.74927536 177.223859,10.7304348 C177.674521,11.8637681 178,13.6869565 178,15.0173913 C178,15.1405797 178,15.4115942 177.949926,15.7072464 L166.282769,15.7072464 C166.583211,18.0231884 167.759941,19.2304348 169.587629,19.2304348 C170.939617,19.2304348 172.0162,18.5405797 172.516937,17.357971 C172.516937,17.357971 177.624448,17.357971 177.624448,17.357971 Z M172.441826,12.3565217 C172.366716,10.6072464 171.215022,9.54782609 169.512518,9.54782609 C167.734904,9.54782609 166.558174,10.6318841 166.43299,12.3565217 L172.441826,12.3565217 Z" id="Shape"></path>
        </g>
    </g>
</svg>