<?xml version="1.0" encoding="UTF-8"?>
<svg width="147px" height="40px" viewBox="0 0 147 40" version="1.1" xmlns="http://www.w3.org/2000/svg" xmlns:xlink="http://www.w3.org/1999/xlink">
    <!-- Generator: Sketch 63.1 (92452) - https://sketch.com -->
    <title>logo-pc</title>
    <desc>Created with Sketch.</desc>
    <g id="logo-pc" stroke="none" stroke-width="1" fill="none" fill-rule="evenodd">
        <g>
            <rect id="Rectangle-Copy" fill="#D8D8D8" opacity="0" x="0" y="0" width="147" height="40"></rect>
            <g id="presidents-choice-pc-Lifestyle-vector-logo" transform="translate(0.000000, 4.000000)" fill-rule="nonzero">
                <g id="Group" transform="translate(1.709924, 0.000000)" fill="#EE2E24">
                    <rect id="Rectangle" x="21.3984733" y="0.0244274809" width="123.505344" height="31.8290076"></rect>
                    <rect id="Rectangle" x="0.146564885" y="0.0244274809" width="19.4931298" height="31.8290076"></rect>
                </g>
                <g id="Group" transform="translate(0.000000, 5.618321)">
                    <path d="M10.6015267,11.1877863 C10.4549618,11.3099237 10.4061069,11.3832061 10.6503817,11.6030534 C12.6534351,13.5816794 13.1419847,15.5358779 13.2885496,16.1465649 C13.5083969,17.0503817 13.6305344,17.7343511 13.6549618,18.1740458 C13.7038168,19.4687023 12.9465649,19.5419847 12.0916031,18.8824427 C11.8473282,18.6870229 11.0167939,17.8564885 10.5038168,16.7083969 C10.0885496,15.8290076 9.50229008,14.1679389 9.25801527,12.9465649 C9.16030534,12.4091603 9.01374046,12.5068702 8.86717557,12.4091603 C8.59847328,12.2625954 8.32977099,11.8717557 8.50076336,11.5053435 C8.62290076,11.2854962 8.81832061,11.2854962 8.37862595,10.9923664 C6.86412214,9.91755725 4.39694656,9.03816794 3.95725191,8.89160305 C3.59083969,8.74503817 1.27022901,7.98778626 0.586259542,7.32824427 C-0.219847328,6.57099237 -0.0732824427,6.00916031 0.928244275,5.3740458 C2.1740458,4.56793893 5.61832061,2.93129771 8.25648855,2.29618321 C9.64885496,1.95419847 11.6519084,1.49007634 13.2396947,2.63816794 C14.2412214,1.51450382 15.2916031,0.977099237 15.8778626,0.80610687 C16.4152672,0.659541985 16.8549618,0.781679389 17.0992366,1.09923664 C17.978626,2.19847328 16.8549618,2.39389313 16.4396947,2.00305344 C16.2931298,1.85648855 15.951145,1.97862595 15.7068702,2.14961832 C15.1938931,2.49160305 14.5832061,2.90687023 14.021374,3.59083969 C14.5832061,4.78778626 14.9251908,6.98625954 12.4824427,9.50229008 C12.9221374,12.2381679 15.0473282,11.8473282 15.6091603,11.7007634 C17.2946565,11.2122137 19.5419847,9.33129771 21.9847328,6.81526718 C22.7419847,6.03358779 23.6946565,6.79083969 22.8885496,7.67022901 C20.2015267,10.5526718 17.270229,12.4580153 15.5603053,12.8732824 C13.8503817,13.2885496 12.2870229,12.9221374 11.5053435,10.4549618 C11.5053435,10.4549618 11.1145038,10.7969466 10.6015267,11.1877863 M12.5557252,3.59083969 C11.4076336,2.63816794 9.33129771,3.24885496 8.30534351,3.51755725 C6.86412214,3.88396947 4.98320611,4.61679389 4.37251908,4.88549618 C3.73740458,5.15419847 3.27328244,5.42290076 2.76030534,5.69160305 C2.34503817,5.91145038 1.36793893,6.35114504 2.19847328,6.83969466 C2.61374046,7.08396947 3.0778626,7.25496183 3.88396947,7.59694656 C4.7389313,7.96335878 5.91145038,8.42748092 6.44885496,8.67175573 C6.88854962,8.86717557 7.96335878,9.38015267 8.40305344,9.67328244 C9.23358779,9.18473282 9.57557252,9.52671756 9.74656489,9.99083969 C9.86870229,10.259542 9.99083969,10.1129771 10.0885496,10.0152672 C10.4061069,9.74656489 10.8946565,9.33129771 11.1389313,9.06259542 C10.6503817,5.7648855 12.5557252,3.59083969 12.5557252,3.59083969 Z M13.2641221,4.56793893 C12.6045802,5.39847328 12.189313,7.08396947 12.3114504,7.79236641 C13.5328244,6.42442748 13.2641221,4.56793893 13.2641221,4.56793893 Z M10.4061069,12.9465649 C10.6503817,14.1923664 11.5053435,16.3175573 11.9206107,16.9282443 C12.0427481,17.0748092 12.9709924,18.2473282 12.140458,15.6091603 C11.6274809,14.0458015 10.4061069,12.9465649 10.4061069,12.9465649 Z" id="Shape" fill="#EE2E24"></path>
                    <path d="M23.1083969,6.03358779 C22.8885496,5.7648855 22.4244275,5.71603053 22.0091603,6.15572519 C19.5664122,8.67175573 17.319084,10.5770992 15.6335878,11.0656489 C15.0717557,11.2122137 12.9465649,11.6030534 12.5068702,8.86717557 C14.9496183,6.32671756 14.5832061,4.12824427 14.0458015,2.93129771 C14.6076336,2.22290076 15.2427481,1.83206107 15.7312977,1.49007634 C15.9755725,1.31908397 16.3175573,1.17251908 16.4641221,1.34351145 C16.9038168,1.75877863 18.0030534,1.5389313 17.1236641,0.439694656 C16.8793893,0.122137405 16.4396947,-2.49800181e-16 15.9022901,0.146564885 C15.340458,0.293129771 14.2900763,0.854961832 13.2641221,1.97862595 C11.6763359,0.854961832 9.67328244,1.29465649 8.28091603,1.63664122 C5.61832061,2.27175573 2.1740458,3.88396947 0.928244275,4.69007634 C-0.0732824427,5.32519084 -0.219847328,5.8870229 0.586259542,6.64427481 C1.27022901,7.30381679 3.56641221,8.0610687 3.95725191,8.20763359 C4.39694656,8.35419847 6.86412214,9.25801527 8.37862595,10.3083969 C8.81832061,10.6015267 8.62290076,10.5770992 8.50076336,10.821374 C8.32977099,11.1633588 8.59847328,11.578626 8.86717557,11.7251908 C9.01374046,11.8229008 9.16030534,11.7007634 9.25801527,12.2625954 C9.50229008,13.4839695 10.0885496,15.1206107 10.5038168,16.0244275 C11.0412214,17.1480916 11.8473282,18.0030534 12.0916031,18.1984733 C12.9221374,18.8580153 13.7038168,18.8091603 13.6549618,17.4900763 C13.6305344,17.0503817 13.5083969,16.3664122 13.2885496,15.4625954 C13.1419847,14.8519084 12.6534351,12.9221374 10.6503817,10.919084 C10.4305344,10.6992366 10.4549618,10.6259542 10.6015267,10.5038168 C11.1145038,10.1129771 11.5053435,9.79541985 11.5053435,9.79541985 C12.2870229,12.2625954 13.8503817,12.6290076 15.5603053,12.2137405 C17.270229,11.7984733 20.2015267,9.89312977 22.8885496,7.01068702 C22.9862595,6.9129771 23.0351145,6.81526718 23.0839695,6.74198473 L23.1083969,6.03358779 M12.1160305,14.9496183 C12.9465649,17.5877863 12.0183206,16.4396947 11.8961832,16.2687023 C11.4564885,15.6580153 10.6015267,13.5328244 10.3816794,12.2870229 C10.4061069,12.2870229 11.6274809,13.3618321 12.1160305,14.9496183 Z M11.1389313,8.35419847 C10.8946565,8.62290076 10.4061069,9.03816794 10.0885496,9.30687023 C9.99083969,9.40458015 9.84427481,9.55114504 9.74656489,9.28244275 C9.57557252,8.84274809 9.23358779,8.47633588 8.40305344,8.9648855 C7.96335878,8.67175573 6.9129771,8.15877863 6.44885496,7.96335878 C5.91145038,7.71908397 4.71450382,7.25496183 3.88396947,6.88854962 C3.0778626,6.54656489 2.61374046,6.35114504 2.19847328,6.13129771 C1.39236641,5.66717557 2.34503817,5.20305344 2.76030534,4.98320611 C3.29770992,4.71450382 3.76183206,4.44580153 4.37251908,4.17709924 C4.95877863,3.90839695 6.83969466,3.17557252 8.30534351,2.80916031 C9.33129771,2.54045802 11.4320611,1.95419847 12.5557252,2.90687023 C12.5557252,2.90687023 10.6503817,5.08091603 11.1389313,8.35419847 Z M12.2870229,7.10839695 C12.1648855,6.4 12.5801527,4.7389313 13.2396947,3.88396947 C13.2641221,3.88396947 13.5328244,5.74045802 12.2870229,7.10839695 Z" id="Shape" fill="#FFFFFF"></path>
                </g>
                <g id="Group" transform="translate(32.732824, 9.282443)" fill="#FFFFFF">
                    <polygon id="Path" points="3.34656489 0.464122137 3.34656489 10.0641221 7.18167939 10.0641221 7.18167939 12.7755725 0.146564885 12.7755725 0.146564885 0.439694656 3.34656489 0.439694656 3.34656489 0.464122137"></polygon>
                    <polygon id="Path" points="14.9740458 0.464122137 14.9740458 12.8 11.7740458 12.8 11.7740458 0.464122137"></polygon>
                    <polygon id="Path" points="27.578626 3.17557252 23.719084 3.17557252 23.719084 5.22748092 27.2366412 5.22748092 27.2366412 7.9389313 23.719084 7.9389313 23.719084 12.7755725 20.519084 12.7755725 20.519084 0.439694656 27.578626 0.439694656"></polygon>
                    <polygon id="Path" points="39.4259542 3.17557252 35.6152672 3.17557252 35.6152672 5.22748092 39.2061069 5.22748092 39.2061069 7.9389313 35.6152672 7.9389313 35.6152672 10.0641221 39.4259542 10.0641221 39.4259542 12.7755725 32.4152672 12.7755725 32.4152672 0.439694656 39.4259542 0.439694656"></polygon>
                    <path d="M51.4442748,3.61526718 C51.1022901,3.3221374 50.7358779,3.12671756 50.3938931,2.98015267 C50.0519084,2.83358779 49.7099237,2.78473282 49.3923664,2.78473282 C48.9770992,2.78473282 48.6351145,2.88244275 48.3908397,3.0778626 C48.1221374,3.27328244 48,3.54198473 48,3.8351145 C48,4.05496183 48.0732824,4.2259542 48.1954198,4.37251908 C48.3175573,4.51908397 48.4885496,4.64122137 48.7083969,4.7389313 C48.9282443,4.83664122 49.1725191,4.93435115 49.4167939,5.00763359 C49.6854962,5.08091603 49.9541985,5.15419847 50.1984733,5.2519084 C51.248855,5.59389313 52.0061069,6.05801527 52.4946565,6.64427481 C52.9832061,7.23053435 53.2274809,7.98778626 53.2274809,8.91603053 C53.2274809,9.55114504 53.129771,10.1129771 52.9099237,10.6259542 C52.6900763,11.1389313 52.3969466,11.578626 51.9816794,11.9450382 C51.5664122,12.3114504 51.0778626,12.6045802 50.4671756,12.8 C49.880916,12.9954198 49.1969466,13.0931298 48.4396947,13.0931298 C46.8763359,13.0931298 45.4351145,12.6290076 44.1160305,11.7007634 L45.4839695,9.11145038 C45.9725191,9.52671756 46.4366412,9.84427481 46.9007634,10.0641221 C47.3648855,10.259542 47.8290076,10.3816794 48.2931298,10.3816794 C48.8061069,10.3816794 49.1969466,10.259542 49.4656489,10.0152672 C49.7099237,9.77099237 49.8564885,9.50229008 49.8564885,9.20916031 C49.8564885,9.01374046 49.8320611,8.86717557 49.7587786,8.72061069 C49.6854962,8.5740458 49.5877863,8.4519084 49.4412214,8.35419847 C49.2946565,8.25648855 49.0992366,8.13435115 48.8549618,8.03664122 C48.610687,7.9389313 48.3175573,7.84122137 47.9755725,7.71908397 C47.5603053,7.59694656 47.1450382,7.45038168 46.7541985,7.27938931 C46.3633588,7.13282443 45.9969466,6.9129771 45.7038168,6.64427481 C45.410687,6.37557252 45.1419847,6.05801527 44.9465649,5.66717557 C44.751145,5.27633588 44.6534351,4.76335878 44.6534351,4.15267176 C44.6534351,3.54198473 44.751145,2.98015267 44.9465649,2.49160305 C45.1419847,2.00305344 45.4351145,1.56335878 45.8015267,1.22137405 C46.1679389,0.879389313 46.6076336,0.586259542 47.1450382,0.390839695 C47.6824427,0.195419847 48.2687023,0.0977099237 48.9282443,0.0977099237 C49.5389313,0.0977099237 50.1740458,0.170992366 50.8335878,0.341984733 C51.4931298,0.512977099 52.1282443,0.757251908 52.7389313,1.07480916 L51.4442748,3.61526718 Z" id="Path"></path>
                    <polygon id="Path" points="62.9496183 3.17557252 62.9496183 12.7755725 59.7496183 12.7755725 59.7496183 3.17557252 57.1114504 3.17557252 57.1114504 0.464122137 65.5877863 0.464122137 65.5877863 3.17557252"></polygon>
                    <polygon id="Path" points="73.7221374 6.86412214 69.2274809 0.464122137 73.0381679 0.464122137 75.3343511 3.8351145 77.6061069 0.464122137 81.4412214 0.464122137 76.9221374 6.86412214 76.9221374 12.7755725 73.7221374 12.7755725 73.7221374 6.86412214"></polygon>
                    <polygon id="Path" points="88.6961832 0.464122137 88.6961832 10.0641221 92.5312977 10.0641221 92.5312977 12.7755725 85.4961832 12.7755725 85.4961832 0.439694656 88.6961832 0.439694656"></polygon>
                    <polygon id="Path" points="104.158779 3.17557252 100.348092 3.17557252 100.348092 5.22748092 103.938931 5.22748092 103.938931 7.9389313 100.348092 7.9389313 100.348092 10.0641221 104.158779 10.0641221 104.158779 12.7755725 97.1480916 12.7755725 97.1480916 0.439694656 104.158779 0.439694656"></polygon>
                </g>
            </g>
        </g>
    </g>
</svg>
