<?xml version="1.0" encoding="UTF-8"?>
<svg width="214px" height="32px" viewBox="0 0 214 32" version="1.1" xmlns="http://www.w3.org/2000/svg" xmlns:xlink="http://www.w3.org/1999/xlink">
    <title>Southwest_Airlines_logo_2014 Copy</title>
    <defs>
        <linearGradient x1="0.285714286%" y1="49.5628931%" x2="100.655844%" y2="49.5628931%" id="linearGradient-1">
            <stop stop-color="#3656CC" offset="0%"></stop>
            <stop stop-color="#304CB2" offset="35%"></stop>
            <stop stop-color="#283B80" offset="72%"></stop>
        </linearGradient>
        <linearGradient x1="9.06261682%" y1="23.068316%" x2="90.6588785%" y2="67.3876627%" id="linearGradient-2">
            <stop stop-color="#E61C23" offset="30%"></stop>
            <stop stop-color="#C3161C" offset="80%"></stop>
        </linearGradient>
        <linearGradient x1="14.0671384%" y1="16.8200752%" x2="109.964776%" y2="67.1293476%" id="linearGradient-3">
            <stop stop-color="#FDBC11" offset="0%"></stop>
            <stop stop-color="#FCB415" offset="25%"></stop>
            <stop stop-color="#F89E1C" offset="80%"></stop>
        </linearGradient>
    </defs>
    <g id="Export-Assets" stroke="none" stroke-width="1" fill="none" fill-rule="evenodd">
        <g id="Southwest_Airlines_logo_2014-Copy" fill-rule="nonzero">
            <g id="Type" fill="#304CB2">
                <path d="M59,25 C58.1,25.2 57,25.3 55.9,25.3 C52.7,25.3 52,24.2 52,22.1 L52,10 L46,10 L46,22.8 C46,28.5 49.2,31.1 55.6,31.1 C58.7,31.1 61.6,30.5 65.1,29.7 L65.1,10 L59,10 L59,25 Z M78.5,25.6 C76.3,25.6 76,24.6 76,22.9 L76,15.1 L81,15.1 L81,10 L76,10 L76,4 L70,4 L70,10 L67,10 L67,15 L70,15 L70,23.2 C70,26.8 70.7,31 76.7,31 C78.5,31 80,30.6 81.7,30.1 L81.1,25.1 C80.2,25.4 79.4,25.6 78.5,25.6 Z M15.4,14.3 C14.3,13.9 13,13.5 11.7,13.1 C8.2,12.1 7.1,11.6 7.1,10 C7.1,8.2 8.4,7.3 11.6,7.3 C14.2,7.3 16.5,8 18.8,8.8 L20.1,3 C17.4,2 14.9,1.1 11.8,1.1 C4.6,1.1 0.6,5.2 0.6,10.1 C0.6,13.8 2.2,16.2 5.8,17.7 C6.8,18.1 8.1,18.5 9.4,18.9 C13.3,20.1 14.5,20.7 14.5,22.2 C14.5,24 13,25 9.9,25 C7.1,25 4.5,24.2 1.8,23 L0.4,29 C3.4,30.2 6.3,31 9.9,31 C17.3,31 21.1,26.9 21.1,21.9 C21.1,17.9 18.8,15.6 15.4,14.3 Z M94.2,9 C92.2,9 90.3,9.5 89,9.9 L89,0 L83,0 L83,31 L89,31 L89,15.5 C90.1,15.1 91.3,14.7 92.8,14.7 C95.1,14.7 96,15.6 96,17.8 L96,31 L102,31 L102,17.1 C102,11.6 99.5,9 94.2,9 Z M33.4,8.9 C27.3,8.9 22.4,13.2 22.4,19.9 C22.4,26.6 27.3,31.1 33.4,31.1 C39.5,31.1 44.4,26.7 44.4,19.9 C44.4,13.1 39.5,8.9 33.4,8.9 Z M33.4,25.1 C30.8,25.1 28.7,23.2 28.7,19.8 C28.7,16.4 30.7,14.6 33.4,14.6 C36.1,14.6 38.1,16.4 38.1,19.8 C38.1,23.3 36,25.1 33.4,25.1 Z M168.1,18.2 C167.2,17.9 166.3,17.6 165.2,17.3 C163.1,16.7 162.3,16.4 162.3,15.5 C162.3,14.6 163.1,14 165,14 C167,14 168.8,14.4 170.8,15 L171.8,9.8 C169.6,9.3 167.5,8.9 165.1,8.9 C159.4,8.9 156.3,11.8 156.3,15.8 C156.3,18.6 157.7,20.4 160.5,21.6 C161.3,21.9 162.2,22.3 163.3,22.6 C165.5,23.2 166.6,23.5 166.6,24.5 C166.6,25.5 165.3,25.9 163.5,25.9 C161.3,25.9 159.3,25.5 157.2,24.7 L156.3,29.9 C158.9,30.6 161.3,31.1 164,31.1 C170,31.1 172.7,28 172.7,24.1 C172.6,21.4 171.5,19.4 168.1,18.2 Z M145.6,8.9 C139.3,8.9 134.8,13.3 134.8,20.3 C134.8,26.8 138.7,31.1 145.7,31.1 C148.8,31.1 151.3,30.2 153.9,29.1 L153,24.1 C151,25 149,25.7 146.6,25.7 C143,25.7 141.5,24.2 141.3,22 L154.8,22 C154.8,22 155,19.6 155,19.1 C155,13.4 151.9,8.9 145.6,8.9 Z M141.4,18 C141.8,16.2 142.7,13.9 145.3,13.9 C147.9,13.9 148.7,16.5 148.7,18 L141.4,18 Z M184.5,25.6 C182.3,25.6 182,24.6 182,22.9 L182,15.1 L187,15.1 L187,10 L182,10 L182,4 L176,4 L176,10 L172.9,10 L172.9,15.1 L176,15.1 L176,23.3 C176,26.9 176.9,31.1 182.9,31.1 C184.7,31.1 186.2,30.7 187.9,30.2 L187.2,25.2 C186.2,25.4 185.4,25.6 184.5,25.6 Z M188.5,1.2 C187,1.2 185.9,2.4 185.8,3.9 C185.7,5.4 187,6.6 188.4,6.6 C189.9,6.6 191.1,5.4 191.1,3.9 C191.1,2.4 190,1.2 188.5,1.2 Z M188.5,6.1 C187.3,6.1 186.4,5.2 186.4,3.9 C186.4,2.6 187.3,1.7 188.6,1.7 C189.8,1.7 190.8,2.6 190.7,3.9 C190.6,5.2 189.7,6.1 188.5,6.1 Z M188.8,4 C189.3,3.9 189.6,3.7 189.6,3.2 C189.6,2.7 189.2,2.3 188.6,2.3 L187.6,2.3 L187.6,5.4 L188.2,5.4 L188.2,4.1 C188.4,4.1 188.5,4.2 188.6,4.4 L189.3,5.4 L190,5.4 L189.4,4.4 C189,4.2 188.9,4.1 188.8,4 Z M188.4,3.7 L188.1,3.7 L188.1,2.8 L188.5,2.8 C188.9,2.8 189,3 189,3.2 C189,3.6 188.7,3.7 188.4,3.7 Z M129.2,10 L125.4,21.5 L121.6,10 L116.4,10 L112.5,21.5 L108.7,10 L102.2,10 L109.7,31 L115.2,31 L119,19.6 L122.8,31 L128.3,31 L135.8,10 C135.8,10 129.2,10 129.2,10 Z" id="Shape"></path>
            </g>
            <g id="Group" transform="translate(190.000000, 8.000000)">
                <path d="M17,0.8 C15,0.8 13.3,1.5 12,2.2 C10.7,1.5 9.1,0.8 7,0.8 C2.9,0.8 0.3,3.4 0.3,8 C0.3,13.5 5.6,18.9 12,23.3 C18.4,19 23.7,13.6 23.7,8 C23.7,3.4 21,0.8 17,0.8 Z" id="Path" fill="#CCCCCC"></path>
                <path d="M0.9,8.1 C0.9,13.7 6.9,19 11.9,22.5 C13.4,21.5 14.9,20.3 16.3,19.1 C9.6,13.5 3.2,8.4 1,6.6 C1,7 0.9,7.5 0.9,8.1 Z" id="Path" fill="url(#linearGradient-1)"></path>
                <path d="M22.6,10.7 C17.7,6.7 14.8,4.6 11.6,2.7 C10.7,2.2 9,1.4 7.1,1.4 C5.3,1.4 3.7,2 2.6,3.1 C1.9,3.8 1.4,4.7 1.2,5.8 C3.7,7.6 10.6,12.5 17.5,18 C19.8,15.8 21.7,13.3 22.6,10.7 Z" id="Path" fill="url(#linearGradient-2)"></path>
                <path d="M21.3,3.1 C20.2,2 18.7,1.4 16.9,1.4 C15,1.4 13.6,2 12.5,2.6 C14.4,3.7 18.5,6 22.8,9.2 C22.9,8.8 22.9,8.3 22.9,7.9 C23,5.9 22.4,4.2 21.3,3.1 Z" id="Path" fill="url(#linearGradient-3)"></path>
            </g>
        </g>
    </g>
</svg>