<svg width="113" height="29" viewBox="0 0 113 29" fill="none" xmlns="http://www.w3.org/2000/svg">
<path d="M0.651253 17.6445C0.281142 17.5828 0.0652439 17.3975 0.00355876 17.0888C-0.0272838 16.7492 0.14235 16.5176 0.512461 16.3941C0.666674 16.3632 0.820887 16.3478 0.975099 16.3478C1.12931 16.3169 1.28352 16.3015 1.43774 16.3015C1.49942 15.4062 1.62279 14.5262 1.80785 13.6618C2.02375 12.7973 2.31675 12.1026 2.68686 11.5778C3.24203 10.8059 3.82804 10.4663 4.44489 10.5589C5.09258 10.6515 5.63233 10.9757 6.06412 11.5315C6.52676 12.0563 6.80434 12.7201 6.89687 13.5228C7.02024 14.3256 6.85061 15.0511 6.38797 15.6995C6.14123 16.0391 5.80196 16.3324 5.37016 16.5794C4.96921 16.8264 4.52199 17.027 4.02851 17.1814C4.05936 18.4164 4.24441 19.5278 4.58368 20.5158C4.92295 21.4729 5.58606 22.0904 6.57302 22.3683C7.37493 22.2139 8.11515 21.8743 8.79369 21.3494C9.47222 20.7937 10.0891 20.2379 10.6442 19.6822C10.8293 19.5278 11.0298 19.4661 11.2457 19.497C11.4616 19.497 11.6466 19.5587 11.8008 19.6822C11.955 19.7748 12.063 19.9138 12.1247 20.099C12.1864 20.2534 12.1401 20.4232 11.9859 20.6084C11.4924 21.0715 10.9989 21.5038 10.5054 21.9051C10.012 22.2756 9.4568 22.6152 8.83995 22.924C7.54456 23.5415 6.43423 23.7885 5.50896 23.665C4.58368 23.5723 3.81261 23.2482 3.19576 22.6924C2.60976 22.1058 2.16254 21.3648 1.85411 20.4695C1.57653 19.5433 1.42232 18.5862 1.39147 17.5982C1.23726 17.5982 1.08305 17.6136 0.928835 17.6445C0.805465 17.6445 0.712938 17.6445 0.651253 17.6445ZM5.27764 14.9122C5.70943 14.4799 5.84822 14.0168 5.69401 13.5228C5.5398 12.998 5.29306 12.6121 4.95379 12.3651C4.79958 12.5503 4.67621 12.7819 4.58368 13.0597C4.49115 13.3376 4.39862 13.6463 4.3061 13.9859C4.24441 14.2947 4.19815 14.6189 4.1673 14.9585C4.13646 15.2672 4.10562 15.5451 4.07478 15.7921C4.53741 15.576 4.93837 15.2827 5.27764 14.9122Z" fill="#009CDE"/>
<path d="M14.9376 12.3187C15.246 11.9174 15.6315 11.6241 16.0942 11.4388C16.5568 11.2536 17.0503 11.2073 17.5746 11.2999C17.5746 11.1764 17.59 11.0529 17.6209 10.9294C17.6517 10.775 17.7442 10.6361 17.8984 10.5126C18.2377 10.2656 18.6541 10.2039 19.1476 10.3274C19.6719 10.4509 19.9957 10.6361 20.1191 10.8831C20.1499 11.7167 20.2116 12.8436 20.3042 14.2638C20.3967 15.684 20.5355 17.1351 20.7205 18.6171C20.9056 20.0681 21.1523 21.4112 21.4608 22.6461C21.7692 23.8811 22.1547 24.7301 22.6173 25.1932C22.7407 25.3476 22.7407 25.502 22.6173 25.6563C22.5248 25.8107 22.3706 25.9342 22.1547 26.0268C21.9697 26.1503 21.7383 26.2275 21.4608 26.2584C21.214 26.2893 21.029 26.2584 20.9056 26.1658C20.5663 25.857 20.2579 25.4093 19.9803 24.8227C19.7336 24.267 19.5023 23.6341 19.2864 22.924C19.0705 22.2139 18.87 21.442 18.6849 20.6084C18.4999 19.7748 18.3457 18.9258 18.2223 18.0613C18.0681 18.6788 17.8984 19.2808 17.7134 19.8675C17.5283 20.4232 17.2662 20.9635 16.9269 21.4883C16.4951 22.2911 15.9862 22.8314 15.4002 23.1092C14.845 23.3871 14.3053 23.4643 13.781 23.3408C13.2875 23.1864 12.8711 22.8468 12.5318 22.3219C12.2234 21.7662 12.1 21.0407 12.1617 20.1453C12.2542 18.6634 12.501 17.2895 12.9019 16.0236C13.3337 14.7269 14.0123 13.492 14.9376 12.3187ZM14.9376 21.8125C15.431 21.4112 15.832 20.8554 16.1404 20.1453C16.4797 19.4043 16.7264 18.6171 16.8806 17.7835C17.0657 16.9499 17.1736 16.1317 17.2045 15.329C17.2662 14.4954 17.2662 13.7853 17.2045 13.1987C16.7727 13.6309 16.3563 14.2175 15.9554 14.9585C15.5852 15.6686 15.2768 16.425 15.0301 17.2277C14.8142 18.0304 14.6754 18.8486 14.6137 19.6822C14.5829 20.4849 14.6908 21.195 14.9376 21.8125Z" fill="#009CDE"/>
<path d="M23.4926 10.5589C23.5542 10.2193 23.7085 9.98776 23.9552 9.86426C24.2019 9.74076 24.4795 9.69445 24.7879 9.72533C25.0964 9.7562 25.374 9.84882 25.6207 10.0032C25.8674 10.1267 26.0216 10.2811 26.0833 10.4663C26.0833 10.7133 26.0988 11.161 26.1296 11.8093C26.1604 12.4268 26.2067 13.1523 26.2684 13.9859C26.7927 12.9054 27.5792 11.9791 28.6278 11.2073C29.6765 10.4046 31.1724 9.70989 33.1154 9.12328C33.5472 9.09241 33.794 9.24678 33.8557 9.58639C33.9482 9.89513 33.8248 10.1576 33.4855 10.3737C31.635 10.8985 30.2933 11.5623 29.4606 12.3651C28.6278 13.1678 28.0881 14.1094 27.8414 15.19C27.5946 16.2398 27.4867 17.4438 27.5175 18.8023C27.5792 20.1608 27.5638 21.6736 27.4712 23.3408C27.4404 23.526 27.317 23.665 27.1011 23.7576C26.9161 23.8811 26.6848 23.9583 26.4072 23.9891C26.1296 24.0509 25.852 24.0663 25.5744 24.0355C25.3277 24.0355 25.1426 23.9737 25.0193 23.8502C24.9267 23.665 24.8188 23.2636 24.6954 22.6461C24.572 21.9978 24.4487 21.2414 24.3253 20.3769C24.2328 19.4815 24.1248 18.5244 24.0015 17.5056C23.9089 16.4559 23.8164 15.4679 23.7239 14.5417C23.6622 13.6155 23.6005 12.7973 23.5388 12.0872C23.508 11.3771 23.4926 10.8677 23.4926 10.5589Z" fill="#009CDE"/>
<path d="M34.5577 11.5778C34.712 11.2999 34.9278 11.1455 35.2054 11.1147C35.483 11.0529 35.7606 11.0838 36.0382 11.2073C36.3158 11.3308 36.5471 11.5006 36.7321 11.7167C36.948 11.9019 37.0406 12.0872 37.0097 12.2724C36.948 13.0752 36.8864 13.8316 36.8247 14.5417C36.7938 15.2518 36.7784 15.8847 36.7784 16.4404C36.8709 16.1317 36.9635 15.7921 37.056 15.4216C37.1794 15.0202 37.3027 14.6343 37.4261 14.2638C37.5803 13.8933 37.7499 13.5383 37.935 13.1987C38.1509 12.859 38.3976 12.5812 38.6752 12.3651C39.107 11.9946 39.5851 11.8711 40.1094 11.9946C40.6646 12.0872 41.0501 12.2107 41.266 12.3651C41.8828 12.8899 42.3301 13.5228 42.6076 14.2638C42.9161 14.9739 43.1474 15.7303 43.3016 16.5331C43.4867 17.3049 43.6563 18.0613 43.8105 18.8023C43.9956 19.5433 44.304 20.1762 44.7358 20.7011C44.9825 20.7011 45.1984 20.7011 45.3835 20.7011C45.5994 20.7011 45.8153 20.7165 46.0312 20.7474C46.4013 20.9017 46.5863 21.1487 46.5863 21.4883C46.5863 21.7971 46.3859 21.9823 45.9849 22.0441C45.584 22.1058 45.1213 22.1213 44.597 22.0904C44.0727 22.0595 43.6717 22.0132 43.3941 21.9515C42.8081 21.7353 42.3301 21.2722 41.96 20.5621C41.6207 19.8211 41.3123 19.0184 41.0347 18.1539C40.7879 17.2586 40.5412 16.3941 40.2945 15.5605C40.0786 14.7269 39.801 14.094 39.4617 13.6618C39.1841 13.847 38.9528 14.3101 38.7677 15.0511C38.5827 15.7921 38.4131 16.6102 38.2588 17.5056C38.1355 18.3701 38.0121 19.2345 37.8887 20.099C37.7654 20.9326 37.6266 21.5501 37.4724 21.9515C37.3798 22.1367 37.2102 22.2756 36.9635 22.3683C36.7476 22.43 36.5162 22.4609 36.2695 22.4609C36.0228 22.4609 35.776 22.4146 35.5293 22.3219C35.3134 22.2293 35.1592 22.1058 35.0666 21.9515C34.9741 21.7971 34.8816 21.4729 34.7891 20.9789C34.7274 20.4849 34.6503 19.9138 34.5577 19.2654C34.4961 18.5862 34.4344 17.8606 34.3727 17.0888C34.3418 16.2861 34.3264 15.5296 34.3264 14.8195C34.3264 14.1094 34.3418 13.4611 34.3727 12.8745C34.4035 12.2879 34.4652 11.8556 34.5577 11.5778Z" fill="#009CDE"/>
<path d="M54.4956 16.8572C54.2489 14.3873 53.9867 11.9328 53.7091 9.49377C53.4624 7.02385 53.3082 4.53849 53.2465 2.03769V1.6672C53.2773 1.38933 53.4161 1.20409 53.6629 1.11147C53.9405 0.987969 54.218 0.926221 54.4956 0.926221C54.8041 0.926221 55.0816 0.987969 55.3284 1.11147C55.606 1.23496 55.7756 1.38933 55.8373 1.57457C56.5775 1.45108 57.3948 1.52826 58.2893 1.80613C59.2145 2.084 60.1244 2.46992 61.0188 2.96391C61.9441 3.42702 62.7923 3.95188 63.5633 4.53849C64.3344 5.09422 64.9358 5.61908 65.3676 6.11306C66.4471 7.34803 66.9406 8.59842 66.8481 9.86426C66.7864 11.1301 66.1541 12.2879 64.9512 13.3376C63.8718 14.2638 62.6843 15.0511 61.3889 15.6995C60.0936 16.3169 58.6594 16.9344 57.0864 17.5519L57.4102 22.5535C57.4102 22.8005 57.2869 23.0012 57.0401 23.1555C56.7934 23.3099 56.5158 23.4025 56.2074 23.4334C55.899 23.4334 55.606 23.3871 55.3284 23.2945C55.0508 23.2019 54.8966 23.032 54.8657 22.7851L54.4956 16.8572ZM56.9939 16.2089C57.7649 15.9001 58.536 15.576 59.3071 15.2363C60.0781 14.8659 60.8029 14.4645 61.4815 14.0323C62.1908 13.5691 62.8077 13.0597 63.332 12.504C63.8872 11.9174 64.3344 11.269 64.6737 10.5589C65.0129 9.78708 64.9667 8.98435 64.5349 8.15075C64.1031 7.28628 63.4708 6.48355 62.6381 5.74257C61.8053 4.97072 60.88 4.32237 59.8622 3.79751C58.8444 3.24177 57.9192 2.88672 57.0864 2.73235H57.0401C56.8242 2.7941 56.6546 3.07197 56.5312 3.56595C56.4387 4.02906 56.377 4.60023 56.3462 5.27946C56.3462 5.95869 56.3616 6.69967 56.3924 7.5024C56.4233 8.30512 56.4695 9.07697 56.5312 9.81795C56.5929 10.5281 56.6546 11.161 56.7163 11.7167C56.778 12.2416 56.8088 12.5966 56.8088 12.7819L56.9939 16.2089Z" fill="#009CDE"/>
<path d="M72.1028 11.9019C72.072 12.1489 71.9949 12.3342 71.8715 12.4577C72.2724 12.9825 72.6271 13.6155 72.9355 14.3564C73.244 15.0974 73.4753 15.8693 73.6295 16.672C73.8146 17.4438 73.9071 18.2157 73.9071 18.9875C73.9071 19.7594 73.7837 20.4541 73.537 21.0715C73.2902 21.6582 72.9047 22.1367 72.3804 22.5072C71.8561 22.8468 71.1621 22.9857 70.2985 22.924C69.5583 22.8931 68.9569 22.6461 68.4942 22.183C68.0316 21.7199 67.6769 21.1487 67.4302 20.4695C67.2142 19.7594 67.0909 18.9875 67.06 18.1539C67.06 17.3203 67.1371 16.5022 67.2914 15.6995C67.4764 14.8659 67.7232 14.1094 68.0316 13.4302C68.34 12.7201 68.7101 12.1644 69.1419 11.763C69.2653 11.3617 69.5274 11.2227 69.9284 11.3462C70.3602 11.161 70.8074 11.0838 71.2701 11.1147C71.7327 11.1455 72.0103 11.408 72.1028 11.9019ZM70.8537 21.2568C71.4397 21.0715 71.8252 20.6393 72.0103 19.9601C72.2262 19.25 72.2879 18.4781 72.1953 17.6445C72.1336 16.8109 71.964 15.9928 71.6864 15.19C71.4088 14.3873 71.1158 13.7698 70.8074 13.3376C70.2523 14.0786 69.913 14.9894 69.7896 16.0699C69.6971 17.1505 69.7279 18.1076 69.8821 18.9412C69.9438 19.2808 70.0363 19.6822 70.1597 20.1453C70.3139 20.5776 70.5452 20.948 70.8537 21.2568Z" fill="#009CDE"/>
<path d="M76.2664 12.0409C76.2972 11.7013 76.4206 11.4543 76.6365 11.2999C76.8832 11.1455 77.13 11.0683 77.3767 11.0683C77.6543 11.0683 77.9164 11.1455 78.1632 11.2999C78.4099 11.4543 78.5641 11.6704 78.6258 11.9483C78.6258 13.8007 78.6721 15.6686 78.7646 17.5519C78.888 19.4043 78.9497 21.2568 78.9497 23.1092C78.9497 23.3562 78.8109 23.5415 78.5333 23.665C78.2865 23.8193 78.009 23.8965 77.7005 23.8965C77.3921 23.9274 77.0991 23.8811 76.8215 23.7576C76.5748 23.665 76.436 23.4797 76.4052 23.2019C76.4052 21.2877 76.3743 19.4198 76.3126 17.5982C76.2818 15.7458 76.2664 13.8933 76.2664 12.0409ZM77.7005 6.15937C78.009 6.37549 78.2094 6.62248 78.302 6.90035C78.3945 7.14734 78.3945 7.36346 78.302 7.54871C78.2094 7.73395 78.0398 7.85745 77.7931 7.91919C77.5463 7.98094 77.2225 7.90376 76.8215 7.68764C76.5748 7.56414 76.436 7.39434 76.4052 7.17822C76.3743 6.93123 76.4052 6.71511 76.4977 6.52986C76.6211 6.31374 76.7907 6.15937 77.0066 6.06675C77.2225 5.97413 77.4538 6.005 77.7005 6.15937Z" fill="#009CDE"/>
<path d="M82.0369 11.5778C82.1911 11.2999 82.407 11.1455 82.6846 11.1147C82.9621 11.0529 83.2397 11.0838 83.5173 11.2073C83.7949 11.3308 84.0262 11.5006 84.2113 11.7167C84.4272 11.9019 84.5197 12.0872 84.4888 12.2724C84.4272 13.0752 84.3655 13.8316 84.3038 14.5417C84.2729 15.2518 84.2575 15.8847 84.2575 16.4404C84.3501 16.1317 84.4426 15.7921 84.5351 15.4216C84.6585 15.0202 84.7819 14.6343 84.9052 14.2638C85.0594 13.8933 85.2291 13.5383 85.4141 13.1987C85.63 12.859 85.8768 12.5812 86.1543 12.3651C86.5861 11.9946 87.0642 11.8711 87.5885 11.9946C88.1437 12.0872 88.5292 12.2107 88.7451 12.3651C89.362 12.8899 89.8092 13.5228 90.0868 14.2638C90.3952 14.9739 90.6265 15.7303 90.7807 16.5331C90.9658 17.3049 91.1354 18.0613 91.2896 18.8023C91.4747 19.5433 91.7831 20.1762 92.2149 20.7011C92.4616 20.7011 92.6775 20.7011 92.8626 20.7011C93.0785 20.7011 93.2944 20.7165 93.5103 20.7474C93.8804 20.9017 94.0655 21.1487 94.0655 21.4883C94.0655 21.7971 93.865 21.9823 93.464 22.0441C93.0631 22.1058 92.6004 22.1213 92.0761 22.0904C91.5518 22.0595 91.1508 22.0132 90.8733 21.9515C90.2872 21.7353 89.8092 21.2722 89.4391 20.5621C89.0998 19.8211 88.7914 19.0184 88.5138 18.1539C88.2671 17.2586 88.0203 16.3941 87.7736 15.5605C87.5577 14.7269 87.2801 14.094 86.9408 13.6618C86.6632 13.847 86.4319 14.3101 86.2469 15.0511C86.0618 15.7921 85.8922 16.6102 85.738 17.5056C85.6146 18.3701 85.4912 19.2345 85.3679 20.099C85.2445 20.9326 85.1057 21.5501 84.9515 21.9515C84.859 22.1367 84.6893 22.2756 84.4426 22.3683C84.2267 22.43 83.9954 22.4609 83.7486 22.4609C83.5019 22.4609 83.2551 22.4146 83.0084 22.3219C82.7925 22.2293 82.6383 22.1058 82.5458 21.9515C82.4532 21.7971 82.3607 21.4729 82.2682 20.9789C82.2065 20.4849 82.1294 19.9138 82.0369 19.2654C81.9752 18.5862 81.9135 17.8606 81.8518 17.0888C81.821 16.2861 81.8055 15.5296 81.8055 14.8195C81.8055 14.1094 81.821 13.4611 81.8518 12.8745C81.8827 12.2879 81.9443 11.8556 82.0369 11.5778Z" fill="#009CDE"/>
<path d="M91.8345 11.8093C91.4027 11.7476 91.2022 11.5315 91.2331 11.161C91.2639 10.7905 91.4952 10.5744 91.927 10.5126C92.513 10.4817 93.0836 10.4509 93.6388 10.42C94.2248 10.3582 94.8108 10.2811 95.3968 10.1884C95.3351 8.61386 95.2888 7.03928 95.258 5.46471C95.258 3.85926 95.258 2.25381 95.258 0.648354C95.2888 0.432236 95.4276 0.277865 95.6744 0.185244C95.952 0.0617478 96.2295 0 96.5071 0C96.8156 0 97.0931 0.0463101 97.3399 0.138931C97.6175 0.231554 97.7871 0.370487 97.8488 0.555732C97.8488 2.13031 97.8488 3.68945 97.8488 5.23315C97.8796 6.77685 97.9259 8.32056 97.9876 9.86426C98.882 9.70989 99.7764 9.57096 100.671 9.44746C101.565 9.32396 102.46 9.23134 103.354 9.16959C103.724 9.32396 103.909 9.57096 103.909 9.91057C103.909 10.2193 103.709 10.4046 103.308 10.4663C102.413 10.5281 101.534 10.6207 100.671 10.7442C99.8073 10.8677 98.9283 11.0066 98.0338 11.161C98.0955 12.5812 98.188 14.1094 98.3114 15.7458C98.4656 17.3512 98.6199 18.9412 98.7741 20.5158C98.9591 22.0595 99.1442 23.4952 99.3292 24.8227C99.5143 26.1812 99.6839 27.2772 99.8381 28.1108C99.8073 28.3887 99.6839 28.6048 99.468 28.7592C99.283 28.9136 99.0671 28.9907 98.8203 28.9907C98.5736 29.0216 98.3268 28.9753 98.0801 28.8518C97.8642 28.7592 97.7254 28.6048 97.6637 28.3887C96.9544 25.5483 96.43 22.7387 96.0908 19.9601C95.7823 17.1814 95.5664 14.341 95.4431 11.4388C94.8571 11.5623 94.2556 11.655 93.6388 11.7167C93.0528 11.7476 92.4513 11.7785 91.8345 11.8093Z" fill="#009CDE"/>
<path d="M110.675 12.9208C110.614 13.3222 110.398 13.5537 110.028 13.6155C109.688 13.6772 109.395 13.5383 109.149 13.1987C108.963 12.4886 108.609 11.9174 108.084 11.4851C107.56 11.022 107.082 10.8522 106.65 10.9757C106.095 11.0992 105.818 11.3617 105.818 11.763C105.818 12.1335 105.987 12.5657 106.326 13.0597C106.666 13.5537 107.113 14.0786 107.668 14.6343C108.254 15.19 108.825 15.7303 109.38 16.2552C109.966 16.7801 110.49 17.2432 110.953 17.6445C111.415 18.0459 111.724 18.3238 111.878 18.4781C112.372 18.9721 112.711 19.4815 112.896 20.0064C113.081 20.5004 113.019 21.0098 112.711 21.5347C112.402 22.0595 111.847 22.5226 111.045 22.924C110.243 23.2945 109.364 23.5723 108.408 23.7576C107.452 23.9428 106.527 24.0046 105.632 23.9428C104.738 23.8811 104.06 23.665 103.597 23.2945C103.073 22.8622 102.826 22.3991 102.857 21.9051C102.887 21.4112 102.98 20.8709 103.134 20.2843C103.165 20.0681 103.273 19.9138 103.458 19.8211C103.674 19.6976 103.874 19.6513 104.06 19.6822C104.275 19.6822 104.46 19.7594 104.615 19.9138C104.769 20.0373 104.831 20.2071 104.8 20.4232C104.738 20.6393 104.692 20.8554 104.661 21.0715C104.661 21.2877 104.692 21.5038 104.753 21.7199C104.815 21.936 105.046 22.1058 105.447 22.2293C105.879 22.3528 106.357 22.4146 106.882 22.4146C107.406 22.4146 107.93 22.3683 108.455 22.2756C108.979 22.1521 109.38 21.9669 109.657 21.7199C109.966 21.442 110.089 21.1024 110.028 20.7011C109.997 20.2997 109.673 19.8211 109.056 19.2654C108.007 18.3701 106.974 17.4747 105.956 16.5794C104.969 15.684 104.275 14.696 103.874 13.6155C103.504 12.5657 103.474 11.7167 103.782 11.0683C104.09 10.42 104.538 9.97232 105.124 9.72533C105.586 9.54008 106.095 9.49377 106.65 9.58639C107.205 9.64814 107.745 9.81795 108.27 10.0958C108.825 10.3737 109.318 10.7596 109.75 11.2536C110.182 11.7167 110.49 12.2724 110.675 12.9208Z" fill="#009CDE"/>
</svg>
