<svg width="80" height="42" viewBox="0 0 80 42" fill="none" xmlns="http://www.w3.org/2000/svg">
<path d="M0 41.913H3.03056V41.0217H0.911737V39.8986H2.98562V39.0145H0.911737V37.9638H3.03056V37.0797H0V41.913Z" fill="black"/>
<path d="M5.31183 41.913H6.45471L8.10483 37.0797H7.06468L5.88327 40.7971L4.69544 37.0797H3.65529L5.31183 41.913Z" fill="black"/>
<path d="M8.86815 41.913H11.8987V41.0217H9.77989V39.8986H11.8538V39.0145H9.77989V37.9638H11.8987V37.0797H8.86815V41.913Z" fill="black"/>
<path d="M15.9328 41.913H16.8125V37.0797H15.9007V40.2101L13.9167 37.0797H12.9793V41.913H13.8911V38.6667L15.9328 41.913Z" fill="black"/>
<path d="M19.0135 41.913H19.9317V37.9855H21.1773V37.0797H17.7615V37.9855H19.0135V41.913Z" fill="black"/>
<path d="M21.7904 41.2319C22.1949 41.6884 22.7856 42 23.6074 42C24.7632 42 25.3218 41.3333 25.3218 40.4493C25.3218 39.3768 24.4229 39.1377 23.7166 38.9565C23.2222 38.8261 22.8626 38.7246 22.8626 38.3986C22.8626 38.1087 23.0809 37.9058 23.4919 37.9058C23.9092 37.9058 24.3715 38.0725 24.7182 38.4348L25.2255 37.6812C24.8017 37.2391 24.2367 37.0072 23.5561 37.0072C22.548 37.0072 21.9316 37.6594 21.9316 38.4638C21.9316 39.5435 22.8305 39.7609 23.5304 39.942C24.0248 40.0725 24.3972 40.1957 24.3972 40.558C24.3972 40.8333 24.1532 41.1014 23.6524 41.1014C23.0617 41.1014 22.593 40.8043 22.2912 40.4493L21.7904 41.2319Z" fill="black"/>
<path d="M31.1585 40.942C31.4025 40.5725 31.6015 40.1594 31.7556 39.7754L31.1007 39.4348C31.0237 39.7174 30.8888 40.058 30.7091 40.3696C30.5871 40.2101 30.4651 40.0507 30.3431 39.8768C30.2339 39.7319 30.1055 39.5507 29.9771 39.3551C30.5036 39.0797 31.0301 38.7681 31.0301 38.029C31.0301 37.3841 30.51 37.0072 29.9 37.0072C29.1873 37.0072 28.6801 37.5145 28.6801 38.1667C28.6801 38.4928 28.7957 38.8478 28.9626 39.2029C28.4747 39.4855 28.038 39.8623 28.038 40.6014C28.038 41.5362 28.6673 42 29.457 42C29.9193 42 30.2981 41.8261 30.6192 41.5507C30.7412 41.6884 30.8503 41.8188 30.9402 41.913H31.9803C31.685 41.5725 31.4153 41.2536 31.1585 40.942ZM29.4955 38.1884C29.4955 37.8913 29.6882 37.6739 29.945 37.6739C30.1569 37.6739 30.3174 37.8261 30.3174 38.0797C30.3174 38.4348 30.0413 38.6449 29.6817 38.8333C29.5726 38.6087 29.4955 38.3841 29.4955 38.1884ZM29.5662 41.2754C29.213 41.2754 28.9048 40.9855 28.9048 40.5145C28.9048 40.1812 29.0589 39.9565 29.2772 39.7754C29.4185 40 29.5662 40.2174 29.7074 40.413C29.8102 40.558 29.9899 40.7826 30.1826 41.0217C29.9964 41.1812 29.7909 41.2754 29.5662 41.2754Z" fill="black"/>
<path d="M34.8435 41.913H37.8741V41.0217H35.7552V39.8986H37.8291V39.0145H35.7552V37.9638H37.8741V37.0797H34.8435V41.913Z" fill="black"/>
<path d="M41.7477 41.913H42.8392L41.2854 39.4275L42.7429 37.0797H41.6449L40.6754 38.7319L39.693 37.0797H38.6079L40.0654 39.4348L38.5116 41.913H39.5967L40.6754 40.1449L41.7477 41.913Z" fill="black"/>
<path d="M43.6113 41.913H44.5231V40.1812H45.6146C46.5392 40.1812 47.0528 39.4783 47.0528 38.6377C47.0528 37.7899 46.5456 37.0797 45.6146 37.0797H43.6113V41.913ZM46.1218 38.6304C46.1218 39.0362 45.8522 39.2971 45.4926 39.2971H44.5231V37.9638H45.4926C45.8522 37.9638 46.1218 38.2319 46.1218 38.6304Z" fill="black"/>
<path d="M47.9858 41.913H51.0164V41.0217H48.8976V39.8986H50.9715V39.0145H48.8976V37.9638H51.0164V37.0797H47.9858V41.913Z" fill="black"/>
<path d="M54.5176 41.913H55.5642L54.6011 40.0725C55.0634 39.9493 55.5385 39.4928 55.5385 38.6377C55.5385 37.7391 54.9927 37.0797 54.1003 37.0797H52.097V41.913H53.0087V40.1812H53.6765L54.5176 41.913ZM54.6075 38.6304C54.6075 39.0362 54.3314 39.2971 53.9654 39.2971H53.0087V37.9638H53.9654C54.3314 37.9638 54.6075 38.2246 54.6075 38.6304Z" fill="black"/>
<path d="M56.5907 41.913H57.5024V37.0797H56.5907V41.913Z" fill="black"/>
<path d="M58.7204 41.913H61.751V41.0217H59.6322V39.8986H61.7061V39.0145H59.6322V37.9638H61.751V37.0797H58.7204V41.913Z" fill="black"/>
<path d="M65.7851 41.913H66.6647V37.0797H65.753V40.2101L63.769 37.0797H62.8316V41.913H63.7433V38.6667L65.7851 41.913Z" fill="black"/>
<path d="M69.9188 42C70.8947 42 71.4341 41.413 71.7423 40.8116L70.9589 40.3841C70.7792 40.7826 70.3939 41.087 69.9188 41.087C69.174 41.087 68.609 40.413 68.609 39.5C68.609 38.587 69.174 37.913 69.9188 37.913C70.3939 37.913 70.7792 38.2246 70.9589 38.6159L71.7423 38.1812C71.4405 37.5797 70.8947 37 69.9188 37C68.6668 37 67.6715 38.0145 67.6715 39.5C67.6715 40.9855 68.6668 42 69.9188 42Z" fill="black"/>
<path d="M72.6528 41.913H75.6834V41.0217H73.5646V39.8986H75.6384V39.0145H73.5646V37.9638H75.6834V37.0797H72.6528V41.913Z" fill="black"/>
<path d="M76.4686 41.2319C76.8731 41.6884 77.4638 42 78.2857 42C79.4414 42 80 41.3333 80 40.4493C80 39.3768 79.1011 39.1377 78.3948 38.9565C77.9004 38.8261 77.5409 38.7246 77.5409 38.3986C77.5409 38.1087 77.7592 37.9058 78.1701 37.9058C78.5874 37.9058 79.0497 38.0725 79.3965 38.4348L79.9037 37.6812C79.4799 37.2391 78.9149 37.0072 78.2343 37.0072C77.2263 37.0072 76.6099 37.6594 76.6099 38.4638C76.6099 39.5435 77.5088 39.7609 78.2086 39.942C78.703 40.0725 79.0754 40.1957 79.0754 40.558C79.0754 40.8333 78.8314 41.1014 78.3306 41.1014C77.7399 41.1014 77.2712 40.8043 76.9694 40.4493L76.4686 41.2319Z" fill="black"/>
<path d="M0 0V31.72H14.2933V30.3467H1.36V1.36H78.64V30.3467H65.6V31.72H80V0H0Z" fill="black"/>
<path d="M21.5438 34.1069V31.5203H18.2371V34.1069H17.0905V27.9336H18.2371V30.4803H21.5438V27.9336H22.6905V34.1069H21.5438Z" fill="black"/>
<path d="M31.5577 31.0143C31.5577 32.7743 30.091 34.1876 28.2777 34.1876C26.4643 34.1876 24.9977 32.7609 24.9977 31.0143C24.9977 29.2543 26.4643 27.8409 28.2777 27.8409C30.091 27.8543 31.5577 29.2676 31.5577 31.0143ZM26.211 31.0143C26.211 32.1609 27.1043 33.1076 28.291 33.1076C29.4643 33.1076 30.371 32.1743 30.371 31.0143C30.371 29.8676 29.4777 28.9209 28.291 28.9209C27.1043 28.9209 26.211 29.8676 26.211 31.0143Z" fill="black"/>
<path d="M38.2122 34.1069L34.9455 29.8003V34.1069H33.8255V27.9336H35.0388L38.3055 32.2536V27.9336H39.4255V34.1069H38.2122Z" fill="black"/>
<path d="M48.2224 31.0143C48.2224 32.7743 46.7557 34.1876 44.9424 34.1876C43.129 34.1876 41.6624 32.7609 41.6624 31.0143C41.6624 29.2543 43.129 27.8409 44.9424 27.8409C46.7557 27.8409 48.2224 29.2676 48.2224 31.0143ZM42.8624 31.0143C42.8624 32.1609 43.7557 33.1076 44.9424 33.1076C46.129 33.1076 47.0224 32.1743 47.0224 31.0143C47.0224 29.8676 46.129 28.9209 44.9424 28.9209C43.7557 28.9209 42.8624 29.8676 42.8624 31.0143Z" fill="black"/>
<path d="M53.2501 27.9336C55.1568 27.9336 55.9168 28.5336 55.9168 29.9603C55.9168 30.9869 55.5168 31.5736 54.5701 31.8269L56.1168 34.1069H54.7968L53.3568 31.9869C53.2368 32.0003 53.1301 32.0003 52.9568 32.0003H51.6768V34.1069H50.5301V27.9336H53.2501ZM51.6901 31.0936H53.2901C54.3168 31.0936 54.7034 30.7736 54.7034 30.0269C54.7034 29.2669 54.3168 28.9603 53.2901 28.9603H51.6901V31.0936Z" fill="black"/>
<path d="M62.8909 28.507L62.4109 29.4004C61.7443 29.027 60.9176 28.8137 60.2376 28.8137C59.6776 28.8137 59.1843 29.027 59.1843 29.5737C59.1843 29.9204 59.3843 30.067 60.5176 30.3737C62.0243 30.7737 63.0376 31.0404 63.0376 32.3204C63.0376 33.5604 61.9976 34.2004 60.5576 34.2004C59.4909 34.2004 58.4643 33.907 57.6776 33.387L58.1976 32.5204C58.9443 32.9737 59.8509 33.2004 60.6776 33.2004C61.2909 33.2004 61.8243 32.9737 61.8243 32.4404C61.8243 31.8137 61.4109 31.747 60.1843 31.4404C58.7443 31.0804 57.9309 30.747 57.9309 29.6937C57.9309 28.4004 59.0109 27.827 60.3443 27.827C61.2909 27.8537 62.2243 28.0937 62.8909 28.507Z" fill="black"/>
<path d="M21.3449 7.78676V21.9334L22.4516 22.0801V22.9067H16.9583V22.0801L18.1449 21.9334V15.5068H11.1183V21.9334L12.2116 22.0801V22.9067H6.81158V22.0801L7.90492 21.9334V7.78676L6.81158 7.65342V6.84009H12.2116V7.65342L11.1183 7.78676V13.8401H18.1449V7.78676L16.9583 7.65342V6.84009H22.4516V7.65342L21.3449 7.78676Z" fill="black"/>
<path d="M28.8259 22.027L29.8659 22.187V22.907H24.8126V22.187L25.8392 22.027V12.3603L24.8126 12.2137V11.4803H28.8259V22.027Z" fill="black"/>
<path d="M32.0388 22.2L33.0521 22.0533V7.6933L32.0388 7.55997V6.83997H36.0654V22.0533L37.0921 22.2V22.9066H32.0388V22.2Z" fill="black"/>
<path d="M43.2268 11.4803H45.9201V12.547H43.2134V19.347C43.2134 21.107 43.5868 21.667 45.1734 21.667C45.7601 21.667 46.2801 21.667 46.7734 21.547V22.3336C45.3201 22.8403 44.0801 23.067 43.0534 23.067C40.7334 23.067 40.2001 22.027 40.2001 20.027V12.5603H38.0934V11.4936H40.2934V9.09362L43.2268 8.21362V11.4936V11.4803Z" fill="black"/>
<path d="M59.4921 17.2931C59.4921 20.8531 57.0788 23.2531 53.2921 23.2531C49.6255 23.2531 47.2788 21.6931 47.2788 17.2931C47.2788 13.6132 49.6921 11.1465 53.4788 11.1465C57.2255 11.1598 59.4921 13.3732 59.4921 17.2931ZM56.1988 17.2265C56.1988 13.6132 55.1188 12.0265 53.3721 12.0265C51.6655 12.0265 50.5855 13.5332 50.5855 17.2265C50.5855 20.8665 51.6655 22.3731 53.3721 22.3731C55.1855 22.3731 56.1988 20.9331 56.1988 17.2265Z" fill="black"/>
<path d="M73.1855 22.187V22.9204H68.1321V22.187L69.1455 22.0404V15.5204C69.1455 13.707 68.4921 12.9204 67.1055 12.9204C66.4655 12.9204 65.4655 13.3604 64.7188 13.867V22.027L65.7455 22.1737V22.907H60.6655V22.1737L61.6921 22.027V12.427L60.6655 12.2804V11.467H64.6921V13.0537C65.9455 12.0537 67.1455 11.2404 68.8521 11.2404C71.1188 11.2404 72.1321 12.5604 72.1321 15.1337V22.0004L73.1855 22.187Z" fill="black"/>
<path d="M28.9741 8.4537C28.9741 9.34703 28.2408 10.0537 27.3608 10.0537C26.4808 10.0537 25.7474 9.32036 25.7474 8.4537C25.7474 7.56036 26.4808 6.8537 27.3608 6.8537C28.2408 6.84036 28.9741 7.56036 28.9741 8.4537Z" fill="black"/>
</svg>
