<svg width="154" height="38" viewBox="0 0 154 38" fill="none" xmlns="http://www.w3.org/2000/svg">
<path fill-rule="evenodd" clip-rule="evenodd" d="M93.3185 38H93.6815V0H93.3185V38Z" fill="#BD8B13"/>
<path fill-rule="evenodd" clip-rule="evenodd" d="M48 3L47.9288 2.9282L46.9997 2L46 3L46.9997 4L48 3Z" fill="#BD8B13"/>
<path fill-rule="evenodd" clip-rule="evenodd" d="M50 3L49.862 2.9282L48.9656 2L48 3L48.9656 4L50 3Z" fill="#BD8B13"/>
<path fill-rule="evenodd" clip-rule="evenodd" d="M34.5043 2.56529C34.5043 2.80574 34.7432 2.88632 34.9027 2.96625C35.1416 3.04619 35.3805 3.2067 35.3805 3.52708V12.2658H45.023V12.4263V12.6667C45.023 13.3881 45.2619 13.869 45.6603 14.0295C45.6603 14.0295 45.8992 14.19 46.2182 14.19C46.4571 14.19 46.6966 14.1101 46.9355 13.9489L47.095 13.869L46.9355 13.7091C46.6966 13.4687 46.5371 12.8273 46.5371 12.4263V12.3457H50.1226V4.32901C50.1226 4.32901 49.6448 5.37139 47.8918 6.65422C47.8918 6.65422 47.9712 6.9746 48.2901 7.13512C48.7679 7.37557 48.6885 7.61601 48.6885 7.61601V10.8231H46.4571V10.6626V10.502C46.4571 9.70012 46.2182 7.77653 44.0668 7.77653H43.9867H42.2337H42.0748C40.7996 7.77653 40.1624 7.61601 39.9228 7.29498L39.8434 7.13512L39.7633 7.21505C39.5244 7.37556 39.3649 7.69594 39.3649 8.01698C39.3649 8.49788 39.6839 9.13929 40.1624 9.13929H41.4369H43.1105C44.8635 9.13929 44.9429 9.94057 44.9429 10.2616V10.6626H36.8152V-0.000366211C36.8152 -0.000366211 35.8589 1.28246 34.5043 2.24491V2.32484V2.56529Z" fill="#BD8B13"/>
<path fill-rule="evenodd" clip-rule="evenodd" d="M28.9261 13.5484C28.9261 13.5484 28.7667 14.8312 31.3965 14.8312C33.5479 14.8312 33.628 13.4685 33.628 13.4685V8.49835C33.628 8.17732 33.5479 7.29545 32.6717 7.29545H25.1806V6.73397C25.1806 6.57345 25.2606 6.57345 25.4201 6.49352C25.8185 6.25307 25.8979 6.01263 25.8185 5.85211C24.9417 5.37121 24.0655 4.2489 24.0655 4.2489V8.57828H31.556H31.6354C31.875 8.57828 32.1933 8.65821 32.1933 9.13911V12.6666C32.1933 12.6666 32.1933 13.3879 31.4759 13.3879C30.2808 13.3879 30.3609 12.7465 30.3609 12.7465V10.8229H24.0655V12.3462H29.0062V13.5484H28.9261Z" fill="#BD8B13"/>
<path fill-rule="evenodd" clip-rule="evenodd" d="M60.2434 3.52733C60.2434 3.12637 60.4823 3.04643 60.6417 2.9665C60.8012 2.88592 60.9607 2.80599 61.0401 2.48561V2.40502C61.0401 2.2445 60.9607 2.2445 60.8012 2.16457C60.6417 2.08464 60.4028 1.92412 59.9244 1.52316C59.1276 0.881745 58.9681 0.561366 58.9681 0.561366L58.7292 0.1604V12.346H60.2434V3.52733Z" fill="#BD8B13"/>
<path fill-rule="evenodd" clip-rule="evenodd" d="M51.7164 13.8692L54.1867 16.3543L56.6571 13.8692L55.143 12.346L56.9761 10.4217V0.1604C56.9761 0.1604 56.2587 1.68368 55.0636 2.48561V2.56554C55.0636 2.80599 55.2224 2.88592 55.3819 2.96585C55.5414 3.04643 55.7008 3.20695 55.7008 3.52733V9.70037L54.1867 11.3036L52.6726 9.70037V3.52733C52.6726 3.12637 52.8321 3.04643 52.9916 2.96585C53.1511 2.88592 53.2305 2.80599 53.3099 2.56554V2.48561C52.1948 1.68368 51.3974 0.1604 51.3974 0.1604V10.5822L53.2305 12.4259L51.7164 13.8692ZM55.143 13.8692L54.1073 14.911L53.071 13.8692L54.1073 12.8268L55.143 13.8692Z" fill="#BD8B13"/>
<path fill-rule="evenodd" clip-rule="evenodd" d="M47.334 19.2405L47.7324 19.481C47.8125 19.5609 47.8125 19.5609 47.8125 19.6415V22.8479H40.8792L39.2857 24.8521V19.6415V19.5609L39.3651 19.481L39.6841 19.2405V18.9202H36.1774V19.2405L36.4963 19.481L36.5764 19.5609V29.1015V29.2614L36.4963 29.342L36.1774 29.5824V29.9028H39.6841V29.5824L39.2857 29.342L39.2063 29.2614V24.9327L39.6046 25.0133L40.0824 24.7722L40.3213 24.6916H40.4808H47.7324V28.0592L50.3623 25.2531V19.7214L50.4417 19.6415L50.8401 19.481V19.16H47.334V19.2405Z" fill="#BD8B13"/>
<path fill-rule="evenodd" clip-rule="evenodd" d="M84.7865 23.1691C84.3881 21.8863 83.4319 20.8439 81.9972 20.0426C80.7226 19.3206 78.8896 19.0002 76.4192 19.0002H66.9368V19.3206L67.3351 19.5611V20.6834H76.3398C78.1729 20.6834 79.5275 20.9238 80.3243 21.4054C81.5988 22.1267 82.2367 23.1691 82.2367 24.3713C82.2367 25.0121 82.0773 25.5742 81.7583 26.1351C81.44 26.616 80.8821 27.0969 80.2442 27.4172C79.368 27.8988 78.0134 28.1392 76.2604 28.1392H71.5585V21.4853H69.0087V29.1017V29.1816L68.9287 29.2616L68.6104 29.4221V29.7425H76.3398C77.8539 29.7425 78.9696 29.6625 79.8458 29.502C80.9615 29.2616 81.9972 28.8612 82.7946 28.2998C83.6708 27.7389 84.3087 27.0169 84.627 26.2949C84.8659 25.7341 85.0254 25.1733 85.0254 24.5319C84.946 24.051 84.8659 23.5694 84.7865 23.1691Z" fill="#BD8B13"/>
<path fill-rule="evenodd" clip-rule="evenodd" d="M55.7014 20.924L47.2546 29.7426H51.159V29.3423H50.9996H50.8407H50.6813L57.1361 22.5272L55.7014 20.924Z" fill="#BD8B13"/>
<path fill-rule="evenodd" clip-rule="evenodd" d="M64.2274 29.4219V29.8223H68.0517L57.8526 19.0001L56.3379 20.6033L58.0115 22.3671L59.7651 24.1308H56.8163L55.2228 25.8146L55.5417 26.0544L55.9401 25.8146H56.0195H56.2584H61.1992L64.6258 29.5019C64.6258 29.5019 64.5457 29.5825 64.3068 29.5825H64.2274V29.4219Z" fill="#BD8B13"/>
<path fill-rule="evenodd" clip-rule="evenodd" d="M34.6638 19.4811L34.9828 19.2407V18.9203H31.5562V19.2407L31.8745 19.4811L32.0339 19.6416V29.0211V29.1816L31.9545 29.2615L31.5562 29.422V29.7424H34.9828V29.422L34.6638 29.2615L34.5844 29.1816V19.6416V19.561L34.6638 19.4811Z" fill="#BD8B13"/>
<path fill-rule="evenodd" clip-rule="evenodd" d="M17.6109 27.6579H17.4514H17.053L16.5745 27.8984C16.4951 27.979 16.4157 27.979 16.3356 27.979H8.60624C6.85323 27.979 5.49794 27.7385 4.62176 27.2576C3.26713 26.5356 2.62985 25.5738 2.62985 24.2104C2.62985 23.6496 2.78933 23.0082 3.18706 22.5273C3.825 21.5655 4.78124 20.8441 6.21529 20.603C6.61433 20.5231 6.93264 20.5231 7.17154 20.5231H11.156C11.3949 20.5231 11.3949 20.603 11.3949 20.603L11.3155 20.9241H11.6345L13.3074 18.84H8.52617C7.41044 18.84 6.53426 18.84 5.97639 18.9199C5.65808 18.9199 5.33911 18.9998 5.10021 19.0804C4.30345 19.2403 3.5861 19.5613 2.86875 19.9623C1.6736 20.603 0.876179 21.4849 0.398382 22.4473C0.159484 23.0082 0 23.6496 0 24.3709C0 26.1353 0.956249 27.4981 2.78933 28.5404C3.5861 29.0207 4.54235 29.3417 5.57801 29.5016C6.37477 29.6628 7.41044 29.6628 8.68565 29.6628H15.8578L17.6109 27.6579Z" fill="#BD8B13"/>
<path fill-rule="evenodd" clip-rule="evenodd" d="M13.706 25.0929L15.3796 23.0082H4.1435L3.02777 24.692H13.1481C13.3076 24.692 13.387 24.7726 13.387 24.7726L13.3076 25.0929H13.706Z" fill="#BD8B13"/>
<path fill-rule="evenodd" clip-rule="evenodd" d="M14.5825 18.92L12.989 20.9242L13.3073 21.0048H13.3873L13.8651 20.7637C14.0246 20.6831 14.104 20.6032 14.2635 20.6032H20.4788V29.0208V29.1014L20.3994 29.1814L20.0804 29.4218V29.7428H23.5871V29.4218L23.2681 29.1814L23.1887 29.1014V29.0208V20.6032H28.6867C28.9256 20.6032 28.9256 20.6831 28.9256 20.6831V21.0048H29.2445L30.9181 18.92H14.5825Z" fill="#BD8B13"/>
<path fill-rule="evenodd" clip-rule="evenodd" d="M101.086 18.9514H101.84V29.104H106.571L106.828 29.7722H101.086V18.9514Z" fill="#BD8B13"/>
<path fill-rule="evenodd" clip-rule="evenodd" d="M108.401 29.7724H109.164V21.3285H108.401V29.7724ZM108.783 18.8428C109.124 18.8428 109.295 18.9915 109.295 19.2889C109.295 19.587 109.124 19.7358 108.783 19.7358C108.457 19.7358 108.295 19.5857 108.295 19.2857C108.295 18.9902 108.457 18.8428 108.783 18.8428Z" fill="#BD8B13"/>
<path fill-rule="evenodd" clip-rule="evenodd" d="M110.729 21.6233L111.85 21.375V20.0856C111.85 19.4278 112.028 18.9194 112.383 18.559C112.738 18.1993 113.24 18.0192 113.888 18.0192C114.589 18.0192 115.146 18.1928 115.561 18.5394V19.2856C115.157 18.8401 114.63 18.6173 113.982 18.6173C113.038 18.6173 112.566 19.1015 112.566 20.0699V21.3284H114.589L114.317 21.9266H112.566V29.7723H111.827V21.9266H110.729V21.6233Z" fill="#BD8B13"/>
<path fill-rule="evenodd" clip-rule="evenodd" d="M121.614 25.2664V24.7613C121.614 22.7263 120.747 21.7088 119.015 21.7088C118.184 21.7088 117.5 22.005 116.96 22.5986C116.421 23.1915 116.141 24.0806 116.12 25.2664H121.614ZM116.419 22.1747C117.133 21.4396 117.998 21.072 119.015 21.072C121.235 21.072 122.345 22.3326 122.345 24.855V25.8102H116.12C116.172 28.1983 117.258 29.3914 119.38 29.3914C120.615 29.3914 121.515 29.0186 122.08 28.273V29.0258C121.473 29.6836 120.553 30.0125 119.318 30.0125C116.673 30.0125 115.35 28.5266 115.35 25.5541C115.35 24.0367 115.706 22.9104 116.419 22.1747Z" fill="#BD8B13"/>
<path fill-rule="evenodd" clip-rule="evenodd" d="M123.943 28.3426C124.483 29.0417 125.328 29.3916 126.48 29.3916C127.222 29.3916 127.798 29.2271 128.207 28.8982C128.617 28.5693 128.822 28.1382 128.822 27.6049C128.822 27.0664 128.683 26.6726 128.402 26.4236C128.121 26.1753 127.657 25.986 127.009 25.8569L126.129 25.7016C124.672 25.4376 123.943 24.6638 123.943 23.3791C123.943 22.68 124.204 22.1205 124.725 21.7012C125.246 21.2818 125.948 21.0715 126.83 21.0715C128.039 21.0715 128.895 21.3408 129.398 21.88V22.7579C128.931 22.0484 128.086 21.6939 126.861 21.6939C126.161 21.6939 125.615 21.8355 125.223 22.1205C124.832 22.4055 124.636 22.8084 124.636 23.3286C124.636 23.8495 124.774 24.2341 125.049 24.4817C125.324 24.7307 125.764 24.9148 126.371 25.0334L127.243 25.1893C127.995 25.3393 128.562 25.5863 128.946 25.9303C129.33 26.2756 129.523 26.8069 129.523 27.5269C129.523 28.247 129.254 28.8412 128.717 29.3103C128.18 29.7781 127.439 30.0127 126.496 30.0127C125.318 30.0127 124.467 29.7513 123.943 29.2284V28.3426Z" fill="#BD8B13"/>
<path fill-rule="evenodd" clip-rule="evenodd" d="M130.648 21.6232L131.799 21.3284L132.196 19.4172H132.593V21.3284H134.982L134.725 21.9265H132.593V28.1173C132.593 28.9664 132.959 29.3909 133.691 29.3909C134.209 29.3909 134.614 29.1786 134.904 28.7548V29.4846C134.619 29.8364 134.167 30.0127 133.55 30.0127C132.414 30.0127 131.846 29.3909 131.846 28.1487V21.9265H130.648V21.6232Z" fill="#BD8B13"/>
<path fill-rule="evenodd" clip-rule="evenodd" d="M136.808 32.4284C137.783 32.4284 138.564 31.5328 139.15 29.7402L135.587 21.3285H136.395L139.516 28.7549L141.78 21.3285H142.535L140.029 29.2594C139.848 29.8339 139.673 30.3181 139.504 30.7119C139.336 31.105 139.123 31.4922 138.866 31.8728C138.609 32.2535 138.311 32.5398 137.971 32.7318C137.632 32.9231 137.249 33.0187 136.823 33.0187C136.227 33.0187 135.781 32.8582 135.485 32.5372V31.7916C135.791 32.2161 136.232 32.4284 136.808 32.4284Z" fill="#BD8B13"/>
<path fill-rule="evenodd" clip-rule="evenodd" d="M144.087 29.7723H144.819V18.2524H144.087V29.7723Z" fill="#BD8B13"/>
<path fill-rule="evenodd" clip-rule="evenodd" d="M153.081 25.2664V24.7613C153.081 22.7263 152.216 21.7088 150.482 21.7088C149.652 21.7088 148.967 22.005 148.428 22.5986C147.888 23.1915 147.608 24.0806 147.588 25.2664H153.081ZM147.887 22.1747C148.601 21.4396 149.466 21.072 150.482 21.072C152.703 21.072 153.812 22.3326 153.812 24.855V25.8102H147.588C147.64 28.1983 148.727 29.3914 150.848 29.3914C152.083 29.3914 152.983 29.0186 153.549 28.273V29.0258C152.941 29.6836 152.021 30.0125 150.786 30.0125C148.141 30.0125 146.817 28.5266 146.817 25.5541C146.817 24.0367 147.174 22.9104 147.887 22.1747Z" fill="#BD8B13"/>
</svg>