<svg width="37" height="37" viewBox="0 0 37 37" fill="none" xmlns="http://www.w3.org/2000/svg">
<path fill-rule="evenodd" clip-rule="evenodd" d="M18.3333 0C28.4567 0 36.665 8.20833 36.665 18.3333C36.665 28.4567 28.4567 36.665 18.3317 36.665C8.20833 36.665 0 28.4567 0 18.3317C0 8.20833 8.20833 0 18.3333 0ZM18.3333 30.2883C19.9153 30.3069 21.4852 30.0113 22.9521 29.4188C24.4189 28.8262 25.7537 27.9484 26.8788 26.8363C28.004 25.7242 28.8973 24.3998 29.5069 22.9399C30.1166 21.48 30.4304 19.9137 30.4303 18.3317C30.4302 16.7496 30.1161 15.1833 29.5063 13.7235C28.8965 12.2637 28.003 10.9395 26.8777 9.8275C25.7523 8.71553 24.4175 7.83793 22.9505 7.24558C21.4835 6.65322 19.9136 6.35788 18.3317 6.37667C15.1852 6.41382 12.1803 7.6898 9.96843 9.92792C7.75658 12.166 6.51616 15.1858 6.51616 18.3325C6.51616 21.4792 7.75658 24.499 9.96843 26.7371C12.1803 28.9752 15.1852 30.2512 18.3317 30.2883H18.3333ZM18.3333 24.2C16.7774 24.2 15.2852 23.5819 14.185 22.4817C13.0848 21.3815 12.4667 19.8893 12.4667 18.3333C12.4667 16.7774 13.0848 15.2852 14.185 14.185C15.2852 13.0848 16.7774 12.4667 18.3333 12.4667C19.8893 12.4667 21.3815 13.0848 22.4817 14.185C23.5819 15.2852 24.2 16.7774 24.2 18.3333C24.2 19.8893 23.5819 21.3815 22.4817 22.4817C21.3815 23.5819 19.8893 24.2 18.3333 24.2Z" fill="#CC0000"/>
</svg>
