<svg width="9" height="13" viewBox="0 0 9 13" fill="none" xmlns="http://www.w3.org/2000/svg">
<path d="M8.38569 6.10867L6.67264 5.23239C6.39993 5.0919 6.15483 4.89064 5.95189 4.64053C5.74895 4.39043 5.5923 4.09658 5.49122 3.77641L4.47284 0.555795C4.4573 0.506208 4.42863 0.463297 4.39077 0.432954C4.3529 0.402611 4.3077 0.386322 4.26136 0.386322C4.21503 0.386322 4.16982 0.402611 4.13196 0.432954C4.0941 0.463297 4.06543 0.506208 4.04989 0.555795L3.03151 3.77641C2.93043 4.09658 2.77378 4.39043 2.57083 4.64053C2.36789 4.89064 2.1228 5.0919 1.85009 5.23239L0.137032 6.10867C0.0961118 6.13018 0.0614657 6.16455 0.0371843 6.20771C0.0129029 6.25087 0 6.30101 0 6.35223C0 6.40345 0.0129029 6.4536 0.0371843 6.49675C0.0614657 6.53991 0.0961118 6.57427 0.137032 6.59579L1.85009 7.47341C2.12283 7.61349 2.36798 7.81446 2.57094 8.06436C2.7739 8.31426 2.93053 8.60798 3.03151 8.92805L4.04989 12.1487C4.06543 12.1983 4.0941 12.2412 4.13196 12.2715C4.16982 12.3019 4.21503 12.3181 4.26136 12.3181C4.3077 12.3181 4.3529 12.3019 4.39077 12.2715C4.42863 12.2412 4.4573 12.1983 4.47284 12.1487L5.49122 8.92805C5.59219 8.60798 5.74882 8.31426 5.95178 8.06436C6.15475 7.81446 6.39989 7.61349 6.67264 7.47341L8.38569 6.59579C8.42661 6.57427 8.46126 6.53991 8.48554 6.49675C8.50983 6.4536 8.52273 6.40345 8.52273 6.35223C8.52273 6.30101 8.50983 6.25087 8.48554 6.20771C8.46126 6.16455 8.42661 6.13018 8.38569 6.10867Z" fill="#790000"/>
</svg>
