<svg width="60" height="60" viewBox="0 0 60 60" fill="none" xmlns="http://www.w3.org/2000/svg">
<path d="M28.2741 24.0914L26.5597 23.2145C26.2868 23.0739 26.0415 22.8724 25.8384 22.6221C25.6353 22.3718 25.4785 22.0777 25.3773 21.7573L24.3582 18.5342C24.3426 18.4846 24.3139 18.4416 24.276 18.4113C24.2381 18.3809 24.1929 18.3646 24.1465 18.3646C24.1002 18.3646 24.0549 18.3809 24.017 18.4113C23.9791 18.4416 23.9504 18.4846 23.9349 18.5342L22.9157 21.7573C22.8146 22.0777 22.6578 22.3718 22.4547 22.6221C22.2516 22.8724 22.0063 23.0739 21.7334 23.2145L20.019 24.0914C19.978 24.1129 19.9433 24.1473 19.919 24.1905C19.8947 24.2337 19.8818 24.2839 19.8818 24.3352C19.8818 24.3864 19.8947 24.4366 19.919 24.4798C19.9433 24.523 19.978 24.5574 20.019 24.5789L21.7334 25.4572C22.0063 25.5974 22.2517 25.7985 22.4548 26.0486C22.6579 26.2987 22.8147 26.5927 22.9157 26.913L23.9349 30.1361C23.9504 30.1858 23.9791 30.2287 24.017 30.2591C24.0549 30.2894 24.1002 30.3057 24.1465 30.3057C24.1929 30.3057 24.2381 30.2894 24.276 30.2591C24.3139 30.2287 24.3426 30.1858 24.3582 30.1361L25.3773 26.913C25.4784 26.5927 25.6352 26.2987 25.8383 26.0486C26.0414 25.7985 26.2867 25.5974 26.5597 25.4572L28.2741 24.5789C28.315 24.5574 28.3497 24.523 28.374 24.4798C28.3983 24.4366 28.4112 24.3864 28.4112 24.3352C28.4112 24.2839 28.3983 24.2337 28.374 24.1905C28.3497 24.1473 28.315 24.1129 28.2741 24.0914Z" fill="#CC0000"/>
<path d="M31.5763 23.8823L28.4904 22.2537C27.9991 21.9926 27.5576 21.6185 27.192 21.1537C26.8264 20.6888 26.5442 20.1427 26.3621 19.5476L24.5276 13.5618C24.4996 13.4696 24.448 13.3899 24.3798 13.3335C24.3116 13.2771 24.2301 13.2468 24.1467 13.2468C24.0632 13.2468 23.9818 13.2771 23.9136 13.3335C23.8453 13.3899 23.7937 13.4696 23.7657 13.5618L21.9312 19.5476C21.7491 20.1427 21.4669 20.6888 21.1013 21.1537C20.7358 21.6185 20.2942 21.9926 19.803 22.2537L16.7171 23.8823C16.6434 23.9223 16.5809 23.9862 16.5372 24.0664C16.4935 24.1466 16.4702 24.2398 16.4702 24.335C16.4702 24.4302 16.4935 24.5234 16.5372 24.6036C16.5809 24.6838 16.6434 24.7477 16.7171 24.7877L19.803 26.4188C20.2943 26.6792 20.7359 27.0527 21.1015 27.5172C21.4671 27.9816 21.7493 28.5275 21.9312 29.1224L23.7657 35.1082C23.7937 35.2004 23.8453 35.2802 23.9136 35.3366C23.9818 35.3929 24.0632 35.4232 24.1467 35.4232C24.2301 35.4232 24.3116 35.3929 24.3798 35.3366C24.448 35.2802 24.4996 35.2004 24.5276 35.1082L26.3621 29.1224C26.544 28.5275 26.8262 27.9816 27.1918 27.5172C27.5574 27.0527 27.999 26.6792 28.4904 26.4188L31.5763 24.7877C31.65 24.7477 31.7124 24.6838 31.7561 24.6036C31.7999 24.5234 31.8231 24.4302 31.8231 24.335C31.8231 24.2398 31.7999 24.1466 31.7561 24.0664C31.7124 23.9862 31.65 23.9223 31.5763 23.8823Z" fill="#E92505"/>
<path d="M48.7453 13.8562L47.0309 12.9792C46.758 12.8386 46.5127 12.6372 46.3096 12.3869C46.1065 12.1366 45.9497 11.8425 45.8485 11.5221L44.8294 8.29894C44.8138 8.24931 44.7851 8.20637 44.7472 8.176C44.7093 8.14564 44.6641 8.12933 44.6177 8.12933C44.5713 8.12933 44.5261 8.14564 44.4882 8.176C44.4503 8.20637 44.4216 8.24931 44.4061 8.29894L43.3869 11.5221C43.2857 11.8425 43.129 12.1366 42.9259 12.3869C42.7228 12.6372 42.4775 12.8386 42.2046 12.9792L40.4902 13.8562C40.4492 13.8777 40.4145 13.9121 40.3902 13.9553C40.3659 13.9985 40.353 14.0486 40.353 14.0999C40.353 14.1512 40.3659 14.2013 40.3902 14.2445C40.4145 14.2877 40.4492 14.3221 40.4902 14.3437L42.2046 15.222C42.4775 15.3621 42.7229 15.5633 42.926 15.8134C43.1291 16.0635 43.2859 16.3574 43.3869 16.6777L44.4061 19.9009C44.4216 19.9505 44.4503 19.9934 44.4882 20.0238C44.5261 20.0542 44.5713 20.0705 44.6177 20.0705C44.6641 20.0705 44.7093 20.0542 44.7472 20.0238C44.7851 19.9934 44.8138 19.9505 44.8294 19.9009L45.8485 16.6777C45.9496 16.3574 46.1063 16.0635 46.3095 15.8134C46.5126 15.5633 46.7579 15.3621 47.0309 15.222L48.7453 14.3437C48.7862 14.3221 48.8209 14.2877 48.8452 14.2445C48.8695 14.2013 48.8824 14.1512 48.8824 14.0999C48.8824 14.0486 48.8695 13.9985 48.8452 13.9553C48.8209 13.9121 48.7862 13.8777 48.7453 13.8562Z" fill="#790000"/>
</svg>
