<svg width="221" height="38" viewBox="0 0 221 38" fill="none" xmlns="http://www.w3.org/2000/svg">
<g clip-path="url(#clip0)">
<path d="M217.444 0H218.796L212.006 11.6058L218.796 23.2235H217.444L210.681 11.6058L217.444 0ZM2.62766 0H1.27588L8.06578 11.6058L1.27588 23.2235H2.62766L9.39134 11.6058L2.62766 0Z" fill="white"/>
<path d="M1.27549 23.2235L8.0654 11.6058L1.27549 0H0L6.8352 11.6129L0.0023841 23.2235H1.27549Z" fill="#176FC1"/>
<path d="M217.444 0H2.62695L9.39063 11.6058L2.62695 23.2235H217.441L210.677 11.6058L217.444 0Z" fill="#176FC1"/>
<path d="M218.796 23.2235L212.006 11.6058L218.796 0H220.071L213.234 11.6129L220.066 23.2235H218.796Z" fill="#176FC1"/>
<path d="M116.425 8.39907L115.979 8.47775C114.873 5.43087 113.43 3.92174 111.13 3.92174H110.1V17.4515C110.1 18.3098 110.727 18.8772 112.848 18.9177V19.2539H104.099V18.9177C106.199 18.839 106.826 18.3098 106.826 17.4515V3.92174H105.756C103.512 3.92174 101.905 5.42849 100.928 8.47775L100.482 8.39907L100.947 3.40677H115.981L116.425 8.39907ZM100.139 3.74532C97.8477 4.11008 97.4305 4.96359 97.4305 7.15219V19.6329H96.1789L85.6721 6.08411H85.6316V15.4536C85.6316 17.6374 86.1132 18.6006 88.6022 18.9201V19.2562H82.0746V18.9201C84.3681 18.5768 84.9045 17.6374 84.9045 15.4536V6.26054C84.9045 4.92068 84.1869 3.81207 82.0746 3.74532V3.40916H87.794L96.6438 14.8981H96.7058V7.15219C96.7058 4.97312 96.0597 4.06478 93.6136 3.74532V3.40916H100.141L100.139 3.74532ZM31.9418 8.39907L31.496 8.47775C30.3897 5.43087 28.9474 3.92174 26.6467 3.92174H25.6168V17.4515C25.6168 18.3098 26.2438 18.8772 28.3656 18.9177V19.2539H19.616V18.9177C21.7164 18.839 22.3434 18.3098 22.3434 17.4515V3.92174H21.2729C19.0271 3.92174 17.4226 5.42849 16.4428 8.47775L15.9993 8.39907L16.4642 3.40677H31.4983L31.9418 8.39907ZM129.721 11.372C129.721 5.86478 128.016 3.52836 125.053 3.52836C122.094 3.52836 120.385 5.90531 120.385 11.353C120.385 16.9198 122.089 19.1776 125.053 19.1776C127.987 19.1752 129.721 16.8769 129.721 11.372ZM133.194 11.3124C133.194 16.3238 129.418 19.6925 125.053 19.6925C120.542 19.6925 116.909 16.4263 116.909 11.3911C116.909 6.40358 120.661 3.03247 125.053 3.03247C129.54 3.03247 133.194 6.27961 133.194 11.3124ZM78.477 11.372C78.477 5.86478 76.7723 3.54744 73.8089 3.54744C70.8502 3.54744 69.1408 5.90531 69.1408 11.353C69.1408 16.9198 70.8455 19.1776 73.8089 19.1776C76.7461 19.1752 78.477 16.8769 78.477 11.372ZM81.953 11.3124C81.953 16.3238 78.1766 19.6925 73.8089 19.6925C69.2982 19.6925 65.6672 16.4263 65.6672 11.3911C65.6672 6.40358 69.4198 3.03247 73.8089 3.03247C78.2958 3.03247 81.953 6.27961 81.953 11.3124Z" fill="white"/>
<path d="M60.5945 7.44782C60.5945 5.34028 59.5025 3.92174 56.4533 3.92174H54.9179V11.2528H56.3937C59.2832 11.2528 60.5945 9.81284 60.5945 7.44782ZM67.7897 19.2562H62.1727C61.5052 18.5815 60.5325 17.4658 59.4048 15.7111C57.1399 12.185 56.737 11.7702 55.4043 11.7702H54.9203V17.4515C54.9203 18.3622 55.2517 18.8486 57.3449 18.9177V19.2539H49.1007V18.9177C51.2679 18.8486 51.5873 18.3169 51.5873 17.4515V5.19008C51.5873 4.34849 51.2679 3.81445 49.1007 3.74293V3.40677H56.9611C61.448 3.40677 63.9727 4.83246 63.9727 7.40729C63.9727 9.29311 62.1751 11.0335 58.8207 11.6271V11.6677C60.1129 11.9251 61.0117 12.5641 62.2347 14.2043L63.608 16.0473C65.0956 18.0427 66.1136 18.8796 67.7897 18.9201V19.2562ZM45.2194 11.372C45.2194 5.86478 43.5148 3.52836 40.5514 3.52836C37.5927 3.52836 35.8833 5.90531 35.8833 11.353C35.8833 16.9198 37.5879 19.1776 40.5514 19.1776C43.4862 19.1752 45.2194 16.8769 45.2194 11.372ZM48.6931 11.3124C48.6931 16.3238 44.9143 19.6925 40.549 19.6925C36.0383 19.6925 32.4073 16.4263 32.4073 11.3911C32.4073 6.40358 36.1599 3.03247 40.549 3.03247C45.0382 3.03247 48.6931 6.27961 48.6931 11.3124ZM171.798 8.39907L171.352 8.47775C170.246 5.43087 168.804 3.92174 166.503 3.92174H165.471V17.4515C165.471 18.3098 165.936 18.8772 168.058 18.9177V19.2539H159.472V18.9177C161.573 18.839 162.2 18.3098 162.2 17.4515V3.92174H161.129C158.886 3.92174 157.279 5.42849 156.302 8.47775L155.858 8.39907L156.323 3.40677H171.357L171.798 8.39907ZM156.24 14.798C156.24 17.709 153.734 19.6902 149.247 19.6902C146.803 19.6902 145.042 19.0512 143.892 18.4814L143.103 19.4327H142.841L142.355 14.1233L142.758 14.0446C144.293 17.5707 145.89 19.1752 149.285 19.1752C151.846 19.1752 153.529 17.728 153.529 15.9853C153.529 14.2616 152.628 13.4915 149.466 12.4592L147.223 11.7273C144.81 10.9381 142.858 9.64357 142.858 7.13312C142.858 4.33896 145.425 3.03247 148.94 3.03247C151.083 3.03247 152.699 3.68571 153.586 4.21975L154.132 3.36863H154.435L154.859 8.39907L154.435 8.47775C153.364 5.32836 151.789 3.54505 148.918 3.54505C146.777 3.54505 145.583 4.71326 145.583 6.0412C145.583 7.6457 146.782 8.22026 148.937 8.91404L151.583 9.76516C154.285 10.633 156.24 12.0444 156.24 14.798ZM198.65 7.44782C198.65 5.34028 197.558 3.92174 194.509 3.92174H192.974V11.2528H194.45C197.339 11.2528 198.65 9.81284 198.65 7.44782ZM205.843 19.2562H200.226C199.559 18.5815 198.586 17.4658 197.458 15.7111C195.193 12.185 194.79 11.7702 193.455 11.7702H192.971V17.4515C192.971 18.3622 193.303 18.8486 195.396 18.9177V19.2539H187.152V18.9177C189.317 18.8486 189.636 18.3169 189.636 17.4515V5.21153C189.636 4.36995 189.317 3.81445 187.152 3.74532V3.40916H195.012C199.499 3.40916 202.024 4.83485 202.024 7.40967C202.024 9.29549 200.226 11.0359 196.872 11.6295V11.6701C198.164 11.9275 199.063 12.5665 200.286 14.2067L201.661 16.0496C203.149 18.0451 204.167 18.8819 205.843 18.9225V19.2562Z" fill="white"/>
<path d="M179.496 12.9171L176.95 5.90543H176.847L174.222 12.9171H179.496ZM187.235 19.2564H178.971V18.9202C180.662 18.8368 181.239 18.5888 181.234 17.9499C181.232 17.721 181.158 17.4397 181.031 17.0988L179.658 13.3748H174.02L173.314 15.1581C172.928 16.1284 172.787 16.8437 172.787 17.3777C172.787 18.3266 173.374 18.7438 174.766 18.9226V19.2588H169.249V18.9226C170.825 18.6246 171.7 17.6781 172.682 15.1986L177.553 2.91577H179.148L184.381 16.7817C184.908 18.174 185.37 18.6699 187.23 18.9202V19.2564" fill="white"/>
</g>
<mask id="path-8-outside-1" maskUnits="userSpaceOnUse" x="36" y="26.2236" width="148" height="12" fill="black">
<rect fill="white" x="36" y="26.2236" width="148" height="12"/>
<path d="M42.367 27.3773V28.4784H38.3663V31.5514H41.301V32.6526H38.3663V36.0008H42.8143V37.1212H37V27.3773H42.367Z"/>
<path d="M44.8606 27.3773L47.0662 33.933L47.4767 35.4375L47.8995 33.933L50.007 27.3773H51.4407L48.0404 37.2044H46.8947L43.4086 27.3773H44.8606Z"/>
<path d="M58.1372 27.3773V28.4784H54.1365V31.5514H57.0712V32.6526H54.1365V36.0008H58.5845V37.1212H52.7702V27.3773H58.1372Z"/>
<path d="M67.3947 27.3773V37.1212H66.1265L62.2666 30.9304L61.4089 29.3363L61.4824 31.0264V37.1212H60.2264V27.3773H61.4763L65.4648 33.8113L66.2245 35.2518L66.1387 33.6321V27.3773H67.3947Z"/>
<path d="M68.9632 28.4784V27.3773H76.1743V28.4784H73.2519V37.1212H71.8734V28.4784H68.9632Z"/>
<path d="M77.6754 35.4951C77.9245 35.6573 78.2533 35.7981 78.6618 35.9176C79.0702 36.0329 79.4746 36.0905 79.8749 36.0905C80.4794 36.0905 80.9389 35.9816 81.2534 35.764C81.572 35.5463 81.7313 35.2049 81.7313 34.7396C81.7313 34.4323 81.6537 34.1699 81.4984 33.9522C81.3473 33.7345 81.137 33.5403 80.8674 33.3696C80.5978 33.1989 80.1975 32.9791 79.6666 32.7102C78.9844 32.3645 78.4249 31.9505 77.9878 31.4682C77.5508 30.9859 77.3323 30.4225 77.3323 29.7781C77.3323 29.1891 77.4793 28.7089 77.7734 28.3376C78.0675 27.962 78.4473 27.691 78.913 27.5245C79.3786 27.3581 79.8851 27.2748 80.4324 27.2748C80.943 27.2748 81.382 27.3261 81.7496 27.4285C82.1172 27.5267 82.4011 27.644 82.6013 27.7806L82.3256 28.9074C82.0601 28.7409 81.7884 28.615 81.5107 28.5297C81.233 28.44 80.8674 28.3952 80.414 28.3952C80.1036 28.3952 79.8136 28.4379 79.544 28.5232C79.2744 28.6086 79.0559 28.7409 78.8885 28.9202C78.721 29.0994 78.6373 29.3214 78.6373 29.586C78.6373 29.8976 78.6965 30.1579 78.8149 30.367C78.9334 30.5719 79.1152 30.7618 79.3602 30.9368C79.6094 31.1075 79.9872 31.3295 80.4937 31.6026C81.0165 31.8843 81.4535 32.1511 81.8048 32.4029C82.1601 32.6504 82.4603 32.9556 82.7054 33.3184C82.9505 33.6812 83.073 34.0994 83.073 34.5732C83.073 35.1579 82.9423 35.6487 82.6809 36.0457C82.4236 36.4426 82.0621 36.7392 81.5965 36.9355C81.1308 37.1276 80.5876 37.2236 79.9668 37.2236C79.5828 37.2236 79.2111 37.1938 78.8517 37.134C78.4963 37.0743 78.1859 37.0017 77.9204 36.9163C77.659 36.831 77.4691 36.7477 77.3507 36.6667L77.6754 35.4951Z"/>
<path d="M94.9527 35.9688C95.1488 36.1011 95.3489 36.1993 95.5532 36.2633C95.7574 36.3273 95.9984 36.3743 96.2761 36.4042V37.1276C96.0678 37.1916 95.8289 37.2236 95.5593 37.2236C95.257 37.2236 94.9875 37.1831 94.7506 37.102C94.5177 37.0209 94.2788 36.8929 94.0337 36.7179C93.7601 36.8673 93.4517 36.9889 93.1086 37.0828C92.7696 37.1767 92.4428 37.2236 92.1283 37.2236C91.389 37.2236 90.7416 37.1255 90.1862 36.9291C89.6307 36.7328 89.1977 36.4383 88.8873 36.0457C88.5769 35.6487 88.4217 35.1664 88.4217 34.5988C88.4217 34.0354 88.5932 33.5467 88.9363 33.1327C89.2835 32.7145 89.7471 32.3645 90.3271 32.0828C90.0044 31.6346 89.7512 31.21 89.5674 30.8088C89.3835 30.4076 89.2916 29.9765 89.2916 29.5156C89.2916 29.0461 89.3958 28.6406 89.6041 28.2992C89.8124 27.9535 90.1065 27.6888 90.4864 27.5053C90.8703 27.3175 91.3176 27.2236 91.8281 27.2236C92.2897 27.2236 92.694 27.3261 93.0412 27.5309C93.3884 27.7358 93.6539 28.0068 93.8377 28.344C94.0256 28.6812 94.1195 29.0418 94.1195 29.4259C94.1195 29.9424 94.0378 30.3884 93.8744 30.764C93.7151 31.1353 93.4844 31.4554 93.1821 31.7243C92.884 31.9889 92.5041 32.2322 92.0426 32.4541C92.3121 32.8468 92.6573 33.3248 93.078 33.8882C93.5028 34.4515 93.8581 34.8997 94.144 35.2326C94.4789 34.8698 94.6464 34.3833 94.6464 33.7729C94.6464 33.3888 94.579 32.9513 94.4442 32.4605H95.6206C95.739 32.8916 95.7982 33.3312 95.7982 33.7793C95.7982 34.714 95.5164 35.4439 94.9527 35.9688ZM91.8036 28.2224C91.436 28.2224 91.1338 28.3248 90.8969 28.5297C90.66 28.7345 90.5415 29.0525 90.5415 29.4836C90.5415 29.7439 90.566 29.9658 90.615 30.1494C90.664 30.3329 90.7335 30.5036 90.8233 30.6615C90.9132 30.8152 91.0541 31.0286 91.2461 31.3017C91.3727 31.4853 91.4483 31.5941 91.4728 31.6282C91.967 31.4063 92.3407 31.1246 92.594 30.7832C92.8472 30.4375 92.9738 29.9915 92.9738 29.4451C92.9738 29.2574 92.9289 29.0696 92.839 28.8818C92.7492 28.694 92.6144 28.5382 92.4347 28.4144C92.259 28.2864 92.0487 28.2224 91.8036 28.2224ZM92.0487 36.2057C92.2652 36.2057 92.4612 36.1844 92.6368 36.1417C92.8166 36.099 93.0024 36.035 93.1944 35.9496C92.8676 35.5655 92.4939 35.0875 92.0732 34.5156C91.6525 33.9394 91.2726 33.4037 90.9336 32.9087C90.5456 33.1221 90.2413 33.3675 90.0207 33.6449C89.8002 33.9223 89.6899 34.2275 89.6899 34.5604C89.6899 34.8549 89.7675 35.1259 89.9227 35.3734C90.082 35.621 90.3373 35.8216 90.6885 35.9752C91.0398 36.1289 91.4932 36.2057 92.0487 36.2057Z"/>
<path d="M107.482 27.3773V28.4784H103.481V31.5514H106.416V32.6526H103.481V36.0008H107.929V37.1212H102.115V27.3773H107.482Z"/>
<path d="M116.182 37.1212H114.626L112.978 34.2531L112.34 33.1583L111.722 34.2531L110.116 37.1212H108.652L111.593 32.0892L108.664 27.3773L110.202 27.3709L111.722 29.9509L112.475 31.2441L114.656 27.3773H116.121L113.198 32.2941L116.182 37.1212Z"/>
<path d="M118.271 27.3773C118.488 27.3773 118.833 27.3602 119.307 27.3261C119.813 27.2919 120.215 27.2748 120.513 27.2748C121.555 27.2748 122.358 27.5331 122.921 28.0495C123.485 28.5617 123.767 29.3555 123.767 30.4311C123.767 31.1396 123.63 31.7435 123.356 32.2428C123.087 32.7422 122.684 33.1242 122.149 33.3888C121.618 33.6492 120.969 33.7793 120.201 33.7793C119.862 33.7793 119.537 33.7708 119.227 33.7537L118.994 33.7473V37.1212H117.628V27.3773H118.271ZM120.121 32.7294C120.571 32.7294 120.961 32.6675 121.292 32.5437C121.626 32.42 121.896 32.1895 122.1 31.8523C122.305 31.5151 122.407 31.0457 122.407 30.4439C122.407 29.7055 122.227 29.1635 121.867 28.8177C121.512 28.472 120.979 28.2992 120.268 28.2992C119.729 28.2992 119.304 28.3397 118.994 28.4208V32.6654C119.296 32.7081 119.672 32.7294 120.121 32.7294Z"/>
<path d="M130.776 27.3773V28.4784H126.775V31.5514H129.71V32.6526H126.775V36.0008H131.223V37.1212H125.409V27.3773H130.776Z"/>
<path d="M139.31 36.4042C139.445 36.6688 139.57 36.9078 139.684 37.1212H138.134C138.073 37.0273 138.005 36.8929 137.932 36.7179L137.797 36.4042C137.719 36.2334 137.599 35.924 137.436 35.4759C137.264 34.9979 137.109 34.6031 136.97 34.2915C136.835 33.9757 136.674 33.694 136.486 33.4464C136.302 33.1989 136.094 33.0367 135.861 32.9599C135.62 32.9684 135.079 32.9727 134.237 32.9727V37.1212H132.871V27.3773H133.465C133.686 27.3773 134.007 27.3623 134.427 27.3325C135.081 27.2941 135.553 27.2748 135.843 27.2748C136.839 27.2748 137.617 27.4989 138.177 27.9471C138.736 28.3909 139.016 29.0802 139.016 30.0149C139.016 30.7149 138.869 31.2911 138.575 31.7435C138.285 32.1959 137.87 32.5203 137.331 32.7166C137.515 32.8489 137.687 33.0367 137.846 33.28C138.005 33.5232 138.148 33.7836 138.275 34.061C138.406 34.3342 138.561 34.6906 138.74 35.1302C138.994 35.732 139.184 36.1566 139.31 36.4042ZM134.237 31.9611C134.454 31.9868 134.934 31.9996 135.677 31.9996C136.302 31.9996 136.782 31.8459 137.117 31.5386C137.452 31.227 137.619 30.7426 137.619 30.0853C137.619 29.6756 137.552 29.3427 137.417 29.0866C137.286 28.8263 137.076 28.6342 136.786 28.5104C136.5 28.3867 136.118 28.3248 135.64 28.3248C135.069 28.3248 134.601 28.3632 134.237 28.44V31.9611Z"/>
<path d="M142.717 27.3773V37.1212H141.332V27.3773H142.717Z"/>
<path d="M150.541 27.3773V28.4784H146.54V31.5514H149.475V32.6526H146.54V36.0008H150.988V37.1212H145.174V27.3773H150.541Z"/>
<path d="M159.798 27.3773V37.1212H158.53L154.67 30.9304L153.812 29.3363L153.886 31.0264V37.1212H152.63V27.3773H153.88L157.868 33.8113L158.628 35.2518L158.542 33.6321V27.3773H159.798Z"/>
<path d="M165.876 27.2748C166.399 27.2748 166.834 27.3047 167.181 27.3645C167.528 27.4242 167.847 27.4989 168.137 27.5885L168.32 27.6398L168.124 28.9074C167.973 28.8263 167.83 28.758 167.695 28.7025C167.561 28.6428 167.344 28.583 167.046 28.5232C166.748 28.4635 166.388 28.4336 165.968 28.4336C165.343 28.4336 164.8 28.5873 164.338 28.8946C163.881 29.2019 163.529 29.6393 163.284 30.207C163.039 30.7746 162.917 31.4404 162.917 32.2044C162.917 32.9641 163.039 33.6385 163.284 34.2275C163.529 34.8165 163.881 35.2753 164.338 35.6039C164.8 35.9326 165.341 36.0969 165.962 36.0969C166.268 36.0969 166.578 36.0691 166.893 36.0136C167.207 35.9582 167.485 35.8856 167.726 35.796C167.967 35.7021 168.143 35.6039 168.253 35.5015L168.259 36.7115C167.994 36.8224 167.765 36.9121 167.573 36.9804C167.385 37.0444 167.148 37.0999 166.862 37.1468C166.58 37.198 166.262 37.2236 165.906 37.2236C165.036 37.2236 164.273 37.0188 163.615 36.609C162.962 36.1993 162.455 35.6231 162.096 34.8805C161.74 34.1378 161.563 33.2778 161.563 32.3005C161.563 31.2633 161.759 30.3649 162.151 29.6052C162.543 28.8455 163.068 28.2672 163.725 27.8702C164.383 27.4733 165.1 27.2748 165.876 27.2748Z"/>
<path d="M175.587 27.3773V28.4784H171.586V31.5514H174.521V32.6526H171.586V36.0008H176.034V37.1212H170.22V27.3773H175.587Z"/>
<path d="M177.602 35.4951C177.852 35.6573 178.18 35.7981 178.589 35.9176C178.997 36.0329 179.402 36.0905 179.802 36.0905C180.406 36.0905 180.866 35.9816 181.18 35.764C181.499 35.5463 181.658 35.2049 181.658 34.7396C181.658 34.4323 181.581 34.1699 181.425 33.9522C181.274 33.7345 181.064 33.5403 180.794 33.3696C180.525 33.1989 180.125 32.9791 179.594 32.7102C178.911 32.3645 178.352 31.9505 177.915 31.4682C177.478 30.9859 177.259 30.4225 177.259 29.7781C177.259 29.1891 177.406 28.7089 177.7 28.3376C177.994 27.962 178.374 27.691 178.84 27.5245C179.306 27.3581 179.812 27.2748 180.359 27.2748C180.87 27.2748 181.309 27.3261 181.677 27.4285C182.044 27.5267 182.328 27.644 182.528 27.7806L182.253 28.9074C181.987 28.7409 181.715 28.615 181.438 28.5297C181.16 28.44 180.794 28.3952 180.341 28.3952C180.031 28.3952 179.741 28.4379 179.471 28.5232C179.201 28.6086 178.983 28.7409 178.815 28.9202C178.648 29.0994 178.564 29.3214 178.564 29.586C178.564 29.8976 178.623 30.1579 178.742 30.367C178.86 30.5719 179.042 30.7618 179.287 30.9368C179.536 31.1075 179.914 31.3295 180.421 31.6026C180.943 31.8843 181.381 32.1511 181.732 32.4029C182.087 32.6504 182.387 32.9556 182.632 33.3184C182.877 33.6812 183 34.0994 183 34.5732C183 35.1579 182.869 35.6487 182.608 36.0457C182.351 36.4426 181.989 36.7392 181.523 36.9355C181.058 37.1276 180.515 37.2236 179.894 37.2236C179.51 37.2236 179.138 37.1938 178.779 37.134C178.423 37.0743 178.113 37.0017 177.847 36.9163C177.586 36.831 177.396 36.7477 177.278 36.6667L177.602 35.4951Z"/>
</mask>
<path d="M42.367 27.3773V28.4784H38.3663V31.5514H41.301V32.6526H38.3663V36.0008H42.8143V37.1212H37V27.3773H42.367Z" fill="#006ED2"/>
<path d="M44.8606 27.3773L47.0662 33.933L47.4767 35.4375L47.8995 33.933L50.007 27.3773H51.4407L48.0404 37.2044H46.8947L43.4086 27.3773H44.8606Z" fill="#006ED2"/>
<path d="M58.1372 27.3773V28.4784H54.1365V31.5514H57.0712V32.6526H54.1365V36.0008H58.5845V37.1212H52.7702V27.3773H58.1372Z" fill="#006ED2"/>
<path d="M67.3947 27.3773V37.1212H66.1265L62.2666 30.9304L61.4089 29.3363L61.4824 31.0264V37.1212H60.2264V27.3773H61.4763L65.4648 33.8113L66.2245 35.2518L66.1387 33.6321V27.3773H67.3947Z" fill="#006ED2"/>
<path d="M68.9632 28.4784V27.3773H76.1743V28.4784H73.2519V37.1212H71.8734V28.4784H68.9632Z" fill="#006ED2"/>
<path d="M77.6754 35.4951C77.9245 35.6573 78.2533 35.7981 78.6618 35.9176C79.0702 36.0329 79.4746 36.0905 79.8749 36.0905C80.4794 36.0905 80.9389 35.9816 81.2534 35.764C81.572 35.5463 81.7313 35.2049 81.7313 34.7396C81.7313 34.4323 81.6537 34.1699 81.4984 33.9522C81.3473 33.7345 81.137 33.5403 80.8674 33.3696C80.5978 33.1989 80.1975 32.9791 79.6666 32.7102C78.9844 32.3645 78.4249 31.9505 77.9878 31.4682C77.5508 30.9859 77.3323 30.4225 77.3323 29.7781C77.3323 29.1891 77.4793 28.7089 77.7734 28.3376C78.0675 27.962 78.4473 27.691 78.913 27.5245C79.3786 27.3581 79.8851 27.2748 80.4324 27.2748C80.943 27.2748 81.382 27.3261 81.7496 27.4285C82.1172 27.5267 82.4011 27.644 82.6013 27.7806L82.3256 28.9074C82.0601 28.7409 81.7884 28.615 81.5107 28.5297C81.233 28.44 80.8674 28.3952 80.414 28.3952C80.1036 28.3952 79.8136 28.4379 79.544 28.5232C79.2744 28.6086 79.0559 28.7409 78.8885 28.9202C78.721 29.0994 78.6373 29.3214 78.6373 29.586C78.6373 29.8976 78.6965 30.1579 78.8149 30.367C78.9334 30.5719 79.1152 30.7618 79.3602 30.9368C79.6094 31.1075 79.9872 31.3295 80.4937 31.6026C81.0165 31.8843 81.4535 32.1511 81.8048 32.4029C82.1601 32.6504 82.4603 32.9556 82.7054 33.3184C82.9505 33.6812 83.073 34.0994 83.073 34.5732C83.073 35.1579 82.9423 35.6487 82.6809 36.0457C82.4236 36.4426 82.0621 36.7392 81.5965 36.9355C81.1308 37.1276 80.5876 37.2236 79.9668 37.2236C79.5828 37.2236 79.2111 37.1938 78.8517 37.134C78.4963 37.0743 78.1859 37.0017 77.9204 36.9163C77.659 36.831 77.4691 36.7477 77.3507 36.6667L77.6754 35.4951Z" fill="#006ED2"/>
<path d="M94.9527 35.9688C95.1488 36.1011 95.3489 36.1993 95.5532 36.2633C95.7574 36.3273 95.9984 36.3743 96.2761 36.4042V37.1276C96.0678 37.1916 95.8289 37.2236 95.5593 37.2236C95.257 37.2236 94.9875 37.1831 94.7506 37.102C94.5177 37.0209 94.2788 36.8929 94.0337 36.7179C93.7601 36.8673 93.4517 36.9889 93.1086 37.0828C92.7696 37.1767 92.4428 37.2236 92.1283 37.2236C91.389 37.2236 90.7416 37.1255 90.1862 36.9291C89.6307 36.7328 89.1977 36.4383 88.8873 36.0457C88.5769 35.6487 88.4217 35.1664 88.4217 34.5988C88.4217 34.0354 88.5932 33.5467 88.9363 33.1327C89.2835 32.7145 89.7471 32.3645 90.3271 32.0828C90.0044 31.6346 89.7512 31.21 89.5674 30.8088C89.3835 30.4076 89.2916 29.9765 89.2916 29.5156C89.2916 29.0461 89.3958 28.6406 89.6041 28.2992C89.8124 27.9535 90.1065 27.6888 90.4864 27.5053C90.8703 27.3175 91.3176 27.2236 91.8281 27.2236C92.2897 27.2236 92.694 27.3261 93.0412 27.5309C93.3884 27.7358 93.6539 28.0068 93.8377 28.344C94.0256 28.6812 94.1195 29.0418 94.1195 29.4259C94.1195 29.9424 94.0378 30.3884 93.8744 30.764C93.7151 31.1353 93.4844 31.4554 93.1821 31.7243C92.884 31.9889 92.5041 32.2322 92.0426 32.4541C92.3121 32.8468 92.6573 33.3248 93.078 33.8882C93.5028 34.4515 93.8581 34.8997 94.144 35.2326C94.4789 34.8698 94.6464 34.3833 94.6464 33.7729C94.6464 33.3888 94.579 32.9513 94.4442 32.4605H95.6206C95.739 32.8916 95.7982 33.3312 95.7982 33.7793C95.7982 34.714 95.5164 35.4439 94.9527 35.9688ZM91.8036 28.2224C91.436 28.2224 91.1338 28.3248 90.8969 28.5297C90.66 28.7345 90.5415 29.0525 90.5415 29.4836C90.5415 29.7439 90.566 29.9658 90.615 30.1494C90.664 30.3329 90.7335 30.5036 90.8233 30.6615C90.9132 30.8152 91.0541 31.0286 91.2461 31.3017C91.3727 31.4853 91.4483 31.5941 91.4728 31.6282C91.967 31.4063 92.3407 31.1246 92.594 30.7832C92.8472 30.4375 92.9738 29.9915 92.9738 29.4451C92.9738 29.2574 92.9289 29.0696 92.839 28.8818C92.7492 28.694 92.6144 28.5382 92.4347 28.4144C92.259 28.2864 92.0487 28.2224 91.8036 28.2224ZM92.0487 36.2057C92.2652 36.2057 92.4612 36.1844 92.6368 36.1417C92.8166 36.099 93.0024 36.035 93.1944 35.9496C92.8676 35.5655 92.4939 35.0875 92.0732 34.5156C91.6525 33.9394 91.2726 33.4037 90.9336 32.9087C90.5456 33.1221 90.2413 33.3675 90.0207 33.6449C89.8002 33.9223 89.6899 34.2275 89.6899 34.5604C89.6899 34.8549 89.7675 35.1259 89.9227 35.3734C90.082 35.621 90.3373 35.8216 90.6885 35.9752C91.0398 36.1289 91.4932 36.2057 92.0487 36.2057Z" fill="#006ED2"/>
<path d="M107.482 27.3773V28.4784H103.481V31.5514H106.416V32.6526H103.481V36.0008H107.929V37.1212H102.115V27.3773H107.482Z" fill="#006ED2"/>
<path d="M116.182 37.1212H114.626L112.978 34.2531L112.34 33.1583L111.722 34.2531L110.116 37.1212H108.652L111.593 32.0892L108.664 27.3773L110.202 27.3709L111.722 29.9509L112.475 31.2441L114.656 27.3773H116.121L113.198 32.2941L116.182 37.1212Z" fill="#006ED2"/>
<path d="M118.271 27.3773C118.488 27.3773 118.833 27.3602 119.307 27.3261C119.813 27.2919 120.215 27.2748 120.513 27.2748C121.555 27.2748 122.358 27.5331 122.921 28.0495C123.485 28.5617 123.767 29.3555 123.767 30.4311C123.767 31.1396 123.63 31.7435 123.356 32.2428C123.087 32.7422 122.684 33.1242 122.149 33.3888C121.618 33.6492 120.969 33.7793 120.201 33.7793C119.862 33.7793 119.537 33.7708 119.227 33.7537L118.994 33.7473V37.1212H117.628V27.3773H118.271ZM120.121 32.7294C120.571 32.7294 120.961 32.6675 121.292 32.5437C121.626 32.42 121.896 32.1895 122.1 31.8523C122.305 31.5151 122.407 31.0457 122.407 30.4439C122.407 29.7055 122.227 29.1635 121.867 28.8177C121.512 28.472 120.979 28.2992 120.268 28.2992C119.729 28.2992 119.304 28.3397 118.994 28.4208V32.6654C119.296 32.7081 119.672 32.7294 120.121 32.7294Z" fill="#006ED2"/>
<path d="M130.776 27.3773V28.4784H126.775V31.5514H129.71V32.6526H126.775V36.0008H131.223V37.1212H125.409V27.3773H130.776Z" fill="#006ED2"/>
<path d="M139.31 36.4042C139.445 36.6688 139.57 36.9078 139.684 37.1212H138.134C138.073 37.0273 138.005 36.8929 137.932 36.7179L137.797 36.4042C137.719 36.2334 137.599 35.924 137.436 35.4759C137.264 34.9979 137.109 34.6031 136.97 34.2915C136.835 33.9757 136.674 33.694 136.486 33.4464C136.302 33.1989 136.094 33.0367 135.861 32.9599C135.62 32.9684 135.079 32.9727 134.237 32.9727V37.1212H132.871V27.3773H133.465C133.686 27.3773 134.007 27.3623 134.427 27.3325C135.081 27.2941 135.553 27.2748 135.843 27.2748C136.839 27.2748 137.617 27.4989 138.177 27.9471C138.736 28.3909 139.016 29.0802 139.016 30.0149C139.016 30.7149 138.869 31.2911 138.575 31.7435C138.285 32.1959 137.87 32.5203 137.331 32.7166C137.515 32.8489 137.687 33.0367 137.846 33.28C138.005 33.5232 138.148 33.7836 138.275 34.061C138.406 34.3342 138.561 34.6906 138.74 35.1302C138.994 35.732 139.184 36.1566 139.31 36.4042ZM134.237 31.9611C134.454 31.9868 134.934 31.9996 135.677 31.9996C136.302 31.9996 136.782 31.8459 137.117 31.5386C137.452 31.227 137.619 30.7426 137.619 30.0853C137.619 29.6756 137.552 29.3427 137.417 29.0866C137.286 28.8263 137.076 28.6342 136.786 28.5104C136.5 28.3867 136.118 28.3248 135.64 28.3248C135.069 28.3248 134.601 28.3632 134.237 28.44V31.9611Z" fill="#006ED2"/>
<path d="M142.717 27.3773V37.1212H141.332V27.3773H142.717Z" fill="#006ED2"/>
<path d="M150.541 27.3773V28.4784H146.54V31.5514H149.475V32.6526H146.54V36.0008H150.988V37.1212H145.174V27.3773H150.541Z" fill="#006ED2"/>
<path d="M159.798 27.3773V37.1212H158.53L154.67 30.9304L153.812 29.3363L153.886 31.0264V37.1212H152.63V27.3773H153.88L157.868 33.8113L158.628 35.2518L158.542 33.6321V27.3773H159.798Z" fill="#006ED2"/>
<path d="M165.876 27.2748C166.399 27.2748 166.834 27.3047 167.181 27.3645C167.528 27.4242 167.847 27.4989 168.137 27.5885L168.32 27.6398L168.124 28.9074C167.973 28.8263 167.83 28.758 167.695 28.7025C167.561 28.6428 167.344 28.583 167.046 28.5232C166.748 28.4635 166.388 28.4336 165.968 28.4336C165.343 28.4336 164.8 28.5873 164.338 28.8946C163.881 29.2019 163.529 29.6393 163.284 30.207C163.039 30.7746 162.917 31.4404 162.917 32.2044C162.917 32.9641 163.039 33.6385 163.284 34.2275C163.529 34.8165 163.881 35.2753 164.338 35.6039C164.8 35.9326 165.341 36.0969 165.962 36.0969C166.268 36.0969 166.578 36.0691 166.893 36.0136C167.207 35.9582 167.485 35.8856 167.726 35.796C167.967 35.7021 168.143 35.6039 168.253 35.5015L168.259 36.7115C167.994 36.8224 167.765 36.9121 167.573 36.9804C167.385 37.0444 167.148 37.0999 166.862 37.1468C166.58 37.198 166.262 37.2236 165.906 37.2236C165.036 37.2236 164.273 37.0188 163.615 36.609C162.962 36.1993 162.455 35.6231 162.096 34.8805C161.74 34.1378 161.563 33.2778 161.563 32.3005C161.563 31.2633 161.759 30.3649 162.151 29.6052C162.543 28.8455 163.068 28.2672 163.725 27.8702C164.383 27.4733 165.1 27.2748 165.876 27.2748Z" fill="#006ED2"/>
<path d="M175.587 27.3773V28.4784H171.586V31.5514H174.521V32.6526H171.586V36.0008H176.034V37.1212H170.22V27.3773H175.587Z" fill="#006ED2"/>
<path d="M177.602 35.4951C177.852 35.6573 178.18 35.7981 178.589 35.9176C178.997 36.0329 179.402 36.0905 179.802 36.0905C180.406 36.0905 180.866 35.9816 181.18 35.764C181.499 35.5463 181.658 35.2049 181.658 34.7396C181.658 34.4323 181.581 34.1699 181.425 33.9522C181.274 33.7345 181.064 33.5403 180.794 33.3696C180.525 33.1989 180.125 32.9791 179.594 32.7102C178.911 32.3645 178.352 31.9505 177.915 31.4682C177.478 30.9859 177.259 30.4225 177.259 29.7781C177.259 29.1891 177.406 28.7089 177.7 28.3376C177.994 27.962 178.374 27.691 178.84 27.5245C179.306 27.3581 179.812 27.2748 180.359 27.2748C180.87 27.2748 181.309 27.3261 181.677 27.4285C182.044 27.5267 182.328 27.644 182.528 27.7806L182.253 28.9074C181.987 28.7409 181.715 28.615 181.438 28.5297C181.16 28.44 180.794 28.3952 180.341 28.3952C180.031 28.3952 179.741 28.4379 179.471 28.5232C179.201 28.6086 178.983 28.7409 178.815 28.9202C178.648 29.0994 178.564 29.3214 178.564 29.586C178.564 29.8976 178.623 30.1579 178.742 30.367C178.86 30.5719 179.042 30.7618 179.287 30.9368C179.536 31.1075 179.914 31.3295 180.421 31.6026C180.943 31.8843 181.381 32.1511 181.732 32.4029C182.087 32.6504 182.387 32.9556 182.632 33.3184C182.877 33.6812 183 34.0994 183 34.5732C183 35.1579 182.869 35.6487 182.608 36.0457C182.351 36.4426 181.989 36.7392 181.523 36.9355C181.058 37.1276 180.515 37.2236 179.894 37.2236C179.51 37.2236 179.138 37.1938 178.779 37.134C178.423 37.0743 178.113 37.0017 177.847 36.9163C177.586 36.831 177.396 36.7477 177.278 36.6667L177.602 35.4951Z" fill="#006ED2"/>
<path d="M42.367 27.3773V28.4784H38.3663V31.5514H41.301V32.6526H38.3663V36.0008H42.8143V37.1212H37V27.3773H42.367Z" stroke="#006ED2" stroke-width="0.2" mask="url(#path-8-outside-1)"/>
<path d="M44.8606 27.3773L47.0662 33.933L47.4767 35.4375L47.8995 33.933L50.007 27.3773H51.4407L48.0404 37.2044H46.8947L43.4086 27.3773H44.8606Z" stroke="#006ED2" stroke-width="0.2" mask="url(#path-8-outside-1)"/>
<path d="M58.1372 27.3773V28.4784H54.1365V31.5514H57.0712V32.6526H54.1365V36.0008H58.5845V37.1212H52.7702V27.3773H58.1372Z" stroke="#006ED2" stroke-width="0.2" mask="url(#path-8-outside-1)"/>
<path d="M67.3947 27.3773V37.1212H66.1265L62.2666 30.9304L61.4089 29.3363L61.4824 31.0264V37.1212H60.2264V27.3773H61.4763L65.4648 33.8113L66.2245 35.2518L66.1387 33.6321V27.3773H67.3947Z" stroke="#006ED2" stroke-width="0.2" mask="url(#path-8-outside-1)"/>
<path d="M68.9632 28.4784V27.3773H76.1743V28.4784H73.2519V37.1212H71.8734V28.4784H68.9632Z" stroke="#006ED2" stroke-width="0.2" mask="url(#path-8-outside-1)"/>
<path d="M77.6754 35.4951C77.9245 35.6573 78.2533 35.7981 78.6618 35.9176C79.0702 36.0329 79.4746 36.0905 79.8749 36.0905C80.4794 36.0905 80.9389 35.9816 81.2534 35.764C81.572 35.5463 81.7313 35.2049 81.7313 34.7396C81.7313 34.4323 81.6537 34.1699 81.4984 33.9522C81.3473 33.7345 81.137 33.5403 80.8674 33.3696C80.5978 33.1989 80.1975 32.9791 79.6666 32.7102C78.9844 32.3645 78.4249 31.9505 77.9878 31.4682C77.5508 30.9859 77.3323 30.4225 77.3323 29.7781C77.3323 29.1891 77.4793 28.7089 77.7734 28.3376C78.0675 27.962 78.4473 27.691 78.913 27.5245C79.3786 27.3581 79.8851 27.2748 80.4324 27.2748C80.943 27.2748 81.382 27.3261 81.7496 27.4285C82.1172 27.5267 82.4011 27.644 82.6013 27.7806L82.3256 28.9074C82.0601 28.7409 81.7884 28.615 81.5107 28.5297C81.233 28.44 80.8674 28.3952 80.414 28.3952C80.1036 28.3952 79.8136 28.4379 79.544 28.5232C79.2744 28.6086 79.0559 28.7409 78.8885 28.9202C78.721 29.0994 78.6373 29.3214 78.6373 29.586C78.6373 29.8976 78.6965 30.1579 78.8149 30.367C78.9334 30.5719 79.1152 30.7618 79.3602 30.9368C79.6094 31.1075 79.9872 31.3295 80.4937 31.6026C81.0165 31.8843 81.4535 32.1511 81.8048 32.4029C82.1601 32.6504 82.4603 32.9556 82.7054 33.3184C82.9505 33.6812 83.073 34.0994 83.073 34.5732C83.073 35.1579 82.9423 35.6487 82.6809 36.0457C82.4236 36.4426 82.0621 36.7392 81.5965 36.9355C81.1308 37.1276 80.5876 37.2236 79.9668 37.2236C79.5828 37.2236 79.2111 37.1938 78.8517 37.134C78.4963 37.0743 78.1859 37.0017 77.9204 36.9163C77.659 36.831 77.4691 36.7477 77.3507 36.6667L77.6754 35.4951Z" stroke="#006ED2" stroke-width="0.2" mask="url(#path-8-outside-1)"/>
<path d="M94.9527 35.9688C95.1488 36.1011 95.3489 36.1993 95.5532 36.2633C95.7574 36.3273 95.9984 36.3743 96.2761 36.4042V37.1276C96.0678 37.1916 95.8289 37.2236 95.5593 37.2236C95.257 37.2236 94.9875 37.1831 94.7506 37.102C94.5177 37.0209 94.2788 36.8929 94.0337 36.7179C93.7601 36.8673 93.4517 36.9889 93.1086 37.0828C92.7696 37.1767 92.4428 37.2236 92.1283 37.2236C91.389 37.2236 90.7416 37.1255 90.1862 36.9291C89.6307 36.7328 89.1977 36.4383 88.8873 36.0457C88.5769 35.6487 88.4217 35.1664 88.4217 34.5988C88.4217 34.0354 88.5932 33.5467 88.9363 33.1327C89.2835 32.7145 89.7471 32.3645 90.3271 32.0828C90.0044 31.6346 89.7512 31.21 89.5674 30.8088C89.3835 30.4076 89.2916 29.9765 89.2916 29.5156C89.2916 29.0461 89.3958 28.6406 89.6041 28.2992C89.8124 27.9535 90.1065 27.6888 90.4864 27.5053C90.8703 27.3175 91.3176 27.2236 91.8281 27.2236C92.2897 27.2236 92.694 27.3261 93.0412 27.5309C93.3884 27.7358 93.6539 28.0068 93.8377 28.344C94.0256 28.6812 94.1195 29.0418 94.1195 29.4259C94.1195 29.9424 94.0378 30.3884 93.8744 30.764C93.7151 31.1353 93.4844 31.4554 93.1821 31.7243C92.884 31.9889 92.5041 32.2322 92.0426 32.4541C92.3121 32.8468 92.6573 33.3248 93.078 33.8882C93.5028 34.4515 93.8581 34.8997 94.144 35.2326C94.4789 34.8698 94.6464 34.3833 94.6464 33.7729C94.6464 33.3888 94.579 32.9513 94.4442 32.4605H95.6206C95.739 32.8916 95.7982 33.3312 95.7982 33.7793C95.7982 34.714 95.5164 35.4439 94.9527 35.9688ZM91.8036 28.2224C91.436 28.2224 91.1338 28.3248 90.8969 28.5297C90.66 28.7345 90.5415 29.0525 90.5415 29.4836C90.5415 29.7439 90.566 29.9658 90.615 30.1494C90.664 30.3329 90.7335 30.5036 90.8233 30.6615C90.9132 30.8152 91.0541 31.0286 91.2461 31.3017C91.3727 31.4853 91.4483 31.5941 91.4728 31.6282C91.967 31.4063 92.3407 31.1246 92.594 30.7832C92.8472 30.4375 92.9738 29.9915 92.9738 29.4451C92.9738 29.2574 92.9289 29.0696 92.839 28.8818C92.7492 28.694 92.6144 28.5382 92.4347 28.4144C92.259 28.2864 92.0487 28.2224 91.8036 28.2224ZM92.0487 36.2057C92.2652 36.2057 92.4612 36.1844 92.6368 36.1417C92.8166 36.099 93.0024 36.035 93.1944 35.9496C92.8676 35.5655 92.4939 35.0875 92.0732 34.5156C91.6525 33.9394 91.2726 33.4037 90.9336 32.9087C90.5456 33.1221 90.2413 33.3675 90.0207 33.6449C89.8002 33.9223 89.6899 34.2275 89.6899 34.5604C89.6899 34.8549 89.7675 35.1259 89.9227 35.3734C90.082 35.621 90.3373 35.8216 90.6885 35.9752C91.0398 36.1289 91.4932 36.2057 92.0487 36.2057Z" stroke="#006ED2" stroke-width="0.2" mask="url(#path-8-outside-1)"/>
<path d="M107.482 27.3773V28.4784H103.481V31.5514H106.416V32.6526H103.481V36.0008H107.929V37.1212H102.115V27.3773H107.482Z" stroke="#006ED2" stroke-width="0.2" mask="url(#path-8-outside-1)"/>
<path d="M116.182 37.1212H114.626L112.978 34.2531L112.34 33.1583L111.722 34.2531L110.116 37.1212H108.652L111.593 32.0892L108.664 27.3773L110.202 27.3709L111.722 29.9509L112.475 31.2441L114.656 27.3773H116.121L113.198 32.2941L116.182 37.1212Z" stroke="#006ED2" stroke-width="0.2" mask="url(#path-8-outside-1)"/>
<path d="M118.271 27.3773C118.488 27.3773 118.833 27.3602 119.307 27.3261C119.813 27.2919 120.215 27.2748 120.513 27.2748C121.555 27.2748 122.358 27.5331 122.921 28.0495C123.485 28.5617 123.767 29.3555 123.767 30.4311C123.767 31.1396 123.63 31.7435 123.356 32.2428C123.087 32.7422 122.684 33.1242 122.149 33.3888C121.618 33.6492 120.969 33.7793 120.201 33.7793C119.862 33.7793 119.537 33.7708 119.227 33.7537L118.994 33.7473V37.1212H117.628V27.3773H118.271ZM120.121 32.7294C120.571 32.7294 120.961 32.6675 121.292 32.5437C121.626 32.42 121.896 32.1895 122.1 31.8523C122.305 31.5151 122.407 31.0457 122.407 30.4439C122.407 29.7055 122.227 29.1635 121.867 28.8177C121.512 28.472 120.979 28.2992 120.268 28.2992C119.729 28.2992 119.304 28.3397 118.994 28.4208V32.6654C119.296 32.7081 119.672 32.7294 120.121 32.7294Z" stroke="#006ED2" stroke-width="0.2" mask="url(#path-8-outside-1)"/>
<path d="M130.776 27.3773V28.4784H126.775V31.5514H129.71V32.6526H126.775V36.0008H131.223V37.1212H125.409V27.3773H130.776Z" stroke="#006ED2" stroke-width="0.2" mask="url(#path-8-outside-1)"/>
<path d="M139.31 36.4042C139.445 36.6688 139.57 36.9078 139.684 37.1212H138.134C138.073 37.0273 138.005 36.8929 137.932 36.7179L137.797 36.4042C137.719 36.2334 137.599 35.924 137.436 35.4759C137.264 34.9979 137.109 34.6031 136.97 34.2915C136.835 33.9757 136.674 33.694 136.486 33.4464C136.302 33.1989 136.094 33.0367 135.861 32.9599C135.62 32.9684 135.079 32.9727 134.237 32.9727V37.1212H132.871V27.3773H133.465C133.686 27.3773 134.007 27.3623 134.427 27.3325C135.081 27.2941 135.553 27.2748 135.843 27.2748C136.839 27.2748 137.617 27.4989 138.177 27.9471C138.736 28.3909 139.016 29.0802 139.016 30.0149C139.016 30.7149 138.869 31.2911 138.575 31.7435C138.285 32.1959 137.87 32.5203 137.331 32.7166C137.515 32.8489 137.687 33.0367 137.846 33.28C138.005 33.5232 138.148 33.7836 138.275 34.061C138.406 34.3342 138.561 34.6906 138.74 35.1302C138.994 35.732 139.184 36.1566 139.31 36.4042ZM134.237 31.9611C134.454 31.9868 134.934 31.9996 135.677 31.9996C136.302 31.9996 136.782 31.8459 137.117 31.5386C137.452 31.227 137.619 30.7426 137.619 30.0853C137.619 29.6756 137.552 29.3427 137.417 29.0866C137.286 28.8263 137.076 28.6342 136.786 28.5104C136.5 28.3867 136.118 28.3248 135.64 28.3248C135.069 28.3248 134.601 28.3632 134.237 28.44V31.9611Z" stroke="#006ED2" stroke-width="0.2" mask="url(#path-8-outside-1)"/>
<path d="M142.717 27.3773V37.1212H141.332V27.3773H142.717Z" stroke="#006ED2" stroke-width="0.2" mask="url(#path-8-outside-1)"/>
<path d="M150.541 27.3773V28.4784H146.54V31.5514H149.475V32.6526H146.54V36.0008H150.988V37.1212H145.174V27.3773H150.541Z" stroke="#006ED2" stroke-width="0.2" mask="url(#path-8-outside-1)"/>
<path d="M159.798 27.3773V37.1212H158.53L154.67 30.9304L153.812 29.3363L153.886 31.0264V37.1212H152.63V27.3773H153.88L157.868 33.8113L158.628 35.2518L158.542 33.6321V27.3773H159.798Z" stroke="#006ED2" stroke-width="0.2" mask="url(#path-8-outside-1)"/>
<path d="M165.876 27.2748C166.399 27.2748 166.834 27.3047 167.181 27.3645C167.528 27.4242 167.847 27.4989 168.137 27.5885L168.32 27.6398L168.124 28.9074C167.973 28.8263 167.83 28.758 167.695 28.7025C167.561 28.6428 167.344 28.583 167.046 28.5232C166.748 28.4635 166.388 28.4336 165.968 28.4336C165.343 28.4336 164.8 28.5873 164.338 28.8946C163.881 29.2019 163.529 29.6393 163.284 30.207C163.039 30.7746 162.917 31.4404 162.917 32.2044C162.917 32.9641 163.039 33.6385 163.284 34.2275C163.529 34.8165 163.881 35.2753 164.338 35.6039C164.8 35.9326 165.341 36.0969 165.962 36.0969C166.268 36.0969 166.578 36.0691 166.893 36.0136C167.207 35.9582 167.485 35.8856 167.726 35.796C167.967 35.7021 168.143 35.6039 168.253 35.5015L168.259 36.7115C167.994 36.8224 167.765 36.9121 167.573 36.9804C167.385 37.0444 167.148 37.0999 166.862 37.1468C166.58 37.198 166.262 37.2236 165.906 37.2236C165.036 37.2236 164.273 37.0188 163.615 36.609C162.962 36.1993 162.455 35.6231 162.096 34.8805C161.74 34.1378 161.563 33.2778 161.563 32.3005C161.563 31.2633 161.759 30.3649 162.151 29.6052C162.543 28.8455 163.068 28.2672 163.725 27.8702C164.383 27.4733 165.1 27.2748 165.876 27.2748Z" stroke="#006ED2" stroke-width="0.2" mask="url(#path-8-outside-1)"/>
<path d="M175.587 27.3773V28.4784H171.586V31.5514H174.521V32.6526H171.586V36.0008H176.034V37.1212H170.22V27.3773H175.587Z" stroke="#006ED2" stroke-width="0.2" mask="url(#path-8-outside-1)"/>
<path d="M177.602 35.4951C177.852 35.6573 178.18 35.7981 178.589 35.9176C178.997 36.0329 179.402 36.0905 179.802 36.0905C180.406 36.0905 180.866 35.9816 181.18 35.764C181.499 35.5463 181.658 35.2049 181.658 34.7396C181.658 34.4323 181.581 34.1699 181.425 33.9522C181.274 33.7345 181.064 33.5403 180.794 33.3696C180.525 33.1989 180.125 32.9791 179.594 32.7102C178.911 32.3645 178.352 31.9505 177.915 31.4682C177.478 30.9859 177.259 30.4225 177.259 29.7781C177.259 29.1891 177.406 28.7089 177.7 28.3376C177.994 27.962 178.374 27.691 178.84 27.5245C179.306 27.3581 179.812 27.2748 180.359 27.2748C180.87 27.2748 181.309 27.3261 181.677 27.4285C182.044 27.5267 182.328 27.644 182.528 27.7806L182.253 28.9074C181.987 28.7409 181.715 28.615 181.438 28.5297C181.16 28.44 180.794 28.3952 180.341 28.3952C180.031 28.3952 179.741 28.4379 179.471 28.5232C179.201 28.6086 178.983 28.7409 178.815 28.9202C178.648 29.0994 178.564 29.3214 178.564 29.586C178.564 29.8976 178.623 30.1579 178.742 30.367C178.86 30.5719 179.042 30.7618 179.287 30.9368C179.536 31.1075 179.914 31.3295 180.421 31.6026C180.943 31.8843 181.381 32.1511 181.732 32.4029C182.087 32.6504 182.387 32.9556 182.632 33.3184C182.877 33.6812 183 34.0994 183 34.5732C183 35.1579 182.869 35.6487 182.608 36.0457C182.351 36.4426 181.989 36.7392 181.523 36.9355C181.058 37.1276 180.515 37.2236 179.894 37.2236C179.51 37.2236 179.138 37.1938 178.779 37.134C178.423 37.0743 178.113 37.0017 177.847 36.9163C177.586 36.831 177.396 36.7477 177.278 36.6667L177.602 35.4951Z" stroke="#006ED2" stroke-width="0.2" mask="url(#path-8-outside-1)"/>
<defs>
<clipPath id="clip0">
<rect width="220.071" height="23.2235" fill="white"/>
</clipPath>
</defs>
</svg>
