<svg width="24" height="24" viewBox="0 0 24 24" fill="none" xmlns="http://www.w3.org/2000/svg">
<rect width="24" height="24" rx="8" fill="#00B4E2"/>
<path fill-rule="evenodd" clip-rule="evenodd" d="M12.5005 6.69848C12.483 8.14917 11.2708 9.32136 9.77331 9.33324C11.2707 9.34512 12.4829 10.5173 12.5005 11.9679C12.5179 10.5197 13.7261 9.34892 15.2201 9.33317C13.7261 9.31741 12.5179 8.14673 12.5005 6.69848ZM12.5005 6.63498C12.483 5.17682 11.2584 4 9.75034 4C8.23137 4 7 5.19391 7 6.66667C7 8.13199 8.21897 9.32128 9.72736 9.33324C8.21897 9.34521 7 10.5345 7 11.9998C7 13.4726 8.23137 14.6665 9.75034 14.6665C11.2584 14.6665 12.483 13.4896 12.5005 12.0314C12.518 13.4896 13.7426 14.6663 15.2506 14.6663C16.7696 14.6663 18.001 13.4724 18.001 11.9997C18.001 10.5368 16.7861 9.34904 15.2812 9.33317C16.7861 9.3173 18.001 8.12955 18.001 6.66667C18.001 5.19391 16.7696 4 15.2506 4C13.7426 4 12.518 5.17682 12.5005 6.63498ZM9.75034 20.0002C11.2693 20.0002 12.5007 18.8063 12.5007 17.3335C12.5007 15.8608 11.2693 14.6669 9.75034 14.6669C8.23137 14.6669 7 15.8608 7 17.3335C7 18.8063 8.23137 20.0002 9.75034 20.0002Z" fill="white"/>
</svg>
