<svg width="162" height="28" viewBox="0 0 162 28" xmlns="http://www.w3.org/2000/svg"><g fill="none" fill-rule="evenodd"><path fill="#3D3E3B" d="M30.975 10.988h2.98l1.131 8.223h.043l4.416-8.223h3.09L36.086 22.19h-3.218l-1.893-11.202M49.29 15.49c.043-.261.065-.5.065-.76 0-1.198-.63-1.871-1.848-1.871-1.806 0-2.589 1.086-3.155 2.631h4.938Zm-5.33 2.002c0 2.065 1.11 2.828 3.111 2.828 1.196 0 2.35-.305 3.437-.806l-.37 2.306c-1.13.348-2.371.632-3.568.632-3.22 0-5.393-1.566-5.393-4.895 0-3.481 2.697-6.83 6.373-6.83 2.762 0 4.59 1.413 4.59 4.263a12.1 12.1 0 0 1-.283 2.502H43.96Zm10.354-5.004c.087-.478.174-.979.261-1.5h2.785l-.392 2.11h.042c.524-1.219 1.959-2.372 3.308-2.372.369 0 .76.022 1.109.109l-.61 2.85a3.699 3.699 0 0 0-1.11-.174c-2.065 0-3.065 1.848-3.435 3.653l-1.044 5.026h-2.916l2.002-9.702m9.016-6.329h2.915l-.61 2.784H62.72l.61-2.784Zm-1.066 4.829h2.914L62.785 22.19H59.87l2.394-11.202Zm5.637 2.132h-2.26l.455-2.133h2.262c.588-2.85 1.545-5.373 4.938-5.373.674 0 1.326.13 1.805.284l-.673 2.175a2.056 2.056 0 0 0-.892-.196c-1.61 0-1.98 1.936-2.263 3.11h2.61l-.457 2.133h-2.61l-1.914 9.071h-2.916l1.915-9.071m8.035-6.961h2.915l-.609 2.784h-2.915l.61-2.784Zm-1.065 4.829h2.913L75.392 22.19h-2.915l2.394-11.202Zm11.093 4.502c.043-.261.065-.5.065-.76 0-1.198-.63-1.871-1.848-1.871-1.805 0-2.589 1.086-3.155 2.631h4.938Zm-5.33 2.002c0 2.065 1.11 2.828 3.112 2.828 1.196 0 2.349-.305 3.436-.806l-.37 2.306c-1.13.348-2.371.632-3.567.632-3.22 0-5.394-1.566-5.394-4.895 0-3.481 2.697-6.83 6.373-6.83 2.762 0 4.59 1.413 4.59 4.263 0 .848-.11 1.674-.282 2.502h-7.898Zm11.853.043c0 1.13.347 2.654 1.783 2.654 2.132 0 3.394-2.48 3.394-4.547 0-1.305-.63-2.654-2.11-2.654-2.088 0-3.067 2.873-3.067 4.547m10.376-11.66-3.024 13.836c-.174.956-.348 1.913-.413 2.48h-2.72l.283-1.654h-.043c-.87 1.218-1.957 1.915-3.654 1.915-2.654 0-3.852-2.22-3.852-4.655 0-3.351 1.828-7.07 5.635-7.07 1.436 0 2.546.544 3.46 1.587l1.413-6.439h2.915M7.207 18.336c.013.027.02.055.032.082.012-.008.025-.017.039-.022a2.153 2.153 0 0 0-.071-.06"/><path d="M9.254 2.465a3.663 3.663 0 0 0 1.859 3.303l-8.18 8.18L8.408 2.076l.846.39Zm12.334 5.852a2.577 2.577 0 0 1-1.829.758 2.585 2.585 0 0 1-1.828-4.415l-2.854-2.856-2.893 2.893a2.233 2.233 0 0 1-1.305-3.048L7.713.19.028 16.854l-.018.037.049.049 2.796 2.796a2.577 2.577 0 0 1 3.16-.386 5.604 5.604 0 0 1 1.224-.932c-.012-.026-.02-.056-.033-.082a4.068 4.068 0 0 0-3.392-.778c-.26.056-.513.135-.757.239l-.917-.917L15.077 3.945l.781.783.136.134a4.072 4.072 0 0 0-.335 1.626c0 .199.02.395.048.59.054.378.159.746.315 1.092.202.447.481.86.838 1.217a4.072 4.072 0 0 0 2.9 1.202c.568 0 1.12-.116 1.625-.335l.916.917-8.255 8.258a5.547 5.547 0 0 1 .899 1.242l9.498-9.5-2.855-2.854Z" fill="#3D3E3B" mask="url(#logo_ticketmaster_verified_tickets)"/><path d="M14.27 21.344a4.724 4.724 0 0 0-.383-.687 4.591 4.591 0 0 0-.48-.59 4.682 4.682 0 0 0-5.983-.708c-.05.033-.098.067-.147.101a4.69 4.69 0 0 0-1.988 3.837 4.704 4.704 0 0 0 9.409 0c0-.699-.156-1.357-.428-1.953" fill="#218EC2" mask="url(#logo_ticketmaster_verified_tickets)"/><path fill="#FFFFFE" d="m9.466 26.154-2.479-2.486 1.072-1.079 1.406 1.414 2.972-2.977 1.076 1.076-4.047 4.052"/><path d="M102.92 10.987h2.103l.503-2.302 3.132-1.024-.715 3.326h2.605l-.455 2.13h-2.613l-1.063 4.897c-.067.261-.13.65-.13 1.089 0 .673.457 1.086 1.112 1.086a4.05 4.05 0 0 0 1.409-.255l-.496 2.254c-.506.111-1.069.26-1.568.26-1.976 0-3.371-.773-3.371-2.932 0-.87.173-1.718.368-2.61l.828-3.788h-2.117l.467-2.131m9.896-4.828h2.91l-.607 2.786h-2.917l.614-2.786Zm-1.068 4.828h2.909l-2.386 11.2h-2.917l2.394-11.2Zm11.721 2.568c-.569-.367-1.334-.566-2.138-.566-2.326 0-3.633 2.178-3.633 4.285 0 1.458.484 2.915 2.484 2.915.714 0 1.607-.196 2.369-.567l-.326 2.309c-.894.434-1.85.517-2.805.517-2.894 0-4.765-1.931-4.765-4.823 0-3.919 2.587-6.896 6.609-6.896 1.086 0 2.134.19 2.92.437l-.715 2.389m3.189-7.673h2.917l-1.938 9.176h.048l4.062-4.07h3.786l-5.371 5.112 3.37 6.087h-3.28l-2.899-5.934h-.038l-1.262 5.934h-2.849l3.454-16.305m19.385 5.105h2.107l.502-2.302 3.133-1.024-.721 3.326h2.612l-.452 2.13h-2.616l-1.069 4.897c-.059.261-.126.65-.126 1.089 0 .673.456 1.086 1.109 1.086a4.06 4.06 0 0 0 1.411-.255l-.5 2.254c-.497.111-1.065.26-1.564.26-1.979 0-3.37-.773-3.37-2.932 0-.87.173-1.718.369-2.61l.827-3.788h-2.114l.462-2.131" fill="#218EC2"/><path d="M145.065 14.99c0-2.85-1.824-4.261-4.589-4.261-3.675 0-6.376 3.35-6.376 6.83 0 3.33 2.174 4.89 5.397 4.89 1.196 0 2.435-.281 3.563-.626l.373-2.308c-1.09.504-2.24.804-3.437.804-1.863 0-2.95-.66-3.094-2.422h-.003c0-.103-.016-.203-.016-.31v-.102h.009a5.83 5.83 0 0 1 .473-2.212c.558-1.43 1.35-2.41 3.068-2.41 1.217 0 1.847.671 1.847 1.866 0 .261-.02.5-.064.764h-3.987c-.263.878-.306 1.465-.31 1.992h6.863c.171-.82.283-1.646.283-2.495m16.065-1.719c-.315-.17-1.119-.408-1.948-.408-.865 0-1.948.239-1.948 1.126 0 1.416 3.783 1.936 3.783 4.676 0 2.914-2.55 3.783-5.056 3.783-1.164 0-2.347-.17-3.408-.67l.63-2.328c.825.459 1.648.869 2.778.869.983 0 2.007-.326 2.007-1.236 0-1.81-3.787-1.981-3.787-4.785 0-2.636 2.545-3.57 4.859-3.57 1.06 0 2.15.192 2.723.348l-.633 2.195" fill="#218EC2"/></g></svg>