<svg width="280" height="67" viewBox="0 0 887 67" fill="none" xmlns="http://www.w3.org/2000/svg">
<g clip-path="url(#clip0_2_2)">
<path d="M136.24 54C136.24 58.78 135.44 61.91 133.84 63.39C132.24 64.87 128.99 65.61 124.09 65.61H97.24C92.34 65.61 89.09 64.87 87.49 63.39C85.89 61.91 85.09 58.78 85.09 54V20.17H95.7V56.18H125.81V20.17H136.24V54Z" fill="#333333"/>
<path d="M207.99 54.91C207.99 59.14 207.19 61.99 205.59 63.44C203.99 64.89 201.04 65.62 196.75 65.62H169.81C165.52 65.62 162.57 64.89 160.97 63.44C159.37 61.99 158.57 59.15 158.57 54.91V31.05C158.57 26.88 159.37 24.05 160.97 22.57C162.57 21.09 165.52 20.35 169.81 20.35H196.75C204.01 20.41 207.76 22.92 208 27.88V34.5H197.48V28.42H169.09V57.08H197.48V50.46H208V54.9L207.99 54.91Z" fill="#333333"/>
<path d="M272.93 28.51H252.98V65.61H242.37V28.51H222.51V20.44H272.94V28.51H272.93Z" fill="#333333"/>
<path d="M299.33 65.61H288.9V20.26H299.33V65.61Z" fill="#333333"/>
<path d="M378.42 54.91C378.42 59.14 377.62 61.99 376.02 63.44C374.42 64.89 371.47 65.62 367.18 65.62H333.98C329.69 65.62 326.74 64.89 325.14 63.44C323.54 61.99 322.74 59.15 322.74 54.91V31.15C322.74 26.92 323.54 24.07 325.14 22.62C326.74 21.17 329.69 20.44 333.98 20.44H367.18C371.47 20.44 374.42 21.17 376.02 22.62C377.62 24.07 378.42 26.91 378.42 31.15V54.91ZM367.9 57V28.61H333.25V57H367.9Z" fill="#333333"/>
<path d="M456.61 65.61H447.45L412.89 33.86V65.61H403.27V20.26H412.25L447.17 51.92V20.26H456.6V65.61H456.61Z" fill="#333333"/>
<path d="M585.4 65.61H574.79V47.02H542.77V65.61H532.25V20.35H542.77V37.86H574.79V20.35H585.4V65.61Z" fill="#8A55FF"/>
<path d="M666.58 54.91C666.58 59.14 665.78 61.99 664.18 63.44C662.58 64.89 659.63 65.62 655.34 65.62H622.14C617.85 65.62 614.9 64.89 613.3 63.44C611.7 61.99 610.9 59.15 610.9 54.91V31.15C610.9 26.92 611.7 24.07 613.3 22.62C614.9 21.17 617.85 20.44 622.14 20.44H655.34C659.63 20.44 662.58 21.17 664.18 22.62C665.78 24.07 666.58 26.91 666.58 31.15V54.91ZM656.06 57V28.61H621.41V57H656.06Z" fill="#8A55FF"/>
<path d="M742.68 54C742.68 58.78 741.88 61.91 740.28 63.39C738.68 64.87 735.43 65.61 730.53 65.61H703.68C698.78 65.61 695.53 64.87 693.93 63.39C692.33 61.91 691.53 58.78 691.53 54V20.17H702.14V56.18H732.25V20.17H742.68V54Z" fill="#8A55FF"/>
<path d="M816.88 54.91C816.88 59.14 816.03 61.99 814.34 63.44C812.65 64.89 809.59 65.62 805.18 65.62H777.06C772.28 65.62 769.14 64.8 767.63 63.17C766.12 61.54 765.36 58.06 765.36 52.74H775.88V57H807.26V46.75H777.96C773.55 46.75 770.51 46.01 768.84 44.53C767.18 43.05 766.35 40.19 766.35 35.96V30.97C766.35 26.74 767.18 23.9 768.84 22.44C770.5 20.99 773.54 20.26 777.96 20.26H815.78V28.24H775.87V37.94H805.17C809.58 37.94 812.64 38.67 814.33 40.12C816.02 41.57 816.87 44.41 816.87 48.65V54.91H816.88Z" fill="#8A55FF"/>
<path d="M886.54 65.61H839.37V27.88C839.37 22.8 841.97 20.26 847.17 20.26H886.08V27.97H849.98V38.13H870.21V45.84H849.98V57.09H886.53V65.62L886.54 65.61Z" fill="#8A55FF"/>
<path d="M55.31 47.48C54.88 47.02 54.33 46.91 54.24 46.88C52.86 46.52 51.47 45.19 50.18 43.46L46.08 36.94C45.08 35.03 44.48 33.19 44.75 31.8C44.77 31.7 44.9 31.16 44.67 30.57C44.43 29.94 43.88 29.54 43.41 29.29L32.19 36.35C32.15 36.78 32.16 37.42 32.53 37.98C33.05 38.78 34.02 38.99 34.2 39.04C35.39 39.35 36.65 40.54 37.86 42.12L41.96 48.64C42.86 50.41 43.39 52.06 43.15 53.27C43.12 53.45 42.89 54.41 43.39 55.23C43.74 55.8 44.31 56.09 44.72 56.24L55.94 49.18C55.92 48.64 55.8 47.98 55.34 47.49L55.31 47.48Z" fill="#8A55FF"/>
<path d="M43.2756 27.7538L42.6949 26.8313C42.5037 26.5275 42.1024 26.4363 41.7986 26.6275L30.3229 33.8513C30.0191 34.0425 29.9279 34.4438 30.1191 34.7477L30.6998 35.6701C30.891 35.9739 31.2924 36.0652 31.5962 35.8739L43.0718 28.6501C43.3756 28.4589 43.4669 28.0576 43.2756 27.7538Z" fill="#8A55FF"/>
<path d="M58.2215 50.6342L57.6408 49.7117C57.4496 49.4079 57.0483 49.3167 56.7445 49.5079L44.5072 57.2112C44.2034 57.4024 44.1121 57.8037 44.3034 58.1075L44.884 59.03C45.0753 59.3338 45.4766 59.425 45.7804 59.2338L58.0177 51.5305C58.3215 51.3393 58.4127 50.938 58.2215 50.6342Z" fill="#8A55FF"/>
<path d="M63.37 64.13H41.86C41.54 64.11 40.68 64.12 39.85 64.93C39.35 65.41 39.06 65.99 38.9 66.37H66.91C66.66 65.96 66.27 65.39 65.69 64.93C64.73 64.17 63.81 64.11 63.37 64.13Z" fill="#333333"/>
<path d="M60.51 62.18H44.49C44.25 62.16 43.61 62.17 42.99 62.88C42.62 63.3 42.4 63.81 42.28 64.14H63.14C62.96 63.78 62.66 63.28 62.23 62.88C61.52 62.21 60.83 62.16 60.5 62.18H60.51Z" fill="#333333"/>
<path d="M23.83 0L0 66.36H4.17L5.24 63.45L3.12 64.63L5.51 62.7L23.63 13.38C26.59 19.22 29.54 25.06 32.5 30.9C34.41 29.72 36.32 28.55 38.23 27.37L23.83 0Z" fill="#333333"/>
<path d="M6.59 66.36H0C13.53 58.83 27.07 51.29 40.6 43.76L42.03 46.12C30.22 52.87 18.4 59.62 6.59 66.36V66.36Z" fill="#8A55FF"/>
<path d="M23.32 31.55H20.03V34.84H23.32V31.55Z" fill="#8A55FF"/>
<path d="M27.87 31.55H24.58V34.84H27.87V31.55Z" fill="#8A55FF"/>
<path d="M23.32 35.94H20.03V39.23H23.32V35.94Z" fill="#8A55FF"/>
<path d="M27.87 35.94H24.58V39.23H27.87V35.94Z" fill="#8A55FF"/>
</g>
<defs>
<clipPath id="clip0_2_2">
<rect width="886.54" height="66.36" fill="white"/>
</clipPath>
</defs>
</svg>
