<svg width="141" height="20" viewBox="0 0 141 20" fill="none" xmlns="http://www.w3.org/2000/svg"><path d="M.55 6.144h2.543l.593-2.797L7.458 2.12 6.61 6.144h3.136L9.195 8.73H6.059l-1.27 5.89c-.086.296-.17.805-.17 1.313 0 .805.55 1.314 1.356 1.314.635 0 1.27-.127 1.695-.297l-.594 2.712c-.593.127-1.27.297-1.906.297-2.373 0-4.068-.933-4.068-3.517 0-1.06.212-2.077.466-3.136l.974-4.576H0l.55-2.585ZM91.568 17.585h-.043c-1.186 1.525-2.415 2.373-4.364 2.373-2.415 0-4.153-1.356-4.153-3.856 0-4.45 4.958-4.789 8.263-4.789H92.5c.085-.38.085-.762.085-1.144 0-1.356-1.483-1.737-2.712-1.737-1.526 0-3.051.381-4.45 1.06l.51-2.797c1.482-.509 3.008-.805 4.575-.805 2.712 0 5.255.974 5.255 4.152 0 1.822-1.356 7.119-1.653 9.661h-2.966l.424-2.118Zm-3.433-.17c2.628 0 3.433-1.822 3.983-3.983H90.89c-1.695 0-4.534.297-4.534 2.585 0 .89.89 1.398 1.78 1.398ZM11.187 6.144h3.517l-2.881 13.475H8.306l2.881-13.475ZM12.46.339h3.516l-.72 3.347h-3.517l.72-3.347ZM25.297 9.237c-.678-.466-1.61-.678-2.585-.678-2.796 0-4.364 2.627-4.364 5.17 0 1.737.593 3.517 2.966 3.517.848 0 1.95-.255 2.839-.678l-.381 2.796c-1.06.509-2.246.636-3.39.636-3.475 0-5.72-2.33-5.72-5.805 0-4.704 3.135-8.305 7.966-8.305 1.313 0 2.584.254 3.517.508l-.848 2.84ZM29.155 0h3.517l-2.33 11.06h.042l4.915-4.916h4.534l-6.44 6.144 4.025 7.373h-3.941L30.002 12.5h-.042l-1.526 7.161h-3.432L29.155 0ZM52.5 6.144h2.542l.594-2.797 3.77-1.228-.846 4.025h3.135l-.55 2.585h-3.136l-1.272 5.89c-.084.296-.17.805-.17 1.313 0 .805.552 1.314 1.357 1.314.636 0 1.271-.127 1.695-.297l-.593 2.712c-.594.127-1.272.297-1.907.297-2.373 0-4.068-.933-4.068-3.517 0-1.06.212-2.077.466-3.136l.975-4.576h-2.543l.551-2.585Z" fill="#026CDF"/><path d="M51.315 10.974c0-3.432-2.204-5.127-5.509-5.127-4.449 0-7.67 4.025-7.67 8.22 0 4.026 2.628 5.89 6.484 5.89 1.44 0 2.923-.339 4.28-.762l.465-2.797c-1.313.593-2.711.974-4.152.974-2.246 0-3.56-.805-3.729-2.923v-.509c0-.932.212-1.822.551-2.67.678-1.737 1.61-2.923 3.686-2.923 1.484 0 2.246.805 2.246 2.246 0 .296-.042.593-.085.932h-4.788c-.296 1.06-.381 1.78-.381 2.415h8.263c.212-.974.339-1.949.339-2.966ZM63.221 7.627c.085-.509.212-1.06.297-1.483h3.263l-.297 1.822h.043c.932-1.399 2.5-2.119 4.152-2.119 1.61 0 3.263.932 3.432 2.585h.043c.89-1.738 2.839-2.585 4.745-2.585 2.034 0 3.73 1.653 3.73 3.686 0 1.187-.297 2.585-.594 3.687l-1.398 6.44H77.12l1.398-6.567c.17-.805.466-2.076.466-2.882 0-.974-.763-1.61-1.652-1.61-2.458 0-3.051 2.84-3.475 4.661l-1.398 6.399h-3.517l1.398-6.568c.17-.805.466-2.076.466-2.882 0-.974-.763-1.61-1.652-1.61-2.373 0-3.051 2.84-3.475 4.661l-1.398 6.399h-3.517L63.22 7.627ZM106.23 8.898c-.382-.212-1.356-.508-2.331-.508-1.059 0-2.373.296-2.373 1.356 0 1.695 4.577 2.33 4.577 5.635 0 3.517-3.051 4.577-6.06 4.577-1.398 0-2.839-.212-4.11-.805l.763-2.797c.975.55 1.992 1.06 3.347 1.06 1.187 0 2.416-.382 2.416-1.484 0-2.16-4.577-2.373-4.577-5.763 0-3.178 3.051-4.28 5.848-4.28 1.271 0 2.585.255 3.305.425l-.805 2.584ZM108.474 6.144h2.543l.593-2.797 3.771-1.228-.847 4.025h3.135l-.551 2.585h-3.135l-1.271 5.89a5.2 5.2 0 0 0-.17 1.313c0 .805.551 1.314 1.356 1.314.636 0 1.271-.127 1.695-.297L115 19.661c-.593.127-1.271.297-1.907.297-2.373 0-4.068-.933-4.068-3.517 0-1.06.212-2.077.424-3.136l1.017-4.576h-2.542l.55-2.585ZM132.287 7.966c.085-.594.212-1.187.297-1.822h3.348l-.467 2.542h.043c.635-1.483 2.373-2.839 3.983-2.839.466 0 .932.042 1.356.127l-.721 3.432a4.54 4.54 0 0 0-1.355-.211c-2.5 0-3.687 2.245-4.153 4.406l-1.271 6.06h-3.517l2.457-11.695ZM129.872 10.974c0-3.432-2.203-5.127-5.508-5.127-4.407 0-7.669 4.025-7.669 8.22 0 4.026 2.627 5.89 6.483 5.89 1.44 0 2.923-.339 4.279-.762l.466-2.797c-1.313.593-2.712.974-4.152.974-2.246 0-3.56-.805-3.729-2.923v-.509c0-.932.212-1.822.551-2.67.678-1.737 1.61-2.923 3.686-2.923 1.483 0 2.246.805 2.246 2.246 0 .296-.042.593-.085.932h-4.788c-.296 1.06-.381 1.78-.381 2.415h8.263c.211-.974.338-1.949.338-2.966Z" fill="#026CDF"/></svg>