<?xml version="1.0" encoding="UTF-8"?>
<svg width="86px" height="20px" viewBox="0 0 86 20" version="1.1" xmlns="http://www.w3.org/2000/svg" xmlns:xlink="http://www.w3.org/1999/xlink">
    <!-- Generator: Sketch 62 (91390) - https://sketch.com -->
    <title>logo</title>
    <desc>Created with Sketch.</desc>
    <g id="Design-System-Mobile" stroke="none" stroke-width="1" fill="none" fill-rule="evenodd">
        <g id="1.1-design-system" transform="translate(-905.000000, -1706.000000)" fill="#23262D" fill-rule="nonzero">
            <g id="Group-3" transform="translate(888.000000, 1685.000000)">
                <path d="M25.35,40 L25.35,37.338 L21.258,37.338 L21.258,22.18 L17.32,22.18 L17.32,40 L25.35,40 Z M31.026,40 L31.026,22.18 L27.088,22.18 L27.088,40 L31.026,40 Z M37.626,40 L37.626,32.08 L40.904,32.08 L40.904,29.33 L37.626,29.33 L37.626,24.842 L41.388,24.842 L41.388,22.18 L33.688,22.18 L33.688,40 L37.626,40 Z M51.288,40 L51.288,37.338 L47.174,37.338 L47.174,32.014 L50.276,32.014 L50.276,29.286 L47.174,29.286 L47.174,24.864 L51.244,24.864 L51.244,22.18 L43.236,22.18 L43.236,40 L51.288,40 Z M57.8,40.264 C58.7533333,40.264 59.5783333,40.066 60.275,39.67 C60.9716667,39.274 61.5106667,38.735 61.892,38.053 C62.2733333,37.371 62.464,36.612 62.464,35.776 C62.464,34.544 62.1963333,33.51 61.661,32.674 C61.1256667,31.838 60.4693333,31.09 59.692,30.43 L59.692,30.43 L58.218,29.132 C57.7046667,28.6773333 57.2903333,28.241 56.975,27.823 C56.6596667,27.405 56.502,26.866 56.502,26.206 C56.502,25.898 56.5863333,25.59 56.755,25.282 C56.9236667,24.974 57.1913333,24.82 57.558,24.82 C57.8953333,24.82 58.1446667,24.9263333 58.306,25.139 C58.4673333,25.3516667 58.5736667,25.6523333 58.625,26.041 C58.6763333,26.4296667 58.7093333,26.888 58.724,27.416 L58.724,27.416 L62.112,26.998 C62.0973333,26.47 62.035,25.9163333 61.925,25.337 C61.815,24.7576667 61.6096667,24.2076667 61.309,23.687 C61.0083333,23.1663333 60.5683333,22.7446667 59.989,22.422 C59.4096667,22.0993333 58.6433333,21.938 57.69,21.938 C56.15,21.938 54.9326667,22.3376667 54.038,23.137 C53.1433333,23.9363333 52.696,25.0913333 52.696,26.602 C52.696,27.6726667 52.927,28.571 53.389,29.297 C53.851,30.023 54.4193333,30.672 55.094,31.244 L55.094,31.244 L56.634,32.586 C57.2353333,33.0993333 57.712,33.609 58.064,34.115 C58.416,34.621 58.592,35.2406667 58.592,35.974 C58.592,36.282 58.5296667,36.5753333 58.405,36.854 C58.2803333,37.1326667 58.0126667,37.272 57.602,37.272 C57.2793333,37.272 57.0043333,37.1693333 56.777,36.964 C56.5496667,36.7586667 56.3736667,36.4213333 56.249,35.952 C56.1243333,35.4826667 56.0546667,34.8666667 56.04,34.104 L56.04,34.104 L52.674,34.61 C52.718,35.93 52.9306667,37.0043333 53.312,37.833 C53.6933333,38.6616667 54.258,39.274 55.006,39.67 C55.754,40.066 56.6853333,40.264 57.8,40.264 Z M69.944,40 L69.944,25.106 L72.606,25.106 L72.606,22.18 L63.3,22.18 L63.3,25.106 L65.984,25.106 L65.984,40 L69.944,40 Z M80.196,40 L80.196,32.718 L83.518,22.18 L79.954,22.18 L78.436,27.812 L76.742,22.18 L73.024,22.18 L76.412,32.718 L76.412,40 L80.196,40 Z M93.044,40 L93.044,37.338 L88.952,37.338 L88.952,22.18 L85.014,22.18 L85.014,40 L93.044,40 Z M102.812,40 L102.812,37.338 L98.698,37.338 L98.698,32.014 L101.8,32.014 L101.8,29.286 L98.698,29.286 L98.698,24.864 L102.768,24.864 L102.768,22.18 L94.76,22.18 L94.76,40 L102.812,40 Z" id="logo"></path>
            </g>
        </g>
    </g>
</svg>
