<svg width="27" height="27" viewBox="0 0 27 27" fill="none" xmlns="http://www.w3.org/2000/svg">
<g clip-path="url(#gst-scotiabank-banner-star)">
<path d="M13.178 6.84936C14.9348 6.84936 16.3589 5.42024 16.3589 3.65734C16.3589 1.89444 14.9348 0.465324 13.178 0.465324C11.4212 0.465324 9.99707 1.89444 9.99707 3.65734C9.99707 5.42024 11.4212 6.84936 13.178 6.84936Z" fill="#9B43FF"/>
<path d="M13.178 16.8813C14.9348 16.8813 16.3589 15.4522 16.3589 13.6893C16.3589 11.9264 14.9348 10.4973 13.178 10.4973C11.4212 10.4973 9.99707 11.9264 9.99707 13.6893C9.99707 15.4522 11.4212 16.8813 13.178 16.8813Z" fill="#23B574"/>
<path d="M23.1764 16.8813C24.9332 16.8813 26.3573 15.4522 26.3573 13.6893C26.3573 11.9264 24.9332 10.4973 23.1764 10.4973C21.4196 10.4973 19.9955 11.9264 19.9955 13.6893C19.9955 15.4522 21.4196 16.8813 23.1764 16.8813Z" fill="#2C76EC"/>
<path d="M3.18093 16.8813C4.93772 16.8813 6.36187 15.4522 6.36187 13.6893C6.36187 11.9264 4.93772 10.4973 3.18093 10.4973C1.42415 10.4973 0 11.9264 0 13.6893C0 15.4522 1.42415 16.8813 3.18093 16.8813Z" fill="#FF3B48"/>
<path d="M13.178 26.9132C14.9348 26.9132 16.3589 25.4841 16.3589 23.7212C16.3589 21.9583 14.9348 20.5292 13.178 20.5292C11.4212 20.5292 9.99707 21.9583 9.99707 23.7212C9.99707 25.4841 11.4212 26.9132 13.178 26.9132Z" fill="#FF93AA"/>
</g>
<defs>
<clipPath id="gst-scotiabank-banner-star">
<rect width="26.3571" height="27" fill="white"/>
</clipPath>
</defs>
</svg>
