<svg width="120" height="16" viewBox="0 0 120 16" fill="none" xmlns="http://www.w3.org/2000/svg">
<g clip-path="url(#gst-scotiabank-scene-logo)">
<path d="M29.6469 4.87061C26.4177 4.8663 23.7977 7.35768 23.7954 10.4331C23.7931 13.5107 26.4109 16.0042 29.6401 16.0064C32.8692 16.0064 35.487 13.5129 35.487 10.4374C35.487 7.36415 32.8738 4.87277 29.6469 4.87061ZM29.6469 12.89C28.2248 12.8814 27.0789 11.7758 27.0857 10.4202C27.0925 9.06673 28.2497 7.9719 29.6718 7.97406C31.0939 7.97837 32.2465 9.07751 32.2465 10.4331C32.2465 11.0861 31.9725 11.7154 31.4834 12.1766C30.9965 12.6379 30.3353 12.8943 29.6469 12.89Z" fill="#EC111A"/>
<path d="M42.9348 5.13365H41.3406V1.85132H37.8442V5.13365H36.25V8.14873H37.8442V15.7349H41.3406V8.14873H42.9348V5.13365Z" fill="#EC111A"/>
<path d="M44.5337 5.13354H48.0255V15.7305H44.5337V5.13354Z" fill="#EC111A"/>
<path d="M46.2815 7.69987e-06C45.4935 -0.00214747 44.7801 0.448284 44.4767 1.14225C44.1733 1.83406 44.3386 2.63363 44.8956 3.16596C45.4527 3.69828 46.2928 3.85777 47.0197 3.57113C47.7489 3.28449 48.2244 2.60777 48.2244 1.85561C48.2244 0.83406 47.3571 0.00216287 46.2815 7.69987e-06Z" fill="#EC111A"/>
<path d="M96.3589 7.99132C97.5047 7.99564 98.4331 8.87926 98.4354 9.97193V15.7478H101.927V9.56029C101.927 6.74779 100.22 4.91589 97.5206 4.91589C96.411 4.91589 95.2425 5.3771 94.2801 6.86201V5.17451H90.7837V15.7478H94.2506V9.97193C94.2506 9.44176 94.4748 8.93529 94.8711 8.56245C95.2674 8.19176 95.8018 7.98486 96.3589 7.99132Z" fill="#EC111A"/>
<path d="M114.651 15.735L110.364 10.4376L114.35 5.13367H110.269L107.063 9.42677V0.265137H103.573V15.735H107.063V11.3664L110.582 15.735H114.651Z" fill="#EC111A"/>
<path d="M11.7911 12.8793C12.0583 12.2608 12.1874 11.5948 12.1693 10.9267C12.1942 9.94395 11.8387 8.98489 11.1707 8.23274C10.4256 7.45257 9.15072 6.80386 7.38442 6.31032C7.04248 6.22627 6.7096 6.11205 6.38804 5.97196C6.10951 5.84265 5.86042 5.66593 5.64982 5.45041C5.43016 5.21334 5.31467 4.90515 5.33052 4.58834C5.33732 4.12713 5.60906 3.70472 6.03931 3.49136C6.9202 3.12282 7.92337 3.12282 8.80199 3.49136C9.19375 3.62713 9.56965 3.79524 9.92971 3.99351L11.413 1.18101C10.7495 0.790927 10.0361 0.491358 9.28659 0.286616C8.5144 0.0969608 7.72183 -2.1862e-05 6.92473 -2.1862e-05C6.16612 -0.0129529 5.41205 0.105581 4.69873 0.349116C4.06467 0.58403 3.48723 0.943944 3.00489 1.40084C2.52029 1.86205 2.13532 2.41162 1.87717 3.01507C1.62128 3.63576 1.49447 4.29955 1.499 4.9655C1.53976 6.03015 2.01304 7.03662 2.81467 7.778C3.58007 8.41593 4.47681 8.89438 5.44828 9.17886C5.91023 9.34696 6.42201 9.49783 6.7481 9.61636C7.08324 9.73705 7.4048 9.89007 7.70371 10.0776C7.91884 10.2241 8.09321 10.4159 8.21322 10.6401C8.31739 10.8534 8.35589 11.0883 8.32418 11.3211C8.29022 11.6746 8.11132 12.0021 7.82826 12.2327C7.36404 12.5539 6.79339 12.7026 6.22273 12.653C5.54792 12.6358 4.88442 12.4849 4.27301 12.209C3.73859 11.9655 3.22002 11.6918 2.71956 11.3879L0.94873 14.2845C2.34592 15.3771 4.09185 15.9827 5.89665 16C6.79112 16 7.68107 15.8664 8.53025 15.6013C9.26168 15.3685 9.93877 15.0086 10.5275 14.5388C11.0665 14.0754 11.4967 13.5108 11.7911 12.8793Z" fill="#EC111A"/>
<path d="M117.115 12.0302C116.325 12.0259 115.611 12.4741 115.306 13.166C115 13.8578 115.163 14.6573 115.718 15.1918C116.273 15.7263 117.11 15.8879 117.842 15.6035C118.571 15.3168 119.049 14.6423 119.051 13.8901C119.053 12.8685 118.188 12.0366 117.115 12.0302ZM117.115 15.3642C116.483 15.3664 115.913 15.0065 115.67 14.4526C115.426 13.8966 115.559 13.2586 116.003 12.8319C116.449 12.4052 117.119 12.278 117.704 12.5086C118.286 12.7371 118.666 13.278 118.666 13.8793C118.668 14.2737 118.505 14.6509 118.213 14.9289C117.923 15.2069 117.527 15.3642 117.115 15.3642Z" fill="#EC111A"/>
<path d="M117.108 14.1897H116.796V14.8922H116.417V12.8685H117.226C117.618 12.8685 117.935 13.1703 117.935 13.5431C117.928 13.7974 117.769 14.0259 117.527 14.1336L117.975 14.8922H117.516L117.108 14.1897ZM116.796 13.8513H117.244C117.423 13.8513 117.568 13.7134 117.568 13.5431C117.568 13.3707 117.423 13.2328 117.244 13.2328H116.796V13.8513Z" fill="#EC111A"/>
<path d="M21.3518 11.9741C20.4619 13.0301 18.8428 13.2003 17.7332 12.3555C16.6236 11.5085 16.4424 9.96544 17.3301 8.9094C18.22 7.85121 19.8392 7.68096 20.9488 8.52578C21.096 8.63785 21.2318 8.76501 21.3518 8.90294L23.6594 6.6982C22.5566 5.53871 20.9873 4.87923 19.3432 4.88139C16.1254 4.87061 13.3491 7.05811 13.3491 10.4331C13.3491 13.806 16.1548 15.9999 19.3727 15.9999C21.019 15.9999 22.5883 15.3383 23.6956 14.1788L21.3518 11.9741Z" fill="#EC111A"/>
<path d="M61.6823 15.7478V5.13357H58.281V6.25857L57.9617 5.99564C57.1691 5.2715 56.1094 4.86633 55.0111 4.87064C52.0038 4.87064 49.4653 7.41805 49.4653 10.4331C49.4653 13.4461 52.0106 15.9999 55.0111 15.9999C56.1094 16.0021 57.1691 15.5991 57.9617 14.8749L58.281 14.6099V15.7349L61.6823 15.7478ZM55.5772 12.9353C54.1234 12.9267 52.9527 11.7974 52.9617 10.4137C52.9685 9.03012 54.1506 7.91374 55.6044 7.91805C57.0582 7.92452 58.2312 9.04952 58.2289 10.4331C58.2267 11.0991 57.9459 11.7392 57.4477 12.209C56.9517 12.6788 56.2769 12.9396 55.5772 12.9353Z" fill="#EC111A"/>
<path d="M89.1119 15.7478V5.13355H85.7107V6.25855L85.3914 5.99561C84.5965 5.27148 83.539 4.86846 82.4385 4.87061C79.4335 4.87061 76.895 7.41803 76.895 10.4331C76.895 13.446 79.4403 15.9999 82.4385 15.9999C83.539 16.0021 84.5965 15.5991 85.3914 14.8749L85.7107 14.6098V15.7348L89.1119 15.7478ZM83.0295 12.9353C81.5735 12.9374 80.3914 11.8167 80.3891 10.431C80.3869 9.04518 81.5667 7.92018 83.0227 7.91803C84.4765 7.91803 85.6563 9.04087 85.6563 10.4266C85.6563 11.8103 84.4811 12.931 83.0295 12.9353Z" fill="#EC111A"/>
<path d="M66.8973 15.7479V14.6229L67.2098 14.8858C68.0047 15.61 69.0622 16.013 70.1627 16.0108C73.1677 16.0108 75.7062 13.4634 75.7062 10.444C75.7062 7.42462 73.1677 4.88152 70.1627 4.88152C69.0622 4.87936 68.0047 5.28238 67.2098 6.00652L66.8973 6.2716V0.265137H63.4893V15.7479H66.8973ZM66.9675 10.444C66.9607 9.42678 67.597 8.50867 68.5821 8.11428C69.5649 7.71988 70.6994 7.93109 71.458 8.6466C72.2144 9.36212 72.4431 10.444 72.0355 11.3837C71.6301 12.3212 70.6677 12.9354 69.6011 12.9354C68.1496 12.9354 66.972 11.8147 66.9675 10.4332V10.444Z" fill="#EC111A"/>
</g>
<defs>
<clipPath id="gst-scotiabank-scene-logo">
<rect width="120" height="16" fill="white"/>
</clipPath>
</defs>
</svg>
