<svg width="16" height="16" viewBox="0 0 16 16" fill="none" xmlns="http://www.w3.org/2000/svg">
<path d="M4 2.00033V1.66699C4 1.40178 4.10536 1.14742 4.2929 0.959885C4.48043 0.772349 4.73479 0.666992 5 0.666992C5.26522 0.666992 5.51958 0.772349 5.70711 0.959885C5.89465 1.14742 6 1.40178 6 1.66699V2.00033H10V1.66699C10 1.40178 10.1054 1.14742 10.2929 0.959885C10.4804 0.772349 10.7348 0.666992 11 0.666992C11.2652 0.666992 11.5196 0.772349 11.7071 0.959885C11.8946 1.14742 12 1.40178 12 1.66699V2.00033H14.3333C14.5986 2.00033 14.8529 2.10568 15.0404 2.29322C15.228 2.48076 15.3333 2.73511 15.3333 3.00033V14.3337C15.3333 14.5989 15.228 14.8532 15.0404 15.0408C14.8529 15.2283 14.5986 15.3337 14.3333 15.3337H1.66667C1.40146 15.3337 1.1471 15.2283 0.959565 15.0408C0.772029 14.8532 0.666672 14.5989 0.666672 14.3337V3.00033C0.666672 2.73511 0.772029 2.48076 0.959565 2.29322C1.1471 2.10568 1.40146 2.00033 1.66667 2.00033H4ZM4 2.66699H1.66667C1.57827 2.66699 1.49348 2.70211 1.43097 2.76462C1.36846 2.82714 1.33334 2.91192 1.33334 3.00033V5.33366H14.6667V3.00033C14.6667 2.91192 14.6316 2.82714 14.569 2.76462C14.5065 2.70211 14.4217 2.66699 14.3333 2.66699H12V3.00033C12 3.26554 11.8946 3.5199 11.7071 3.70743C11.5196 3.89497 11.2652 4.00033 11 4.00033C10.7348 4.00033 10.4804 3.89497 10.2929 3.70743C10.1054 3.5199 10 3.26554 10 3.00033V2.66699H6V3.00033C6 3.26554 5.89465 3.5199 5.70711 3.70743C5.51958 3.89497 5.26522 4.00033 5 4.00033C4.73479 4.00033 4.48043 3.89497 4.2929 3.70743C4.10536 3.5199 4 3.26554 4 3.00033V2.66699ZM1.33334 6.00033V14.3337C1.33334 14.4221 1.36846 14.5068 1.43097 14.5694C1.49348 14.6319 1.57827 14.667 1.66667 14.667H14.3333C14.4217 14.667 14.5065 14.6319 14.569 14.5694C14.6316 14.5068 14.6667 14.4221 14.6667 14.3337V6.00033H1.33334ZM3.33334 7.33366H4.66667C4.84348 7.33366 5.01305 7.4039 5.13808 7.52892C5.2631 7.65394 5.33334 7.82351 5.33334 8.00033V9.33366C5.33334 9.51047 5.2631 9.68004 5.13808 9.80506C5.01305 9.93009 4.84348 10.0003 4.66667 10.0003H3.33334C3.15653 10.0003 2.98696 9.93009 2.86193 9.80506C2.73691 9.68004 2.66667 9.51047 2.66667 9.33366V8.00033C2.66667 7.82351 2.73691 7.65394 2.86193 7.52892C2.98696 7.4039 3.15653 7.33366 3.33334 7.33366ZM3.33334 8.00033V9.33366H4.66667V8.00033H3.33334ZM11 3.33366C11.0884 3.33366 11.1732 3.29854 11.2357 3.23603C11.2982 3.17352 11.3333 3.08873 11.3333 3.00033V1.66699C11.3333 1.57859 11.2982 1.4938 11.2357 1.43129C11.1732 1.36878 11.0884 1.33366 11 1.33366C10.9116 1.33366 10.8268 1.36878 10.7643 1.43129C10.7018 1.4938 10.6667 1.57859 10.6667 1.66699V3.00033C10.6667 3.08873 10.7018 3.17352 10.7643 3.23603C10.8268 3.29854 10.9116 3.33366 11 3.33366ZM5 3.33366C5.08841 3.33366 5.17319 3.29854 5.23571 3.23603C5.29822 3.17352 5.33334 3.08873 5.33334 3.00033V1.66699C5.33334 1.57859 5.29822 1.4938 5.23571 1.43129C5.17319 1.36878 5.08841 1.33366 5 1.33366C4.9116 1.33366 4.82681 1.36878 4.7643 1.43129C4.70179 1.4938 4.66667 1.57859 4.66667 1.66699V3.00033C4.66667 3.08873 4.70179 3.17352 4.7643 3.23603C4.82681 3.29854 4.9116 3.33366 5 3.33366Z" fill="#8F9296"/>
</svg>
