<svg width="20" height="20" viewBox="0 0 20 20" fill="none" xmlns="http://www.w3.org/2000/svg">
<path d="M10.0002 19.1666C7.55122 19.1666 5.2499 18.2133 3.51788 16.4822C1.78586 14.7512 0.833496 12.4489 0.833496 10.0009C0.833496 7.55198 1.78683 5.25067 3.51788 3.51866C5.24893 1.78664 7.55122 0.833313 10.0002 0.833313C12.4491 0.833313 14.7504 1.78664 16.4824 3.51866C18.2145 5.25067 19.1668 7.55198 19.1668 10.0009C19.1668 12.4499 18.2135 14.7512 16.4824 16.4822C15.6331 17.3361 14.6229 18.013 13.5102 18.4737C12.3975 18.9345 11.2045 19.17 10.0002 19.1666ZM10.0002 1.79822C5.47762 1.79822 1.79841 5.47743 1.79841 9.99996C1.79841 14.5225 5.47762 18.2017 10.0002 18.2017C14.5227 18.2017 18.2019 14.5225 18.2019 9.99996C18.2019 5.47743 14.5227 1.79822 10.0002 1.79822Z" fill="#1BAB1E"/>
<path d="M8.07048 13.8597C7.94248 13.8597 7.81967 13.809 7.7289 13.7188L4.83416 10.8241C4.74628 10.7331 4.69765 10.6112 4.69875 10.4847C4.69985 10.3582 4.75059 10.2372 4.84004 10.1477C4.92949 10.0583 5.0505 10.0075 5.17699 10.0065C5.30349 10.0054 5.42536 10.054 5.51635 10.1419L8.06951 12.695L14.4823 6.28222C14.5733 6.19434 14.6952 6.14571 14.8217 6.14681C14.9482 6.14791 15.0692 6.19865 15.1586 6.2881C15.2481 6.37755 15.2988 6.49855 15.2999 6.62505C15.301 6.75155 15.2524 6.87342 15.1645 6.96441L8.41013 13.7188C8.3653 13.7636 8.31204 13.7992 8.25342 13.8234C8.19479 13.8475 8.13196 13.8599 8.06855 13.8597H8.07048Z" fill="#1BAB1E"/>
</svg>
