<svg width="16" height="16" viewBox="0 0 16 16" fill="none" xmlns="http://www.w3.org/2000/svg"><path class="gst-svg-icon" d="M8 15.333c-1.96 0-3.8-.762-5.186-2.147A7.282 7.282 0 01.666 8c0-1.96.763-3.8 2.148-5.186A7.283 7.283 0 017.999.667c1.96 0 3.8.762 5.186 2.148a7.284 7.284 0 012.148 5.186c0 1.959-.763 3.8-2.148 5.185A7.286 7.286 0 018 15.333zM8 1.44A6.569 6.569 0 001.437 8a6.569 6.569 0 006.561 6.561A6.569 6.569 0 0014.561 8a6.569 6.569 0 00-6.562-6.561z" fill="#8F9296"/><path class="gst-svg-icon" d="M6.455 11.088c-.102 0-.2-.04-.273-.113L3.866 8.66a.386.386 0 01.546-.545l2.042 2.042 5.13-5.13a.386.386 0 01.546.546l-5.403 5.403a.383.383 0 01-.273.113h.001z" fill="#8F9296"/></svg>