<svg width="12" height="16" viewBox="0 0 12 16" fill="none" xmlns="http://www.w3.org/2000/svg">
<path d="M6.24867 15.8887C6.2174 15.9237 6.17908 15.9517 6.13623 15.9709C6.09338 15.9901 6.04695 16 6 16C5.95305 16 5.90662 15.9901 5.86377 15.9709C5.82092 15.9517 5.7826 15.9237 5.75133 15.8887C1.922 11.6087 0 8.33 0 6C0 2.48267 2.48267 0 6 0C9.51733 0 12 2.48267 12 6C12 8.33 10.078 11.6093 6.24867 15.8887ZM11.3333 6C11.3333 2.85067 9.14933 0.666667 6 0.666667C2.85067 0.666667 0.666667 2.85067 0.666667 6C0.666667 8.06667 2.44 11.138 6 15.1653C9.56 11.1387 11.3333 8.06667 11.3333 6ZM6 8.66667C5.29276 8.66667 4.61448 8.38571 4.11438 7.88562C3.61428 7.38552 3.33333 6.70724 3.33333 6C3.33333 5.29276 3.61428 4.61448 4.11438 4.11438C4.61448 3.61428 5.29276 3.33333 6 3.33333C6.70724 3.33333 7.38552 3.61428 7.88562 4.11438C8.38572 4.61448 8.66667 5.29276 8.66667 6C8.66667 6.70724 8.38572 7.38552 7.88562 7.88562C7.38552 8.38571 6.70724 8.66667 6 8.66667ZM6 8C6.53043 8 7.03914 7.78929 7.41421 7.41421C7.78929 7.03914 8 6.53043 8 6C8 5.46957 7.78929 4.96086 7.41421 4.58579C7.03914 4.21071 6.53043 4 6 4C5.46957 4 4.96086 4.21071 4.58579 4.58579C4.21071 4.96086 4 5.46957 4 6C4 6.53043 4.21071 7.03914 4.58579 7.41421C4.96086 7.78929 5.46957 8 6 8Z" fill="#8F9296"/>
</svg>
