<svg width="24" height="24" viewBox="0 0 24 24" fill="none" xmlns="http://www.w3.org/2000/svg">
<path d="M6 20H7V8.5C7 8.22386 7.22386 8 7.5 8H10.5C10.6894 8 10.8625 8.107 10.9472 8.27639L11 8.38197C11.1894 8.76074 11.5765 9 12 9C12.4235 9 12.8106 8.76074 13 8.38197L13.0528 8.27639C13.1375 8.107 13.3106 8 13.5 8H16.5C16.7761 8 17 8.22386 17 8.5V20H18V2.5C18 1.67157 17.3284 1 16.5 1H7.5C6.67157 1 6 1.67157 6 2.5V20ZM6 21V21.5C6 22.3284 6.67157 23 7.5 23H16.5C17.3284 23 18 22.3284 18 21.5V21H6ZM8 12H16V9H13.7989C13.4151 9.61792 12.7366 10 12 10C11.2634 10 10.5849 9.61792 10.2011 9H8V12ZM16 13H8V20H16V13ZM11.5 4C11.2239 4 11 3.77614 11 3.5C11 3.22386 11.2239 3 11.5 3H14.5C14.7761 3 15 3.22386 15 3.5C15 3.77614 14.7761 4 14.5 4H11.5ZM8.5 4C8.22386 4 8 3.77614 8 3.5C8 3.22386 8.22386 3 8.5 3H9.5C9.77614 3 10 3.22386 10 3.5C10 3.77614 9.77614 4 9.5 4H8.5ZM16.5 24H7.5C6.11929 24 5 22.8807 5 21.5V2.5C5 1.11929 6.11929 0 7.5 0L16.5 0C17.8807 0 19 1.11929 19 2.5V21.5C19 22.8807 17.8807 24 16.5 24Z" fill="#C56BFF"/>
</svg>
