<svg width="24" height="24" viewBox="0 0 24 24" fill="none" xmlns="http://www.w3.org/2000/svg">
<path d="M9.13251 5.23492C9.04669 5.34338 9 5.47762 9 5.61592C9 5.75422 9.04669 5.88847 9.13251 5.99692L14.3415 12.0389L9.13251 18.0889C8.95651 18.2929 8.96351 18.6459 9.12551 18.8329C9.16308 18.8857 9.21296 18.9285 9.27082 18.9576C9.32867 18.9867 9.39276 19.0012 9.45751 18.9999C9.51551 18.9999 9.57351 18.9879 9.62751 18.9639C9.68866 18.938 9.74206 18.8966 9.78251 18.8439L15.3225 12.4169C15.412 12.3116 15.46 12.1772 15.4575 12.0389C15.4598 11.901 15.4118 11.767 15.3225 11.6619L9.78251 5.23492C9.74322 5.18653 9.6937 5.14744 9.6375 5.12047C9.58131 5.0935 9.51984 5.07931 9.45751 5.07892C9.39515 5.07917 9.33363 5.0933 9.27742 5.12028C9.2212 5.14726 9.1717 5.18642 9.13251 5.23492Z" fill="#8F9296"/>
</svg>
