<svg width="20" height="20" viewBox="0 0 20 20" fill="none" xmlns="http://www.w3.org/2000/svg">
  <path class="gst-svg-icon" d="M17.76 7.53a.35.35 0 0 0 .36-.35V5.4A1.41 1.41 0 0 0 16.7 4H3.3a1.41 1.41 0 0 0-1.42 1.41v1.77a.35.35 0 0 0 .36.35 2.47 2.47 0 1 1 0 4.94.35.35 0 0 0-.36.35v1.77a1.41 1.41 0 0 0 1.42 1.4h13.4a1.41 1.41 0 0 0 1.42-1.4v-1.77a.35.35 0 0 0-.36-.35 2.47 2.47 0 0 1 0-4.94v0Z" stroke="#fff" stroke-linecap="round" stroke-linejoin="round"/>
  <path class="gst-svg-icon" d="M4.7 5.59a.18.18 0 0 1 .18.17" stroke="#fff" stroke-linecap="round" stroke-linejoin="round"/>
  <path class="gst-svg-icon" d="M4.53 5.76a.18.18 0 0 1 .18-.17M4.7 5.94a.18.18 0 0 1-.17-.17M4.88 5.77a.18.18 0 0 1-.17.17M6.82 5.59a.18.18 0 0 1 .18.17M6.65 5.76a.18.18 0 0 1 .17-.17M6.82 5.94a.18.18 0 0 1-.17-.17M7 5.77a.18.18 0 0 1-.18.17M8.94 5.59a.18.18 0 0 1 .18.17M8.77 5.76a.18.18 0 0 1 .17-.17M8.94 5.94a.18.18 0 0 1-.17-.17M9.12 5.77a.18.18 0 0 1-.18.17M11.06 5.59a.18.18 0 0 1 .18.17M10.88 5.76a.18.18 0 0 1 .18-.17M11.06 5.94a.18.18 0 0 1-.18-.17M11.24 5.77a.18.18 0 0 1-.18.17M13.18 5.59a.18.18 0 0 1 .17.17M13 5.76a.18.18 0 0 1 .18-.17M13.18 5.94a.18.18 0 0 1-.18-.17M13.35 5.77a.18.18 0 0 1-.17.17M15.3 5.59a.18.18 0 0 1 .17.17M15.12 5.76a.18.18 0 0 1 .17-.17M15.3 5.94a.18.18 0 0 1-.18-.17" stroke="#fff" stroke-linecap="round" stroke-linejoin="round"/>
  <path class="gst-svg-icon" d="M15.47 5.77a.18.18 0 0 1-.18.17M4.7 14.06a.18.18 0 0 1 .18.17" stroke="#fff" stroke-linecap="round" stroke-linejoin="round"/>
  <path class="gst-svg-icon" d="M4.53 14.23a.18.18 0 0 1 .18-.17M4.7 14.41a.18.18 0 0 1-.17-.18M4.88 14.23a.18.18 0 0 1-.17.18M6.82 14.06a.18.18 0 0 1 .18.17M6.65 14.23a.18.18 0 0 1 .17-.17M6.82 14.41a.18.18 0 0 1-.17-.18M7 14.23a.18.18 0 0 1-.18.18M8.94 14.06a.18.18 0 0 1 .18.17M8.77 14.23a.18.18 0 0 1 .17-.17M8.94 14.41a.18.18 0 0 1-.17-.18M9.12 14.23a.18.18 0 0 1-.18.18M11.06 14.06a.18.18 0 0 1 .18.17M10.88 14.23a.18.18 0 0 1 .18-.17M11.06 14.41a.18.18 0 0 1-.18-.18M11.24 14.23a.18.18 0 0 1-.18.18M13.18 14.06a.18.18 0 0 1 .17.17M13 14.23a.18.18 0 0 1 .18-.17M13.18 14.41a.18.18 0 0 1-.18-.18M13.35 14.23a.18.18 0 0 1-.17.18M15.3 14.06a.18.18 0 0 1 .17.17M15.12 14.23a.18.18 0 0 1 .17-.17M15.3 14.41a.18.18 0 0 1-.18-.18" stroke="#fff" stroke-linecap="round" stroke-linejoin="round"/>
  <path class="gst-svg-icon" d="M15.47 14.23a.18.18 0 0 1-.18.18" stroke="#fff" stroke-linecap="round" stroke-linejoin="round"/>
</svg>