<svg width="139" height="32" viewBox="0 0 139 32" fill="none" xmlns="http://www.w3.org/2000/svg">
<path d="M137.864 0.00930946C136.912 0.10452 129.105 0.580572 129.105 0.580572C129.105 0.580572 128.819 0.485361 128.343 0.961413C127.962 1.43747 104.35 28.0964 104.35 28.0964C104.35 28.0964 101.113 31.6192 96.543 32H128.819L138.531 0.580572C138.531 0.580572 138.816 -0.0859009 137.864 0.00930946Z" fill="#00387C"/>
<path d="M114.729 24.288C114.539 24.3832 114.348 24.5736 114.253 24.7641C114.158 25.0497 114.443 25.3353 114.729 25.5257C115.11 25.7162 115.586 25.8114 116.443 25.8114C117.395 25.8114 117.871 25.6209 117.871 25.6209C117.871 25.6209 118.061 25.0497 118.252 24.6688C118.442 24.288 118.728 23.6215 118.918 23.2407C117.109 23.3359 115.681 23.7167 114.729 24.288Z" fill="url(#logo_paint0_linear)"/>
<path d="M132.153 13.3387C132.153 13.3387 131.391 14.2908 128.535 14.1956C126.631 14.1956 125.679 13.6243 123.393 13.5291C120.823 13.5291 119.014 14.386 118.443 15.5285C118.157 16.0998 116.729 19.3369 116.729 19.3369C116.729 19.3369 117.49 18.48 118.823 18.0992C120.632 17.5279 122.346 17.6231 124.06 17.9088C125.298 18.0992 126.059 18.3848 127.202 18.2896C128.249 18.2896 128.82 18.004 129.201 17.8136C129.773 17.5279 130.249 17.0519 130.915 16.0046C131.486 15.3381 132.058 13.7195 132.153 13.3387ZM114.444 24.3831C114.825 23.5262 115.396 22.098 116.157 20.7651C116.253 20.4794 116.538 20.1938 116.824 20.0034C117.776 19.1465 119.966 18.48 122.632 18.6704C124.536 18.8609 125.298 19.0513 126.44 19.1465C126.916 19.1465 127.488 19.2417 127.964 19.1465C129.201 18.9561 129.582 18.6704 129.582 18.6704C129.582 18.6704 128.82 20.6699 127.678 21.9076C126.345 23.431 125.012 23.5262 122.441 23.3358C118.728 22.9549 116.157 23.431 114.729 24.3831C114.539 24.4783 114.348 24.7639 114.253 24.9543C114.253 24.9543 114.253 24.7639 114.444 24.3831Z" fill="url(#logo_paint1_linear)"/>
<path d="M49.795 14.2909H45.8914C45.8914 14.3861 45.8914 14.3861 45.9866 14.4814C46.177 14.5766 46.3675 14.767 46.5579 14.9574C46.8435 15.243 46.8435 15.3382 46.8435 15.8143V23.1455H49.2238V17.2425L54.4603 23.1455H56.555V14.2909H53.2226C53.2226 14.3861 53.2226 14.4814 53.3178 14.4814C53.5082 14.5766 53.6987 14.767 53.8891 14.9574C54.0795 15.1478 54.1747 15.243 54.1747 15.7191V19.1467L49.795 14.2909ZM93.687 23.1455L91.7828 20.0036H89.593V23.1455H86.9271V15.8143C86.9271 15.3382 86.8319 15.243 86.7367 15.0526C86.5462 14.767 86.3558 14.6718 86.1654 14.5766C86.0702 14.4814 85.975 14.4814 85.975 14.3861H92.8301C94.8295 14.3861 96.2577 15.3382 96.2577 17.1472C96.2577 18.5754 95.5912 19.3371 94.3535 19.8131L96.4481 23.1455H93.687ZM81.6905 23.1455V15.8143C81.6905 15.3382 81.5953 15.243 81.5001 15.0526C81.3097 14.767 81.1192 14.6718 80.9288 14.5766C80.8336 14.4814 80.8336 14.4814 80.8336 14.3861H84.4516V23.2407H81.6905V23.1455ZM77.5012 23.1455L76.7396 21.4317H72.2647L71.5982 23.1455H69.1227L72.5503 15.6239C72.5503 15.5287 72.6455 15.4335 72.6455 15.243C72.6455 15.0526 72.4551 14.8622 72.0743 14.5766C71.979 14.4814 71.979 14.4814 71.979 14.2909H76.4539L80.548 23.1455H77.5012ZM63.8862 23.1455H59.2209V15.8143C59.2209 15.3382 59.1256 15.243 58.9352 15.0526C58.7448 14.767 58.5544 14.6718 58.364 14.5766C58.2688 14.3861 58.2688 14.3861 58.2688 14.2909H63.791C67.0281 14.2909 68.7419 16.0047 68.7419 18.6706C68.7419 21.2413 67.2185 23.1455 63.8862 23.1455ZM26.5637 23.1455V15.8143C26.5637 15.3382 26.4685 15.243 26.3733 15.0526C26.1829 14.767 25.9924 14.6718 25.802 14.5766C25.7068 14.4814 25.7068 14.4814 25.7068 14.3861H29.3248V21.1461H33.5141V23.2407H26.5637V23.1455ZM16.1858 23.1455V15.8143C16.1858 15.3382 16.0906 15.243 15.9953 15.0526C15.8049 14.767 15.6145 14.6718 15.4241 14.5766C15.3289 14.4814 15.3289 14.4814 15.3289 14.3861H24.5643V16.1951H18.9469V17.7185H23.1361V19.5275H18.9469V21.2413H24.5643V23.1455H16.1858ZM10.7588 23.4311C7.61683 23.4311 4.85573 22.0982 4.85573 18.7658C4.85573 16.0999 6.85515 13.9101 10.7588 13.9101C12.2821 13.9101 13.4247 14.1957 14.472 14.6718L13.8055 16.7664C13.2342 16.3856 12.1869 16.0047 10.9492 16.0047C8.56893 16.0047 7.61683 17.3377 7.61683 18.6706C7.61683 20.4796 9.04499 21.4317 10.9492 21.4317C12.1869 21.4317 13.2342 21.0509 13.9007 20.67L14.5672 22.5742C13.7103 22.9551 12.3773 23.4311 10.7588 23.4311ZM0.856893 23.1455V14.0053C0.856893 13.5293 0.761683 13.434 0.666473 13.2436C0.380842 12.958 0.190421 12.8628 0.0952104 12.7676C2.12812e-08 12.6724 0 12.6724 0 12.5771H3.61799V23.1455H0.856893ZM92.2589 16.0047H89.593V18.1946H92.4493C93.3062 18.1946 93.7822 17.8137 93.7822 17.052C93.7822 16.576 93.4966 16.0047 92.2589 16.0047ZM74.5497 16.3856L73.0264 19.7179H75.9779L74.5497 16.3856ZM63.5053 16.1951H61.8867V21.1461H63.5053C65.4095 21.1461 66.076 20.2892 66.076 18.6706C66.076 16.9568 65.2191 16.1951 63.5053 16.1951ZM42.7495 23.1455L41.9878 21.4317H37.5129L36.7512 23.1455H34.2757L37.7033 15.6239C37.7033 15.5287 37.7985 15.4335 37.7985 15.243C37.7985 15.0526 37.6081 14.8622 37.2273 14.5766C37.132 14.4814 37.132 14.4814 37.132 14.2909H41.6069L45.701 23.1455H42.7495ZM39.7979 16.3856L38.2746 19.7179H41.2261L39.7979 16.3856Z" fill="#00387C"/>
    <defs>
        <linearGradient id="logo_paint0_linear" x1="114.792" y1="23.5928" x2="118.169" y2="24.916" gradientUnits="userSpaceOnUse">
            <stop offset="0.068605" stop-color="#8B350B"/>
            <stop offset="0.1507" stop-color="#913C0E"/>
            <stop offset="0.2756" stop-color="#A34E14"/>
            <stop offset="0.2965" stop-color="#A65215"/>
            <stop offset="0.4558" stop-color="#B76519"/>
            <stop offset="0.8895" stop-color="#E8A71F"/>
        </linearGradient>
        <linearGradient id="logo_paint1_linear" x1="117.932" y1="16.6512" x2="128.075" y2="21.6113" gradientUnits="userSpaceOnUse">
            <stop stop-color="#E79000"/>
            <stop offset="0.0235647" stop-color="#E89400"/>
            <stop offset="0.0587068" stop-color="#ECA022"/>
            <stop offset="0.07" stop-color="#EDA42C"/>
            <stop offset="0.1001" stop-color="#F0B24D"/>
            <stop offset="0.2" stop-color="#FBDDAA"/>
            <stop offset="0.222" stop-color="#FADAA3"/>
            <stop offset="0.2562" stop-color="#F9D48F"/>
            <stop offset="0.2986" stop-color="#F7C96C"/>
            <stop offset="0.3469" stop-color="#F4BB35"/>
            <stop offset="0.35" stop-color="#F4BA30"/>
            <stop offset="0.66" stop-color="#EEA900"/>
            <stop offset="0.98" stop-color="#E78E00"/>
        </linearGradient>
    </defs>
</svg>
