<svg width="227" height="58" viewBox="0 0 227 58" fill="none" xmlns="http://www.w3.org/2000/svg">
<path fill-rule="evenodd" clip-rule="evenodd" d="M64.4155 31.1349C64.4155 29.8733 63.0728 29.0471 61.5727 28.1239C59.6735 26.9552 57.5219 25.6312 57.5219 23.0717C57.5219 20.2496 60.2718 19.3333 62.6827 19.3333C63.7751 19.3333 65.3195 19.4799 66.3366 19.9197L66.525 22.7052C65.9223 21.4591 64.3778 20.5794 62.984 20.5794C61.8539 20.5794 60.6862 21.1292 60.6862 22.3753C60.6862 23.7205 62.1247 24.5991 63.6981 25.5601C65.5971 26.7201 67.6927 28 67.6927 30.3652C67.6927 33.4805 64.8675 34.8 62.0423 34.8C60.5731 34.8 58.539 34.5068 57.2959 33.7005C57.2205 33.1873 57.1829 32.6742 57.1829 32.1611C57.1829 31.5381 57.2205 30.9516 57.3335 30.3286C58.1246 32.0512 59.7444 33.4072 61.7409 33.4072C63.2854 33.4072 64.4155 32.7842 64.4155 31.1349ZM39.8547 34.5434C40.3444 34.3235 40.6081 33.7371 40.6081 33.224V21.3125H37.2178C36.4268 21.3125 35.485 21.4224 34.807 21.7889L35.8617 19.5899H47.1627C48.0667 19.5899 49.0085 19.5532 49.9126 19.37C49.4982 20.5061 48.2174 21.3491 47.464 21.3491C46.56 21.3125 45.0908 21.2758 43.8101 21.2758V33.224C43.8101 33.7371 44.0737 34.3235 44.5635 34.5434H39.8547ZM26.4066 34.6167C26.3209 34.6167 26.2345 34.6175 26.1476 34.6182C25.6233 34.6227 25.0832 34.6273 24.5984 34.4701C23.5963 34.1915 22.2541 32.0932 21.638 31.1302L21.5472 30.9883C21.4013 30.7518 21.2594 30.501 21.1154 30.2465C20.3667 28.9234 19.5615 27.5005 17.8555 27.4698V33.1873C17.8555 33.7005 18.0815 34.2869 18.5712 34.5068H13.9755C14.4652 34.2502 14.6912 33.7005 14.6912 33.1873V20.9093C14.6912 20.3962 14.4652 19.8098 13.9755 19.5532H19.5507C21.9615 19.5532 25.0128 20.4695 25.0128 23.2916C25.0128 25.6739 22.9786 26.8834 20.7561 26.8834C22.3198 26.8834 23.569 28.6315 24.8504 30.4247C26.1929 32.3034 27.5708 34.2315 29.3825 34.2502C28.4031 34.5068 27.386 34.6167 26.4066 34.6167ZM0.715727 33.224C0.715727 33.7005 0.489708 34.2869 0 34.5434H6.51689C9.07844 34.5434 12.6947 33.7005 12.6947 30.3286C12.6947 27.9829 10.5852 26.6635 8.40038 26.7001C9.94484 26.4436 11.3386 25.1975 11.3386 23.6215C11.3386 20.6527 8.70174 19.5899 6.02718 19.5899H0C0.489708 19.8464 0.715727 20.4328 0.715727 20.946V33.224ZM3.88 20.9093C4.3697 20.836 4.59572 20.836 4.85941 20.836C6.70524 20.836 8.09902 21.4591 8.09902 23.5115C8.09902 25.6006 6.32854 26.1504 4.48271 26.1504H3.88V20.9093ZM5.23611 27.5065C4.78407 27.5065 4.40737 27.5065 3.88 27.5431V33.0774C4.55805 33.1873 5.27378 33.2606 5.95184 33.2606C7.4963 33.2606 9.07844 32.6009 9.07844 30.2919C9.04077 28.0196 7.19494 27.5065 5.23611 27.5065ZM17.8555 20.9093C18.1192 20.8726 18.3829 20.836 18.6466 20.836C20.3417 20.836 21.5848 21.4957 21.5848 23.3649C21.5848 25.1975 20.3041 26.1137 18.5712 26.1137C18.4626 26.1137 18.3539 26.1053 18.2411 26.0965C18.1192 26.087 17.9924 26.0771 17.8555 26.0771V20.9093ZM30.3619 33.224C30.3619 33.8837 29.9475 34.3602 29.5708 34.5434H34.3172C33.9029 34.3968 33.5262 33.8837 33.5262 33.224V20.946C33.5262 20.2496 33.9029 19.7731 34.3172 19.5899H29.5708C29.9475 19.7731 30.3619 20.2496 30.3619 20.946V33.224ZM51.231 33.224C51.231 33.8837 50.8167 34.3602 50.44 34.5434H55.1864C54.772 34.3968 54.3953 33.8837 54.3953 33.224V20.946C54.3953 20.2496 54.772 19.7731 55.1864 19.5899H50.44C50.8167 19.7731 51.231 20.2496 51.231 20.946V33.224ZM79.2918 34.5068C79.2678 34.5208 79.2438 34.533 79.2197 34.5434V34.5068H79.2918ZM79.8978 33.224C79.8978 33.8369 79.6051 34.3233 79.2918 34.5068H83.7778C83.4388 34.3602 83.0997 33.8471 83.0997 33.1873V20.9093C83.0997 20.2129 83.4388 19.7365 83.7778 19.5532H79.2197C79.5588 19.7365 79.8978 20.2129 79.8978 20.9093V25.9305C79.0691 26.0404 77.9013 26.0771 76.6205 26.0771C75.3021 26.0771 74.1343 26.0038 73.3056 25.9305V20.946C73.3056 20.2496 73.6446 19.7731 73.9836 19.5899H69.4256C69.7646 19.7731 70.1413 20.2496 70.1413 20.946V33.224C70.1413 33.8837 69.7646 34.3968 69.4256 34.5434H73.9836C73.6446 34.3968 73.3056 33.8837 73.3056 33.224V27.6531C74.1343 27.5431 75.3021 27.5065 76.6205 27.5065C77.939 27.5065 79.0691 27.5798 79.8978 27.6531V33.224Z" fill="#2E5C99"/>
<path fill-rule="evenodd" clip-rule="evenodd" d="M174.341 28.1239C175.846 29.0471 177.194 29.8733 177.194 31.1349C177.194 32.7842 176.06 33.4072 174.472 33.4072C172.469 33.4072 170.843 32.0512 170.05 30.3286L170.038 30.4269C169.966 31.0136 169.898 31.5709 169.898 32.1611C169.898 32.6742 169.936 33.1873 170.012 33.7005C171.259 34.5068 173.3 34.8 174.775 34.8C177.647 34.8 180.444 33.4805 180.444 30.3652C180.444 28 178.342 26.7201 176.436 25.5601C174.857 24.5991 173.414 23.7205 173.414 22.3753C173.414 21.1292 174.586 20.5794 175.72 20.5794C177.118 20.5794 178.668 21.4591 179.273 22.7052L179.084 19.9197C178.101 19.4799 176.551 19.3333 175.455 19.3333C173.036 19.3333 170.276 20.2496 170.276 23.0717C170.276 25.6312 172.435 26.9552 174.341 28.1239ZM168.65 21.1292L164.984 27.3598V33.224C164.984 33.7004 165.173 34.3235 165.664 34.5434H161.128C161.582 34.2869 161.809 33.6638 161.809 33.224V27.3598L158.634 22.412L158.619 22.3891C158.291 21.8714 156.984 19.8098 155.421 19.8098C155.874 19.6632 157.197 19.4066 158.104 19.4066C159.616 19.4066 160.335 19.5532 161.242 20.9459L164.19 25.454C164.455 25.0142 166.76 21.0925 166.76 21.0925C166.827 20.9734 166.89 20.8635 166.949 20.7627C167.124 20.4603 167.252 20.2404 167.252 20.103C167.252 19.8831 167.138 19.7365 166.912 19.5899H170.2C169.52 19.8464 168.991 20.5428 168.65 21.1292ZM125.748 34.6167C125.662 34.6167 125.575 34.6175 125.488 34.6182C124.962 34.6227 124.42 34.6273 123.934 34.4701C122.928 34.1915 121.581 32.0932 120.963 31.1302L120.872 30.9883C120.819 30.9021 120.765 30.8139 120.71 30.7242C119.829 29.288 118.713 27.4698 116.828 27.4698V33.1873C116.828 33.7005 117.054 34.2869 117.546 34.5068H112.896C113.388 34.2502 113.615 33.7005 113.615 33.1873V20.9093C113.615 20.3962 113.388 19.8098 112.896 19.5532H118.491C120.91 19.5532 123.934 20.4695 123.934 23.2916C123.934 25.6739 121.704 26.8834 120.04 26.8834C121.686 26.9741 123.009 28.779 124.327 30.5793C125.673 32.4171 127.016 34.2502 128.696 34.2502C127.752 34.5068 126.769 34.6167 125.748 34.6167ZM100.651 34.0303C100.651 34.2869 100.538 34.3968 100.387 34.5434L104.809 34.5801C104.431 34.3602 103.977 33.957 103.751 33.4072L98.5722 19.5899H94.5654C94.9056 19.7365 95.1324 20.0663 95.1324 20.4328C95.1324 20.5061 95.1324 20.5794 95.0946 20.6161L89.9917 33.4072C89.8027 33.8471 89.3869 34.3235 88.9333 34.5434H92.0707C91.8817 34.4701 91.6927 34.3602 91.6927 34.1403C91.6927 34.0518 91.7416 33.9396 91.8592 33.6702L91.8592 33.6701C91.8877 33.6047 91.9203 33.5299 91.9573 33.4439C91.9573 33.4439 93.3181 30.1087 93.4315 29.7788C94.3387 29.7055 95.2836 29.6689 96.1908 29.6689C97.1736 29.6689 98.1564 29.6689 99.1014 29.7788C99.2148 30.182 100.5 33.5172 100.5 33.5172C100.613 33.7738 100.651 33.957 100.651 34.0303ZM94.0363 28.2395L96.3798 22.412L98.5344 28.2395C97.7784 28.3494 96.9468 28.3494 96.153 28.3494C95.4726 28.3494 94.7166 28.3128 94.0363 28.2395ZM105.602 34.5434C105.979 34.3602 106.395 33.8837 106.395 33.224V20.946C106.395 20.2496 106.017 19.7731 105.602 19.5899H110.364C109.948 19.7731 109.57 20.2496 109.57 20.946V33.224C109.57 33.8837 109.948 34.3968 110.364 34.5434H105.602ZM116.919 20.897C117.147 20.8649 117.352 20.836 117.587 20.836C119.288 20.836 120.573 21.4957 120.573 23.3649C120.573 25.1974 119.288 26.1137 117.549 26.1137C117.44 26.1137 117.331 26.1053 117.217 26.0965C117.095 26.087 116.968 26.0771 116.831 26.0771V20.9093L116.919 20.897ZM140.34 34.5434L145.027 21.0193C145.216 20.4695 145.632 19.8464 146.161 19.5532H143.137C143.326 19.6998 143.402 19.8098 143.402 19.993C143.402 20.1038 143.38 20.1728 143.337 20.3105L143.337 20.3106L143.337 20.3107L143.337 20.311L143.337 20.3111C143.323 20.3555 143.307 20.4071 143.288 20.4695L140.264 29.3024L136.258 19.5532L132.629 29.6689L129.189 20.6894C129.114 20.5428 129.038 20.3229 129.038 20.1763C129.038 19.8464 129.189 19.6998 129.378 19.5532H124.842C125.409 19.8464 125.787 20.3962 126.014 20.9826L131.268 34.5434H132.705L135.766 26.1504L137.883 31.3548C138.148 32.0145 138.904 33.8104 139.357 34.2502C139.584 34.3968 139.962 34.5434 140.34 34.5434ZM150.661 22.412L148.318 28.2395C149.036 28.3128 149.754 28.3494 150.434 28.3494C151.228 28.3494 152.06 28.3494 152.816 28.2395L150.661 22.412ZM154.929 34.0303C154.929 34.2869 154.816 34.3968 154.664 34.5434L159.125 34.5801C158.747 34.3602 158.293 33.957 158.066 33.4073L152.888 19.5899H148.881C149.221 19.7365 149.448 20.0663 149.448 20.4329C149.448 20.4758 149.435 20.5187 149.424 20.5543C149.417 20.5795 149.41 20.6009 149.41 20.6161L144.27 33.4073C144.081 33.8471 143.665 34.3235 143.211 34.5434H146.311C146.16 34.4701 145.971 34.3602 145.971 34.1403C145.971 34.0518 146.019 33.9396 146.137 33.6702L146.137 33.6699L146.137 33.6696C146.166 33.6042 146.198 33.5296 146.235 33.4439C146.235 33.4439 147.558 30.1087 147.709 29.7788C148.617 29.7055 149.562 29.6689 150.469 29.6689C151.414 29.6689 152.434 29.6689 153.379 29.7788C153.53 30.182 154.778 33.5172 154.778 33.5172C154.891 33.7738 154.929 33.957 154.929 34.0303Z" fill="#2E5C99"/>
<path d="M220.438 7.93214C217.822 10.6358 212.174 12.9817 209.407 14.0552C205.616 15.5661 203.948 16.083 201.825 16.7986C199.437 17.6336 194.622 19.1445 194.622 19.1445C204.592 22.2458 211.605 23.2 211.605 23.2C211.605 23.2 214.865 22.1265 220.059 19.224C222.864 17.7131 224.229 16.7191 225.214 15.7649C225.593 15.407 226.503 14.413 226.769 13.1009C226.769 13.0214 226.844 12.7431 226.844 12.5045C226.844 12.5045 226.844 12.3455 226.844 12.1865C226.844 12.0274 226.807 11.9081 226.807 11.9081C226.807 11.9081 226.769 11.5901 226.693 11.3913C226.617 11.1925 226.314 10.5165 225.783 10.0792C225.442 9.80086 224.835 9.04542 222.674 8.25022C221.954 7.9719 220.741 7.73334 220.741 7.73334L220.438 7.93214Z" fill="url(#paint0_linear)"/>
<path d="M226.806 11.6C226.806 11.6 226.806 11.3579 226.73 11.1504C226.692 10.9428 226.578 10.7699 226.425 10.597C226.273 10.3549 226.006 10.1128 225.701 9.80147C225.434 9.59395 225.167 9.38643 224.824 9.1789C223.451 8.3834 221.697 7.89918 220.134 7.72625C217.732 7.44955 214.949 7.48414 214.682 7.48414C213.805 7.48414 208.01 7.51873 206.561 7.55331C199.965 7.69166 191.921 7.69166 189.824 7.69166C168.053 7.79542 158.56 7.34579 147.999 5.4435C139.039 3.81791 134.045 2.29608 134.045 2.29608C141.975 2.05397 188.146 0.324612 196.572 0.117089C202.1 -0.0212588 205.989 -0.0558459 209.154 0.117089C210.755 0.186264 212.242 0.324612 214.148 0.601309C215.826 0.878005 217.351 1.29305 218.266 1.60433C220.134 2.2269 221.736 3.16075 222.498 4.0946C222.498 4.0946 222.727 4.30213 223.032 4.68258C223.375 5.13222 223.794 5.68561 223.947 5.89313C225.091 7.44955 225.625 8.45258 225.815 8.79845C226.006 9.14432 226.196 9.52478 226.387 9.90523C226.54 10.2857 226.616 10.4932 226.692 10.6316C226.806 11.012 226.845 11.3579 226.845 11.4617L226.806 11.6Z" fill="#CE210F"/>
<path d="M115.858 53.1042H122.504V54.0454H114.711V40.8695H115.858V53.1042Z" fill="#CF2424"/>
<path d="M125.274 54.0454H124.165V44.254H125.274V54.0454ZM123.97 41.4215C123.97 41.2164 124.038 41.0444 124.174 40.9057C124.309 40.7609 124.494 40.6885 124.728 40.6885C124.963 40.6885 125.148 40.7609 125.283 40.9057C125.425 41.0444 125.496 41.2164 125.496 41.4215C125.496 41.6266 125.425 41.7986 125.283 41.9373C125.148 42.0761 124.963 42.1455 124.728 42.1455C124.494 42.1455 124.309 42.0761 124.174 41.9373C124.038 41.7986 123.97 41.6266 123.97 41.4215Z" fill="#CF2424"/>
<path d="M128.681 54.0454V45.1408H127.026V44.254H128.681V43.0685C128.681 42.067 128.94 41.2978 129.458 40.7609C129.982 40.224 130.709 39.9555 131.639 39.9555C132.059 39.9555 132.45 40.0068 132.814 40.1093L132.73 41.0143C132.422 40.9419 132.086 40.9057 131.723 40.9057C131.113 40.9057 130.638 41.0927 130.299 41.4668C129.96 41.8348 129.791 42.3596 129.791 43.0413V44.254H132.176V45.1408H129.791V54.0454H128.681Z" fill="#CF2424"/>
<path d="M137.404 54.2264C136.554 54.2264 135.783 54.0212 135.093 53.611C134.409 53.2008 133.876 52.6307 133.494 51.9007C133.112 51.1647 132.921 50.3412 132.921 49.4302V49.0411C132.921 48.0999 133.105 47.2523 133.475 46.4982C133.851 45.7441 134.372 45.1529 135.038 44.7245C135.703 44.2902 136.424 44.073 137.201 44.073C138.415 44.073 139.376 44.4802 140.085 45.2946C140.8 46.103 141.158 47.2101 141.158 48.6158V49.2221H134.021V49.4302C134.021 50.5403 134.344 51.4663 134.991 52.2084C135.645 52.9444 136.464 53.3124 137.45 53.3124C138.042 53.3124 138.563 53.2068 139.013 52.9956C139.469 52.7845 139.882 52.4467 140.252 51.9821L140.945 52.4979C140.131 53.6502 138.951 54.2264 137.404 54.2264ZM137.201 44.996C136.369 44.996 135.666 45.2946 135.093 45.8919C134.526 46.4892 134.181 47.2915 134.058 48.299H140.057V48.1814C140.027 47.2402 139.752 46.4741 139.235 45.8828C138.717 45.2916 138.039 44.996 137.201 44.996Z" fill="#CF2424"/>
<path d="M148.901 51.5568C148.901 51.0199 148.679 50.5885 148.235 50.2627C147.797 49.937 147.135 49.6836 146.247 49.5026C145.36 49.3156 144.67 49.1044 144.177 48.8691C143.69 48.6278 143.326 48.3352 143.086 47.9913C142.851 47.6475 142.734 47.2312 142.734 46.7425C142.734 45.9703 143.064 45.3338 143.724 44.8331C144.383 44.3264 145.227 44.073 146.257 44.073C147.372 44.073 148.266 44.3445 148.938 44.8874C149.615 45.4243 149.954 46.1272 149.954 46.9959H148.845C148.845 46.4228 148.599 45.9462 148.106 45.5661C147.619 45.186 147.002 44.996 146.257 44.996C145.529 44.996 144.944 45.1559 144.5 45.4756C144.063 45.7893 143.844 46.1996 143.844 46.7063C143.844 47.195 144.026 47.5751 144.389 47.8466C144.759 48.112 145.428 48.3563 146.395 48.5796C147.369 48.8028 148.096 49.0411 148.577 49.2945C149.064 49.5478 149.424 49.8525 149.659 50.2084C149.893 50.5644 150.01 50.9957 150.01 51.5025C150.01 52.329 149.668 52.9896 148.984 53.4843C148.306 53.979 147.418 54.2264 146.321 54.2264C145.156 54.2264 144.21 53.9519 143.483 53.4029C142.762 52.8478 142.402 52.148 142.402 51.3034H143.511C143.554 51.9369 143.825 52.4316 144.324 52.7875C144.83 53.1374 145.495 53.3124 146.321 53.3124C147.092 53.3124 147.714 53.1465 148.189 52.8147C148.663 52.4829 148.901 52.0636 148.901 51.5568Z" fill="#CF2424"/>
<path d="M153.824 41.7473V44.254H155.895V45.1408H153.824V51.6654C153.824 52.2084 153.923 52.6126 154.12 52.878C154.323 53.1435 154.659 53.2762 155.128 53.2762C155.312 53.2762 155.611 53.246 156.024 53.1857L156.07 54.0725C155.781 54.1751 155.386 54.2264 154.887 54.2264C154.129 54.2264 153.577 54.0122 153.232 53.5839C152.887 53.1495 152.715 52.513 152.715 51.6744V45.1408H150.875V44.254H152.715V41.7473H153.824Z" fill="#CF2424"/>
<path d="M160.957 52.4889L163.878 44.254H165.071L160.8 55.7105L160.578 56.2172C160.029 57.4057 159.182 58 158.036 58C157.771 58 157.487 57.9577 157.185 57.8733L157.176 56.9774L157.749 57.0317C158.291 57.0317 158.729 56.8989 159.062 56.6335C159.401 56.3741 159.687 55.9246 159.922 55.2851L160.411 53.9639L156.64 44.254H157.851L160.957 52.4889Z" fill="#CF2424"/>
<path d="M167.628 54.0454H166.518V40.1455H167.628V54.0454Z" fill="#CF2424"/>
<path d="M174.113 54.2264C173.263 54.2264 172.493 54.0212 171.802 53.611C171.118 53.2008 170.585 52.6307 170.203 51.9007C169.821 51.1647 169.63 50.3412 169.63 49.4302V49.0411C169.63 48.0999 169.815 47.2523 170.184 46.4982C170.56 45.7441 171.081 45.1529 171.747 44.7245C172.412 44.2902 173.133 44.073 173.91 44.073C175.124 44.073 176.086 44.4802 176.794 45.2946C177.509 46.103 177.867 47.2101 177.867 48.6158V49.2221H170.73V49.4302C170.73 50.5403 171.053 51.4663 171.701 52.2084C172.354 52.9444 173.174 53.3124 174.16 53.3124C174.751 53.3124 175.272 53.2068 175.722 52.9956C176.178 52.7845 176.591 52.4467 176.961 51.9821L177.654 52.4979C176.841 53.6502 175.66 54.2264 174.113 54.2264ZM173.91 44.996C173.078 44.996 172.375 45.2946 171.802 45.8919C171.235 46.4892 170.89 47.2915 170.767 48.299H176.767V48.1814C176.736 47.2402 176.462 46.4741 175.944 45.8828C175.426 45.2916 174.748 44.996 173.91 44.996Z" fill="#CF2424"/>
<defs>
<linearGradient id="paint0_linear" x1="195.128" y1="1.84615" x2="192.308" y2="24.0806" gradientUnits="userSpaceOnUse">
<stop stop-color="#E6EBEF"/>
<stop offset="0.0764" stop-color="#BBCEE5"/>
<stop offset="0.1854" stop-color="#85A9D8"/>
<stop offset="0.2796" stop-color="#5D8FCF"/>
<stop offset="0.3543" stop-color="#457EC9"/>
<stop offset="0.4" stop-color="#3C78C7"/>
<stop offset="0.9" stop-color="#2E5C99"/>
</linearGradient>
</defs>
</svg>
