<svg width="45" height="37" viewBox="0 0 45 37" fill="none" xmlns="http://www.w3.org/2000/svg">
<path fill-rule="evenodd" clip-rule="evenodd" d="M29.8673 1.44824C26.412 1.44824 23.3304 5.97221 21.3145 13.0456C19.2987 5.97221 16.2159 1.44824 12.7612 1.44824C6.68853 1.44824 1.76367 16.5002 1.76367 35.068H6.65193C6.65193 17.8268 9.38778 3.85007 12.7612 3.85007C16.1351 3.85007 18.8709 16.752 18.8709 32.6667H23.7581C23.7581 16.752 26.4934 3.85007 29.8673 3.85007C33.2413 3.85007 35.9771 17.8268 35.9771 35.0674H40.8637C40.8637 16.5002 35.9405 1.44824 29.8668 1.44824H29.8673ZM43.3117 34.8919C42.7425 34.8919 42.3082 34.449 42.3082 33.8612C42.3082 33.2867 42.7425 32.8433 43.3117 32.8433C43.8722 32.8433 44.3081 33.2867 44.3081 33.8617C44.3081 34.449 43.8722 34.8919 43.3117 34.8919ZM43.3117 32.6662C42.6452 32.6662 42.0858 33.1831 42.0858 33.8617C42.0846 34.0203 42.1156 34.1775 42.1767 34.3242C42.2379 34.471 42.3282 34.6043 42.4422 34.7165C42.5563 34.8286 42.6919 34.9174 42.8411 34.9777C42.9904 35.0379 43.1503 35.0684 43.3117 35.0674C43.9749 35.0674 44.5299 34.5505 44.5299 33.8617C44.5306 33.7044 44.4995 33.5485 44.4385 33.4031C44.3775 33.2576 44.2878 33.1255 44.1745 33.0143C44.0612 32.9032 43.9266 32.8152 43.7785 32.7554C43.6305 32.6956 43.4718 32.6653 43.3117 32.6662Z" fill="#FFBC0D"/>
<path fill-rule="evenodd" clip-rule="evenodd" d="M43.2888 33.7882H43.0572V33.3421H43.3495C43.4997 33.3421 43.6614 33.37 43.6614 33.5563C43.6614 33.7785 43.4833 33.7882 43.2888 33.7882ZM43.8821 33.5654C43.8821 33.297 43.7237 33.1649 43.3861 33.1649H42.8359V34.5682H43.0572V33.9648H43.2921L43.6772 34.5682H43.9154L43.5101 33.9482C43.7199 33.9256 43.8821 33.8193 43.8821 33.5654Z" fill="#FFBC0D"/>
</svg>
