<svg width="59" height="40" viewBox="0 0 59 40" fill="none" xmlns="http://www.w3.org/2000/svg"><path d="M29.344 34.324a2.841 2.841 0 0 1 2.854-2.846 2.84 2.84 0 0 1 2.854 2.846 2.84 2.84 0 0 1-2.854 2.845 2.841 2.841 0 0 1-2.854-2.845Zm11.612 0a2.841 2.841 0 0 1 2.854-2.846 2.841 2.841 0 0 1 2.854 2.846 2.841 2.841 0 0 1-2.854 2.845 2.841 2.841 0 0 1-2.854-2.845Zm-26.92 0a2.84 2.84 0 0 1 2.855-2.846 2.841 2.841 0 0 1 2.854 2.846 2.84 2.84 0 0 1-2.854 2.845 2.84 2.84 0 0 1-2.854-2.845Zm-11.612 0a2.84 2.84 0 0 1 2.854-2.846 2.84 2.84 0 0 1 2.855 2.846 2.84 2.84 0 0 1-2.855 2.845 2.84 2.84 0 0 1-2.854-2.845Zm23.479-5.03H23.42v9.96h2.483v-9.96Zm-17.79 9.96h2.483v-9.96H8.113v.8a5.142 5.142 0 0 0-2.952-.916A5.148 5.148 0 0 0 0 34.324a5.136 5.136 0 0 0 5.161 5.145 5.142 5.142 0 0 0 2.952-.916v.702Zm38.532 0h2.482v-9.96h-2.482v.8a5.142 5.142 0 0 0-2.952-.916c-2.854 0-5.16 2.3-5.16 5.146a5.135 5.135 0 0 0 5.16 5.145 5.142 5.142 0 0 0 2.952-.916v.702Zm3.402-3.235c.078 2.008 1.798 3.43 4.672 3.43 2.346 0 4.281-1.013 4.281-3.254 0-1.56-.88-2.476-2.913-2.866l-1.583-.311c-1.017-.195-1.72-.39-1.72-.995 0-.662.684-.954 1.544-.954 1.251 0 1.76.623 1.798 1.364h2.503c-.137-1.95-1.701-3.255-4.223-3.255-2.6 0-4.145 1.423-4.145 3.274 0 2.262 1.838 2.632 3.422 2.924l1.31.234c.938.175 1.349.448 1.349.994 0 .487-.47.974-1.584.974-1.623 0-2.15-.837-2.17-1.56h-2.541ZM19.726 25.904v4.19a5.143 5.143 0 0 0-2.952-.916 5.148 5.148 0 0 0-5.162 5.146 5.136 5.136 0 0 0 5.162 5.145 5.143 5.143 0 0 0 2.951-.916v.702h2.483V25.903h-2.482Zm15.306 0v4.19a5.142 5.142 0 0 0-2.951-.916c-2.855 0-5.161 2.3-5.161 5.146a5.135 5.135 0 0 0 5.16 5.145 5.142 5.142 0 0 0 2.952-.916v.702h2.483V25.903h-2.483ZM6.452 22.96l1.68 2.943h11.594L15.13 17.99l-8.68 4.97Zm19.45 5.418v-2.476h9.13l-9.735-16.8-8.7 4.97 6.823 11.83v2.476h2.483Zm12.826-2.476H50.34L35.326 0l-8.68 4.99 12.082 20.914Z" fill="#000"/></svg>