<svg width="97" height="36" viewBox="0 0 97 36" fill="none" xmlns="http://www.w3.org/2000/svg">
<path fill-rule="evenodd" clip-rule="evenodd" d="M45.9497 19.1416L46.2827 16.843L46.3682 16.391C46.5292 15.5401 46.6958 14.6599 46.8747 13.7994C47.0461 12.9732 47.4693 11.1248 47.5762 10.4539C47.617 10.1965 47.6597 9.93011 47.7723 9.67969C48.0899 8.97536 48.774 9.17151 49.2818 9.28138C50.5282 9.55092 50.3853 10.5624 50.3018 11.2538C50.2331 11.8169 49.9036 13.1318 49.811 13.5065C49.7576 13.7249 49.6986 13.964 49.6332 14.2847C49.5899 14.498 49.546 14.7108 49.5014 14.9234C49.5475 14.8267 49.5932 14.7306 49.6385 14.6347C49.9566 13.9631 50.257 13.3282 50.6515 12.7094C51.0572 12.0727 51.4358 11.5774 51.8425 11.1509C52.3726 10.5951 53.3345 9.92367 54.3015 9.85961C54.7333 9.83137 54.9275 9.84894 55.3946 9.96103C55.8576 10.072 56.238 10.314 56.5249 10.68C56.6947 10.8967 56.8361 11.142 56.9443 11.4093C57.4665 12.6961 57.6273 14.153 57.423 15.7394C57.4181 15.7748 57.413 15.8099 57.4075 15.845C57.5358 15.5088 57.6553 15.2021 57.7439 15.0291L57.9116 14.7004C58.5517 13.4411 59.1564 12.2515 60.7642 10.5346C61.591 9.65167 62.381 9.15105 63.1795 9.00382C64.1388 8.82724 65.9436 9.76154 66.2944 10.6164C66.4682 11.0401 66.5497 11.5083 66.5433 12.048C66.5358 12.6739 66.4611 13.3442 66.3081 14.1573C66.2005 14.7279 66.0655 15.3113 65.9354 15.8753C65.8139 16.4017 65.6885 16.9466 65.5858 17.4752C65.5166 17.834 65.3662 18.5156 65.207 19.2371C64.9223 20.5294 64.5675 22.1374 64.5538 22.4532C64.5231 23.1749 64.5848 23.5552 65.0051 23.6297C65.0111 23.6308 65.0177 23.6312 65.0245 23.6312C65.5255 23.6312 67.9222 20.771 68.4808 19.8751C68.5931 19.6954 69.1456 18.9161 69.3538 18.6104C69.4297 18.12 69.5177 17.5468 69.5638 17.2307C69.7579 15.7097 70.4855 12.5723 71.2195 10.0906C71.8004 8.1281 72.2978 6.30287 72.6976 4.83637C73.4318 2.14223 73.7673 0.939713 74.0224 0.670388C74.2824 0.395725 74.9245 0.342794 75.4833 0.549847C76.1979 0.81428 76.5864 1.40898 76.5486 2.18115C76.5451 2.25676 76.4709 2.63484 75.9483 4.86239L75.9291 4.9449C75.6143 6.28597 73.9429 12.3381 73.1891 15.061C73.7916 13.9427 74.7887 12.265 76.057 11.1007C76.527 10.6688 77.0865 10.3496 77.7202 10.1522C78.5357 9.89773 79.3145 9.90841 80.0343 10.184C81.0069 10.5569 81.6549 11.249 81.9608 12.2412C82.0898 12.6602 82.1698 13.1045 82.2047 13.5989C82.257 14.3413 82.1735 15.063 82.0954 15.6089C81.9418 16.6791 81.6843 17.7487 81.3293 18.7868C79.9177 22.9192 77.0315 26.5904 73.0338 26.5904C71.1978 26.5904 70.6216 25.7459 70.5083 25.4085C70.4806 25.3262 70.463 25.2393 70.455 25.1499C70.4367 24.9462 70.5376 24.7378 70.7179 24.6066C70.899 24.4744 71.1205 24.4484 71.2948 24.5378C71.9049 24.8485 72.7955 24.5881 73.5544 24.1415C75.8385 22.798 77.3648 19.8479 77.9642 18.2335C78.3325 17.2438 78.7879 15.6957 79.0015 14.7096C79.0243 14.6033 79.0576 14.4609 79.096 14.2952C79.2617 13.5827 79.5391 12.3897 79.502 11.932C79.483 11.7023 79.2515 11.5849 79.0547 11.5904C78.9662 11.5931 78.795 11.6307 78.7066 11.6703C78.3764 11.8175 76.7185 12.8283 74.767 15.6299C73.9288 16.833 73.1034 18.1032 72.742 19.2392C72.5772 19.7569 72.0825 21.45 71.9555 22.1361C71.839 22.766 71.532 23.0658 70.9701 23.4296C70.6012 23.6678 70.1809 23.7076 69.8726 23.5317C69.2273 23.1641 69.2292 21.7899 69.2351 21.1897C68.3931 22.4104 66.2623 25.3088 64.6671 25.6651C64.2925 25.7485 63.4658 25.7258 62.7386 25.1109C62.1478 24.6109 61.4467 23.5538 61.4609 21.3557C61.4688 20.1409 61.7038 19.0122 61.9757 17.7052L62.0747 17.2273C62.1922 16.6575 62.3711 15.9478 62.5441 15.2619C62.7097 14.6063 62.8805 13.9282 62.9938 13.3862C63.0421 13.1538 63.0753 12.9076 63.1075 12.6692L63.1217 12.564C63.1448 12.391 63.1468 11.678 62.8911 11.4749C62.804 11.4062 62.6901 11.4048 62.5405 11.4705C62.4272 11.5238 61.5234 12.3234 60.5924 13.7587C59.8871 14.8456 59.3258 15.807 58.708 17.239C58.1216 18.5981 57.8499 19.3467 57.5058 20.2944C57.3861 20.6242 57.2578 20.9776 57.1047 21.3877C56.964 21.7651 56.8284 22.223 56.6972 22.6658C56.5971 23.0034 56.5026 23.3223 56.4063 23.607C56.3773 23.6933 56.3502 23.7794 56.3228 23.8657C56.2938 23.9566 56.2647 24.0478 56.2338 24.1394C56.2055 24.2219 56.1701 24.3067 56.1288 24.3918C55.8578 24.9501 55.0763 25.3317 54.5076 25.3651C54.095 25.3891 53.3535 25.3802 53.0398 25.0435C52.9093 24.9038 52.8221 24.7372 52.7808 24.548C52.7556 24.433 52.7277 24.2984 52.7145 24.157C52.7061 24.0654 52.7151 23.962 52.7406 23.8585C52.8198 23.5336 52.9234 23.0944 53.0321 22.6347C53.1766 22.0217 53.3299 21.3723 53.4456 20.9082C53.6634 20.0373 53.8628 19.145 54.0557 18.2823C54.1679 17.7808 54.2801 17.2789 54.3967 16.7765C55.2579 13.0628 54.891 11.7122 54.7541 11.5772C54.5931 11.4173 54.4893 11.4527 54.2478 11.5565C53.0147 12.0867 51.9533 14.4786 51.3194 15.9078L51.1644 16.2556C50.5989 17.5148 49.7198 19.7017 49.0307 21.7491C48.9558 21.9715 48.8582 22.2448 48.759 22.5235C48.6373 22.864 48.5127 23.2131 48.423 23.4876C48.2684 23.9604 47.9371 24.532 47.4264 24.6218C47.1631 24.6683 46.8678 24.6841 46.6401 24.6238L46.607 24.6147C46.0676 24.4732 45.7036 24.2239 45.5247 23.8739C45.3168 23.4678 45.3959 23.027 45.4659 22.6382C45.4822 22.5486 45.4981 22.4599 45.5107 22.3725C45.5264 22.2605 45.5419 22.1482 45.5573 22.0357C45.2169 22.5579 44.8553 23.0953 44.5424 23.5312C44.3178 23.8447 43.1425 25.406 42.0584 25.406C41.7234 25.4051 41.3859 25.3439 41.051 25.2254C40.395 24.9919 39.8554 24.5326 39.4461 23.8599C39.1581 23.3859 38.9549 22.8295 38.8248 22.159C38.7066 21.5485 38.7435 20.3271 38.8109 19.467C38.8186 19.3685 38.8685 19.0423 38.9215 18.6971C38.9301 18.6426 38.939 18.5837 38.948 18.5245C38.1692 19.8331 36.5716 22.5046 34.9704 23.4206C34.5271 23.6746 34.0971 23.8176 33.6553 23.8583C33.1716 23.9023 32.7495 23.8158 32.3676 23.5928C32.0716 23.4195 31.6871 22.9067 31.5022 22.6602C31.2376 22.3075 31.0348 21.8872 30.8833 21.3757C30.7636 20.9718 30.6964 20.5412 30.6781 20.0593C30.6487 19.286 30.7214 18.4927 30.9012 17.6336C31.1123 16.6254 31.4196 15.6238 31.8149 14.6561C32.3327 13.3886 32.9222 12.3085 33.6178 11.3544C33.9906 10.8426 34.3504 10.3814 34.7939 10.0582C35.4897 9.5507 36.269 9.16684 37.0829 9.04163C37.3471 9.00093 38.7437 8.82012 40.1021 9.39258C40.7972 9.6857 41.3108 10.3249 41.6401 11.0334C41.7474 11.2647 41.8331 11.5361 41.7443 11.7956C41.6456 12.0841 41.347 12.2731 41.0654 12.2956C40.7837 12.3178 40.5198 12.2033 40.2894 12.0558C40.059 11.9084 39.8505 11.7258 39.6122 11.5914C38.7512 11.1064 37.6601 11.3368 36.9188 12.1303C36.3056 12.7868 35.7782 13.5445 35.3517 14.3805C34.4889 16.0717 33.8691 17.8139 33.5098 19.5589C33.3945 20.1191 33.3395 20.6095 33.3311 21.1468L33.3366 21.228C33.3423 21.3198 33.3498 21.4437 33.3691 21.5652C33.392 21.7099 33.4271 21.8449 33.4735 21.9673C33.5488 22.1645 33.6626 22.2221 33.8572 22.1587C33.9451 22.1296 34.0315 22.0762 34.1287 21.9906C34.5154 21.6501 34.8512 21.311 35.1557 20.9524C35.662 20.3564 36.1261 19.6954 36.5212 19.1232C36.9888 18.4462 37.4279 17.7477 37.8648 17.0502C38.3587 16.2623 38.8594 15.2759 39.4973 14.4929C39.7922 14.1306 40.1165 13.8119 40.4834 13.5761C41.0983 13.1809 41.9476 13.1227 42.3827 13.6455C42.7937 14.139 42.7005 14.9234 42.5857 15.6131C42.2354 17.7185 41.7956 19.8496 41.8614 21.9526L41.8636 22.0515C41.8813 23.1253 42.0467 23.3962 42.1819 23.4344C42.6014 23.5525 43.0056 23.154 43.2103 22.906C44.3565 21.5211 45.0231 20.6507 45.9426 19.1532C45.945 19.1494 45.9473 19.1455 45.9497 19.1416ZM29.2725 8.86302C29.9488 9.31694 29.9245 10.0724 29.8419 10.8079C29.7008 12.0591 27.4454 24.1772 24.5205 30.7418C23.8192 32.3159 21.8317 35.5687 17.8537 35.5687C15.7078 35.5687 13.9693 34.2753 13.5907 33.6265C13.152 32.8746 13.1448 32.3108 13.562 32.102C13.9949 31.8856 14.4811 32.2863 14.9098 32.5003C15.5099 32.8003 16.2176 32.9522 16.9951 33.0276C19.476 33.2678 21.4931 30.6877 23.4775 23.3492C23.8673 21.9079 24.376 19.8131 24.6956 18.4867C25.1341 16.6701 25.685 14.5166 26.276 12.3231C26.3304 12.1214 26.382 11.8687 26.4364 11.6014C26.6528 10.5399 26.9225 9.21864 27.755 8.75249C28.2096 8.49784 28.7914 8.5401 29.2725 8.86302ZM31.7063 3.02591C31.7669 3.55099 31.686 4.00869 31.4667 4.38588C31.3085 4.65787 31.1111 4.8716 30.88 5.02061C30.448 5.29994 29.9658 5.43716 29.363 5.45273C29.3418 5.4534 29.3202 5.45384 29.2985 5.45384C29.0034 5.45384 28.6876 5.39023 28.3348 5.26013C28.1102 5.17718 27.8253 4.96189 27.7446 4.40856C27.6234 3.58168 27.7608 2.90448 28.1528 2.39674C28.3956 2.08182 28.7011 1.85965 29.0865 1.71709C29.3982 1.60255 29.7153 1.55073 30.0292 1.56519C30.3987 1.58187 30.7767 1.7162 31.1515 1.96462C31.462 2.17012 31.6485 2.52729 31.7063 3.02591ZM90.9164 15.606L91.9172 13.4906C92.1551 13.0164 92.8069 12.2142 93.836 12.3007C94.8724 12.3877 94.8839 13.1914 94.8856 13.4812C94.8936 14.6953 93.4775 17.4375 93.127 19.2423C92.9865 19.9653 92.1324 22.7833 93.6416 23.4861C94.1203 23.7089 94.6106 23.6758 95.0893 23.38C95.3099 23.2439 95.5032 23.0651 95.7206 22.9234C95.9381 22.782 96.2188 22.6643 96.466 22.6868C96.8234 22.7188 97.0719 22.951 96.9815 23.3962C96.8912 23.8415 96.4212 24.327 96.0678 24.6274C95.017 25.5208 93.5548 25.924 92.3033 25.5704C91.424 25.3218 90.6931 24.6526 90.3435 23.8508C89.9625 22.977 89.9967 22.0936 90.1944 21.0372C89.1916 23.1249 88.1227 24.5302 87.1471 25.0306C86.2367 25.4972 85.2469 25.5864 84.4312 25.2757C83.3122 24.8496 82.5946 23.7205 82.5109 22.256C82.4612 21.3813 82.5162 20.4757 82.679 19.4867C82.8724 18.3106 83.0834 17.5218 83.4721 16.3738C84.3406 13.9236 85.6385 11.6691 88.1314 10.5556C89.5242 9.9333 91.0863 9.76627 92.5094 10.0874C92.7636 10.1446 93.0227 10.222 93.2092 10.397C93.3958 10.572 93.4899 10.8694 93.3653 11.1136C93.2524 11.3351 93.0042 11.4496 92.7762 11.5452C92.0758 11.8401 90.006 12.0541 88.0932 14.3041C87.6545 14.8199 87.3249 15.4172 87.0195 16.0157C86.3221 17.3826 84.3658 21.6649 85.4903 23.8933C85.5636 24.0387 85.6889 24.1068 85.8424 24.1166C86.4635 24.1557 87.6492 22.0536 88.1247 21.1551L88.2869 20.8502C88.7664 19.9564 90.2807 17.0243 90.9164 15.606Z" fill="#117058"/>
<path fill-rule="evenodd" clip-rule="evenodd" d="M13.1321 26.8327C13.1539 26.723 13.1968 26.6133 13.3261 26.6133C13.4772 26.6133 13.5416 26.7449 13.5416 26.8546C13.6278 27.5567 14.2958 28.3685 15.2441 28.7195C15.7182 28.8948 16.4078 28.8073 16.6664 28.7412C16.9465 28.6537 17.1407 28.7851 17.2051 28.9389C17.2484 29.0486 17.2698 29.2461 17.0112 29.4874C16.8603 29.6188 16.0845 30.1895 14.8779 29.7507C13.5849 29.2461 12.9384 27.7761 13.1321 26.8327Z" fill="#74C04C"/>
<path fill-rule="evenodd" clip-rule="evenodd" d="M11.818 16.2137C12.3567 15.8846 14.0161 14.8095 15.8479 14.8095C17.7874 14.8095 19.1019 15.4896 19.0804 16.4769C19.0588 17.5081 17.0547 18.1005 15.3953 18.1224C11.0853 18.1663 7.5295 16.7841 6.08563 11.343C5.95633 10.8603 5.87013 10.7067 5.61153 10.7067C5.28828 10.7067 5.20208 11.1016 5.20208 11.5185C5.11588 15.9065 9.03801 20.7114 14.9428 20.6455C20.2657 20.5797 21.0199 17.9689 21.0415 16.828C21.0628 15.6871 20.0071 13.6686 15.9985 13.6686C13.8006 13.6686 11.6671 14.9192 11.1715 15.6871C10.8482 16.1698 11.3223 16.5208 11.818 16.2137Z" fill="#FAC53C"/>
<path fill-rule="evenodd" clip-rule="evenodd" d="M14.0163 23.059C13.9514 23.1465 13.9085 23.1906 13.9085 23.3003C13.9085 23.4539 14.0592 23.5636 14.21 23.5416C14.2533 23.5416 14.2964 23.5197 14.3395 23.4978C15.0076 22.9932 15.5248 22.9054 16.4083 22.9931C17.1839 23.0809 17.6798 23.5636 17.5721 24.0024C17.4425 24.4851 16.6238 24.88 15.6325 24.8361C13.9732 24.7703 11.4303 24.3315 10.6111 20.7114C10.5465 20.4262 10.4605 20.2943 10.3096 20.2943C10.1155 20.3165 10.0941 20.492 10.0724 20.9525C10.0295 23.2784 11.7535 26.0647 15.0507 26.4375C17.2917 26.701 18.52 25.4724 18.6924 24.3973C18.8002 23.6513 18.3263 22.4446 16.6238 22.2252C15.072 22.0495 14.21 22.8615 14.0163 23.059Z" fill="#B1D461"/>
<path fill-rule="evenodd" clip-rule="evenodd" d="M0.999658 0.28522C0.913458 0.13164 0.741056 0 0.547104 0C0.266952 0 -0.0563007 0.24134 0.00834986 0.52656C0.805707 4.43188 4.44769 11.9354 14.3177 12.1109C21.6663 12.2425 23.9075 8.40302 23.9722 6.09932C24.0368 4.23442 23.0455 0.48268 16.2356 0.37298C11.1067 0.28522 7.55091 3.37876 6.60271 4.43188C6.49495 4.54158 6.4303 4.73904 6.4303 4.89262C6.4303 5.2656 6.75356 5.52888 7.07681 5.485C7.27076 5.46306 7.42161 5.35336 7.57246 5.24366C10.5248 2.87414 13.6712 2.34758 15.8477 2.39146C18.4338 2.43534 21.0844 3.66398 21.0198 5.57276C20.9551 7.48154 18.4553 8.77599 14.9211 8.71017C7.83107 8.57853 4.23219 6.1432 0.999658 0.28522Z" fill="#F5804B"/>
<path fill-rule="evenodd" clip-rule="evenodd" d="M20.0287 29.4435L19.964 28.6537L19.6408 29.4435H19.533L19.2098 28.6756L19.1451 29.4657H18.9943L19.102 28.4123H19.2529L19.6194 29.2463L19.964 28.4123H20.1149L20.2011 29.4657H20.0287V29.4435ZM18.8865 28.3904V28.522H18.5202V29.4435H18.3693V28.522H18.0032V28.3904H18.8865Z" fill="#117159"/>
</svg>
