<svg width="127" height="25" viewBox="0 0 127 25" fill="none" xmlns="http://www.w3.org/2000/svg">
  <path d="M99.538 17.846c-1.335-.074-2.45-.752-2.127-2.551.072-.402.295-.804.542-1.118-.014.001-1.86.172-3.687 3.557-1.368 2.535-1.153 5.257.55 5.331 1.356.06 3.135-1.386 4.188-3.726a9.154 9.154 0 0 0 .534-1.493Zm-29.123-.042c-1.733.062-2.428-1.44-2.134-2.632.101-.412.301-.892.723-1.226l-.078.004c-1.752.177-2.996 2.002-3.815 3.672-1.274 2.602-1.084 5.28.51 5.36 1.343.07 3.05-1.325 4.169-3.643.184-.382.502-1.188.625-1.535Zm-13.323-3.426c-.862.025-4.06.099-5.93.157 1.279.483 3.404 1.913 3.938 5.01.102-.28 1.349-3.555 1.992-5.168Zm67.496 2.654c.2.427.787 1.49 1.058 2.287.339 1 .281 1.637.234 1.987-.297 2.218-1.764 3.489-4.29 3.53-1.42.024-2.611-.335-3.184-1.32-.281-.482-.357-1.065.088-1.635.205-.263.468-.487.586-.576.173-.13.316-.189.437-.183.33.019.416.192.524.862.131.817.631 1.315 1.324 1.301.237-.004 1.083-.069 1.339-.91.186-.61.011-1.352-.491-2.25-.647-1.157-.941-2.128-.898-3.063a46.692 46.692 0 0 0-1.778 2.182c-2.257 2.934-3.321 4.49-5.051 5.168-.879.345-1.763.38-2.383.21-1.556-.425-1.645-1.831-1.539-2.724.126-1.066.657-2.66 1.608-4.698-2.92 2.748-5.717 6.26-6.218 6.88-.484.596-1.042.37-1.368.165a17.53 17.53 0 0 1-.914-.603c-.43-.298-.532-.448-.339-1.183.453-1.721 1.458-4.489 2.387-6.532-1.041.732-1.99 1.143-3.159 1.402-.135.807-.442 1.65-.937 2.508-1.917 3.328-5.312 5.43-8.638 4.71-1.65-.359-2.586-1.564-2.737-3.159-1.183 1.528-2.181 2.167-3.157 2.617-1.218.563-2.275.402-2.534.345-1.658-.367-1.76-1.758-1.596-2.872a7.71 7.71 0 0 1 .226-.959c-1.66 2.008-3.257 3.188-4.547 3.686-.69.266-1.624.463-2.53.295-1.173-.217-1.842-1.09-1.735-2.636.12-1.754 1.412-4.012 4.17-7.048-.374-.171-.606-.508-.708-.85-.795.985-2.638 2.267-4.352 3-.14.99-.485 1.956-1.025 2.921-1.827 3.262-5.437 5.43-8.699 4.55-2.838-.766-3.53-4.065-1.571-7.357a10.39 10.39 0 0 1 2.667-2.974c-1.982.076-4.059.148-4.059.148s-2.176 4.897-4.172 9.904c-.149.372-.513.84-1.223.391-.347-.22-.552-.37-1.043-.753-.392-.305-.416-.496-.418-.911.01-3.39-1.364-6.474-4.219-7.402-1.105 2.62-2.325 5.761-3.54 8.837-.255.646-.804.54-1.39.147-.371-.25-.63-.436-.972-.704-.523-.408-.62-.565-.329-1.393.29-.822 1.519-4.146 2.805-7.578-.317.01-1.346.048-1.346.048-.344.011-.538-.049-.642-.314a25.904 25.904 0 0 1-.327-.872c-.128-.359-.1-.688.523-.735.237-.019 1.379-.055 2.541-.102C49.14 7.547 51.894 1.5 52.374.529c.328-.663.88-.617 1.392-.328.373.21.872.497 1.485.887.574.366.8.633.377 1.519-.076.16-2.527 5.18-4.729 10.129 1.223-.046 5.72-.193 6.921-.21a324.985 324.985 0 0 1 4.658-10.69c.21-.456.414-.832 1.212-.423.886.456 1.077.537 1.638.867.523.31.698.552.376 1.218-.159.327-2.118 4.379-4.126 8.946 1.084-.027 5.352-.126 6.63-.162.397-.012 1.989-.076 2.755.129 1.205.322 1.94 1.08 2.341 2.166.075.19.186.615.23.852 2.044-1.034 4.02-2.763 5.12-4.669.222-.384.465-.42.926-.243.362.14.287.464.213.706-.174.557-.187 1.14.047 1.53.22.366.494.722 2.04.9.353.04.517.184.596.425.08.245.12.434-.266.861-2.026 2.247-3.28 3.76-3.976 5.535-.84 2.144.105 2.061.56 1.954 1.255-.294 4.066-2.992 6.065-6.417a191.595 191.595 0 0 1 2.316-5.338c-1.085.064-1.742.108-1.879.118-.463.034-.552-.2-.637-.399-.086-.197-.16-.399-.254-.67-.094-.27-.094-.556.493-.613a300.9 300.9 0 0 1 3.095-.24 270.783 270.783 0 0 1 1.81-3.877c.34-.708.772-.87 1.444-.481.62.358.726.426 1.242.753.483.308.7.506.331 1.304a665.59 665.59 0 0 1-.946 2.028c3.457-.232 7.365-.46 9.625-.483.683-.008.809.084.951.391.148.32.252.547.39.873.154.363.028.658-.404.669-4.497.11-8.46.274-11.442.42-1.663 3.539-2.91 6.222-4.337 10.007-.759 2.016.396 1.728.51 1.692 1.53-.487 3.06-3.07 4.883-5.73 2.089-3.048 5.146-4.439 7.767-3.8.979.238 1.654.634 2.163 1.429.16.215.305.508.396.775.108.34.197.724.225 1.13 1.535-.41 2.866-1.162 4.363-2.627.32-.313.662-.495 1.296-.06.4.274.657.44 1.025.728.508.397.747.586.255 1.476-.278.501-1.082 2.01-2.284 5.027 2.684-3.241 6.005-6.38 6.713-6.864.188-.128.534-.316 1.133.052.398.245.592.364.987.653.511.373.694.655.325 1.393-.352.706-1.552 2.915-2.2 5.04-.52 1.708.075 1.826.523 1.694.607-.182 1.408-1.021 3.172-3.29 1.542-1.983 2.91-3.579 4.556-5.137.445-.422 1.097-1.001 1.533-1.338.332-.258.706-.49.996-.51.206-.014.329.036.573.263.197.183.233.218.361.342.268.255.407.367.424.565.026.33-.139.424-.516.725l-.181.148c-.783.649-1.669 1.502-1.067 2.783ZM18.35 10.629c1.153-.185 2.02-1.269 1.934-2.417-.078-1.034-.887-1.785-1.924-1.785-.11 0-.223.009-.336.027-1.152.184-2.02 1.268-1.934 2.417a1.891 1.891 0 0 0 1.924 1.785c.11 0 .223-.009.336-.027Zm20.436 5.505c.491-.898.281-1.142-.275-1.524-.472-.325-.569-.406-.889-.613-.634-.41-1.079-.25-1.57.195-1.717 1.557-4.239 4.125-6.109 6.318 1.112-2.975 1.719-4.268 2.126-5.184.35-.79.259-1.01-.184-1.308a46.16 46.16 0 0 0-1.171-.755c-.47-.296-.853-.19-1.18.102-1.15 1.03-4.504 4.324-6.778 6.873 1.114-2.594 2.086-4.816 2.43-5.549.326-.695.384-1.027-.18-1.43-.424-.305-.804-.542-1.206-.783-.731-.44-1.01-.143-1.297.308-.108.168-.272.443-.485.782-3.182 5.3-5.773 8.236-6.803 8.577-.442.146-.653.043-.756-.053-.376-.356-.04-1.368.11-1.775.543-1.466 1.604-3.802 2.695-6.039.416-.854.287-1.098-.302-1.515-.37-.261-.714-.466-1.157-.736-.66-.398-1.059-.19-1.427.57-.882 1.819-3.124 6.418-3.533 8.938-.308 1.9.522 2.74 1.623 2.984.83.183 1.778-.047 2.303-.294 1.17-.548 2.802-1.923 4.997-4.983-.425 1.088-.873 2.33-1.114 3.117-.271.89-.114 1.121.424 1.462.246.155.36.233.709.447.36.22.91.445 1.393-.126.645-.759 4.119-4.958 6.855-7.524-.627 1.647-1.562 4.145-2.002 5.731-.196.706-.029.944.563 1.334l.887.555c.208.122.794.397 1.308-.207.498-.585 3.388-4.22 5.733-6.504-.885 2.002-1.386 3.544-1.556 4.714-.057.392-.312 2.411 1.81 2.73.672.1 1.894 0 2.788-.85.234-.22.336-.485.309-.64-.036-.2-.197-.217-.435-.232-.177-.01-.4-.025-.626-.14-.781-.396-.402-1.356-.222-1.935.68-2.19 1.543-3.846 2.194-5.038ZM14.243 4.419C12.661 7.926 6.117 22.978 5.5 24.34c-.264.583-.68.84-1.423.44a25.884 25.884 0 0 1-1.714-1c-.719-.451-.482-1.018-.27-1.47 2.046-4.346 3.34-7.513 4.45-9.879 1.918-4.089 2.855-5.976 3.69-7.722-3.203.33-7.392.72-8.293.847C.796 5.716.692 5.32.43 4.664c-.212-.53-.152-.321-.267-.65-.21-.602-.414-1.212.742-1.33 2.518-.26 14.448-1.295 23.642-1.468.77-.015 1.064.006 1.322.55.24.507.27.497.516 1.076.246.58-.165.866-.71.888-3.918.158-7.716.424-11.432.689Z" fill="#3F2021"/>
</svg>