<svg width="144" height="24" viewBox="0 0 144 24" fill="none" xmlns="http://www.w3.org/2000/svg">
<g clip-path="url(#clip0_905:12487)">
<path fill-rule="evenodd" clip-rule="evenodd" d="M80.7256 -0.0842285H86.4426L89.6665 10.5263H89.7095L92.9763 -0.0842285H98.5644V17.221H94.8677V5.01051H94.8247L91.2999 17.221H87.9041L84.4223 5.01051H84.3793V17.221H80.6826V-0.0842285H80.7256ZM130.416 3.3263H134.113V2.77893V-0.0842285H130.416V3.3263ZM130.416 17.1789H134.113V16.3789V4.54735H130.416V17.1789ZM136.133 17.1789H139.83V16.4631V-0.0842285H136.133V17.1789ZM122.034 13.9368C120.315 13.9368 118.896 12.5473 118.896 10.8631C118.896 9.17893 120.315 7.78946 122.034 7.78946C123.754 7.78946 125.172 9.17893 125.172 10.8631C125.172 12.5895 123.754 13.9368 122.034 13.9368ZM118.853 17.1789V16.0421C119.799 17.0526 121.003 17.4737 122.378 17.4737C126.075 17.4737 128.912 14.4421 128.912 10.8631C128.912 7.3263 126.118 4.21051 122.378 4.21051C121.046 4.21051 119.885 4.63156 118.853 5.47367V-0.0842285H115.157V17.221H118.853V17.1789ZM141.807 1.51577H141.464V0.210509H140.991V-0.0842285H142.323V0.210509H141.807V1.51577ZM144.086 1.51577H143.785V0.168404L143.484 1.51577H143.14L142.839 0.168404V1.51577H142.538V-0.0842285H143.054L143.355 1.17893L143.656 -0.0842285H144.129V1.51577H144.086Z" fill="#0C479D"/>
<path fill-rule="evenodd" clip-rule="evenodd" d="M106.775 13.9368C108.494 13.9368 109.913 12.5474 109.913 10.8631C109.913 9.17893 108.494 7.78946 106.775 7.78946C105.056 7.78946 103.637 9.17893 103.637 10.8631C103.637 12.5895 105.013 13.9368 106.775 13.9368ZM99.9403 10.8631C99.9403 7.15788 102.992 4.1684 106.775 4.1684C110.558 4.1684 113.61 7.15788 113.61 10.8631C113.61 14.5684 110.558 17.5579 106.775 17.5579C102.992 17.5579 99.9403 14.5684 99.9403 10.8631ZM50.7224 4.54735H54.2901V5.7263C54.677 5.38946 55.9236 4.25261 58.2018 4.25261C60.9098 4.25261 63.0591 6.18946 63.0591 9.26314V17.221H59.2764V10.2316C59.2764 8.50525 58.4167 7.49472 56.8692 7.49472C55.3648 7.49472 54.4621 8.46314 54.4621 10.2316V17.1789H50.7224V4.54735ZM38.5576 10.8631C38.5576 9.09472 39.8901 7.66314 41.7385 7.66314C43.5868 7.66314 44.9194 9.09472 44.9194 10.8631C44.9194 12.6316 43.5868 14.0631 41.7385 14.0631C39.8901 14.0631 38.5576 12.6316 38.5576 10.8631ZM34.8179 10.8631C34.8179 14.5263 37.8269 17.4737 41.6955 17.4737C45.6072 17.4737 48.5731 14.5263 48.5731 10.8631C48.5731 7.19998 45.6072 4.25261 41.6955 4.25261C37.7839 4.25261 34.8179 7.19998 34.8179 10.8631ZM16.9791 17.1789L20.9767 12.1684L23.4698 14.6105L17.7528 21.6421H22.1803L25.834 17.0105L32.6686 23.8316H38.0418L28.1982 14.1474L35.9355 4.54735H31.4651L25.791 11.7474L23.2979 9.30524L29.6597 1.43156H25.2322L20.8907 6.90525L18.5266 4.50525H13.2394L18.5695 9.7684L12.5516 17.1789H16.9791ZM0.0429688 -0.0842285H11.6489V3.15788H3.9976V6.73682H11.3051V9.85261H3.9976V13.9789H11.6489V17.221H0.0429688V-0.0842285ZM64.6495 6.14735H64.3057V4.84209H63.7898V4.54735H65.1224V4.84209H64.6066V6.14735H64.6495ZM66.9277 6.14735H66.6268V4.79998L66.326 6.14735H65.9821L65.6812 4.79998V6.14735H65.3373V4.54735H65.8531L66.154 5.81051L66.4549 4.54735H66.9277V6.14735Z" fill="#FE000C"/>
</g>
<defs>
<clipPath id="clip0_905:12487">
<rect width="144" height="24" fill="white"/>
</clipPath>
</defs>
</svg>
