<svg width="118" height="32" viewBox="0 0 118 32" fill="none" xmlns="http://www.w3.org/2000/svg">
<path d="M108.817 28.3433H116.261V31.623H108.817V28.3433Z" fill="#231F20"/>
<path d="M35.9557 14.969H42.8922V11.756H41.5999V3.45653H42.739V6.48881H45.2135V0.32605H33.7168V6.48881H36.1481V3.45653H37.2911V11.756H35.9557V14.969Z" fill="#231F20"/>
<path d="M50.8023 3.45643C50.9162 3.45643 51.0144 3.45643 51.1322 3.45643C52.6602 3.45643 53.375 3.86492 53.375 4.90187C53.375 5.91917 52.7191 6.34731 51.309 6.34731C51.1558 6.34731 50.9791 6.34731 50.8062 6.32767V3.45643H50.8023ZM45.5469 14.9689H51.9807V11.7559H50.8023V9.1125C50.9555 9.1125 51.093 9.09286 51.2069 9.09286C52.8094 9.09286 53.1786 9.70167 53.1786 11.4103V14.9689H58.3005V11.7559H57.295V10.9232C57.295 8.99073 57.1222 8.15804 55.1308 7.76918C56.7922 7.21929 57.6407 6.04094 57.6407 4.26949C57.6407 1.48466 55.7867 0.322021 51.9807 0.322021H45.5469V3.45643H46.6859V11.7559H45.5469V14.9689Z" fill="#231F20"/>
<path d="M35.5862 31.674V30.7195C36.246 31.5326 37.2516 32 38.5163 32C41.1165 32 42.8526 30.0283 42.8526 26.7917C42.8526 24.2072 41.7528 23.0092 39.3569 22.0548L37.9821 21.5049C37.4322 21.281 37.1219 21.0964 37.1219 20.629C37.1219 20.1223 37.5422 19.7334 38.2217 19.7334C39.4119 19.7334 40.1424 20.4247 40.3074 21.7248H42.1024V16.9918H40.1267V17.6635C39.5965 17.0311 38.8266 16.6854 37.8015 16.6854C35.3112 16.6854 33.5908 18.7004 33.5908 21.772C33.5908 24.2308 34.6356 25.6173 36.8863 26.3872L38.0568 26.7957C38.7166 27.0195 39.0269 27.3652 39.0269 27.9347C39.0269 28.626 38.532 29.0738 37.6915 29.0738C36.576 29.0738 35.8061 28.2411 35.4015 26.5914H33.6615V31.6779H35.5862V31.674Z" fill="#231F20"/>
<path d="M112.563 24.4743C111.738 24.4743 111.574 23.5787 111.574 21.6698C111.574 19.9612 111.793 19.1482 112.563 19.1482C113.424 19.1482 113.553 20.1262 113.553 22.098C113.553 23.7201 113.278 24.4743 112.563 24.4743ZM107.968 21.8112C107.968 24.9417 109.763 26.9763 112.563 26.9763C115.329 26.9763 117.159 24.9417 117.159 21.8112C117.159 18.6807 115.348 16.6658 112.563 16.6658C109.798 16.6658 107.968 18.6965 107.968 21.8112Z" fill="#231F20"/>
<path d="M43.5039 20.2048V26.9764C43.5039 30.3543 45.1693 32 48.5747 32C51.6306 32 53.0957 30.4328 53.0957 27.2199V20.2244H53.9912V16.9918H49.4349V20.2244H50.3148V27.2395C50.3148 28.2765 49.8395 28.8656 48.9793 28.8656C48.0838 28.8656 47.5889 28.2765 47.5889 27.2199V20.2244H48.4687V16.9918H42.6123V20.2048H43.5039Z" fill="#231F20"/>
<path d="M59.5195 23.3549V20.1223C59.6295 20.1223 59.7198 20.1223 59.8141 20.1223C60.9846 20.1223 61.5541 20.5897 61.5541 21.6267C61.5541 22.7657 60.9296 23.3549 59.7591 23.3549C59.6844 23.3549 59.5941 23.3549 59.5195 23.3549ZM54.378 31.6348H60.6193V28.4218H59.5195V26.4068H60.5996C63.8204 26.4068 65.4858 24.7375 65.4858 21.607C65.4858 18.6376 63.9304 16.9918 61.0003 16.9918H54.374V20.1223H55.4542V28.4218H54.374V31.6348H54.378Z" fill="#231F20"/>
<path d="M70.2773 23.3549V20.1223C70.3873 20.1223 70.4776 20.1223 70.568 20.1223C71.7385 20.1223 72.308 20.5897 72.308 21.6267C72.308 22.7657 71.6874 23.3549 70.513 23.3549C70.4423 23.3549 70.3519 23.3549 70.2773 23.3549ZM65.1319 31.6348H71.3732V28.4218H70.2734V26.4068H71.3535C74.5744 26.4068 76.2398 24.7375 76.2398 21.607C76.2398 18.6376 74.6843 16.9918 71.7542 16.9918H65.1279V20.1223H66.2081V28.4218H65.1279V31.6348H65.1319Z" fill="#231F20"/>
<path d="M75.9639 31.6348H86.0309V25.8569H83.085V28.4218H81.0347V20.1223H82.0049V16.9918H75.9639V20.1223H76.934V28.4218H75.9639V31.6348Z" fill="#231F20"/>
<path d="M88.1723 25.5938V28.4218H86.7819V31.6348H93.6084V28.4218H92.1983V25.5938L95.2385 20.1027H96.0437V16.9918H91.5227V20.1027H92.3829L90.9532 22.8679L89.4724 20.1027H90.368V16.9918H84.1816V20.1027H84.9868L88.1723 25.5938Z" fill="#231F20"/>
<path d="M105.348 26.1829C105.183 27.6284 104.598 28.3786 103.738 28.3786C102.493 28.3786 102.053 27.0745 102.053 24.3093C102.053 21.3792 102.493 19.9769 103.718 19.9769C104.708 19.9769 105.258 20.8725 105.258 22.6204C105.258 22.64 105.258 22.6793 105.258 22.7029H107.693V16.9918H105.423V17.9266C104.708 17.0939 103.793 16.6854 102.697 16.6854C99.8414 16.6854 97.6064 19.8159 97.6064 24.5764C97.6064 29.0699 99.7314 31.9804 103.043 31.9804C106.193 31.9804 107.968 29.9261 108.003 26.1829H105.348Z" fill="#231F20"/>
<path d="M63.8866 7.52576H61.9738L62.7279 4.69772C62.8418 4.26959 62.94 3.82182 63.0186 3.3544C63.1168 4.00642 63.1914 4.4542 63.2503 4.69772L63.8866 7.52576ZM62.013 14.969V11.7953H60.7758L61.1253 10.5148H64.4876L64.7782 11.7953H63.486V14.969H69.6684V11.7953H68.6432L66.534 3.45653H67.5984V0.32605H59.3107V3.45653H60.3751L57.9792 11.7953H56.9736V14.969H62.013Z" fill="#231F20"/>
<path d="M76.876 9.51714C76.7031 10.9626 76.0825 11.7128 75.1752 11.7128C73.8594 11.7128 73.3959 10.4127 73.3959 7.64356C73.3959 4.71341 73.8594 3.31117 75.1556 3.31117C76.2004 3.31117 76.7778 4.20672 76.7778 5.9546C76.7778 5.97424 76.7778 6.01744 76.7778 6.03708H79.3466V0.326024H76.9506V1.26085C76.1964 0.428147 75.2302 0.0196533 74.0715 0.0196533C71.0588 0.0196533 68.7021 3.15013 68.7021 7.91066C68.7021 12.4041 70.9449 15.3146 74.4407 15.3146C77.7636 15.3146 79.6372 13.2604 79.6765 9.51714H76.876Z" fill="#231F20"/>
<path d="M108.644 3.45643C108.762 3.45643 108.856 3.45643 108.974 3.45643C110.502 3.45643 111.217 3.86492 111.217 4.90187C111.217 5.91917 110.561 6.34731 109.151 6.34731C108.998 6.34731 108.821 6.34731 108.648 6.32767V3.45643H108.644ZM103.385 14.9689H109.819V11.7559H108.64V9.1125C108.793 9.1125 108.931 9.09286 109.045 9.09286C110.647 9.09286 111.017 9.70167 111.017 11.4103V14.9689H116.138V11.7559H115.133V10.9232C115.133 8.99073 114.96 8.15804 112.969 7.76918C114.63 7.21929 115.482 6.04094 115.482 4.26949C115.482 1.48466 113.629 0.322021 109.822 0.322021H103.389V3.45643H104.528V11.7559H103.389V14.9689H103.385Z" fill="#231F20"/>
<path d="M82.0289 14.969H88.9655V11.756H87.6693V3.45653H88.8084V6.48881H91.2829V0.32605H79.7861V6.48881H82.2214V3.45653H83.3605V11.756H82.0289V14.969Z" fill="#231F20"/>
<path d="M97.3544 3.0912C98.8234 3.0912 99.1337 4.55628 99.1337 7.64748C99.1337 10.7387 98.8234 12.2038 97.3544 12.2038C95.8853 12.2038 95.5593 10.7387 95.5593 7.64748C95.5554 4.55628 95.8853 3.0912 97.3544 3.0912ZM90.8027 7.80852C90.8027 10.0042 91.4194 11.8345 92.6017 13.1975C93.8586 14.6429 95.3276 15.291 97.2954 15.291C99.3418 15.291 100.889 14.5997 102.146 13.0954C103.266 11.7324 103.906 9.86277 103.906 7.74567C103.902 2.96944 101.333 0 97.2758 0C93.3912 0 90.8027 3.05192 90.8027 7.80852Z" fill="#231F20"/>
<path d="M8.98294 31.0414L26.9488 24.9219L32.9702 1.69666H0L8.98294 31.0414Z" fill="#ED1846"/>
<path d="M9.19472 5.60894H9.76033V6.9444H11.5318V2.84375H4.32422V6.9444H6.07996V5.60894H6.62985V15.7192L5.98962 16.1119V18.0759H9.83889V16.1119L9.19472 15.7192V5.60894Z" fill="white"/>
<path d="M12.0352 20.9392H13.3588L13.7516 20.4011C16.0847 23.0367 20.2443 19.3681 17.3495 13.6334C16.2694 11.4967 15.0085 9.52494 14.9103 8.9554C14.6864 7.66707 16.5482 7.61601 16.5639 9.34818V9.98842H18.5357V5.70709H17.1099L16.725 6.25306C16.6975 6.24913 16.2576 5.71102 15.2049 5.67959C13.787 5.63639 11.6306 6.98363 12.6832 10.0434C13.076 11.1864 13.5317 11.968 14.6393 13.983C17.6519 19.4427 14.003 19.1481 14.1012 17.4552V16.2612H12.0391V20.9392H12.0352Z" fill="white"/>
<path d="M24.6825 9.34026C24.5725 8.7668 19.8984 6.85787 19.6863 15.7583C19.5017 23.4608 21.391 24.5999 23.4492 24.5959C24.8161 24.592 26.5639 23.2526 26.5639 20.5856V19.1598H24.4861V20.837C24.4783 20.8331 24.4783 21.9604 23.6456 21.9604C22.373 21.9604 22.2748 20.2714 22.2001 16.0136C22.1019 10.3851 24.329 10.3615 24.4861 12.3804V13.1463L26.4932 13.1503V8.86499H25.0674L24.6825 9.34026Z" fill="white"/>
<path d="M116.271 0.8601C116.425 0.8601 116.495 0.907234 116.495 1.01721C116.495 1.12326 116.425 1.18218 116.295 1.18218H116.205V0.8601H116.271ZM116.338 0.593008H115.776V1.96382H116.208V1.43749H116.252L116.495 1.96382H116.963L116.664 1.36679C116.845 1.30394 116.939 1.1704 116.939 0.997574C116.935 0.73441 116.735 0.593008 116.338 0.593008ZM117.332 1.30394C117.332 1.58282 117.234 1.82635 117.041 2.01095C116.841 2.20734 116.589 2.30947 116.322 2.30947C116.051 2.30947 115.804 2.20734 115.611 2.01095C115.419 1.81849 115.313 1.56711 115.313 1.30002C115.313 1.03292 115.419 0.777616 115.615 0.581225C115.8 0.392689 116.047 0.290565 116.322 0.290565C116.597 0.290565 116.845 0.392689 117.037 0.58908C117.226 0.777616 117.332 1.029 117.332 1.30394ZM116.318 0.0391846C115.973 0.0391846 115.663 0.168803 115.431 0.400545C115.187 0.647998 115.054 0.970079 115.054 1.30394C115.054 1.63781 115.183 1.95204 115.427 2.19556C115.67 2.43909 115.981 2.57263 116.318 2.57263C116.648 2.57263 116.974 2.43909 117.222 2.19163C117.461 1.95989 117.587 1.65352 117.587 1.30394C117.587 0.962224 117.458 0.640142 117.222 0.4084C116.982 0.164875 116.664 0.0391846 116.318 0.0391846Z" fill="#231F20"/>
</svg>