<svg width="23" height="22" viewBox="0 0 23 22" fill="none" xmlns="http://www.w3.org/2000/svg"><path d="M0 0h22v11.88l-1.09 1.7L22 15.09V22H0V10.8l.68-.78L0 9.27V0Z" fill="#016FD0"/><path d="M4.27 15.33v-3.45h3.66l.39.5.4-.5H22v3.21s-.35.24-.75.24H13.9l-.44-.54v.54H12v-.93s-.2.13-.63.13h-.5v.8H8.7l-.39-.52-.4.52H4.27ZM0 9.27l.82-1.92h1.43l.47 1.08V7.35h1.77l.28.78.27-.78H13v.4s.42-.4 1.1-.4h2.59l.46 1.07V7.35h1.48l.4.61v-.61h1.5v3.45h-1.5l-.38-.6v.6h-2.18l-.22-.54h-.59l-.21.54h-1.48c-.6 0-.97-.38-.97-.38v.38h-2.23l-.44-.54v.54H2.04l-.22-.54h-.58l-.22.54H0V9.27Z" fill="#fff"/><path d="M1.12 7.78 0 10.36h.73l.2-.52h1.2l.2.52h.74L1.96 7.78h-.84Zm.4.6.37.9h-.73l.37-.9ZM3.15 10.36V7.78h1.03l.6 1.67.58-1.67h1.02v2.58h-.65v-1.9l-.68 1.9h-.57l-.69-1.9v1.9h-.64ZM6.82 10.36V7.78h2.11v.57H7.48v.45H8.9v.54H7.48v.46h1.45v.56h-2.1ZM9.3 7.78v2.58h.65v-.92h.28l.77.92h.8l-.86-.95c.35-.03.71-.33.71-.8 0-.54-.43-.83-.9-.83H9.3Zm.65.57h.74c.18 0 .3.14.3.28 0 .17-.16.27-.29.27h-.75v-.55ZM12.57 10.36h-.66V7.78h.66v2.58ZM14.14 10.36H14c-.7 0-1.11-.54-1.11-1.28 0-.76.41-1.3 1.28-1.3h.72v.6h-.74c-.36 0-.6.28-.6.7 0 .5.28.72.7.72h.16l-.27.56ZM15.55 7.78l-1.12 2.58h.73l.2-.52h1.2l.2.52h.74L16.4 7.78h-.84Zm.4.6.37.9h-.73l.37-.9ZM17.58 10.36V7.78h.82l1.05 1.62V7.78h.64v2.58h-.8L18.23 8.7v1.67h-.64ZM4.71 14.89V12.3h2.11v.58H5.37v.44h1.42v.55H5.37v.46h1.45v.56h-2.1ZM15.05 14.89V12.3h2.11v.58H15.7v.44h1.42v.55H15.7v.46h1.46v.56h-2.1ZM6.9 14.89l1.03-1.28-1.05-1.3h.81l.63.8.63-.8h.78L8.7 13.58l1.03 1.3h-.81l-.6-.8-.6.8h-.8ZM9.8 12.3v2.59h.66v-.82h.68c.58 0 1.02-.3 1.02-.9 0-.49-.35-.87-.93-.87H9.8Zm.66.59h.72c.19 0 .32.11.32.3 0 .17-.13.3-.32.3h-.72v-.6ZM12.44 12.3v2.59h.64v-.92h.28l.77.92h.8l-.86-.95c.35-.03.71-.33.71-.8 0-.54-.43-.84-.9-.84h-1.44Zm.64.58h.74c.18 0 .31.14.31.27 0 .17-.17.27-.3.27h-.75v-.54ZM17.46 14.89v-.56h1.3c.19 0 .27-.1.27-.22 0-.1-.08-.22-.28-.22h-.58c-.5 0-.8-.3-.8-.77 0-.42.27-.82 1.02-.82h1.26l-.27.58h-1.09c-.2 0-.27.11-.27.22 0 .1.08.22.24.22h.6c.58 0 .82.32.82.74 0 .46-.27.83-.84.83h-1.38ZM19.83 14.89v-.56h1.3c.19 0 .27-.1.27-.22 0-.1-.08-.22-.27-.22h-.59c-.5 0-.79-.3-.79-.77 0-.42.26-.82 1.02-.82h1.25l-.27.58h-1.09c-.2 0-.27.11-.27.22 0 .1.08.22.24.22h.61c.57 0 .81.32.81.74 0 .46-.27.83-.84.83h-1.38Z" fill="#016FD0"/></svg>