<svg width="102" height="14" viewBox="0 0 102 14" fill="none" xmlns="http://www.w3.org/2000/svg"><g clip-path="url(#a-logo-2)" fill="#8F9296"><path d="M63.8 12.2c2 0 2.5-1.3 3-2.8h-1c-1.2 0-3.3.2-3.3 1.8 0 .7.7 1 1.3 1Zm2.5.1c-.9 1-1.8 1.7-3.2 1.7-1.7 0-3-1-3-2.7 0-3.1 3.6-3.4 6-3.4h.9v-.8c0-1-1-1.2-1.9-1.2-1.1 0-2.2.3-3.2.7l.4-2c1-.3 2.1-.5 3.3-.5 2 0 3.8.7 3.8 3 0 1.2-1 4.9-1.2 6.7H66l.3-1.5ZM.4 4.3h1.8l.5-2 2.7-.8-.6 2.8H7l-.4 1.8H4.4l-1 4.1v1c0 .5.3.9 1 .9l1.1-.2-.4 1.9-1.4.2C2 14 .8 13.3.8 11.5l.3-2.2.7-3.2H0l.4-1.8ZM9 .2h2.6L11 2.6H8.5L9 .2Zm-.9 4.1h2.5l-2 9.5H6l2.1-9.5ZM18.3 6.5c-.5-.3-1.1-.5-1.8-.5-2 0-3.2 1.8-3.2 3.6 0 1.3.4 2.5 2.2 2.5.6 0 1.4-.2 2-.5l-.3 2c-.7.3-1.6.4-2.4.4-2.5 0-4.2-1.6-4.2-4 0-3.4 2.3-6 5.8-6 1 0 1.9.3 2.5.5l-.6 2ZM21.1 0h2.6L22 7.7l3.6-3.4h3.3l-4.7 4.3 3 5.2h-3l-2.5-5-1.1 5H18L21 0ZM38 4.3H40l.4-2 2.7-.8-.6 2.8h2.3l-.4 1.8H42l-1 4.1v1c0 .5.4.9 1 .9l1.2-.2-.5 1.9-1.3.2c-1.8 0-3-.7-3-2.5l.3-2.2.8-3.2h-1.9l.4-1.8Z"/><path d="M37.2 7.7c0-2.4-1.6-3.6-4-3.6-3.2 0-5.6 2.8-5.6 5.8 0 2.8 1.9 4 4.7 4 1 0 2.1-.1 3.1-.4l.3-2c-.9.4-2 .7-3 .7-1.6 0-2.5-.6-2.7-2v-.4c0-.6.2-1.3.4-1.9.5-1.2 1.2-2 2.7-2 1 0 1.6.6 1.6 1.6V8h-3.5l-.3 1.7h6l.3-2.1ZM45.8 5.4l.2-1h2.4L48 5.5c.7-1 1.9-1.5 3-1.5 1.2 0 2.4.7 2.5 1.8.7-1.2 2.2-1.8 3.5-1.8 1.5 0 2.7 1.2 2.7 2.6 0 .8-.2 1.8-.4 2.6l-1 4.5h-2.6l1-4.6.4-2c0-.8-.6-1.2-1.2-1.2-1.8 0-2.2 2-2.5 3.3l-1 4.5h-2.6l1-4.6.4-2c0-.8-.6-1.2-1.2-1.2-1.8 0-2.2 2-2.6 3.3l-1 4.5H44l1.8-8.4ZM77 6.2c-.3-.1-1-.3-1.8-.3-.7 0-1.7.2-1.7 1 0 1.1 3.3 1.6 3.3 3.9 0 2.5-2.2 3.2-4.4 3.2-1 0-2-.2-3-.6l.6-2c.7.4 1.4.8 2.4.8.9 0 1.8-.3 1.8-1 0-1.6-3.3-1.7-3.3-4S73 4 75 4c1 0 1.9.2 2.4.3l-.6 1.8ZM78.6 4.3h1.8l.4-2 2.8-.8-.7 2.8h2.3l-.4 1.8h-2.3l-.9 4.1-.1 1c0 .5.4.9 1 .9l1.2-.2-.4 1.9-1.4.2c-1.7 0-3-.7-3-2.5 0-.7.2-1.4.4-2.2l.7-3.2h-1.8l.4-1.8ZM95.8 5.6l.2-1.3h2.5L98 6.1c.5-1 1.8-2 3-2h.9l-.5 2.5-1-.2c-1.8 0-2.7 1.6-3 3.1l-1 4.3h-2.4l1.7-8.2ZM94 7.7C94 5.3 92.4 4 90 4c-3.2 0-5.5 2.8-5.5 5.8 0 2.8 1.9 4 4.7 4 1 0 2.1-.1 3-.4l.4-2c-1 .4-2 .7-3 .7-1.6 0-2.6-.6-2.7-2v-.4c0-.6.2-1.3.4-1.9.5-1.2 1.2-2 2.7-2 1 0 1.6.6 1.6 1.6V8H88c-.3.8-.3 1.3-.3 1.7h6l.2-2.1Z"/></g><defs><clipPath id="a"><path fill="#fff" d="M0 0h102v14H0z"/></clipPath></defs></svg>
