<svg width="58" height="74" viewBox="0 0 58 74" fill="none" xmlns="http://www.w3.org/2000/svg">
  <path d="M0 10.445v53.367a3.625 3.625 0 0 0 5.245 3.241l2.795-1.399a3.617 3.617 0 0 1 3.241 0l6.427 3.212a3.617 3.617 0 0 0 3.24 0l6.428-3.212a3.617 3.617 0 0 1 3.24 0l6.428 3.212a3.624 3.624 0 0 0 3.244 0l6.42-3.212a3.625 3.625 0 0 1 3.245 0l2.798 1.4A3.624 3.624 0 0 0 58 63.811V10.446A6.445 6.445 0 0 0 51.555 4H6.445A6.445 6.445 0 0 0 0 10.445Z" fill="#C2C2C2" fill-opacity=".285"/>
  <path d="M0 14.445v53.367a3.625 3.625 0 0 0 5.245 3.241l2.795-1.399a3.617 3.617 0 0 1 3.241 0l6.427 3.212a3.617 3.617 0 0 0 3.24 0l6.428-3.212a3.617 3.617 0 0 1 3.24 0l6.428 3.212a3.624 3.624 0 0 0 3.244 0l6.42-3.212a3.625 3.625 0 0 1 3.245 0l2.798 1.4A3.624 3.624 0 0 0 58 67.811V14.446A6.445 6.445 0 0 0 51.555 8H6.445A6.445 6.445 0 0 0 0 14.445Z" fill="#C2C2C2" fill-opacity=".285"/>
  <path d="M0 6.445v53.367a3.625 3.625 0 0 0 5.245 3.241l2.795-1.399a3.617 3.617 0 0 1 3.241 0l6.427 3.212a3.617 3.617 0 0 0 3.24 0l6.428-3.212a3.617 3.617 0 0 1 3.24 0l6.428 3.212a3.624 3.624 0 0 0 3.244 0l6.42-3.212a3.625 3.625 0 0 1 3.245 0l2.798 1.4A3.624 3.624 0 0 0 58 59.811V6.446A6.445 6.445 0 0 0 51.555 0H6.445A6.445 6.445 0 0 0 0 6.445Z" fill="#D93A3A"/>
  <path d="M27.68 40.76 26.04 16h5.44l-1.92 24.76h-1.88ZM26 48.36v-5.28h5.28v5.28H26Z" fill="#fff"/>
</svg>