<svg width="212" height="24" viewBox="0 0 212 24" fill="none" xmlns="http://www.w3.org/2000/svg"><rect x="44" width="36" height="24" rx="4" fill="#2A2A6C"/><path fill-rule="evenodd" clip-rule="evenodd" d="M66.76 13.25c0-1.14-.94-1.63-1.67-2.02-.46-.24-.84-.44-.84-.73 0-.25.24-.51.75-.58.6-.06 1.22.05 1.77.31l.32-1.5c-.54-.2-1.11-.3-1.68-.3-1.77 0-3 .94-3 2.29 0 1 .89 1.55 1.56 1.88.68.33.94.56.93.86 0 .47-.55.68-1.07.68-.64.01-1.27-.14-1.83-.45l-.32 1.5c.63.25 1.31.38 2 .37 1.88 0 3.11-.93 3.12-2.37l-.04.06Zm-4.87-4.7-1.5 6.93h-1.8l1.5-6.94h1.8Zm7.55 4.5.94-2.61.55 2.6h-1.49Zm3.67 2.45h-1.67l-.21-1.03h-2.26l-.37 1.03h-1.89l2.7-6.43c.12-.3.41-.5.74-.5h1.5l1.46 6.93Zm-16.65-.04 2.9-6.94h-1.94l-1.87 4.72-.75-4.02a.84.84 0 0 0-.83-.7h-3.05l-.05.2c.61.12 1.2.32 1.77.59.24.11.4.34.43.6l1.43 5.55h1.96Z" fill="#fff"/><rect width="36" height="24" rx="4" fill="#fff"/><path d="M6.66 13.43v6.12h6.2l.64-.92.63.92h3.79v-1.39h.42c.38 0 .76-.05 1.12-.16v1.55h2.57v-1.1l.87 1.1h11.72c.48 0 .96-.13 1.36-.38v2.58A3 3 0 0 1 33.07 24H3a3 3 0 0 1-3-3v-9.45h1.71l.35-.91h.84l.35.91H17v-1.1l.87 1.1h3.61V11a3 3 0 0 0 1.81.55h2.16l.34-.91h.84l.37.91h3.67v-1.18l.75 1.18h2.54V5.43h-2.7v1.25l-.8-1.25h-2.35v1.58l-.75-1.58h-4c-.68-.02-1.35.2-1.88.62v-.62H8.25L7.8 6.75 7.35 5.4h-3v1.58l-.7-1.58H1.2L0 8.25V3a3 3 0 0 1 3-3h30.07A3 3 0 0 1 36 2.25v11.18H14.14l-.64.9-.63-.9H6.66Z" fill="#296DB6"/><path fill-rule="evenodd" clip-rule="evenodd" d="M15.99 14.4h2.33v-.03a1.36 1.36 0 0 1 1.47 1.41 1.4 1.4 0 0 1-1.5 1.43h-1.27v1.39h-1.03v-4.2Zm-4.96.87v-.9h-3.4v4.23h3.4v-.9H8.65v-.75H11v-.91H8.65v-.75l2.38-.02Zm3.07 1.23 1.7-2.1h-1.25l-1.05 1.3-1.04-1.33h-1.28l1.72 2.13-1.65 2.1h1.23l1.02-1.35 1.02 1.36h1.29L14.1 16.5Zm4.13-.16h-1.21v-1.07h1.21a.52.52 0 0 1 0 1.04v.03Zm5.9-.75c.08.74-.44 1.4-1.18 1.5l1.42 1.51h-1.29l-1.26-1.5h-.46v1.5h-1.02v-4.18h2.3c.73-.1 1.4.44 1.49 1.17Zm-1.59.66h-1.18v-.98h1.18a.46.46 0 0 1 .53.47.46.46 0 0 1-.53.46v.05Zm5.48-1.83v.9l-2.38-.03v.75h2.32v.91h-2.32v.75h2.38v.9H24.6v-4.18h3.41Zm2.83 1.65h-.99a.38.38 0 1 1 0-.75h1.83l.4-.9h-2.2a1.3 1.3 0 0 0-1.45 1.32 1.18 1.18 0 0 0 1.32 1.24h.99a.38.38 0 1 1 0 .75h-2.19v.9h2.19a1.31 1.31 0 0 0 1.42-1.38 1.16 1.16 0 0 0-1.32-1.21v.03Zm4.74-.75h-1.82l-.02-.03a.38.38 0 1 0 0 .75h1.02c.52-.06 1.01.23 1.23.7v1c-.2.58-.78.94-1.38.88h-2.15v-.9h2.16a.38.38 0 1 0 0-.75h-.96a1.18 1.18 0 0 1-1.32-1.25 1.3 1.3 0 0 1 1.45-1.32H36l-.4.92ZM19.09 7.71c.01.68-.49 1.25-1.16 1.34l1.41 1.55h-1.27L16.8 9.1h-.47v1.5H15.3V6.39h2.29a1.33 1.33 0 0 1 1.5 1.33ZM3.17 6.38H1.84L0 10.6h1.11l.39-.86h1.97l.36.88H5L3.17 6.38ZM1.78 8.9l.42-1 .27-.65.27.66.4.99H1.78Zm6.17-.08.83-2.44h1.64v4.23h-1V7.19l-.19.64-.98 2.78h-.9l-.96-2.78-.21-.64v3.42h-1V6.38h1.66l.84 2.44.14.47.13-.47Zm6.67-1.54v-.9h-3.37v4.23h3.37v-.9h-2.37v-.75h2.31v-.92h-2.31v-.75l2.37-.01Zm2.9.93h-1.18v-.93h1.19a.47.47 0 0 1 .37.82.46.46 0 0 1-.37.1Zm2.06 2.4V6.38h1.03v4.23h-1.03Zm3.75-3.32h1.1v-.91h-1.18a1.91 1.91 0 0 0-2.03 2.08v.06a1.87 1.87 0 0 0 1.97 2.09h.06l.41-.9h-.34a1.05 1.05 0 0 1-1.09-1.19v-.06a1.05 1.05 0 0 1 1.1-1.17Zm2.24-.91h1.35l1.8 4.25h-1.15l-.36-.88h-2l-.36.86h-1.1l1.82-4.23Zm-.03 2.52.39-1 .27-.65.25.66.4.99h-1.31Zm6.42-.27V6.38H33v4.23h-1.24L30.2 8.21l-.27-.46v2.87h-1V6.42h1.25l1.5 2.25.29.48v-.51Z" fill="#296DB6"/><rect x="88" width="36" height="24" rx="4" fill="#DFE3E8"/><path fill="#fff" d="M91.49 2.4h29.03v19.2H91.49z" opacity=".01"/><path fill="#F26122" d="M102.17 5.75h7.66v12.51h-7.66z"/><path d="M103 12a7.93 7.93 0 0 1 3-6.26 7.96 7.96 0 1 0 0 12.51 7.93 7.93 0 0 1-3-6.25Z" fill="#EA1D25"/><path fill-rule="evenodd" clip-rule="evenodd" d="M118.1 16.67v.26h-.04v-.26h-.1v-.05h.26v.05h-.11Zm.52-.05v.3h-.06v-.23l-.08.2h-.06l-.09-.2v.24h-.05v-.31h.07l.1.22.09-.22h.07Z" fill="#F69E1E"/><path d="M118.87 12A7.96 7.96 0 0 1 106 18.25a7.96 7.96 0 0 0 0-12.5A7.96 7.96 0 0 1 118.87 12Z" fill="#F69E1E"/><path d="M168 3v18a3 3 0 0 1-3 3h-30a3 3 0 0 1-3-3V3a3 3 0 0 1 3-3h30a3 3 0 0 1 3 3Z" fill="#E96C2B"/><path fill-rule="evenodd" clip-rule="evenodd" d="M135 10.21h1.37v-.03a2.42 2.42 0 0 1 1.72 4.26c-.49.38-1.1.58-1.72.54H135v-4.77Zm1.19 4.02c.46.04.93-.11 1.28-.42.34-.3.53-.74.53-1.2 0-.46-.19-.9-.53-1.2-.36-.3-.82-.44-1.28-.39h-.25v3.21h.25Z" fill="#fff"/><path fill="#fff" d="M139.39 10.2h.94v4.81h-.94zM142.63 12.05c-.56-.2-.75-.35-.75-.61s.29-.53.7-.53a1 1 0 0 1 .74.39l.5-.64a2.06 2.06 0 0 0-1.42-.54 1.41 1.41 0 0 0-1.5 1.38c0 .67.3 1 1.18 1.32.23.07.44.17.65.28.18.1.29.29.29.5a.7.7 0 0 1-.75.68 1.1 1.1 0 0 1-1.02-.65l-.61.59c.36.6 1.01.95 1.71.91a1.54 1.54 0 0 0 1.65-1.57c0-.77-.3-1.12-1.37-1.51ZM144.3 12.61a2.5 2.5 0 0 0 2.55 2.51c.4 0 .81-.09 1.18-.27v-1.1a1.58 1.58 0 0 1-2.75-1.14 1.6 1.6 0 0 1 1.57-1.66c.45 0 .88.2 1.18.54v-1.1a2.53 2.53 0 0 0-3.72 2.22ZM155.47 13.44l-1.28-3.24h-1.03l2.05 4.94h.5l2.08-4.94h-1.02l-1.3 3.24ZM158.21 15.02h2.67v-.82h-1.73v-1.3h1.66v-.81h-1.66v-1.07h1.73v-.82h-2.67v4.82Z"/><path fill-rule="evenodd" clip-rule="evenodd" d="M164.6 11.62a1.3 1.3 0 0 1-1.1 1.38l1.5 1.98h-1.14l-1.3-1.9h-.11v1.9h-.94v-4.77h1.38c1.09 0 1.7.51 1.7 1.41Zm-2.15.8h.3c.56 0 .88-.2.88-.71s-.31-.75-.88-.75h-.3v1.46Z" fill="#fff"/><path d="M153.44 12.61a2.56 2.56 0 1 1-5.11 0 2.56 2.56 0 0 1 5.11 0Z" fill="#fff"/><path fill-rule="evenodd" clip-rule="evenodd" d="M165.09 10.3c0 .05-.04.1-.09.1l.13.2h-.12l-.13-.18v.18h-.1v-.43h.15c.1 0 .16.04.16.13Zm-.1 0c0-.04-.03-.04-.08-.04v.09h.02c.06 0 .06 0 .06-.03v-.02Z" fill="#fff"/><path fill-rule="evenodd" clip-rule="evenodd" d="M164.6 10.38a.37.37 0 1 1 .74 0 .37.37 0 0 1-.75 0Zm.36.31c.07 0 .14-.03.19-.09a.35.35 0 0 0 .09-.22.29.29 0 0 0-.57 0 .3.3 0 0 0 .29.31Z" fill="#fff"/><path d="M212 3v18a3 3 0 0 1-3 3h-30a3 3 0 0 1-3-3V3a3 3 0 0 1 3-3h30a3 3 0 0 1 3 3Z" fill="#01418A"/><path d="M195.36 18.07a6.6 6.6 0 0 0 6.64-6.3 6.49 6.49 0 0 0-6.64-6.4h-3.02a6.26 6.26 0 0 0-6.4 6.4 6.36 6.36 0 0 0 6.4 6.3h3.02Z" fill="#0779BE"/><path fill-rule="evenodd" clip-rule="evenodd" d="M192.4 5.9a5.8 5.8 0 1 0 0 11.62 5.8 5.8 0 0 0 0-11.62Zm-3.68 5.8a3.7 3.7 0 0 1 2.36-3.43v6.88a3.68 3.68 0 0 1-2.36-3.44Zm4.99-3.43v6.88a3.68 3.68 0 0 0 0-6.88Z" fill="#fff"/><path d="M195.36 18.07a6.6 6.6 0 0 0 6.64-6.3 6.49 6.49 0 0 0-6.64-6.4h-3.02a6.26 6.26 0 0 0-6.4 6.4 6.36 6.36 0 0 0 6.4 6.3h3.02Z" fill="#fff"/><path fill-rule="evenodd" clip-rule="evenodd" d="M192.4 5.9a5.8 5.8 0 1 0 0 11.62 5.8 5.8 0 0 0 0-11.62Zm-3.68 5.8a3.7 3.7 0 0 1 2.36-3.43v6.88a3.68 3.68 0 0 1-2.36-3.44Zm4.99-3.43v6.88a3.68 3.68 0 0 0 0-6.88Z" fill="#01418A"/></svg>