<svg width="24" height="24" viewBox="0 0 24 24" fill="none" xmlns="http://www.w3.org/2000/svg"><path d="M.5 23.5v-9a1 1 0 0 1 1-1h21a1.0001 1.0001 0 0 1 1 1v9M10 11.5v-1a2 2 0 0 0-2-2H4a2 2 0 0 0-2 2v1M13 1.5a1.0002 1.0002 0 0 1 1.7071-.7071C14.8946.9804 15 1.2348 15 1.5a1.4232 1.4232 0 0 1-.312.89L13 4.5h2M18.5 3h-2v-.5a1.9999 1.9999 0 0 1 2-2v4M20.5.5v4M20.5 2.5H22a1 1 0 0 1 1 1v1M18.5 13.5v-2M21 9.5h-5a.5.5 0 0 0-.5.5v1a.5.5 0 0 0 .5.5h5a.5.5 0 0 0 .5-.5v-1a.5.5 0 0 0-.5-.5Z" stroke="#1F262D" stroke-linecap="round" stroke-linejoin="round"/><path d="M13.5 16a1.0001 1.0001 0 0 0-1 1v1.5h-2V17a1.0001 1.0001 0 0 0-2 0v4.5a1 1 0 1 0 2 0v-1h2v1a1.0001 1.0001 0 0 0 2 0V17a1.0001 1.0001 0 0 0-1-1ZM3.5 3.5V4a2.5 2.5 0 1 0 5 0v-.5M8.5 3.5h-5V1.355a.509.509 0 0 1 .335-.48c1.4-.5 2.93-.5 4.33 0a.509.509 0 0 1 .335.48V3.5Z" stroke="#1F262D" stroke-linecap="round" stroke-linejoin="round"/></svg>