<svg width="24" height="24" viewBox="0 0 24 24" fill="none" xmlns="http://www.w3.org/2000/svg"><g clip-path="url(#a)" stroke="#1F262D" stroke-linecap="round" stroke-linejoin="round"><path d="M1 3.775v7.637A12.3108 12.3108 0 0 0 9.219 22.88l1.121.414a3.3652 3.3652 0 0 0 2.32 0l1.121-.414A12.3116 12.3116 0 0 0 22 11.412V3.775a1.5324 1.5324 0 0 0-.934-1.406A24.237 24.237 0 0 0 11.5.5a24.237 24.237 0 0 0-9.566 1.869A1.533 1.533 0 0 0 1 3.775v0Z"/><path d="M5 8.7a1.3 1.3 0 1 1 2.6 0 1.8499 1.8499 0 0 1-.4056 1.157L5 12.6h2.6M12.15 10.65h-2.6V10a2.6 2.6 0 0 1 2.6-2.6v5.2M14.75 7.4v5.2M14.75 10h1.95a1.3 1.3 0 0 1 1.3 1.3v1.3"/></g><defs><clipPath id="a"><path fill="#fff" d="M0 0h24v24H0z"/></clipPath></defs></svg>