<svg width="24" height="24" viewBox="0 0 24 24" fill="none" xmlns="http://www.w3.org/2000/svg"><path d="M19.0003 13h-14a3 3 0 0 1-3-3V6a3 3 0 0 1 3-3h14a2.9998 2.9998 0 0 1 3 3v4a3 3 0 0 1-3 3ZM17.0003 18.1158c-2.843-2.219-6.907-2.219-9.75 0M9.2809 20.9551a4.654 4.654 0 0 1 5.687 0M18.0006 6h-2" stroke="#1F262D" stroke-linecap="round" stroke-linejoin="round"/><path d="M18 12.9999v-1a2 2 0 0 0-2-2H8a1.9999 1.9999 0 0 0-2 2v1" stroke="#1F262D" stroke-linecap="round" stroke-linejoin="round"/></svg>