<svg width="24" height="24" viewBox="0 0 24 24" fill="none" xmlns="http://www.w3.org/2000/svg"><path d="M12 8.5c1.6569 0 3-1.3431 3-3 0-1.6568-1.3431-3-3-3s-3 1.3432-3 3c0 1.6569 1.3431 3 3 3Z" stroke="#1F262D" stroke-linecap="round" stroke-linejoin="round"/><path d="M11.153 6a.9669.9669 0 0 0 1.694 0M3.5 23.5l-2.014-2.517A4.5001 4.5001 0 0 1 .5 18.171V13a1.5001 1.5001 0 0 1 2.5607-1.0607c.2813.2813.4393.6629.4393 1.0607v3.875" stroke="#1F262D" stroke-linecap="round" stroke-linejoin="round"/><path d="M8 23.5v-3.136a4.493 4.493 0 0 0-.757-2.5L6.1 16.154a1.3998 1.3998 0 0 0-2.5532.3607 1.4 1.4 0 0 0 .1012.9853L5 19.75M20.5 23.5l2.014-2.517a4.5001 4.5001 0 0 0 .986-2.812V13a1.5001 1.5001 0 1 0-3 0v3.875" stroke="#1F262D" stroke-linecap="round" stroke-linejoin="round"/><path d="M16 23.5v-3.136a4.4936 4.4936 0 0 1 .757-2.5l1.143-1.71a1.3999 1.3999 0 0 1 2.5537.3605 1.3995 1.3995 0 0 1-.1007.9855L19 19.75M12 .5a5 5 0 0 0-4.833 6.284A24.8903 24.8903 0 0 1 8 13a3.9998 3.9998 0 0 0 4 4 3.9996 3.9996 0 0 0 2.8284-1.1716A3.9996 3.9996 0 0 0 16 13a24.8936 24.8936 0 0 1 .833-6.216A5 5 0 0 0 12 .5v0ZM8.109 13.932l8.287-5.18M7.509 8.256l4.685 3.123" stroke="#1F262D" stroke-linecap="round" stroke-linejoin="round"/></svg>