<svg width="24" height="24" viewBox="0 0 24 24" fill="none" xmlns="http://www.w3.org/2000/svg"><path d="M16.152 18.941a1.0064 1.0064 0 0 1-.724.31H2.508a1.9999 1.9999 0 1 1 0-4h11.217a.9998.9998 0 0 0 .731-.318l5.517-4.844a2.0314 2.0314 0 0 1 2.96 2.783l-6.781 6.069ZM4.508 23.251l3-4M16.466 23.251l-3-4M6.508 1.751v-1M9.663 3.071l.707-.708M11.008 6.251h1M9.663 9.435l.707.707M6.508 10.751v1M3.299 9.435l-.707.707M2.008 6.251h-1M3.299 3.071l-.707-.708M6.508 8.769c1.3807 0 2.5-1.1193 2.5-2.5s-1.1193-2.5-2.5-2.5-2.5 1.1193-2.5 2.5 1.1193 2.5 2.5 2.5Z" stroke="#1F262D" stroke-linecap="round" stroke-linejoin="round"/></svg>