<svg width="24" height="24" viewBox="0 0 24 24" fill="none" xmlns="http://www.w3.org/2000/svg"><path d="M18 13.5a5.9997 5.9997 0 0 0-6-6 6 6 0 0 0-6 6V19a1.5001 1.5001 0 0 1-1.5 1.5h15A1.5001 1.5001 0 0 1 18 19v-5.5ZM13.415 22.5a1.5003 1.5003 0 0 1-1.4145 1.0008A1.5 1.5 0 0 1 10.586 22.5M12 5.501v2M8.5 4A4.5 4.5 0 0 0 4 8.5M.5 8.5a8 8 0 0 1 8-8M15.5 4a4.5005 4.5005 0 0 1 4.1575 2.778A4.5009 4.5009 0 0 1 20 8.5M23.5 8.5a8.0003 8.0003 0 0 0-8-8" stroke="#1F262D" stroke-linecap="round" stroke-linejoin="round"/></svg>