<svg width="15" height="15" fill="none" xmlns="http://www.w3.org/2000/svg"><path d="M14.9995 14.6435c-.1097.2626-.3018.3566-.5879.3566-4.6329-.0039-9.2658-.0039-13.9025-.0039-.3214 0-.5253-.2038-.5135-.5016.0118-.2273.2038-.4193.435-.4349.1255-.0079.2823.0548.3646-.0314.0745-.0744.0705-.2273.098-.3448.0901-.3683.1842-.7367.2743-1.1011.0667-.2704.2313-.3958.5135-.3958.49 0 .976-.0039 1.4659.0039.098 0 .1372-.0156.1333-.1214a2.9332 2.9332 0 0 1 0-.4546c.0117-.1214-.0392-.1332-.1411-.1293-.4155.0039-.831.0039-1.2465.0039-.2586 0-.4664-.1724-.4938-.4036-.0274-.2625.1215-.478.392-.5251.1097-.0195.0744-.0862.0705-.1371-.0118-.6544.0745-1.297.2979-1.9083.729-1.9828 2.1283-3.225 4.19-3.703.188-.043.3801-.0823.5761-.0862.0823-.004.094-.043.094-.1097a11.899 11.899 0 0 1 0-.529c.004-.0784-.0234-.098-.098-.098-.1998.004-.3997.004-.5996 0-.2704-.0039-.4743-.2037-.4743-.4663 0-.2664.2-.4702.4704-.4702h2.3439c.2626 0 .4625.2038.4664.4624.0039.2664-.196.4741-.4664.4741-.2039.004-.4116.004-.6154 0-.0666 0-.094.0118-.094.0862.0038.1803.0038.3605 0 .5408-.004.0744.0234.098.098.1058 1.1091.1058 2.1008.5133 2.967 1.2186 1.0818.8817 1.7559 2.0141 2.0068 3.3935.0666.3644.0941.7366.0862 1.105-.0039.0744.0079.1019.0941.1175.2508.0471.4037.2782.3723.529-.0274.2234-.2312.3958-.4664.3997-.4311 0-.8584.0039-1.2895-.0039-.098 0-.1215.0274-.1176.1215a4.965 4.965 0 0 1 0 .4819c-.0039.0863.0274.1019.1058.1019a95.311 95.311 0 0 1 1.4934 0c.2822 0 .439.1254.5095.4036.1137.4507.2352.9013.3371 1.3558.0235.1019.0666.1215.1568.1176.1058-.0039.2155-.0079.3214.0117.1763.0314.2626.1764.3566.3096.0157.0862.0157.1724.0157.2586Zm-7.498-4.0987c1.5168 0 3.0376 0 4.5545.0039.1058 0 .1371-.0235.1371-.1332-.0078-.3762-.0391-.7485-.1175-1.1168-.5958-2.7743-3.5982-4.3887-6.24-3.3582-1.8578.725-3.018 2.4413-3.0219 4.4632 0 .1254.0353.1489.1529.1489 1.509-.0078 3.022-.0078 4.5349-.0078ZM1.779 14.0557H13.22c-.0628-.2625-.1294-.5133-.1843-.7719-.0274-.1254-.0744-.1646-.2116-.1646-3.5511.0039-7.0983.0039-10.6493.0039h-.102c-.047-.0039-.0705.0157-.0823.0627-.0666.2861-.141.5721-.2116.8699Zm5.7068-1.8691c1.0544 0 2.1087-.0039 3.1631.0039.1136 0 .1411-.0313.1332-.1371a2.5556 2.5556 0 0 1 0-.4232c.0118-.1254-.0353-.1489-.1528-.1489-1.9872.0039-3.9744.0039-5.9616.0039-.1215 0-.243.0039-.3646 0-.0744-.0039-.0901.0235-.0901.0901.004.1607.0118.3214 0 .482-.0078.1137.0314.1332.1372.1332 1.0465-.0078 2.093-.0039 3.1356-.0039ZM7.6463 0c.2548.1371.3488.3448.3253.6309-.0196.2586-.004.5172-.004.7758-.0038.2704-.2076.4703-.4742.4663-.2587-.0039-.4586-.2037-.4625-.4663-.0039-.2586.0157-.5172-.0039-.7758-.0196-.286.0705-.4977.3253-.6309h.294ZM14.9995 7.6449c-.1372.2625-.3528.3487-.6428.3252-.2508-.0196-.5056-.004-.7604-.004-.2704-.0038-.4703-.2037-.4703-.4701 0-.2665.1999-.4663.4703-.4663.2548-.004.5056.0156.7604-.004.29-.0235.5056.0667.6467.3253-.0039.098-.0039.1959-.0039.2939ZM.9407 7.9664H.4742C.2038 7.9624.004 7.7626.004 7.4962c0-.2665.1999-.4663.4743-.4663.3135 0 .6232-.004.9367 0 .2626.0039.4625.2037.4625.4624 0 .2664-.196.4702-.4664.474-.1607.004-.3135 0-.4703 0ZM11.8051 3.6597c-.192-.0078-.3332-.098-.4194-.2704-.0823-.1724-.0745-.3487.0549-.4898.2352-.2547.4821-.4976.7329-.7366.1764-.1646.4508-.145.6232.0235.1725.1685.2039.4467.0432.623-.2391.2626-.4978.5094-.7565.7563-.0706.0744-.1725.098-.2783.094ZM3.2487 3.66c-.192.004-.3018-.051-.3959-.141-.2155-.2156-.439-.4311-.6506-.6545-.192-.1998-.196-.482-.0078-.67.188-.1881.4703-.192.6702 0 .2273.2194.4547.4428.6742.674.141.1489.1685.3291.0862.5133-.0863.1802-.2352.2743-.3763.2782Z" fill="#1BAB1E"/></svg>