<svg width="24" height="24" viewBox="0 0 24 24" fill="none" xmlns="http://www.w3.org/2000/svg"><path d="M4.5 19c2.2091 0 4-1.7909 4-4 0-2.2091-1.7909-4-4-4-2.2091 0-4 1.7909-4 4 0 2.2091 1.7909 4 4 4ZM19.5 19c2.2091 0 4-1.7909 4-4 0-2.2091-1.7909-4-4-4-2.2091 0-4 1.7909-4 4 0 2.2091 1.7909 4 4 4Z" stroke="#1F262D" stroke-linecap="round" stroke-linejoin="round"/><path d="m11 15.001 5.684-7.646L9 10l-4.5 5H11L7.75 7" stroke="#1F262D" stroke-linecap="round" stroke-linejoin="round"/><path d="m19.5 15-3.307-8.977a.4994.4994 0 0 1 .0272-.4067.4992.4992 0 0 1 .3208-.2513L18 5M6.5 7h3" stroke="#1F262D" stroke-linecap="round" stroke-linejoin="round"/></svg>