<svg width="24" height="24" viewBox="0 0 24 24" fill="none" xmlns="http://www.w3.org/2000/svg"><path d="M12 23.5c6.3513 0 11.5-5.1487 11.5-11.5S18.3513.5 12 .5.5 5.6487.5 12 5.6487 23.5 12 23.5Z" stroke="#1F262D" stroke-linecap="round" stroke-linejoin="round"/><path d="M10 14a2.5003 2.5003 0 0 1-2.5 2.5A2.5001 2.5001 0 0 1 5 14a2.5399 2.5399 0 0 1 3.979-2.07M16.5 16.5c1.3807 0 2.5-1.1193 2.5-2.5s-1.1193-2.5-2.5-2.5S14 12.6193 14 14s1.1193 2.5 2.5 2.5Z" stroke="#1F262D" stroke-linecap="round" stroke-linejoin="round"/><path d="M7.5 14H11l3.5-4.5-4.5 1L7.5 14ZM11 14 9.285 7.996M8 8h2.5" stroke="#1F262D" stroke-linecap="round" stroke-linejoin="round"/><path d="m16.5 14-3.1-6.967a.5001.5001 0 0 1 .325-.685L15 6" stroke="#1F262D" stroke-linecap="round" stroke-linejoin="round"/></svg>