<svg width="24" height="24" viewBox="0 0 24 24" fill="none" xmlns="http://www.w3.org/2000/svg"><path d="M6 16.5h11a2 2 0 0 1 2 2v2a1.0001 1.0001 0 0 1-1 1H5a1.0002 1.0002 0 0 1-1-1v-2a2 2 0 0 1 2-2v0ZM4 19.5h2.5M16.5 19.5H19M6 16.5l.391-3.124a1.0001 1.0001 0 0 1 .992-.876h8.234a1 1 0 0 1 .992.876L17 16.5M3.5 15 6 16.5M19.5 15 17 16.5M7 21.5v1a1 1 0 1 1-2 0v-1M18 21.5v1a1.0001 1.0001 0 0 1-2 0v-1M8.716 5.75a1.25 1.25 0 1 1 0-2.5 1.25 1.25 0 0 1 0 2.5v0Z" stroke="#1F262D" stroke-linecap="round" stroke-linejoin="round"/><path d="m12.2 6 6.29.007 1.414-1.414-1.411-1.414L12.2 3a4.0001 4.0001 0 1 0 0 3v0Z" stroke="#1F262D" stroke-linecap="round" stroke-linejoin="round"/></svg>