<svg width="24" height="24" viewBox="0 0 24 24" fill="none" xmlns="http://www.w3.org/2000/svg"><path d="M.516 20.5h22.968M21.516 20.5v-14a3.9998 3.9998 0 0 0-4-4h-11a4 4 0 0 0-4 4v14M11.516.5v5M8.531 5.5h5.985" stroke="#1F262D" stroke-linecap="round" stroke-linejoin="round"/><path d="M9.516 12.5v-1a2.0062 2.0062 0 0 1 2-2h1a2.0064 2.0064 0 0 1 1.4125.5875c.3747.3748.5859.8826.5875 1.4125v1M16.516 12.5h-9c-1.1046 0-2 .8954-2 2v4c0 1.1046.8954 2 2 2h9c1.1046 0 2-.8954 2-2v-4c0-1.1046-.8954-2-2-2ZM21.016 23.5c.8284 0 1.5-.6716 1.5-1.5s-.6716-1.5-1.5-1.5-1.5.6716-1.5 1.5.6716 1.5 1.5 1.5ZM3.016 23.5c.8284 0 1.5-.6716 1.5-1.5s-.6716-1.5-1.5-1.5-1.5.6716-1.5 1.5.6716 1.5 1.5 1.5Z" stroke="#1F262D" stroke-linecap="round" stroke-linejoin="round"/></svg>