<svg width="24" height="24" viewBox="0 0 24 24" fill="none" xmlns="http://www.w3.org/2000/svg"><g clip-path="url(#a)" stroke="#1F262D" stroke-linecap="round" stroke-linejoin="round"><path d="M13.5 11a2.4997 2.4997 0 0 1-3 0"/><path d="M14 8.25a.2501.2501 0 1 1 0 .5002.2501.2501 0 0 1 0-.5002ZM10 8.25a.2501.2501 0 1 1 0 .5002.2501.2501 0 0 1 0-.5002Z" fill="#1F262D"/><path d="M12 14.5a6 6 0 0 0 6-6V3.131a1.984 1.984 0 0 0-1.2-1.837A12.4132 12.4132 0 0 0 12 .5a12.413 12.413 0 0 0-4.795.794A1.984 1.984 0 0 0 6 3.131V8.5a5.9999 5.9999 0 0 0 6 6Z"/><path d="M18 7s-1.5-1.5-6-1.5S6 7 6 7M18 5s-1.5-1.5-6-1.5S6 5 6 5M12 14.5v9M23 23.5v-3.106a1.9792 1.9792 0 0 0-.77-1.58A14.7748 14.7748 0 0 0 15 16.178M9 16.178a14.7749 14.7749 0 0 0-7.23 2.636 1.9797 1.9797 0 0 0-.77 1.58V23.5"/><path d="M9 13.7v2.8a6.3387 6.3387 0 0 0 3 1 6.3385 6.3385 0 0 0 3-1v-2.8"/><path d="M14 20.25a.2506.2506 0 0 1 .231.1543.2508.2508 0 0 1-.0542.2725.2508.2508 0 0 1-.2725.0542.2507.2507 0 0 1-.1543-.231.25.25 0 0 1 .25-.25ZM14 22.75a.2506.2506 0 0 1 .231.1543.2508.2508 0 0 1-.0542.2725.2508.2508 0 0 1-.2725.0542A.2507.2507 0 0 1 13.75 23a.25.25 0 0 1 .25-.25Z" fill="#1F262D"/></g><defs><clipPath id="a"><path fill="#fff" d="M0 0h24v24H0z"/></clipPath></defs></svg>