<svg width="24" height="24" viewBox="0 0 24 24" fill="none" xmlns="http://www.w3.org/2000/svg"><g clip-path="url(#a)" stroke="#1F262D" stroke-linecap="round" stroke-linejoin="round"><path d="M16.004 15.5c4.1421 0 7.5-3.3579 7.5-7.5S20.1461.5 16.004.5c-4.1422 0-7.5 3.3579-7.5 7.5s3.3578 7.5 7.5 7.5Z"/><path d="M8.53 8.526a7.5 7.5 0 1 0 6.949 6.948M.985 5.035l2.006 1.993 1.994-2.005"/><path d="M7.973 1.013a4.9999 4.9999 0 0 0-4.985 5.015v1M23.0229 18.965l-2.006-1.993-1.994 2.005"/><path d="M16.035 22.987a5.0008 5.0008 0 0 0 3.5311-1.4751A4.9993 4.9993 0 0 0 21.02 17.972v-1M8.5 19.5a2.7064 2.7064 0 0 1-2.225-.7749A2.707 2.707 0 0 1 5.5 16.5a2.7071 2.7071 0 0 1 3-3M4.504 15.5h4M4.504 17.5h3M17.4999 4.5h-1.7a1.3002 1.3002 0 0 0-1.232 1.7434c.0957.2639.2743.4897.509.6436l1.84 1.226a1.2998 1.2998 0 0 1-.717 2.387h-1.7M16.504 4.5v-1M15.504 11.5v-1"/></g><defs><clipPath id="a"><path fill="#fff" d="M0 0h24v24H0z"/></clipPath></defs></svg>