<svg width="24" height="24" viewBox="0 0 24 24" fill="none" xmlns="http://www.w3.org/2000/svg"><g clip-path="url(#a)" stroke="#1F262D" stroke-linecap="round" stroke-linejoin="round"><path d="M12 18.501v5"/><path d="M14.75 22a.2506.2506 0 0 1 .231.1543.2508.2508 0 0 1-.0542.2725.2508.2508 0 0 1-.2725.0542.2507.2507 0 0 1-.1543-.231.25.25 0 0 1 .25-.25ZM14.75 19a.2506.2506 0 0 1 .231.1543.2508.2508 0 0 1-.0542.2725.2508.2508 0 0 1-.2725.0542.2507.2507 0 0 1-.1543-.231.25.25 0 0 1 .25-.25Z" fill="#1F262D"/><path d="M12 4.501v-2M11 3.501h2M23.5 23.5v-1a4.0005 4.0005 0 0 0-2.6-3.745L16 17.11M8 17.11l-4.9 1.646A3.9997 3.9997 0 0 0 .5 22.5v1M6 7.708a15.519 15.519 0 0 1 12 0M10.5 13a2.1748 2.1748 0 0 0 3 0M11 9a1.0886 1.0886 0 0 0-1-.5A1.089 1.089 0 0 0 9 9M15 9a1.0886 1.0886 0 0 0-1-.5 1.0892 1.0892 0 0 0-1 .5M5.725 10.572a5.148 5.148 0 0 1-1.954 3.147.4995.4995 0 0 0-.2429.4045.5004.5004 0 0 0 .2019.4265 4.4274 4.4274 0 0 0 2.915.932M18.3 10.514a5.2002 5.2002 0 0 0 1.97 3.205.4992.4992 0 0 1 .2423.4048.4997.4997 0 0 1-.2023.4262 4.425 4.425 0 0 1-2.915.932"/><path d="M18 8.511v-5.4a2.0003 2.0003 0 0 0-1.4-1.909 15.508 15.508 0 0 0-9.19 0A2 2 0 0 0 6 3.108v5.4c-.846.456-.572 2.392.5 2.878a.9995.9995 0 0 1 .572.746C7.513 14.781 10.614 16.5 12 16.5c1.387 0 4.488-1.722 4.93-4.366a1.0002 1.0002 0 0 1 .571-.746c1.07-.488 1.344-2.419.499-2.877Z"/></g><defs><clipPath id="a"><path fill="#fff" d="M0 0h24v24H0z"/></clipPath></defs></svg>