<svg width="24" height="24" viewBox="0 0 24 24" fill="none" xmlns="http://www.w3.org/2000/svg"><path d="M22.5.5h-21c-.5523 0-1 .4477-1 1v21c0 .5523.4477 1 1 1h21c.5523 0 1-.4477 1-1v-21c0-.5523-.4477-1-1-1Z" stroke="#1F262D" stroke-linecap="round" stroke-linejoin="round"/><path d="M12 20.5c3.3137 0 6-2.6863 6-6s-2.6863-6-6-6-6 2.6863-6 6 2.6863 6 6 6ZM23.5 6.5h-4.884a.979.979 0 0 1-.541-.168 10.988 10.988 0 0 0-12.15 0 .979.979 0 0 1-.541.168H.5M20.75 2.75a.2501.2501 0 1 1 0 .5002.2501.2501 0 0 1 0-.5002ZM17.75 2.75a.2501.2501 0 1 1 0 .5002.2501.2501 0 0 1 0-.5002Z" stroke="#1F262D" stroke-linecap="round" stroke-linejoin="round"/><path d="M12 18.5c2.2091 0 4-1.7909 4-4 0-2.2091-1.7909-4-4-4-2.2091 0-4 1.7909-4 4 0 2.2091 1.7909 4 4 4Z" stroke="#1F262D" stroke-linecap="round" stroke-linejoin="round"/></svg>