<svg width="24" height="24" viewBox="0 0 24 24" fill="none" xmlns="http://www.w3.org/2000/svg"><path d="M7 5h10M20 22h-2c-.55 0-1-.45-1-1v-4c0-.55.45-1 1-1h2c.55 0 1 .45 1 1v4c0 .55-.45 1-1 1ZM7 19h10M6 22H4c-.55 0-1-.45-1-1v-4c0-.55.45-1 1-1h2c.55 0 1 .45 1 1v4c0 .55-.45 1-1 1ZM20 8h-2c-.55 0-1-.45-1-1V3c0-.55.45-1 1-1h2c.55 0 1 .45 1 1v4c0 .55-.45 1-1 1ZM6 8H4c-.55 0-1-.45-1-1V3c0-.55.45-1 1-1h2c.55 0 1 .45 1 1v4c0 .55-.45 1-1 1ZM12.3 15l1.5-3h-3.6l1.5-3" stroke="#1F262D" stroke-linecap="round" stroke-linejoin="round"/></svg>