<svg width="24" height="24" viewBox="0 0 24 24" fill="none" xmlns="http://www.w3.org/2000/svg"><path d="M12.306 9.0648a.4998.4998 0 0 0-.7365.3375.4998.4998 0 0 0 .0365.3075 4.0616 4.0616 0 0 1-.1 3.624 2.8895 2.8895 0 0 1-.858-1 .498.498 0 0 0-.1213-.1662.4987.4987 0 0 0-.3823-.1262.4988.4988 0 0 0-.1964.0614 3.5469 3.5469 0 0 0-1.924 3.215 3.978 3.978 0 1 0 7.955 0 7.334 7.334 0 0 0-3.673-6.253v0Z" stroke="#1F262D" stroke-linecap="round" stroke-linejoin="round"/><path d="M1.14 2.5a.5.5 0 0 0-.485.621l.75 3a.5.5 0 0 0 .485.379h.61v15h3v-15h13v15h3v-15h.61a.5.5 0 0 0 .485-.379l.75-3a.4994.4994 0 0 0-.0911-.4288A.4992.4992 0 0 0 22.86 2.5H1.14ZM5.5 21.5h13M2.5 6.5h3.501M2.5 9.5h3M2.5 12.5h3M2.5 15.5h3M2.5 18.5h3M18.5 9.5h3M18.5 12.5h3M18.5 15.5h3M18.5 18.5h3M18.5 6.5h3" stroke="#1F262D" stroke-linecap="round" stroke-linejoin="round"/></svg>