<svg width="24" height="24" viewBox="0 0 24 24" fill="none" xmlns="http://www.w3.org/2000/svg"><path d="M.5 21.477h23M2.5 9.477v12M21.5 21.477v-12M23.5 7.805a.5004.5004 0 0 0-.3-.458l-11-4.783a.5002.5002 0 0 0-.4 0L.8 7.347a.5.5 0 0 0-.3.458v1.172a.5.5 0 0 0 .5.5h22a.5002.5002 0 0 0 .5-.5V7.805ZM5 21.477a.5002.5002 0 0 1-.5-.5v-9a.4998.4998 0 0 1 .5-.5h14a.5001.5001 0 0 1 .5.5v9a.5004.5004 0 0 1-.1464.3536.5004.5004 0 0 1-.3536.1464M6.5 14.477h11M6.5 16.477h11M6.5 18.477h11" stroke="#1F262D" stroke-linecap="round" stroke-linejoin="round"/></svg>