<svg width="24" height="24" viewBox="0 0 24 24" fill="none" xmlns="http://www.w3.org/2000/svg"><path d="M11.75 23.292v-9.5M20.25 14.792a8.5 8.5 0 0 0-8.5 8.5 8.5 8.5 0 0 0 8.5-8.5v0ZM3.75 15.292a8 8 0 0 1 8 8 8 8 0 0 1-8-8v0ZM18.75 6.792a6.9996 6.9996 0 0 1-2.0503 4.9497 6.9997 6.9997 0 0 1-9.8994 0A6.9998 6.9998 0 0 1 4.75 6.792v-5.5c0-.55.318-.682.707-.293L8.25 3.792 11.043 1a.9999.9999 0 0 1 1.414 0l2.793 2.792L18.043 1c.389-.389.707-.257.707.293v5.499Z" stroke="#1F262D" stroke-linecap="round" stroke-linejoin="round"/></svg>