<svg width="24" height="24" viewBox="0 0 24 24" fill="none" xmlns="http://www.w3.org/2000/svg"><g clip-path="url(#a)" stroke="#1F262D" stroke-linecap="round" stroke-linejoin="round"><path d="M12 15.99c4.2802 0 7.75-3.4698 7.75-7.75S16.2802.49 12 .49 4.25 3.9598 4.25 8.24s3.4698 7.75 7.75 7.75ZM17 17.069a9.5082 9.5082 0 0 1-10 0M12 18.49v5.02"/><path d="M15.5 4.76a.2501.2501 0 0 1 .25.25M15.25 5.01a.25.25 0 0 1 .25-.25M15.5 5.26a.2501.2501 0 0 1-.25-.25M15.75 5.01a.25.25 0 0 1-.25.25M17 8.26a.2501.2501 0 0 1 .25.25M16.75 8.51a.25.25 0 0 1 .25-.25M17 8.76a.2501.2501 0 0 1-.25-.25M17.25 8.51a.25.25 0 0 1-.25.25M13.5 8.76a.2501.2501 0 0 1 .25.25M13.25 9.01a.25.25 0 0 1 .25-.25M13.5 9.26a.2501.2501 0 0 1-.25-.25M13.75 9.01a.25.25 0 0 1-.25.25M15 12.26a.25.25 0 0 1 .25.25M14.75 12.51a.25.25 0 0 1 .25-.25M15 12.76a.25.25 0 0 1-.25-.25M15.25 12.51a.25.25 0 0 1-.25.25M11 12.26a.25.25 0 0 1 .25.25M10.75 12.51a.25.25 0 0 1 .25-.25M11 12.76a.25.25 0 0 1-.25-.25M11.25 12.51a.25.25 0 0 1-.25.25"/></g><defs><clipPath id="a"><path fill="#fff" d="M0 0h24v24H0z"/></clipPath></defs></svg>