<svg width="24" height="24" viewBox="0 0 24 24" fill="none" xmlns="http://www.w3.org/2000/svg"><path d="M17.5 8.5a.4997.4997 0 0 1 .4697.3267A.5013.5013 0 0 1 18 9.026a6.0261 6.0261 0 0 1-12 0 .4997.4997 0 0 1 .5-.526h11ZM8.5 6.5A2.619 2.619 0 0 0 9.25 5c0-1.195-1.5-1.805-1.5-3A2.619 2.619 0 0 1 8.5.5M15.5 6.5a2.6186 2.6186 0 0 0 .75-1.5c0-1.195-1.5-1.805-1.5-3A2.6185 2.6185 0 0 1 15.5.5M12 6.5a2.6186 2.6186 0 0 0 .75-1.5c0-1.195-1.5-1.805-1.5-3A2.6185 2.6185 0 0 1 12 .5M4.5 23.5l4.631-9.726M19.5 23.5l-4.631-9.726M18.071 20.5H5.929" stroke="#1F262D" stroke-linecap="round" stroke-linejoin="round"/></svg>