<svg width="24" height="24" viewBox="0 0 24 24" fill="none" xmlns="http://www.w3.org/2000/svg"><g clip-path="url(#a)" stroke="#1F262D" stroke-linecap="round" stroke-linejoin="round"><path d="M7.5 6H6c-.8284 0-1.5.6716-1.5 1.5v9c0 .8284.6716 1.5 1.5 1.5h1.5c.8284 0 1.5-.6716 1.5-1.5v-9C9 6.6716 8.3284 6 7.5 6ZM4.5 15.0015H2.25a.7502.7502 0 0 1-.75-.75v-4.5a.75.75 0 0 1 .75-.75H4.5M18 6h-1.5c-.8284 0-1.5.6716-1.5 1.5v9c0 .8284.6716 1.5 1.5 1.5H18c.8284 0 1.5-.6716 1.5-1.5v-9c0-.8284-.6716-1.5-1.5-1.5ZM19.5 15.0015h2.25a.75.75 0 0 0 .75-.75v-4.5a.7498.7498 0 0 0-.75-.75H19.5M9 12h6M23 12h1M1 12H0"/></g><defs><clipPath id="a"><path fill="#fff" d="M0 0h24v24H0z"/></clipPath></defs></svg>