<svg width="24" height="24" viewBox="0 0 24 24" fill="none" xmlns="http://www.w3.org/2000/svg"><path d="M7.492 10.013a2 2 0 0 0 0-2.829L5.37 5.063a2 2 0 0 0-2.828 0L1.378 6.227A3 3 0 0 0 1 10a46.5008 46.5008 0 0 0 13 13 3 3 0 0 0 3.773-.379l1.165-1.164a2 2 0 0 0 0-2.828l-2.122-2.121a1.9997 1.9997 0 0 0-2.828 0l-.707.707a47.4228 47.4228 0 0 1-6.5-6.5l.711-.702ZM12 .5A11.4998 11.4998 0 0 1 23.5 12" stroke="#1F262D" stroke-linecap="round" stroke-linejoin="round"/><path d="M12 4.5a7.5 7.5 0 0 1 7.5 7.5M12 8.5a3.5 3.5 0 0 1 3.5 3.5" stroke="#1F262D" stroke-linecap="round" stroke-linejoin="round"/></svg>