<svg width="24" height="24" viewBox="0 0 24 24" fill="none" xmlns="http://www.w3.org/2000/svg"><path d="M2.5 20.5h16v2a1.0001 1.0001 0 0 1-1 1h-14a1.0002 1.0002 0 0 1-1-1v-2ZM16.694 7.635a4.5 4.5 0 1 1 1.648 8.318" stroke="#1F262D" stroke-linecap="round" stroke-linejoin="round"/><path d="M2.5 20.5a44.7862 44.7862 0 0 1 .777-8.732 2.005 2.005 0 0 0-.756-2L.7 8.4a.5.5 0 0 1 .3-.9h15.64c1.33 3.28 1.86 7.89 1.86 13h-16ZM11.5 2.584V1.5A1.0002 1.0002 0 0 0 9.7929.7929a1 1 0 0 0-.293.7071v1.1c-2.167.42-3.809 2.213-4.95 4.9H16.64c-1.101-2.723-2.764-4.525-5.14-4.916v0Z" stroke="#1F262D" stroke-linecap="round" stroke-linejoin="round"/><path d="M10.5 18.5c1.1046 0 2-2.0147 2-4.5s-.8954-4.5-2-4.5-2 2.0147-2 4.5.8954 4.5 2 4.5Z" stroke="#1F262D" stroke-linecap="round" stroke-linejoin="round"/></svg>