<svg width="24" height="24" viewBox="0 0 24 24" fill="none" xmlns="http://www.w3.org/2000/svg"><path d="M13.5 9a5.5005 5.5005 0 0 0-3.0466-4.927A5.5001 5.5001 0 1 0 6.5 14.287V15.5l-1 1 1 1v1l-1 1 1 1V22L8 23.5 9.5 22v-7.713A5.5 5.5 0 0 0 13.5 9Z" stroke="#1F262D" stroke-linecap="round" stroke-linejoin="round"/><path d="M8 9.498c1.1046 0 2-.8954 2-2s-.8954-2-2-2-2 .8954-2 2 .8954 2 2 2ZM9.5 15.013a5.5073 5.5073 0 0 0 5.425.033L16 16v1.5h1.5l.5.525V19.5h1.317l1.062 1H22.5v-2.121l-5.454-5.454a5.4998 5.4998 0 0 0-.2484-5.7582A5.5008 5.5008 0 0 0 11.546 4.792" stroke="#1F262D" stroke-linecap="round" stroke-linejoin="round"/><path d="M8 7V2.5a2 2 0 1 1 4 0v2.253" stroke="#1F262D" stroke-linecap="round" stroke-linejoin="round"/></svg>