<svg width="24" height="24" viewBox="0 0 24 24" fill="none" xmlns="http://www.w3.org/2000/svg"><path d="M21.705 8.5a1.5449 1.5449 0 0 1-1.382-.854A2.0722 2.0722 0 0 0 18.469 6.5c-1.385 0-2.506.717-3.213 2.484a3.9999 3.9999 0 0 1-3.714 2.516H6.25c-3.575 0-4.394-2.295-2.422-4.942a.5.5 0 0 0-.59-.762 4 4 0 0 0-.255 7.294A34.0145 34.0145 0 0 0 1.25 22a1.5 1.5 0 0 0 3 0v-.63a3.7869 3.7869 0 0 1 4-3.87h1.5c2.573 0 4.5 1.344 4.5 3.923V22a1.4999 1.4999 0 1 0 3 0c0-3.821-.134-2.13.613-6.984A2.9669 2.9669 0 0 1 20.8 12.5a2.455 2.455 0 0 0 2.455-2.455 1.5461 1.5461 0 0 0-.4543-1.0943A1.5452 1.5452 0 0 0 21.705 8.5v0ZM13.948 10.697 5.75.5M14.455 10.243l3.753 3.753M17.6329 16.359l-5.016-5.016" stroke="#1F262D" stroke-linecap="round" stroke-linejoin="round"/><path d="M18.25 9.25a.2501.2501 0 0 1 .25.25M18 9.5a.25.25 0 0 1 .25-.25M18.25 9.75A.2501.2501 0 0 1 18 9.5M18.5 9.5a.25.25 0 0 1-.25.25" stroke="#1F262D" stroke-linecap="round" stroke-linejoin="round"/></svg>