<svg width="24" height="24" viewBox="0 0 24 24" fill="none" xmlns="http://www.w3.org/2000/svg"><path d="M20.5.5h-17c-.5523 0-1 .4477-1 1v20c0 .5523.4477 1 1 1h17c.5523 0 1-.4477 1-1v-20c0-.5523-.4477-1-1-1ZM2.5 4.5h19" stroke="#1F262D" stroke-linecap="round" stroke-linejoin="round"/><path d="M12 17c1.933 0 3.5-1.567 3.5-3.5S13.933 10 12 10s-3.5 1.567-3.5 3.5S10.067 17 12 17ZM4.5 2.5h4M3.5 22.5v1M20.5 22.5v1" stroke="#1F262D" stroke-linecap="round" stroke-linejoin="round"/><path d="M12 19.5c3.3137 0 6-2.6863 6-6s-2.6863-6-6-6-6 2.6863-6 6 2.6863 6 6 6ZM19.25 2.25a.2501.2501 0 1 1 0 .5002.2501.2501 0 0 1 0-.5002ZM16.75 2.25a.2501.2501 0 1 1 0 .5002.2501.2501 0 0 1 0-.5002ZM14.25 2.25a.2501.2501 0 1 1 0 .5002.2501.2501 0 0 1 0-.5002Z" stroke="#1F262D" stroke-linecap="round" stroke-linejoin="round"/></svg>