<svg width="24" height="24" viewBox="0 0 24 24" fill="none" xmlns="http://www.w3.org/2000/svg"><path d="M23.5 19.5a2 2 0 0 1-2 2h-19a1.9999 1.9999 0 0 1-2-2v-1h23v1ZM2.5 21.5v2M21.5 21.5v2M12 18.5H7v-17a1 1 0 0 1 1-1h3a1 1 0 0 1 1 1v17ZM17.144 18.5 15.156 2.094a.9997.9997 0 0 1 .872-1.113L19.006.62a1.0001 1.0001 0 0 1 1.113.873L22.18 18.5M15 18.5h-3v-15h2a1 1 0 0 1 1 1v14ZM7 18.5H2v-17a1 1 0 0 1 1-1h3a1 1 0 0 1 1 1v17ZM9 15.5h1M4 15.5h1M4.5 3.5v9M9.5 3.5v9" stroke="#1F262D" stroke-linecap="round" stroke-linejoin="round"/><path d="M19 14.5c.5523 0 1-.4477 1-1s-.4477-1-1-1-1 .4477-1 1 .4477 1 1 1Z" stroke="#1F262D" stroke-linecap="round" stroke-linejoin="round"/></svg>