<svg width="24" height="24" viewBox="0 0 24 24" fill="none" xmlns="http://www.w3.org/2000/svg"><path d="M20 6.5H4c-.5523 0-1 .4477-1 1v15c0 .5523.4477 1 1 1h16c.5523 0 1-.4477 1-1v-15c0-.5523-.4477-1-1-1ZM5 2.5l2-2 2 2M7 .5v4M15 2.5l2 2 2-2M17 4.5v-4" stroke="#1F262D" stroke-linecap="round" stroke-linejoin="round"/><path d="M8.502 12.5c1.1046 0 2-.8954 2-2s-.8954-2-2-2-2 .8954-2 2 .8954 2 2 2ZM11 15.5a2.5003 2.5003 0 0 0-4.2678-1.7678A2.5003 2.5003 0 0 0 6 15.5v2h1l.5 4h2l.5-4h1v-2ZM15.502 12.5c1.1046 0 2-.8954 2-2s-.8954-2-2-2-2 .8954-2 2 .8954 2 2 2ZM18 15.5c0-.663-.2634-1.2989-.7322-1.7678a2.5004 2.5004 0 0 0-3.5356 0A2.5004 2.5004 0 0 0 13 15.5v2h1l.5 4h2l.5-4h1v-2Z" stroke="#1F262D" stroke-linecap="round" stroke-linejoin="round"/></svg>