<svg width="24" height="24" viewBox="0 0 24 24" fill="none" xmlns="http://www.w3.org/2000/svg"><path d="M8 23c.8284 0 1.5-.6716 1.5-1.5S8.8284 20 8 20s-1.5.6716-1.5 1.5S7.1716 23 8 23ZM19 23c.8284 0 1.5-.6716 1.5-1.5S19.8284 20 19 20s-1.5.6716-1.5 1.5.6716 1.5 1.5 1.5ZM.5 1l1.2.6a3.248 3.248 0 0 1 1.8 2.908V16a2 2 0 0 0 2 2h18" stroke="#1F262D" stroke-linecap="round" stroke-linejoin="round"/><path d="M6.5 6v9c0 .5523.4477 1 1 1h4c.5523 0 1-.4477 1-1V6c0-.5523-.4477-1-1-1h-4c-.5523 0-1 .4477-1 1ZM9.5 5v11M8.5 8h2M8.5 13h2M15.5 6v9c0 .5523.4477 1 1 1h4c.5523 0 1-.4477 1-1V6c0-.5523-.4477-1-1-1h-4c-.5523 0-1 .4477-1 1ZM18.5 3v2M15.5 14h6M15.5 7h6" stroke="#1F262D" stroke-linecap="round" stroke-linejoin="round"/></svg>