<svg width="24" height="24" viewBox="0 0 24 24" fill="none" xmlns="http://www.w3.org/2000/svg"><path d="M22.775 8.664a.5.5 0 0 0 .183-.683l-2-3.464a.5003.5003 0 0 0-.3-.233.5.5 0 0 0-.379.05L14.5 7.669V1a.5.5 0 0 0-.5-.5h-4a.5.5 0 0 0-.5.5v6.668L3.725 4.334a.5.5 0 0 0-.683.183l-2 3.464a.5.5 0 0 0 .183.683L7 12l-5.775 3.334a.5.5 0 0 0-.183.683l2 3.464a.5.5 0 0 0 .683.183L9.5 16.329V23a.5002.5002 0 0 0 .5.5h4a.5002.5002 0 0 0 .5-.5v-6.671l5.776 3.335a.5.5 0 0 0 .379.05.5004.5004 0 0 0 .3-.233l2-3.464a.5.5 0 0 0-.183-.683L17 12l5.775-3.336Z" stroke="#1F262D" stroke-linecap="round" stroke-linejoin="round"/></svg>