<svg width="24" height="24" viewBox="0 0 24 24" fill="none" xmlns="http://www.w3.org/2000/svg"><path d="M7.5 11.5h-2l-3 3v-3h-1a1.0002 1.0002 0 0 1-1-1v-9a1 1 0 0 1 1-1h12a1 1 0 0 1 1 1v9" stroke="#1F262D" stroke-linecap="round" stroke-linejoin="round"/><path d="M16.5 10.5h6a1.0001 1.0001 0 0 1 1 1v8a1.0001 1.0001 0 0 1-1 1h-1v3l-3-3h-8a1.0002 1.0002 0 0 1-1-1v-8a1 1 0 0 1 1-1h1M5.5 8.5V4a1.5 1.5 0 0 1 3 0v4.5M5.5 5.5h3M17.5 13.5v-1M14.5 13.5h6" stroke="#1F262D" stroke-linecap="round" stroke-linejoin="round"/><path d="M16 13.5a4.8681 4.8681 0 0 0 4 4.5" stroke="#1F262D" stroke-linecap="round" stroke-linejoin="round"/><path d="M19 13.5a4.8681 4.8681 0 0 1-4 4.5" stroke="#1F262D" stroke-linecap="round" stroke-linejoin="round"/></svg>