<svg width="24" height="24" viewBox="0 0 24 24" fill="none" xmlns="http://www.w3.org/2000/svg"><path d="M9.5 11a.5002.5002 0 0 1-.5.5H4a.5002.5002 0 0 1-.5-.5V6a.5.5 0 0 1 .5-.5h5a.5.5 0 0 1 .5.5v5ZM11.5 5.5h3M11.5 8.5h3M11.5 11.5h3M3.5 14.5h11M3.5 17.5h11" stroke="#1F262D" stroke-linecap="round" stroke-linejoin="round"/><path d="M20.5 22.5h-17a3 3 0 0 1-3-3v-17a1 1 0 0 1 1-1h15a1 1 0 0 1 1 1v17a3 3 0 0 0 3 3Zm0 0a3 3 0 0 0 3-3v-15M20.5 4.5V20" stroke="#1F262D" stroke-linecap="round" stroke-linejoin="round"/></svg>