<svg width="24" height="24" viewBox="0 0 24 24" fill="none" xmlns="http://www.w3.org/2000/svg"><path d="M22.5 2.5v18M1.5 20.5v-18M23.5 22.5a1.0001 1.0001 0 0 1-1 1h-21a1.0002 1.0002 0 0 1-1-1V21a.5002.5002 0 0 1 .5-.5h22a.5004.5004 0 0 1 .3536.1464A.5004.5004 0 0 1 23.5 21v1.5ZM20 8.5H4a.5.5 0 0 0-.5.5v9a.5.5 0 0 0 .5.5h16a.5.5 0 0 0 .5-.5V9a.5.5 0 0 0-.5-.5ZM6.5 11.5h11M15.5 6.5c.5523 0 1-.4477 1-1s-.4477-1-1-1-1 .4477-1 1 .4477 1 1 1ZM19.5 6.5c.5523 0 1-.4477 1-1s-.4477-1-1-1-1 .4477-1 1 .4477 1 1 1ZM12 4.5H4a.5.5 0 0 0-.5.5v1a.5.5 0 0 0 .5.5h8a.5.5 0 0 0 .5-.5V5a.5.5 0 0 0-.5-.5ZM23.5 2a.5002.5002 0 0 1-.5.5H1A.5.5 0 0 1 .5 2v-.5a1 1 0 0 1 1-1h21a1 1 0 0 1 1 1V2Z" stroke="#1F262D" stroke-linecap="round" stroke-linejoin="round"/></svg>