<svg width="24" height="24" viewBox="0 0 24 24" fill="none" xmlns="http://www.w3.org/2000/svg"><path d="M5.333 5.469C6.973 3.957 9.348 3 12 3s5.027.957 6.667 2.469M7.556 8.185C8.649 7.278 10.232 6.704 12 6.704c1.768 0 3.351.574 4.444 1.481M9.778 11c.547-.454 1.338-.741 2.222-.741.884 0 1.676.287 2.222.741M4.406 11l-1.353 6.764A2.7062 2.7062 0 0 0 5.707 21h12.587a2.7072 2.7072 0 0 0 1.1573-.2602 2.7067 2.7067 0 0 0 1.4957-2.9758L19.594 11" stroke="#1F262D" stroke-linecap="round" stroke-linejoin="round"/></svg>