<svg width="24" height="24" viewBox="0 0 24 24" fill="none" xmlns="http://www.w3.org/2000/svg"><path d="M23.5 22.442c-2.5.521-4.06-1.979-4.06-1.979a4.3994 4.3994 0 0 1-3.621 2.055 4.6064 4.6064 0 0 1-3.619-2.055 4.4007 4.4007 0 0 1-3.62 2.055 4.599 4.599 0 0 1-3.62-2.055S2.952 23 .5 22.483M23.5 18.442c-2.5.521-4.06-1.979-4.06-1.979a4.3994 4.3994 0 0 1-3.621 2.055 4.6064 4.6064 0 0 1-3.619-2.055 4.4007 4.4007 0 0 1-3.62 2.055 4.599 4.599 0 0 1-3.62-2.055S2.952 19 .5 18.483M9 15.727V3.947a2.5 2.5 0 1 1 5 0v1M16 15.942V3.947a2.5001 2.5001 0 0 1 4.2678-1.7678A2.5001 2.5001 0 0 1 21 3.947v1M8.998 10.447h7M8.998 7.447h7M8.998 13.447h7" stroke="#1F262D" stroke-linecap="round" stroke-linejoin="round"/></svg>