<svg width="24" height="24" viewBox="0 0 24 24" fill="none" xmlns="http://www.w3.org/2000/svg"><path d="M.967 15.5v8M15.967 22.5a3 3 0 0 0-3-3h-3.75a3 3 0 0 0-3-3H.967v6h15ZM6.217 19.5h3.75M12.467 3.5c.8284 0 1.5-.6716 1.5-1.5s-.6716-1.5-1.5-1.5-1.5.6716-1.5 1.5.6716 1.5 1.5 1.5Z" stroke="#1F262D" stroke-linecap="round" stroke-linejoin="round"/><path d="M3.467 12.5a9 9 0 0 1 18 0" stroke="#1F262D" stroke-linecap="round" stroke-linejoin="round"/><path d="m2.467 14-.482-.723A.4999.4999 0 0 1 2.4 12.5h20.133a.4991.4991 0 0 1 .4405.264.5002.5002 0 0 1-.0245.513l-1.333 2a.5.5 0 0 1-.416.223H9.467" stroke="#1F262D" stroke-linecap="round" stroke-linejoin="round"/></svg>