<svg width="24" height="24" viewBox="0 0 24 24" fill="none" xmlns="http://www.w3.org/2000/svg"><path d="M14.6829 8.1592a3.8689 3.8689 0 0 1-1.2551 6.3097 3.8688 3.8688 0 0 1-5.349-3.5742 3.8686 3.8686 0 0 1 6.6041-2.7355" stroke="#1F262D" stroke-linecap="round" stroke-linejoin="round"/><path d="M2 4.3361v13.1184c0 1.26 1.0224 2.2823 2.2835 2.2823h15.3289c1.26 0 2.2823-1.0223 2.2823-2.2834V4.3361a2.2832 2.2832 0 0 0-2.2834-2.2835H4.2835A2.2835 2.2835 0 0 0 2 4.3361v0ZM11.2289 11.6684l1.4369-1.5474M4.2105 21.9474v-2.2106M19.6842 21.9474v-2.2106M21.8947 5.3684H23M21.8947 15.3158H23" stroke="#1F262D" stroke-linecap="round" stroke-linejoin="round"/></svg>