<svg width="24" height="24" viewBox="0 0 24 24" fill="none" xmlns="http://www.w3.org/2000/svg"><path d="M10.5 23a.5004.5004 0 0 1-.1464.3536A.5004.5004 0 0 1 10 23.5H6a.5002.5002 0 0 1-.5-.5V3a2.5 2.5 0 1 1 5 0v20ZM18.5 23a.5004.5004 0 0 1-.1464.3536A.5004.5004 0 0 1 18 23.5h-4a.5004.5004 0 0 1-.3536-.1464A.5004.5004 0 0 1 13.5 23V3a2.5001 2.5001 0 0 1 4.2678-1.7678A2.5001 2.5001 0 0 1 18.5 3v20ZM2.5 6a.5.5 0 0 1-.5.5H1A.5.5 0 0 1 .5 6V1.5a1 1 0 1 1 2 0V6ZM1.5 6.5v17M.5 21.5h2M23.5 6a.5002.5002 0 0 1-.5.5h-1a.5002.5002 0 0 1-.5-.5V1.5a1.0002 1.0002 0 0 1 1.7071-.7071c.1875.1875.2929.4419.2929.7071V6ZM22.5 6.5v17M21.5 21.5h2M5.5 10.5l5-1.498M13.5 9.002l5 1.498M5.5 15.5l5-1.498M13.5 14.002l5 1.498" stroke="#1F262D" stroke-linecap="round" stroke-linejoin="round"/></svg>