<svg width="24" height="24" viewBox="0 0 24 24" fill="none" xmlns="http://www.w3.org/2000/svg"><path d="M5.871 10.743h7.334a3.9995 3.9995 0 0 0 2.2204-.6713A3.9996 3.9996 0 0 0 16.9 8.281L18.179 5.2c.106-.253.278-.253.382 0l.81 1.978c2.4 1.516 3 1.527 3 3.246a1.3121 1.3121 0 0 1-1.312 1.313h-1.188l-1.5 3-1.31 5.242a1 1 0 0 1-.971.758.756.756 0 0 1-.5337-.2229.755.755 0 0 1-.2193-.5351c.024-3.372-.226-4.242-4.466-4.242-5.662 0-6.187 1.909-7.742 4.512-.544.911-1.771.421-1.446-.383.646-1.6 2.032-5.057 2.922-7.539a4.1003 4.1003 0 0 1-2.234-4.09c0-4.828 5.2-6.778 5.831-3.018.159.966-1.2 1.419-1.468.606C5.9 3.344 2.46 8.7 5.871 10.743Z" stroke="#1F262D" stroke-linecap="round" stroke-linejoin="round"/><path d="m9.371 15.864.4 4.252a.574.574 0 0 1-1.094.29L6.8 16.293M17.553 18.015l1.521 2.285c.57.855 1.7.359 1.374-.384-.206-.472-.5-1.215-2.077-5.171M19.137 8.993a.25.25 0 0 1 .25.25M18.887 9.243a.25.25 0 0 1 .25-.25M19.137 9.493a.2501.2501 0 0 1-.25-.25M19.387 9.243a.25.25 0 0 1-.25.25" stroke="#1F262D" stroke-linecap="round" stroke-linejoin="round"/></svg>