<svg width="24" height="24" viewBox="0 0 24 24" fill="none" xmlns="http://www.w3.org/2000/svg"><path d="M11.5 4.5v-4M11.5.5H15a.5002.5002 0 0 1 .5.5v1a.5002.5002 0 0 1-.5.5h-3.5v-2ZM.5 23.5h23M2.5 20.5h5v3h-6v-2a1 1 0 0 1 1-1v0ZM15.5 20.5h5a1.0001 1.0001 0 0 1 1 1v2h-6v-3ZM8 15.5h7a.5004.5004 0 0 1 .3536.1464A.5004.5004 0 0 1 15.5 16v7.5h-8V16a.5002.5002 0 0 1 .5-.5v0ZM11.5 15.5v8" stroke="#1F262D" stroke-linecap="round" stroke-linejoin="round"/><path d="M2.5 20.5v-8h18v8M1.5 10.5h20v1a1.0001 1.0001 0 0 1-1 1h-18a1.0002 1.0002 0 0 1-1-1v-1ZM21.5 10.5l.915-1.829a.8097.8097 0 0 0-.3302-1.0682.8101.8101 0 0 0-.3938-.1028H16.5l-.336-.5a5.6062 5.6062 0 0 0-7.3088-1.8325A5.606 5.606 0 0 0 6.836 7l-.336.5H1.309a.81.81 0 0 0-.724 1.171L1.5 10.5" stroke="#1F262D" stroke-linecap="round" stroke-linejoin="round"/></svg>