<svg width="24" height="24" viewBox="0 0 24 24" fill="none" xmlns="http://www.w3.org/2000/svg"><path d="M7 5.5a2.309 2.309 0 0 0-1.5 2v2h15v-2a2.3085 2.3085 0 0 0-1.5-2A2.5003 2.5003 0 0 0 21.5 3 2.5001 2.5001 0 0 0 19 .5H7a2.5 2.5 0 0 0 0 5v0ZM9.176 6.794l3.5-3.5M13.676 6.794l3.5-3.5M4.5 9.5h17a2 2 0 0 1 2 2v11a1.0001 1.0001 0 0 1-1 1h-19a1.0002 1.0002 0 0 1-1-1v-11a2 2 0 0 1 2-2v0ZM1.5 11.5h1v3h-1a1.0002 1.0002 0 0 1-1-1v-1a1 1 0 0 1 1-1v0Z" stroke="#1F262D" stroke-linecap="round" stroke-linejoin="round"/><path d="M6.5 20.5c1.1046 0 2-.8954 2-2s-.8954-2-2-2-2 .8954-2 2 .8954 2 2 2ZM6.5 14.5v-1M9.5 18.5h-1" stroke="#1F262D" stroke-linecap="round" stroke-linejoin="round"/></svg>