<svg width="24" height="24" viewBox="0 0 24 24" fill="none" xmlns="http://www.w3.org/2000/svg"><path d="M19.5 20.5a1.0001 1.0001 0 0 1-1 1h-13a1.0002 1.0002 0 0 1-1-1V4A3.5 3.5 0 0 1 8 .5h8A3.5 3.5 0 0 1 19.5 4v16.5ZM4.5 6.5h15M19.5 15.5h-15" stroke="#1F262D" stroke-linecap="round" stroke-linejoin="round"/><path d="M14.5 4.5h-5V3a.5.5 0 0 1 .5-.5h4a.5002.5002 0 0 1 .5.5v1.5ZM6.5 18h3M14.5 18h3M.5 13.5a1 1 0 0 0 1 1H2a.5002.5002 0 0 0 .5-.5V7.5h-1a1 1 0 0 0-1 1v5ZM21.5 14c0 .1326.0527.2598.1464.3536A.5004.5004 0 0 0 22 14.5h.5a1.0001 1.0001 0 0 0 1-1v-5a1.0002 1.0002 0 0 0-1-1h-1V14ZM2.5 7.5h2M19.5 7.5h2M9.5 21.5V23a.5002.5002 0 0 1-.5.5H7a.5002.5002 0 0 1-.5-.5v-1.5M17.5 21.5V23a.5004.5004 0 0 1-.1464.3536A.5004.5004 0 0 1 17 23.5h-2a.5004.5004 0 0 1-.3536-.1464A.5004.5004 0 0 1 14.5 23v-1.5" stroke="#1F262D" stroke-linecap="round" stroke-linejoin="round"/></svg>