<svg width="24" height="24" viewBox="0 0 24 24" fill="none" xmlns="http://www.w3.org/2000/svg"><path d="M4.5 21.5V23a.5002.5002 0 0 1-.5.5H2a.5002.5002 0 0 1-.5-.5v-1.5M18.5 21.5V23a.5004.5004 0 0 1-.1464.3536A.5004.5004 0 0 1 18 23.5h-2a.5004.5004 0 0 1-.3536-.1464A.5004.5004 0 0 1 15.5 23v-1.5M19 21.5a.5004.5004 0 0 0 .3536-.1464A.5004.5004 0 0 0 19.5 21v-3.293a.4997.4997 0 0 0-.146-.353L17.5 15.5h-15L.646 17.354a.5.5 0 0 0-.146.353V21a.5002.5002 0 0 0 .5.5h18ZM8.951 10.5H4.839a.5004.5004 0 0 0-.465.314L2.5 15.5M.5 19.5H5M15 19.5h4.5M17 13.5c3.5899 0 6.5-2.9101 6.5-6.5S20.5899.5 17 .5 10.5 3.4101 10.5 7s2.9101 6.5 6.5 6.5Z" stroke="#1F262D" stroke-linecap="round" stroke-linejoin="round"/><path d="M15.5 10.5v-7h2a2 2 0 0 1 0 4h-2" stroke="#1F262D" stroke-linecap="round" stroke-linejoin="round"/></svg>