<svg width="24" height="24" viewBox="0 0 24 24" fill="none" xmlns="http://www.w3.org/2000/svg"><path d="M10.946 5.5c1.3807 0 2.5-1.1193 2.5-2.5S12.3267.5 10.946.5s-2.5 1.1193-2.5 2.5 1.1193 2.5 2.5 2.5ZM12.446 9a1.5 1.5 0 0 0-3 0v8a1.5001 1.5001 0 0 0 1.5 1.5h4.5a.5003.5003 0 0 1 .424.235l1.912 3.06a1.5 1.5 0 1 0 2.544-1.59l-1.912-3.06a3.4807 3.4807 0 0 0-2.968-1.645h-2.5a.5004.5004 0 0 1-.3536-.1464A.5004.5004 0 0 1 12.446 15V9Z" stroke="#1F262D" stroke-linecap="round" stroke-linejoin="round"/><path d="M14.578 20.609a5.9998 5.9998 0 0 1-4.767 2.8772 6.0001 6.0001 0 0 1-6.2619-4.8921A6.0002 6.0002 0 0 1 7.634 11.778" stroke="#1F262D" stroke-linecap="round" stroke-linejoin="round"/></svg>