<svg width="24" height="24" viewBox="0 0 24 24" fill="none" xmlns="http://www.w3.org/2000/svg"><path d="M4.5 13.586a1 1 0 0 0 .293.707L7.5 17v2.542a1 1 0 0 0 1 1h7a1.0001 1.0001 0 0 0 1-1V17l2.707-2.707a1 1 0 0 0 .293-.707V9.5a1.9999 1.9999 0 0 0-2-2h-11a2 2 0 0 0-2 2v4.086Z" stroke="#1F262D" stroke-linecap="round" stroke-linejoin="round"/><path d="M16.5 1.5a1.0002 1.0002 0 0 0-1-1h-7a1 1 0 0 0-1 1v6h9v-6Z" stroke="#1F262D" stroke-linecap="round" stroke-linejoin="round"/><path d="M13.5 2.5h-3c-.5523 0-1 .4477-1 1v1c0 .5523.4477 1 1 1h3c.5523 0 1-.4477 1-1v-1c0-.5523-.4477-1-1-1ZM12 20.542V23.5" stroke="#1F262D" stroke-linecap="round" stroke-linejoin="round"/></svg>