<svg width="192" height="29" viewBox="0 0 192 29" fill="none" xmlns="http://www.w3.org/2000/svg">
<path d="M16.6455 0.0770457C24.2161 0.832094 30.122 6.99575 30.1381 14.5C30.1381 22.5128 23.3998 29 15.077 29C6.75425 29 0 22.5128 0 14.5C0 6.48725 6.73825 0 15.061 0C15.5892 0 16.1174 0.0308183 16.6455 0.0770457ZM17.4138 27.983C25.1604 26.7349 30.3781 19.6775 29.0657 12.2349C27.9773 6.04038 22.7276 1.5101 16.5495 0.89373C15.3011 0.770457 14.0047 0.801275 12.7082 1.017C11.1557 1.26355 9.73125 1.74123 8.41881 2.41923C15.2371 4.65356 18.9023 8.02816 19.1584 11.4952C19.2864 13.6371 18.2461 15.1934 16.8856 16.4416L26.5368 15.7944C26.8089 15.779 26.889 16.0871 26.5689 16.1796L3.55318 22.5282C5.88996 25.6408 9.53918 27.7056 13.5725 28.1063C14.8209 28.2295 16.1174 28.1987 17.4138 27.983ZM11.0917 14.8236C12.3561 10.2625 10.9156 5.47024 7.47449 2.94315C2.78493 5.79384 0.0800267 11.1716 1.05635 16.7651C1.37646 18.6142 2.08069 20.3092 3.05702 21.8039C6.72224 20.8332 9.93931 18.9687 11.0917 14.8236Z" fill="white"/>
<path d="M29.0661 12.2349C30.3625 19.6775 25.1448 26.7349 17.4142 27.983C16.1178 28.1988 14.8213 28.2296 13.5729 28.1063C9.53958 27.7057 5.89036 25.6408 3.55358 22.5282L26.5532 16.1796C26.8894 16.0872 26.7933 15.779 26.5212 15.7944L16.87 16.4416C18.2305 15.178 19.2708 13.6371 19.1428 11.4952C18.8867 8.02819 15.2215 4.63818 8.4032 2.41926C9.71564 1.75667 11.1561 1.26358 12.6926 1.01703C13.9891 0.801302 15.2855 0.770483 16.5339 0.893756C22.744 1.52553 27.9937 6.04041 29.0661 12.2349ZM1.05675 16.7652C1.37686 18.6143 2.08109 20.3093 3.05742 21.804C6.72264 20.8178 9.93971 18.9533 11.0921 14.8082C12.3565 10.2471 10.916 5.45486 7.47489 2.92776C2.78533 5.79386 0.0804265 11.1717 1.05675 16.7652Z" fill="#C90019"/>
<path d="M108.133 20.1859V15.4245H103.171V20.1859H100.45V8.82935H103.171V13.3596H108.133V8.82935H110.886V20.1859H108.133Z" fill="black"/>
<path d="M49.3926 8.82935V15.933C49.3926 16.7188 49.5046 17.3968 49.7447 17.9516C49.9848 18.5063 50.3209 18.9532 50.753 19.3076C51.2012 19.662 51.7294 19.9239 52.3376 20.078C52.9618 20.2475 53.65 20.3246 54.4182 20.3246C55.1705 20.3246 55.8747 20.2475 56.4829 20.078C57.0751 19.9239 57.5873 19.662 58.0034 19.3076C58.4036 18.9532 58.7237 18.5063 58.9477 17.9516C59.1718 17.3968 59.2839 16.7188 59.2839 15.933V8.82935H56.739V15.8713C56.739 16.5956 56.547 17.1657 56.1948 17.5971C55.8267 18.0286 55.2345 18.2443 54.4342 18.2443C53.65 18.2443 53.0578 18.0286 52.6897 17.5971C52.3215 17.1811 52.1295 16.5956 52.1295 15.8713V8.82935H49.3926Z" fill="black"/>
<path d="M41.5341 20.1859V10.9558H38.333V8.82935H47.4881V9.84635C47.4881 10.4627 46.9759 10.9558 46.3357 10.9558H44.255V20.1859H41.5341Z" fill="black"/>
<path d="M88.0617 8.82935H85.3408V20.1859H88.0617V8.82935Z" fill="black"/>
<path d="M76.2655 14.8852L76.3615 14.993L79.8507 19.3076C80.2988 19.8623 80.955 20.1705 81.6913 20.1705H83.868L78.8743 14.0685L78.7943 13.976L78.8743 13.8836L82.9717 8.81396H80.1388L76.3775 13.7141L76.2815 13.8373V13.637V8.82937H73.5605V20.1859H76.2815V15.1009L76.2655 14.8852Z" fill="black"/>
<path d="M69.9918 20.1859C69.1916 20.1859 68.4233 19.7698 68.0072 19.1072L65.8945 15.7326H64.55V20.1859H61.8291V8.82935H66.6787C67.9271 8.82935 68.9035 9.13753 69.5757 9.75389C70.2479 10.3703 70.6 11.2178 70.6 12.2656C70.6 12.8049 70.456 13.3442 70.1679 13.8681C69.8798 14.392 69.3676 14.8235 68.6634 15.1471L68.5033 15.2241L71.8164 20.1859H69.9918ZM64.534 14.0222H66.1185C66.6947 14.0222 67.1269 13.8681 67.415 13.5754C67.7031 13.2826 67.8471 12.8974 67.8471 12.4351C67.8471 11.9574 67.7031 11.5722 67.431 11.2794C67.1429 10.9866 66.7107 10.8325 66.1185 10.8325H64.534V14.0222Z" fill="black"/>
<path d="M90.3018 19.7082V17.5355C91.166 17.9208 92.2864 18.306 93.4388 18.306C94.7672 18.306 95.4395 17.8591 95.4395 17.027C95.4395 16.0409 94.5272 15.933 92.7186 15.1779C91.4862 14.654 90.3018 13.8219 90.3018 11.9266C90.3018 9.7077 92.0623 8.67529 94.4791 8.67529C95.7756 8.67529 96.8639 8.96807 97.4881 9.18379V11.3103C96.8639 11.0329 95.7756 10.7093 94.6712 10.7093C93.4708 10.7093 92.9106 11.1253 92.9106 11.865C92.9106 12.6354 93.5828 12.8666 94.7992 13.3134C96.3678 14.0685 98.1764 14.3921 98.1764 16.95C98.1764 19.1689 96.3517 20.3708 93.9029 20.3708C92.4305 20.34 91.2301 20.0935 90.3018 19.7082Z" fill="black"/>
<path d="M174.507 20.1859V8.82935H181.901V9.86176C181.901 10.4627 181.389 10.9558 180.765 10.9558H177.244V13.4059H181.213V15.3012H177.244V18.0748H181.901V20.2013H174.507V20.1859Z" fill="black"/>
<path d="M147.57 20.1859V8.82935H148.899C149.667 8.82935 150.307 9.4303 150.307 10.1854V18.1519H154.661V20.2013H147.57V20.1859Z" fill="black"/>
<path d="M133.405 8.82935H130.685V20.1859H133.405V8.82935Z" fill="black"/>
<path d="M144.096 20.1859C143.296 20.1859 142.528 19.7698 142.112 19.1072L139.999 15.7326H138.654V20.1859H135.934V8.82935H140.783C142.032 8.82935 143.008 9.13753 143.68 9.75389C144.352 10.3703 144.705 11.2178 144.705 12.2656C144.705 12.8049 144.56 13.3442 144.272 13.8681C143.984 14.392 143.472 14.8235 142.768 15.1471L142.608 15.2241L145.921 20.1859H144.096ZM138.639 14.0222H140.223C140.799 14.0222 141.231 13.8681 141.519 13.5754C141.808 13.2826 141.952 12.8974 141.952 12.4351C141.952 11.9574 141.808 11.5722 141.535 11.2794C141.247 10.9866 140.815 10.8325 140.223 10.8325H138.639V14.0222Z" fill="black"/>
<path d="M124.682 8.82935H121.545L117.096 20.1859H119.064C119.561 20.1859 120.009 19.8777 120.153 19.4308L120.617 18.1056H125.402L126.107 20.2013H129.052L124.682 8.82935ZM121.321 16.0562L122.393 13.1901C122.634 12.5429 122.874 11.8649 123.034 11.3564H123.066C123.21 11.8804 123.45 12.5275 123.674 13.1901L124.698 16.0562H121.321Z" fill="black"/>
<path d="M184.094 19.7082V17.5355C184.958 17.9208 186.078 18.306 187.231 18.306C188.559 18.306 189.231 17.8591 189.231 17.027C189.231 16.0409 188.319 15.933 186.511 15.1779C185.278 14.654 184.094 13.8219 184.094 11.9266C184.094 9.7077 185.854 8.67529 188.271 8.67529C189.568 8.67529 190.656 8.96807 191.28 9.18379V11.3103C190.656 11.0329 189.568 10.7093 188.463 10.7093C187.263 10.7093 186.703 11.1253 186.703 11.865C186.703 12.6354 187.375 12.8666 188.591 13.3134C190.16 14.0685 191.968 14.3921 191.968 16.95C191.968 19.1689 190.144 20.3708 187.695 20.3708C186.206 20.34 185.022 20.0935 184.094 19.7082Z" fill="black"/>
<path d="M161.622 8.82935H163.319C164.119 8.82935 164.871 9.22998 165.287 9.87717L168.584 14.9622C168.953 15.5323 169.385 16.272 169.641 16.7959H169.705C169.673 16.2874 169.641 15.5785 169.641 15.07V8.82935H172.026V20.1859H169.033L165.031 14.0376C164.663 13.4675 164.263 12.8049 163.991 12.281H163.959C163.975 12.7741 164.023 13.3596 164.023 13.899V20.1705H161.638V8.82935H161.622Z" fill="black"/>
<path d="M159.11 8.82935H156.389V20.1859H159.11V8.82935Z" fill="black"/>
</svg>