<svg xmlns="http://www.w3.org/2000/svg" xmlns:xlink="http://www.w3.org/1999/xlink" viewBox="0 0 659.63 450.89"><defs><style>.exec-cls-1,.exec-cls-5{fill:none;}.exec-cls-2{clip-path:url(#exec-clip-path);}.exec-cls-3{fill:url(#exec-linear-gradient);}.exec-cls-4{fill:#f9ea97;}.exec-cls-5{stroke:#272525;stroke-width:1.5px;}.exec-cls-6{fill:#272525;}.exec-cls-7{fill:#fff;}.exec-cls-8{fill:#0033a0;}.exec-cls-9{fill:#c8102e;}</style><clipPath id="exec-clip-path" transform="translate(9.11 10.54)"><rect class="exec-cls-1" width="640" height="406" rx="24.67"/></clipPath><linearGradient id="exec-linear-gradient" x1="330.07" y1="381.83" x2="330.07" y2="-69.06" gradientTransform="translate(9.06 58.52)" gradientUnits="userSpaceOnUse"><stop offset="0.09" stop-color="#b09234"/><stop offset="0.22" stop-color="#d7c386"/><stop offset="0.28" stop-color="#bda24f"/><stop offset="0.31" stop-color="#b09234"/><stop offset="0.48" stop-color="#d7c386"/><stop offset="0.5" stop-color="#d0ba77"/><stop offset="0.53" stop-color="#c4ac5f"/><stop offset="0.56" stop-color="#bba04c"/><stop offset="0.6" stop-color="#b5983e"/><stop offset="0.66" stop-color="#b19336"/><stop offset="0.75" stop-color="#b09234"/><stop offset="0.79" stop-color="#b19336"/><stop offset="0.81" stop-color="#b5983e"/><stop offset="0.83" stop-color="#bba04c"/><stop offset="0.85" stop-color="#c3ac60"/><stop offset="0.86" stop-color="#cfba79"/><stop offset="0.88" stop-color="#dccc98"/><stop offset="0.88" stop-color="#dfd09e"/><stop offset="0.91" stop-color="#d7c386" stop-opacity="0.98"/><stop offset="1" stop-color="#b09234"/></linearGradient></defs><g id="exec-Layer_2" data-name="Layer 2"><g id="exec-Logo"><g class="exec-cls-2"><rect x="9.11" y="10.54" width="640" height="406" rx="24.67"/><path class="exec-cls-3" d="M425.33,85.07c-4,4-4.47.52-15.06-14.39C404.52,62.59,398,55.59,391.1,48.44,377.56,34.38,360.52,20.78,343,12.19,312.06-2.88,275.12-5.16,241.63,3.58c-37,9.66-59.1,40.56-50.62,74.77,8.6,34.71,45.67,55.81,76.22,65.3,29.93,9.31,63.64,3.83,93.51-3.19,37.87-8.9,75.51-22.64,107.67-45,14.31-9.93,30.83-23.15,36.52-40.43,6.15-18.67-7.46-27.86-24-28.72C447.5,24.57,409.8,44,383.11,62.43c-17,11.72-32.15,26.12-43,43.63-10.23,16.52-20.74,36.26-19.51,56.54,1,16.77,12.25,20.48,25.81,24.66,8.84,2.73,18.87,7.08,28.22,7.08,1.3,0,17-4.51,16-5.11-3.44-4.57-17.54-6-23.66-6.31-13-.64-26.4,1.6-39,4.65a185.71,185.71,0,0,0-82,43.93c-20.87,19.2-37.35,46-41.92,74.22-3.85,23.87-5.22,55.69,14.21,73.32,21.89,19.87,60,17.48,85.88,8.37,31.42-11.06,56-27.89,78.13-54.07,15.88-18.84,29.28-60.3,7.47-80.89-24-22.63-61,2.19-79.27,20.8-22.1,22.52-39.87,45.86-47.88,76.51-1.6,6.14-8.44,27.17-8.36,45.45.08,19.14,6.87,37.26,7.63,45.14-33.46-57.08-10-147.73,42.14-186.55,28.08-20.9,85-35.27,100.8,7.29C418,296.51,390.08,339.51,364.12,361c-54.17,44.7-170.81,68.66-196.86-19.27-22.48-75.89,57.16-134.4,114.69-154.9,29.61-10.56,76.28-23.42,106.59-7.77,13.77,7.1,9.25,14.72-2.07,18.67-16.7,5.82-33.3,2.92-50.55,1.16-36.73-3.76-46-40.37-38.36-72.08C307,87.57,340,57.65,375.56,41c31.7-14.83,78.66-27.23,114.06-20.51,19.27,3.66,30.33,15.65,23,36.58-6.23,17.77-23.17,31.66-37.78,42.52-27.92,20.75-60.18,35.48-92.86,47-35.45,12.55-76.32,23.73-114,15.8-29.33-6.19-59.89-19.38-78.92-43.3-24.7-31-21.25-70.56,5.47-98.38,27.6-28.67,66.52-34.94,104.9-29.55,37.79,5.3,73.84,25.3,97.87,54.37,4.65,5.62,17.16,19.83,24.15,29.49C426.44,82,426.63,83.77,425.33,85.07Z" transform="translate(9.11 10.54)"/><path class="exec-cls-4" d="M41.54,328.29v9.84h23.1a1.75,1.75,0,0,0,1.21-.37,2.63,2.63,0,0,0,.68-1.31h.84v9.28h-.84a2.63,2.63,0,0,0-.68-1.31,1.75,1.75,0,0,0-1.21-.37H32v-.84a2.65,2.65,0,0,0,1.31-.69,1.81,1.81,0,0,0,.37-1.23V310.9a1.84,1.84,0,0,0-.37-1.24A2.71,2.71,0,0,0,32,309v-.84H64a1.76,1.76,0,0,0,1.21-.38,2.68,2.68,0,0,0,.68-1.3h.84v9.28H66a2.76,2.76,0,0,0-.68-1.31,1.75,1.75,0,0,0-1.21-.37H41.54v8.52H56.11a1.79,1.79,0,0,0,1.22-.37A2.71,2.71,0,0,0,58,320.9h.84V330H58a2.85,2.85,0,0,0-.68-1.31,1.8,1.8,0,0,0-1.22-.38Z" transform="translate(9.11 10.54)"/><path class="exec-cls-4" d="M93,328.68l8.78,11.66a9.61,9.61,0,0,0,2.1,2.17,5,5,0,0,0,2.21.83v.71H92.46v-.71c1.1-.25,1.66-.71,1.66-1.39a3.52,3.52,0,0,0-.87-1.69l-4.66-6.16-4.93,6.16a2.78,2.78,0,0,0-.71,1.61c0,.63.56,1.12,1.7,1.47v.71H72.11v-.71a5,5,0,0,0,2-.83,12.48,12.48,0,0,0,2-2.17L85,329.23l-7.8-10.33c-1.62-2.17-3-3.37-4.29-3.58v-.74H86.27v.74c-1.14.32-1.71.84-1.71,1.58a3.32,3.32,0,0,0,.81,1.76l3.87,5.14,3.82-4.8a4.55,4.55,0,0,0,1.08-2.13c0-.79-.58-1.3-1.74-1.55v-.74h12.83v.74a5,5,0,0,0-2.09.83,21.44,21.44,0,0,0-2.38,2.75Z" transform="translate(9.11 10.54)"/><path class="exec-cls-4" d="M120.22,331.53v7.18H139a1.91,1.91,0,0,0,1.25-.36,2.64,2.64,0,0,0,.69-1.32h.74v8.7h-.74a2.49,2.49,0,0,0-.68-1.3,1.9,1.9,0,0,0-1.26-.38H111.49v-.74a2.42,2.42,0,0,0,1.3-.68,1.9,1.9,0,0,0,.38-1.26v-24.1a1.84,1.84,0,0,0-.37-1.24,2.76,2.76,0,0,0-1.31-.71v-.74h26.62a2,2,0,0,0,1.28-.36,2.69,2.69,0,0,0,.7-1.32h.71v8.71h-.71a2.58,2.58,0,0,0-.7-1.32,2,2,0,0,0-1.28-.36H120.22v6.47h11.11a1.86,1.86,0,0,0,1.24-.37,2.83,2.83,0,0,0,.73-1.32H134v8.5h-.71a2.75,2.75,0,0,0-.7-1.31,1.92,1.92,0,0,0-1.27-.37Z" transform="translate(9.11 10.54)"/><path class="exec-cls-4" d="M177,333.47l4.45,6.5-.61.45a2,2,0,0,0-1-.45,6.25,6.25,0,0,0-2.08,1,29.77,29.77,0,0,1-6.36,2.92,22.82,22.82,0,0,1-6.37.81q-7.22,0-11.76-3.45a14.21,14.21,0,0,1-4.1-4.94,15.2,15.2,0,0,1-1.64-7,14.83,14.83,0,0,1,3-9.16q4.71-6.21,14.45-6.21a23,23,0,0,1,6.4.82,28.76,28.76,0,0,1,6.38,2.92,6.16,6.16,0,0,0,2.08,1,2,2,0,0,0,1-.44l.61.47L177,325.15l-.58-.41v-.4a1.93,1.93,0,0,0,0-.34q0-1.28-3.55-2.9a16.25,16.25,0,0,0-6.79-1.55,12.14,12.14,0,0,0-7.89,2.52,9.24,9.24,0,0,0,0,14.56,12.25,12.25,0,0,0,7.89,2.49,16.53,16.53,0,0,0,7.45-1.86c1.93-1,2.89-1.84,2.89-2.58a4.79,4.79,0,0,0-.08-.74Z" transform="translate(9.11 10.54)"/><path class="exec-cls-4" d="M218.82,317.27v15.6q0,5.34-2.1,7.84-3.39,4-12.79,4a23,23,0,0,1-10.15-1.92,7.54,7.54,0,0,1-3.82-4,16.15,16.15,0,0,1-.94-5.92v-15.6a1.86,1.86,0,0,0-.37-1.24,2.94,2.94,0,0,0-1.32-.71v-.74h10.42v.74a2.58,2.58,0,0,0-1.32.7,1.91,1.91,0,0,0-.36,1.25v14.18a12.73,12.73,0,0,0,.43,3.79,4.42,4.42,0,0,0,1.51,2.15,12.22,12.22,0,0,0,12.47,0,4.43,4.43,0,0,0,1.48-2.15,13.09,13.09,0,0,0,.42-3.79V317.27A1.9,1.9,0,0,0,212,316a2.74,2.74,0,0,0-1.33-.71v-.74h9.82v.74a2.69,2.69,0,0,0-1.32.7A1.87,1.87,0,0,0,218.82,317.27Z" transform="translate(9.11 10.54)"/><path class="exec-cls-4" d="M243.52,320v21.41a1.87,1.87,0,0,0,.37,1.25,2.73,2.73,0,0,0,1.32.72v.74H234.79v-.74a2.42,2.42,0,0,0,1.3-.68,1.85,1.85,0,0,0,.38-1.26V320h-8.68a1.92,1.92,0,0,0-1.27.37,2.66,2.66,0,0,0-.7,1.31h-.71V313h.71a2.51,2.51,0,0,0,.67,1.3,1.85,1.85,0,0,0,1.28.38H252.2a2,2,0,0,0,1.28-.36,2.69,2.69,0,0,0,.7-1.32h.71v8.71h-.71a2.75,2.75,0,0,0-.7-1.31,1.92,1.92,0,0,0-1.27-.37Z" transform="translate(9.11 10.54)"/><path class="exec-cls-4" d="M268.8,317.27v24.07a1.87,1.87,0,0,0,.37,1.25,2.73,2.73,0,0,0,1.32.72v.74H260.07v-.74a2.42,2.42,0,0,0,1.3-.68,1.85,1.85,0,0,0,.38-1.26v-24.1a1.9,1.9,0,0,0-.36-1.24,2.94,2.94,0,0,0-1.32-.71v-.74h10.42v.74a2.69,2.69,0,0,0-1.32.7A1.87,1.87,0,0,0,268.8,317.27Z" transform="translate(9.11 10.54)"/><path class="exec-cls-4" d="M293.52,334.72l7.15-15.58a5.44,5.44,0,0,0,.63-2c0-.88-.57-1.49-1.71-1.82v-.74H311v.74a3.77,3.77,0,0,0-1.53.84,9.06,9.06,0,0,0-1.21,2.06L298,339.92a4.53,4.53,0,0,0-.55,1.76c0,.88.58,1.43,1.74,1.66v.71H287.55v-.71c1.14-.23,1.71-.78,1.71-1.66a4.53,4.53,0,0,0-.55-1.76l-10.32-21.7a9.09,9.09,0,0,0-1.2-2.07,3.67,3.67,0,0,0-1.54-.83v-.74h11.8v.74c-1.12.35-1.68,1-1.68,1.82a5.89,5.89,0,0,0,.66,2Z" transform="translate(9.11 10.54)"/><path class="exec-cls-4" d="M325,331.53v7.18h18.71a1.91,1.91,0,0,0,1.25-.36,2.65,2.65,0,0,0,.7-1.32h.73v8.7h-.73a2.62,2.62,0,0,0-.69-1.3,1.9,1.9,0,0,0-1.26-.38H316.27v-.74a2.42,2.42,0,0,0,1.3-.68,1.85,1.85,0,0,0,.38-1.26v-24.1a1.84,1.84,0,0,0-.37-1.24,2.76,2.76,0,0,0-1.31-.71v-.74h26.62a2,2,0,0,0,1.28-.36,2.69,2.69,0,0,0,.7-1.32h.71v8.71h-.71a2.58,2.58,0,0,0-.7-1.32,2,2,0,0,0-1.28-.36H325v6.47h11.11a1.86,1.86,0,0,0,1.24-.37,2.83,2.83,0,0,0,.73-1.32h.71v8.5h-.71a2.75,2.75,0,0,0-.7-1.31,1.92,1.92,0,0,0-1.27-.37Z" transform="translate(9.11 10.54)"/><path class="exec-cls-4" d="M391.39,344.05l-13.25-24.81v22.05a1.81,1.81,0,0,0,.37,1.23,2.64,2.64,0,0,0,1.32.69v.84H369.28v-.84a2.65,2.65,0,0,0,1.31-.69,1.81,1.81,0,0,0,.37-1.23V310.88a1.79,1.79,0,0,0-.37-1.22,2.71,2.71,0,0,0-1.31-.68v-.84h13.84V309a1.41,1.41,0,0,0-1.24,1.45,2.59,2.59,0,0,0,.37,1.21l9.8,18.56L402,312a4.28,4.28,0,0,0,.66-1.76c0-.72-.44-1.12-1.31-1.21v-.84H415V309a2.79,2.79,0,0,0-1.32.68,1.79,1.79,0,0,0-.37,1.22v30.41a1.81,1.81,0,0,0,.37,1.23,2.64,2.64,0,0,0,1.32.69v.84H403.69v-.84a2.51,2.51,0,0,0,1.3-.67,1.88,1.88,0,0,0,.38-1.25V319.24Z" transform="translate(9.11 10.54)"/><path class="exec-cls-4" d="M431.57,331.53v7.18h18.71a1.91,1.91,0,0,0,1.25-.36,2.64,2.64,0,0,0,.69-1.32H453v8.7h-.74a2.49,2.49,0,0,0-.68-1.3,1.9,1.9,0,0,0-1.26-.38H422.84v-.74a2.42,2.42,0,0,0,1.3-.68,1.9,1.9,0,0,0,.38-1.26v-24.1a1.84,1.84,0,0,0-.37-1.24,2.76,2.76,0,0,0-1.31-.71v-.74h26.62a2,2,0,0,0,1.28-.36,2.69,2.69,0,0,0,.7-1.32h.71v8.71h-.71a2.58,2.58,0,0,0-.7-1.32,2,2,0,0,0-1.28-.36H431.57v6.47h11.1a1.87,1.87,0,0,0,1.25-.37,2.83,2.83,0,0,0,.73-1.32h.71v8.5h-.71a2.75,2.75,0,0,0-.7-1.31,1.89,1.89,0,0,0-1.28-.37Z" transform="translate(9.11 10.54)"/><path class="exec-cls-4" d="M478.41,344.05l-10.74-19.38v16.67a1.91,1.91,0,0,0,.36,1.25,2.73,2.73,0,0,0,1.32.72v.74h-9.79v-.74a2.44,2.44,0,0,0,1.31-.68,1.9,1.9,0,0,0,.38-1.26v-24.1a1.87,1.87,0,0,0-.37-1.25,2.69,2.69,0,0,0-1.32-.7v-.74H472v.74a1.53,1.53,0,0,0-1.24,1.5,5.52,5.52,0,0,0,.9,2.63L479,332.78l7.4-13.14a7.18,7.18,0,0,0,1.26-3c0-.72-.43-1.18-1.29-1.37v-.74h12.14v.74a2.65,2.65,0,0,0-1.32.7,1.87,1.87,0,0,0-.37,1.25v24.07a1.89,1.89,0,0,0,.37,1.26,2.52,2.52,0,0,0,1.32.71V344H488.11v-.74a2.42,2.42,0,0,0,1.3-.68,1.91,1.91,0,0,0,.38-1.27V324.67Z" transform="translate(9.11 10.54)"/><path class="exec-cls-4" d="M533,328.21a12,12,0,0,1,3.21,2,6.88,6.88,0,0,1,1.92,5.11,7.71,7.71,0,0,1-3.26,6.65q-2.9,2.08-8,2.08h-21v-.74a2.42,2.42,0,0,0,1.3-.68,1.9,1.9,0,0,0,.38-1.26v-24.1a1.84,1.84,0,0,0-.37-1.24,2.76,2.76,0,0,0-1.31-.71v-.74h20.62q5.43,0,8,1.95a6.68,6.68,0,0,1,2.68,5.63,6,6,0,0,1-.93,3.45A9.3,9.3,0,0,1,533,328.21Zm-18.34-2.58h10.71a7.34,7.34,0,0,0,3.58-.64,2.86,2.86,0,0,0,0-4.42,7.16,7.16,0,0,0-3.59-.64H514.57Zm0,13.08h11q5.32,0,5.32-3.87c0-2.58-1.77-3.86-5.32-3.86h-11Z" transform="translate(9.11 10.54)"/><path class="exec-cls-4" d="M553.22,331.53v7.18H572a1.91,1.91,0,0,0,1.25-.36,2.65,2.65,0,0,0,.7-1.32h.74v8.7h-.74a2.6,2.6,0,0,0-.68-1.3,1.91,1.91,0,0,0-1.27-.38H544.48v-.74a2.35,2.35,0,0,0,1.3-.68,1.86,1.86,0,0,0,.39-1.26v-24.1a1.86,1.86,0,0,0-.37-1.24,2.94,2.94,0,0,0-1.32-.71v-.74h26.63a2,2,0,0,0,1.27-.36,2.69,2.69,0,0,0,.7-1.32h.71v8.71h-.71a2.58,2.58,0,0,0-.7-1.32,2,2,0,0,0-1.27-.36H553.22v6.47h11.1a1.87,1.87,0,0,0,1.25-.37,2.68,2.68,0,0,0,.72-1.32H567v8.5h-.71a2.65,2.65,0,0,0-.69-1.31,2,2,0,0,0-1.28-.37Z" transform="translate(9.11 10.54)"/><path class="exec-cls-4" d="M590,332v9.4a1.84,1.84,0,0,0,.37,1.24,2.68,2.68,0,0,0,1.32.72v.74H581.21v-.74a2.49,2.49,0,0,0,1.3-.68,1.9,1.9,0,0,0,.38-1.26V317.3a1.84,1.84,0,0,0-.37-1.24,2.76,2.76,0,0,0-1.31-.71v-.74h19.31a32.28,32.28,0,0,1,5.73.39,9.79,9.79,0,0,1,3.53,1.38c2.17,1.35,3.17,3.6,3.17,6.76a7.67,7.67,0,0,1-2,5.59q-2,2-6.33,2.9l5.58,7.77a17.1,17.1,0,0,0,2.44,2.93,4.19,4.19,0,0,0,2.06,1v.74H602.36v-.74c.91-.24,1.37-.63,1.37-1.18a3.75,3.75,0,0,0-.84-1.76L597,332Zm0-5.34h10.63a9.28,9.28,0,0,0,3.58-.53,2.74,2.74,0,0,0,1.63-2.81,2.86,2.86,0,0,0-1.15-2.61,8,8,0,0,0-4.06-.73H590Z" transform="translate(9.11 10.54)"/><path class="exec-cls-5" d="M41.54,328.29v9.84h23.1a1.75,1.75,0,0,0,1.21-.37,2.63,2.63,0,0,0,.68-1.31h.84v9.28h-.84a2.63,2.63,0,0,0-.68-1.31,1.75,1.75,0,0,0-1.21-.37H32v-.84a2.65,2.65,0,0,0,1.31-.69,1.81,1.81,0,0,0,.37-1.23V310.9a1.84,1.84,0,0,0-.37-1.24A2.71,2.71,0,0,0,32,309v-.84H64a1.76,1.76,0,0,0,1.21-.38,2.68,2.68,0,0,0,.68-1.3h.84v9.28H66a2.76,2.76,0,0,0-.68-1.31,1.75,1.75,0,0,0-1.21-.37H41.54v8.52H56.11a1.79,1.79,0,0,0,1.22-.37A2.71,2.71,0,0,0,58,320.9h.84V330H58a2.85,2.85,0,0,0-.68-1.31,1.8,1.8,0,0,0-1.22-.38Z" transform="translate(9.11 10.54)"/><path class="exec-cls-5" d="M93,328.68l8.78,11.66a9.61,9.61,0,0,0,2.1,2.17,5,5,0,0,0,2.21.83v.71H92.46v-.71c1.1-.25,1.66-.71,1.66-1.39a3.52,3.52,0,0,0-.87-1.69l-4.66-6.16-4.93,6.16a2.78,2.78,0,0,0-.71,1.61c0,.63.56,1.12,1.7,1.47v.71H72.11v-.71a5,5,0,0,0,2-.83,12.48,12.48,0,0,0,2-2.17L85,329.23l-7.8-10.33c-1.62-2.17-3-3.37-4.29-3.58v-.74H86.27v.74c-1.14.32-1.71.84-1.71,1.58a3.32,3.32,0,0,0,.81,1.76l3.87,5.14,3.82-4.8a4.55,4.55,0,0,0,1.08-2.13c0-.79-.58-1.3-1.74-1.55v-.74h12.83v.74a5,5,0,0,0-2.09.83,21.44,21.44,0,0,0-2.38,2.75Z" transform="translate(9.11 10.54)"/><path class="exec-cls-5" d="M120.22,331.53v7.18H139a1.91,1.91,0,0,0,1.25-.36,2.64,2.64,0,0,0,.69-1.32h.74v8.7h-.74a2.49,2.49,0,0,0-.68-1.3,1.9,1.9,0,0,0-1.26-.38H111.49v-.74a2.42,2.42,0,0,0,1.3-.68,1.9,1.9,0,0,0,.38-1.26v-24.1a1.84,1.84,0,0,0-.37-1.24,2.76,2.76,0,0,0-1.31-.71v-.74h26.62a2,2,0,0,0,1.28-.36,2.69,2.69,0,0,0,.7-1.32h.71v8.71h-.71a2.58,2.58,0,0,0-.7-1.32,2,2,0,0,0-1.28-.36H120.22v6.47h11.11a1.86,1.86,0,0,0,1.24-.37,2.83,2.83,0,0,0,.73-1.32H134v8.5h-.71a2.75,2.75,0,0,0-.7-1.31,1.92,1.92,0,0,0-1.27-.37Z" transform="translate(9.11 10.54)"/><path class="exec-cls-5" d="M177,333.47l4.45,6.5-.61.45a2,2,0,0,0-1-.45,6.25,6.25,0,0,0-2.08,1,29.77,29.77,0,0,1-6.36,2.92,22.82,22.82,0,0,1-6.37.81q-7.22,0-11.76-3.45a14.21,14.21,0,0,1-4.1-4.94,15.2,15.2,0,0,1-1.64-7,14.83,14.83,0,0,1,3-9.16q4.71-6.21,14.45-6.21a23,23,0,0,1,6.4.82,28.76,28.76,0,0,1,6.38,2.92,6.16,6.16,0,0,0,2.08,1,2,2,0,0,0,1-.44l.61.47L177,325.15l-.58-.41v-.4a1.93,1.93,0,0,0,0-.34q0-1.28-3.55-2.9a16.25,16.25,0,0,0-6.79-1.55,12.14,12.14,0,0,0-7.89,2.52,9.24,9.24,0,0,0,0,14.56,12.25,12.25,0,0,0,7.89,2.49,16.53,16.53,0,0,0,7.45-1.86c1.93-1,2.89-1.84,2.89-2.58a4.79,4.79,0,0,0-.08-.74Z" transform="translate(9.11 10.54)"/><path class="exec-cls-5" d="M218.82,317.27v15.6q0,5.34-2.1,7.84-3.39,4-12.79,4a23,23,0,0,1-10.15-1.92,7.54,7.54,0,0,1-3.82-4,16.15,16.15,0,0,1-.94-5.92v-15.6a1.86,1.86,0,0,0-.37-1.24,2.94,2.94,0,0,0-1.32-.71v-.74h10.42v.74a2.58,2.58,0,0,0-1.32.7,1.91,1.91,0,0,0-.36,1.25v14.18a12.73,12.73,0,0,0,.43,3.79,4.42,4.42,0,0,0,1.51,2.15,12.22,12.22,0,0,0,12.47,0,4.43,4.43,0,0,0,1.48-2.15,13.09,13.09,0,0,0,.42-3.79V317.27A1.9,1.9,0,0,0,212,316a2.74,2.74,0,0,0-1.33-.71v-.74h9.82v.74a2.69,2.69,0,0,0-1.32.7A1.87,1.87,0,0,0,218.82,317.27Z" transform="translate(9.11 10.54)"/><path class="exec-cls-5" d="M243.52,320v21.41a1.87,1.87,0,0,0,.37,1.25,2.73,2.73,0,0,0,1.32.72v.74H234.79v-.74a2.42,2.42,0,0,0,1.3-.68,1.85,1.85,0,0,0,.38-1.26V320h-8.68a1.92,1.92,0,0,0-1.27.37,2.66,2.66,0,0,0-.7,1.31h-.71V313h.71a2.51,2.51,0,0,0,.67,1.3,1.85,1.85,0,0,0,1.28.38H252.2a2,2,0,0,0,1.28-.36,2.69,2.69,0,0,0,.7-1.32h.71v8.71h-.71a2.75,2.75,0,0,0-.7-1.31,1.92,1.92,0,0,0-1.27-.37Z" transform="translate(9.11 10.54)"/><path class="exec-cls-5" d="M268.8,317.27v24.07a1.87,1.87,0,0,0,.37,1.25,2.73,2.73,0,0,0,1.32.72v.74H260.07v-.74a2.42,2.42,0,0,0,1.3-.68,1.85,1.85,0,0,0,.38-1.26v-24.1a1.9,1.9,0,0,0-.36-1.24,2.94,2.94,0,0,0-1.32-.71v-.74h10.42v.74a2.69,2.69,0,0,0-1.32.7A1.87,1.87,0,0,0,268.8,317.27Z" transform="translate(9.11 10.54)"/><path class="exec-cls-5" d="M293.52,334.72l7.15-15.58a5.44,5.44,0,0,0,.63-2c0-.88-.57-1.49-1.71-1.82v-.74H311v.74a3.77,3.77,0,0,0-1.53.84,9.06,9.06,0,0,0-1.21,2.06L298,339.92a4.53,4.53,0,0,0-.55,1.76c0,.88.58,1.43,1.74,1.66v.71H287.55v-.71c1.14-.23,1.71-.78,1.71-1.66a4.53,4.53,0,0,0-.55-1.76l-10.32-21.7a9.09,9.09,0,0,0-1.2-2.07,3.67,3.67,0,0,0-1.54-.83v-.74h11.8v.74c-1.12.35-1.68,1-1.68,1.82a5.89,5.89,0,0,0,.66,2Z" transform="translate(9.11 10.54)"/><path class="exec-cls-5" d="M325,331.53v7.18h18.71a1.91,1.91,0,0,0,1.25-.36,2.65,2.65,0,0,0,.7-1.32h.73v8.7h-.73a2.62,2.62,0,0,0-.69-1.3,1.9,1.9,0,0,0-1.26-.38H316.27v-.74a2.42,2.42,0,0,0,1.3-.68,1.85,1.85,0,0,0,.38-1.26v-24.1a1.84,1.84,0,0,0-.37-1.24,2.76,2.76,0,0,0-1.31-.71v-.74h26.62a2,2,0,0,0,1.28-.36,2.69,2.69,0,0,0,.7-1.32h.71v8.71h-.71a2.58,2.58,0,0,0-.7-1.32,2,2,0,0,0-1.28-.36H325v6.47h11.11a1.86,1.86,0,0,0,1.24-.37,2.83,2.83,0,0,0,.73-1.32h.71v8.5h-.71a2.75,2.75,0,0,0-.7-1.31,1.92,1.92,0,0,0-1.27-.37Z" transform="translate(9.11 10.54)"/><path class="exec-cls-5" d="M391.39,344.05l-13.25-24.81v22.05a1.81,1.81,0,0,0,.37,1.23,2.64,2.64,0,0,0,1.32.69v.84H369.28v-.84a2.65,2.65,0,0,0,1.31-.69,1.81,1.81,0,0,0,.37-1.23V310.88a1.79,1.79,0,0,0-.37-1.22,2.71,2.71,0,0,0-1.31-.68v-.84h13.84V309a1.41,1.41,0,0,0-1.24,1.45,2.59,2.59,0,0,0,.37,1.21l9.8,18.56L402,312a4.28,4.28,0,0,0,.66-1.76c0-.72-.44-1.12-1.31-1.21v-.84H415V309a2.79,2.79,0,0,0-1.32.68,1.79,1.79,0,0,0-.37,1.22v30.41a1.81,1.81,0,0,0,.37,1.23,2.64,2.64,0,0,0,1.32.69v.84H403.69v-.84a2.51,2.51,0,0,0,1.3-.67,1.88,1.88,0,0,0,.38-1.25V319.24Z" transform="translate(9.11 10.54)"/><path class="exec-cls-5" d="M431.57,331.53v7.18h18.71a1.91,1.91,0,0,0,1.25-.36,2.64,2.64,0,0,0,.69-1.32H453v8.7h-.74a2.49,2.49,0,0,0-.68-1.3,1.9,1.9,0,0,0-1.26-.38H422.84v-.74a2.42,2.42,0,0,0,1.3-.68,1.9,1.9,0,0,0,.38-1.26v-24.1a1.84,1.84,0,0,0-.37-1.24,2.76,2.76,0,0,0-1.31-.71v-.74h26.62a2,2,0,0,0,1.28-.36,2.69,2.69,0,0,0,.7-1.32h.71v8.71h-.71a2.58,2.58,0,0,0-.7-1.32,2,2,0,0,0-1.28-.36H431.57v6.47h11.1a1.87,1.87,0,0,0,1.25-.37,2.83,2.83,0,0,0,.73-1.32h.71v8.5h-.71a2.75,2.75,0,0,0-.7-1.31,1.89,1.89,0,0,0-1.28-.37Z" transform="translate(9.11 10.54)"/><path class="exec-cls-5" d="M478.41,344.05l-10.74-19.38v16.67a1.91,1.91,0,0,0,.36,1.25,2.73,2.73,0,0,0,1.32.72v.74h-9.79v-.74a2.44,2.44,0,0,0,1.31-.68,1.9,1.9,0,0,0,.38-1.26v-24.1a1.87,1.87,0,0,0-.37-1.25,2.69,2.69,0,0,0-1.32-.7v-.74H472v.74a1.53,1.53,0,0,0-1.24,1.5,5.52,5.52,0,0,0,.9,2.63L479,332.78l7.4-13.14a7.18,7.18,0,0,0,1.26-3c0-.72-.43-1.18-1.29-1.37v-.74h12.14v.74a2.65,2.65,0,0,0-1.32.7,1.87,1.87,0,0,0-.37,1.25v24.07a1.89,1.89,0,0,0,.37,1.26,2.52,2.52,0,0,0,1.32.71V344H488.11v-.74a2.42,2.42,0,0,0,1.3-.68,1.91,1.91,0,0,0,.38-1.27V324.67Z" transform="translate(9.11 10.54)"/><path class="exec-cls-5" d="M533,328.21a12,12,0,0,1,3.21,2,6.88,6.88,0,0,1,1.92,5.11,7.71,7.71,0,0,1-3.26,6.65q-2.9,2.08-8,2.08h-21v-.74a2.42,2.42,0,0,0,1.3-.68,1.9,1.9,0,0,0,.38-1.26v-24.1a1.84,1.84,0,0,0-.37-1.24,2.76,2.76,0,0,0-1.31-.71v-.74h20.62q5.43,0,8,1.95a6.68,6.68,0,0,1,2.68,5.63,6,6,0,0,1-.93,3.45A9.3,9.3,0,0,1,533,328.21Zm-18.34-2.58h10.71a7.34,7.34,0,0,0,3.58-.64,2.86,2.86,0,0,0,0-4.42,7.16,7.16,0,0,0-3.59-.64H514.57Zm0,13.08h11q5.32,0,5.32-3.87c0-2.58-1.77-3.86-5.32-3.86h-11Z" transform="translate(9.11 10.54)"/><path class="exec-cls-5" d="M553.22,331.53v7.18H572a1.91,1.91,0,0,0,1.25-.36,2.65,2.65,0,0,0,.7-1.32h.74v8.7h-.74a2.6,2.6,0,0,0-.68-1.3,1.91,1.91,0,0,0-1.27-.38H544.48v-.74a2.35,2.35,0,0,0,1.3-.68,1.86,1.86,0,0,0,.39-1.26v-24.1a1.86,1.86,0,0,0-.37-1.24,2.94,2.94,0,0,0-1.32-.71v-.74h26.63a2,2,0,0,0,1.27-.36,2.69,2.69,0,0,0,.7-1.32h.71v8.71h-.71a2.58,2.58,0,0,0-.7-1.32,2,2,0,0,0-1.27-.36H553.22v6.47h11.1a1.87,1.87,0,0,0,1.25-.37,2.68,2.68,0,0,0,.72-1.32H567v8.5h-.71a2.65,2.65,0,0,0-.69-1.31,2,2,0,0,0-1.28-.37Z" transform="translate(9.11 10.54)"/><path class="exec-cls-5" d="M590,332v9.4a1.84,1.84,0,0,0,.37,1.24,2.68,2.68,0,0,0,1.32.72v.74H581.21v-.74a2.49,2.49,0,0,0,1.3-.68,1.9,1.9,0,0,0,.38-1.26V317.3a1.84,1.84,0,0,0-.37-1.24,2.76,2.76,0,0,0-1.31-.71v-.74h19.31a32.28,32.28,0,0,1,5.73.39,9.79,9.79,0,0,1,3.53,1.38c2.17,1.35,3.17,3.6,3.17,6.76a7.67,7.67,0,0,1-2,5.59q-2,2-6.33,2.9l5.58,7.77a17.1,17.1,0,0,0,2.44,2.93,4.19,4.19,0,0,0,2.06,1v.74H602.36v-.74c.91-.24,1.37-.63,1.37-1.18a3.75,3.75,0,0,0-.84-1.76L597,332Zm0-5.34h10.63a9.28,9.28,0,0,0,3.58-.53,2.74,2.74,0,0,0,1.63-2.81,2.86,2.86,0,0,0-1.15-2.61,8,8,0,0,0-4.06-.73H590Z" transform="translate(9.11 10.54)"/><path class="exec-cls-4" d="M41.54,328.29v9.84h23.1a1.75,1.75,0,0,0,1.21-.37,2.63,2.63,0,0,0,.68-1.31h.84v9.28h-.84a2.63,2.63,0,0,0-.68-1.31,1.75,1.75,0,0,0-1.21-.37H32v-.84a2.65,2.65,0,0,0,1.31-.69,1.81,1.81,0,0,0,.37-1.23V310.9a1.84,1.84,0,0,0-.37-1.24A2.71,2.71,0,0,0,32,309v-.84H64a1.76,1.76,0,0,0,1.21-.38,2.68,2.68,0,0,0,.68-1.3h.84v9.28H66a2.76,2.76,0,0,0-.68-1.31,1.75,1.75,0,0,0-1.21-.37H41.54v8.52H56.11a1.79,1.79,0,0,0,1.22-.37A2.71,2.71,0,0,0,58,320.9h.84V330H58a2.85,2.85,0,0,0-.68-1.31,1.8,1.8,0,0,0-1.22-.38Z" transform="translate(9.11 10.54)"/><path class="exec-cls-4" d="M93,328.68l8.78,11.66a9.61,9.61,0,0,0,2.1,2.17,5,5,0,0,0,2.21.83v.71H92.46v-.71c1.1-.25,1.66-.71,1.66-1.39a3.52,3.52,0,0,0-.87-1.69l-4.66-6.16-4.93,6.16a2.78,2.78,0,0,0-.71,1.61c0,.63.56,1.12,1.7,1.47v.71H72.11v-.71a5,5,0,0,0,2-.83,12.48,12.48,0,0,0,2-2.17L85,329.23l-7.8-10.33c-1.62-2.17-3-3.37-4.29-3.58v-.74H86.27v.74c-1.14.32-1.71.84-1.71,1.58a3.32,3.32,0,0,0,.81,1.76l3.87,5.14,3.82-4.8a4.55,4.55,0,0,0,1.08-2.13c0-.79-.58-1.3-1.74-1.55v-.74h12.83v.74a5,5,0,0,0-2.09.83,21.44,21.44,0,0,0-2.38,2.75Z" transform="translate(9.11 10.54)"/><path class="exec-cls-4" d="M120.22,331.53v7.18H139a1.91,1.91,0,0,0,1.25-.36,2.64,2.64,0,0,0,.69-1.32h.74v8.7h-.74a2.49,2.49,0,0,0-.68-1.3,1.9,1.9,0,0,0-1.26-.38H111.49v-.74a2.42,2.42,0,0,0,1.3-.68,1.9,1.9,0,0,0,.38-1.26v-24.1a1.84,1.84,0,0,0-.37-1.24,2.76,2.76,0,0,0-1.31-.71v-.74h26.62a2,2,0,0,0,1.28-.36,2.69,2.69,0,0,0,.7-1.32h.71v8.71h-.71a2.58,2.58,0,0,0-.7-1.32,2,2,0,0,0-1.28-.36H120.22v6.47h11.11a1.86,1.86,0,0,0,1.24-.37,2.83,2.83,0,0,0,.73-1.32H134v8.5h-.71a2.75,2.75,0,0,0-.7-1.31,1.92,1.92,0,0,0-1.27-.37Z" transform="translate(9.11 10.54)"/><path class="exec-cls-4" d="M177,333.47l4.45,6.5-.61.45a2,2,0,0,0-1-.45,6.25,6.25,0,0,0-2.08,1,29.77,29.77,0,0,1-6.36,2.92,22.82,22.82,0,0,1-6.37.81q-7.22,0-11.76-3.45a14.21,14.21,0,0,1-4.1-4.94,15.2,15.2,0,0,1-1.64-7,14.83,14.83,0,0,1,3-9.16q4.71-6.21,14.45-6.21a23,23,0,0,1,6.4.82,28.76,28.76,0,0,1,6.38,2.92,6.16,6.16,0,0,0,2.08,1,2,2,0,0,0,1-.44l.61.47L177,325.15l-.58-.41v-.4a1.93,1.93,0,0,0,0-.34q0-1.28-3.55-2.9a16.25,16.25,0,0,0-6.79-1.55,12.14,12.14,0,0,0-7.89,2.52,9.24,9.24,0,0,0,0,14.56,12.25,12.25,0,0,0,7.89,2.49,16.53,16.53,0,0,0,7.45-1.86c1.93-1,2.89-1.84,2.89-2.58a4.79,4.79,0,0,0-.08-.74Z" transform="translate(9.11 10.54)"/><path class="exec-cls-4" d="M218.82,317.27v15.6q0,5.34-2.1,7.84-3.39,4-12.79,4a23,23,0,0,1-10.15-1.92,7.54,7.54,0,0,1-3.82-4,16.15,16.15,0,0,1-.94-5.92v-15.6a1.86,1.86,0,0,0-.37-1.24,2.94,2.94,0,0,0-1.32-.71v-.74h10.42v.74a2.58,2.58,0,0,0-1.32.7,1.91,1.91,0,0,0-.36,1.25v14.18a12.73,12.73,0,0,0,.43,3.79,4.42,4.42,0,0,0,1.51,2.15,12.22,12.22,0,0,0,12.47,0,4.43,4.43,0,0,0,1.48-2.15,13.09,13.09,0,0,0,.42-3.79V317.27A1.9,1.9,0,0,0,212,316a2.74,2.74,0,0,0-1.33-.71v-.74h9.82v.74a2.69,2.69,0,0,0-1.32.7A1.87,1.87,0,0,0,218.82,317.27Z" transform="translate(9.11 10.54)"/><path class="exec-cls-4" d="M243.52,320v21.41a1.87,1.87,0,0,0,.37,1.25,2.73,2.73,0,0,0,1.32.72v.74H234.79v-.74a2.42,2.42,0,0,0,1.3-.68,1.85,1.85,0,0,0,.38-1.26V320h-8.68a1.92,1.92,0,0,0-1.27.37,2.66,2.66,0,0,0-.7,1.31h-.71V313h.71a2.51,2.51,0,0,0,.67,1.3,1.85,1.85,0,0,0,1.28.38H252.2a2,2,0,0,0,1.28-.36,2.69,2.69,0,0,0,.7-1.32h.71v8.71h-.71a2.75,2.75,0,0,0-.7-1.31,1.92,1.92,0,0,0-1.27-.37Z" transform="translate(9.11 10.54)"/><path class="exec-cls-4" d="M268.8,317.27v24.07a1.87,1.87,0,0,0,.37,1.25,2.73,2.73,0,0,0,1.32.72v.74H260.07v-.74a2.42,2.42,0,0,0,1.3-.68,1.85,1.85,0,0,0,.38-1.26v-24.1a1.9,1.9,0,0,0-.36-1.24,2.94,2.94,0,0,0-1.32-.71v-.74h10.42v.74a2.69,2.69,0,0,0-1.32.7A1.87,1.87,0,0,0,268.8,317.27Z" transform="translate(9.11 10.54)"/><path class="exec-cls-4" d="M293.52,334.72l7.15-15.58a5.44,5.44,0,0,0,.63-2c0-.88-.57-1.49-1.71-1.82v-.74H311v.74a3.77,3.77,0,0,0-1.53.84,9.06,9.06,0,0,0-1.21,2.06L298,339.92a4.53,4.53,0,0,0-.55,1.76c0,.88.58,1.43,1.74,1.66v.71H287.55v-.71c1.14-.23,1.71-.78,1.71-1.66a4.53,4.53,0,0,0-.55-1.76l-10.32-21.7a9.09,9.09,0,0,0-1.2-2.07,3.67,3.67,0,0,0-1.54-.83v-.74h11.8v.74c-1.12.35-1.68,1-1.68,1.82a5.89,5.89,0,0,0,.66,2Z" transform="translate(9.11 10.54)"/><path class="exec-cls-4" d="M325,331.53v7.18h18.71a1.91,1.91,0,0,0,1.25-.36,2.65,2.65,0,0,0,.7-1.32h.73v8.7h-.73a2.62,2.62,0,0,0-.69-1.3,1.9,1.9,0,0,0-1.26-.38H316.27v-.74a2.42,2.42,0,0,0,1.3-.68,1.85,1.85,0,0,0,.38-1.26v-24.1a1.84,1.84,0,0,0-.37-1.24,2.76,2.76,0,0,0-1.31-.71v-.74h26.62a2,2,0,0,0,1.28-.36,2.69,2.69,0,0,0,.7-1.32h.71v8.71h-.71a2.58,2.58,0,0,0-.7-1.32,2,2,0,0,0-1.28-.36H325v6.47h11.11a1.86,1.86,0,0,0,1.24-.37,2.83,2.83,0,0,0,.73-1.32h.71v8.5h-.71a2.75,2.75,0,0,0-.7-1.31,1.92,1.92,0,0,0-1.27-.37Z" transform="translate(9.11 10.54)"/><path class="exec-cls-4" d="M391.39,344.05l-13.25-24.81v22.05a1.81,1.81,0,0,0,.37,1.23,2.64,2.64,0,0,0,1.32.69v.84H369.28v-.84a2.65,2.65,0,0,0,1.31-.69,1.81,1.81,0,0,0,.37-1.23V310.88a1.79,1.79,0,0,0-.37-1.22,2.71,2.71,0,0,0-1.31-.68v-.84h13.84V309a1.41,1.41,0,0,0-1.24,1.45,2.59,2.59,0,0,0,.37,1.21l9.8,18.56L402,312a4.28,4.28,0,0,0,.66-1.76c0-.72-.44-1.12-1.31-1.21v-.84H415V309a2.79,2.79,0,0,0-1.32.68,1.79,1.79,0,0,0-.37,1.22v30.41a1.81,1.81,0,0,0,.37,1.23,2.64,2.64,0,0,0,1.32.69v.84H403.69v-.84a2.51,2.51,0,0,0,1.3-.67,1.88,1.88,0,0,0,.38-1.25V319.24Z" transform="translate(9.11 10.54)"/><path class="exec-cls-4" d="M431.57,331.53v7.18h18.71a1.91,1.91,0,0,0,1.25-.36,2.64,2.64,0,0,0,.69-1.32H453v8.7h-.74a2.49,2.49,0,0,0-.68-1.3,1.9,1.9,0,0,0-1.26-.38H422.84v-.74a2.42,2.42,0,0,0,1.3-.68,1.9,1.9,0,0,0,.38-1.26v-24.1a1.84,1.84,0,0,0-.37-1.24,2.76,2.76,0,0,0-1.31-.71v-.74h26.62a2,2,0,0,0,1.28-.36,2.69,2.69,0,0,0,.7-1.32h.71v8.71h-.71a2.58,2.58,0,0,0-.7-1.32,2,2,0,0,0-1.28-.36H431.57v6.47h11.1a1.87,1.87,0,0,0,1.25-.37,2.83,2.83,0,0,0,.73-1.32h.71v8.5h-.71a2.75,2.75,0,0,0-.7-1.31,1.89,1.89,0,0,0-1.28-.37Z" transform="translate(9.11 10.54)"/><path class="exec-cls-4" d="M478.41,344.05l-10.74-19.38v16.67a1.91,1.91,0,0,0,.36,1.25,2.73,2.73,0,0,0,1.32.72v.74h-9.79v-.74a2.44,2.44,0,0,0,1.31-.68,1.9,1.9,0,0,0,.38-1.26v-24.1a1.87,1.87,0,0,0-.37-1.25,2.69,2.69,0,0,0-1.32-.7v-.74H472v.74a1.53,1.53,0,0,0-1.24,1.5,5.52,5.52,0,0,0,.9,2.63L479,332.78l7.4-13.14a7.18,7.18,0,0,0,1.26-3c0-.72-.43-1.18-1.29-1.37v-.74h12.14v.74a2.65,2.65,0,0,0-1.32.7,1.87,1.87,0,0,0-.37,1.25v24.07a1.89,1.89,0,0,0,.37,1.26,2.52,2.52,0,0,0,1.32.71V344H488.11v-.74a2.42,2.42,0,0,0,1.3-.68,1.91,1.91,0,0,0,.38-1.27V324.67Z" transform="translate(9.11 10.54)"/><path class="exec-cls-4" d="M533,328.21a12,12,0,0,1,3.21,2,6.88,6.88,0,0,1,1.92,5.11,7.71,7.71,0,0,1-3.26,6.65q-2.9,2.08-8,2.08h-21v-.74a2.42,2.42,0,0,0,1.3-.68,1.9,1.9,0,0,0,.38-1.26v-24.1a1.84,1.84,0,0,0-.37-1.24,2.76,2.76,0,0,0-1.31-.71v-.74h20.62q5.43,0,8,1.95a6.68,6.68,0,0,1,2.68,5.63,6,6,0,0,1-.93,3.45A9.3,9.3,0,0,1,533,328.21Zm-18.34-2.58h10.71a7.34,7.34,0,0,0,3.58-.64,2.86,2.86,0,0,0,0-4.42,7.16,7.16,0,0,0-3.59-.64H514.57Zm0,13.08h11q5.32,0,5.32-3.87c0-2.58-1.77-3.86-5.32-3.86h-11Z" transform="translate(9.11 10.54)"/><path class="exec-cls-4" d="M553.22,331.53v7.18H572a1.91,1.91,0,0,0,1.25-.36,2.65,2.65,0,0,0,.7-1.32h.74v8.7h-.74a2.6,2.6,0,0,0-.68-1.3,1.91,1.91,0,0,0-1.27-.38H544.48v-.74a2.35,2.35,0,0,0,1.3-.68,1.86,1.86,0,0,0,.39-1.26v-24.1a1.86,1.86,0,0,0-.37-1.24,2.94,2.94,0,0,0-1.32-.71v-.74h26.63a2,2,0,0,0,1.27-.36,2.69,2.69,0,0,0,.7-1.32h.71v8.71h-.71a2.58,2.58,0,0,0-.7-1.32,2,2,0,0,0-1.27-.36H553.22v6.47h11.1a1.87,1.87,0,0,0,1.25-.37,2.68,2.68,0,0,0,.72-1.32H567v8.5h-.71a2.65,2.65,0,0,0-.69-1.31,2,2,0,0,0-1.28-.37Z" transform="translate(9.11 10.54)"/><path class="exec-cls-4" d="M590,332v9.4a1.84,1.84,0,0,0,.37,1.24,2.68,2.68,0,0,0,1.32.72v.74H581.21v-.74a2.49,2.49,0,0,0,1.3-.68,1.9,1.9,0,0,0,.38-1.26V317.3a1.84,1.84,0,0,0-.37-1.24,2.76,2.76,0,0,0-1.31-.71v-.74h19.31a32.28,32.28,0,0,1,5.73.39,9.79,9.79,0,0,1,3.53,1.38c2.17,1.35,3.17,3.6,3.17,6.76a7.67,7.67,0,0,1-2,5.59q-2,2-6.33,2.9l5.58,7.77a17.1,17.1,0,0,0,2.44,2.93,4.19,4.19,0,0,0,2.06,1v.74H602.36v-.74c.91-.24,1.37-.63,1.37-1.18a3.75,3.75,0,0,0-.84-1.76L597,332Zm0-5.34h10.63a9.28,9.28,0,0,0,3.58-.53,2.74,2.74,0,0,0,1.63-2.81,2.86,2.86,0,0,0-1.15-2.61,8,8,0,0,0-4.06-.73H590Z" transform="translate(9.11 10.54)"/><rect class="exec-cls-4" x="1.5" y="263.88" width="656.64" height="14.13"/><path class="exec-cls-6" d="M649,253.34v14.13H-7.61V253.34H649m1.5-1.5H-9.11V269H650.52Z" transform="translate(9.11 10.54)"/><path class="exec-cls-7" d="M556.08,121.12C548,111.32,533.73,105.7,517,105.7c-17.73,0-33.73,6-44.79,15.76,1-6.11,1.79-11.23,1.79-11.23l-4.8-1.43a77,77,0,0,0-21.81-3.1,64.39,64.39,0,0,0-35.06,10.45l2.84-9.34H338.27l-.91,3a60.3,60.3,0,0,0-22.81-4.1c-15.81,0-32.94,6.12-41.84,17.92-.58-.85-1.2-1.69-1.87-2.5-8.08-9.8-22.35-15.42-39.13-15.42-17.21,0-32.8,5.66-43.82,14.94,1.9-11.55,4.29-26,4.29-26l-4.88-1.41a97.63,97.63,0,0,0-26.76-3.68c-33.67,0-64.33,21.4-69.78,48.73A37.51,37.51,0,0,0,98.38,170c6.17,7.52,15.28,12.88,26.11,15.62H91.12v42.68h170l.26-.52v.52h20.46l2.78-4.52-.86,4.52H330l.67-3.54c4.06,2.63,9.35,4,15.42,4A35.46,35.46,0,0,0,361,225.62l-.5,2.62h64.86l.1-.56a42.48,42.48,0,0,0,9.19,1.06,32,32,0,0,0,5.61-.5H465l1.84-3.89h1.64c.18,1.32.51,3.89.51,3.89H545.2l3.79-20H547.6l.52-2.74h1l3.79-20h-2a10.56,10.56,0,0,0,3.35-5.83,9.13,9.13,0,0,0-1.92-7.54,10.22,10.22,0,0,0-1.5-1.44,43.55,43.55,0,0,0,11.85-22.2C564.58,138.18,562.33,128.7,556.08,121.12ZM512.52,140c3.14,0,5.55.83,6.8,2.34a5.26,5.26,0,0,1,.86,4.41c-1,5.15-6.29,8.74-12.87,8.74-3.2,0-5.73-.84-6.94-2.32a4.92,4.92,0,0,1-.75-4.25C500.48,144.49,505.19,140,512.52,140Zm-55.15,6.38c-.24,1.24-.41,2.46-.53,3.67-5.14,3.45-10,5.07-15.12,5.07-3.49,0-6.51-1.13-8.09-3a4.28,4.28,0,0,1-.92-3.7c.92-4.76,7.37-8.93,13.8-8.93a18.3,18.3,0,0,1,11.48,4.3c-.23.84-.44,1.72-.62,2.61Zm5.22,39.18-2.52,4.14L458,188.53a25.78,25.78,0,0,0-4.3-1.9,25.8,25.8,0,0,0,3-.88l2.92-1.06,2.87-12.56q.57.8,1.2,1.56c4.34,5.26,10.6,9.29,18.15,11.87h-19.2Zm25.46,1.75-1,5.25-1.39-5.83a23.86,23.86,0,0,0,2.39.6Zm-143-46.84L341.23,153a18.42,18.42,0,0,0-3.12-9.12,18.92,18.92,0,0,0-2.64-3.08ZM235,146.8c-1,5.15-6.28,8.74-12.86,8.74-3.2,0-5.73-.84-7-2.32a4.26,4.26,0,0,1-.89-2.77,7.36,7.36,0,0,1,.15-1.48c.86-4.43,5.56-8.92,12.9-8.92,3.13,0,5.55.83,6.79,2.34a5.25,5.25,0,0,1,.86,4.36ZM335.8,171l-4.41,14.55h-17C323,182.69,330.83,177.89,335.8,171ZM173,143.08c-6.56,4.19-12.75,6.16-19.4,6.16-4.89,0-9.12-1.61-11.32-4.29a6,6,0,0,1-1.31-5.26c1.28-6.39,9.8-11.79,18.61-11.79,5.94,0,11.45,2.22,16.82,6.77A41.16,41.16,0,0,0,173,143.08Zm81.31,36.43,5.53,2.49a69.55,69.55,0,0,0,10,3.56H259.5s-.64,1.29-1.11,2.22c-.06-1.08-.14-2.22-.14-2.22H240.43a64.41,64.41,0,0,0,13.82-6.05Zm135.49,27.27c1.2-6.28,4-21.22,4-21.22H374.2c2.59-8.52,11.9-39.19,13.73-45.22l4.12.16a38.76,38.76,0,0,0-1.78,6.34A32.54,32.54,0,0,0,397,174.26a38.41,38.41,0,0,0,16.32,11.3H396.13l-4,21.22Zm119.86,0c.88-4.63,2.66-14,3.53-18.55.81-.1,1.61-.21,2.41-.34L512,206.78Zm16.06-21.22a68.9,68.9,0,0,0,7.28-2.68,9,9,0,0,0,1.37,2.28c.11.14.25.27.37.4Zm-354-1.59,3-1,2.56-10.89c.41.56.82,1.12,1.27,1.65C182.79,179,189,183,196.6,185.6H165.4a43.59,43.59,0,0,0,6.26-1.62Z" transform="translate(9.11 10.54)"/><path class="exec-cls-8" d="M252.89,191.28l1.18,18.7h.3a38.36,38.36,0,0,1,2.24-5.76L263,191.33h10.44L275.06,210h.3a41.82,41.82,0,0,1,2-5.52l6.28-13.13h14.18l-19.17,31.25h-11.9l-1.05-17h-.45a28.28,28.28,0,0,1-1.59,4.73l-6.11,12.27H246l-7.19-31.25Z" transform="translate(9.11 10.54)"/><path class="exec-cls-8" d="M296.81,191.28H310l-2,10.52h8.36l2-10.52h13.13l-5.94,31.25H312.36l2.06-10.86h-8.35L304,222.53H290.87Z" transform="translate(9.11 10.54)"/><path class="exec-cls-8" d="M369.89,207c-1.91,10-12.35,16-23.79,16s-19.6-6-17.7-16c1.87-9.82,12.43-16.2,23.83-16.2S371.76,197.16,369.89,207Zm-27.79.17c-.68,3.56,1.74,6,5.87,6s7.48-2.45,8.16-6c.63-3.31-1.53-6.09-5.86-6.09S342.73,203.84,342.1,207.15Z" transform="translate(9.11 10.54)"/><path class="exec-cls-8" d="M372.88,191.28h13.63l-4,21.22H394l-1.9,10H367Z" transform="translate(9.11 10.54)"/><path class="exec-cls-8" d="M426.16,211.34l.61.45a13.44,13.44,0,0,0,8,2.86c1.34,0,3.57-.45,3.84-1.87s-1.5-1.53-2.71-1.74l-2.65-.41c-5.18-.79-9.16-3.4-8.23-8.29,1.41-7.42,10.31-11.56,18.46-11.56a22.88,22.88,0,0,1,11.37,2.73l-5.2,8a13.81,13.81,0,0,0-7.46-2.36c-1.19,0-3,.37-3.25,1.66s1.44,1.32,2.45,1.53l3,.58c5.57,1.08,9.26,3.65,8.25,9-1.49,7.46-10.35,11.11-18.46,11.11a35.26,35.26,0,0,1-13.88-2.86Z" transform="translate(9.11 10.54)"/><path class="exec-cls-8" d="M473,211.21l-.55-5.51a35.64,35.64,0,0,1-.13-4h-.5l-4.3,9.53Zm-11.87,11.32H446.69l19-31.25h15.08l7.44,31.25H473.75l-.5-3.9H463Z" transform="translate(9.11 10.54)"/><path class="exec-cls-8" d="M493,191.28h13.63l-4,21.22H514l-1.9,10H487Z" transform="translate(9.11 10.54)"/><path class="exec-cls-8" d="M520.58,191.28H545.8l-1.62,8.53H532.69l-.57,3h10.5L541.07,211H530.58l-.63,3h11.89l-1.62,8.54H514.64Z" transform="translate(9.11 10.54)"/><path class="exec-cls-9" d="M335.65,135.11l17.21-.64L338.43,182H369.3l14.44-47.57,16.82.64,6.85-22.59h-64.9Z" transform="translate(9.11 10.54)"/><path class="exec-cls-9" d="M271.72,147.47c-4.31,22.31-28,35.68-53.89,35.68s-44.4-13.37-40.08-35.68c4.23-21.86,28.16-36.06,54-36.06S276,125.61,271.72,147.47Zm-62.94.37c-1.54,7.93,3.95,13.37,13.3,13.37s16.94-5.44,18.47-13.37c1.43-7.38-3.46-13.56-13.26-13.56s-17.08,6.18-18.51,13.56Z" transform="translate(9.11 10.54)"/><path class="exec-cls-9" d="M262.13,176.79c8.81,4,20.74,6.36,31.44,6.36,18.37,0,38.44-8.2,41.65-24.8,2.28-11.81-6.08-17.52-18.68-19.92l-6.74-1.29c-2.28-.46-6-.83-5.54-3.41.56-2.86,4.66-3.69,7.36-3.69a31.32,31.32,0,0,1,16.9,5.26l11.79-17.8c-7.54-4.15-16.07-6.09-25.76-6.09-18.48,0-38.63,9.22-41.82,25.73-2.11,10.88,6.91,16.69,18.63,18.44l6,.92c2.73.46,6.73.74,6.12,3.88s-5.65,4.15-8.69,4.15a30.6,30.6,0,0,1-18-6.37l-1.38-1Z" transform="translate(9.11 10.54)"/><path class="exec-cls-9" d="M467.52,114.27a71.78,71.78,0,0,0-20.18-2.86c-24.91,0-47.54,16.23-51.46,36.52C392,167.75,408,183.15,432.22,183.15c5.52,0,17.17-.83,22.51-2.77l5.93-26c-5.73,4-11.84,6.46-18.94,6.46-9.24,0-16.1-5.9-14.62-13.56s10.17-13.55,19.41-13.55c7,0,12.56,3.23,16.79,7Z" transform="translate(9.11 10.54)"/><path class="exec-cls-9" d="M517,111.41c-25.81,0-49.74,14.2-54,36.06-4.31,22.31,14.17,35.68,40.09,35.68s49.6-13.37,53.91-35.68C561.19,125.61,542.75,111.41,517,111.41Zm-4.43,22.87c9.81,0,14.69,6.18,13.27,13.56-1.54,7.93-9.12,13.37-18.48,13.37s-14.83-5.44-13.3-13.37C495.44,140.46,502.72,134.28,512.52,134.28Z" transform="translate(9.11 10.54)"/><path class="exec-cls-9" d="M185.71,98.67a91.93,91.93,0,0,0-25.17-3.46c-31,0-59.28,19.62-64.18,44.14-4.78,24,15.12,42.58,45.33,42.58,6.89,0,21.42-1,28.07-3.35l7.4-31.43c-7.14,4.79-14.77,7.8-23.62,7.8-11.53,0-20.08-7.13-18.23-16.38s12.68-16.38,24.21-16.38c8.71,0,15.66,3.89,20.93,8.47Z" transform="translate(9.11 10.54)"/><path class="exec-cls-9" d="M538,178.67c.46-2.43,3.16-4.39,6.11-4.39s4.9,2,4.44,4.39-3.18,4.4-6.11,4.4S537.5,181.11,538,178.67Zm9.18,0c.37-2-1-3.24-3.29-3.24s-4.15,1.28-4.52,3.24,1,3.25,3.29,3.25a4.36,4.36,0,0,0,4.54-3.25ZM545.26,181H544l-.86-1.95h-.89l-.37,1.95h-1.16l.88-4.6h2.67c1.17,0,1.81.33,1.61,1.41a1.52,1.52,0,0,1-1.48,1.24Zm-1.69-2.82c.58,0,1.08,0,1.18-.5s-.42-.4-1-.4H542.5l-.17.9Z" transform="translate(9.11 10.54)"/><polygon class="exec-cls-8" points="107.63 233.12 252.14 233.12 252.13 233.07 252.01 233.07 250.18 225.12 107.63 225.12 107.63 233.12"/><polygon class="exec-cls-8" points="107.63 221.76 249.41 221.76 247.57 213.76 107.63 213.76 107.63 221.76"/><polygon class="exec-cls-8" points="107.63 210.35 246.74 210.35 246.11 207.43 244.83 201.88 107.63 201.88 107.63 210.35"/><path class="exec-cls-8" d="M400.48,191.28H425.7l-1.62,8.53H412.59l-.57,3h10.5L421,210.92H410.48l-.59,3.07h11.89l-1.62,8.54H394.54Z" transform="translate(9.11 10.54)"/></g></g></g></svg>