<svg width="111" height="32" viewBox="0 0 111 32" fill="none" xmlns="http://www.w3.org/2000/svg">
<path d="M109.713 21.3742C110.735 20.516 111.307 18.7586 109.918 17.5734C108.733 16.5517 107.057 17.0013 107.057 17.0013C107.221 16.7561 107.343 16.5517 107.466 16.3065C107.915 15.4483 108.242 14.5492 108.447 13.5683C108.896 11.198 108.406 9.03193 106.975 7.27458C105.136 5.02682 101.826 3.71903 97.9842 3.71903C93.8974 3.71903 90.2601 5.10856 87.6854 7.35632C87.8897 5.96679 88.0941 4.78161 88.0941 4.78161L86.9906 4.45466C85.4376 4.00511 83.7212 3.7599 81.9638 3.7599C79.0213 3.7599 76.2014 4.659 73.9127 6.17114L74.5666 4.00511H72.8093H56.9523L56.748 4.69987C55.195 4.08685 53.4376 3.7599 51.5168 3.7599C47.8795 3.7599 43.9562 5.14942 41.9127 7.88761C41.7901 7.68327 41.6266 7.51979 41.504 7.31545C39.6241 5.02682 36.3546 3.71903 32.513 3.71903C28.5487 3.71903 24.9932 5.02682 22.4593 7.15198C22.9089 4.49553 23.4402 1.18519 23.4402 1.18519L22.3367 0.858237C20.4159 0.286079 18.2908 0 16.1656 0C8.44146 0 1.41209 4.90421 0.186038 11.198C-0.345252 13.8544 0.267775 16.47 1.94338 18.4725C3.37378 20.189 5.45807 21.4151 7.95104 22.069H0.267775V31.8774H39.2563C39.2563 31.8774 39.2971 31.7957 39.2971 31.7548C39.2971 31.7957 39.2971 31.8774 39.2971 31.8774H43.997L44.6509 30.8557L44.4466 31.8774H55.0724L55.2358 31.06C56.1758 31.673 57.4019 32 58.7914 32C60.0175 32 61.2026 31.7548 62.1835 31.2644L62.0609 31.8774H68.3955H70.4798H76.937L76.9779 31.7548C77.6726 31.9183 78.4083 32 79.103 32C79.5117 32 79.9613 31.9591 80.4108 31.8774H86.0915C86.0915 31.8774 86.5002 31.0192 86.5002 30.9783C86.6637 30.9783 86.7046 30.9783 86.868 30.9783C86.9089 31.2644 86.9906 31.8774 86.9906 31.8774H89.6062H93.1209H95.9408H98.0251H104.482L105.341 27.3001C105.341 27.3001 105.136 27.3001 105.014 27.3001C105.054 26.9732 105.095 26.8914 105.136 26.6871C105.218 26.6871 105.341 26.8097 105.341 26.8097L106.199 22.3142C107.425 22.6003 108.814 22.1507 109.713 21.3742ZM96.9625 11.6066C97.6982 11.6066 98.2295 11.811 98.5155 12.1379C98.7607 12.4649 98.7607 12.8736 98.7199 13.1596C98.4747 14.3448 97.2895 15.1622 95.7773 15.1622C95.0417 15.1622 94.4696 14.9579 94.1835 14.6309C93.9791 14.3857 93.9383 14.0587 94.02 13.6501C94.1835 12.6284 95.2869 11.6066 96.9625 11.6066ZM84.2933 13.037C84.2524 13.3231 84.2116 13.6092 84.1707 13.8953C82.9855 14.6718 81.8821 15.0396 80.6969 15.0396C79.8795 15.0396 79.1848 14.7944 78.8578 14.3448C78.6535 14.0996 78.5717 13.8135 78.6535 13.4866C78.8578 12.3831 80.3291 11.4432 81.8412 11.4432C82.7812 11.4432 83.6394 11.7701 84.4568 12.424C84.3751 12.6692 84.3342 12.8327 84.2933 13.037ZM85.5194 22.0281L84.9472 22.9681L84.4568 22.682C84.1298 22.5185 83.8029 22.355 83.4759 22.2324C83.7212 22.1916 83.9664 22.1098 84.1707 22.0281L84.8246 21.7829C84.8246 21.7829 85.1107 20.4342 85.4785 18.8812C85.5602 19.0038 85.642 19.1264 85.7646 19.249C86.7454 20.4751 88.2167 21.3742 89.9332 21.9872H89.7288H85.5194V22.0281ZM91.3636 22.4368L91.1183 23.622L90.7914 22.2733C90.9957 22.355 91.1592 22.3959 91.3636 22.4368ZM58.5462 11.6884C58.3418 12.3423 58.0149 13.364 57.688 14.59C57.6471 13.8135 57.4019 13.1188 56.9523 12.5057C56.7888 12.2605 56.5845 12.0153 56.3393 11.811C57.1567 11.7701 58.0558 11.7292 58.5462 11.6884ZM33.2486 13.1596C33.0034 14.3448 31.8182 15.1622 30.3061 15.1622C29.5705 15.1622 28.9983 14.9579 28.7122 14.6309C28.5896 14.4674 28.5079 14.2631 28.5079 13.977C28.5079 13.8544 28.5079 13.7727 28.5487 13.6501C28.7531 12.6284 29.8157 11.6066 31.4913 11.6066C32.2269 11.6066 32.7582 11.811 33.0443 12.1379C33.3304 12.4649 33.3304 12.8736 33.2486 13.1596ZM56.421 18.7178C55.9715 20.1481 55.6037 21.3742 55.3993 22.069H55.3585H51.4759C53.4785 21.3742 55.2767 20.2708 56.421 18.7178ZM19.0264 12.3014C17.5143 13.2822 16.0839 13.7318 14.5717 13.7318C13.4683 13.7318 12.4874 13.364 11.9562 12.751C11.6701 12.3831 11.5475 12.0153 11.6701 11.5249C11.9562 10.0536 13.9178 8.82759 15.9204 8.82759C17.2691 8.82759 18.536 9.31801 19.762 10.3806C19.4759 10.9936 19.2307 11.6066 19.0264 12.3014ZM37.7033 20.6386L38.9702 21.2107C39.665 21.5377 40.4415 21.7829 41.2588 22.0281H38.8885C38.8885 22.0281 38.725 22.3142 38.6433 22.5185C38.6433 22.2733 38.6024 22.0281 38.6024 22.0281H34.5155C35.6599 21.7011 36.7224 21.2107 37.7033 20.6386ZM68.8042 26.9323C69.0902 25.5019 69.7441 22.069 69.7441 22.069H68.1503H65.2486C65.8616 20.1073 67.9868 13.0779 68.3955 11.6884C68.6407 11.6884 68.9676 11.7292 69.3355 11.7292C69.172 12.2197 69.0085 12.6692 68.9268 13.2005C68.4772 15.53 69.0085 17.7369 70.4798 19.4943C71.4198 20.6386 72.7275 21.4968 74.2397 22.069H70.3163L69.3763 26.9323C69.0902 26.9323 68.8859 26.9323 68.8042 26.9323ZM96.3086 26.9323C96.513 25.8697 96.9217 23.7446 97.126 22.682C97.3304 22.6411 97.4938 22.6411 97.6982 22.6003L96.8808 26.9323C96.5947 26.9323 96.3904 26.9323 96.3086 26.9323ZM101.376 21.5377C101.867 21.4151 104.36 20.4342 104.36 20.4342C104.605 21.5377 105.463 21.9464 105.668 22.069H99.9868C100.436 21.9055 100.927 21.742 101.376 21.5377ZM18.7403 21.7011L19.4351 21.4559C19.4351 21.4559 19.6803 20.3934 20.0072 18.963C20.089 19.0856 20.2116 19.2082 20.2933 19.3308C21.2742 20.5568 22.7454 21.4559 24.4619 22.069H17.3099C17.8412 21.9464 18.3316 21.8238 18.7403 21.7011Z" fill="white"/>
<path d="M37.3764 23.3767L37.6625 27.6679H37.7442C37.8668 27.2183 38.0303 26.7688 38.2755 26.3601L39.7467 23.4176H42.158L42.5258 27.7088H42.6075C42.7301 27.3001 42.8527 26.8505 43.0571 26.4418L44.4875 23.4176H47.757L43.3023 30.5287H40.5641L40.3189 26.6462H40.1963C40.0737 27.014 39.992 27.3818 39.8285 27.7496L38.439 30.5696H35.7825L34.1478 23.4176H37.3764V23.3767Z" fill="#0060A9"/>
<path d="M47.471 23.3767H50.4953L50.0457 25.7879H51.9666L52.4161 23.3767H55.4404L54.0917 30.5287H51.0675L51.5579 28.0357H49.6371L49.1466 30.5287H46.1224L47.471 23.3767Z" fill="#0060A9"/>
<path d="M64.2269 26.9732C63.7774 29.2618 61.407 30.6513 58.7506 30.6513C56.135 30.6513 54.255 29.2618 54.7046 26.9732C55.1133 24.7254 57.5654 23.2542 60.181 23.2542C62.7965 23.2542 64.6765 24.7254 64.2269 26.9732ZM57.8515 27.014C57.688 27.8314 58.2601 28.4036 59.2001 28.4036C60.1401 28.4036 60.9166 27.8314 61.0801 27.014C61.2435 26.2375 60.7122 25.6245 59.7314 25.6245C58.7506 25.5837 58.0149 26.2375 57.8515 27.014Z" fill="#0060A9"/>
<path d="M64.9217 23.3767H68.0686L67.1286 28.2401H69.7442L69.2946 30.5287H63.5322L64.9217 23.3767Z" fill="#0060A9"/>
<path d="M77.1417 27.954L77.2643 28.0766C77.7547 28.4444 78.3677 28.7305 79.1034 28.7305C79.4303 28.7305 79.9207 28.6079 80.0025 28.3218C80.0433 27.9949 79.6755 27.954 79.3894 27.9132L78.7764 27.8314C77.5912 27.6679 76.6921 27.0549 76.8965 25.9106C77.2234 24.1941 79.2668 23.2542 81.1468 23.2542C82.1276 23.2542 82.9859 23.4585 83.7624 23.8672L82.5772 25.7063C82.0868 25.4202 81.5555 25.175 80.8607 25.175C80.5746 25.175 80.1659 25.2567 80.1251 25.5428C80.0842 25.8289 80.452 25.8289 80.6972 25.9106L81.392 26.0332C82.6589 26.2784 83.5172 26.8506 83.2719 28.0766C82.945 29.7931 80.9016 30.6513 79.0625 30.6513C77.959 30.6513 76.7739 30.4061 75.8748 29.9974L77.1417 27.954Z" fill="#0060A9"/>
<path d="M87.8897 27.954L87.7671 26.6871C87.7262 26.401 87.7262 26.074 87.7262 25.7471H87.6036L86.6227 27.954H87.8897ZM85.1515 30.5287H81.8411L86.214 23.3767H89.6879L91.4043 30.5287H88.094L87.9714 29.6296H85.601L85.1515 30.5287Z" fill="#0060A9"/>
<path d="M92.4671 23.3767H95.614L94.674 28.2401H97.2896L96.8401 30.5287H91.1185L92.4671 23.3767Z" fill="#0060A9"/>
<path d="M98.8015 23.3767H104.605L104.237 25.3384H101.581L101.458 26.0332H103.869L103.501 27.9131H101.09L100.968 28.6079H103.706L103.338 30.5696H97.4529L98.8015 23.3767Z" fill="#0060A9"/>
<path d="M56.3802 10.4624L60.3444 10.2989L56.9932 21.2517H64.0635L67.3738 10.3398L71.2154 10.5033L72.7684 5.31299H57.8923L56.3802 10.4624Z" fill="#E31837"/>
<path d="M41.7082 13.3232C40.7274 18.4317 35.2919 21.4969 29.3251 21.4969C23.3583 21.4969 19.1488 18.4317 20.1297 13.3232C21.1105 8.29637 26.5869 5.06776 32.5128 5.06776C38.4387 5.02689 42.6891 8.29637 41.7082 13.3232ZM27.2408 13.4049C26.873 15.244 28.1399 16.4701 30.3059 16.4701C32.4719 16.4701 34.1884 15.2031 34.5562 13.4049C34.8832 11.7293 33.7797 10.2989 31.532 10.2989C29.2433 10.2581 27.5677 11.6885 27.2408 13.4049Z" fill="#E31837"/>
<path d="M39.5017 20.0255C41.5043 20.9246 44.2425 21.4967 46.7354 21.4967C50.9449 21.4967 55.563 19.6168 56.2986 15.816C56.8299 13.1187 54.9091 11.8109 52.0075 11.2388L50.4545 10.9527C49.9232 10.8301 49.0649 10.7483 49.1875 10.1762C49.3101 9.52229 50.2501 9.31795 50.8631 9.31795C52.3753 9.31795 53.6422 9.84924 54.7456 10.544L57.443 6.45715C55.7265 5.51718 53.7648 5.06763 51.517 5.06763C47.2667 5.06763 42.6486 7.19279 41.9129 10.9527C41.4225 13.4457 43.5068 14.7943 46.2041 15.203L47.5937 15.4073C48.2067 15.53 49.1467 15.5708 48.9832 16.3065C48.8606 17.0421 47.6754 17.2464 46.9806 17.2464C45.3459 17.2464 43.9564 16.5925 42.8529 15.7752L42.526 15.53L39.5017 20.0255Z" fill="#E31837"/>
<path d="M86.623 5.68075C85.1926 5.27207 83.5987 5.02686 82.0048 5.02686C76.2832 5.02686 71.093 8.74588 70.1938 13.4049C69.2947 17.9413 72.9729 21.4968 78.531 21.4968C79.7979 21.4968 82.4544 21.2925 83.6804 20.8429L85.0291 14.8762C83.7213 15.7753 82.3318 16.3474 80.697 16.3474C78.5719 16.3474 77.0189 14.9988 77.3458 13.2414C77.6728 11.5249 79.6753 10.1354 81.8005 10.1354C83.3944 10.1354 84.7021 10.871 85.6421 11.7293L86.623 5.68075Z" fill="#E31837"/>
<path d="M97.9844 5.02686C92.0585 5.02686 86.5821 8.29633 85.6013 13.2823C84.6204 18.3908 88.8708 21.456 94.7967 21.456C100.763 21.456 106.158 18.3908 107.18 13.2823C108.12 8.29633 103.91 5.02686 97.9844 5.02686ZM96.9627 10.258C99.2105 10.258 100.355 11.6884 99.987 13.364C99.6192 15.2031 97.9027 16.4292 95.7367 16.4292C93.5706 16.4292 92.3446 15.1622 92.6715 13.364C93.0393 11.6884 94.7149 10.258 96.9627 10.258Z" fill="#E31837"/>
<path d="M21.9687 2.08436C20.2114 1.55307 18.2088 1.30786 16.2063 1.30786C9.09517 1.30786 2.59708 5.80339 1.49364 11.4432C0.390187 16.9605 4.96745 21.2108 11.9151 21.2108C13.509 21.2108 16.8193 20.9656 18.3723 20.4343L20.007 13.2414C18.3723 14.3449 16.615 15.0397 14.5715 15.0397C11.9151 15.0397 9.95341 13.4049 10.403 11.2798C10.8116 9.19547 13.3046 7.51987 15.9611 7.51987C17.9636 7.51987 19.5575 8.41897 20.7835 9.48155L21.9687 2.08436Z" fill="#E31837"/>
<path d="M1.94348 30.5288H35.1287H35.0878L34.6791 28.6897H1.94348V30.5288Z" fill="#0060A9"/>
<path d="M1.94348 27.9541H34.4748L34.0661 26.115H1.94348V27.9541Z" fill="#0060A9"/>
<path d="M1.94348 25.2975H33.8617L33.7391 24.6436L33.4531 23.3767H1.94348V25.2975Z" fill="#0060A9"/>
<path d="M71.2565 23.3767H77.0598L76.692 25.3384H74.0355L73.9129 26.0332H76.3242L75.9563 27.9131H73.5451L73.4225 28.6079H76.1607L75.7929 30.5696H69.8669L71.2565 23.3767Z" fill="#0060A9"/>
<path d="M108.529 20.6386H107.916L107.507 19.7395H107.098L106.935 20.6386H106.403L106.812 18.5134H108.038C108.569 18.5134 108.855 18.6769 108.774 19.1673C108.692 19.5351 108.406 19.6986 108.079 19.7395L108.529 20.6386ZM107.752 19.3717C108.038 19.3717 108.242 19.3717 108.283 19.1265C108.324 18.9221 108.079 18.9221 107.834 18.9221H107.262L107.18 19.3308H107.752V19.3717Z" fill="#E31837"/>
<path d="M107.466 17.5734C106.158 17.7777 105.177 18.7994 105.259 19.9029C105.3 20.3524 105.504 20.802 105.872 21.088C106.362 21.4559 107.016 21.6193 107.752 21.5376C109.06 21.3333 110.041 20.3115 110 19.2081C109.959 18.7585 109.755 18.309 109.387 18.0229C108.855 17.6551 108.202 17.4916 107.466 17.5734ZM106.076 20.8428C105.749 20.5976 105.586 20.2707 105.586 19.9029C105.545 19.0038 106.403 18.1047 107.548 17.9412C108.161 17.8594 108.733 17.982 109.142 18.309C109.468 18.5542 109.632 18.8812 109.632 19.249C109.632 19.2898 109.632 19.2898 109.632 19.3307C109.632 20.2298 108.774 21.0472 107.67 21.2107C107.057 21.2924 106.485 21.1698 106.076 20.8428Z" fill="#E31837"/>
</svg>
